<svg width="133" height="73" viewBox="0 0 133 73" fill="none" xmlns="http://www.w3.org/2000/svg">
<rect x="0.525483" y="7.22461" width="128" height="65" transform="rotate(-3 0.525483 7.22461)" fill="white" stroke="black"/>
<path d="M25.5931 52.4748L25.4801 50.3178C26.0873 48.6571 26.9693 47.1422 28.1259 45.7731C29.3091 44.4026 30.5743 43.0679 31.9215 41.769C32.9379 40.7811 33.7755 39.9494 34.4344 39.274C35.1185 38.5706 35.6463 37.9421 36.0179 37.3886C36.3894 36.835 36.6404 36.2745 36.7709 35.7069C36.9 35.1126 36.9443 34.4294 36.9038 33.6571C36.8312 32.2723 36.3766 31.2414 35.5401 30.5642C34.7035 29.8871 33.3531 29.5974 31.489 29.6951C30.4771 29.7481 29.4441 29.909 28.39 30.1779C27.3626 30.4454 26.3793 30.7906 25.4402 31.2137L25.2392 27.379C26.1545 27.0106 27.2464 26.6997 28.5149 26.4463C29.782 26.1662 30.9881 25.9962 32.1332 25.9362C35.0092 25.7855 37.2166 26.3774 38.7552 27.7121C40.2938 29.0467 41.1273 30.939 41.2557 33.389C41.3199 34.614 41.1641 35.717 40.7883 36.698C40.411 37.6524 39.8719 38.5752 39.1709 39.4664C38.4686 40.331 37.6477 41.2285 36.7085 42.159C35.5393 43.2884 34.4353 44.3877 33.3965 45.4568C32.383 46.498 31.574 47.6218 30.9697 48.8285L42.3141 48.2339L42.4899 51.5893L25.5931 52.4748ZM57.259 51.5363C54.5427 51.6787 52.3318 51.2738 50.6263 50.3218C48.9194 49.3431 47.6282 47.8887 46.7527 45.9585C45.9023 44.0003 45.4046 41.6365 45.2595 38.8669C45.1087 35.9909 45.3398 33.5221 45.9528 31.4605C46.5924 29.3975 47.7098 27.7902 49.305 26.6385C50.9003 25.4867 53.0827 24.8383 55.8522 24.6931C58.6217 24.548 60.8466 24.9655 62.5269 25.9455C64.2338 26.9242 65.4998 28.4066 66.3248 30.3929C67.1766 32.3777 67.6778 34.8081 67.8285 37.6841C67.9736 40.4537 67.7257 42.8566 67.0848 44.893C66.4424 46.9027 65.3236 48.4834 63.7283 49.6351C62.1317 50.7602 59.9752 51.3939 57.259 51.5363ZM57.0643 47.8214C59.6208 47.6874 61.361 46.7551 62.2851 45.0243C63.2077 43.267 63.5908 40.897 63.4345 37.9144C63.2684 34.7454 62.6481 32.3346 61.5735 30.6819C60.4988 29.0292 58.6566 28.2713 56.0469 28.408C53.4371 28.5448 51.6709 29.4919 50.7483 31.2492C49.8523 33.0052 49.4874 35.4677 49.6534 38.6367C49.8097 41.6192 50.4385 43.9362 51.5398 45.5875C52.6397 47.2121 54.4812 47.9568 57.0643 47.8214ZM71.9358 50.0461L71.8227 47.8891C72.43 46.2284 73.3119 44.7135 74.4685 43.3444C75.6517 41.9739 76.917 40.6392 78.2642 39.3403C79.2805 38.3524 80.1181 37.5207 80.777 36.8453C81.4612 36.1419 81.989 35.5134 82.3605 34.9599C82.7321 34.4063 82.9831 33.8458 83.1135 33.2782C83.2426 32.6839 83.2869 32.0007 83.2464 31.2284C83.1739 29.8436 82.7193 28.8127 81.8827 28.1355C81.0461 27.4584 79.6958 27.1686 77.8317 27.2663C76.8197 27.3194 75.7867 27.4803 74.7327 27.7492C73.7053 28.0167 72.722 28.3619 71.7829 28.785L71.5819 24.9503C72.4972 24.5818 73.5891 24.2709 74.8576 24.0175C76.1246 23.7375 77.3307 23.5675 78.4758 23.5075C81.3519 23.3568 83.5592 23.9487 85.0978 25.2833C86.6365 26.618 87.47 28.5103 87.5984 30.9603C87.6626 32.1852 87.5068 33.2882 87.1309 34.2693C86.7537 35.2236 86.2146 36.1465 85.5136 37.0377C84.8112 37.9023 83.9904 38.7998 83.0511 39.7303C81.882 40.8597 80.778 41.9589 79.7392 43.0281C78.7256 44.0693 77.9167 45.1931 77.3123 46.3997L88.6568 45.8052L88.8326 49.1606L71.9358 50.0461ZM92.2595 48.981L92.1464 46.824C92.7537 45.1632 93.6356 43.6484 94.7922 42.2793C95.9754 40.9088 97.2406 39.5741 98.5878 38.2751C99.6042 37.2873 100.442 36.4556 101.101 35.7802C101.785 35.0768 102.313 34.4483 102.684 33.8947C103.056 33.3412 103.307 32.7806 103.437 32.213C103.566 31.6188 103.611 30.9355 103.57 30.1633C103.498 28.7785 103.043 27.7475 102.206 27.0704C101.37 26.3933 100.019 26.1035 98.1553 26.2012C97.1434 26.2543 96.1104 26.4152 95.0564 26.6841C94.029 26.9515 93.0457 27.2968 92.1065 27.7199L91.9056 23.8851C92.8209 23.5167 93.9128 23.2058 95.1812 22.9524C96.4483 22.6724 97.6544 22.5024 98.7995 22.4424C101.676 22.2916 103.883 22.8836 105.422 24.2182C106.96 25.5529 107.794 27.4452 107.922 29.8951C107.986 31.1201 107.83 32.2231 107.455 33.2041C107.077 34.1585 106.538 35.0813 105.837 35.9726C105.135 36.8372 104.314 37.7347 103.375 38.6651C102.206 39.7945 101.102 40.8938 100.063 41.963C99.0493 43.0041 98.2403 44.128 97.636 45.3346L108.98 44.7401L109.156 48.0955L92.2595 48.981Z" fill="black"/>
</svg>
