<svg width="282" height="81" viewBox="0 0 282 81" fill="none" xmlns="http://www.w3.org/2000/svg">
<rect x="3.92725" y="0.525483" width="277" height="65" transform="rotate(3 3.92725 0.525483)" fill="white" stroke="black"/>
<path d="M21.9699 48.035L23.318 22.3103L34.7823 22.9111C36.7529 23.0144 38.3578 23.4723 39.597 24.2849C40.8362 25.0976 41.7278 26.1724 42.2719 27.5094C42.8174 28.8197 43.0469 30.3004 42.9604 31.9515C42.8264 34.508 41.92 36.5166 40.2413 37.9774C38.5891 39.4396 36.4183 40.1003 33.7286 39.9593L26.7782 39.595L26.3239 48.2631L21.9699 48.035ZM26.9582 36.1598L33.1098 36.4821C34.8407 36.5729 36.1693 36.1885 37.0956 35.3292C38.0218 34.4698 38.5254 33.2678 38.6063 31.7233C38.6929 30.0722 38.3338 28.7716 37.5291 27.8216C36.751 26.8729 35.5231 26.3546 33.8454 26.2666L27.4941 25.9338L26.9582 36.1598ZM56.4953 50.2449C52.9535 50.0593 50.2419 49.0627 48.3606 47.2551C46.5059 45.4489 45.663 42.9346 45.8319 39.7124L46.6797 23.5346L51.0337 23.7628L50.1943 39.7808C50.0812 41.9378 50.5827 43.5797 51.6986 44.7063C52.8411 45.8343 54.5042 46.4555 56.6879 46.57C58.8449 46.683 60.5372 46.2376 61.7647 45.2338C63.0189 44.2314 63.7025 42.6517 63.8156 40.4947L64.6551 24.4766L68.9691 24.7027L68.1213 40.8805C67.9524 44.1028 66.8513 46.5151 64.818 48.1176C62.7847 49.72 60.0104 50.4291 56.4953 50.2449ZM81.6536 51.1628L83.0018 25.4382L87.3558 25.6663L86.0076 51.391L81.6536 51.1628ZM91.0547 51.6555L92.047 32.7215L96.0415 32.9309L96.1366 34.9386C97.0237 34.3175 98.0649 33.8113 99.2604 33.42C100.484 33.0035 101.815 32.8329 103.253 32.9082C105.703 33.0366 107.457 33.7027 108.515 34.9064C109.574 36.1101 110.039 37.9236 109.912 40.347L109.27 52.6102L104.956 52.3841L105.588 40.3206C105.665 38.856 105.412 37.8146 104.83 37.1967C104.275 36.5801 103.172 36.2286 101.521 36.142C100.536 36.0904 99.5532 36.2392 98.5736 36.5884C97.6206 36.939 96.8078 37.4171 96.1352 38.0228L95.4088 51.8837L91.0547 51.6555ZM121.357 53.6442C119.333 53.5381 117.843 52.926 116.887 51.8077C115.959 50.6642 115.544 49.1605 115.642 47.2963L116.161 37.3899L113.365 37.2434L113.543 33.8481L116.339 33.9946L116.567 29.6406L120.95 28.5485L120.653 34.2207L125.686 34.4845L125.228 37.8651L120.475 37.616L119.968 47.2828C119.911 48.3746 120.124 49.1601 120.606 49.6394C121.089 50.092 121.904 50.3483 123.049 50.4083C123.768 50.446 124.534 50.3526 125.347 50.1282L125.185 53.2039C124.125 53.5756 122.848 53.7223 121.357 53.6442ZM138.069 54.52C134.767 54.347 132.253 53.4008 130.527 51.6814C128.802 49.9621 128.027 47.4247 128.203 44.0693C128.362 41.0335 129.26 38.6772 130.896 37.0006C132.533 35.324 134.922 34.568 138.065 34.7327C140.941 34.8834 143.058 35.7554 144.417 37.3487C145.803 38.9167 146.434 40.8858 146.31 43.2559L146.126 46.771L132.265 46.0446C132.382 47.8933 132.981 49.1931 134.063 49.9441C135.145 50.6951 136.832 51.1306 139.122 51.2506C140.08 51.3009 141.071 51.2593 142.092 51.1259C143.114 50.9925 144.005 50.7989 144.766 50.5451L144.599 53.7407C143.727 54.0689 142.727 54.2968 141.599 54.4246C140.497 54.5538 139.321 54.5856 138.069 54.52ZM132.414 43.2085L142.44 43.734L142.509 42.4158C142.577 41.1109 142.271 40.0801 141.589 39.3234C140.909 38.5401 139.717 38.1038 138.013 38.0145C135.989 37.9084 134.568 38.2745 133.75 39.1128C132.958 39.9526 132.513 41.3178 132.414 43.2085ZM149.958 54.7425L150.951 35.8085L154.945 36.0179L155.07 38.2274C156.006 37.689 157.112 37.2129 158.389 36.7992C159.666 36.3854 160.921 36.1175 162.156 35.9952L161.982 39.3107C161.23 39.4048 160.407 39.5619 159.514 39.7822C158.65 39.9772 157.823 40.2142 157.034 40.4933C156.246 40.7458 155.578 41.0178 155.028 41.3095L154.312 54.9707L149.958 54.7425ZM164.314 55.4949L165.306 36.5609L169.3 36.7702L169.395 38.7779C170.282 38.1568 171.324 37.6506 172.519 37.2593C173.743 36.8428 175.073 36.6722 176.511 36.7476C178.961 36.876 180.716 37.542 181.774 38.7457C182.833 39.9494 183.298 41.763 183.171 44.1863L182.529 56.4495L178.215 56.2234L178.847 44.1599C178.923 42.6953 178.671 41.654 178.089 41.036C177.534 40.4195 176.431 40.0679 174.78 39.9814C173.795 39.9297 172.812 40.0785 171.832 40.4277C170.879 40.7783 170.067 41.2565 169.394 41.8621L168.668 55.7231L164.314 55.4949ZM193.697 57.4354C192.392 57.367 191.146 57.2082 189.957 56.959C188.795 56.7111 187.835 56.4338 187.077 56.1271L187.269 52.4521C188.157 52.8458 189.141 53.1644 190.223 53.408C191.305 53.6517 192.339 53.7993 193.324 53.8509C194.816 53.9291 195.888 53.8518 196.541 53.619C197.194 53.3861 197.541 52.8836 197.581 52.1113C197.611 51.5521 197.434 51.1022 197.051 50.7617C196.695 50.4226 196.138 50.0997 195.38 49.7929C194.648 49.4876 193.706 49.1177 192.554 48.6835C191.455 48.2521 190.504 47.8017 189.701 47.3323C188.899 46.8364 188.29 46.2303 187.873 45.5142C187.457 44.7981 187.278 43.8808 187.337 42.7624C187.427 41.0314 188.123 39.7327 189.423 38.8662C190.725 37.9731 192.761 37.5992 195.53 37.7443C196.622 37.8015 197.657 37.9358 198.634 38.1473C199.61 38.3587 200.439 38.6024 201.119 38.8783L200.928 42.5133C200.198 42.1813 199.384 41.9117 198.487 41.7045C197.617 41.4986 196.795 41.3755 196.023 41.335C194.638 41.2624 193.58 41.3272 192.849 41.5291C192.144 41.7325 191.772 42.1937 191.735 42.9127C191.696 43.6584 192.027 44.2098 192.729 44.5671C193.46 44.8991 194.623 45.374 196.22 45.9917C197.687 46.5226 198.847 47.064 199.699 47.616C200.552 48.1681 201.145 48.8133 201.481 49.5519C201.844 50.2652 201.996 51.1811 201.937 52.2996C201.84 54.1637 201.087 55.5262 199.68 56.3871C198.275 57.2213 196.28 57.5707 193.697 57.4354ZM205.936 57.6762L207.347 30.7532L211.701 30.9814L211.186 40.8079C212.047 40.1854 213.06 39.7044 214.226 39.365C215.393 38.9989 216.696 38.8536 218.134 38.9289C220.531 39.0545 222.272 39.7199 223.357 40.925C224.442 42.1301 224.921 43.9443 224.794 46.3677L224.151 58.6308L219.837 58.4047L220.469 46.3413C220.546 44.8766 220.28 43.8346 219.672 43.2153C219.09 42.5973 218.027 42.2479 216.482 42.1669C215.524 42.1167 214.54 42.2788 213.533 42.6532C212.527 43.001 211.686 43.4911 211.012 44.1233L210.29 57.9044L205.936 57.6762ZM231.827 36.0816L232.015 32.4866L236.769 32.7357L236.58 36.3308L231.827 36.0816ZM230.987 58.9891L231.805 43.3705L228.929 43.2198L229.502 39.9253L236.333 40.2832L235.341 59.2173L230.987 58.9891ZM239.968 68.1116L241.412 40.5494L245.167 40.7462L245.308 42.6362C246.201 41.9086 247.163 41.3849 248.195 41.0651C249.226 40.7453 250.434 40.6217 251.819 40.6943C254.535 40.8366 256.613 41.6932 258.053 43.2641C259.494 44.8083 260.126 47.2847 259.947 50.6934C259.768 54.102 258.849 56.6173 257.188 58.2393C255.529 59.8347 253.341 60.5612 250.625 60.4188C248.335 60.2988 246.406 59.6636 244.837 58.5133L244.322 68.3398L239.968 68.1116ZM249.678 57.0847C253.353 57.2773 255.312 55.0568 255.555 50.4231C255.672 48.1862 255.343 46.5801 254.566 45.6048C253.791 44.6028 252.431 44.0509 250.487 43.949C248.543 43.8471 246.884 44.4278 245.509 45.6909L245.013 55.1579C245.599 55.696 246.256 56.1443 246.985 56.5029C247.742 56.8364 248.64 57.0303 249.678 57.0847Z" fill="black"/>
</svg>
