<svg width="525" height="95" viewBox="0 0 525 95" fill="none" xmlns="http://www.w3.org/2000/svg">
<path d="M61.5309 32.4C60.2243 32.4 59.0909 32.32 58.1309 32.16C57.1709 32 56.2643 31.7867 55.4109 31.52V27.76C56.2376 28.08 57.1176 28.32 58.0509 28.48C59.0109 28.64 60.0776 28.72 61.2509 28.72C63.6509 28.72 65.4243 28.1467 66.5709 27C67.7176 25.8533 68.2909 24.3333 68.2909 22.44V20.84C67.3576 21.5067 66.2909 22.0133 65.0909 22.36C63.8909 22.7067 62.7843 22.88 61.7709 22.88C58.7843 22.88 56.5576 22.1467 55.0909 20.68C53.6509 19.2133 52.9309 17.1333 52.9309 14.44C52.9309 11.9067 53.7176 9.84 55.2909 8.24C56.8643 6.64 59.3176 5.84 62.6509 5.84C65.8776 5.84 68.3043 6.65333 69.9309 8.28C71.5843 9.88 72.4109 12.3867 72.4109 15.8V21.6C72.4109 23.7333 71.9709 25.6133 71.0909 27.24C70.2109 28.8667 68.9576 30.1333 67.3309 31.04C65.7043 31.9467 63.7709 32.4 61.5309 32.4ZM62.4109 19.56C63.5043 19.56 64.5576 19.3733 65.5709 19C66.5843 18.6267 67.4909 18.16 68.2909 17.6V14.8C68.2909 11.04 66.3976 9.16 62.6109 9.16C60.6909 9.16 59.2509 9.62667 58.2909 10.56C57.3309 11.4933 56.8509 12.7467 56.8509 14.32C56.8509 15.9467 57.2376 17.2267 58.0109 18.16C58.8109 19.0933 60.2776 19.56 62.4109 19.56ZM87.1806 32.72C84.4606 32.72 82.274 32.2 80.6206 31.16C78.9673 30.0933 77.754 28.5733 76.9806 26.6C76.234 24.6 75.8606 22.2133 75.8606 19.44C75.8606 16.56 76.2206 14.1067 76.9406 12.08C77.6873 10.0533 78.8873 8.50667 80.5406 7.44C82.194 6.37333 84.4073 5.84 87.1806 5.84C89.954 5.84 92.154 6.37333 93.7806 7.44C95.434 8.50667 96.6206 10.0533 97.3406 12.08C98.0873 14.1067 98.4606 16.56 98.4606 19.44C98.4606 22.2133 98.0873 24.6 97.3406 26.6C96.594 28.5733 95.394 30.0933 93.7406 31.16C92.0873 32.2 89.9006 32.72 87.1806 32.72ZM87.1806 29C89.7406 29 91.5273 28.16 92.5406 26.48C93.554 24.7733 94.0606 22.4267 94.0606 19.44C94.0606 16.2667 93.5673 13.8267 92.5806 12.12C91.594 10.4133 89.794 9.56 87.1806 9.56C84.5673 9.56 82.754 10.4133 81.7406 12.12C80.754 13.8267 80.2606 16.2667 80.2606 19.44C80.2606 22.4267 80.7673 24.7733 81.7806 26.48C82.794 28.16 84.594 29 87.1806 29ZM107.595 17.6C105.702 17.6 104.275 17.08 103.315 16.04C102.382 14.9733 101.915 13.6267 101.915 12C101.915 10.1067 102.382 8.61333 103.315 7.52C104.275 6.4 105.702 5.84 107.595 5.84C109.489 5.84 110.902 6.4 111.835 7.52C112.769 8.61333 113.235 10.1067 113.235 12C113.235 13.6267 112.769 14.9733 111.835 16.04C110.902 17.08 109.489 17.6 107.595 17.6ZM105.835 32L119.475 6.24H123.555L109.915 32H105.835ZM107.595 14.96C108.635 14.96 109.382 14.6933 109.835 14.16C110.289 13.6267 110.515 12.88 110.515 11.92C110.515 10.7467 110.275 9.89333 109.795 9.36C109.342 8.8 108.609 8.52 107.595 8.52C106.582 8.52 105.835 8.8 105.355 9.36C104.902 9.89333 104.675 10.7467 104.675 11.92C104.675 12.88 104.902 13.6267 105.355 14.16C105.809 14.6933 106.555 14.96 107.595 14.96ZM121.915 32.4C120.022 32.4 118.595 31.88 117.635 30.84C116.702 29.7733 116.235 28.4267 116.235 26.8C116.235 24.9067 116.702 23.4133 117.635 22.32C118.595 21.2 120.022 20.64 121.915 20.64C123.809 20.64 125.222 21.2 126.155 22.32C127.089 23.4133 127.555 24.9067 127.555 26.8C127.555 28.4267 127.089 29.7733 126.155 30.84C125.222 31.88 123.809 32.4 121.915 32.4ZM121.915 29.76C122.955 29.76 123.702 29.4933 124.155 28.96C124.609 28.4267 124.835 27.68 124.835 26.72C124.835 25.5467 124.595 24.6933 124.115 24.16C123.662 23.6 122.929 23.32 121.915 23.32C120.902 23.32 120.155 23.6 119.675 24.16C119.222 24.6933 118.995 25.5467 118.995 26.72C118.995 27.68 119.222 28.4267 119.675 28.96C120.129 29.4933 120.875 29.76 121.915 29.76ZM149.877 32.4C146.837 32.4 144.53 31.6933 142.957 30.28C141.383 28.8667 140.597 26.88 140.597 24.32V22.2C140.597 21.3467 140.77 20.56 141.117 19.84C141.49 19.12 141.903 18.4667 142.357 17.88C142.837 17.2667 143.25 16.7067 143.597 16.2C143.97 15.6667 144.157 15.1733 144.157 14.72C144.157 14.2933 144.063 14.0133 143.877 13.88C143.69 13.7467 143.357 13.68 142.877 13.68H140.117L140.477 10.4H145.517C147.543 10.4 148.557 11.3733 148.557 13.32C148.557 14.2267 148.37 15.04 147.997 15.76C147.65 16.48 147.223 17.1733 146.717 17.84C146.237 18.5067 145.81 19.2 145.437 19.92C145.09 20.6133 144.917 21.3867 144.917 22.24V24.68C144.917 26.1467 145.357 27.2267 146.237 27.92C147.117 28.5867 148.33 28.92 149.877 28.92C151.45 28.92 152.663 28.5733 153.517 27.88C154.37 27.1867 154.797 26.08 154.797 24.56V10.4H159.157V24.28C159.157 26.84 158.33 28.84 156.677 30.28C155.05 31.6933 152.783 32.4 149.877 32.4ZM172.319 32.4C170.612 32.4 168.999 32.24 167.479 31.92C165.985 31.6 164.732 31.2267 163.719 30.8V19.68H172.279L172.479 23H167.919V28.24C168.532 28.4533 169.225 28.6267 169.999 28.76C170.799 28.8667 171.572 28.92 172.319 28.92C174.692 28.92 176.359 28.36 177.319 27.24C178.305 26.0933 178.799 24.1067 178.799 21.28C178.799 19.3067 178.559 17.76 178.079 16.64C177.599 15.4933 176.799 14.6933 175.679 14.24C174.585 13.76 173.092 13.52 171.199 13.52C170.052 13.52 168.852 13.6 167.599 13.76C166.345 13.92 165.159 14.1867 164.039 14.56V11.2C165.159 10.8267 166.439 10.5333 167.879 10.32C169.345 10.1067 170.812 10 172.279 10C176.065 10 178.799 10.96 180.479 12.88C182.159 14.7733 182.999 17.5733 182.999 21.28C182.999 24.9067 182.159 27.6667 180.479 29.56C178.799 31.4533 176.079 32.4 172.319 32.4ZM195.727 32.4C195.113 32.4 194.433 32.36 193.687 32.28C192.94 32.2 192.287 32.0667 191.727 31.88L185.647 17.08H189.887L194.807 29.08C197.1 29.1867 198.767 28.5333 199.807 27.12C200.847 25.68 201.367 23.48 201.367 20.52C201.367 18.7867 201.207 17.4267 200.887 16.44C200.567 15.4267 200.02 14.72 199.247 14.32C198.5 13.8933 197.46 13.68 196.127 13.68H194.607V10.4H196.687C199.78 10.4 202.033 11.2267 203.447 12.88C204.86 14.5333 205.567 17.0667 205.567 20.48C205.567 23.3067 205.14 25.6 204.287 27.36C203.433 29.0933 202.26 30.3733 200.767 31.2C199.3 32 197.62 32.4 195.727 32.4ZM216.505 32.4C215.145 32.4 213.905 32.1867 212.785 31.76C211.665 31.3067 210.771 30.6 210.105 29.64C209.465 28.6533 209.145 27.3733 209.145 25.8C209.145 23.6933 209.851 22.0533 211.265 20.88C212.678 19.7067 214.771 19.12 217.545 19.12H224.145V17.76C224.145 16.1867 223.745 15.0933 222.945 14.48C222.145 13.84 220.678 13.52 218.545 13.52C217.318 13.52 216.118 13.6 214.945 13.76C213.771 13.92 212.625 14.1867 211.505 14.56V11.2C212.545 10.8533 213.758 10.5733 215.145 10.36C216.531 10.12 217.918 10 219.305 10C219.998 10 220.651 10.04 221.265 10.12C221.905 10.1733 222.491 10.2667 223.025 10.4H230.265L230.025 13.8H227.505C227.878 14.3867 228.131 15.0533 228.265 15.8C228.398 16.52 228.465 17.3067 228.465 18.16V32H224.145V22.48H217.785C216.318 22.48 215.198 22.7333 214.425 23.24C213.678 23.72 213.305 24.5733 213.305 25.8C213.305 26.9733 213.638 27.7867 214.305 28.24C214.998 28.6933 216.118 28.92 217.665 28.92C218.145 28.92 218.625 28.8933 219.105 28.84C219.611 28.7867 220.038 28.7067 220.385 28.6V31.92C219.905 32.0533 219.331 32.16 218.665 32.24C217.998 32.3467 217.278 32.4 216.505 32.4ZM224.017 7.08V0.519998H228.377V7.08H224.017ZM239.56 32.4C237.08 32.4 234.92 32 233.08 31.2V27.76C233.88 28.1067 234.746 28.3867 235.68 28.6C236.64 28.8133 237.586 28.92 238.52 28.92C240.333 28.92 241.773 28.6667 242.84 28.16C243.906 27.6533 244.666 26.84 245.12 25.72C245.6 24.5733 245.84 23.0667 245.84 21.2C245.84 18.4267 245.266 16.4533 244.12 15.28C243 14.1067 241.12 13.52 238.48 13.52C237.52 13.52 236.586 13.6267 235.68 13.84C234.773 14.0267 233.906 14.3067 233.08 14.68V11.2C233.986 10.8267 234.96 10.5333 236 10.32C237.066 10.1067 238.213 10 239.44 10C243.013 10 245.666 10.96 247.4 12.88C249.16 14.7733 250.04 17.5467 250.04 21.2C250.04 24.8267 249.2 27.6 247.52 29.52C245.866 31.44 243.213 32.4 239.56 32.4ZM261.443 32.4C259.123 32.4 257.309 31.72 256.003 30.36C254.723 29 254.083 27.0667 254.083 24.56V10.4H258.443V24.36C258.443 25.9867 258.803 27.16 259.523 27.88C260.243 28.5733 261.363 28.92 262.883 28.92C264.056 28.92 265.176 28.68 266.243 28.2C267.309 27.6933 268.189 27.0667 268.883 26.32V10.4H273.203V32H269.243L269.043 29.64C268.056 30.4667 266.936 31.1333 265.683 31.64C264.456 32.1467 263.043 32.4 261.443 32.4ZM292.221 32C290.755 32 289.688 31.64 289.021 30.92C288.355 30.2 288.021 29.1733 288.021 27.84V10.4H292.341V26.76C292.341 27.96 292.928 28.56 294.101 28.56H295.741V32H292.221ZM282.501 32C281.061 32 279.995 31.64 279.301 30.92C278.635 30.2 278.301 29.1733 278.301 27.84V10.4H282.661V26.76C282.661 27.96 283.248 28.56 284.421 28.56H286.021V32H282.501ZM309.861 32.4C306.768 32.4 304.341 31.6667 302.581 30.2C300.848 28.7333 299.981 26.5333 299.981 23.6V10.4H304.341V23.76C304.341 25.5467 304.808 26.8533 305.741 27.68C306.701 28.5067 308.074 28.92 309.861 28.92C311.674 28.92 313.048 28.5067 313.981 27.68C314.941 26.8533 315.421 25.5467 315.421 23.76V10.4H319.741V23.6C319.741 26.5333 318.874 28.7333 317.141 30.2C315.408 31.6667 312.981 32.4 309.861 32.4ZM315.385 7.08V0.519998H319.745V7.08H315.385ZM333.305 32.4C332.691 32.4 332.011 32.36 331.265 32.28C330.518 32.2 329.865 32.0667 329.305 31.88L323.225 17.08H327.465L332.385 29.08C334.678 29.1867 336.345 28.5333 337.385 27.12C338.425 25.68 338.945 23.48 338.945 20.52C338.945 18.7867 338.785 17.4267 338.465 16.44C338.145 15.4267 337.598 14.72 336.825 14.32C336.078 13.8933 335.038 13.68 333.705 13.68H332.185V10.4H334.265C337.358 10.4 339.611 11.2267 341.025 12.88C342.438 14.5333 343.145 17.0667 343.145 20.48C343.145 23.3067 342.718 25.6 341.865 27.36C341.011 29.0933 339.838 30.3733 338.345 31.2C336.878 32 335.198 32.4 333.305 32.4ZM351.083 32C349.616 32 348.549 31.64 347.883 30.92C347.216 30.2 346.883 29.1733 346.883 27.84V14.6C346.883 13.2667 347.123 12.1467 347.603 11.24C348.083 10.3333 348.629 9.57333 349.243 8.96C349.856 8.32 350.403 7.74667 350.883 7.24C351.363 6.70666 351.603 6.14666 351.603 5.56C351.603 4.78666 351.376 4.26666 350.923 4C350.496 3.73333 349.843 3.6 348.963 3.6C347.523 3.6 346.069 4 344.603 4.8V1.6C345.403 1.12 346.323 0.759998 347.363 0.519998C348.429 0.253331 349.456 0.119998 350.443 0.119998C352.336 0.119998 353.749 0.519998 354.683 1.32C355.616 2.12 356.083 3.25333 356.083 4.72C356.083 5.57333 355.909 6.32 355.563 6.96C355.243 7.57333 354.843 8.14667 354.363 8.68C353.883 9.21333 353.403 9.76 352.923 10.32C352.443 10.88 352.029 11.5067 351.683 12.2C351.363 12.8933 351.203 13.7333 351.203 14.72V26.76C351.203 27.4533 351.309 27.9333 351.523 28.2C351.763 28.44 352.243 28.56 352.963 28.56H354.803V32H351.083ZM366.521 32.4C364.201 32.4 362.387 31.72 361.081 30.36C359.801 29 359.161 27.0667 359.161 24.56V10.4H363.521V24.36C363.521 25.9867 363.881 27.16 364.601 27.88C365.321 28.5733 366.441 28.92 367.961 28.92C369.134 28.92 370.254 28.68 371.321 28.2C372.387 27.6933 373.267 27.0667 373.961 26.32V10.4H378.281V32H374.321L374.121 29.64C373.134 30.4667 372.014 31.1333 370.761 31.64C369.534 32.1467 368.121 32.4 366.521 32.4ZM391.419 32.4C389.739 32.4 388.233 32.0267 386.899 31.28C385.566 30.5333 384.513 29.36 383.739 27.76C382.966 26.1333 382.579 24.0533 382.579 21.52C382.579 17.7867 383.206 14.9333 384.459 12.96C385.713 10.9867 387.459 10 389.699 10C390.793 10 391.659 10.2 392.299 10.6C392.966 10.9733 393.539 11.4667 394.019 12.08C394.579 11.4667 395.313 10.9733 396.219 10.6C397.126 10.2 398.046 10 398.979 10C400.713 10 402.006 10.52 402.859 11.56C403.713 12.5733 404.139 13.9867 404.139 15.8V32H399.779V16.44C399.779 15.4267 399.633 14.6933 399.339 14.24C399.073 13.76 398.513 13.52 397.659 13.52C397.126 13.52 396.633 13.6667 396.179 13.96C395.726 14.2533 395.393 14.72 395.179 15.36H392.779C392.459 14.72 392.126 14.2533 391.779 13.96C391.433 13.6667 390.939 13.52 390.299 13.52C388.913 13.52 387.979 14.2533 387.499 15.72C387.019 17.1867 386.779 19.12 386.779 21.52C386.779 24.2667 387.246 26.1867 388.179 27.28C389.113 28.3733 390.446 28.92 392.179 28.92C392.686 28.92 393.179 28.8933 393.659 28.84C394.166 28.7867 394.593 28.7067 394.939 28.6V31.92C394.486 32.08 393.979 32.2 393.419 32.28C392.859 32.36 392.193 32.4 391.419 32.4ZM415.919 32.4C414.559 32.4 413.319 32.1867 412.199 31.76C411.105 31.3067 410.225 30.6 409.559 29.64C408.892 28.6533 408.559 27.3733 408.559 25.8C408.559 23.6933 409.265 22.0533 410.679 20.88C412.119 19.7067 414.212 19.12 416.959 19.12H423.559V17.76C423.559 16.1867 423.159 15.0933 422.359 14.48C421.585 13.84 420.132 13.52 417.999 13.52C416.745 13.52 415.532 13.6 414.359 13.76C413.212 13.92 412.079 14.1867 410.959 14.56V11.2C411.999 10.8533 413.199 10.5733 414.559 10.36C415.945 10.12 417.332 10 418.719 10C421.865 10 424.185 10.6667 425.679 12C427.172 13.3067 427.919 15.36 427.919 18.16V32H423.559V22.48H417.239C415.745 22.48 414.612 22.7333 413.839 23.24C413.092 23.72 412.719 24.5733 412.719 25.8C412.719 26.9733 413.052 27.7867 413.719 28.24C414.412 28.6933 415.532 28.92 417.079 28.92C418.145 28.92 419.065 28.8133 419.839 28.6V31.92C419.332 32.0533 418.745 32.16 418.079 32.24C417.412 32.3467 416.692 32.4 415.919 32.4ZM441.149 32V18.4C441.149 17.3067 441.029 16.4 440.789 15.68C440.549 14.96 440.095 14.4267 439.429 14.08C438.762 13.7067 437.775 13.52 436.469 13.52C435.615 13.52 434.682 13.6133 433.669 13.8C432.682 13.9867 431.789 14.24 430.989 14.56V11.2C431.789 10.8533 432.749 10.5733 433.869 10.36C435.015 10.12 436.162 10 437.309 10C440.189 10 442.269 10.6267 443.549 11.88C444.855 13.1333 445.509 15.12 445.509 17.84V32H441.149ZM458.646 32.4C456.966 32.4 455.459 32.0267 454.126 31.28C452.793 30.5333 451.739 29.36 450.966 27.76C450.193 26.1333 449.806 24.0533 449.806 21.52C449.806 17.92 450.726 15.1067 452.566 13.08C454.406 11.0267 457.166 10 460.846 10C463.326 10 465.326 10.4267 466.846 11.28C468.366 12.1067 469.473 13.1867 470.166 14.52C470.886 15.8533 471.246 17.28 471.246 18.8V32H466.886V19C466.886 17.9333 466.699 16.9867 466.326 16.16C465.953 15.3333 465.313 14.6933 464.406 14.24C463.526 13.76 462.313 13.52 460.766 13.52C458.419 13.52 456.699 14.2 455.606 15.56C454.539 16.92 454.006 18.9067 454.006 21.52C454.006 24.2667 454.473 26.1867 455.406 27.28C456.339 28.3733 457.673 28.92 459.406 28.92C459.913 28.92 460.406 28.8933 460.886 28.84C461.393 28.7867 461.819 28.7067 462.166 28.6V31.92C461.713 32.08 461.206 32.2 460.646 32.28C460.086 32.36 459.419 32.4 458.646 32.4ZM0.469219 92V78.32C0.469219 75.7067 1.25589 73.6667 2.82922 72.2C4.40255 70.7333 6.88255 70 10.2692 70C13.6826 70 16.1492 70.7333 17.6692 72.2C19.2159 73.6667 19.9892 75.7067 19.9892 78.32V92H15.6292V77.92C15.6292 76.4 15.1626 75.2933 14.2292 74.6C13.2959 73.88 11.9759 73.52 10.2692 73.52C8.48255 73.52 7.12255 73.88 6.18922 74.6C5.28255 75.2933 4.82922 76.4 4.82922 77.92V82.36C6.00255 81.4 7.40255 80.92 9.02922 80.92H11.6292L11.7892 84.4H8.90922C7.28255 84.4 5.92255 84.8533 4.82922 85.76V92H0.469219ZM32.1586 92.4C30.7453 92.4 29.3719 92.3067 28.0386 92.12C26.7319 91.9333 25.6519 91.6667 24.7986 91.32V87.68C25.8119 88.08 26.9053 88.3867 28.0786 88.6C29.2786 88.8133 30.3719 88.92 31.3586 88.92C33.1986 88.92 34.5586 88.76 35.4386 88.44C36.3186 88.0933 36.7586 87.3867 36.7586 86.32C36.7586 85.5467 36.5319 84.96 36.0786 84.56C35.6253 84.16 34.9586 83.8133 34.0786 83.52C33.1986 83.2 32.1053 82.8267 30.7986 82.4C29.5719 81.9733 28.4653 81.5067 27.4786 81C26.4919 80.4933 25.7053 79.8533 25.1186 79.08C24.5586 78.3067 24.2786 77.3333 24.2786 76.16C24.2786 74.2667 24.9986 72.7733 26.4386 71.68C27.8786 70.56 30.0519 70 32.9586 70C34.1853 70 35.3986 70.0933 36.5986 70.28C37.7986 70.4667 38.7853 70.6933 39.5586 70.96V74.56C38.6786 74.2133 37.6919 73.96 36.5986 73.8C35.5319 73.6133 34.5319 73.52 33.5986 73.52C32.0519 73.52 30.8119 73.6933 29.8786 74.04C28.9453 74.36 28.4786 75.0267 28.4786 76.04C28.4786 76.7067 28.7186 77.24 29.1986 77.64C29.6786 78.0133 30.3586 78.36 31.2386 78.68C32.1453 78.9733 33.2253 79.3333 34.4786 79.76C35.8919 80.2133 37.0786 80.72 38.0386 81.28C38.9986 81.8133 39.7186 82.48 40.1986 83.28C40.7053 84.0533 40.9586 85.0667 40.9586 86.32C40.9586 88.4267 40.1586 89.9733 38.5586 90.96C36.9853 91.92 34.8519 92.4 32.1586 92.4ZM53.3148 92.4C51.6082 92.4 49.9948 92.24 48.4748 91.92C46.9815 91.6 45.7282 91.2267 44.7148 90.8V79.68H53.2748L53.4748 83H48.9148V88.24C49.5282 88.4533 50.2215 88.6267 50.9948 88.76C51.7948 88.8667 52.5682 88.92 53.3148 88.92C55.6882 88.92 57.3548 88.36 58.3148 87.24C59.3015 86.0933 59.7948 84.1067 59.7948 81.28C59.7948 79.3067 59.5548 77.76 59.0748 76.64C58.5948 75.4933 57.7948 74.6933 56.6748 74.24C55.5815 73.76 54.0882 73.52 52.1948 73.52C51.0482 73.52 49.8482 73.6 48.5948 73.76C47.3415 73.92 46.1548 74.1867 45.0348 74.56V71.2C46.1548 70.8267 47.4348 70.5333 48.8748 70.32C50.3415 70.1067 51.8082 70 53.2748 70C57.0615 70 59.7948 70.96 61.4748 72.88C63.1548 74.7733 63.9948 77.5733 63.9948 81.28C63.9948 84.9067 63.1548 87.6667 61.4748 89.56C59.7948 91.4533 57.0748 92.4 53.3148 92.4ZM78.1227 92.4C75.0293 92.4 72.6027 91.6667 70.8427 90.2C69.1093 88.7333 68.2427 86.5333 68.2427 83.6V70.4H72.6027V83.76C72.6027 85.5467 73.0693 86.8533 74.0027 87.68C74.9627 88.5067 76.336 88.92 78.1227 88.92C79.936 88.92 81.3093 88.5067 82.2427 87.68C83.2027 86.8533 83.6827 85.5467 83.6827 83.76V70.4H88.0027V83.6C88.0027 86.5333 87.136 88.7333 85.4027 90.2C83.6693 91.6667 81.2427 92.4 78.1227 92.4ZM93.0864 92V78.32C93.0864 75.7067 93.8731 73.6667 95.4464 72.2C97.0197 70.7333 99.4997 70 102.886 70C106.3 70 108.766 70.7333 110.286 72.2C111.833 73.6667 112.606 75.7067 112.606 78.32V92H108.246V77.92C108.246 76.4 107.78 75.2933 106.846 74.6C105.913 73.88 104.593 73.52 102.886 73.52C101.1 73.52 99.7397 73.88 98.8064 74.6C97.8997 75.2933 97.4464 76.4 97.4464 77.92V82.36C98.6197 81.4 100.02 80.92 101.646 80.92H104.246L104.406 84.4H101.526C99.8997 84.4 98.5397 84.8533 97.4464 85.76V92H93.0864ZM124.776 92.4C123.362 92.4 121.989 92.3067 120.656 92.12C119.349 91.9333 118.269 91.6667 117.416 91.32V87.68C118.429 88.08 119.522 88.3867 120.696 88.6C121.896 88.8133 122.989 88.92 123.976 88.92C125.816 88.92 127.176 88.76 128.056 88.44C128.936 88.0933 129.376 87.3867 129.376 86.32C129.376 85.5467 129.149 84.96 128.696 84.56C128.242 84.16 127.576 83.8133 126.696 83.52C125.816 83.2 124.722 82.8267 123.416 82.4C122.189 81.9733 121.082 81.5067 120.096 81C119.109 80.4933 118.322 79.8533 117.736 79.08C117.176 78.3067 116.896 77.3333 116.896 76.16C116.896 74.2667 117.616 72.7733 119.056 71.68C120.496 70.56 122.669 70 125.576 70C126.802 70 128.016 70.0933 129.216 70.28C130.416 70.4667 131.402 70.6933 132.176 70.96V74.56C131.296 74.2133 130.309 73.96 129.216 73.8C128.149 73.6133 127.149 73.52 126.216 73.52C124.669 73.52 123.429 73.6933 122.496 74.04C121.562 74.36 121.096 75.0267 121.096 76.04C121.096 76.7067 121.336 77.24 121.816 77.64C122.296 78.0133 122.976 78.36 123.856 78.68C124.762 78.9733 125.842 79.3333 127.096 79.76C128.509 80.2133 129.696 80.72 130.656 81.28C131.616 81.8133 132.336 82.48 132.816 83.28C133.322 84.0533 133.576 85.0667 133.576 86.32C133.576 88.4267 132.776 89.9733 131.176 90.96C129.602 91.92 127.469 92.4 124.776 92.4ZM145.932 92.4C144.225 92.4 142.612 92.24 141.092 91.92C139.599 91.6 138.345 91.2267 137.332 90.8V79.68H145.892L146.092 83H141.532V88.24C142.145 88.4533 142.839 88.6267 143.612 88.76C144.412 88.8667 145.185 88.92 145.932 88.92C148.305 88.92 149.972 88.36 150.932 87.24C151.919 86.0933 152.412 84.1067 152.412 81.28C152.412 79.3067 152.172 77.76 151.692 76.64C151.212 75.4933 150.412 74.6933 149.292 74.24C148.199 73.76 146.705 73.52 144.812 73.52C143.665 73.52 142.465 73.6 141.212 73.76C139.959 73.92 138.772 74.1867 137.652 74.56V71.2C138.772 70.8267 140.052 70.5333 141.492 70.32C142.959 70.1067 144.425 70 145.892 70C149.679 70 152.412 70.96 154.092 72.88C155.772 74.7733 156.612 77.5733 156.612 81.28C156.612 84.9067 155.772 87.6667 154.092 89.56C152.412 91.4533 149.692 92.4 145.932 92.4ZM169.34 92.4C168.727 92.4 168.047 92.36 167.3 92.28C166.553 92.2 165.9 92.0667 165.34 91.88L159.26 77.08H163.5L168.42 89.08C170.713 89.1867 172.38 88.5333 173.42 87.12C174.46 85.68 174.98 83.48 174.98 80.52C174.98 78.7867 174.82 77.4267 174.5 76.44C174.18 75.4267 173.633 74.72 172.86 74.32C172.113 73.8933 171.073 73.68 169.74 73.68H168.22V70.4H170.3C173.393 70.4 175.647 71.2267 177.06 72.88C178.473 74.5333 179.18 77.0667 179.18 80.48C179.18 83.3067 178.753 85.6 177.9 87.36C177.047 89.0933 175.873 90.3733 174.38 91.2C172.913 92 171.233 92.4 169.34 92.4ZM189.158 92C187.451 92 186.318 91.5467 185.758 90.64C185.225 89.7067 184.958 88.4667 184.958 86.92V69.52C184.958 67.7867 184.625 66.4933 183.958 65.64C183.291 64.76 182.251 64.0667 180.838 63.56V60.24H193.118V63.68H186.318C187.385 64.2667 188.145 65.04 188.598 66C189.051 66.9333 189.278 68.24 189.278 69.92V86.76C189.278 87.4533 189.385 87.9333 189.598 88.2C189.838 88.44 190.318 88.56 191.038 88.56H192.878V92H189.158ZM204.095 92.4C202.415 92.4 200.908 92.0267 199.575 91.28C198.242 90.5333 197.188 89.36 196.415 87.76C195.642 86.1333 195.255 84.0533 195.255 81.52C195.255 77.92 196.175 75.1067 198.015 73.08C199.855 71.0267 202.615 70 206.295 70C208.775 70 210.775 70.4267 212.295 71.28C213.815 72.1067 214.922 73.1867 215.615 74.52C216.335 75.8533 216.695 77.28 216.695 78.8V92H212.335V79C212.335 77.9333 212.148 76.9867 211.775 76.16C211.402 75.3333 210.762 74.6933 209.855 74.24C208.975 73.76 207.762 73.52 206.215 73.52C203.868 73.52 202.148 74.2 201.055 75.56C199.988 76.92 199.455 78.9067 199.455 81.52C199.455 84.2667 199.922 86.1867 200.855 87.28C201.788 88.3733 203.122 88.92 204.855 88.92C205.362 88.92 205.855 88.8933 206.335 88.84C206.842 88.7867 207.268 88.7067 207.615 88.6V91.92C207.162 92.08 206.655 92.2 206.095 92.28C205.535 92.36 204.868 92.4 204.095 92.4ZM230.798 92.4C228.878 92.4 227.172 92.1733 225.678 91.72C224.185 91.2667 222.998 90.5467 222.118 89.56C221.265 88.5733 220.838 87.2667 220.838 85.64C220.838 84.5467 221.092 83.5867 221.598 82.76C222.105 81.9067 222.852 81.24 223.838 80.76C223.012 80.44 222.318 79.8933 221.758 79.12C221.225 78.3467 220.958 77.3867 220.958 76.24C220.958 74.1867 221.585 72.64 222.838 71.6C224.118 70.5333 225.745 70 227.718 70C228.492 70 229.158 70.0533 229.718 70.16C230.278 70.24 230.785 70.36 231.238 70.52V73.84C230.465 73.6267 229.558 73.52 228.518 73.52C227.452 73.52 226.625 73.7333 226.038 74.16C225.452 74.5867 225.158 75.28 225.158 76.24C225.158 77.2533 225.492 77.9867 226.158 78.44C226.825 78.8667 227.745 79.08 228.918 79.08H231.198L231.398 82.32H228.838C226.305 82.32 225.038 83.4267 225.038 85.64C225.038 86.7333 225.492 87.56 226.398 88.12C227.305 88.6533 228.705 88.92 230.598 88.92C234.358 88.92 236.238 87.3867 236.238 84.32V70.4H240.558V83.8C240.558 86.7067 239.745 88.8667 238.118 90.28C236.492 91.6933 234.052 92.4 230.798 92.4ZM249.905 92C248.439 92 247.372 91.64 246.705 90.92C246.039 90.2 245.705 89.1733 245.705 87.84V70.4H250.025V86.76C250.025 87.96 250.612 88.56 251.785 88.56H253.625V92H249.905ZM266.491 92.4C265.984 92.4 265.384 92.3467 264.691 92.24C264.024 92.16 263.478 92.04 263.051 91.88L259.851 83.36H257.091L257.291 80.08H262.611L265.931 88.96C267.131 89.0133 268.198 88.7867 269.131 88.28C270.091 87.7733 270.838 86.9333 271.371 85.76C271.931 84.56 272.211 82.9733 272.211 81C272.211 79.1333 271.958 77.6533 271.451 76.56C270.971 75.4667 270.158 74.6933 269.011 74.24C267.891 73.76 266.358 73.52 264.411 73.52C263.344 73.52 262.211 73.6 261.011 73.76C259.811 73.92 258.664 74.1867 257.571 74.56V71.2C258.638 70.8533 259.851 70.5733 261.211 70.36C262.598 70.12 264.051 70 265.571 70C269.384 70 272.144 70.9467 273.851 72.84C275.558 74.7333 276.411 77.4533 276.411 81C276.411 83.48 275.944 85.5733 275.011 87.28C274.104 88.96 272.904 90.24 271.411 91.12C269.918 91.9733 268.278 92.4 266.491 92.4ZM266.425 67.12V63.44H263.265V60.44H269.425V64.08H278.065L277.905 67.12H266.425ZM288.825 92V78.4C288.825 77.3067 288.705 76.4 288.465 75.68C288.225 74.96 287.771 74.4267 287.105 74.08C286.438 73.7067 285.451 73.52 284.145 73.52C283.291 73.52 282.358 73.6133 281.345 73.8C280.358 73.9867 279.465 74.24 278.665 74.56V71.2C279.465 70.8533 280.425 70.5733 281.545 70.36C282.691 70.12 283.838 70 284.985 70C287.865 70 289.945 70.6267 291.225 71.88C292.531 73.1333 293.185 75.12 293.185 77.84V92H288.825ZM301.962 92C300.495 92 299.428 91.64 298.762 90.92C298.095 90.2 297.762 89.1733 297.762 87.84V74.6C297.762 73.2667 298.002 72.1467 298.482 71.24C298.962 70.3333 299.508 69.5733 300.122 68.96C300.735 68.32 301.282 67.7467 301.762 67.24C302.242 66.7067 302.482 66.1467 302.482 65.56C302.482 64.7867 302.255 64.2667 301.802 64C301.375 63.7333 300.722 63.6 299.842 63.6C298.402 63.6 296.948 64 295.482 64.8V61.6C296.282 61.12 297.202 60.76 298.242 60.52C299.308 60.2533 300.335 60.12 301.322 60.12C303.215 60.12 304.628 60.52 305.562 61.32C306.495 62.12 306.962 63.2533 306.962 64.72C306.962 65.5733 306.788 66.32 306.442 66.96C306.122 67.5733 305.722 68.1467 305.242 68.68C304.762 69.2133 304.282 69.76 303.802 70.32C303.322 70.88 302.908 71.5067 302.562 72.2C302.242 72.8933 302.082 73.7333 302.082 74.72V86.76C302.082 87.4533 302.188 87.9333 302.402 88.2C302.642 88.44 303.122 88.56 303.842 88.56H305.682V92H301.962ZM310.04 92V70.4H314.4V77.2H320.64C322.213 77.2 323.293 76.8667 323.88 76.2C324.493 75.5067 324.8 74.5067 324.8 73.2V70.4H329.12V73.08C329.12 74.4133 328.88 75.5867 328.4 76.6C327.946 77.6133 327.106 78.3467 325.88 78.8C327.106 79.2267 327.92 79.9067 328.32 80.84C328.72 81.7467 328.92 82.8133 328.92 84.04V92H324.6V84.56C324.6 83.0133 324.306 81.96 323.72 81.4C323.133 80.8133 322.053 80.52 320.48 80.52H314.4V92H310.04ZM358.46 94.44C357.153 94.44 355.767 94.3067 354.3 94.04C352.833 93.7733 351.54 93.3333 350.42 92.72V89.24C351.193 89.64 352.047 89.9733 352.98 90.24C353.94 90.48 354.887 90.6667 355.82 90.8C356.78 90.9067 357.633 90.96 358.38 90.96C360.247 90.96 361.673 90.7467 362.66 90.32C363.647 89.8933 364.14 89.3333 364.14 88.64C364.14 88.1333 363.953 87.6933 363.58 87.32C362.94 87.6933 362.18 88 361.3 88.24C360.42 88.48 359.42 88.6 358.3 88.6C351.98 88.6 348.82 85.6667 348.82 79.8V78.48C348.82 76.64 348.407 75.36 347.58 74.64C346.78 73.8933 345.407 73.52 343.46 73.52C342.153 73.52 340.94 73.7067 339.82 74.08C338.7 74.4533 337.807 74.9467 337.14 75.56V76.28L341.7 77.44V80.32C340.66 80.5867 339.927 81.0133 339.5 81.6C339.073 82.1867 338.86 83.0667 338.86 84.24V86.84C338.86 87.4533 338.993 87.8933 339.26 88.16C339.527 88.4267 339.953 88.56 340.54 88.56H342.74V92H338.42C337.22 92 336.273 91.6267 335.58 90.88C334.887 90.1333 334.54 89.16 334.54 87.96V84.2C334.54 83.0267 334.767 82 335.22 81.12C335.673 80.2133 336.5 79.5867 337.7 79.24L333.38 78.16V73.68C334.447 72.7467 335.847 71.9067 337.58 71.16C339.313 70.3867 341.327 70 343.62 70C346.687 70 349.02 70.6667 350.62 72C352.247 73.3067 353.06 75.5067 353.06 78.6V79.96C353.06 81.7467 353.473 83.0533 354.3 83.88C355.153 84.7067 356.487 85.12 358.3 85.12C360.113 85.12 361.433 84.7067 362.26 83.88C363.113 83.0533 363.54 81.7467 363.54 79.96V70.4H367.86V79.8C367.86 82.04 367.367 83.8267 366.38 85.16C366.833 85.5867 367.193 86.12 367.46 86.76C367.753 87.4 367.9 88.1067 367.9 88.88C367.9 90.6667 367.073 92.04 365.42 93C363.793 93.96 361.473 94.44 358.46 94.44ZM363.529 67.08V60.52H367.889V67.08H363.529ZM377.249 92C375.783 92 374.716 91.64 374.049 90.92C373.383 90.2 373.049 89.1733 373.049 87.84V70.4H377.369V86.76C377.369 87.96 377.956 88.56 379.129 88.56H380.969V92H377.249ZM385.235 92V70.4H389.595V77.2H395.835C397.408 77.2 398.488 76.8667 399.075 76.2C399.688 75.5067 399.995 74.5067 399.995 73.2V70.4H404.315V73.08C404.315 74.4133 404.075 75.5867 403.595 76.6C403.142 77.6133 402.302 78.3467 401.075 78.8C402.302 79.2267 403.115 79.9067 403.515 80.84C403.915 81.7467 404.115 82.8133 404.115 84.04V92H399.795V84.56C399.795 83.0133 399.502 81.96 398.915 81.4C398.328 80.8133 397.248 80.52 395.675 80.52H389.595V92H385.235ZM421.135 92.4C419.509 92.4 418.082 92.1467 416.855 91.64C415.655 91.1333 414.562 90.4667 413.575 89.64L413.335 92H409.375V70.4H413.735V86.32C414.429 87.0667 415.295 87.6933 416.335 88.2C417.375 88.68 418.495 88.92 419.695 88.92C421.189 88.92 422.309 88.5733 423.055 87.88C423.802 87.16 424.175 85.9867 424.175 84.36V70.4H428.495V84.56C428.495 87.0667 427.842 89 426.535 90.36C425.229 91.72 423.429 92.4 421.135 92.4ZM411.834 67.12L412.034 64.08H419.794V60.76H422.954V64.08H425.354V60.76H428.514V67.12H411.834ZM441.674 92.4C439.968 92.4 438.354 92.24 436.834 91.92C435.341 91.6 434.088 91.2267 433.074 90.8V79.68H441.634L441.834 83H437.274V88.24C437.888 88.4533 438.581 88.6267 439.354 88.76C440.154 88.8667 440.928 88.92 441.674 88.92C444.048 88.92 445.714 88.36 446.674 87.24C447.661 86.0933 448.154 84.1067 448.154 81.28C448.154 79.3067 447.914 77.76 447.434 76.64C446.954 75.4933 446.154 74.6933 445.034 74.24C443.941 73.76 442.448 73.52 440.554 73.52C439.408 73.52 438.208 73.6 436.954 73.76C435.701 73.92 434.514 74.1867 433.394 74.56V71.2C434.514 70.8267 435.794 70.5333 437.234 70.32C438.701 70.1067 440.168 70 441.634 70C445.421 70 448.154 70.96 449.834 72.88C451.514 74.7733 452.354 77.5733 452.354 81.28C452.354 84.9067 451.514 87.6667 449.834 89.56C448.154 91.4533 445.434 92.4 441.674 92.4ZM463.962 92.4C461.642 92.4 459.829 91.72 458.522 90.36C457.242 89 456.602 87.0667 456.602 84.56V70.4H460.962V84.36C460.962 85.9867 461.322 87.16 462.042 87.88C462.762 88.5733 463.882 88.92 465.402 88.92C466.575 88.92 467.695 88.68 468.762 88.2C469.829 87.6933 470.709 87.0667 471.402 86.32V70.4H475.722V92H471.762L471.562 89.64C470.575 90.4667 469.455 91.1333 468.202 91.64C466.975 92.1467 465.562 92.4 463.962 92.4ZM481.181 92V84.2C481.181 83.0267 481.407 82 481.861 81.12C482.314 80.2133 483.141 79.5867 484.341 79.24L480.021 78.16V73.68C481.087 72.7467 482.487 71.9067 484.221 71.16C485.981 70.3867 488.034 70 490.381 70C493.554 70 495.994 70.6667 497.701 72C499.407 73.3067 500.261 75.5067 500.261 78.6V92H495.901V78.48C495.901 76.64 495.461 75.36 494.581 74.64C493.727 73.8933 492.274 73.52 490.221 73.52C488.887 73.52 487.647 73.7067 486.501 74.08C485.354 74.4533 484.447 74.9467 483.781 75.56V76.28L488.341 77.44V80.32C487.301 80.5867 486.567 81.0133 486.141 81.6C485.714 82.1867 485.501 83.0667 485.501 84.24V92H481.181ZM490.792 67.12V61.28H494.392V64.08H504.752L504.552 67.12H490.792ZM512.712 92.4C510.392 92.4 508.579 91.72 507.272 90.36C505.992 89 505.352 87.0667 505.352 84.56V70.4H509.712V84.36C509.712 85.9867 510.072 87.16 510.792 87.88C511.512 88.5733 512.632 88.92 514.152 88.92C515.325 88.92 516.445 88.68 517.512 88.2C518.579 87.6933 519.459 87.0667 520.152 86.32V70.4H524.472V92H520.512L520.312 89.64C519.325 90.4667 518.205 91.1333 516.952 91.64C515.725 92.1467 514.312 92.4 512.712 92.4Z" fill="black"/>
</svg>
