<svg width="243" height="84" viewBox="0 0 243 84" fill="none" xmlns="http://www.w3.org/2000/svg">
<rect x="0.701147" y="9.43003" width="226.25" height="38.25" transform="rotate(-2.29 0.701147 9.43003)" fill="white" stroke="black" stroke-width="0.75"/>
<path d="M16.7797 27.9673C16.6646 28.092 16.489 28.2058 16.2529 28.3087C16.0296 28.3977 15.7914 28.4472 15.5383 28.4573C14.8721 28.484 14.3246 28.3057 13.8956 27.9226C13.4666 27.5394 13.2391 27.0214 13.213 26.3686C13.1868 25.7158 13.399 25.1802 13.8493 24.7619C14.299 24.3302 14.9036 24.0992 15.663 24.0689C16.569 24.0326 17.2849 24.2509 17.8109 24.7236C18.3369 25.1962 18.6177 25.8789 18.6534 26.7715L18.9659 34.5853L24.6413 34.3583L24.2242 23.9267L26.1426 23.8499L26.5902 35.041L17.0778 35.4214L16.7797 27.9673ZM15.5727 27.8155C16.0389 27.7968 16.4061 27.6353 16.6742 27.3311C16.9556 27.0262 17.0872 26.6473 17.0691 26.1944C17.051 25.7414 16.8898 25.3809 16.5855 25.1128C16.2807 24.8314 15.9018 24.6998 15.4488 24.7179C14.9958 24.736 14.6286 24.8975 14.3473 25.2023C14.0653 25.4938 13.9334 25.8661 13.9516 26.319C13.9697 26.772 14.1311 27.1392 14.436 27.4206C14.7408 27.7019 15.1197 27.8336 15.5727 27.8155ZM33.2369 23.3661C35.0355 23.2942 36.464 23.644 37.5223 24.4157C38.5806 25.1874 39.1383 26.2859 39.1953 27.7115C39.2113 28.1112 39.186 28.8127 39.1194 29.8162C39.0325 30.9806 39.0146 32.2023 39.0658 33.4813L39.1081 34.5404L37.0498 34.6227L34.6485 30.6355C34.5041 31.0282 34.2632 31.3448 33.9259 31.5851C33.588 31.8121 33.1926 31.9347 32.7396 31.9528C32.0735 31.9794 31.5126 31.8017 31.057 31.4196C30.6142 31.0237 30.3802 30.5126 30.3552 29.8864C30.3291 29.2336 30.5345 28.6983 30.9715 28.2805C31.408 27.8494 31.9859 27.6195 32.7053 27.5907C33.8377 27.5454 34.7194 28.0706 35.3504 29.1663L37.24 32.3733C37.2054 31.5073 37.2081 30.5732 37.2481 29.5708C37.2763 28.6089 37.2838 27.9614 37.2705 27.6283C37.2247 26.4826 36.842 25.5905 36.1226 24.952C35.4165 24.3131 34.4706 24.0173 33.2849 24.0647C32.1258 24.1111 31.2116 24.4412 30.5423 25.0551C29.8729 25.669 29.5383 26.4764 29.5383 27.4772L27.7397 27.5491C27.721 26.7492 27.9329 26.0402 28.3752 25.422C28.8175 24.8038 29.452 24.3181 30.2785 23.9648C31.1184 23.6109 32.1045 23.4114 33.2369 23.3661ZM32.7149 31.3333C33.1812 31.3147 33.555 31.1529 33.8364 30.8481C34.1178 30.5433 34.2494 30.1644 34.2313 29.7114C34.2132 29.2584 34.0517 28.8913 33.7469 28.6099C33.4421 28.3285 33.0565 28.1972 32.5902 28.2158C32.1372 28.2339 31.7701 28.3954 31.4887 28.7002C31.2073 29.005 31.0757 29.3839 31.0938 29.8369C31.1119 30.2899 31.2734 30.657 31.5782 30.9384C31.883 31.2198 32.2619 31.3514 32.7149 31.3333ZM41.6328 29.9959C41.6077 29.3697 41.7266 28.8379 41.9893 28.4004C42.2654 27.9623 42.6728 27.6391 43.2115 27.4308L40.9134 27.5227C40.9171 26.6151 41.1455 25.8187 41.5985 25.1334C42.0509 24.4348 42.6896 23.8888 43.5145 23.4955C44.3395 23.1022 45.2982 22.8838 46.3906 22.8401C47.4431 22.798 48.3755 22.9208 49.1876 23.2086C49.9998 23.4964 50.631 23.9315 51.0813 24.514C51.5444 25.0826 51.7914 25.7533 51.8223 26.526L52.1219 34.02L50.2035 34.0967L49.8958 26.4029C49.8585 25.4703 49.5228 24.7498 48.8886 24.2414C48.2678 23.7324 47.4378 23.4988 46.3986 23.5403C45.3062 23.584 44.4311 23.8925 43.7735 24.4659C43.1154 25.026 42.7652 25.7806 42.7231 26.7297L45.341 26.625L45.3666 27.2645C44.7058 27.4244 44.2291 27.6836 43.9366 28.0423C43.644 28.4009 43.5105 28.9 43.5361 29.5395L43.7287 34.3556L41.8102 34.4324L41.6328 29.9959ZM55.6298 34.0799C55.2967 34.0932 55.0196 34.0042 54.7985 33.8129C54.5901 33.6077 54.4795 33.3453 54.4667 33.0255C54.4545 32.7191 54.5509 32.4617 54.7561 32.2533C54.9608 32.0316 55.2229 31.9144 55.5427 31.9016C55.8758 31.8883 56.1531 31.984 56.3748 32.1886C56.596 32.3799 56.7127 32.6288 56.7249 32.9352C56.7377 33.255 56.6418 33.5257 56.4372 33.7474C56.232 33.9557 55.9629 34.0666 55.6298 34.0799ZM61.0997 26.195C60.9846 26.3197 60.809 26.4335 60.5729 26.5363C60.3497 26.6253 60.1114 26.6749 59.8583 26.685C59.1922 26.7117 58.6446 26.5334 58.2156 26.1502C57.7866 25.7671 57.5591 25.2491 57.533 24.5963C57.5069 23.9434 57.719 23.4079 58.1693 22.9896C58.6191 22.5579 59.2237 22.3269 59.9831 22.2965C60.889 22.2603 61.605 22.4785 62.1309 22.9512C62.6569 23.4239 62.9377 24.1066 62.9734 24.9992L63.2859 32.8129L68.9614 32.586L68.5442 22.1543L70.4627 22.0776L70.9102 33.2687L61.3978 33.6491L61.0997 26.195ZM59.8927 26.0431C60.359 26.0245 60.7262 25.863 60.9942 25.5587C61.2756 25.2539 61.4072 24.875 61.3891 24.422C61.371 23.9691 61.2098 23.6086 60.9055 23.3405C60.6007 23.0591 60.2218 22.9275 59.7688 22.9456C59.3159 22.9637 58.9487 23.1252 58.6673 23.43C58.3854 23.7215 58.2535 24.0937 58.2716 24.5467C58.2897 24.9997 58.4512 25.3669 58.756 25.6482C59.0608 25.9296 59.4397 26.0612 59.8927 26.0431ZM69.349 37.5745C69.1172 37.7839 68.7881 37.8972 68.3618 37.9142C67.8289 37.9355 67.3892 37.7863 67.0428 37.4665C66.6836 37.1607 66.4937 36.7479 66.4729 36.2283C66.4516 35.6954 66.6341 35.2544 67.0205 34.9054C67.394 34.5702 67.8939 34.3901 68.5201 34.365C69.2661 34.3352 69.8662 34.4914 70.3202 34.8335C70.7748 35.1889 71.0138 35.6598 71.0372 36.246L71.1659 39.4634L69.4273 39.5329L69.349 37.5745ZM68.3578 37.3139C68.6908 37.3006 68.9664 37.1828 69.1843 36.9606C69.389 36.7389 69.4843 36.4549 69.4705 36.1085C69.4572 35.7754 69.3394 35.4999 69.1172 35.2819C68.8822 35.0778 68.5981 34.9824 68.2651 34.9957C67.932 35.0091 67.6632 35.1266 67.4585 35.3482C67.2411 35.5838 67.139 35.8681 67.1524 36.2012C67.1657 36.5342 67.2898 36.8028 67.5248 37.0069C67.7471 37.2249 68.0247 37.3272 68.3578 37.3139ZM76.7015 33.2372C75.7956 33.2735 75.0796 33.0552 74.5537 32.5825C74.0277 32.1098 73.7469 31.4272 73.7112 30.5346L73.6384 28.716C73.6134 28.0899 73.7322 27.558 73.995 27.1205C74.271 26.6825 74.6784 26.3592 75.2172 26.1509L72.919 26.2428C72.9228 25.3352 73.1511 24.5388 73.6041 23.8535C74.0566 23.1549 74.6886 22.6092 75.5002 22.2164C76.3118 21.8237 77.2639 21.6055 78.3563 21.5618C79.3955 21.5202 80.3079 21.6439 81.0934 21.9327C81.8922 22.221 82.5165 22.6498 82.9662 23.2189C83.416 23.7881 83.6566 24.4657 83.688 25.2517L83.9542 31.9064L88.5105 31.7242L88.0966 21.3724L90.015 21.2957L90.4625 32.4868L82.0693 32.8224L81.7616 25.1286C81.7248 24.2093 81.3894 23.4955 80.7552 22.9871C80.1338 22.4648 79.3102 22.2242 78.2844 22.2652C77.2319 22.3073 76.3835 22.6148 75.7392 23.1877C75.1083 23.76 74.7714 24.5141 74.7288 25.4498L77.3467 25.3452L77.3723 25.9846C76.7115 26.1445 76.2348 26.4038 75.9422 26.7624C75.6497 27.121 75.5162 27.6201 75.5417 28.2596L75.5849 29.3387C75.7 29.214 75.8759 29.1069 76.1125 29.0174C76.3485 28.9146 76.5931 28.8581 76.8463 28.8479C77.5124 28.8213 78.06 28.9996 78.489 29.3827C78.9179 29.7659 79.1455 30.2839 79.1716 30.9367C79.1977 31.5895 78.9859 32.1317 78.5361 32.5634C78.0858 32.9817 77.4743 33.2063 76.7015 33.2372ZM76.9174 32.6281C77.3837 32.6095 77.7575 32.4477 78.0389 32.1429C78.3203 31.8381 78.4516 31.4525 78.433 30.9863C78.4143 30.52 78.2526 30.1461 77.9478 29.8647C77.643 29.5834 77.2574 29.452 76.7911 29.4706C76.3248 29.4893 75.951 29.651 75.6696 29.9558C75.3882 30.2607 75.2569 30.6462 75.2755 31.1125C75.2936 31.5655 75.4554 31.9393 75.7607 32.234C76.0789 32.5149 76.4644 32.6462 76.9174 32.6281ZM85.7479 37.7193C84.6554 37.763 83.7876 37.5842 83.1444 37.1829C82.515 36.7945 82.1857 36.2338 82.1564 35.5011C82.1329 34.9149 82.3069 34.4275 82.6784 34.0391C83.0498 33.6506 83.5486 33.4438 84.1748 33.4188C84.7876 33.3943 85.2877 33.5544 85.6752 33.8992C86.0626 34.244 86.268 34.7095 86.2915 35.2957C86.3048 35.6288 86.2504 35.9378 86.1284 36.2229C86.0069 36.5214 85.8297 36.762 85.5968 36.9448C86.4883 36.8824 87.2555 36.5448 87.8982 35.932C88.5414 35.3325 88.8827 34.5249 88.9222 33.5091L90.5009 33.446C90.4572 34.6888 90.0037 35.6943 89.1404 36.4628C88.2776 37.2446 87.1467 37.6634 85.7479 37.7193ZM84.3114 36.836C84.7244 36.8195 85.0522 36.673 85.2946 36.3964C85.5504 36.1193 85.6701 35.7742 85.6536 35.3612C85.637 34.9482 85.4902 34.6138 85.2131 34.358C84.9493 34.1017 84.6109 33.9818 84.1979 33.9983C83.7849 34.0148 83.4505 34.1616 83.1947 34.4387C82.9389 34.7159 82.8193 35.0609 82.8358 35.4739C82.8523 35.8869 82.9991 36.2213 83.2763 36.4771C83.5534 36.7329 83.8984 36.8526 84.3114 36.836ZM99.3742 32.3306C98.6281 32.3604 98.0206 32.1845 97.5517 31.803C97.0827 31.4214 96.8349 30.8976 96.8083 30.2314C96.7822 29.5786 96.9676 29.0441 97.3647 28.6279C97.775 28.2112 98.3199 27.9892 98.9994 27.9621C99.2392 27.9525 99.4672 27.9834 99.6836 28.0548C99.9133 28.1257 100.097 28.2184 100.235 28.333L100.112 25.2554L91.9986 25.5799C91.9671 24.1267 92.2688 22.9937 92.9035 22.181C93.551 21.3545 94.5009 20.9162 95.7532 20.8661C96.1795 20.849 96.588 20.8861 96.9786 20.9772C97.3687 21.055 97.8084 21.2043 98.2976 21.4249C98.6648 21.597 98.9563 21.7121 99.1721 21.7702C99.3879 21.8283 99.5957 21.8534 99.7956 21.8454C100.129 21.832 100.391 21.7215 100.583 21.5136C100.788 21.2919 100.89 21.0076 100.889 20.6607L102.608 20.592C102.607 21.2459 102.401 21.7745 101.991 22.1779C101.579 22.568 101.027 22.7769 100.334 22.8046C99.9879 22.8184 99.6466 22.7921 99.3104 22.7254C98.9869 22.645 98.6011 22.507 98.1529 22.3114C97.6909 22.103 97.3186 21.9711 97.0362 21.9157C96.7532 21.8469 96.4452 21.8192 96.1121 21.8325C94.66 21.8906 93.9304 22.8338 93.9234 24.6622L102.017 24.3386L102.218 29.3746C102.255 30.2805 102.023 30.9903 101.523 31.5041C101.023 32.0178 100.307 32.2933 99.3742 32.3306ZM99.1688 31.6983C99.6217 31.6802 99.9892 31.5254 100.271 31.2339C100.552 30.929 100.684 30.5501 100.666 30.0972C100.647 29.6309 100.486 29.2637 100.182 28.9956C99.8901 28.7137 99.5112 28.5821 99.0449 28.6007C98.5919 28.6189 98.2248 28.7803 97.9434 29.0851C97.6615 29.3766 97.5298 29.7555 97.5485 30.2218C97.5666 30.6748 97.7281 31.042 98.0329 31.3234C98.3372 31.5914 98.7158 31.7164 99.1688 31.6983ZM105.065 27.5994C105.029 26.7068 105.254 26.0039 105.741 25.4907C106.228 24.9775 106.924 24.7028 107.83 24.6666C108.589 24.6362 109.21 24.8182 109.693 25.2126C110.189 25.6064 110.45 26.1297 110.476 26.7825C110.502 27.422 110.316 27.9499 109.919 28.3661C109.522 28.7822 108.991 29.0037 108.324 29.0303C108.058 29.041 107.803 29.0111 107.56 28.9408C107.317 28.8571 107.132 28.751 107.007 28.6226L107.102 31.0007L113.977 30.7258L113.719 24.291C113.677 23.2385 113.284 22.4202 112.54 21.8361C111.809 21.2382 110.851 20.9629 109.665 21.0103C108.519 21.0561 107.598 21.3799 106.902 21.9815C106.205 22.5832 105.843 23.3649 105.815 24.3268L104.016 24.3988C104.038 23.6239 104.278 22.9338 104.734 22.3284C105.203 21.7225 105.852 21.2496 106.679 20.9096C107.519 20.5557 108.491 20.3567 109.597 20.3125C110.783 20.2651 111.823 20.4036 112.716 20.7282C113.623 21.0522 114.33 21.5377 114.836 22.1846C115.342 22.8183 115.612 23.5747 115.647 24.454L115.928 31.4684L105.237 31.896L105.065 27.5994ZM108.219 28.394C108.672 28.3759 109.039 28.2211 109.321 27.9296C109.603 27.6248 109.734 27.2459 109.716 26.7929C109.698 26.3266 109.536 25.9594 109.232 25.6914C108.94 25.4095 108.561 25.2778 108.095 25.2965C107.642 25.3146 107.275 25.4761 106.994 25.7809C106.726 26.0852 106.601 26.4638 106.619 26.9168C106.637 27.3697 106.792 27.7372 107.083 28.0191C107.387 28.2872 107.766 28.4121 108.219 28.394ZM118.797 30.2929C118.742 28.9206 118.634 27.7173 118.472 26.683C118.347 25.8873 118.271 25.1698 118.246 24.5303C118.209 23.611 118.41 22.8023 118.849 22.1042C119.301 21.3923 119.953 20.8325 120.804 20.4248C121.655 20.0171 122.667 19.7898 123.839 19.743C124.958 19.6982 125.944 19.8189 126.796 20.1051C127.661 20.3908 128.332 20.8176 128.809 21.3857C129.298 21.9533 129.559 22.6234 129.59 23.3961L129.89 30.9101L127.972 30.9868L127.664 23.293C127.628 22.387 127.259 21.6745 126.558 21.1555C125.87 20.6359 124.966 20.3985 123.847 20.4432C122.635 20.4917 121.702 20.8559 121.048 21.5359C120.408 22.2154 120.112 23.1413 120.159 24.3137C120.177 24.7666 120.239 25.4781 120.344 26.448C120.489 27.7365 120.587 29.027 120.639 30.3193C121.622 29.8663 122.488 29.3379 123.238 28.7342C123.988 28.1304 124.55 27.5074 124.925 26.8653C124.664 27.0225 124.38 27.1072 124.074 27.1195C123.395 27.1466 122.827 26.9692 122.371 26.5871C121.929 26.1911 121.694 25.6734 121.669 25.0339C121.643 24.3811 121.835 23.8463 122.245 23.4296C122.668 22.999 123.213 22.7704 123.879 22.7438C124.558 22.7166 125.127 22.9207 125.585 23.3561C126.042 23.7782 126.285 24.3356 126.312 25.0284C126.342 25.7611 126.112 26.5242 125.623 27.3177C125.134 28.0979 124.443 28.8394 123.55 29.5423C122.657 30.2319 121.64 30.813 120.498 31.2857L118.839 31.352L118.797 30.2929ZM124.029 26.5008C124.496 26.4821 124.869 26.3204 125.151 26.0156C125.432 25.7107 125.564 25.3318 125.546 24.8789C125.528 24.4259 125.366 24.0587 125.061 23.7774C124.756 23.496 124.371 23.3646 123.905 23.3833C123.438 23.4019 123.064 23.5636 122.783 23.8685C122.502 24.1733 122.37 24.5522 122.388 25.0051C122.406 25.4581 122.568 25.8253 122.873 26.1067C123.177 26.388 123.563 26.5194 124.029 26.5008ZM134.732 23.2505C134.617 23.3752 134.442 23.489 134.205 23.5918C133.982 23.6808 133.744 23.7304 133.491 23.7405C132.825 23.7671 132.277 23.5889 131.848 23.2057C131.419 22.8225 131.192 22.3046 131.166 21.6517C131.139 20.9989 131.352 20.4634 131.802 20.045C132.252 19.6134 132.856 19.3824 133.616 19.352C134.522 19.3158 135.238 19.534 135.763 20.0067C136.289 20.4794 136.57 21.1621 136.606 22.0547L136.918 29.8684L142.594 29.6415L142.177 19.2098L144.095 19.1331L144.543 30.3241L135.03 30.7045L134.732 23.2505ZM133.525 23.0986C133.992 23.08 134.359 22.9185 134.627 22.6142C134.908 22.3094 135.04 21.9305 135.022 21.4775C135.004 21.0246 134.842 20.664 134.538 20.396C134.233 20.1146 133.854 19.983 133.401 20.0011C132.948 20.0192 132.581 20.1807 132.3 20.4855C132.018 20.777 131.886 21.1492 131.904 21.6022C131.922 22.0552 132.084 22.4223 132.389 22.7037C132.693 22.9851 133.072 23.1167 133.525 23.0986ZM153.472 30.1673C152.726 30.1971 152.118 30.0212 151.649 29.6397C151.18 29.2581 150.932 28.7342 150.906 28.0681C150.88 27.4153 151.065 26.8808 151.462 26.4646C151.872 26.0479 152.417 25.8259 153.097 25.7987C153.337 25.7892 153.565 25.8201 153.781 25.8915C154.011 25.9624 154.195 26.0551 154.333 26.1697L154.209 23.0921L146.096 23.4166C146.065 21.9633 146.366 20.8304 147.001 20.0177C147.648 19.1912 148.598 18.7529 149.851 18.7028C150.277 18.6857 150.685 18.7228 151.076 18.8139C151.466 18.8917 151.906 19.0409 152.395 19.2616C152.762 19.4337 153.054 19.5488 153.269 19.6069C153.485 19.665 153.693 19.69 153.893 19.682C154.226 19.6687 154.488 19.5581 154.68 19.3503C154.885 19.1286 154.987 18.8443 154.987 18.4974L156.705 18.4287C156.705 19.0825 156.499 19.6112 156.088 20.0146C155.677 20.4047 155.125 20.6136 154.432 20.6413C154.085 20.6551 153.744 20.6287 153.408 20.5621C153.084 20.4817 152.698 20.3436 152.25 20.148C151.788 19.9397 151.416 19.8078 151.134 19.7524C150.851 19.6836 150.543 19.6559 150.21 19.6692C148.757 19.7273 148.028 20.6705 148.021 22.4989L156.114 22.1753L156.316 27.2112C156.352 28.1172 156.12 28.827 155.62 29.3407C155.12 29.8545 154.404 30.13 153.472 30.1673ZM153.266 29.535C153.719 29.5168 154.087 29.362 154.368 29.0705C154.65 28.7657 154.781 28.3868 154.763 27.9339C154.745 27.4676 154.583 27.1004 154.279 26.8323C153.987 26.5504 153.609 26.4188 153.142 26.4374C152.689 26.4555 152.322 26.617 152.041 26.9218C151.759 27.2133 151.627 27.5922 151.646 28.0585C151.664 28.5115 151.825 28.8787 152.13 29.16C152.435 29.4281 152.813 29.5531 153.266 29.535ZM145.535 17.0339C145.561 16.3256 145.789 15.6893 146.22 15.125C146.637 14.5479 147.219 14.0909 147.966 13.7541C148.7 13.4179 149.54 13.2308 150.486 13.193C151.459 13.1541 152.344 13.2721 153.142 13.5471C153.927 13.8227 154.564 14.2309 155.053 14.7718C155.528 15.2999 155.806 15.9159 155.887 16.6199L145.535 17.0339ZM154.202 16.0268C154.083 15.3777 153.682 14.86 152.999 14.4736C152.316 14.0872 151.489 13.9135 150.516 13.9524C149.53 13.9918 148.719 14.2311 148.083 14.6702C147.446 15.096 147.095 15.6438 147.028 16.3137L154.202 16.0268ZM165.057 29.7039C164.311 29.7338 163.704 29.5579 163.235 29.1763C162.765 28.7815 162.518 28.2576 162.491 27.6048C162.465 26.952 162.657 26.4172 163.068 26.0005C163.478 25.5838 164.016 25.3621 164.682 25.3354C164.922 25.3258 165.157 25.3632 165.388 25.4474C165.617 25.5182 165.801 25.611 165.939 25.7255L165.782 21.7887C165.744 20.8561 165.435 20.1345 164.854 19.624C164.287 19.1129 163.523 18.8766 162.564 18.9149C161.605 18.9533 160.843 19.264 160.28 19.847C159.729 20.4294 159.453 21.2077 159.452 22.1819L157.634 22.2546C157.652 21.0396 158.1 20.0742 158.979 19.3586C159.871 18.6423 161.09 18.2533 162.635 18.1915C164.207 18.1287 165.433 18.4199 166.313 19.0653C167.193 19.6973 167.657 20.6328 167.706 21.8718L167.901 26.7479C167.938 27.6539 167.706 28.3637 167.206 28.8774C166.706 29.3911 165.99 29.6667 165.057 29.7039ZM164.852 29.0716C165.305 29.0535 165.672 28.8987 165.954 28.6072C166.236 28.3024 166.367 27.9235 166.349 27.4705C166.33 27.0043 166.169 26.6371 165.865 26.369C165.573 26.0871 165.194 25.9555 164.728 25.9741C164.275 25.9922 163.908 26.1537 163.627 26.4585C163.358 26.7628 163.233 27.1414 163.252 27.5944C163.27 28.0474 163.425 28.4148 163.716 28.6967C164.02 28.9648 164.399 29.0898 164.852 29.0716ZM174.371 29.3315C173.492 29.3666 172.783 29.1548 172.244 28.696C171.706 28.2371 171.418 27.5481 171.381 26.6288L171.038 18.0557L172.957 17.9789L173.255 25.433C173.383 25.2944 173.558 25.1807 173.782 25.0917C174.005 25.0027 174.25 24.9528 174.516 24.9422C175.182 24.9156 175.723 25.0941 176.139 25.4778C176.568 25.8609 176.795 26.3789 176.822 27.0317C176.848 27.6979 176.636 28.2401 176.186 28.6584C175.736 29.0768 175.131 29.3011 174.371 29.3315ZM174.586 28.6824C175.039 28.6643 175.406 28.5095 175.688 28.218C175.969 27.9132 176.101 27.5343 176.083 27.0813C176.064 26.615 175.903 26.2478 175.599 25.9798C175.307 25.6979 174.928 25.5662 174.462 25.5849C174.009 25.603 173.642 25.7645 173.36 26.0693C173.092 26.3736 172.967 26.7522 172.985 27.2052C173.003 27.6581 173.158 28.0256 173.45 28.3075C173.754 28.5755 174.133 28.7005 174.586 28.6824ZM184.749 28.9165C184.003 28.9463 183.395 28.7705 182.926 28.3889C182.457 27.994 182.209 27.4702 182.183 26.8174C182.157 26.1645 182.349 25.6298 182.759 25.213C183.169 24.7963 183.708 24.5746 184.374 24.548C184.614 24.5384 184.849 24.5757 185.079 24.6599C185.308 24.7308 185.492 24.8235 185.63 24.9381L185.473 21.0012C185.436 20.0687 185.127 19.3471 184.546 18.8366C183.978 18.3255 183.215 18.0891 182.256 18.1275C181.296 18.1659 180.535 18.4765 179.971 19.0595C179.42 19.642 179.145 20.4203 179.144 21.3945L177.325 21.4672C177.343 20.2522 177.792 19.2868 178.67 18.5711C179.562 17.8549 180.781 17.4659 182.327 17.4041C183.899 17.3412 185.125 17.6325 186.005 18.2778C186.884 18.9099 187.348 19.8454 187.398 21.0844L187.593 25.9605C187.629 26.8664 187.397 27.5763 186.897 28.09C186.397 28.6037 185.681 28.8792 184.749 28.9165ZM184.543 28.2842C184.996 28.2661 185.364 28.1113 185.646 27.8198C185.927 27.515 186.059 27.1361 186.04 26.6831C186.022 26.2168 185.86 25.8496 185.556 25.5816C185.265 25.2997 184.886 25.168 184.419 25.1867C183.966 25.2048 183.599 25.3663 183.318 25.6711C183.05 25.9754 182.925 26.354 182.943 26.807C182.961 27.2599 183.116 27.6274 183.407 27.9093C183.712 28.1773 184.09 28.3023 184.543 28.2842ZM190.446 24.1851C190.41 23.2925 190.635 22.5896 191.122 22.0764C191.609 21.5632 192.305 21.2885 193.211 21.2523C193.97 21.2219 194.591 21.4039 195.074 21.7982C195.57 22.1921 195.831 22.7154 195.857 23.3682C195.883 24.0077 195.697 24.5355 195.3 24.9517C194.903 25.3679 194.372 25.5893 193.705 25.616C193.439 25.6266 193.184 25.5968 192.941 25.5264C192.698 25.4428 192.513 25.3367 192.388 25.2083L192.483 27.5864L199.358 27.3115L199.1 20.8766C199.058 19.8241 198.665 19.0058 197.921 18.4218C197.19 17.8238 196.232 17.5486 195.046 17.596C193.9 17.6418 192.979 17.9656 192.283 18.5672C191.586 19.1688 191.224 19.9506 191.196 20.9125L189.397 20.9844C189.419 20.2096 189.659 19.5195 190.115 18.9141C190.584 18.3082 191.233 17.8352 192.06 17.4953C192.9 17.1414 193.872 16.9424 194.978 16.8982C196.164 16.8507 197.204 16.9893 198.097 17.3139C199.004 17.6379 199.711 18.1234 200.217 18.7703C200.723 19.404 200.993 20.1604 201.028 21.0397L201.309 28.0541L190.617 28.4817L190.446 24.1851ZM193.6 24.9797C194.053 24.9616 194.42 24.8068 194.702 24.5153C194.984 24.2104 195.115 23.8316 195.097 23.3786C195.079 22.9123 194.917 22.5451 194.613 22.2771C194.321 21.9951 193.942 21.8635 193.476 21.8822C193.023 21.9003 192.656 22.0617 192.375 22.3666C192.107 22.6708 191.982 23.0495 192 23.5024C192.018 23.9554 192.173 24.3229 192.464 24.6048C192.768 24.8728 193.147 24.9978 193.6 24.9797ZM210.223 27.8978C209.477 27.9276 208.87 27.7518 208.401 27.3702C207.932 26.9886 207.684 26.4648 207.657 25.7986C207.631 25.1458 207.817 24.6113 208.214 24.1951C208.624 23.7784 209.169 23.5565 209.848 23.5293C210.088 23.5197 210.316 23.5506 210.533 23.622C210.762 23.6929 210.946 23.7856 211.084 23.9002L210.961 20.8227L202.847 21.1471C202.816 19.6939 203.118 18.5609 203.752 17.7482C204.4 16.9217 205.35 16.4834 206.602 16.4333C207.028 16.4163 207.437 16.4533 207.828 16.5444C208.218 16.6223 208.657 16.7715 209.146 16.9921C209.514 17.1642 209.805 17.2793 210.021 17.3374C210.237 17.3955 210.445 17.4206 210.644 17.4126C210.978 17.3993 211.24 17.2887 211.432 17.0809C211.636 16.8592 211.739 16.5749 211.738 16.2279L213.457 16.1592C213.456 16.8131 213.25 17.3417 212.84 17.7451C212.428 18.1352 211.876 18.3441 211.183 18.3718C210.837 18.3857 210.496 18.3593 210.159 18.2927C209.836 18.2122 209.45 18.0742 209.002 17.8786C208.54 17.6702 208.168 17.5383 207.885 17.4829C207.602 17.4142 207.294 17.3864 206.961 17.3998C205.509 17.4578 204.779 18.4011 204.772 20.2295L212.866 19.9058L213.067 24.9418C213.103 25.8477 212.872 26.5576 212.372 27.0713C211.872 27.585 211.156 27.8605 210.223 27.8978ZM210.018 27.2655C210.471 27.2474 210.838 27.0926 211.12 26.8011C211.401 26.4963 211.533 26.1174 211.515 25.6644C211.496 25.1981 211.335 24.8309 211.03 24.5629C210.739 24.281 210.36 24.1493 209.894 24.168C209.441 24.1861 209.074 24.3476 208.792 24.6524C208.51 24.9439 208.379 25.3228 208.397 25.7891C208.416 26.242 208.577 26.6092 208.882 26.8906C209.186 27.1586 209.565 27.2836 210.018 27.2655ZM212.464 9.97395L212.639 14.3505L202.287 14.7644C202.312 14.0562 202.54 13.4199 202.971 12.8555C203.389 12.2784 203.971 11.8215 204.718 11.4847C205.465 11.1479 206.305 10.9608 207.237 10.9235C208.53 10.8719 209.681 11.1261 210.691 11.6862L210.625 10.0475L212.464 9.97395ZM210.954 13.7573C210.834 13.1082 210.433 12.5905 209.751 12.2041C209.068 11.8178 208.24 11.644 207.268 11.6829C206.282 11.7224 205.471 11.9616 204.835 12.4007C204.198 12.8265 203.846 13.3743 203.779 14.0442L210.954 13.7573ZM210.527 5.58784L212.226 5.51991L212.368 9.07707L210.669 9.145L210.527 5.58784Z" fill="#8ABBE8"/>
<rect x="29.8671" y="41.8993" width="212.25" height="38.25" transform="rotate(0.73 29.8671 41.8993)" fill="white" stroke="black" stroke-width="0.75"/>
<path d="M44.9467 61.258C44.8252 61.3765 44.6438 61.4808 44.4026 61.5711C44.175 61.6482 43.9345 61.6851 43.6812 61.6819C43.0146 61.6734 42.4771 61.4666 42.0689 61.0613C41.6607 60.6561 41.4608 60.1268 41.4691 59.4735C41.4774 58.8203 41.7175 58.2966 42.1892 57.9026C42.6611 57.4952 43.277 57.2964 44.0369 57.3061C44.9435 57.3176 45.647 57.5733 46.1473 58.073C46.6477 58.5728 46.8922 59.2693 46.8808 60.1625L46.7812 67.9819L52.4607 68.0543L52.5937 57.6151L54.5135 57.6396L54.3709 68.8387L44.8516 68.7174L44.9467 61.258ZM43.7493 61.0427C44.2159 61.0487 44.5911 60.9068 44.8748 60.617C45.1719 60.3275 45.3233 59.956 45.3291 59.5027C45.3348 59.0494 45.1929 58.6809 44.9031 58.3972C44.6135 58.1002 44.2421 57.9488 43.7888 57.943C43.3355 57.9372 42.9603 58.0791 42.6633 58.3687C42.3664 58.6449 42.2151 59.0097 42.2093 59.463C42.2035 59.9163 42.3454 60.2914 42.635 60.5885C42.9246 60.8855 43.296 61.0369 43.7493 61.0427ZM69.3403 57.8285L69.1976 69.0276L67.3978 69.0047L62.2769 65.8992L62.2652 66.8191C62.256 67.539 62.0088 68.1026 61.5236 68.5098C61.0384 68.917 60.3758 69.1152 59.5359 69.1045C58.7493 69.0945 58.1254 68.8732 57.6642 68.4406C57.2031 67.9947 56.9774 67.3984 56.9869 66.6518C56.9973 65.8386 57.2654 65.2019 57.7913 64.7419C58.3174 64.2686 59.027 64.0376 59.9203 64.049C60.1203 64.0515 60.2735 64.0602 60.38 64.0749L60.4134 61.4551C60.2785 61.5734 60.0905 61.6776 59.8494 61.7679C59.6217 61.845 59.3879 61.882 59.1479 61.879C58.4813 61.8705 57.9372 61.6635 57.5157 61.2581C57.1075 60.8529 56.9075 60.3236 56.9158 59.6704C56.9242 59.0171 57.1642 58.4934 57.6359 58.0994C58.1078 57.6921 58.7237 57.4932 59.4837 57.5029C60.3903 57.5145 61.0937 57.7701 61.5941 58.2699C62.1077 58.7698 62.3589 59.4664 62.3475 60.3596L62.2925 64.6793C62.4383 64.7478 62.5243 64.7956 62.5507 64.8226L67.2946 67.6832L67.4205 57.804L69.3403 57.8285ZM59.196 61.2395C59.6627 61.2455 60.0378 61.1036 60.3215 60.8138C60.6186 60.5243 60.77 60.1528 60.7758 59.6995C60.7816 59.2462 60.6396 58.8777 60.3498 58.594C60.0603 58.297 59.6888 58.1456 59.2355 58.1398C58.7822 58.134 58.4071 58.2759 58.11 58.5655C57.8131 58.8417 57.6618 59.2065 57.656 59.6598C57.6503 60.1131 57.7922 60.4883 58.0817 60.7853C58.3713 61.0824 58.7427 61.2338 59.196 61.2395ZM60.368 65.0148C60.1294 64.9051 59.8701 64.8484 59.5901 64.8449C59.0835 64.8384 58.668 65.0065 58.3436 65.349C58.0325 65.6917 57.8735 66.1364 57.8666 66.683C57.8599 67.203 57.9747 67.6178 58.2107 67.9275C58.447 68.2239 58.7784 68.3748 59.2051 68.3802C59.9517 68.3897 60.3303 67.9745 60.341 67.1346L60.368 65.0148ZM76.4465 57.719C78.2464 57.742 79.6544 58.1666 80.6706 58.993C81.6868 59.8193 82.1859 60.9458 82.1677 62.3723C82.1626 62.7723 82.1003 63.4715 81.9809 64.4701C81.8328 65.6283 81.7506 66.8474 81.7343 68.1272L81.7208 69.1872L79.661 69.1609L77.4732 65.0527C77.3082 65.4373 77.051 65.7407 76.7015 65.963C76.3521 66.1719 75.9508 66.2734 75.4975 66.2676C74.8309 66.2591 74.2802 66.0521 73.8453 65.6465C73.4239 65.2278 73.2172 64.7051 73.2252 64.0785C73.2335 63.4252 73.4669 62.9015 73.9253 62.5073C74.3839 62.0998 74.9731 61.9006 75.693 61.9098C76.8263 61.9242 77.6791 62.4951 78.2514 63.6225L79.9695 66.9247C79.9805 66.0581 80.0324 65.1253 80.1252 64.1264C80.2041 63.1674 80.2456 62.5212 80.2499 62.1879C80.2645 61.0413 79.9294 60.1303 79.2446 59.4548C78.5732 58.7795 77.6442 58.4344 76.4576 58.4192C75.2977 58.4045 74.3673 58.686 73.6666 59.2637C72.9658 59.8415 72.5891 60.6301 72.5364 61.6295L70.7365 61.6066C70.76 60.8068 71.0089 60.11 71.4832 59.5159C71.9575 58.9219 72.6166 58.4703 73.4606 58.161C74.318 57.8519 75.3133 57.7046 76.4465 57.719ZM75.5054 65.6477C75.972 65.6536 76.3539 65.5118 76.6509 65.2222C76.948 64.9327 77.0994 64.5612 77.1052 64.1079C77.1109 63.6546 76.969 63.2795 76.6795 62.9824C76.3899 62.6854 76.0118 62.5339 75.5452 62.5279C75.0919 62.5222 74.7167 62.6641 74.4196 62.9536C74.1226 63.2432 73.9712 63.6146 73.9654 64.0679C73.9596 64.5212 74.1015 64.8964 74.3911 65.1935C74.6807 65.4905 75.0521 65.6419 75.5054 65.6477ZM85.0222 69.4292C84.6889 69.425 84.4169 69.3215 84.2061 69.1188C84.0088 68.903 83.9123 68.635 83.9163 68.3151C83.9202 68.0084 84.0301 67.7565 84.246 67.5592C84.462 67.3486 84.73 67.2453 85.05 67.2494C85.3833 67.2537 85.6553 67.3638 85.8659 67.5798C86.0766 67.7825 86.1801 68.0372 86.1761 68.3439C86.1721 68.6638 86.062 68.9291 85.846 69.1397C85.6301 69.337 85.3555 69.4335 85.0222 69.4292ZM92.7022 69.5271C91.8356 69.5161 91.1387 69.2672 90.6116 68.7804C90.0977 68.2938 89.8467 67.5906 89.8584 66.6706L90.036 52.7318L88.175 54.3682C87.8249 53.5903 87.3271 52.8906 86.6816 52.269C86.023 51.6339 85.3284 51.205 84.5978 50.9823L85.8497 50.0582C86.4068 50.292 86.9157 50.6452 87.3763 51.1178C87.8504 51.5905 88.2169 52.1219 88.4761 52.7119L90.2159 51.1739L91.9757 51.1964L91.7925 65.5752C91.9274 65.4569 92.1086 65.3592 92.3363 65.2821C92.5641 65.1917 92.8114 65.1481 93.078 65.1515C93.7446 65.16 94.2754 65.3668 94.6702 65.7719C95.0784 66.1771 95.2784 66.7064 95.27 67.3596C95.2616 68.0263 95.0214 68.5566 94.5497 68.9506C94.078 69.3446 93.4622 69.5368 92.7022 69.5271ZM92.9698 68.9305C93.4365 68.9364 93.8183 68.7946 94.1154 68.505C94.4126 68.2021 94.5641 67.824 94.5698 67.3707C94.5758 66.9041 94.434 66.5223 94.1444 66.2252C93.8548 65.9282 93.4767 65.7767 93.0101 65.7707C92.5435 65.7648 92.1616 65.9066 91.8646 66.1962C91.5675 66.4857 91.4161 66.8638 91.4101 67.3305C91.4042 67.7971 91.546 68.1789 91.8355 68.476C92.1251 68.773 92.5032 68.9245 92.9698 68.9305ZM107.477 58.3144C108.13 58.3228 108.622 58.4824 108.951 58.7933C109.294 59.1043 109.462 59.5531 109.454 60.1398L109.334 69.539L107.415 69.5145L107.536 59.9553C107.539 59.742 107.481 59.5746 107.363 59.4531C107.244 59.3315 107.072 59.2693 106.845 59.2665L106.065 59.2565L101.455 69.4386L99.5152 69.4139L99.6099 61.9745C99.4883 62.1063 99.3136 62.2107 99.0859 62.2878C98.8584 62.3516 98.6113 62.3818 98.3447 62.3784C97.6781 62.3699 97.1407 62.1631 96.7325 61.7578C96.3243 61.3526 96.1243 60.8233 96.1327 60.17C96.141 59.5168 96.381 58.9931 96.8527 58.5991C97.3246 58.1917 97.9405 57.9929 98.7005 58.0026C99.6071 58.0141 100.311 58.2698 100.811 58.7695C101.311 59.2693 101.556 59.9658 101.544 60.859L101.463 67.2385L105.497 58.2892L107.477 58.3144ZM98.4128 61.7392C98.8795 61.7452 99.2546 61.6033 99.5384 61.3135C99.8354 61.024 99.9868 60.6525 99.9926 60.1992C99.9984 59.7459 99.8564 59.3774 99.5666 59.0937C99.2771 58.7967 98.9056 58.6453 98.4523 58.6395C97.999 58.6337 97.6239 58.7756 97.3268 59.0652C97.03 59.3414 96.8786 59.7062 96.8728 60.1595C96.8671 60.6128 97.009 60.9879 97.2985 61.285C97.5881 61.582 97.9596 61.7334 98.4128 61.7392ZM122.937 58.5114L122.794 69.7105L112.575 69.5803L112.608 66.9805C112.615 66.4739 112.814 66.023 113.205 65.628C113.597 65.233 114.121 64.9463 114.777 64.768C113.873 64.5298 113.171 64.1208 112.672 63.541C112.186 62.9615 111.948 62.2584 111.959 61.4318C111.971 60.4585 112.328 59.6763 113.029 59.0852C113.73 58.4941 114.64 58.2057 115.76 58.22C116.667 58.2315 117.404 58.4676 117.971 58.9282C118.539 59.3888 118.818 59.9857 118.808 60.719C118.8 61.3856 118.573 61.9228 118.128 62.3305C117.696 62.7383 117.133 62.9378 116.44 62.929C115.747 62.9202 115.183 62.713 114.748 62.3074C114.313 61.8885 114.1 61.3524 114.108 60.6991C114.114 60.2858 114.271 59.9278 114.582 59.6251C114.03 60.0181 113.749 60.6279 113.739 61.4545C113.715 63.2943 114.95 64.2301 117.443 64.2619L117.623 64.2642L117.613 65.0841L117.453 65.0821C116.519 65.0702 115.797 65.241 115.286 65.5945C114.788 65.9349 114.535 66.4383 114.527 67.105L114.506 68.7648L120.885 68.8461L121.017 58.487L122.937 58.5114ZM116.468 59.169C116.015 59.1633 115.64 59.3052 115.342 59.5947C115.045 59.8843 114.894 60.2558 114.888 60.709C114.882 61.1623 115.024 61.5375 115.314 61.8346C115.604 62.1316 115.975 62.283 116.428 62.2888C116.895 62.2947 117.277 62.1529 117.574 61.8634C117.871 61.5738 118.022 61.2023 118.028 60.7491C118.034 60.2958 117.892 59.9206 117.602 59.6235C117.313 59.3265 116.935 59.175 116.468 59.169ZM129.148 69.9915C128.268 69.9803 127.571 69.7314 127.058 69.2448C126.544 68.7582 126.293 68.0549 126.304 67.135L126.414 58.5557L128.333 58.5802L128.238 66.0396C128.373 65.9079 128.555 65.8036 128.782 65.7265C129.01 65.6494 129.257 65.6125 129.524 65.6159C130.191 65.6244 130.721 65.8312 131.116 66.2362C131.524 66.6415 131.724 67.1707 131.716 67.824C131.708 68.4906 131.467 69.0209 130.996 69.415C130.524 69.809 129.908 70.0012 129.148 69.9915ZM129.396 69.3546C129.85 69.3604 130.225 69.2251 130.522 68.9489C130.819 68.6593 130.97 68.2879 130.976 67.8346C130.982 67.368 130.84 66.9928 130.55 66.7091C130.274 66.4122 129.902 66.2608 129.436 66.2548C128.983 66.2491 128.607 66.391 128.31 66.6805C128.027 66.9703 127.882 67.3418 127.876 67.7951C127.87 68.2484 128.006 68.6235 128.282 68.9204C128.571 69.2041 128.943 69.3488 129.396 69.3546ZM136.131 62.4198C136.009 62.5383 135.828 62.6427 135.587 62.7329C135.359 62.81 135.118 62.847 134.865 62.8437C134.199 62.8352 133.661 62.6284 133.253 62.2231C132.845 61.8179 132.645 61.2887 132.653 60.6354C132.661 59.9821 132.901 59.4584 133.373 59.0644C133.845 58.6571 134.461 58.4582 135.221 58.4679C136.128 58.4795 136.831 58.7351 137.331 59.2349C137.832 59.7346 138.076 60.4311 138.065 61.3244L137.965 69.1437L143.645 69.2161L143.778 58.777L145.698 58.8014L145.555 70.0005L136.036 69.8792L136.131 62.4198ZM134.933 62.2046C135.4 62.2105 135.775 62.0686 136.059 61.7789C136.356 61.4893 136.507 61.1179 136.513 60.6646C136.519 60.2113 136.377 59.8428 136.087 59.559C135.798 59.262 135.426 59.1106 134.973 59.1048C134.52 59.099 134.144 59.2409 133.847 59.5305C133.55 59.8067 133.399 60.1715 133.393 60.6248C133.388 61.0781 133.529 61.4533 133.819 61.7503C134.109 62.0474 134.48 62.1988 134.933 62.2046ZM161.833 55.2067L161.642 70.2055L159.322 70.1759L156.296 61.1766L153.022 70.0957L150.702 70.0661L150.797 62.6067C150.676 62.7252 150.495 62.8295 150.253 62.9198C150.026 62.9969 149.785 63.0338 149.532 63.0306C148.865 63.0221 148.328 62.8153 147.92 62.41C147.512 62.0048 147.312 61.4755 147.32 60.8223C147.328 60.169 147.568 59.6453 148.04 59.2513C148.512 58.8439 149.128 58.6451 149.888 58.6548C150.794 58.6663 151.491 58.9219 151.978 59.4215C152.478 59.9212 152.723 60.6177 152.712 61.511L152.628 68.0705L155.94 59.272L156.7 59.2816L159.75 67.9412L159.913 55.1822L161.833 55.2067ZM149.6 62.3914C150.067 62.3974 150.442 62.2555 150.726 61.9657C151.023 61.6762 151.174 61.3047 151.18 60.8514C151.186 60.3981 151.044 60.0296 150.754 59.7459C150.464 59.4489 150.093 59.2975 149.64 59.2917C149.186 59.2859 148.811 59.4278 148.514 59.7174C148.217 59.9936 148.066 60.3584 148.06 60.8117C148.054 61.265 148.196 61.6402 148.486 61.9372C148.775 62.2342 149.147 62.3857 149.6 62.3914ZM167.993 70.4864C167.113 70.4752 166.416 70.2263 165.902 69.7397C165.388 69.2531 165.137 68.5499 165.149 67.63L165.258 59.0507L167.178 59.0751L167.083 66.5345C167.218 66.4029 167.399 66.2985 167.627 66.2214C167.855 66.1443 168.102 66.1075 168.368 66.1109C169.035 66.1193 169.566 66.3261 169.961 66.7312C170.369 67.1364 170.569 67.6657 170.56 68.319C170.552 68.9856 170.312 69.5159 169.84 69.9099C169.368 70.3039 168.753 70.4961 167.993 70.4864ZM168.241 69.8495C168.694 69.8553 169.069 69.7201 169.366 69.4438C169.663 69.1543 169.815 68.7828 169.82 68.3295C169.826 67.8629 169.684 67.4877 169.395 67.204C169.118 66.9071 168.747 66.7557 168.28 66.7498C167.827 66.744 167.452 66.8859 167.155 67.1755C166.871 67.4652 166.726 67.8367 166.721 68.29C166.715 68.7433 166.85 69.1184 167.126 69.4153C167.416 69.699 167.788 69.8438 168.241 69.8495ZM178.377 70.6187C177.631 70.6092 177.033 70.4016 176.585 69.9959C176.137 69.5768 175.917 69.0406 175.926 68.3873C175.934 67.734 176.154 67.2101 176.586 66.8156C177.017 66.4211 177.567 66.2281 178.233 66.2365C178.473 66.2396 178.706 66.2892 178.931 66.3855C179.157 66.4683 179.336 66.5706 179.467 66.6923L179.518 62.7526C179.53 61.8194 179.259 61.0825 178.706 60.5421C178.166 60.0018 177.416 59.7256 176.456 59.7134C175.496 59.7011 174.719 59.9713 174.126 60.5237C173.545 61.0764 173.229 61.8391 173.176 62.8118L171.356 62.7887C171.439 61.5763 171.937 60.6359 172.853 59.9675C173.781 59.2993 175.019 58.975 176.565 58.9947C178.138 59.0148 179.347 59.3702 180.192 60.061C181.037 60.7385 181.451 61.6972 181.435 62.9371L181.373 67.8167C181.362 68.7233 181.093 69.4199 180.567 69.9066C180.04 70.3932 179.311 70.6306 178.377 70.6187ZM178.205 69.9765C178.659 69.9823 179.034 69.847 179.331 69.5708C179.628 69.2812 179.779 68.9098 179.785 68.4565C179.791 67.9899 179.649 67.6147 179.359 67.331C179.083 67.0341 178.712 66.8827 178.245 66.8767C177.792 66.871 177.416 67.0129 177.119 67.3024C176.836 67.5922 176.691 67.9637 176.685 68.417C176.679 68.8703 176.815 69.2454 177.091 69.5423C177.381 69.826 177.752 69.9707 178.205 69.9765ZM184.316 66.194C184.327 65.3008 184.589 64.6107 185.102 64.1239C185.615 63.6371 186.325 63.3994 187.231 63.411C187.991 63.4206 188.602 63.6351 189.063 64.0544C189.538 64.4738 189.771 65.0101 189.763 65.6634C189.755 66.3033 189.541 66.8207 189.123 67.2154C188.705 67.6101 188.162 67.8032 187.496 67.7947C187.229 67.7913 186.976 67.7481 186.737 67.665C186.498 67.5686 186.32 67.453 186.202 67.3182L186.171 69.698L193.051 69.7856L193.133 63.3461C193.146 62.2929 192.797 61.455 192.085 60.8326C191.386 60.197 190.443 59.8716 189.257 59.8565C188.11 59.8419 187.173 60.1166 186.446 60.6807C185.719 61.2448 185.316 62.0064 185.237 62.9655L183.437 62.9426C183.5 62.17 183.776 61.4934 184.263 60.9129C184.764 60.3326 185.436 59.8945 186.28 59.5985C187.137 59.2894 188.119 59.1419 189.226 59.156C190.412 59.1711 191.443 59.3643 192.319 59.7355C193.207 60.1068 193.887 60.6289 194.359 61.3016C194.831 61.961 195.061 62.7307 195.05 63.6106L194.96 70.63L184.261 70.4937L184.316 66.194ZM187.424 67.1537C187.877 67.1595 188.252 67.0243 188.549 66.748C188.846 66.4584 188.997 66.087 189.003 65.6337C189.009 65.1671 188.867 64.7919 188.578 64.5082C188.301 64.2113 187.93 64.0599 187.463 64.054C187.01 64.0482 186.635 64.1901 186.338 64.4797C186.054 64.7694 185.909 65.1409 185.903 65.5942C185.898 66.0475 186.033 66.4226 186.309 66.7195C186.599 67.0032 186.97 67.1479 187.424 67.1537ZM201.31 70.9109C200.43 70.8997 199.733 70.6508 199.22 70.1642C198.706 69.6777 198.455 68.9744 198.466 68.0545L198.576 59.4752L200.496 59.4996L200.401 66.959C200.536 66.8274 200.717 66.723 200.945 66.6459C201.172 66.5688 201.419 66.532 201.686 66.5354C202.353 66.5439 202.883 66.7506 203.278 67.1557C203.686 67.5609 203.886 68.0902 203.878 68.7435C203.87 69.4101 203.63 69.9404 203.158 70.3344C202.686 70.7285 202.07 70.9206 201.31 70.9109ZM201.558 70.274C202.012 70.2798 202.387 70.1446 202.684 69.8684C202.981 69.5788 203.132 69.2073 203.138 68.7541C203.144 68.2874 203.002 67.9122 202.712 67.6285C202.436 67.3317 202.065 67.1802 201.598 67.1743C201.145 67.1685 200.769 67.3104 200.472 67.6C200.189 67.8897 200.044 68.2613 200.038 68.7146C200.032 69.1679 200.168 69.5429 200.444 69.8398C200.734 70.1235 201.105 70.2683 201.558 70.274ZM211.975 71.0468C211.228 71.0373 210.631 70.8297 210.183 70.4239C209.734 70.0182 209.515 69.482 209.523 68.8154C209.531 68.1621 209.745 67.6381 210.163 67.2434C210.595 66.8489 211.151 66.656 211.831 66.6646C212.071 66.6677 212.297 66.7106 212.509 66.7933C212.735 66.8762 212.913 66.9785 213.045 67.1001L213.084 64.0204L204.965 63.9169C205.01 62.4641 205.371 61.3486 206.048 60.5705C206.738 59.7792 207.71 59.3915 208.963 59.4075C209.39 59.4129 209.796 59.4715 210.181 59.583C210.566 59.6813 210.997 59.8535 211.474 60.0996C211.832 60.2908 212.117 60.4211 212.329 60.4905C212.542 60.5599 212.748 60.5958 212.948 60.5984C213.281 60.6026 213.549 60.506 213.752 60.3086C213.968 60.098 214.085 59.8195 214.103 59.473L215.822 59.4949C215.787 60.1478 215.554 60.6649 215.123 61.0461C214.691 61.414 214.129 61.5935 213.436 61.5847C213.089 61.5802 212.749 61.5359 212.417 61.4517C212.098 61.3543 211.72 61.1961 211.283 60.9772C210.833 60.7448 210.468 60.5934 210.189 60.5232C209.91 60.4397 209.604 60.3957 209.27 60.3915C207.817 60.373 207.039 61.2765 206.936 63.102L215.035 63.2052L214.971 68.2448C214.959 69.1514 214.69 69.848 214.164 70.3347C213.638 70.8213 212.908 71.0587 211.975 71.0468ZM211.803 70.4046C212.256 70.4104 212.631 70.2751 212.928 69.9989C213.225 69.7093 213.377 69.3379 213.383 68.8846C213.388 68.418 213.247 68.0428 212.957 67.7591C212.681 67.4622 212.309 67.3108 211.843 67.3048C211.389 67.2991 211.014 67.441 210.717 67.7305C210.42 68.0068 210.269 68.3782 210.263 68.8448C210.257 69.2981 210.399 69.6733 210.688 69.9703C210.978 70.2541 211.35 70.3988 211.803 70.4046ZM222.177 59.5759C223.977 59.5988 225.385 60.0234 226.401 60.8498C227.417 61.6761 227.916 62.8026 227.898 64.2291C227.893 64.6291 227.831 65.3284 227.711 66.3269C227.563 67.4851 227.481 68.7042 227.465 69.9841L227.451 71.044L225.391 71.0178L223.204 66.9095C223.039 67.2941 222.781 67.5976 222.432 67.8198C222.082 68.0287 221.681 68.1303 221.228 68.1245C220.561 68.116 220.011 67.9089 219.576 67.5034C219.154 67.0846 218.948 66.562 218.956 65.9353C218.964 65.2821 219.197 64.7583 219.656 64.3641C220.114 63.9566 220.703 63.7574 221.423 63.7666C222.557 63.7811 223.409 64.352 223.982 65.4793L225.7 68.7815C225.711 67.9149 225.763 66.9822 225.856 65.9833C225.934 65.0242 225.976 64.378 225.98 64.0447C225.995 62.8981 225.66 61.9871 224.975 61.3117C224.304 60.6364 223.375 60.2912 222.188 60.2761C221.028 60.2613 220.098 60.5428 219.397 61.1206C218.696 61.6984 218.319 62.487 218.267 63.4864L216.467 63.4634C216.49 62.6637 216.739 61.9668 217.214 61.3728C217.688 60.7788 218.347 60.3271 219.191 60.0179C220.048 59.7088 221.044 59.5614 222.177 59.5759ZM221.236 67.5045C221.702 67.5105 222.084 67.3687 222.381 67.0791C222.678 66.7895 222.83 66.4181 222.836 65.9648C222.841 65.5115 222.699 65.1363 222.41 64.8393C222.12 64.5422 221.742 64.3907 221.276 64.3848C220.822 64.379 220.447 64.5209 220.15 64.8105C219.853 65.1 219.702 65.4715 219.696 65.9248C219.69 66.3781 219.832 66.7532 220.121 67.0503C220.411 67.3473 220.782 67.4987 221.236 67.5045Z" fill="#8ABBE8"/>
</svg>
