<svg width="125" height="125" viewBox="0 0 125 125" fill="none" xmlns="http://www.w3.org/2000/svg">
<path d="M12.2655 6.6V15H10.9155L7.04547 12.72V13.41C7.04547 13.95 6.86547 14.375 6.50547 14.685C6.14547 14.995 5.65047 15.15 5.02047 15.15C4.43047 15.15 3.96047 14.99 3.61047 14.67C3.26047 14.34 3.08547 13.895 3.08547 13.335C3.08547 12.725 3.28047 12.245 3.67047 11.895C4.06047 11.535 4.59047 11.355 5.26047 11.355C5.41047 11.355 5.52547 11.36 5.60547 11.37V9.405C5.50547 9.495 5.36547 9.575 5.18547 9.645C5.01547 9.705 4.84047 9.735 4.66047 9.735C4.16047 9.735 3.75047 9.585 3.43047 9.285C3.12047 8.985 2.96547 8.59 2.96547 8.1C2.96547 7.61 3.14047 7.215 3.49047 6.915C3.84047 6.605 4.30047 6.45 4.87047 6.45C5.55047 6.45 6.08047 6.635 6.46047 7.005C6.85047 7.375 7.04547 7.895 7.04547 8.565V11.805C7.15547 11.855 7.22047 11.89 7.24047 11.91L10.8255 14.01V6.6H12.2655ZM4.69047 9.255C5.04047 9.255 5.32047 9.145 5.53047 8.925C5.75047 8.705 5.86047 8.425 5.86047 8.085C5.86047 7.745 5.75047 7.47 5.53047 7.26C5.31047 7.04 5.03047 6.93 4.69047 6.93C4.35047 6.93 4.07047 7.04 3.85047 7.26C3.63047 7.47 3.52047 7.745 3.52047 8.085C3.52047 8.425 3.63047 8.705 3.85047 8.925C4.07047 9.145 4.35047 9.255 4.69047 9.255ZM5.60547 12.075C5.42547 11.995 5.23047 11.955 5.02047 11.955C4.64047 11.955 4.33047 12.085 4.09047 12.345C3.86047 12.605 3.74547 12.94 3.74547 13.35C3.74547 13.74 3.83547 14.05 4.01547 14.28C4.19547 14.5 4.44547 14.61 4.76547 14.61C5.32547 14.61 5.60547 14.295 5.60547 13.665V12.075ZM12.2686 1.785V5.07H4.49863C4.53863 4.54 4.72863 4.07 5.06863 3.66C5.39863 3.24 5.84863 2.915 6.41863 2.685C6.98863 2.455 7.62363 2.34 8.32363 2.34C9.29363 2.34 10.1486 2.565 10.8886 3.015V1.785H12.2686ZM11.0236 4.575C10.9536 4.085 10.6686 3.685 10.1686 3.375C9.66863 3.065 9.05363 2.91 8.32363 2.91C7.58363 2.91 6.96863 3.065 6.47863 3.375C5.98863 3.675 5.70863 4.075 5.63863 4.575H11.0236ZM21.6736 7.335C21.9936 7.585 22.2386 7.885 22.4086 8.235C22.5886 8.575 22.6786 8.95 22.6786 9.36V15H21.2386V14.85C21.2386 13.23 20.9686 11.97 20.4286 11.07C19.8886 10.16 19.1336 9.705 18.1636 9.705C17.5136 9.705 16.9686 9.935 16.5286 10.395C16.0986 10.855 15.8636 11.465 15.8236 12.225C15.9036 12.125 16.0436 12.04 16.2436 11.97C16.4436 11.9 16.6436 11.865 16.8436 11.865C17.3436 11.865 17.7536 12.02 18.0736 12.33C18.4036 12.64 18.5686 13.035 18.5686 13.515C18.5686 13.995 18.3936 14.39 18.0436 14.7C17.7036 15 17.2636 15.15 16.7236 15.15C16.0236 15.15 15.4636 14.915 15.0436 14.445C14.6236 13.975 14.4136 13.355 14.4136 12.585C14.4136 11.915 14.5586 11.325 14.8486 10.815C15.1486 10.295 15.5686 9.89 16.1086 9.6C16.6586 9.31 17.2886 9.16 17.9986 9.15C18.8486 8.63 19.5836 8.045 20.2036 7.395C19.7536 7.125 19.1936 6.99 18.5236 6.99C17.7236 6.99 17.0536 7.175 16.5136 7.545C15.9736 7.905 15.6486 8.39 15.5386 9H14.1736C14.3136 8.23 14.7786 7.615 15.5686 7.155C16.3586 6.685 17.3436 6.45 18.5236 6.45C19.3536 6.45 20.0736 6.565 20.6836 6.795C20.9336 6.455 21.0986 6.13 21.1786 5.82H22.7986C22.7286 6.2 22.3536 6.705 21.6736 7.335ZM21.2386 9.24C21.2386 8.76 21.1186 8.35 20.8786 8.01C20.2286 8.52 19.5586 8.925 18.8686 9.225C19.4086 9.345 19.8836 9.585 20.2936 9.945C20.7036 10.295 21.0186 10.745 21.2386 11.295V9.24ZM16.8286 12.345C16.4786 12.345 16.1986 12.455 15.9886 12.675C15.7786 12.885 15.6736 13.165 15.6736 13.515C15.6736 13.855 15.7786 14.135 15.9886 14.355C16.2086 14.565 16.4886 14.67 16.8286 14.67C17.1786 14.67 17.4586 14.565 17.6686 14.355C17.8886 14.145 17.9986 13.865 17.9986 13.515C17.9986 13.165 17.8886 12.885 17.6686 12.675C17.4586 12.455 17.1786 12.345 16.8286 12.345ZM27.0187 15.15C26.3387 15.15 25.8087 14.965 25.4287 14.595C25.0487 14.225 24.8587 13.705 24.8587 13.035V11.67C24.8587 11.2 24.9637 10.805 25.1737 10.485C25.3937 10.165 25.7087 9.935 26.1187 9.795H24.3937C24.4237 9.125 24.6187 8.54 24.9787 8.04C25.3487 7.53 25.8487 7.14 26.4787 6.87C27.1187 6.59 27.8487 6.45 28.6687 6.45C29.4687 6.45 30.1687 6.575 30.7687 6.825C31.3787 7.065 31.8487 7.405 32.1787 7.845C32.5087 8.285 32.6737 8.795 32.6737 9.375V15H31.2337V9.225C31.2337 8.525 31.0037 7.975 30.5437 7.575C30.0837 7.175 29.4537 6.975 28.6537 6.975C27.8237 6.975 27.1487 7.18 26.6287 7.59C26.1187 8 25.8337 8.555 25.7737 9.255H27.7387V9.735C27.2387 9.835 26.8737 10.015 26.6437 10.275C26.4137 10.535 26.2987 10.905 26.2987 11.385V12.195C26.3887 12.105 26.5237 12.03 26.7037 11.97C26.8837 11.9 27.0637 11.865 27.2437 11.865C27.7437 11.865 28.1487 12.015 28.4587 12.315C28.7787 12.615 28.9387 13.01 28.9387 13.5C28.9387 13.99 28.7587 14.39 28.3987 14.7C28.0487 15 27.5887 15.15 27.0187 15.15ZM27.1987 14.7C27.5487 14.7 27.8337 14.59 28.0537 14.37C28.2737 14.15 28.3837 13.865 28.3837 13.515C28.3837 13.165 28.2737 12.88 28.0537 12.66C27.8337 12.44 27.5487 12.33 27.1987 12.33C26.8487 12.33 26.5637 12.44 26.3437 12.66C26.1237 12.88 26.0137 13.165 26.0137 13.515C26.0137 13.855 26.1237 14.14 26.3437 14.37C26.5737 14.59 26.8587 14.7 27.1987 14.7ZM39.6939 9.165C39.6939 8.505 39.4989 7.975 39.1089 7.575C38.7289 7.175 38.2039 6.975 37.5339 6.975C36.9139 6.975 36.3989 7.165 35.9889 7.545C35.5889 7.915 35.3539 8.43 35.2839 9.09H33.9189C33.9889 8.29 34.3439 7.65 34.9839 7.17C35.6339 6.69 36.4839 6.45 37.5339 6.45C38.6239 6.45 39.4939 6.71 40.1439 7.23C40.8039 7.75 41.1339 8.46 41.1339 9.36V15H39.6939V9.165ZM51.4307 11.925C51.7707 12.035 52.0407 12.23 52.2407 12.51C52.4507 12.79 52.5557 13.12 52.5557 13.5C52.5557 13.99 52.3907 14.39 52.0607 14.7C51.7407 15 51.3257 15.15 50.8157 15.15C50.3157 15.15 49.9007 15 49.5707 14.7C49.2507 14.39 49.0907 13.99 49.0907 13.5C49.0907 13.22 49.1407 12.98 49.2407 12.78C48.6707 13.08 48.1457 13.42 47.6657 13.8C47.1957 14.18 46.8007 14.58 46.4807 15H44.9957V9.42C44.9057 9.52 44.7757 9.6 44.6057 9.66C44.4357 9.71 44.2507 9.735 44.0507 9.735C43.5607 9.735 43.1557 9.585 42.8357 9.285C42.5257 8.975 42.3707 8.58 42.3707 8.1C42.3707 7.61 42.5407 7.215 42.8807 6.915C43.2307 6.605 43.6907 6.45 44.2607 6.45C44.9407 6.45 45.4707 6.64 45.8507 7.02C46.2407 7.39 46.4357 7.905 46.4357 8.565V13.86C46.9057 13.37 47.5507 12.9 48.3707 12.45C49.1907 11.99 49.9907 11.66 50.7707 11.46V6.6H52.2107V11.775C52.0207 11.795 51.7607 11.845 51.4307 11.925ZM44.0957 9.255C44.4457 9.255 44.7257 9.145 44.9357 8.925C45.1557 8.705 45.2657 8.425 45.2657 8.085C45.2657 7.745 45.1557 7.47 44.9357 7.26C44.7157 7.04 44.4357 6.93 44.0957 6.93C43.7557 6.93 43.4757 7.04 43.2557 7.26C43.0357 7.47 42.9257 7.745 42.9257 8.085C42.9257 8.425 43.0357 8.705 43.2557 8.925C43.4757 9.145 43.7557 9.255 44.0957 9.255ZM50.8157 14.655C51.1657 14.655 51.4507 14.545 51.6707 14.325C51.8907 14.105 52.0007 13.825 52.0007 13.485C52.0007 13.145 51.8907 12.87 51.6707 12.66C51.4507 12.44 51.1657 12.33 50.8157 12.33C50.4757 12.33 50.1957 12.44 49.9757 12.66C49.7557 12.87 49.6457 13.145 49.6457 13.485C49.6457 13.825 49.7557 14.105 49.9757 14.325C50.1957 14.545 50.4757 14.655 50.8157 14.655ZM57.0149 10.5C56.2049 10.5 55.5149 10.325 54.9449 9.975C54.3849 9.625 54.1049 9.115 54.1049 8.445C54.1049 7.995 54.2499 7.625 54.5399 7.335C54.8299 7.045 55.2049 6.9 55.6649 6.9C56.1049 6.9 56.4649 7.04 56.7449 7.32C57.0249 7.6 57.1649 7.955 57.1649 8.385C57.1649 8.725 57.0599 9.03 56.8499 9.3C56.6399 9.56 56.3649 9.725 56.0249 9.795C56.2949 9.875 56.6199 9.915 56.9999 9.915C57.7899 9.915 58.4149 9.645 58.8749 9.105C59.3349 8.565 59.5649 7.795 59.5649 6.795H60.7649V7.095C60.7649 7.765 60.6149 8.355 60.3149 8.865C60.0149 9.375 59.5799 9.775 59.0099 10.065C58.4499 10.355 57.7849 10.5 57.0149 10.5ZM55.6349 9.33C55.9249 9.33 56.1649 9.24 56.3549 9.06C56.5449 8.87 56.6399 8.635 56.6399 8.355C56.6399 8.075 56.5449 7.845 56.3549 7.665C56.1649 7.475 55.9249 7.38 55.6349 7.38C55.3449 7.38 55.1049 7.475 54.9149 7.665C54.7349 7.845 54.6449 8.075 54.6449 8.355C54.6449 8.635 54.7349 8.87 54.9149 9.06C55.1049 9.24 55.3449 9.33 55.6349 9.33ZM57.0149 14.82C56.2049 14.82 55.5149 14.645 54.9449 14.295C54.3849 13.945 54.1049 13.435 54.1049 12.765C54.1049 12.315 54.2499 11.945 54.5399 11.655C54.8299 11.365 55.2049 11.22 55.6649 11.22C56.1049 11.22 56.4649 11.36 56.7449 11.64C57.0249 11.92 57.1649 12.275 57.1649 12.705C57.1649 13.045 57.0599 13.35 56.8499 13.62C56.6399 13.88 56.3649 14.045 56.0249 14.115C56.2949 14.195 56.6199 14.235 56.9999 14.235C57.7699 14.235 58.3899 13.965 58.8599 13.425C59.3299 12.875 59.5649 12.105 59.5649 11.115H60.7649V11.415C60.7649 12.075 60.6099 12.665 60.2999 13.185C59.9899 13.695 59.5499 14.095 58.9799 14.385C58.4199 14.675 57.7649 14.82 57.0149 14.82ZM55.6349 13.65C55.9249 13.65 56.1649 13.56 56.3549 13.38C56.5449 13.19 56.6399 12.955 56.6399 12.675C56.6399 12.395 56.5449 12.165 56.3549 11.985C56.1649 11.795 55.9249 11.7 55.6349 11.7C55.3449 11.7 55.1049 11.795 54.9149 11.985C54.7349 12.165 54.6449 12.395 54.6449 12.675C54.6449 12.955 54.7349 13.19 54.9149 13.38C55.1049 13.56 55.3449 13.65 55.6349 13.65ZM65.2466 15.15C64.5866 15.15 64.0616 14.97 63.6716 14.61C63.2816 14.25 63.0866 13.725 63.0866 13.035V6.6H64.5266V12.195C64.6266 12.095 64.7616 12.015 64.9316 11.955C65.1016 11.895 65.2866 11.865 65.4866 11.865C65.9866 11.865 66.3866 12.015 66.6866 12.315C66.9966 12.615 67.1516 13.01 67.1516 13.5C67.1516 14 66.9766 14.4 66.6266 14.7C66.2766 15 65.8166 15.15 65.2466 15.15ZM65.4266 14.67C65.7666 14.67 66.0466 14.565 66.2666 14.355C66.4866 14.135 66.5966 13.855 66.5966 13.515C66.5966 13.165 66.4866 12.885 66.2666 12.675C66.0566 12.455 65.7766 12.345 65.4266 12.345C65.0866 12.345 64.8066 12.455 64.5866 12.675C64.3766 12.895 64.2716 13.175 64.2716 13.515C64.2716 13.855 64.3766 14.135 64.5866 14.355C64.8066 14.565 65.0866 14.67 65.4266 14.67ZM70.4107 9.405C70.3207 9.495 70.1857 9.575 70.0057 9.645C69.8357 9.705 69.6557 9.735 69.4657 9.735C68.9657 9.735 68.5607 9.585 68.2507 9.285C67.9407 8.985 67.7857 8.59 67.7857 8.1C67.7857 7.61 67.9607 7.215 68.3107 6.915C68.6607 6.605 69.1207 6.45 69.6907 6.45C70.3707 6.45 70.9007 6.635 71.2807 7.005C71.6607 7.375 71.8507 7.895 71.8507 8.565V14.43H76.1707V3.75H77.6107V15H70.4107V9.405ZM69.5107 9.255C69.8607 9.255 70.1407 9.145 70.3507 8.925C70.5707 8.705 70.6807 8.425 70.6807 8.085C70.6807 7.745 70.5707 7.47 70.3507 7.26C70.1307 7.04 69.8507 6.93 69.5107 6.93C69.1707 6.93 68.8907 7.04 68.6707 7.26C68.4507 7.47 68.3407 7.745 68.3407 8.085C68.3407 8.425 68.4507 8.705 68.6707 8.925C68.8907 9.145 69.1707 9.255 69.5107 9.255ZM74.3753 2.505C74.7253 2.505 75.0103 2.615 75.2303 2.835C75.4503 3.055 75.5603 3.34 75.5603 3.69C75.5603 4.16 75.4003 4.545 75.0803 4.845C74.7503 5.135 74.3053 5.28 73.7453 5.28C72.9753 5.28 72.4353 5.02 72.1253 4.5C71.9853 4.75 71.7953 4.945 71.5553 5.085C71.3053 5.215 71.0203 5.28 70.7003 5.28C70.1603 5.28 69.7453 5.13 69.4553 4.83C69.1553 4.52 69.0053 4.13 69.0053 3.66C69.0053 3.11 69.1553 2.7 69.4553 2.43C69.7453 2.16 70.1153 1.99 70.5653 1.92C71.0053 1.84 71.5553 1.8 72.2153 1.8C72.9853 1.8 73.5653 1.735 73.9553 1.605C74.3453 1.465 74.5403 1.17 74.5403 0.72H75.7403C75.7303 1.16 75.5903 1.49 75.3203 1.71C75.0403 1.93 74.7053 2.075 74.3153 2.145C73.9153 2.205 73.4103 2.24 72.8003 2.25C72.2103 2.26 71.7403 2.295 71.3903 2.355C71.0303 2.415 70.7403 2.545 70.5203 2.745C70.2903 2.935 70.1753 3.23 70.1753 3.63C70.1753 3.94 70.2553 4.19 70.4153 4.38C70.5753 4.56 70.7903 4.65 71.0603 4.65C71.2603 4.65 71.4353 4.59 71.5853 4.47C71.7253 4.34 71.8103 4.17 71.8403 3.96H72.4403C72.4903 4.21 72.6253 4.415 72.8453 4.575C73.0653 4.725 73.3503 4.8 73.7003 4.8C74.1403 4.8 74.4753 4.7 74.7053 4.5C74.5953 4.53 74.4803 4.545 74.3603 4.545C74.0403 4.545 73.7853 4.45 73.5953 4.26C73.3953 4.07 73.2953 3.82 73.2953 3.51C73.2953 3.22 73.3953 2.98 73.5953 2.79C73.7953 2.6 74.0553 2.505 74.3753 2.505ZM73.7003 3.51C73.7003 3.7 73.7603 3.86 73.8803 3.99C74.0003 4.11 74.1603 4.17 74.3603 4.17C74.5503 4.17 74.7053 4.11 74.8253 3.99C74.9453 3.86 75.0053 3.7 75.0053 3.51C75.0053 3.32 74.9453 3.165 74.8253 3.045C74.7053 2.925 74.5503 2.865 74.3603 2.865C74.1703 2.865 74.0153 2.925 73.8953 3.045C73.7653 3.165 73.7003 3.32 73.7003 3.51ZM87.9053 11.925C88.2453 12.035 88.5153 12.23 88.7153 12.51C88.9253 12.79 89.0303 13.12 89.0303 13.5C89.0303 13.99 88.8653 14.39 88.5353 14.7C88.2153 15 87.8003 15.15 87.2903 15.15C86.7903 15.15 86.3753 15 86.0453 14.7C85.7253 14.39 85.5653 13.99 85.5653 13.5C85.5653 13.22 85.6153 12.98 85.7153 12.78C85.1453 13.08 84.6203 13.42 84.1403 13.8C83.6703 14.18 83.2753 14.58 82.9553 15H81.4703V9.42C81.3803 9.52 81.2503 9.6 81.0803 9.66C80.9103 9.71 80.7253 9.735 80.5253 9.735C80.0353 9.735 79.6303 9.585 79.3103 9.285C79.0003 8.975 78.8453 8.58 78.8453 8.1C78.8453 7.61 79.0153 7.215 79.3553 6.915C79.7053 6.605 80.1653 6.45 80.7353 6.45C81.4153 6.45 81.9453 6.64 82.3253 7.02C82.7153 7.39 82.9103 7.905 82.9103 8.565V13.86C83.3803 13.37 84.0253 12.9 84.8453 12.45C85.6653 11.99 86.4653 11.66 87.2453 11.46V6.6H88.6853V11.775C88.4953 11.795 88.2353 11.845 87.9053 11.925ZM80.5703 9.255C80.9203 9.255 81.2003 9.145 81.4103 8.925C81.6303 8.705 81.7403 8.425 81.7403 8.085C81.7403 7.745 81.6303 7.47 81.4103 7.26C81.1903 7.04 80.9103 6.93 80.5703 6.93C80.2303 6.93 79.9503 7.04 79.7303 7.26C79.5103 7.47 79.4003 7.745 79.4003 8.085C79.4003 8.425 79.5103 8.705 79.7303 8.925C79.9503 9.145 80.2303 9.255 80.5703 9.255ZM87.2903 14.655C87.6403 14.655 87.9253 14.545 88.1453 14.325C88.3653 14.105 88.4753 13.825 88.4753 13.485C88.4753 13.145 88.3653 12.87 88.1453 12.66C87.9253 12.44 87.6403 12.33 87.2903 12.33C86.9503 12.33 86.6703 12.44 86.4503 12.66C86.2303 12.87 86.1203 13.145 86.1203 13.485C86.1203 13.825 86.2303 14.105 86.4503 14.325C86.6703 14.545 86.9503 14.655 87.2903 14.655Z" fill="black"/>
<path d="M7.46 44.2C6.58 44.2 5.88 43.96 5.36 43.48C4.84 43 4.58 42.3 4.58 41.38V28.94H0.5C0.526667 27.7667 0.826667 26.8267 1.4 26.12C1.96 25.4 2.73333 25.04 3.72 25.04C4.4 25.04 5.06667 25.24 5.72 25.64C6.08 25.8667 6.39333 25.98 6.66 25.98C6.91333 25.98 7.12 25.9 7.28 25.74C7.45333 25.5667 7.55333 25.3333 7.58 25.04H9.1C9.04667 25.6133 8.82667 26.08 8.44 26.44C8.05333 26.8 7.56667 26.98 6.98 26.98C6.68667 26.98 6.42 26.9467 6.18 26.88C5.95333 26.8 5.71333 26.68 5.46 26.52C5.22 26.3733 5.00667 26.2733 4.82 26.22C4.63333 26.1533 4.42 26.12 4.18 26.12C3.68667 26.12 3.28667 26.2867 2.98 26.62C2.68667 26.9533 2.50667 27.44 2.44 28.08H6.5V40.26C6.63333 40.14 6.81333 40.04 7.04 39.96C7.26667 39.8667 7.51333 39.82 7.78 39.82C8.44667 39.82 8.98 40.02 9.38 40.42C9.79333 40.82 10 41.3467 10 42C10 42.6667 9.76667 43.2 9.3 43.6C8.83333 44 8.22 44.2 7.46 44.2ZM7.7 43.6C8.16667 43.6 8.54667 43.4533 8.84 43.16C9.13333 42.8667 9.28 42.4867 9.28 42.02C9.28 41.5533 9.13333 41.1733 8.84 40.88C8.54667 40.5867 8.16667 40.44 7.7 40.44C7.23333 40.44 6.85333 40.5867 6.56 40.88C6.26667 41.1733 6.12 41.5533 6.12 42.02C6.12 42.4733 6.26667 42.8533 6.56 43.16C6.86667 43.4533 7.24667 43.6 7.7 43.6ZM18.0542 44.2C17.3076 44.2 16.7076 44 16.2542 43.6C15.8009 43.2 15.5742 42.6667 15.5742 42C15.5742 41.3467 15.7809 40.82 16.1942 40.42C16.6209 40.02 17.1742 39.82 17.8542 39.82C18.0942 39.82 18.3209 39.86 18.5342 39.94C18.7609 40.02 18.9409 40.12 19.0742 40.24V37.16H10.9542C10.9809 35.7067 11.3276 34.5867 11.9942 33.8C12.6742 33 13.6409 32.6 14.8942 32.6C15.3209 32.6 15.7276 32.6533 16.1142 32.76C16.5009 32.8533 16.9342 33.02 17.4142 33.26C17.7742 33.4467 18.0609 33.5733 18.2742 33.64C18.4876 33.7067 18.6942 33.74 18.8942 33.74C19.2276 33.74 19.4942 33.64 19.6942 33.44C19.9076 33.2267 20.0209 32.9467 20.0342 32.6H21.7542C21.7276 33.2533 21.5009 33.7733 21.0742 34.16C20.6476 34.5333 20.0876 34.72 19.3942 34.72C19.0476 34.72 18.7076 34.68 18.3742 34.6C18.0542 34.5067 17.6742 34.3533 17.2342 34.14C16.7809 33.9133 16.4142 33.7667 16.1342 33.7C15.8542 33.62 15.5476 33.58 15.2142 33.58C13.7609 33.58 12.9942 34.4933 12.9142 36.32H21.0142V41.36C21.0142 42.2667 20.7542 42.9667 20.2342 43.46C19.7142 43.9533 18.9876 44.2 18.0542 44.2ZM17.8742 43.56C18.3276 43.56 18.7009 43.42 18.9942 43.14C19.2876 42.8467 19.4342 42.4733 19.4342 42.02C19.4342 41.5533 19.2876 41.18 18.9942 40.9C18.7142 40.6067 18.3409 40.46 17.8742 40.46C17.4209 40.46 17.0476 40.6067 16.7542 40.9C16.4609 41.18 16.3142 41.5533 16.3142 42.02C16.3142 42.4733 16.4609 42.8467 16.7542 43.14C17.0476 43.42 17.4209 43.56 17.8742 43.56ZM26.6092 44C26.3959 42.6667 25.9292 41.38 25.2092 40.14C24.4892 38.9 23.6359 37.9067 22.6492 37.16L24.1292 36.1C25.0492 36.7 25.8626 37.6267 26.5692 38.88C27.2759 40.12 27.7892 41.5467 28.1092 43.16H31.0892V36.56C30.9559 36.6933 30.7759 36.8 30.5492 36.88C30.3226 36.9467 30.0759 36.98 29.8092 36.98C29.1426 36.98 28.6026 36.78 28.1892 36.38C27.7759 35.98 27.5692 35.4533 27.5692 34.8C27.5692 34.1467 27.8026 33.62 28.2692 33.22C28.7359 32.8067 29.3559 32.6 30.1292 32.6C31.0359 32.6 31.7426 32.8467 32.2492 33.34C32.7559 33.8333 33.0092 34.5267 33.0092 35.42V44H26.6092ZM29.8692 36.34C30.3359 36.34 30.7092 36.1933 30.9892 35.9C31.2826 35.6067 31.4292 35.2333 31.4292 34.78C31.4292 34.3267 31.2826 33.96 30.9892 33.68C30.6959 33.3867 30.3226 33.24 29.8692 33.24C29.4159 33.24 29.0426 33.3867 28.7492 33.68C28.4692 33.96 28.3292 34.3267 28.3292 34.78C28.3292 35.2333 28.4692 35.6067 28.7492 35.9C29.0426 36.1933 29.4159 36.34 29.8692 36.34ZM35.9814 44C35.9814 42.8133 35.9147 41.42 35.7814 39.82C35.6614 38.2333 35.6014 37.06 35.6014 36.3C35.6014 35.1 35.8481 34.1867 36.3414 33.56C36.8347 32.92 37.6414 32.6 38.7614 32.6C39.4681 32.6 40.0414 32.8067 40.4814 33.22C40.9347 33.62 41.1614 34.14 41.1614 34.78C41.1614 35.4333 40.9414 35.9667 40.5014 36.38C40.0614 36.78 39.4947 36.98 38.8014 36.98C38.5881 36.98 38.3614 36.9533 38.1214 36.9C37.8947 36.8333 37.6947 36.7333 37.5214 36.6V37.16C37.5347 37.8 37.5747 38.5333 37.6414 39.36C37.7081 40.1067 37.7481 40.9867 37.7614 42L40.8814 37.9H41.9214L44.9014 41.8V32.8H46.8214V44H44.9014L41.4014 39.42L37.9214 44H35.9814ZM38.8814 36.34C39.3347 36.34 39.7014 36.1933 39.9814 35.9C40.2747 35.6067 40.4214 35.2333 40.4214 34.78C40.4214 34.3267 40.2747 33.96 39.9814 33.68C39.7014 33.3867 39.3347 33.24 38.8814 33.24C38.4281 33.24 38.0547 33.3867 37.7614 33.68C37.4681 33.96 37.3214 34.3267 37.3214 34.78C37.3214 35.2333 37.4681 35.6067 37.7614 35.9C38.0547 36.1933 38.4281 36.34 38.8814 36.34ZM52.7695 44.2C51.8362 44.2 51.0895 43.8867 50.5295 43.26C49.9695 42.6333 49.6895 41.8067 49.6895 40.78C49.6895 39.8733 49.8895 39.0733 50.2895 38.38C50.7029 37.6867 51.2829 37.1533 52.0295 36.78C52.7762 36.3933 53.6362 36.2 54.6095 36.2C55.5695 36.2 56.4162 36.4533 57.1495 36.96C57.8829 37.4533 58.4295 38.1533 58.7895 39.06V36.32C58.7895 35.4 58.4629 34.6733 57.8095 34.14C57.1562 33.5933 56.2762 33.32 55.1695 33.32C54.1029 33.32 53.2095 33.5667 52.4895 34.06C51.7695 34.54 51.3362 35.1867 51.1895 36H49.3695C49.5562 34.9733 50.1762 34.1533 51.2295 33.54C52.2829 32.9133 53.5962 32.6 55.1695 32.6C56.2895 32.6 57.2629 32.76 58.0895 33.08C58.9295 33.4 59.5762 33.8533 60.0295 34.44C60.4829 35.0133 60.7095 35.6933 60.7095 36.48V44H58.7895V43.8C58.7895 41.64 58.4295 39.96 57.7095 38.76C56.9895 37.5467 55.9829 36.94 54.6895 36.94C53.8229 36.94 53.0962 37.2467 52.5095 37.86C51.9362 38.4733 51.6229 39.2867 51.5695 40.3C51.6762 40.1667 51.8629 40.0533 52.1295 39.96C52.3962 39.8667 52.6629 39.82 52.9295 39.82C53.5962 39.82 54.1429 40.0267 54.5695 40.44C55.0095 40.8533 55.2295 41.38 55.2295 42.02C55.2295 42.66 54.9962 43.1867 54.5295 43.6C54.0762 44 53.4895 44.2 52.7695 44.2ZM52.9095 43.56C53.3762 43.56 53.7495 43.42 54.0295 43.14C54.3229 42.86 54.4695 42.4867 54.4695 42.02C54.4695 41.5533 54.3229 41.18 54.0295 40.9C53.7495 40.6067 53.3762 40.46 52.9095 40.46C52.4429 40.46 52.0695 40.6067 51.7895 40.9C51.5095 41.18 51.3695 41.5533 51.3695 42.02C51.3695 42.4733 51.5095 42.8467 51.7895 43.14C52.0829 43.42 52.4562 43.56 52.9095 43.56ZM50.1414 30.76C50.1947 30.0533 50.4481 29.4267 50.9014 28.88C51.3414 28.32 51.9414 27.8867 52.7014 27.58C53.4481 27.2733 54.2947 27.12 55.2414 27.12C56.2147 27.12 57.0947 27.2733 57.8814 27.58C58.6547 27.8867 59.2747 28.32 59.7414 28.88C60.1947 29.4267 60.4481 30.0533 60.5014 30.76H50.1414ZM58.8414 30.1C58.7481 29.4467 58.3681 28.9133 57.7014 28.5C57.0347 28.0867 56.2147 27.88 55.2414 27.88C54.2547 27.88 53.4347 28.0867 52.7814 28.5C52.1281 28.9 51.7547 29.4333 51.6614 30.1H58.8414ZM63.6363 42.94C63.6363 41.7267 63.5763 40.52 63.4563 39.32C63.3629 38.3733 63.3163 37.6067 63.3163 37.02C63.3163 36.14 63.4696 35.3667 63.7763 34.7C64.0829 34.0333 64.5096 33.52 65.0563 33.16C65.6163 32.7867 66.2629 32.6 66.9963 32.6C67.5029 32.6 67.9629 32.7 68.3763 32.9C68.8029 33.1 69.1163 33.3733 69.3163 33.72C69.5296 33.36 69.8296 33.0867 70.2163 32.9C70.6163 32.7 71.0829 32.6 71.6163 32.6C72.5896 32.6 73.3429 32.8667 73.8763 33.4C74.4229 33.9333 74.6963 34.6867 74.6963 35.66V44H72.7763V35.72C72.7763 34.9867 72.6296 34.4267 72.3363 34.04C72.0563 33.64 71.6496 33.44 71.1163 33.44C70.7696 33.44 70.4629 33.5467 70.1963 33.76C69.9429 33.9733 69.7563 34.2733 69.6363 34.66H68.9563C68.8496 34.2733 68.6563 33.9733 68.3763 33.76C68.1096 33.5467 67.7896 33.44 67.4163 33.44C66.7363 33.44 66.2029 33.7467 65.8163 34.36C65.4296 34.9733 65.2363 35.8267 65.2363 36.92C65.2363 37.4133 65.2696 38.16 65.3363 39.16C65.4163 40.4667 65.4629 41.7667 65.4763 43.06C67.6496 42.2067 69.1163 41.2933 69.8763 40.32C69.5829 40.4533 69.3163 40.52 69.0763 40.52C68.3963 40.52 67.8363 40.3133 67.3963 39.9C66.9696 39.4867 66.7563 38.96 66.7563 38.32C66.7563 37.68 66.9696 37.16 67.3963 36.76C67.8229 36.3467 68.3763 36.14 69.0563 36.14C69.7363 36.14 70.2963 36.36 70.7363 36.8C71.1763 37.2267 71.3963 37.7867 71.3963 38.48C71.3963 39.5333 70.8696 40.54 69.8163 41.5C68.7629 42.4467 67.2563 43.28 65.2963 44H63.6363V42.94ZM69.0563 39.88C69.5229 39.88 69.9029 39.7333 70.1963 39.44C70.4896 39.1467 70.6363 38.7733 70.6363 38.32C70.6363 37.8667 70.4896 37.4933 70.1963 37.2C69.9029 36.9067 69.5229 36.76 69.0563 36.76C68.5896 36.76 68.2096 36.9067 67.9163 37.2C67.6229 37.4933 67.4763 37.8667 67.4763 38.32C67.4763 38.7733 67.6229 39.1467 67.9163 39.44C68.2096 39.7333 68.5896 39.88 69.0563 39.88ZM81.0606 44.2C80.1806 44.2 79.4806 43.96 78.9606 43.48C78.4406 43 78.1806 42.3 78.1806 41.38V32.8H80.1006V40.26C80.234 40.1267 80.414 40.02 80.6406 39.94C80.8673 39.86 81.114 39.82 81.3806 39.82C82.0473 39.82 82.5806 40.02 82.9806 40.42C83.394 40.82 83.6006 41.3467 83.6006 42C83.6006 42.6667 83.3673 43.2 82.9006 43.6C82.434 44 81.8206 44.2 81.0606 44.2ZM81.3006 43.56C81.754 43.56 82.1273 43.42 82.4206 43.14C82.714 42.8467 82.8606 42.4733 82.8606 42.02C82.8606 41.5533 82.714 41.18 82.4206 40.9C82.1406 40.6067 81.7673 40.46 81.3006 40.46C80.8473 40.46 80.474 40.6067 80.1806 40.9C79.9006 41.1933 79.7606 41.5667 79.7606 42.02C79.7606 42.4733 79.9006 42.8467 80.1806 43.14C80.474 43.42 80.8473 43.56 81.3006 43.56ZM87.9461 36.54C87.8261 36.66 87.6461 36.7667 87.4061 36.86C87.1794 36.94 86.9394 36.98 86.6861 36.98C86.0194 36.98 85.4794 36.78 85.0661 36.38C84.6528 35.98 84.4461 35.4533 84.4461 34.8C84.4461 34.1467 84.6794 33.62 85.1461 33.22C85.6128 32.8067 86.2261 32.6 86.9861 32.6C87.8928 32.6 88.5994 32.8467 89.1061 33.34C89.6128 33.8333 89.8661 34.5267 89.8661 35.42V43.24H95.5461V32.8H97.4661V44H87.9461V36.54ZM86.7461 36.34C87.2128 36.34 87.5861 36.1933 87.8661 35.9C88.1594 35.6067 88.3061 35.2333 88.3061 34.78C88.3061 34.3267 88.1594 33.96 87.8661 33.68C87.5728 33.3867 87.1994 33.24 86.7461 33.24C86.2928 33.24 85.9194 33.3867 85.6261 33.68C85.3328 33.96 85.1861 34.3267 85.1861 34.78C85.1861 35.2333 85.3328 35.6067 85.6261 35.9C85.9194 36.1933 86.2928 36.34 86.7461 36.34ZM97.4741 26.38V30.76H87.1141C87.1674 30.0533 87.4207 29.4267 87.8741 28.88C88.3141 28.32 88.9141 27.8867 89.6741 27.58C90.4341 27.2733 91.2807 27.12 92.2141 27.12C93.5074 27.12 94.6474 27.42 95.6341 28.02V26.38H97.4741ZM95.8141 30.1C95.7207 29.4467 95.3407 28.9133 94.6741 28.5C94.0074 28.0867 93.1874 27.88 92.2141 27.88C91.2274 27.88 90.4074 28.0867 89.7541 28.5C89.1007 28.9 88.7274 29.4333 88.6341 30.1H95.8141ZM110.934 32.8V44H100.714V41.4C100.714 40.8933 100.907 40.44 101.294 40.04C101.681 39.64 102.201 39.3467 102.854 39.16C101.947 38.9333 101.241 38.5333 100.734 37.96C100.241 37.3867 99.9941 36.6867 99.9941 35.86C99.9941 34.8867 100.341 34.1 101.034 33.5C101.727 32.9 102.634 32.6 103.754 32.6C104.661 32.6 105.401 32.8267 105.974 33.28C106.547 33.7333 106.834 34.3267 106.834 35.06C106.834 35.7267 106.614 36.2667 106.174 36.68C105.747 37.0933 105.187 37.3 104.494 37.3C103.801 37.3 103.234 37.1 102.794 36.7C102.354 36.2867 102.134 35.7533 102.134 35.1C102.134 34.6867 102.287 34.3267 102.594 34.02C102.047 34.42 101.774 35.0333 101.774 35.86C101.774 37.7 103.021 38.62 105.514 38.62H105.694V39.44H105.534C104.601 39.44 103.881 39.62 103.374 39.98C102.881 40.3267 102.634 40.8333 102.634 41.5V43.16H109.014V32.8H110.934ZM104.474 33.54C104.021 33.54 103.647 33.6867 103.354 33.98C103.061 34.2733 102.914 34.6467 102.914 35.1C102.914 35.5533 103.061 35.9267 103.354 36.22C103.647 36.5133 104.021 36.66 104.474 36.66C104.941 36.66 105.321 36.5133 105.614 36.22C105.907 35.9267 106.054 35.5533 106.054 35.1C106.054 34.6467 105.907 34.2733 105.614 33.98C105.321 33.6867 104.941 33.54 104.474 33.54ZM119.851 44.2C119.104 44.2 118.504 44 118.051 43.6C117.598 43.2 117.371 42.6667 117.371 42C117.371 41.3467 117.578 40.82 117.991 40.42C118.418 40.02 118.971 39.82 119.651 39.82C119.891 39.82 120.118 39.86 120.331 39.94C120.558 40.02 120.738 40.12 120.871 40.24V37.16H112.751C112.778 35.7067 113.124 34.5867 113.791 33.8C114.471 33 115.438 32.6 116.691 32.6C117.118 32.6 117.524 32.6533 117.911 32.76C118.298 32.8533 118.731 33.02 119.211 33.26C119.571 33.4467 119.858 33.5733 120.071 33.64C120.284 33.7067 120.491 33.74 120.691 33.74C121.024 33.74 121.291 33.64 121.491 33.44C121.704 33.2267 121.818 32.9467 121.831 32.6H123.551C123.524 33.2533 123.298 33.7733 122.871 34.16C122.444 34.5333 121.884 34.72 121.191 34.72C120.844 34.72 120.504 34.68 120.171 34.6C119.851 34.5067 119.471 34.3533 119.031 34.14C118.578 33.9133 118.211 33.7667 117.931 33.7C117.651 33.62 117.344 33.58 117.011 33.58C115.558 33.58 114.791 34.4933 114.711 36.32H122.811V41.36C122.811 42.2667 122.551 42.9667 122.031 43.46C121.511 43.9533 120.784 44.2 119.851 44.2ZM119.671 43.56C120.124 43.56 120.498 43.42 120.791 43.14C121.084 42.8467 121.231 42.4733 121.231 42.02C121.231 41.5533 121.084 41.18 120.791 40.9C120.511 40.6067 120.138 40.46 119.671 40.46C119.218 40.46 118.844 40.6067 118.551 40.9C118.258 41.18 118.111 41.5533 118.111 42.02C118.111 42.4733 118.258 42.8467 118.551 43.14C118.844 43.42 119.218 43.56 119.671 43.56ZM120.106 30.96C119.493 30.96 118.999 30.7933 118.626 30.46C118.253 30.1133 118.066 29.66 118.066 29.1C118.066 28.5933 118.179 28.18 118.406 27.86C118.619 27.54 118.886 27.2933 119.206 27.12C119.513 26.9467 119.913 26.7733 120.406 26.6C121.033 26.36 121.493 26.1267 121.786 25.9C122.066 25.6733 122.206 25.3333 122.206 24.88H124.066C124.066 25.4667 123.806 25.9267 123.286 26.26C122.753 26.5933 122.079 26.88 121.266 27.12C121.119 27.16 120.893 27.24 120.586 27.36C121.013 27.4133 121.359 27.6 121.626 27.92C121.893 28.24 122.026 28.6333 122.026 29.1C122.026 29.6467 121.853 30.0933 121.506 30.44C121.146 30.7867 120.679 30.96 120.106 30.96ZM120.146 30.3C120.493 30.3 120.779 30.1867 121.006 29.96C121.219 29.7333 121.326 29.4467 121.326 29.1C121.326 28.7533 121.219 28.4733 121.006 28.26C120.779 28.0333 120.493 27.92 120.146 27.92C119.799 27.92 119.519 28.0333 119.306 28.26C119.079 28.4733 118.966 28.7533 118.966 29.1C118.966 29.4467 119.079 29.7333 119.306 29.96C119.519 30.1867 119.799 30.3 120.146 30.3Z" fill="black"/>
<path d="M4.52 65.84C5.8 65.4533 6.75333 64.96 7.38 64.36C8.00667 63.7467 8.32 63.0067 8.32 62.14C8.32 61.3133 8.08 60.6467 7.6 60.14C7.13333 59.62 6.52667 59.36 5.78 59.36C5.28667 59.36 4.84 59.4733 4.44 59.7C4.04 59.9267 3.76667 60.22 3.62 60.58C3.76667 60.46 3.95333 60.3667 4.18 60.3C4.42 60.22 4.66 60.18 4.9 60.18C5.54 60.18 6.06667 60.3867 6.48 60.8C6.89333 61.2 7.1 61.72 7.1 62.36C7.1 63 6.88667 63.5267 6.46 63.94C6.03333 64.3533 5.48667 64.56 4.82 64.56C4.04667 64.56 3.42 64.3067 2.94 63.8C2.46 63.28 2.22 62.6133 2.22 61.8C2.22 60.8267 2.55333 60.0533 3.22 59.48C3.9 58.8933 4.80667 58.6 5.94 58.6C7.12667 58.6 8.07333 58.92 8.78 59.56C9.48667 60.1867 9.84 61.0267 9.84 62.08C9.84 63.92 8.70667 65.26 6.44 66.1V69.16H11.74V58.8H13.66V70H4.52V65.84ZM4.84 63.92C5.30667 63.92 5.68 63.7733 5.96 63.48C6.25333 63.1867 6.4 62.8133 6.4 62.36C6.4 61.9067 6.25333 61.5333 5.96 61.24C5.66667 60.9467 5.29333 60.8 4.84 60.8C4.38667 60.8 4.01333 60.9467 3.72 61.24C3.42667 61.5333 3.28 61.9067 3.28 62.36C3.28 62.8133 3.42667 63.1867 3.72 63.48C4.01333 63.7733 4.38667 63.92 4.84 63.92ZM27.3855 65.9C27.8388 66.0467 28.1988 66.3067 28.4655 66.68C28.7455 67.0533 28.8855 67.4933 28.8855 68C28.8855 68.6533 28.6655 69.1867 28.2255 69.6C27.7988 70 27.2455 70.2 26.5655 70.2C25.8988 70.2 25.3455 70 24.9055 69.6C24.4788 69.1867 24.2655 68.6533 24.2655 68C24.2655 67.6267 24.3321 67.3067 24.4655 67.04C23.7055 67.44 23.0055 67.8933 22.3655 68.4C21.7388 68.9067 21.2121 69.44 20.7855 70H18.8055V62.56C18.6855 62.6933 18.5121 62.8 18.2855 62.88C18.0588 62.9467 17.8121 62.98 17.5455 62.98C16.8921 62.98 16.3521 62.78 15.9255 62.38C15.5121 61.9667 15.3055 61.44 15.3055 60.8C15.3055 60.1467 15.5321 59.62 15.9855 59.22C16.4521 58.8067 17.0655 58.6 17.8255 58.6C18.7321 58.6 19.4388 58.8533 19.9455 59.36C20.4655 59.8533 20.7255 60.54 20.7255 61.42V68.48C21.3521 67.8267 22.2121 67.2 23.3055 66.6C24.3988 65.9867 25.4655 65.5467 26.5055 65.28V58.8H28.4255V65.7C28.1721 65.7267 27.8255 65.7933 27.3855 65.9ZM17.6055 62.34C18.0721 62.34 18.4455 62.1933 18.7255 61.9C19.0188 61.6067 19.1655 61.2333 19.1655 60.78C19.1655 60.3267 19.0188 59.96 18.7255 59.68C18.4321 59.3867 18.0588 59.24 17.6055 59.24C17.1521 59.24 16.7788 59.3867 16.4855 59.68C16.1921 59.96 16.0455 60.3267 16.0455 60.78C16.0455 61.2333 16.1921 61.6067 16.4855 61.9C16.7788 62.1933 17.1521 62.34 17.6055 62.34ZM26.5655 69.54C27.0321 69.54 27.4121 69.3933 27.7055 69.1C27.9988 68.8067 28.1455 68.4333 28.1455 67.98C28.1455 67.5267 27.9988 67.16 27.7055 66.88C27.4121 66.5867 27.0321 66.44 26.5655 66.44C26.1121 66.44 25.7388 66.5867 25.4455 66.88C25.1521 67.16 25.0055 67.5267 25.0055 67.98C25.0055 68.4333 25.1521 68.8067 25.4455 69.1C25.7388 69.3933 26.1121 69.54 26.5655 69.54ZM37.7911 62.22C37.7911 61.34 37.5311 60.6333 37.0111 60.1C36.5044 59.5667 35.8044 59.3 34.9111 59.3C34.0844 59.3 33.3978 59.5533 32.8511 60.06C32.3178 60.5533 32.0044 61.24 31.9111 62.12H30.0911C30.1844 61.0533 30.6578 60.2 31.5111 59.56C32.3778 58.92 33.5111 58.6 34.9111 58.6C36.3644 58.6 37.5244 58.9467 38.3911 59.64C39.2711 60.3333 39.7111 61.28 39.7111 62.48V70H37.7911V62.22ZM42.6402 68.94C42.6402 67.5667 42.5802 66.36 42.4602 65.32C42.3668 64.52 42.3202 63.8 42.3202 63.16C42.3202 62.24 42.5535 61.44 43.0202 60.76C43.5002 60.0667 44.1735 59.5333 45.0402 59.16C45.9068 58.7867 46.9268 58.6 48.1002 58.6C49.2202 58.6 50.2002 58.76 51.0402 59.08C51.8935 59.4 52.5468 59.8533 53.0002 60.44C53.4668 61.0267 53.7002 61.7067 53.7002 62.48V70H51.7802V62.3C51.7802 61.3933 51.4402 60.6667 50.7602 60.12C50.0935 59.5733 49.2002 59.3 48.0802 59.3C46.8668 59.3 45.9202 59.6267 45.2402 60.28C44.5735 60.9333 44.2402 61.8467 44.2402 63.02C44.2402 63.4733 44.2735 64.1867 44.3402 65.16C44.4335 66.4533 44.4802 67.7467 44.4802 69.04C45.4802 68.6267 46.3668 68.1333 47.1402 67.56C47.9135 66.9867 48.5002 66.3867 48.9002 65.76C48.6335 65.9067 48.3468 65.98 48.0402 65.98C47.3602 65.98 46.8002 65.78 46.3602 65.38C45.9335 64.9667 45.7202 64.44 45.7202 63.8C45.7202 63.1467 45.9335 62.62 46.3602 62.22C46.8002 61.8067 47.3535 61.6 48.0202 61.6C48.7002 61.6 49.2602 61.8267 49.7002 62.28C50.1402 62.72 50.3602 63.2867 50.3602 63.98C50.3602 64.7133 50.1002 65.4667 49.5802 66.24C49.0602 67 48.3402 67.7133 47.4202 68.38C46.5002 69.0333 45.4602 69.5733 44.3002 70H42.6402V68.94ZM48.0202 65.36C48.4868 65.36 48.8668 65.2133 49.1602 64.92C49.4535 64.6267 49.6002 64.2533 49.6002 63.8C49.6002 63.3467 49.4535 62.9733 49.1602 62.68C48.8668 62.3867 48.4868 62.24 48.0202 62.24C47.5535 62.24 47.1735 62.3867 46.8802 62.68C46.5868 62.9733 46.4402 63.3467 46.4402 63.8C46.4402 64.2533 46.5868 64.6267 46.8802 64.92C47.1735 65.2133 47.5535 65.36 48.0202 65.36ZM60.0645 70.2C59.1845 70.2 58.4845 69.96 57.9645 69.48C57.4445 69 57.1845 68.3 57.1845 67.38V58.8H59.1045V66.26C59.2379 66.1267 59.4179 66.02 59.6445 65.94C59.8712 65.86 60.1179 65.82 60.3845 65.82C61.0512 65.82 61.5845 66.02 61.9845 66.42C62.3979 66.82 62.6045 67.3467 62.6045 68C62.6045 68.6667 62.3712 69.2 61.9045 69.6C61.4379 70 60.8245 70.2 60.0645 70.2ZM60.3045 69.56C60.7579 69.56 61.1312 69.42 61.4245 69.14C61.7179 68.8467 61.8645 68.4733 61.8645 68.02C61.8645 67.5533 61.7179 67.18 61.4245 66.9C61.1445 66.6067 60.7712 66.46 60.3045 66.46C59.8512 66.46 59.4779 66.6067 59.1845 66.9C58.9045 67.1933 58.7645 67.5667 58.7645 68.02C58.7645 68.4733 58.9045 68.8467 59.1845 69.14C59.4779 69.42 59.8512 69.56 60.3045 69.56ZM67.75 70.2C66.8167 70.2 66.07 69.8867 65.51 69.26C64.95 68.6333 64.67 67.8067 64.67 66.78C64.67 65.8733 64.87 65.0733 65.27 64.38C65.6833 63.6867 66.2633 63.1533 67.01 62.78C67.7567 62.3933 68.6167 62.2 69.59 62.2C70.55 62.2 71.3967 62.4533 72.13 62.96C72.8633 63.4533 73.41 64.1533 73.77 65.06V62.32C73.77 61.4 73.4433 60.6733 72.79 60.14C72.1367 59.5933 71.2567 59.32 70.15 59.32C69.0833 59.32 68.19 59.5667 67.47 60.06C66.75 60.54 66.3167 61.1867 66.17 62H64.35C64.5367 60.9733 65.1567 60.1533 66.21 59.54C67.2633 58.9133 68.5767 58.6 70.15 58.6C71.27 58.6 72.2433 58.76 73.07 59.08C73.91 59.4 74.5567 59.8533 75.01 60.44C75.4633 61.0133 75.69 61.6933 75.69 62.48V70H73.77V69.8C73.77 67.64 73.41 65.96 72.69 64.76C71.97 63.5467 70.9633 62.94 69.67 62.94C68.8033 62.94 68.0767 63.2467 67.49 63.86C66.9167 64.4733 66.6033 65.2867 66.55 66.3C66.6567 66.1667 66.8433 66.0533 67.11 65.96C67.3767 65.8667 67.6433 65.82 67.91 65.82C68.5767 65.82 69.1233 66.0267 69.55 66.44C69.99 66.8533 70.21 67.38 70.21 68.02C70.21 68.66 69.9767 69.1867 69.51 69.6C69.0567 70 68.47 70.2 67.75 70.2ZM67.89 69.56C68.3567 69.56 68.73 69.42 69.01 69.14C69.3033 68.86 69.45 68.4867 69.45 68.02C69.45 67.5533 69.3033 67.18 69.01 66.9C68.73 66.6067 68.3567 66.46 67.89 66.46C67.4233 66.46 67.05 66.6067 66.77 66.9C66.49 67.18 66.35 67.5533 66.35 68.02C66.35 68.4733 66.49 68.8467 66.77 69.14C67.0633 69.42 67.4367 69.56 67.89 69.56ZM73.4419 53.34C73.9085 53.34 74.2885 53.4867 74.5819 53.78C74.8752 54.0733 75.0219 54.4533 75.0219 54.92C75.0219 55.5467 74.8085 56.06 74.3819 56.46C73.9419 56.8467 73.3552 57.04 72.6219 57.04C72.0885 57.04 71.6285 56.9533 71.2419 56.78C70.8419 56.5933 70.5485 56.3333 70.3619 56C70.1619 56.3333 69.8952 56.5933 69.5619 56.78C69.2152 56.9533 68.8152 57.04 68.3619 57.04C67.6419 57.04 67.0819 56.84 66.6819 56.44C66.2819 56.0267 66.0819 55.5067 66.0819 54.88C66.0819 54.1467 66.2819 53.6 66.6819 53.24C67.0819 52.88 67.5819 52.6533 68.1819 52.56C68.7819 52.4533 69.5285 52.4 70.4219 52.4C71.4885 52.4 72.2885 52.3133 72.8219 52.14C73.3419 51.9533 73.6019 51.56 73.6019 50.96H75.1819C75.1685 51.5467 74.9819 51.9867 74.6219 52.28C74.2485 52.5733 73.7952 52.7667 73.2619 52.86C72.7285 52.94 72.0419 52.9867 71.2019 53C70.4152 53.0133 69.7819 53.06 69.3019 53.14C68.8085 53.22 68.4085 53.3933 68.1019 53.66C67.7952 53.9133 67.6419 54.3067 67.6419 54.84C67.6419 55.2533 67.7552 55.5867 67.9819 55.84C68.2085 56.08 68.5019 56.2 68.8619 56.2C69.1552 56.2 69.4019 56.12 69.6019 55.96C69.8019 55.7867 69.9285 55.56 69.9819 55.28H70.7619C70.8285 55.6133 71.0285 55.8867 71.3619 56.1C71.6819 56.3 72.0819 56.4 72.5619 56.4C73.1485 56.4 73.5952 56.2667 73.9019 56C73.7419 56.04 73.5819 56.06 73.4219 56.06C73.0085 56.06 72.6752 55.9333 72.4219 55.68C72.1552 55.4267 72.0219 55.0933 72.0219 54.68C72.0219 54.2933 72.1552 53.9733 72.4219 53.72C72.6885 53.4667 73.0285 53.34 73.4419 53.34ZM72.5619 54.68C72.5619 54.9333 72.6419 55.1467 72.8019 55.32C72.9619 55.48 73.1685 55.56 73.4219 55.56C73.6752 55.56 73.8885 55.48 74.0619 55.32C74.2219 55.1467 74.3019 54.9333 74.3019 54.68C74.3019 54.4267 74.2219 54.22 74.0619 54.06C73.8885 53.9 73.6752 53.82 73.4219 53.82C73.1685 53.82 72.9619 53.9 72.8019 54.06C72.6419 54.22 72.5619 54.4267 72.5619 54.68ZM78.5967 65.56C78.5967 64.9333 78.7367 64.4067 79.0167 63.98C79.3101 63.5533 79.7301 63.2467 80.2767 63.06H77.9767C78.0167 62.1533 78.2767 61.3667 78.7567 60.7C79.2367 60.02 79.8967 59.5 80.7367 59.14C81.5767 58.78 82.5434 58.6 83.6367 58.6C84.6901 58.6 85.6167 58.76 86.4167 59.08C87.2167 59.4 87.8301 59.86 88.2567 60.46C88.6967 61.0467 88.9167 61.7267 88.9167 62.5V70H86.9967V62.3C86.9967 61.3667 86.6901 60.6333 86.0767 60.1C85.4767 59.5667 84.6567 59.3 83.6167 59.3C82.5234 59.3 81.6367 59.5733 80.9567 60.12C80.2767 60.6533 79.8967 61.3933 79.8167 62.34H82.4367V62.98C81.7701 63.1133 81.2834 63.3533 80.9767 63.7C80.6701 64.0467 80.5167 64.54 80.5167 65.18V70H78.5967V65.56Z" fill="#DE5850"/>
<path d="M9.63711 118V90.6L4.43711 91.5V86.95L15.0371 85.3V118H9.63711ZM25.6039 118V90.6L20.4039 91.5V86.95L31.0039 85.3V118H25.6039ZM48.9707 118.5C40.5707 118.5 36.3707 115.433 36.3707 109.3C36.3707 107.467 36.854 105.833 37.8207 104.4C38.8207 102.967 40.2374 101.95 42.0707 101.35C40.404 100.717 39.1874 99.7833 38.4207 98.55C37.654 97.2833 37.2707 95.9333 37.2707 94.5C37.2707 91.7333 38.2207 89.5167 40.1207 87.85C42.054 86.15 45.004 85.3 48.9707 85.3C53.0374 85.3 56.004 86.15 57.8707 87.85C59.7374 89.5167 60.6707 91.7333 60.6707 94.5C60.6707 96.0333 60.2874 97.4667 59.5207 98.8C58.7874 100.1 57.4874 101.1 55.6207 101.8C57.6874 102.4 59.1874 103.333 60.1207 104.6C61.054 105.833 61.5207 107.4 61.5207 109.3C61.5207 115.433 57.3374 118.5 48.9707 118.5ZM50.3207 100.1C52.154 99.6333 53.4874 99 54.3207 98.2C55.1874 97.4 55.6207 96.2 55.6207 94.6C55.6207 91.2667 53.404 89.6 48.9707 89.6C46.804 89.6 45.154 90 44.0207 90.8C42.8874 91.6 42.3207 92.8667 42.3207 94.6C42.3207 97.2333 43.804 98.8333 46.7707 99.4L50.3207 100.1ZM48.9707 114.25C51.4707 114.25 53.3374 113.85 54.5707 113.05C55.8374 112.217 56.4707 110.933 56.4707 109.2C56.4707 107.633 56.0207 106.5 55.1207 105.8C54.254 105.067 52.904 104.517 51.0707 104.15L46.9707 103.3C45.2707 103.667 43.9207 104.283 42.9207 105.15C41.9207 105.983 41.4207 107.3 41.4207 109.1C41.4207 110.9 42.054 112.217 43.3207 113.05C44.6207 113.85 46.504 114.25 48.9707 114.25Z" fill="#DE5850"/>
<path d="M76.129 117.2C75.249 117.2 74.549 116.96 74.029 116.48C73.509 116 73.249 115.3 73.249 114.38V105.8H75.169V113.26C75.3023 113.127 75.4823 113.02 75.709 112.94C75.9357 112.86 76.1823 112.82 76.449 112.82C77.1157 112.82 77.649 113.02 78.049 113.42C78.4623 113.82 78.669 114.347 78.669 115C78.669 115.667 78.4357 116.2 77.969 116.6C77.5023 117 76.889 117.2 76.129 117.2ZM82.689 117.2C81.7957 117.2 81.089 116.96 80.569 116.48C80.049 116 79.789 115.3 79.789 114.38V105.8H81.729V113.26C81.849 113.14 82.0223 113.04 82.249 112.96C82.4757 112.867 82.7223 112.82 82.989 112.82C83.6557 112.82 84.189 113.02 84.589 113.42C85.0023 113.82 85.209 114.347 85.209 115C85.209 115.667 84.9757 116.2 84.509 116.6C84.0557 117 83.449 117.2 82.689 117.2ZM76.369 116.56C76.8223 116.56 77.1957 116.42 77.489 116.14C77.7823 115.847 77.929 115.473 77.929 115.02C77.929 114.553 77.7823 114.18 77.489 113.9C77.209 113.607 76.8357 113.46 76.369 113.46C75.9157 113.46 75.5423 113.607 75.249 113.9C74.969 114.193 74.829 114.567 74.829 115.02C74.829 115.473 74.969 115.847 75.249 116.14C75.5423 116.42 75.9157 116.56 76.369 116.56ZM82.929 116.56C83.3823 116.56 83.7557 116.42 84.049 116.14C84.3423 115.847 84.489 115.473 84.489 115.02C84.489 114.553 84.3423 114.18 84.049 113.9C83.769 113.607 83.3957 113.46 82.929 113.46C82.4757 113.46 82.1023 113.607 81.809 113.9C81.5157 114.193 81.369 114.567 81.369 115.02C81.369 115.473 81.5157 115.847 81.809 116.14C82.1023 116.42 82.4757 116.56 82.929 116.56ZM98.197 109.74C98.5436 109.94 98.8103 110.2 98.997 110.52C99.197 110.827 99.297 111.18 99.297 111.58V117H97.377V111.24C97.377 110.88 97.2303 110.58 96.937 110.34C96.6436 110.1 96.2836 109.98 95.857 109.98C95.1636 109.98 94.477 110.187 93.797 110.6C93.1303 111.013 92.577 111.547 92.137 112.2C91.7103 112.853 91.497 113.513 91.497 114.18V117H89.577V109.54C89.457 109.66 89.277 109.767 89.037 109.86C88.8103 109.94 88.5703 109.98 88.317 109.98C87.6503 109.98 87.1103 109.78 86.697 109.38C86.2836 108.98 86.077 108.453 86.077 107.8C86.077 107.147 86.3103 106.62 86.777 106.22C87.2436 105.807 87.857 105.6 88.617 105.6C89.5236 105.6 90.2303 105.847 90.737 106.34C91.2436 106.833 91.497 107.527 91.497 108.42V111.92C91.8303 111.267 92.3836 110.7 93.157 110.22C93.9303 109.727 94.7503 109.427 95.617 109.32C95.1503 108.92 94.917 108.393 94.917 107.74C94.917 107.113 95.137 106.6 95.577 106.2C96.017 105.8 96.5903 105.6 97.297 105.6C98.0036 105.6 98.577 105.8 99.017 106.2C99.457 106.6 99.677 107.113 99.677 107.74C99.677 108.22 99.5436 108.64 99.277 109C99.0103 109.347 98.6503 109.593 98.197 109.74ZM97.297 106.22C96.8303 106.22 96.4503 106.36 96.157 106.64C95.877 106.92 95.737 107.287 95.737 107.74C95.737 108.193 95.877 108.56 96.157 108.84C96.4503 109.12 96.8303 109.26 97.297 109.26C97.7636 109.26 98.137 109.12 98.417 108.84C98.7103 108.56 98.857 108.193 98.857 107.74C98.857 107.287 98.7103 106.92 98.417 106.64C98.137 106.36 97.7636 106.22 97.297 106.22ZM88.377 109.34C88.8436 109.34 89.217 109.193 89.497 108.9C89.7903 108.607 89.937 108.233 89.937 107.78C89.937 107.327 89.7903 106.96 89.497 106.68C89.2036 106.387 88.8303 106.24 88.377 106.24C87.9236 106.24 87.5503 106.387 87.257 106.68C86.9636 106.96 86.817 107.327 86.817 107.78C86.817 108.233 86.9636 108.607 87.257 108.9C87.5503 109.193 87.9236 109.34 88.377 109.34ZM97.5188 99.52H99.2788V103.76H97.5188V99.52ZM104.959 117C104.745 115.667 104.279 114.38 103.559 113.14C102.839 111.9 101.985 110.907 100.999 110.16L102.479 109.1C103.399 109.7 104.212 110.627 104.919 111.88C105.625 113.12 106.139 114.547 106.459 116.16H109.439V109.56C109.305 109.693 109.125 109.8 108.899 109.88C108.672 109.947 108.425 109.98 108.159 109.98C107.492 109.98 106.952 109.78 106.539 109.38C106.125 108.98 105.919 108.453 105.919 107.8C105.919 107.147 106.152 106.62 106.619 106.22C107.085 105.807 107.705 105.6 108.479 105.6C109.385 105.6 110.092 105.847 110.599 106.34C111.105 106.833 111.359 107.527 111.359 108.42V117H104.959ZM108.219 109.34C108.685 109.34 109.059 109.193 109.339 108.9C109.632 108.607 109.779 108.233 109.779 107.78C109.779 107.327 109.632 106.96 109.339 106.68C109.045 106.387 108.672 106.24 108.219 106.24C107.765 106.24 107.392 106.387 107.099 106.68C106.819 106.96 106.679 107.327 106.679 107.78C106.679 108.233 106.819 108.607 107.099 108.9C107.392 109.193 107.765 109.34 108.219 109.34Z" fill="black"/>
</svg>
