<svg width="698" height="431" viewBox="0 0 698 431" fill="none" xmlns="http://www.w3.org/2000/svg">
<rect x="349" y="286" width="285" height="41" fill="#F4CC2D"/>
<path d="M342.45 1.8C339.85 3.9 337.7 6.75 336 10.35C334.4 13.85 333.65 17.45 333.75 21.15C334.75 20.55 335.85 20.25 337.05 20.25C339.35 20.25 341.15 20.95 342.45 22.35C343.85 23.65 344.55 25.45 344.55 27.75C344.55 30.05 343.8 31.95 342.3 33.45C340.9 34.85 338.95 35.55 336.45 35.55C333.65 35.55 331.45 34.55 329.85 32.55C328.25 30.45 327.45 27.55 327.45 23.85C327.45 19.15 328.65 14.55 331.05 10.05C333.45 5.55 336.5 2.2 340.2 0L342.45 1.8ZM367.8 1.8C365.2 3.9 363.05 6.75 361.35 10.35C359.75 13.85 359 17.45 359.1 21.15C360.1 20.55 361.2 20.25 362.4 20.25C364.7 20.25 366.5 20.95 367.8 22.35C369.2 23.65 369.9 25.45 369.9 27.75C369.9 30.05 369.15 31.95 367.65 33.45C366.25 34.85 364.3 35.55 361.8 35.55C359 35.55 356.8 34.55 355.2 32.55C353.6 30.45 352.8 27.55 352.8 23.85C352.8 19.15 354 14.55 356.4 10.05C358.8 5.55 361.85 2.2 365.55 0L367.8 1.8Z" fill="black"/>
<path d="M329.55 428.25C332.15 426.15 334.25 423.35 335.85 419.85C337.55 416.25 338.35 412.6 338.25 408.9C337.25 409.5 336.15 409.8 334.95 409.8C332.75 409.8 330.95 409.1 329.55 407.7C328.15 406.3 327.45 404.5 327.45 402.3C327.45 400 328.15 398.15 329.55 396.75C331.05 395.25 333.05 394.5 335.55 394.5C338.35 394.5 340.55 395.55 342.15 397.65C343.75 399.65 344.55 402.5 344.55 406.2C344.55 410.9 343.35 415.5 340.95 420C338.55 424.5 335.5 427.85 331.8 430.05L329.55 428.25ZM354.9 428.25C357.5 426.15 359.6 423.35 361.2 419.85C362.9 416.25 363.7 412.6 363.6 408.9C362.6 409.5 361.5 409.8 360.3 409.8C358.1 409.8 356.3 409.1 354.9 407.7C353.5 406.3 352.8 404.5 352.8 402.3C352.8 400 353.5 398.15 354.9 396.75C356.4 395.25 358.4 394.5 360.9 394.5C363.7 394.5 365.9 395.55 367.5 397.65C369.1 399.65 369.9 402.5 369.9 406.2C369.9 410.9 368.7 415.5 366.3 420C363.9 424.5 360.85 427.85 357.15 430.05L354.9 428.25Z" fill="black"/>
<path d="M78.2991 131C77.0991 131 76.1524 130.627 75.4591 129.88C74.7657 129.133 74.4191 128.16 74.4191 126.96V123.2C74.4191 122.027 74.6457 121 75.0991 120.12C75.5524 119.213 76.3791 118.587 77.5791 118.24L73.2591 117.16V112.68C74.3257 111.747 75.7257 110.907 77.4591 110.16C79.2191 109.387 81.2724 109 83.6191 109C86.7924 109 89.2324 109.667 90.9391 111C92.6457 112.307 93.4991 114.507 93.4991 117.6V131H89.1391V117.48C89.1391 115.64 88.6991 114.36 87.8191 113.64C86.9657 112.893 85.5124 112.52 83.4591 112.52C82.1257 112.52 80.8857 112.707 79.7391 113.08C78.5924 113.453 77.6857 113.947 77.0191 114.56V115.28L81.5791 116.44V119.32C80.5391 119.587 79.8057 120.013 79.3791 120.6C78.9524 121.187 78.7391 122.067 78.7391 123.24V125.84C78.7391 126.453 78.8724 126.893 79.1391 127.16C79.4057 127.427 79.8324 127.56 80.4191 127.56H82.6191V131H78.2991ZM76.8303 106.12L77.0303 103.08H86.9503C86.9236 102.973 86.9103 102.853 86.9103 102.72C86.8836 102.56 86.8703 102.387 86.8703 102.2C86.8703 101.427 87.177 100.72 87.7903 100.08C88.4036 99.44 89.2836 99.12 90.4303 99.12C91.7103 99.12 92.6436 99.48 93.2303 100.2C93.7903 100.893 94.0703 101.667 94.0703 102.52C94.0703 103.507 93.7503 104.36 93.1103 105.08C92.4703 105.773 91.5236 106.12 90.2703 106.12H76.8303ZM90.4703 104.08C90.9503 104.08 91.337 103.933 91.6303 103.64C91.897 103.347 92.0303 102.987 92.0303 102.56C92.0303 102.107 91.8836 101.733 91.5903 101.44C91.297 101.12 90.9236 100.96 90.4703 100.96C90.0436 100.96 89.6836 101.107 89.3903 101.4C89.0703 101.693 88.9103 102.08 88.9103 102.56C88.9103 102.987 89.057 103.347 89.3503 103.64C89.6436 103.933 90.017 104.08 90.4703 104.08ZM107.07 131.4C106.457 131.4 105.777 131.36 105.03 131.28C104.284 131.2 103.63 131.067 103.07 130.88L96.9903 116.08H101.23L106.15 128.08C108.444 128.187 110.11 127.533 111.15 126.12C112.19 124.68 112.71 122.48 112.71 119.52C112.71 117.787 112.55 116.427 112.23 115.44C111.91 114.427 111.364 113.72 110.59 113.32C109.844 112.893 108.804 112.68 107.47 112.68H105.95V109.4H108.03C111.124 109.4 113.377 110.227 114.79 111.88C116.204 113.533 116.91 116.067 116.91 119.48C116.91 122.307 116.484 124.6 115.63 126.36C114.777 128.093 113.604 129.373 112.11 130.2C110.644 131 108.964 131.4 107.07 131.4ZM135.088 131C133.622 131 132.555 130.64 131.888 129.92C131.222 129.2 130.888 128.173 130.888 126.84V109.4H135.208V125.76C135.208 126.96 135.795 127.56 136.968 127.56H138.608V131H135.088ZM125.368 131C123.928 131 122.862 130.64 122.168 129.92C121.502 129.2 121.168 128.173 121.168 126.84V109.4H125.528V125.76C125.528 126.96 126.115 127.56 127.288 127.56H128.888V131H125.368ZM154.608 131.4C152.981 131.4 151.555 131.147 150.328 130.64C149.128 130.133 148.035 129.467 147.048 128.64L146.808 131H142.848V109.4H147.208V125.32C147.901 126.067 148.768 126.693 149.808 127.2C150.848 127.68 151.968 127.92 153.168 127.92C154.661 127.92 155.781 127.573 156.528 126.88C157.275 126.16 157.648 124.987 157.648 123.36V109.4H161.968V123.56C161.968 126.067 161.315 128 160.008 129.36C158.701 130.72 156.901 131.4 154.608 131.4ZM152.827 106.12V102.44H149.667V99.44H155.827V103.08H164.467L164.307 106.12H152.827ZM172.427 131.4C169.947 131.4 167.787 131 165.947 130.2V126.76C166.747 127.107 167.614 127.387 168.547 127.6C169.507 127.813 170.454 127.92 171.387 127.92C173.2 127.92 174.64 127.667 175.707 127.16C176.774 126.653 177.534 125.84 177.987 124.72C178.467 123.573 178.707 122.067 178.707 120.2C178.707 117.427 178.134 115.453 176.987 114.28C175.867 113.107 173.987 112.52 171.347 112.52C170.387 112.52 169.454 112.627 168.547 112.84C167.64 113.027 166.774 113.307 165.947 113.68V110.2C166.854 109.827 167.827 109.533 168.867 109.32C169.934 109.107 171.08 109 172.307 109C175.88 109 178.534 109.96 180.267 111.88C182.027 113.773 182.907 116.547 182.907 120.2C182.907 123.827 182.067 126.6 180.387 128.52C178.734 130.44 176.08 131.4 172.427 131.4ZM177.51 106.08V99.52H181.87V106.08H177.51ZM195.11 131V117.4C195.11 116.307 194.99 115.4 194.75 114.68C194.51 113.96 194.056 113.427 193.39 113.08C192.723 112.707 191.736 112.52 190.43 112.52C189.576 112.52 188.643 112.613 187.63 112.8C186.643 112.987 185.75 113.24 184.95 113.56V110.2C185.75 109.853 186.71 109.573 187.83 109.36C188.976 109.12 190.123 109 191.27 109C194.15 109 196.23 109.627 197.51 110.88C198.816 112.133 199.47 114.12 199.47 116.84V131H195.11ZM213.167 131.4C212.66 131.4 212.06 131.347 211.367 131.24C210.7 131.16 210.154 131.04 209.727 130.88L206.527 122.36H203.767L203.967 119.08H209.287L212.607 127.96C213.807 128.013 214.874 127.787 215.807 127.28C216.767 126.773 217.514 125.933 218.047 124.76C218.607 123.56 218.887 121.973 218.887 120C218.887 118.133 218.634 116.653 218.127 115.56C217.647 114.467 216.834 113.693 215.687 113.24C214.567 112.76 213.034 112.52 211.087 112.52C210.02 112.52 208.887 112.6 207.687 112.76C206.487 112.92 205.34 113.187 204.247 113.56V110.2C205.314 109.853 206.527 109.573 207.887 109.36C209.274 109.12 210.727 109 212.247 109C216.06 109 218.82 109.947 220.527 111.84C222.234 113.733 223.087 116.453 223.087 120C223.087 122.48 222.62 124.573 221.687 126.28C220.78 127.96 219.58 129.24 218.087 130.12C216.594 130.973 214.954 131.4 213.167 131.4ZM226.54 117.76V112.56H230.26V114.52H236.14L235.98 117.76H226.54ZM226.54 128.64V123.44H230.26V125.44H236.14L235.98 128.64H226.54ZM244.589 131C243.122 131 242.056 130.64 241.389 129.92C240.722 129.2 240.389 128.173 240.389 126.84V109.4H244.709V125.76C244.709 126.96 245.296 127.56 246.469 127.56H248.309V131H244.589ZM262.455 131.4C259.361 131.4 256.935 130.667 255.175 129.2C253.441 127.733 252.575 125.533 252.575 122.6V109.4H256.935V122.76C256.935 124.547 257.401 125.853 258.335 126.68C259.295 127.507 260.668 127.92 262.455 127.92C264.268 127.92 265.641 127.507 266.575 126.68C267.535 125.853 268.015 124.547 268.015 122.76V103H272.335V122.6C272.335 125.533 271.468 127.733 269.735 129.2C268.001 130.667 265.575 131.4 262.455 131.4ZM256.978 106.24C255.432 106.24 254.218 105.84 253.338 105.04C252.432 104.24 251.978 103.107 251.978 101.64C251.978 100.173 252.445 99 253.378 98.12C254.312 97.24 255.632 96.8 257.338 96.8H266.138L265.938 99.36H257.738C256.832 99.36 256.152 99.5333 255.698 99.88C255.245 100.227 255.018 100.813 255.018 101.64C255.018 103.053 255.765 103.76 257.258 103.76C258.032 103.76 258.578 103.613 258.898 103.32C259.192 103 259.338 102.587 259.338 102.08V101.24H262.018V102.08C262.018 102.667 262.178 103.08 262.498 103.32C262.792 103.533 263.245 103.64 263.858 103.64H265.418V106.16H263.578C262.938 106.16 262.352 106.067 261.818 105.88C261.258 105.667 260.872 105.347 260.658 104.92C260.392 105.347 259.885 105.68 259.138 105.92C258.392 106.133 257.672 106.24 256.978 106.24ZM284.778 131.4C282.458 131.4 280.645 130.72 279.338 129.36C278.058 128 277.418 126.067 277.418 123.56V109.4H281.778V123.36C281.778 124.987 282.138 126.16 282.858 126.88C283.578 127.573 284.698 127.92 286.218 127.92C287.392 127.92 288.512 127.68 289.578 127.2C290.645 126.693 291.525 126.067 292.218 125.32V109.4H296.538V131H292.578L292.378 128.64C291.392 129.467 290.272 130.133 289.018 130.64C287.792 131.147 286.378 131.4 284.778 131.4ZM301.637 131V117.32C301.637 114.707 302.424 112.667 303.997 111.2C305.571 109.733 308.051 109 311.437 109C314.851 109 317.317 109.733 318.837 111.2C320.384 112.667 321.157 114.707 321.157 117.32V131H316.797V116.92C316.797 115.4 316.331 114.293 315.397 113.6C314.464 112.88 313.144 112.52 311.437 112.52C309.651 112.52 308.291 112.88 307.357 113.6C306.451 114.293 305.997 115.4 305.997 116.92V121.36C307.171 120.4 308.571 119.92 310.197 119.92H312.797L312.957 123.4H310.077C308.451 123.4 307.091 123.853 305.997 124.76V131H301.637ZM333.327 131.4C331.913 131.4 330.54 131.307 329.207 131.12C327.9 130.933 326.82 130.667 325.967 130.32V126.68C326.98 127.08 328.073 127.387 329.247 127.6C330.447 127.813 331.54 127.92 332.527 127.92C334.367 127.92 335.727 127.76 336.607 127.44C337.487 127.093 337.927 126.387 337.927 125.32C337.927 124.547 337.7 123.96 337.247 123.56C336.793 123.16 336.127 122.813 335.247 122.52C334.367 122.2 333.273 121.827 331.967 121.4C330.74 120.973 329.633 120.507 328.647 120C327.66 119.493 326.873 118.853 326.287 118.08C325.727 117.307 325.447 116.333 325.447 115.16C325.447 113.267 326.167 111.773 327.607 110.68C329.047 109.56 331.22 109 334.127 109C335.353 109 336.567 109.093 337.767 109.28C338.967 109.467 339.953 109.693 340.727 109.96V113.56C339.847 113.213 338.86 112.96 337.767 112.8C336.7 112.613 335.7 112.52 334.767 112.52C333.22 112.52 331.98 112.693 331.047 113.04C330.113 113.36 329.647 114.027 329.647 115.04C329.647 115.707 329.887 116.24 330.367 116.64C330.847 117.013 331.527 117.36 332.407 117.68C333.313 117.973 334.393 118.333 335.647 118.76C337.06 119.213 338.247 119.72 339.207 120.28C340.167 120.813 340.887 121.48 341.367 122.28C341.873 123.053 342.127 124.067 342.127 125.32C342.127 127.427 341.327 128.973 339.727 129.96C338.153 130.92 336.02 131.4 333.327 131.4ZM354.563 131V117.4C354.563 116.307 354.443 115.4 354.203 114.68C353.963 113.96 353.509 113.427 352.843 113.08C352.176 112.707 351.189 112.52 349.883 112.52C349.029 112.52 348.096 112.613 347.083 112.8C346.096 112.987 345.203 113.24 344.403 113.56V110.2C345.203 109.853 346.163 109.573 347.283 109.36C348.429 109.12 349.576 109 350.723 109C353.603 109 355.683 109.627 356.963 110.88C358.269 112.133 358.923 114.12 358.923 116.84V131H354.563ZM367.9 131L362.9 109.4H367.18L370.38 124.84L374.3 112.48V109.4H377.42L381.78 124.84L386.14 103H390.38L384.18 131H380.18L376.18 117.24L371.86 131H367.9ZM401.083 131.4C399.403 131.4 397.897 131.027 396.563 130.28C395.23 129.533 394.177 128.36 393.403 126.76C392.63 125.133 392.243 123.053 392.243 120.52C392.243 116.787 392.87 113.933 394.123 111.96C395.377 109.987 397.123 109 399.363 109C400.457 109 401.323 109.2 401.963 109.6C402.63 109.973 403.203 110.467 403.683 111.08C404.243 110.467 404.977 109.973 405.883 109.6C406.79 109.2 407.71 109 408.643 109C410.377 109 411.67 109.52 412.523 110.56C413.377 111.573 413.803 112.987 413.803 114.8V131H409.443V115.44C409.443 114.427 409.297 113.693 409.003 113.24C408.737 112.76 408.177 112.52 407.323 112.52C406.79 112.52 406.297 112.667 405.843 112.96C405.39 113.253 405.057 113.72 404.843 114.36H402.443C402.123 113.72 401.79 113.253 401.443 112.96C401.097 112.667 400.603 112.52 399.963 112.52C398.577 112.52 397.643 113.253 397.163 114.72C396.683 116.187 396.443 118.12 396.443 120.52C396.443 123.267 396.91 125.187 397.843 126.28C398.777 127.373 400.11 127.92 401.843 127.92C402.35 127.92 402.843 127.893 403.323 127.84C403.83 127.787 404.257 127.707 404.603 127.6V130.92C404.15 131.08 403.643 131.2 403.083 131.28C402.523 131.36 401.857 131.4 401.083 131.4ZM404.343 106.12V100.28H416.103L415.943 103.32H407.943V106.12H404.343ZM423.183 131C421.716 131 420.649 130.64 419.983 129.92C419.316 129.2 418.983 128.173 418.983 126.84V109.4H423.303V125.76C423.303 126.96 423.889 127.56 425.063 127.56H426.903V131H423.183ZM441.048 131.4C437.955 131.4 435.528 130.667 433.768 129.2C432.035 127.733 431.168 125.533 431.168 122.6V109.4H435.528V122.76C435.528 124.547 435.995 125.853 436.928 126.68C437.888 127.507 439.262 127.92 441.048 127.92C442.862 127.92 444.235 127.507 445.168 126.68C446.128 125.853 446.608 124.547 446.608 122.76V109.4H450.928V122.6C450.928 125.533 450.062 127.733 448.328 129.2C446.595 130.667 444.168 131.4 441.048 131.4ZM434.252 106.12L434.452 103.08H447.332V99.76H450.932V106.12H434.252ZM465.052 131.4C463.132 131.4 461.426 131.173 459.932 130.72C458.439 130.267 457.252 129.547 456.372 128.56C455.519 127.573 455.092 126.267 455.092 124.64C455.092 123.547 455.346 122.587 455.852 121.76C456.359 120.907 457.106 120.24 458.092 119.76C457.266 119.44 456.572 118.893 456.012 118.12C455.479 117.347 455.212 116.387 455.212 115.24C455.212 113.187 455.839 111.64 457.092 110.6C458.372 109.533 459.999 109 461.972 109C462.746 109 463.412 109.053 463.972 109.16C464.532 109.24 465.039 109.36 465.492 109.52V112.84C464.719 112.627 463.812 112.52 462.772 112.52C461.706 112.52 460.879 112.733 460.292 113.16C459.706 113.587 459.412 114.28 459.412 115.24C459.412 116.253 459.746 116.987 460.412 117.44C461.079 117.867 461.999 118.08 463.172 118.08H465.452L465.652 121.32H463.092C460.559 121.32 459.292 122.427 459.292 124.64C459.292 125.733 459.746 126.56 460.652 127.12C461.559 127.653 462.959 127.92 464.852 127.92C468.612 127.92 470.492 126.387 470.492 123.32V109.4H474.812V122.8C474.812 125.707 473.999 127.867 472.372 129.28C470.746 130.693 468.306 131.4 465.052 131.4ZM486.959 131.4C485.546 131.4 484.173 131.307 482.839 131.12C481.533 130.933 480.453 130.667 479.599 130.32V126.68C480.613 127.08 481.706 127.387 482.879 127.6C484.079 127.813 485.173 127.92 486.159 127.92C487.999 127.92 489.359 127.76 490.239 127.44C491.119 127.093 491.559 126.387 491.559 125.32C491.559 124.547 491.333 123.96 490.879 123.56C490.426 123.16 489.759 122.813 488.879 122.52C487.999 122.2 486.906 121.827 485.599 121.4C484.373 120.973 483.266 120.507 482.279 120C481.293 119.493 480.506 118.853 479.919 118.08C479.359 117.307 479.079 116.333 479.079 115.16C479.079 113.267 479.799 111.773 481.239 110.68C482.679 109.56 484.853 109 487.759 109C488.986 109 490.199 109.093 491.399 109.28C492.599 109.467 493.586 109.693 494.359 109.96V113.56C493.479 113.213 492.493 112.96 491.399 112.8C490.333 112.613 489.333 112.52 488.399 112.52C486.853 112.52 485.613 112.693 484.679 113.04C483.746 113.36 483.279 114.027 483.279 115.04C483.279 115.707 483.519 116.24 483.999 116.64C484.479 117.013 485.159 117.36 486.039 117.68C486.946 117.973 488.026 118.333 489.279 118.76C490.693 119.213 491.879 119.72 492.839 120.28C493.799 120.813 494.519 121.48 494.999 122.28C495.506 123.053 495.759 124.067 495.759 125.32C495.759 127.427 494.959 128.973 493.359 129.96C491.786 130.92 489.653 131.4 486.959 131.4ZM485.476 106.12V100.28H497.236L497.076 103.32H489.076V106.12H485.476ZM508.916 131.4C505.876 131.4 503.569 130.693 501.996 129.28C500.422 127.867 499.636 125.88 499.636 123.32V121.2C499.636 120.347 499.809 119.56 500.156 118.84C500.529 118.12 500.942 117.467 501.396 116.88C501.876 116.267 502.289 115.707 502.636 115.2C503.009 114.667 503.196 114.173 503.196 113.72C503.196 113.293 503.102 113.013 502.916 112.88C502.729 112.747 502.396 112.68 501.916 112.68H499.156L499.516 109.4H504.556C506.582 109.4 507.596 110.373 507.596 112.32C507.596 113.227 507.409 114.04 507.036 114.76C506.689 115.48 506.262 116.173 505.756 116.84C505.276 117.507 504.849 118.2 504.476 118.92C504.129 119.613 503.956 120.387 503.956 121.24V123.68C503.956 125.147 504.396 126.227 505.276 126.92C506.156 127.587 507.369 127.92 508.916 127.92C510.489 127.92 511.702 127.573 512.556 126.88C513.409 126.187 513.836 125.08 513.836 123.56V109.4H518.196V123.28C518.196 125.84 517.369 127.84 515.716 129.28C514.089 130.693 511.822 131.4 508.916 131.4ZM531.358 131.4C529.651 131.4 528.038 131.24 526.518 130.92C525.024 130.6 523.771 130.227 522.758 129.8V118.68H531.318L531.518 122H526.958V127.24C527.571 127.453 528.264 127.627 529.038 127.76C529.838 127.867 530.611 127.92 531.358 127.92C533.731 127.92 535.398 127.36 536.358 126.24C537.344 125.093 537.838 123.107 537.838 120.28C537.838 118.307 537.598 116.76 537.118 115.64C536.638 114.493 535.838 113.693 534.718 113.24C533.624 112.76 532.131 112.52 530.238 112.52C529.091 112.52 527.891 112.6 526.638 112.76C525.384 112.92 524.198 113.187 523.078 113.56V110.2C524.198 109.827 525.478 109.533 526.918 109.32C528.384 109.107 529.851 109 531.318 109C535.104 109 537.838 109.96 539.518 111.88C541.198 113.773 542.038 116.573 542.038 120.28C542.038 123.907 541.198 126.667 539.518 128.56C537.838 130.453 535.118 131.4 531.358 131.4ZM554.766 131.4C554.152 131.4 553.472 131.36 552.726 131.28C551.979 131.2 551.326 131.067 550.766 130.88L544.686 116.08H548.926L553.846 128.08C556.139 128.187 557.806 127.533 558.846 126.12C559.886 124.68 560.406 122.48 560.406 119.52C560.406 117.787 560.246 116.427 559.926 115.44C559.606 114.427 559.059 113.72 558.286 113.32C557.539 112.893 556.499 112.68 555.166 112.68H553.646V109.4H555.726C558.819 109.4 561.072 110.227 562.486 111.88C563.899 113.533 564.606 116.067 564.606 119.48C564.606 122.307 564.179 124.6 563.326 126.36C562.472 128.093 561.299 129.373 559.806 130.2C558.339 131 556.659 131.4 554.766 131.4ZM573.704 131C572.237 131 571.17 130.64 570.504 129.92C569.837 129.2 569.504 128.173 569.504 126.84V109.04C569.504 107.467 569.784 106.16 570.344 105.12C570.904 104.08 571.637 103.267 572.544 102.68H565.864V99.24H577.824V102.52C576.357 103.107 575.317 103.973 574.704 105.12C574.117 106.24 573.824 107.76 573.824 109.68V125.76C573.824 126.453 573.93 126.933 574.144 127.2C574.384 127.44 574.864 127.56 575.584 127.56H577.424V131H573.704ZM580.895 131V109.4H584.855L585.095 111.76C586.082 110.907 587.202 110.24 588.455 109.76C589.708 109.253 591.148 109 592.775 109C595.068 109 596.842 109.68 598.095 111.04C599.375 112.4 600.015 114.307 600.015 116.76V131H595.695V116.96C595.695 115.387 595.322 114.253 594.575 113.56C593.828 112.867 592.708 112.52 591.215 112.52C590.015 112.52 588.895 112.773 587.855 113.28C586.815 113.76 585.948 114.373 585.255 115.12V131H580.895ZM614.154 131.4C612.234 131.4 610.527 131.173 609.034 130.72C607.54 130.267 606.354 129.547 605.474 128.56C604.62 127.573 604.194 126.267 604.194 124.64C604.194 123.547 604.447 122.587 604.954 121.76C605.46 120.907 606.207 120.24 607.194 119.76C606.367 119.44 605.674 118.893 605.114 118.12C604.58 117.347 604.314 116.387 604.314 115.24C604.314 113.187 604.94 111.64 606.194 110.6C607.474 109.533 609.1 109 611.074 109C611.847 109 612.514 109.053 613.074 109.16C613.634 109.24 614.14 109.36 614.594 109.52V112.84C613.82 112.627 612.914 112.52 611.874 112.52C610.807 112.52 609.98 112.733 609.394 113.16C608.807 113.587 608.514 114.28 608.514 115.24C608.514 116.253 608.847 116.987 609.514 117.44C610.18 117.867 611.1 118.08 612.274 118.08H614.554L614.754 121.32H612.194C609.66 121.32 608.394 122.427 608.394 124.64C608.394 125.733 608.847 126.56 609.754 127.12C610.66 127.653 612.06 127.92 613.954 127.92C617.714 127.92 619.594 126.387 619.594 123.32V109.4H623.914V122.8C623.914 125.707 623.1 127.867 621.474 129.28C619.847 130.693 617.407 131.4 614.154 131.4Z" fill="black"/>
<path d="M74.33 318C73.23 318 72.43 317.73 71.93 317.19C71.43 316.65 71.18 315.88 71.18 314.88V301.8H74.42V314.07C74.42 314.97 74.86 315.42 75.74 315.42H76.97V318H74.33ZM67.04 318C65.96 318 65.16 317.73 64.64 317.19C64.14 316.65 63.89 315.88 63.89 314.88V301.8H67.16V314.07C67.16 314.97 67.6 315.42 68.48 315.42H69.68V318H67.04ZM85.1598 318.3C84.1398 318.3 83.2098 318.14 82.3698 317.82C81.5498 317.48 80.8898 316.95 80.3898 316.23C79.8898 315.49 79.6398 314.53 79.6398 313.35C79.6398 311.77 80.1698 310.54 81.2298 309.66C82.3098 308.78 83.8798 308.34 85.9398 308.34H90.8898V307.32C90.8898 306.14 90.5898 305.32 89.9898 304.86C89.4098 304.38 88.3198 304.14 86.7198 304.14C85.7798 304.14 84.8698 304.2 83.9898 304.32C83.1298 304.44 82.2798 304.64 81.4398 304.92V302.4C82.2198 302.14 83.1198 301.93 84.1398 301.77C85.1798 301.59 86.2198 301.5 87.2598 301.5C89.6198 301.5 91.3598 302 92.4798 303C93.5998 303.98 94.1598 305.52 94.1598 307.62V318H90.8898V310.86H86.1498C85.0298 310.86 84.1798 311.05 83.5998 311.43C83.0398 311.79 82.7598 312.43 82.7598 313.35C82.7598 314.23 83.0098 314.84 83.5098 315.18C84.0298 315.52 84.8698 315.69 86.0298 315.69C86.8298 315.69 87.5198 315.61 88.0998 315.45V317.94C87.7198 318.04 87.2798 318.12 86.7798 318.18C86.2798 318.26 85.7398 318.3 85.1598 318.3ZM97.3623 308.07V304.17H100.152V305.64H104.562L104.442 308.07H97.3623ZM97.3623 316.23V312.33H100.152V313.83H104.562L104.442 316.23H97.3623ZM110.869 318C109.969 318 109.259 317.72 108.739 317.16C108.219 316.6 107.959 315.87 107.959 314.97V312.15C107.959 311.27 108.129 310.5 108.469 309.84C108.809 309.16 109.429 308.69 110.329 308.43L107.089 307.62V304.26C107.889 303.56 108.939 302.93 110.239 302.37C111.559 301.79 113.099 301.5 114.859 301.5C117.239 301.5 119.069 302 120.349 303C121.629 303.98 122.269 305.63 122.269 307.95V318H118.999V307.86C118.999 306.48 118.669 305.52 118.009 304.98C117.369 304.42 116.279 304.14 114.739 304.14C113.739 304.14 112.809 304.28 111.949 304.56C111.089 304.84 110.409 305.21 109.909 305.67V306.21L113.329 307.08V309.24C112.549 309.44 111.999 309.76 111.679 310.2C111.359 310.64 111.199 311.3 111.199 312.18V314.13C111.199 314.59 111.299 314.92 111.499 315.12C111.699 315.32 112.019 315.42 112.459 315.42H114.109V318H110.869ZM115.407 299.34V296.58H113.037V294.33H117.657V297.06H124.137L124.017 299.34H115.407ZM132.207 318V307.8C132.207 306.98 132.117 306.3 131.937 305.76C131.757 305.22 131.417 304.82 130.917 304.56C130.417 304.28 129.677 304.14 128.697 304.14C128.057 304.14 127.357 304.21 126.597 304.35C125.857 304.49 125.187 304.68 124.587 304.92V302.4C125.187 302.14 125.907 301.93 126.747 301.77C127.607 301.59 128.467 301.5 129.327 301.5C131.487 301.5 133.047 301.97 134.007 302.91C134.987 303.85 135.477 305.34 135.477 307.38V318H132.207ZM142.93 318C141.83 318 141.03 317.73 140.53 317.19C140.03 316.65 139.78 315.88 139.78 314.88V301.53C139.78 300.35 139.99 299.37 140.41 298.59C140.83 297.81 141.38 297.2 142.06 296.76H137.05V294.18H146.02V296.64C144.92 297.08 144.14 297.73 143.68 298.59C143.24 299.43 143.02 300.57 143.02 302.01V314.07C143.02 314.59 143.1 314.95 143.26 315.15C143.44 315.33 143.8 315.42 144.34 315.42H145.72V318H142.93ZM154.354 318.3C153.094 318.3 151.964 318.02 150.964 317.46C149.964 316.9 149.174 316.02 148.594 314.82C148.014 313.6 147.724 312.04 147.724 310.14C147.724 307.44 148.414 305.33 149.794 303.81C151.174 302.27 153.244 301.5 156.004 301.5C157.864 301.5 159.364 301.82 160.504 302.46C161.644 303.08 162.474 303.89 162.994 304.89C163.534 305.89 163.804 306.96 163.804 308.1V318H160.534V308.25C160.534 307.45 160.394 306.74 160.114 306.12C159.834 305.5 159.354 305.02 158.674 304.68C158.014 304.32 157.104 304.14 155.944 304.14C154.184 304.14 152.894 304.65 152.074 305.67C151.274 306.69 150.874 308.18 150.874 310.14C150.874 312.2 151.224 313.64 151.924 314.46C152.624 315.28 153.624 315.69 154.924 315.69C155.304 315.69 155.674 315.67 156.034 315.63C156.414 315.59 156.734 315.53 156.994 315.45V317.94C156.654 318.06 156.274 318.15 155.854 318.21C155.434 318.27 154.934 318.3 154.354 318.3ZM156.921 299.34V296.58H154.551V294.33H159.171V297.06H165.651L165.531 299.34H156.921ZM172.911 318.3C171.851 318.3 170.821 318.23 169.821 318.09C168.841 317.95 168.031 317.75 167.391 317.49V314.76C168.151 315.06 168.971 315.29 169.851 315.45C170.751 315.61 171.571 315.69 172.311 315.69C173.691 315.69 174.711 315.57 175.371 315.33C176.031 315.07 176.361 314.54 176.361 313.74C176.361 313.16 176.191 312.72 175.851 312.42C175.511 312.12 175.011 311.86 174.351 311.64C173.691 311.4 172.871 311.12 171.891 310.8C170.971 310.48 170.141 310.13 169.401 309.75C168.661 309.37 168.071 308.89 167.631 308.31C167.211 307.73 167.001 307 167.001 306.12C167.001 304.7 167.541 303.58 168.621 302.76C169.701 301.92 171.331 301.5 173.511 301.5C174.431 301.5 175.341 301.57 176.241 301.71C177.141 301.85 177.881 302.02 178.461 302.22V304.92C177.801 304.66 177.061 304.47 176.241 304.35C175.441 304.21 174.691 304.14 173.991 304.14C172.831 304.14 171.901 304.27 171.201 304.53C170.501 304.77 170.151 305.27 170.151 306.03C170.151 306.53 170.331 306.93 170.691 307.23C171.051 307.51 171.561 307.77 172.221 308.01C172.901 308.23 173.711 308.5 174.651 308.82C175.711 309.16 176.601 309.54 177.321 309.96C178.041 310.36 178.581 310.86 178.941 311.46C179.321 312.04 179.511 312.8 179.511 313.74C179.511 315.32 178.911 316.48 177.711 317.22C176.531 317.94 174.931 318.3 172.911 318.3ZM171.798 299.34V294.96H174.498V297.06H182.268L182.118 299.34H171.798ZM190.128 318.3C187.808 318.3 185.988 317.75 184.668 316.65C183.368 315.55 182.718 313.9 182.718 311.7V301.8H185.988V311.82C185.988 313.16 186.338 314.14 187.038 314.76C187.758 315.38 188.788 315.69 190.128 315.69C191.488 315.69 192.518 315.38 193.218 314.76C193.938 314.14 194.298 313.16 194.298 311.82V301.8H197.538V311.7C197.538 313.9 196.888 315.55 195.588 316.65C194.288 317.75 192.468 318.3 190.128 318.3ZM206.661 318.3C205.601 318.3 204.571 318.23 203.571 318.09C202.591 317.95 201.781 317.75 201.141 317.49V314.76C201.901 315.06 202.721 315.29 203.601 315.45C204.501 315.61 205.321 315.69 206.061 315.69C207.441 315.69 208.461 315.57 209.121 315.33C209.781 315.07 210.111 314.54 210.111 313.74C210.111 313.16 209.941 312.72 209.601 312.42C209.261 312.12 208.761 311.86 208.101 311.64C207.441 311.4 206.621 311.12 205.641 310.8C204.721 310.48 203.891 310.13 203.151 309.75C202.411 309.37 201.821 308.89 201.381 308.31C200.961 307.73 200.751 307 200.751 306.12C200.751 304.7 201.291 303.58 202.371 302.76C203.451 301.92 205.081 301.5 207.261 301.5C208.181 301.5 209.091 301.57 209.991 301.71C210.891 301.85 211.631 302.02 212.211 302.22V304.92C211.551 304.66 210.811 304.47 209.991 304.35C209.191 304.21 208.441 304.14 207.741 304.14C206.581 304.14 205.651 304.27 204.951 304.53C204.251 304.77 203.901 305.27 203.901 306.03C203.901 306.53 204.081 306.93 204.441 307.23C204.801 307.51 205.311 307.77 205.971 308.01C206.651 308.23 207.461 308.5 208.401 308.82C209.461 309.16 210.351 309.54 211.071 309.96C211.791 310.36 212.331 310.86 212.691 311.46C213.071 312.04 213.261 312.8 213.261 313.74C213.261 315.32 212.661 316.48 211.461 317.22C210.281 317.94 208.681 318.3 206.661 318.3ZM222.588 318V307.8C222.588 306.98 222.498 306.3 222.318 305.76C222.138 305.22 221.798 304.82 221.298 304.56C220.798 304.28 220.058 304.14 219.078 304.14C218.438 304.14 217.738 304.21 216.978 304.35C216.238 304.49 215.568 304.68 214.968 304.92V302.4C215.568 302.14 216.288 301.93 217.128 301.77C217.988 301.59 218.848 301.5 219.708 301.5C221.868 301.5 223.428 301.97 224.388 302.91C225.368 303.85 225.858 305.34 225.858 307.38V318H222.588ZM236.041 318.3C235.581 318.3 235.071 318.27 234.511 318.21C233.951 318.15 233.461 318.05 233.041 317.91L228.481 306.81H231.661L235.351 315.81C237.071 315.89 238.321 315.4 239.101 314.34C239.881 313.26 240.271 311.61 240.271 309.39C240.271 308.09 240.151 307.07 239.911 306.33C239.671 305.57 239.261 305.04 238.681 304.74C238.121 304.42 237.341 304.26 236.341 304.26H235.201V301.8H236.761C239.081 301.8 240.771 302.42 241.831 303.66C242.891 304.9 243.421 306.8 243.421 309.36C243.421 311.48 243.101 313.2 242.461 314.52C241.821 315.82 240.941 316.78 239.821 317.4C238.721 318 237.461 318.3 236.041 318.3ZM250.635 318.3C248.775 318.3 247.155 318 245.775 317.4V314.82C246.375 315.08 247.025 315.29 247.725 315.45C248.445 315.61 249.155 315.69 249.855 315.69C251.215 315.69 252.295 315.5 253.095 315.12C253.895 314.74 254.465 314.13 254.805 313.29C255.165 312.43 255.345 311.3 255.345 309.9C255.345 307.82 254.915 306.34 254.055 305.46C253.215 304.58 251.805 304.14 249.825 304.14C249.105 304.14 248.405 304.22 247.725 304.38C247.045 304.52 246.395 304.73 245.775 305.01V302.4C246.455 302.12 247.185 301.9 247.965 301.74C248.765 301.58 249.625 301.5 250.545 301.5C253.225 301.5 255.215 302.22 256.515 303.66C257.835 305.08 258.495 307.16 258.495 309.9C258.495 312.62 257.865 314.7 256.605 316.14C255.365 317.58 253.375 318.3 250.635 318.3ZM250.607 299.34V294.96H253.307V297.06H261.077L260.927 299.34H250.607ZM266.537 318.3C265.517 318.3 264.587 318.14 263.747 317.82C262.927 317.48 262.267 316.95 261.767 316.23C261.267 315.49 261.017 314.53 261.017 313.35C261.017 311.77 261.547 310.54 262.607 309.66C263.687 308.78 265.257 308.34 267.317 308.34H272.267V307.32C272.267 306.14 271.967 305.32 271.367 304.86C270.787 304.38 269.697 304.14 268.097 304.14C267.157 304.14 266.247 304.2 265.367 304.32C264.507 304.44 263.657 304.64 262.817 304.92V302.4C263.597 302.14 264.497 301.93 265.517 301.77C266.557 301.59 267.597 301.5 268.637 301.5C270.997 301.5 272.737 302 273.857 303C274.977 303.98 275.537 305.52 275.537 307.62V318H272.267V310.86H267.527C266.407 310.86 265.557 311.05 264.977 311.43C264.417 311.79 264.137 312.43 264.137 313.35C264.137 314.23 264.387 314.84 264.887 315.18C265.407 315.52 266.247 315.69 267.407 315.69C268.207 315.69 268.897 315.61 269.477 315.45V317.94C269.097 318.04 268.657 318.12 268.157 318.18C267.657 318.26 267.117 318.3 266.537 318.3ZM279.609 318V312.15C279.609 311.27 279.779 310.5 280.119 309.84C280.459 309.16 281.079 308.69 281.979 308.43L278.739 307.62V304.26C279.539 303.56 280.589 302.93 281.889 302.37C283.209 301.79 284.749 301.5 286.509 301.5C288.889 301.5 290.719 302 291.999 303C293.279 303.98 293.919 305.63 293.919 307.95V318H290.649V307.86C290.649 306.48 290.319 305.52 289.659 304.98C289.019 304.42 287.929 304.14 286.389 304.14C285.389 304.14 284.459 304.28 283.599 304.56C282.739 304.84 282.059 305.21 281.559 305.67V306.21L284.979 307.08V309.24C284.199 309.44 283.649 309.76 283.329 310.2C283.009 310.64 282.849 311.3 282.849 312.18V318H279.609ZM285.138 299.37C283.978 299.37 283.058 299.07 282.378 298.47C281.698 297.87 281.358 297.02 281.358 295.92C281.358 294.82 281.708 293.94 282.408 293.28C283.088 292.62 284.068 292.29 285.348 292.29H292.728L292.578 294.21H285.648C284.968 294.21 284.468 294.34 284.148 294.6C283.808 294.86 283.638 295.3 283.638 295.92C283.638 296.98 284.208 297.51 285.348 297.51C285.928 297.51 286.338 297.4 286.578 297.18C286.818 296.94 286.938 296.63 286.938 296.25V295.62H288.948V296.25C288.948 296.69 289.068 297 289.308 297.18C289.528 297.34 289.868 297.42 290.328 297.42H292.218V299.31H290.118C289.638 299.31 289.198 299.24 288.798 299.1C288.378 298.94 288.088 298.7 287.928 298.38C287.728 298.7 287.348 298.95 286.788 299.13C286.208 299.29 285.658 299.37 285.138 299.37ZM303.768 318.3C302.508 318.3 301.378 318.02 300.378 317.46C299.378 316.9 298.588 316.02 298.008 314.82C297.428 313.6 297.138 312.04 297.138 310.14C297.138 307.34 297.608 305.2 298.548 303.72C299.488 302.24 300.798 301.5 302.478 301.5C303.298 301.5 303.948 301.65 304.428 301.95C304.928 302.23 305.358 302.6 305.718 303.06C306.138 302.6 306.688 302.23 307.368 301.95C308.048 301.65 308.738 301.5 309.438 301.5C310.738 301.5 311.708 301.89 312.348 302.67C312.988 303.43 313.308 304.49 313.308 305.85V318H310.038V306.33C310.038 305.57 309.928 305.02 309.708 304.68C309.508 304.32 309.088 304.14 308.448 304.14C308.048 304.14 307.678 304.25 307.338 304.47C306.998 304.69 306.748 305.04 306.588 305.52H304.788C304.548 305.04 304.298 304.69 304.038 304.47C303.778 304.25 303.408 304.14 302.928 304.14C301.888 304.14 301.188 304.69 300.828 305.79C300.468 306.89 300.288 308.34 300.288 310.14C300.288 312.2 300.638 313.64 301.338 314.46C302.038 315.28 303.038 315.69 304.338 315.69C304.718 315.69 305.088 315.67 305.448 315.63C305.828 315.59 306.148 315.53 306.408 315.45V317.94C306.068 318.06 305.688 318.15 305.268 318.21C304.848 318.27 304.348 318.3 303.768 318.3ZM306.452 299.34V296.58H304.082V294.33H308.702V297.06H315.182L315.062 299.34H306.452ZM323.192 318.3C321.912 318.3 320.702 318.18 319.562 317.94C318.442 317.7 317.502 317.42 316.742 317.1V308.76H323.162L323.312 311.25H319.892V315.18C320.352 315.34 320.872 315.47 321.452 315.57C322.052 315.65 322.632 315.69 323.192 315.69C324.972 315.69 326.222 315.27 326.942 314.43C327.682 313.57 328.052 312.08 328.052 309.96C328.052 308.48 327.872 307.32 327.512 306.48C327.152 305.62 326.552 305.02 325.712 304.68C324.892 304.32 323.772 304.14 322.352 304.14C321.492 304.14 320.592 304.2 319.652 304.32C318.712 304.44 317.822 304.64 316.982 304.92V302.4C317.822 302.12 318.782 301.9 319.862 301.74C320.962 301.58 322.062 301.5 323.162 301.5C326.002 301.5 328.052 302.22 329.312 303.66C330.572 305.08 331.202 307.18 331.202 309.96C331.202 312.68 330.572 314.75 329.312 316.17C328.052 317.59 326.012 318.3 323.192 318.3ZM340.748 318.3C340.288 318.3 339.778 318.27 339.218 318.21C338.658 318.15 338.168 318.05 337.748 317.91L333.188 306.81H336.368L340.058 315.81C341.778 315.89 343.028 315.4 343.808 314.34C344.588 313.26 344.978 311.61 344.978 309.39C344.978 308.09 344.858 307.07 344.618 306.33C344.378 305.57 343.968 305.04 343.388 304.74C342.828 304.42 342.048 304.26 341.048 304.26H339.908V301.8H341.468C343.788 301.8 345.478 302.42 346.538 303.66C347.598 304.9 348.128 306.8 348.128 309.36C348.128 311.48 347.808 313.2 347.168 314.52C346.528 315.82 345.648 316.78 344.528 317.4C343.428 318 342.168 318.3 340.748 318.3ZM356.632 318.3C355.572 318.3 354.542 318.23 353.542 318.09C352.562 317.95 351.752 317.75 351.112 317.49V314.76C351.872 315.06 352.692 315.29 353.572 315.45C354.472 315.61 355.292 315.69 356.032 315.69C357.412 315.69 358.432 315.57 359.092 315.33C359.752 315.07 360.082 314.54 360.082 313.74C360.082 313.16 359.912 312.72 359.572 312.42C359.232 312.12 358.732 311.86 358.072 311.64C357.412 311.4 356.592 311.12 355.612 310.8C354.692 310.48 353.862 310.13 353.122 309.75C352.382 309.37 351.792 308.89 351.352 308.31C350.932 307.73 350.722 307 350.722 306.12C350.722 304.7 351.262 303.58 352.342 302.76C353.422 301.92 355.052 301.5 357.232 301.5C358.152 301.5 359.062 301.57 359.962 301.71C360.862 301.85 361.602 302.02 362.182 302.22V304.92C361.522 304.66 360.782 304.47 359.962 304.35C359.162 304.21 358.412 304.14 357.712 304.14C356.552 304.14 355.622 304.27 354.922 304.53C354.222 304.77 353.872 305.27 353.872 306.03C353.872 306.53 354.052 306.93 354.412 307.23C354.772 307.51 355.282 307.77 355.942 308.01C356.622 308.23 357.432 308.5 358.372 308.82C359.432 309.16 360.322 309.54 361.042 309.96C361.762 310.36 362.302 310.86 362.662 311.46C363.042 312.04 363.232 312.8 363.232 313.74C363.232 315.32 362.632 316.48 361.432 317.22C360.252 317.94 358.652 318.3 356.632 318.3ZM355.519 299.34V294.96H358.219V297.06H365.989L365.839 299.34H355.519ZM373.849 318.3C371.529 318.3 369.709 317.75 368.389 316.65C367.089 315.55 366.439 313.9 366.439 311.7V301.8H369.709V311.82C369.709 313.16 370.059 314.14 370.759 314.76C371.479 315.38 372.509 315.69 373.849 315.69C375.209 315.69 376.239 315.38 376.939 314.76C377.659 314.14 378.019 313.16 378.019 311.82V301.8H381.259V311.7C381.259 313.9 380.609 315.55 379.309 316.65C378.009 317.75 376.189 318.3 373.849 318.3ZM387.832 318C386.732 318 385.932 317.73 385.432 317.19C384.932 316.65 384.682 315.88 384.682 314.88V304.95C384.682 303.95 384.862 303.11 385.222 302.43C385.582 301.75 385.992 301.18 386.452 300.72C386.912 300.24 387.322 299.81 387.682 299.43C388.042 299.03 388.222 298.61 388.222 298.17C388.222 297.59 388.052 297.2 387.712 297C387.392 296.8 386.902 296.7 386.242 296.7C385.162 296.7 384.072 297 382.972 297.6V295.2C383.572 294.84 384.262 294.57 385.042 294.39C385.842 294.19 386.612 294.09 387.352 294.09C388.772 294.09 389.832 294.39 390.532 294.99C391.232 295.59 391.582 296.44 391.582 297.54C391.582 298.18 391.452 298.74 391.192 299.22C390.952 299.68 390.652 300.11 390.292 300.51C389.932 300.91 389.572 301.32 389.212 301.74C388.852 302.16 388.542 302.63 388.282 303.15C388.042 303.67 387.922 304.3 387.922 305.04V314.07C387.922 314.59 388.002 314.95 388.162 315.15C388.342 315.33 388.702 315.42 389.242 315.42H390.622V318H387.832ZM399.41 318.3C397.67 318.3 396.31 317.79 395.33 316.77C394.37 315.75 393.89 314.3 393.89 312.42V301.8H397.16V312.27C397.16 313.49 397.43 314.37 397.97 314.91C398.51 315.43 399.35 315.69 400.49 315.69C401.37 315.69 402.21 315.51 403.01 315.15C403.81 314.77 404.47 314.3 404.99 313.74V301.8H408.23V318H405.26L405.11 316.23C404.37 316.85 403.53 317.35 402.59 317.73C401.67 318.11 400.61 318.3 399.41 318.3ZM418.354 318.3C417.974 318.3 417.524 318.26 417.004 318.18C416.504 318.12 416.094 318.03 415.774 317.91L413.374 311.52H411.304L411.454 309.06H415.444L417.934 315.72C418.834 315.76 419.634 315.59 420.334 315.21C421.054 314.83 421.614 314.2 422.014 313.32C422.434 312.42 422.644 311.23 422.644 309.75C422.644 308.35 422.454 307.24 422.074 306.42C421.714 305.6 421.104 305.02 420.244 304.68C419.404 304.32 418.254 304.14 416.794 304.14C415.994 304.14 415.144 304.2 414.244 304.32C413.344 304.44 412.484 304.64 411.664 304.92V302.4C412.464 302.14 413.374 301.93 414.394 301.77C415.434 301.59 416.524 301.5 417.664 301.5C418.204 301.5 418.704 301.53 419.164 301.59C419.644 301.63 420.104 301.7 420.544 301.8H427.234L427.084 304.35H424.294C424.814 305.01 425.194 305.8 425.434 306.72C425.674 307.62 425.794 308.63 425.794 309.75C425.794 311.61 425.444 313.18 424.744 314.46C424.064 315.72 423.164 316.68 422.044 317.34C420.924 317.98 419.694 318.3 418.354 318.3ZM420.844 323.85C420.124 323.85 419.464 323.72 418.864 323.46C418.264 323.2 417.804 322.87 417.484 322.47C417.264 322.87 416.934 323.19 416.494 323.43C416.054 323.69 415.474 323.82 414.754 323.82H411.844L412.024 321.21H414.154C414.734 321.21 415.184 321.11 415.504 320.91C415.844 320.73 416.124 320.4 416.344 319.92H418.474C418.634 320.36 418.854 320.7 419.134 320.94C419.434 321.2 419.844 321.33 420.364 321.33C420.964 321.33 421.384 321.18 421.624 320.88C421.884 320.58 422.014 320.12 422.014 319.5V319.23H425.254V319.68C425.254 321 424.854 322.02 424.054 322.74C423.274 323.48 422.204 323.85 420.844 323.85ZM436.28 318V307.8C436.28 306.98 436.19 306.3 436.01 305.76C435.83 305.22 435.49 304.82 434.99 304.56C434.49 304.28 433.75 304.14 432.77 304.14C432.13 304.14 431.43 304.21 430.67 304.35C429.93 304.49 429.26 304.68 428.66 304.92V302.4C429.26 302.14 429.98 301.93 430.82 301.77C431.68 301.59 432.54 301.5 433.4 301.5C435.56 301.5 437.12 301.97 438.08 302.91C439.06 303.85 439.55 305.34 439.55 307.38V318H436.28ZM448.892 318.3C447.152 318.3 445.792 317.79 444.812 316.77C443.852 315.75 443.372 314.3 443.372 312.42V301.8H446.642V312.27C446.642 313.49 446.912 314.37 447.452 314.91C447.992 315.43 448.832 315.69 449.972 315.69C450.852 315.69 451.692 315.51 452.492 315.15C453.292 314.77 453.952 314.3 454.472 313.74V301.8H457.712V318H454.742L454.592 316.23C453.852 316.85 453.012 317.35 452.072 317.73C451.152 318.11 450.092 318.3 448.892 318.3ZM460.936 308.07V304.17H463.726V305.64H468.136L468.016 308.07H460.936ZM460.936 316.23V312.33H463.726V313.83H468.136L468.016 316.23H460.936ZM478.673 318.3C476.353 318.3 474.533 317.75 473.213 316.65C471.913 315.55 471.263 313.9 471.263 311.7V301.8H474.533V311.82C474.533 313.16 474.883 314.14 475.583 314.76C476.303 315.38 477.333 315.69 478.673 315.69C480.033 315.69 481.063 315.38 481.763 314.76C482.483 314.14 482.843 313.16 482.843 311.82V297H486.083V311.7C486.083 313.9 485.433 315.55 484.133 316.65C482.833 317.75 481.013 318.3 478.673 318.3ZM495.206 318.3C494.146 318.3 493.116 318.23 492.116 318.09C491.136 317.95 490.326 317.75 489.686 317.49V314.76C490.446 315.06 491.266 315.29 492.146 315.45C493.046 315.61 493.866 315.69 494.606 315.69C495.986 315.69 497.006 315.57 497.666 315.33C498.326 315.07 498.656 314.54 498.656 313.74C498.656 313.16 498.486 312.72 498.146 312.42C497.806 312.12 497.306 311.86 496.646 311.64C495.986 311.4 495.166 311.12 494.186 310.8C493.266 310.48 492.436 310.13 491.696 309.75C490.956 309.37 490.366 308.89 489.926 308.31C489.506 307.73 489.296 307 489.296 306.12C489.296 304.7 489.836 303.58 490.916 302.76C491.996 301.92 493.626 301.5 495.806 301.5C496.726 301.5 497.636 301.57 498.536 301.71C499.436 301.85 500.176 302.02 500.756 302.22V304.92C500.096 304.66 499.356 304.47 498.536 304.35C497.736 304.21 496.986 304.14 496.286 304.14C495.126 304.14 494.196 304.27 493.496 304.53C492.796 304.77 492.446 305.27 492.446 306.03C492.446 306.53 492.626 306.93 492.986 307.23C493.346 307.51 493.856 307.77 494.516 308.01C495.196 308.23 496.006 308.5 496.946 308.82C498.006 309.16 498.896 309.54 499.616 309.96C500.336 310.36 500.876 310.86 501.236 311.46C501.616 312.04 501.806 312.8 501.806 313.74C501.806 315.32 501.206 316.48 500.006 317.22C498.826 317.94 497.226 318.3 495.206 318.3ZM504.413 308.07V304.17H507.203V305.64H511.613L511.493 308.07H504.413ZM504.413 316.23V312.33H507.203V313.83H511.613L511.493 316.23H504.413ZM517.95 318C516.85 318 516.05 317.73 515.55 317.19C515.05 316.65 514.8 315.88 514.8 314.88V301.8H518.04V314.07C518.04 314.97 518.48 315.42 519.36 315.42H520.74V318H517.95ZM523.939 318V301.8H526.909L527.089 303.57C527.829 302.93 528.669 302.43 529.609 302.07C530.549 301.69 531.629 301.5 532.849 301.5C534.569 301.5 535.899 302.01 536.839 303.03C537.799 304.05 538.279 305.48 538.279 307.32V318H535.039V307.47C535.039 306.29 534.759 305.44 534.199 304.92C533.639 304.4 532.799 304.14 531.679 304.14C530.779 304.14 529.939 304.33 529.159 304.71C528.379 305.07 527.729 305.53 527.209 306.09V318H523.939ZM542.103 318V307.74C542.103 305.78 542.693 304.25 543.873 303.15C545.053 302.05 546.913 301.5 549.453 301.5C549.973 301.5 550.473 301.53 550.953 301.59C551.433 301.63 551.873 301.7 552.273 301.8H558.243L558.093 304.35H555.843C556.203 304.83 556.443 305.35 556.563 305.91C556.683 306.47 556.743 307.08 556.743 307.74V318H553.473V307.44C553.473 306.3 553.123 305.47 552.423 304.95C551.723 304.41 550.733 304.14 549.453 304.14C548.113 304.14 547.093 304.41 546.393 304.95C545.713 305.47 545.373 306.3 545.373 307.44V310.77C546.253 310.05 547.303 309.69 548.523 309.69H550.473L550.593 312.3H548.433C547.213 312.3 546.193 312.64 545.373 313.32V318H542.103ZM561.175 318V301.8H564.145L564.325 303.57C565.065 302.93 565.905 302.43 566.845 302.07C567.785 301.69 568.865 301.5 570.085 301.5C571.805 301.5 573.135 302.01 574.075 303.03C575.035 304.05 575.515 305.48 575.515 307.32V318H572.275V307.47C572.275 306.29 571.995 305.44 571.435 304.92C570.875 304.4 570.035 304.14 568.915 304.14C568.015 304.14 567.175 304.33 566.395 304.71C565.615 305.07 564.965 305.53 564.445 306.09V318H561.175ZM563.019 299.34L563.169 297.06H572.829V294.57H575.529V299.34H563.019ZM572.829 293.19V289.02H575.529V293.19H572.829ZM579.339 318V304.83C579.339 303.95 579.579 303.23 580.059 302.67C580.559 302.09 581.269 301.8 582.189 301.8H585.279L585.429 304.32H583.869C583.369 304.32 583.009 304.44 582.789 304.68C582.589 304.9 582.489 305.27 582.489 305.79V313.62L586.449 306.75H587.769L591.729 313.62V301.8H594.849V318H591.639L587.109 309.99L582.549 318H579.339ZM603.656 318.3C602.636 318.3 601.706 318.14 600.866 317.82C600.046 317.48 599.386 316.95 598.886 316.23C598.386 315.49 598.136 314.53 598.136 313.35C598.136 311.77 598.666 310.54 599.726 309.66C600.806 308.78 602.376 308.34 604.436 308.34H609.386V307.32C609.386 306.14 609.086 305.32 608.486 304.86C607.906 304.38 606.816 304.14 605.216 304.14C604.276 304.14 603.366 304.2 602.486 304.32C601.626 304.44 600.776 304.64 599.936 304.92V302.4C600.716 302.14 601.616 301.93 602.636 301.77C603.676 301.59 604.716 301.5 605.756 301.5C608.116 301.5 609.856 302 610.976 303C612.096 303.98 612.656 305.52 612.656 307.62V318H609.386V310.86H604.646C603.526 310.86 602.676 311.05 602.096 311.43C601.536 311.79 601.256 312.43 601.256 313.35C601.256 314.23 601.506 314.84 602.006 315.18C602.526 315.52 603.366 315.69 604.526 315.69C605.326 315.69 606.016 315.61 606.596 315.45V317.94C606.216 318.04 605.776 318.12 605.276 318.18C604.776 318.26 604.236 318.3 603.656 318.3ZM600.138 299.34L600.288 297.06H612.648V299.34H600.138ZM622.488 318.3C621.228 318.3 620.098 318.02 619.098 317.46C618.098 316.9 617.308 316.02 616.728 314.82C616.148 313.6 615.858 312.04 615.858 310.14C615.858 307.34 616.328 305.2 617.268 303.72C618.208 302.24 619.518 301.5 621.198 301.5C622.018 301.5 622.668 301.65 623.148 301.95C623.648 302.23 624.078 302.6 624.438 303.06C624.858 302.6 625.408 302.23 626.088 301.95C626.768 301.65 627.458 301.5 628.158 301.5C629.458 301.5 630.428 301.89 631.068 302.67C631.708 303.43 632.028 304.49 632.028 305.85V318H628.758V306.33C628.758 305.57 628.648 305.02 628.428 304.68C628.228 304.32 627.808 304.14 627.168 304.14C626.768 304.14 626.398 304.25 626.058 304.47C625.718 304.69 625.468 305.04 625.308 305.52H623.508C623.268 305.04 623.018 304.69 622.758 304.47C622.498 304.25 622.128 304.14 621.648 304.14C620.608 304.14 619.908 304.69 619.548 305.79C619.188 306.89 619.008 308.34 619.008 310.14C619.008 312.2 619.358 313.64 620.058 314.46C620.758 315.28 621.758 315.69 623.058 315.69C623.438 315.69 623.808 315.67 624.168 315.63C624.548 315.59 624.868 315.53 625.128 315.45V317.94C624.788 318.06 624.408 318.15 623.988 318.21C623.568 318.27 623.068 318.3 622.488 318.3Z" fill="black"/>
<rect width="669.839" height="91.7809" transform="matrix(0.99998 -0.00629036 0.00346849 0.999994 13.0359 167.588)" fill="#E35E2B"/>
<rect x="0.551038" y="180.084" width="693" height="90.7859" transform="rotate(-2.34408 0.551038 180.084)" fill="white" stroke="black"/>
<path d="M48.9801 244.388C47.1483 244.463 45.7977 244.068 44.9283 243.202C44.0588 242.337 43.59 241.072 43.5219 239.407L42.6302 217.625L48.0257 217.404L48.8621 237.837C48.9235 239.336 49.6869 240.055 51.1523 239.995L53.2006 239.911L53.3765 244.208L48.9801 244.388ZM36.8403 244.885C35.0418 244.958 33.6912 244.563 32.7884 243.699C31.919 242.834 31.4502 241.569 31.382 239.904L30.4904 218.122L35.9358 217.899L36.7722 238.332C36.8336 239.831 37.597 240.55 39.0624 240.49L41.0608 240.408L41.2366 244.705L36.8403 244.885ZM68.7337 244.08C66.6354 244.165 64.7346 243.776 63.0311 242.912C61.3277 242.047 59.9521 240.636 58.9045 238.677C57.8555 236.685 57.2662 234.107 57.1367 230.943C56.9458 226.28 57.5826 222.684 59.0471 220.156C60.5115 217.627 62.6426 216.305 65.4403 216.191C66.8058 216.135 67.8984 216.341 68.7182 216.807C69.5699 217.24 70.3112 217.826 70.9421 218.568C71.6101 217.773 72.5008 217.12 73.6141 216.607C74.726 216.061 75.8649 215.764 77.0306 215.716C79.1954 215.628 80.8373 216.211 81.9562 217.466C83.0738 218.688 83.679 220.432 83.7717 222.697L84.5999 242.93L79.1545 243.153L78.359 223.719C78.3072 222.453 78.0865 221.545 77.6969 220.994C77.3394 220.408 76.6277 220.137 75.5619 220.18C74.8958 220.208 74.2871 220.416 73.7359 220.805C73.1847 221.195 72.7923 221.795 72.5586 222.605L69.5611 222.728C69.1287 221.945 68.6885 221.379 68.2405 221.03C67.7926 220.682 67.1689 220.524 66.3696 220.557C64.6377 220.627 63.5095 221.591 62.985 223.447C62.4605 225.304 62.2596 227.731 62.3823 230.728C62.5227 234.159 63.2037 236.533 64.4253 237.851C65.6469 239.168 67.3401 239.783 69.505 239.694C70.1378 239.668 70.7526 239.61 71.3493 239.519C71.9794 239.426 72.5082 239.305 72.9357 239.154L73.1055 243.3C72.5474 243.523 71.9208 243.699 71.2254 243.827C70.5301 243.956 69.6995 244.04 68.7337 244.08ZM77.9046 212.028L77.5692 203.835L83.0147 203.612L83.3501 211.805L77.9046 212.028ZM91.4184 242.651L91.0196 232.909C90.9597 231.443 91.1903 230.149 91.7115 229.027C92.2313 227.872 93.2317 227.047 94.7128 226.552L89.2621 225.424L89.033 219.829C90.3175 218.609 92.0231 217.488 94.1498 216.467C96.3084 215.411 98.8532 214.823 101.784 214.703C105.747 214.541 108.829 215.249 111.029 216.827C113.227 218.372 114.405 221.076 114.563 224.939L115.248 241.675L109.803 241.898L109.112 225.012C109.018 222.714 108.403 221.138 107.267 220.284C106.163 219.395 104.329 219.003 101.764 219.108C100.099 219.176 98.5597 219.472 97.1467 219.997C95.7336 220.522 94.6265 221.185 93.8252 221.985L93.862 222.884L99.6165 224.1L99.7638 227.697C98.4785 228.083 97.5844 228.653 97.0815 229.408C96.5786 230.162 96.3572 231.272 96.4172 232.738L96.8139 242.43L91.4184 242.651ZM129.971 241.573C128.272 241.642 126.712 241.439 125.292 240.964C123.903 240.453 122.768 239.616 121.886 238.451C121.003 237.253 120.521 235.671 120.441 233.706C120.333 231.075 121.132 228.99 122.837 227.453C124.576 225.914 127.16 225.074 130.591 224.934L138.834 224.596L138.764 222.898C138.684 220.933 138.128 219.587 137.098 218.862C136.099 218.103 134.268 217.777 131.603 217.886C130.038 217.95 128.527 218.112 127.069 218.372C125.645 218.631 124.244 219.022 122.864 219.545L122.692 215.349C123.973 214.862 125.458 214.451 127.145 214.115C128.865 213.745 130.591 213.524 132.323 213.453C136.253 213.292 139.184 214.006 141.117 215.595C143.049 217.151 144.087 219.677 144.23 223.174L144.938 240.46L139.492 240.683L139.006 228.793L131.112 229.116C129.247 229.192 127.844 229.566 126.905 230.239C125.997 230.876 125.574 231.961 125.637 233.493C125.697 234.959 126.154 235.958 127.01 236.49C127.899 237.02 129.31 237.246 131.242 237.167C132.574 237.113 133.717 236.932 134.672 236.626L134.842 240.773C134.216 240.965 133.489 241.129 132.66 241.263C131.833 241.43 130.937 241.533 129.971 241.573ZM131.813 209.871L131.515 202.577L136.011 202.393L136.154 205.89L149.093 205.36L148.999 209.167L131.813 209.871ZM163.63 240.195C159.767 240.353 156.698 239.561 154.425 237.82C152.185 236.076 150.99 233.373 150.84 229.709L150.166 213.223L155.611 213L156.294 229.686C156.385 231.918 157.035 233.526 158.243 234.511C159.484 235.494 161.221 235.94 163.452 235.849C165.717 235.756 167.411 235.169 168.534 234.089C169.691 233.008 170.224 231.351 170.132 229.12L169.449 212.434L174.845 212.213L175.52 228.699C175.67 232.363 174.7 235.155 172.61 237.075C170.52 238.996 167.527 240.035 163.63 240.195ZM192.361 239.019C190.262 239.105 188.362 238.716 186.658 237.851C184.955 236.987 183.579 235.575 182.531 233.616C181.482 231.624 180.893 229.046 180.764 225.882C180.573 221.219 181.21 217.624 182.674 215.095C184.138 212.566 186.27 211.245 189.067 211.13C190.433 211.074 191.525 211.28 192.345 211.747C193.197 212.179 193.938 212.766 194.569 213.507C195.237 212.713 196.128 212.059 197.241 211.546C198.353 211 199.492 210.704 200.657 210.656C202.822 210.567 204.464 211.151 205.583 212.406C206.701 213.628 207.306 215.371 207.399 217.636L208.227 237.869L202.781 238.092L201.986 218.658C201.934 217.393 201.713 216.484 201.324 215.933C200.966 215.347 200.255 215.076 199.189 215.12C198.523 215.147 197.914 215.355 197.363 215.745C196.812 216.134 196.419 216.734 196.185 217.545L193.188 217.667C192.756 216.884 192.315 216.318 191.867 215.97C191.42 215.621 190.796 215.463 189.997 215.496C188.265 215.567 187.136 216.53 186.612 218.387C186.087 220.243 185.887 222.67 186.009 225.668C186.15 229.098 186.831 231.472 188.052 232.79C189.274 234.108 190.967 234.722 193.132 234.634C193.765 234.608 194.379 234.549 194.976 234.458C195.606 234.366 196.135 234.244 196.563 234.093L196.732 238.239C196.174 238.462 195.548 238.638 194.852 238.767C194.157 238.895 193.326 238.979 192.361 239.019ZM195.539 207.262L195.35 202.666L191.404 202.828L191.25 199.081L198.944 198.766L199.13 203.312L209.921 202.87L209.877 206.675L195.539 207.262ZM224.708 237.695C222.576 237.782 220.553 237.665 218.638 237.343C216.757 237.019 215.172 236.617 213.885 236.136L213.316 222.248L224.007 221.81L224.427 225.946L218.732 226.18L219 232.724C219.777 232.959 220.651 233.14 221.624 233.267C222.629 233.36 223.597 233.387 224.53 233.348C227.494 233.227 229.547 232.442 230.689 230.995C231.862 229.512 232.377 227.006 232.232 223.475C232.132 221.011 231.753 219.091 231.096 217.717C230.438 216.309 229.398 215.351 227.976 214.842C226.586 214.298 224.708 214.075 222.344 214.172C220.912 214.23 219.417 214.392 217.86 214.656C216.303 214.92 214.834 215.313 213.454 215.837L213.283 211.64C214.662 211.117 216.246 210.685 218.034 210.345C219.854 210.003 221.681 209.795 223.513 209.72C228.242 209.527 231.705 210.586 233.901 212.898C236.096 215.177 237.289 218.631 237.478 223.26C237.663 227.79 236.755 231.28 234.754 233.731C232.753 236.181 229.404 237.503 224.708 237.695ZM253.943 236.498C253.177 236.529 252.326 236.514 251.389 236.452C250.452 236.391 249.63 236.258 248.921 236.053L240.57 217.879L245.866 217.663L252.624 232.399C255.494 232.415 257.542 231.513 258.769 229.695C259.994 227.843 260.531 225.069 260.38 221.372C260.291 219.207 260.022 217.517 259.572 216.301C259.12 215.052 258.401 214.197 257.415 213.737C256.461 213.242 255.151 213.029 253.486 213.097L251.587 213.175L251.419 209.078L254.017 208.972C257.881 208.814 260.737 209.731 262.587 211.724C264.437 213.716 265.449 216.844 265.623 221.107C265.768 224.638 265.352 227.524 264.376 229.766C263.399 231.974 261.999 233.633 260.176 234.742C258.385 235.816 256.308 236.401 253.943 236.498ZM277.575 235.03C275.744 235.105 274.393 234.71 273.524 233.845C272.654 232.98 272.185 231.715 272.117 230.049L271.207 207.818C271.127 205.853 271.41 204.207 272.056 202.879C272.702 201.552 273.576 200.498 274.679 199.719L266.336 200.061L266.16 195.764L281.097 195.153L281.265 199.249C279.463 200.057 278.209 201.193 277.501 202.656C276.826 204.085 276.537 205.998 276.635 208.396L277.457 228.48C277.493 229.346 277.651 229.94 277.931 230.262C278.243 230.549 278.848 230.675 279.748 230.638L282.046 230.544L282.222 234.84L277.575 235.03ZM298.917 234.657C295.054 234.815 291.985 234.023 289.712 232.282C287.472 230.538 286.277 227.835 286.127 224.171L285.453 207.685L290.898 207.462L291.581 224.148C291.672 226.38 292.322 227.988 293.53 228.973C294.771 229.956 296.508 230.402 298.739 230.311C301.004 230.218 302.698 229.632 303.821 228.551C304.978 227.47 305.511 225.813 305.42 223.582L304.409 198.903L309.805 198.682L310.807 223.161C310.957 226.825 309.987 229.617 307.897 231.537C305.807 233.458 302.814 234.498 298.917 234.657ZM317.586 233.392L316.688 211.461C316.628 209.995 316.978 208.78 317.74 207.815C318.533 206.815 319.695 206.283 321.227 206.221L326.373 206.01L326.795 210.196L324.197 210.303C323.364 210.337 322.773 210.561 322.423 210.976C322.105 211.356 321.963 211.979 321.999 212.845L322.533 225.884L328.659 214.173L330.857 214.083L337.92 225.254L337.114 205.57L342.31 205.358L343.414 232.335L338.069 232.554L329.979 219.524L322.931 233.174L317.586 233.392ZM358.1 232.234C356.401 232.304 354.842 232.101 353.421 231.625C352.032 231.115 350.897 230.277 350.015 229.112C349.132 227.914 348.651 226.333 348.57 224.368C348.462 221.736 349.261 219.652 350.966 218.114C352.705 216.575 355.289 215.736 358.72 215.595L366.963 215.258L366.893 213.559C366.813 211.594 366.258 210.249 365.227 209.524C364.228 208.764 362.397 208.439 359.732 208.548C358.167 208.612 356.656 208.774 355.199 209.034C353.775 209.292 352.373 209.683 350.993 210.207L350.821 206.01C352.102 205.524 353.587 205.113 355.275 204.777C356.994 204.406 358.72 204.186 360.452 204.115C364.382 203.954 367.313 204.668 369.247 206.257C371.179 207.812 372.216 210.339 372.359 213.836L373.067 231.121L367.621 231.344L367.135 219.454L359.241 219.777C357.376 219.854 355.974 220.228 355.034 220.9C354.126 221.538 353.703 222.623 353.766 224.155C353.826 225.62 354.284 226.619 355.14 227.151C356.029 227.682 357.439 227.908 359.371 227.829C360.703 227.774 361.847 227.594 362.802 227.288L362.971 231.435C362.345 231.627 361.618 231.79 360.789 231.924C359.962 232.091 359.066 232.195 358.1 232.234ZM350.95 200.901L351.044 197.094L371.627 196.251L371.782 200.048L350.95 200.901ZM389.461 230.951C387.363 231.037 385.462 230.647 383.759 229.783C382.055 228.919 380.68 227.507 379.632 225.548C378.583 223.556 377.994 220.978 377.864 217.814C377.673 213.151 378.31 209.556 379.775 207.027C381.239 204.498 383.37 203.177 386.168 203.062C387.533 203.006 388.626 203.212 389.446 203.678C390.297 204.111 391.039 204.697 391.67 205.439C392.338 204.644 393.228 203.991 394.342 203.478C395.454 202.932 396.592 202.635 397.758 202.588C399.923 202.499 401.565 203.082 402.684 204.338C403.801 205.56 404.406 207.303 404.499 209.568L405.327 229.801L399.882 230.024L399.086 210.59C399.035 209.324 398.814 208.416 398.424 207.865C398.067 207.279 397.355 207.008 396.289 207.051C395.623 207.079 395.015 207.287 394.463 207.677C393.912 208.066 393.52 208.666 393.286 209.476L390.289 209.599C389.856 208.816 389.416 208.25 388.968 207.902C388.52 207.553 387.896 207.395 387.097 207.428C385.365 207.499 384.237 208.462 383.712 210.319C383.188 212.175 382.987 214.602 383.11 217.599C383.25 221.03 383.931 223.404 385.153 224.722C386.374 226.039 388.068 226.654 390.232 226.565C390.865 226.54 391.48 226.481 392.077 226.39C392.707 226.297 393.236 226.176 393.663 226.025L393.833 230.171C393.275 230.394 392.648 230.57 391.953 230.699C391.258 230.827 390.427 230.911 389.461 230.951ZM411.696 229.54L410.592 202.563L415.538 202.36L415.958 205.295C417.147 204.179 418.512 203.289 420.052 202.626C421.592 201.929 423.377 201.539 425.409 201.456C428.273 201.338 430.523 202.097 432.158 203.732C433.826 205.365 434.723 207.713 434.848 210.777L435.576 228.563L430.181 228.783L429.463 211.248C429.383 209.283 428.858 207.887 427.89 207.059C426.922 206.231 425.506 205.855 423.641 205.932C422.142 205.993 420.756 206.367 419.483 207.053C418.209 207.705 417.158 208.516 416.33 209.484L417.142 229.317L411.696 229.54ZM413.495 198.34L413.59 194.533L429.676 193.875L429.506 189.728L434.003 189.544L434.328 197.488L413.495 198.34ZM429.412 187.43L429.128 180.486L433.624 180.302L433.908 187.246L429.412 187.43ZM452.006 228.39C449.908 228.476 448.007 228.087 446.304 227.223C444.6 226.358 443.225 224.947 442.177 222.988C441.128 220.996 440.539 218.418 440.409 215.254C440.219 210.591 440.855 206.995 442.32 204.467C443.784 201.938 445.915 200.616 448.713 200.502C450.079 200.446 451.171 200.651 451.991 201.118C452.843 201.55 453.584 202.137 454.215 202.879C454.883 202.084 455.774 201.43 456.887 200.918C457.999 200.372 459.138 200.075 460.303 200.027C462.468 199.939 464.11 200.522 465.229 201.777C466.347 202.999 466.952 204.743 467.044 207.007L467.873 227.24L462.427 227.463L461.632 208.03C461.58 206.764 461.359 205.856 460.97 205.304C460.612 204.719 459.9 204.447 458.835 204.491C458.169 204.518 457.56 204.727 457.009 205.116C456.458 205.506 456.065 206.106 455.831 206.916L452.834 207.039C452.401 206.256 451.961 205.69 451.513 205.341C451.065 204.993 450.442 204.835 449.642 204.867C447.91 204.938 446.782 205.902 446.258 207.758C445.733 209.615 445.532 212.041 445.655 215.039C445.795 218.469 446.476 220.844 447.698 222.161C448.92 223.479 450.613 224.094 452.778 224.005C453.411 223.979 454.025 223.921 454.622 223.83C455.252 223.737 455.781 223.615 456.208 223.464L456.378 227.611C455.82 227.834 455.194 228.01 454.498 228.138C453.803 228.267 452.972 228.351 452.006 228.39ZM461.177 196.338L460.842 188.145L466.287 187.922L466.623 196.116L461.177 196.338ZM484.433 226.563L483.738 209.577C483.682 208.211 483.486 207.085 483.149 206.198C482.812 205.311 482.219 204.668 481.369 204.269C480.517 203.837 479.275 203.654 477.643 203.721C476.577 203.765 475.416 203.929 474.16 204.214C472.938 204.498 471.835 204.86 470.852 205.3L470.68 201.104C471.662 200.63 472.846 200.231 474.234 199.907C475.654 199.549 477.08 199.341 478.512 199.282C482.109 199.135 484.739 199.811 486.402 201.311C488.098 202.809 489.015 205.257 489.155 208.654L489.878 226.34L484.433 226.563ZM506.856 226.145C506.09 226.176 505.239 226.161 504.302 226.1C503.366 226.038 502.543 225.905 501.834 225.7L493.484 207.526L498.779 207.31L505.537 222.046C508.407 222.062 510.455 221.16 511.682 219.342C512.907 217.49 513.444 214.716 513.293 211.019C513.204 208.854 512.935 207.164 512.485 205.948C512.033 204.699 511.314 203.844 510.328 203.384C509.374 202.889 508.064 202.676 506.399 202.744L504.5 202.822L504.333 198.725L506.93 198.619C510.794 198.461 513.65 199.378 515.5 201.371C517.35 203.364 518.362 206.491 518.536 210.755C518.681 214.285 518.265 217.171 517.29 219.413C516.312 221.621 514.912 223.28 513.09 224.389C511.299 225.463 509.221 226.048 506.856 226.145ZM536.804 224.919C532.94 225.077 529.872 224.286 527.599 222.544C525.359 220.801 524.164 218.097 524.014 214.434L523.339 197.947L528.785 197.724L529.468 214.41C529.559 216.642 530.209 218.25 531.417 219.235C532.658 220.218 534.394 220.664 536.626 220.573C538.891 220.48 540.585 219.894 541.708 218.814C542.865 217.732 543.398 216.075 543.306 213.844L542.296 189.165L547.691 188.944L548.694 213.423C548.844 217.087 547.874 219.879 545.784 221.799C543.694 223.72 540.701 224.76 536.804 224.919ZM564.335 223.792C562.57 223.864 560.85 223.818 559.175 223.653C557.534 223.487 556.171 223.209 555.088 222.82L554.902 218.273C556.188 218.721 557.569 219.048 559.045 219.255C560.555 219.46 561.926 219.537 563.158 219.487C565.456 219.393 567.147 219.123 568.23 218.679C569.311 218.201 569.824 217.296 569.77 215.963C569.73 214.998 569.417 214.276 568.83 213.8C568.244 213.324 567.393 212.925 566.279 212.603C565.164 212.249 563.779 211.838 562.126 211.372C560.572 210.902 559.166 210.376 557.907 209.793C556.649 209.211 555.634 208.452 554.862 207.516C554.123 206.579 553.723 205.378 553.663 203.912C553.567 201.547 554.389 199.645 556.132 198.206C557.873 196.734 560.559 195.923 564.189 195.775C565.721 195.712 567.242 195.767 568.75 195.938C570.258 196.11 571.502 196.343 572.482 196.636L572.666 201.133C571.549 200.745 570.304 200.479 568.93 200.335C567.588 200.156 566.334 200.091 565.169 200.138C563.237 200.217 561.697 200.497 560.549 200.978C559.4 201.425 558.851 202.282 558.903 203.547C558.937 204.38 559.264 205.034 559.884 205.509C560.502 205.951 561.369 206.349 562.485 206.704C563.632 207.024 565 207.418 566.587 207.887C568.375 208.381 569.883 208.953 571.111 209.603C572.337 210.22 573.27 211.016 573.911 211.991C574.583 212.931 574.951 214.183 575.015 215.749C575.123 218.38 574.203 220.352 572.255 221.667C570.339 222.946 567.699 223.655 564.335 223.792ZM578.971 206.129L578.705 199.634L583.351 199.444L583.451 201.892L590.795 201.591L590.761 205.646L578.971 206.129ZM579.527 219.717L579.261 213.223L583.907 213.033L584.009 215.531L591.353 215.23L591.317 219.235L579.527 219.717ZM602.189 221.742C600.358 221.817 599.007 221.422 598.138 220.557C597.268 219.692 596.799 218.427 596.731 216.761L595.84 194.98L601.235 194.759L602.071 215.192C602.133 216.69 602.896 217.41 604.362 217.35L606.66 217.256L606.836 221.552L602.189 221.742ZM612.163 221.334L611.059 194.357L616.005 194.154L616.425 197.089C617.614 195.973 618.979 195.083 620.519 194.42C622.059 193.723 623.844 193.333 625.876 193.25C628.74 193.132 630.99 193.891 632.625 195.525C634.293 197.159 635.19 199.507 635.315 202.571L636.043 220.356L630.648 220.577L629.93 203.042C629.849 201.077 629.325 199.681 628.357 198.853C627.389 198.025 625.973 197.649 624.108 197.726C622.609 197.787 621.223 198.161 619.95 198.847C618.676 199.499 617.624 200.31 616.797 201.278L617.609 221.111L612.163 221.334ZM642.411 220.096L641.712 203.01C641.578 199.746 642.456 197.158 644.347 195.246C646.237 193.334 649.296 192.291 653.526 192.118C654.392 192.082 655.227 192.098 656.03 192.165C656.832 192.199 657.57 192.286 658.243 192.425L668.184 192.018L668.108 196.275L664.362 196.428C664.994 197.203 665.429 198.053 665.667 198.977C665.905 199.901 666.046 200.913 666.091 202.012L666.791 219.098L661.345 219.321L660.626 201.735C660.548 199.837 659.908 198.479 658.707 197.66C657.505 196.809 655.838 196.427 653.706 196.514C651.475 196.605 649.795 197.125 648.666 198.072C647.569 198.984 647.059 200.389 647.137 202.288L647.364 207.833C648.78 206.574 650.504 205.903 652.536 205.82L655.783 205.687L656.161 210.025L652.564 210.172C650.532 210.255 648.857 210.891 647.538 212.079L647.857 219.873L642.411 220.096Z" fill="#DE5850"/>
</svg>
