<svg width="558" height="95" viewBox="0 0 558 95" fill="none" xmlns="http://www.w3.org/2000/svg">
<rect x="2.3026" y="0.512278" width="426" height="72" transform="rotate(1.42485 2.3026 0.512278)" fill="white" stroke="black"/>
<path d="M22.3166 52.5262L22.6568 38.8504C22.7218 36.2379 23.5589 34.2181 25.1682 32.791C26.7776 31.3639 29.275 30.6925 32.6607 30.7767C36.0729 30.8616 38.5206 31.656 40.0037 33.16C41.5134 34.6647 42.2357 36.7233 42.1708 39.3358L41.8306 53.0116L37.4719 52.9032L37.8221 38.8275C37.8599 37.308 37.4208 36.1901 36.505 35.4737C35.5899 34.7307 34.2793 34.338 32.5731 34.2956C30.787 34.2512 29.4185 34.5772 28.4675 35.2738C27.5439 35.9444 27.0632 37.0394 27.0254 38.559L26.915 42.9976C28.1118 42.0671 29.5233 41.622 31.1495 41.6625L33.7487 41.7271L33.8221 45.21L30.943 45.1384C29.3168 45.098 27.946 45.5173 26.8304 46.3965L26.6753 52.6346L22.3166 52.5262ZM53.9863 53.7141C52.5734 53.6789 51.2028 53.5515 49.8745 53.3317C48.5729 53.1126 47.4998 52.8192 46.6554 52.4514L46.7459 48.8125C47.749 49.2376 48.8343 49.5713 50.002 49.8138C51.1963 50.0569 52.2867 50.1907 53.273 50.2152C55.1125 50.261 56.476 50.1349 57.3637 49.8368C58.2521 49.5122 58.7095 48.8167 58.736 47.7503C58.7553 46.9772 58.5432 46.3851 58.1 45.9739C57.6568 45.5628 56.9989 45.1997 56.1265 44.8845C55.2547 44.5428 54.171 44.1424 52.8753 43.6833C51.6597 43.2263 50.5649 42.7322 49.5912 42.2012C48.6174 41.6702 47.8469 41.0108 47.2797 40.2231C46.7391 39.4361 46.4833 38.4561 46.5125 37.2831C46.5596 35.3904 47.3165 33.9154 48.7833 32.8582C50.2507 31.7744 52.4372 31.2686 55.343 31.3409C56.5693 31.3714 57.7799 31.4948 58.9749 31.7113C60.1699 31.9277 61.1506 32.1789 61.9171 32.4647L61.8276 36.0636C60.9565 35.6951 59.9764 35.4173 58.8874 35.2302C57.8257 35.0171 56.8283 34.8989 55.8953 34.8757C54.3491 34.8372 53.1052 34.9797 52.1635 35.303C51.2225 35.5997 50.7394 36.2546 50.7142 37.2676C50.6976 37.9341 50.9243 38.4732 51.3942 38.885C51.8648 39.2702 52.5359 39.6336 53.4077 39.9754C54.3068 40.2912 55.3775 40.6779 56.6199 41.1356C58.0215 41.624 59.1952 42.16 60.141 42.7437C61.0874 43.3007 61.7906 43.9851 62.2506 44.7968C62.7378 45.5825 62.9659 46.6018 62.9347 47.8547C62.8823 49.9608 62.0441 51.4871 60.4201 52.4336C58.8234 53.3542 56.6788 53.781 53.9863 53.7141ZM75.2259 53.8422L75.5641 40.2464C75.5913 39.1534 75.4938 38.2441 75.2718 37.5183C75.0498 36.7926 74.6099 36.2481 73.952 35.885C73.2948 35.4952 72.3131 35.2841 71.0069 35.2516C70.1538 35.2304 69.2184 35.3004 68.2008 35.4619C67.2098 35.6239 66.3104 35.855 65.5027 36.155L65.5862 32.796C66.3946 32.4694 67.3613 32.2133 68.4862 32.0279C69.6385 31.8165 70.7878 31.725 71.9341 31.7535C74.8132 31.8252 76.877 32.5034 78.1255 33.7881C79.4006 35.0736 80.0043 37.0759 79.9366 39.795L79.5845 53.9506L75.2259 53.8422ZM88.559 54.1739L84.0976 32.4562L88.3763 32.5626L91.1914 48.0774L95.4175 35.8187L95.4941 32.7397L98.6131 32.8173L102.588 48.3609L107.49 26.6361L111.728 26.7415L104.834 54.5787L100.835 54.4792L97.1786 40.624L92.5177 54.2723L88.559 54.1739ZM121.722 55.3989C120.043 55.3571 118.546 54.9464 117.231 54.1668C115.917 53.3872 114.893 52.1881 114.16 50.5693C113.427 48.924 113.092 46.835 113.155 44.3024C113.248 40.5702 113.946 37.7334 115.248 35.7918C116.55 33.8503 118.32 32.9073 120.56 32.963C121.653 32.9902 122.514 33.2117 123.144 33.6275C123.801 34.0173 124.362 34.5247 124.827 35.1498C125.402 34.5506 126.147 34.0756 127.063 33.725C127.979 33.3476 128.904 33.1706 129.837 33.1938C131.57 33.2369 132.85 33.7889 133.677 34.8498C134.505 35.884 134.896 37.3075 134.851 39.1203L134.448 55.3153L130.09 55.2069L130.476 39.6517C130.502 38.6387 130.373 37.9019 130.091 37.4414C129.837 36.9549 129.283 36.7011 128.43 36.6799C127.897 36.6666 127.4 36.801 126.939 37.0829C126.479 37.3649 126.134 37.8231 125.905 38.4576L123.505 38.398C123.201 37.7502 122.88 37.2754 122.541 36.9735C122.201 36.6717 121.712 36.5128 121.072 36.4969C119.686 36.4624 118.734 37.1723 118.218 38.6266C117.702 40.0808 117.414 42.0076 117.354 44.4069C117.286 47.1527 117.705 49.0837 118.611 50.1999C119.516 51.3161 120.836 51.8958 122.568 51.9389C123.075 51.9515 123.569 51.9371 124.05 51.8957C124.558 51.855 124.986 51.7856 125.336 51.6876L125.253 55.0066C124.796 55.1552 124.286 55.2626 123.725 55.3286C123.163 55.3947 122.495 55.4181 121.722 55.3989ZM125.609 30.2077L125.754 24.3695L137.511 24.662L137.275 27.697L129.278 27.4981L129.208 30.2973L125.609 30.2077ZM143.825 55.5485C142.358 55.5121 141.301 55.1256 140.653 54.3893C140.004 53.6529 139.696 52.6183 139.729 51.2854L140.163 33.8508L144.482 33.9582L144.075 50.3131C144.045 51.5128 144.617 52.1272 145.79 52.1563L147.629 52.2021L147.544 55.641L143.825 55.5485ZM161.675 56.3926C158.582 56.3157 156.175 55.5223 154.452 54.0123C152.755 52.503 151.944 50.2821 152.017 47.3497L152.345 34.1538L156.704 34.2622L156.371 47.6181C156.327 49.4042 156.761 50.722 157.673 51.5717C158.613 52.4219 159.975 52.8693 161.761 52.9137C163.574 52.9588 164.957 52.5797 165.911 51.7765C166.891 50.974 167.404 49.6797 167.448 47.8936L167.78 34.5377L172.099 34.6451L171.771 47.841C171.698 50.7735 170.777 52.9512 169.007 54.3743C167.238 55.7975 164.794 56.4702 161.675 56.3926ZM155.509 30.9515L155.785 27.9174L168.661 28.2376L168.743 24.9187L172.342 25.0082L172.184 31.3662L155.509 30.9515ZM185.671 56.9895C183.752 56.9418 182.051 56.6727 180.57 56.1824C179.088 55.6921 177.92 54.9428 177.064 53.9346C176.236 52.927 175.842 51.6101 175.882 49.9839C175.91 48.8909 176.187 47.9375 176.714 47.1237C177.241 46.2833 178.004 45.6354 179.003 45.18C178.184 44.8396 177.505 44.2759 176.964 43.4888C176.45 42.7025 176.208 41.7361 176.236 40.5898C176.287 38.5371 176.952 37.0065 178.231 35.998C179.537 34.9635 181.176 34.4708 183.149 34.5199C183.922 34.5391 184.587 34.609 185.145 34.7295C185.702 34.8234 186.206 34.956 186.655 35.1272L186.573 38.4462C185.805 38.2137 184.901 38.0845 183.861 38.0587C182.795 38.0321 181.963 38.2248 181.366 38.6368C180.769 39.0487 180.459 39.7346 180.435 40.6943C180.41 41.7073 180.725 42.4487 181.38 42.9185C182.036 43.3616 182.95 43.5977 184.123 43.6269L186.402 43.6836L186.522 46.9275L183.962 46.8639C181.43 46.8009 180.136 47.8757 180.081 50.0884C180.054 51.1814 180.486 52.0191 181.379 52.6014C182.272 53.1571 183.665 53.4585 185.558 53.5056C189.317 53.5991 191.234 52.113 191.31 49.0473L191.657 35.1316L195.975 35.239L195.642 48.6349C195.57 51.5406 194.703 53.6797 193.042 55.0522C191.38 56.4246 188.923 57.0704 185.671 56.9895ZM207.572 57.5343C206.159 57.4991 204.788 57.3717 203.46 57.1519C202.158 56.9328 201.085 56.6394 200.241 56.2716L200.331 52.6327C201.334 53.0578 202.42 53.3915 203.587 53.634C204.782 53.8771 205.872 54.0109 206.858 54.0354C208.698 54.0812 210.061 53.9551 210.949 53.657C211.837 53.3324 212.295 52.6369 212.321 51.5705C212.341 50.7974 212.129 50.2053 211.685 49.7941C211.242 49.383 210.584 49.0199 209.712 48.7047C208.84 48.363 207.756 47.9626 206.461 47.5035C205.245 47.0465 204.15 46.5524 203.176 46.0214C202.203 45.4904 201.432 44.831 200.865 44.0433C200.324 43.2563 200.069 42.2763 200.098 41.1033C200.145 39.2106 200.902 37.7356 202.369 36.6784C203.836 35.5946 206.023 35.0888 208.928 35.1611C210.155 35.1916 211.365 35.315 212.56 35.5315C213.755 35.7479 214.736 35.9991 215.502 36.2849L215.413 39.8838C214.542 39.5153 213.562 39.2375 212.473 39.0504C211.411 38.8373 210.414 38.7191 209.481 38.6959C207.934 38.6574 206.69 38.7999 205.749 39.1232C204.808 39.4199 204.325 40.0748 204.3 41.0878C204.283 41.7543 204.51 42.2934 204.98 42.7052C205.45 43.0904 206.121 43.4538 206.993 43.7956C207.892 44.1114 208.963 44.4981 210.205 44.9558C211.607 45.4442 212.78 45.9802 213.726 46.5639C214.673 47.1209 215.376 47.8053 215.836 48.617C216.323 49.4027 216.551 50.422 216.52 51.675C216.468 53.781 215.629 55.3073 214.005 56.2538C212.409 57.1744 210.264 57.6012 207.572 57.5343ZM206.717 32.2252L206.862 26.387L218.618 26.6794L218.383 29.7145L210.385 29.5156L210.316 32.3147L206.717 32.2252ZM227.322 58.0255C225.962 57.9917 224.728 57.7476 223.619 57.2932C222.51 56.8122 221.635 56.0835 220.992 55.1072C220.377 54.1049 220.089 52.8174 220.128 51.2445C220.18 49.1385 220.928 47.5166 222.37 46.3788C223.812 45.2409 225.919 44.7065 228.692 44.7755L235.29 44.9396L235.323 43.58C235.363 42.0072 234.99 40.9042 234.205 40.2712C233.421 39.6115 231.963 39.2551 229.831 39.2021C228.604 39.1716 227.403 39.2217 226.226 39.3525C225.049 39.4833 223.896 39.7213 222.767 40.0667L222.85 36.7077C223.899 36.387 225.119 36.1373 226.51 35.9585C227.902 35.7531 229.292 35.6676 230.678 35.7021C231.371 35.7193 232.023 35.7755 232.634 35.8708C233.273 35.94 233.857 36.0479 234.387 36.1944L241.625 36.3745L241.3 39.7674L238.781 39.7048C239.139 40.3005 239.376 40.9733 239.491 41.7231C239.606 42.4462 239.653 43.2342 239.632 44.0873L239.288 57.923L234.969 57.8156L235.206 48.2985L228.848 48.1404C227.382 48.1039 226.256 48.3293 225.47 48.8166C224.712 49.2779 224.317 50.1217 224.287 51.348C224.258 52.5209 224.571 53.3423 225.226 53.8121C225.908 54.2825 227.022 54.537 228.568 54.5754C229.048 54.5874 229.528 54.5726 230.009 54.5313C230.517 54.4905 230.946 54.4212 231.295 54.3232L231.212 57.6421C230.729 57.7635 230.153 57.8559 229.485 57.9193C228.816 58.0093 228.095 58.0447 227.322 58.0255ZM230.342 32.8128L230.488 26.9746L234.087 27.0641L234.017 29.8633L244.374 30.1209L244.098 33.155L230.342 32.8128ZM269.233 61.1086C267.927 61.0761 266.544 60.9084 265.084 60.6053C263.625 60.3022 262.343 59.8302 261.238 59.1892L261.325 55.7103C262.088 56.1294 262.933 56.4839 263.859 56.7737C264.813 57.0374 265.755 57.2476 266.684 57.4041C267.641 57.5346 268.493 57.6091 269.24 57.6277C271.106 57.6741 272.537 57.4963 273.534 57.0943C274.531 56.6923 275.038 56.1448 275.055 55.4516C275.068 54.9451 274.892 54.5006 274.528 54.1181C273.879 54.4754 273.112 54.7631 272.226 54.9812C271.341 55.1992 270.338 55.2943 269.218 55.2664C262.9 55.1093 259.814 52.0983 259.96 46.2334L259.993 44.9138C260.039 43.0744 259.657 41.7845 258.849 41.0442C258.068 40.2779 256.704 39.8705 254.758 39.8221C253.452 39.7896 252.234 39.946 251.105 40.2914C249.976 40.6368 249.071 41.1077 248.389 41.7043L248.371 42.4241L252.901 43.6971L252.829 46.5762C251.783 46.817 251.039 47.2253 250.598 47.8011C250.157 48.377 249.922 49.2514 249.893 50.4244L249.828 53.0236C249.813 53.6367 249.935 54.0799 250.195 54.3531C250.455 54.6264 250.878 54.7703 251.465 54.7848L253.664 54.8395L253.579 58.2785L249.26 58.1711C248.06 58.1412 247.123 57.7445 246.449 56.9808C245.774 56.2171 245.452 55.2355 245.482 54.0358L245.575 50.277C245.604 49.104 245.856 48.0833 246.331 47.2149C246.807 46.3197 247.649 45.7138 248.857 45.3971L244.566 44.21L244.677 39.7314C245.767 38.8249 247.187 38.02 248.938 37.3166C250.69 36.5866 252.713 36.2501 255.005 36.3072C258.071 36.3834 260.387 37.1079 261.953 38.4806C263.547 39.8273 264.305 42.0469 264.229 45.1392L264.195 46.4988C264.15 48.2849 264.531 49.6015 265.337 50.4484C266.169 51.2961 267.492 51.7424 269.305 51.7875C271.118 51.8326 272.447 51.4522 273.294 50.6464C274.168 49.8412 274.627 48.5455 274.672 46.7594L274.909 37.2024L279.228 37.3098L278.994 46.7069C278.938 48.9462 278.401 50.72 277.381 52.0284C277.824 52.4662 278.171 53.0084 278.421 53.6548C278.699 54.3019 278.828 55.012 278.808 55.7851C278.764 57.5712 277.903 58.9235 276.227 59.8421C274.577 60.7614 272.245 61.1835 269.233 61.1086ZM292.666 59.6508C289.627 59.5752 287.338 58.8114 285.8 57.3594C284.289 55.9081 283.566 53.9028 283.629 51.3436L283.682 49.2242C283.703 48.3712 283.896 47.589 284.261 46.8779C284.652 46.1674 285.081 45.5245 285.549 44.9493C286.044 44.3481 286.471 43.7986 286.83 43.3007C287.217 42.7768 287.416 42.2883 287.427 41.8351C287.438 41.4085 287.351 41.1263 287.168 40.9884C286.985 40.8504 286.653 40.7755 286.173 40.7636L283.414 40.6949L283.856 37.4249L288.894 37.5502C290.92 37.6006 291.909 38.5988 291.86 40.5449C291.838 41.4513 291.631 42.2597 291.24 42.9702C290.875 43.6814 290.432 44.3639 289.909 45.0178C289.412 45.6723 288.968 46.3548 288.577 47.0653C288.213 47.7498 288.021 48.5186 288 49.3716L287.939 51.8109C287.903 53.2771 288.302 54.3674 289.138 55.0817C290.001 55.7701 291.206 56.1335 292.752 56.1719C294.325 56.211 295.547 55.8946 296.417 55.2227C297.314 54.5515 297.781 53.4561 297.819 51.9366L297.885 49.2974C297.916 48.0445 297.737 47.1731 297.349 46.6833C296.962 46.1668 296.222 45.895 295.129 45.8678L294.009 45.84L294.288 42.6859L295.088 42.7058C296.207 42.7337 296.987 42.4863 297.427 41.9638C297.867 41.4145 298.102 40.5668 298.13 39.4205L298.181 37.3811L302.54 37.4895L302.491 39.4489C302.46 40.7018 302.247 41.7369 301.854 42.554C301.46 43.3445 300.672 43.9517 299.488 44.3757C300.701 44.9128 301.471 45.5988 301.797 46.4338C302.123 47.2688 302.271 48.2995 302.24 49.5258L302.185 51.7651C302.121 54.3243 301.245 56.3031 299.556 57.7016C297.868 59.0734 295.571 59.7231 292.666 59.6508ZM315.23 59.812L315.568 46.2162C315.595 45.1232 315.498 44.2138 315.276 43.4881C315.054 42.7623 314.614 42.2179 313.956 41.8547C313.299 41.4649 312.317 41.2538 311.011 41.2213C310.158 41.2001 309.222 41.2702 308.205 41.4316C307.214 41.5937 306.314 41.8247 305.507 42.1247L305.59 38.7658C306.399 38.4391 307.365 38.183 308.49 37.9976C309.642 37.7862 310.792 37.6948 311.938 37.7233C314.817 37.7949 316.881 38.4731 318.129 39.7579C319.404 41.0433 320.008 43.0456 319.941 45.7648L319.588 59.9204L315.23 59.812ZM332.712 60.6469C331.032 60.6051 329.535 60.1945 328.221 59.4149C326.907 58.6353 325.883 57.4361 325.149 55.8174C324.417 54.172 324.082 52.083 324.145 49.5505C324.238 45.8183 324.935 42.9814 326.237 41.0399C327.539 39.0983 329.31 38.1554 331.549 38.2111C332.642 38.2383 333.504 38.4598 334.133 38.8755C334.791 39.2653 335.351 39.7728 335.816 40.3979C336.391 39.7986 337.137 39.3237 338.052 38.973C338.969 38.5957 339.893 38.4186 340.826 38.4418C342.559 38.4849 343.839 39.0369 344.666 40.0978C345.494 41.1321 345.886 42.5556 345.84 44.3683L345.438 60.5633L341.079 60.4549L341.466 44.8997C341.491 43.8867 341.363 43.15 341.081 42.6895C340.826 42.203 340.272 41.9491 339.419 41.9279C338.886 41.9147 338.389 42.049 337.929 42.331C337.468 42.613 337.123 43.0712 336.894 43.7057L334.495 43.646C334.191 42.9982 333.869 42.5234 333.53 42.2216C333.191 41.9197 332.701 41.7608 332.061 41.7449C330.675 41.7104 329.724 42.4203 329.208 43.8746C328.691 45.3289 328.403 47.2556 328.344 49.6549C328.275 52.4007 328.694 54.3317 329.6 55.4479C330.506 56.5641 331.825 57.1438 333.558 57.1869C334.064 57.1995 334.558 57.1851 335.039 57.1437C335.547 57.103 335.976 57.0336 336.325 56.9356L336.242 60.2546C335.785 60.4033 335.276 60.5106 334.714 60.5767C334.152 60.6427 333.485 60.6661 332.712 60.6469ZM329.401 35.2767L329.676 32.2427L346.151 32.6524L346.076 35.6915L329.401 35.2767ZM355.374 60.8105C353.908 60.774 352.85 60.3876 352.202 59.6513C351.553 58.9149 351.246 57.8803 351.279 56.5473L351.721 38.7528C351.76 37.18 352.073 35.8807 352.659 34.8549C353.244 33.8292 353.998 33.0343 354.919 32.4704L348.241 32.3043L348.326 28.8654L360.282 29.1628L360.201 32.4417C358.72 32.9918 357.659 33.8323 357.017 34.9634C356.403 36.0684 356.072 37.5807 356.024 39.5001L355.624 55.5751C355.607 56.2682 355.702 56.7507 355.908 57.0226C356.142 57.2685 356.619 57.4004 357.339 57.4183L359.178 57.4641L359.093 60.903L355.374 60.8105ZM362.563 60.9893L363.1 39.396L367.059 39.4944L367.24 41.8597C368.248 41.0312 369.384 40.3925 370.649 39.9439C371.914 39.4685 373.36 39.2511 374.986 39.2915C377.279 39.3485 379.035 40.0724 380.254 41.4632C381.5 42.8546 382.092 44.7766 382.031 47.2291L381.677 61.4647L377.358 61.3573L377.708 47.3217C377.747 45.7488 377.402 44.6065 376.672 43.8949C375.943 43.1832 374.832 42.8088 373.339 42.7716C372.14 42.7418 371.014 42.9672 369.961 43.4478C368.91 43.9018 368.028 44.4934 367.316 45.2226L366.922 61.0977L362.563 60.9893ZM395.801 62.2162C393.882 62.1684 392.182 61.8994 390.7 61.4091C389.218 60.9188 388.05 60.1695 387.195 59.1612C386.366 58.1536 385.972 56.8368 386.013 55.2106C386.04 54.1176 386.317 53.1642 386.844 52.3504C387.372 51.5099 388.135 50.862 389.133 50.4067C388.315 50.0663 387.635 49.5025 387.095 48.7155C386.581 47.9291 386.338 46.9628 386.366 45.8165C386.417 43.7638 387.082 42.2332 388.361 41.2247C389.667 40.1902 391.307 39.6975 393.279 39.7465C394.053 39.7658 394.718 39.8356 395.275 39.9562C395.833 40.0501 396.336 40.1827 396.785 40.3539L396.703 43.6729C395.935 43.4404 395.031 43.3112 393.992 43.2853C392.925 43.2588 392.094 43.4515 391.497 43.8635C390.899 44.2754 390.589 44.9612 390.565 45.9209C390.54 46.934 390.855 47.6754 391.51 48.1451C392.166 48.5882 393.08 48.8244 394.253 48.8536L396.533 48.9102L396.652 52.1542L394.093 52.0906C391.56 52.0276 390.266 53.1024 390.211 55.315C390.184 56.408 390.617 57.2457 391.509 57.8281C392.402 58.3838 393.795 58.6852 395.688 58.7323C399.447 58.8258 401.364 57.3397 401.441 54.274L401.787 40.3583L406.106 40.4657L405.772 53.8615C405.7 56.7673 404.833 58.9064 403.172 60.2789C401.511 61.6513 399.054 62.2971 395.801 62.2162Z" fill="black"/>
<rect x="412.152" y="49.5763" width="143" height="44" transform="rotate(-2.50342 412.152 49.5763)" fill="white" stroke="black"/>
<path d="M431.54 85.2634C430.441 85.3115 429.63 85.0767 429.107 84.559C428.584 84.0414 428.3 83.283 428.257 82.284L427.674 68.9467C427.622 67.7679 427.789 66.7796 428.175 65.982C428.56 65.1844 429.083 64.551 429.743 64.0817L424.738 64.3005L424.625 61.723L433.587 61.3312L433.694 63.7888C432.614 64.2765 431.863 64.9599 431.441 65.8392C431.039 66.6976 430.869 67.8461 430.931 69.2848L431.458 81.3332C431.481 81.8527 431.577 82.2089 431.745 82.4017C431.933 82.5737 432.296 82.6479 432.836 82.6243L434.215 82.564L434.327 85.1416L431.54 85.2634ZM444.344 85.0039C442.027 85.1052 440.184 84.6353 438.817 83.594C437.471 82.5518 436.749 80.9318 436.653 78.7339L436.221 68.8433L439.488 68.7005L439.925 78.7109C439.984 80.0496 440.376 81.0134 441.103 81.6022C441.849 82.1902 442.892 82.4549 444.23 82.3964C445.589 82.337 446.604 81.9823 447.277 81.3323C447.969 80.6815 448.286 79.6867 448.227 78.3479L447.58 63.5421L450.817 63.4006L451.459 78.0865C451.555 80.2844 450.978 81.9613 449.727 83.117C448.476 84.2727 446.682 84.9017 444.344 85.0039ZM455.543 84.214L454.968 71.0566C454.93 70.1774 455.138 69.4476 455.593 68.8672C456.067 68.2659 456.764 67.9451 457.683 67.905L460.77 67.77L461.03 70.281L459.471 70.3492C458.972 70.371 458.618 70.5066 458.408 70.756C458.218 70.9845 458.134 71.3585 458.157 71.878L458.499 79.7006L462.155 72.6642L463.474 72.6065L467.73 79.297L467.214 67.4883L470.331 67.352L471.039 83.5365L467.832 83.6767L462.956 75.8722L458.75 84.0738L455.543 84.214ZM479.85 83.4516C478.831 83.4961 477.895 83.3769 477.042 83.0939C476.207 82.79 475.525 82.2894 474.994 81.5919C474.462 80.8744 474.17 79.9263 474.119 78.7474C474.05 77.1689 474.526 75.9169 475.546 74.9915C476.587 74.0651 478.136 73.557 480.194 73.467L485.139 73.2508L485.095 72.2318C485.043 71.0529 484.708 70.2468 484.088 69.8134C483.488 69.3592 482.388 69.1671 480.79 69.2369C479.851 69.278 478.944 69.3777 478.07 69.536C477.216 69.6935 476.376 69.9304 475.549 70.2468L475.439 67.7292C476.207 67.4354 477.097 67.1863 478.109 66.9819C479.14 66.7566 480.175 66.6213 481.214 66.5759C483.572 66.4728 485.332 66.8963 486.495 67.8464C487.656 68.7766 488.283 70.2907 488.375 72.3887L488.828 82.7587L485.561 82.9016L485.249 75.7684L480.514 75.9754C479.395 76.0243 478.554 76.2513 477.991 76.6563C477.448 77.0404 477.196 77.692 477.236 78.6111C477.274 79.4903 477.551 80.0888 478.065 80.4066C478.6 80.7236 479.446 80.8567 480.605 80.8061C481.404 80.7711 482.09 80.6611 482.663 80.4759L482.771 82.9635C482.396 83.08 481.96 83.1791 481.463 83.2609C480.967 83.3627 480.429 83.4262 479.85 83.4516ZM475.508 64.6633L475.558 62.3789L487.906 61.8391L488.006 64.1169L475.508 64.6633ZM498.664 82.629C497.406 82.684 496.264 82.4536 495.241 81.9379C494.217 81.4221 493.39 80.5774 492.758 79.4039C492.125 78.2104 491.767 76.6646 491.684 74.7664C491.562 71.969 491.938 69.8106 492.813 68.2909C493.687 66.7713 494.963 65.9747 496.642 65.9014C497.461 65.8655 498.117 65.987 498.61 66.2658C499.121 66.5237 499.567 66.8745 499.947 67.3184C500.346 66.8404 500.88 66.4468 501.547 66.1373C502.213 65.8079 502.896 65.6279 503.595 65.5974C504.894 65.5406 505.88 65.8878 506.553 66.6391C507.226 67.3705 507.592 68.4155 507.651 69.7742L508.182 81.9126L504.915 82.0554L504.406 70.3965C504.372 69.6373 504.238 69.0926 504.004 68.7625C503.788 68.4116 503.361 68.2501 502.721 68.2781C502.322 68.2956 501.957 68.4216 501.627 68.6563C501.297 68.8909 501.062 69.2515 500.923 69.738L499.125 69.8166C498.864 69.3476 498.599 69.0088 498.33 68.8004C498.061 68.592 497.686 68.4982 497.207 68.5192C496.168 68.5646 495.492 69.1447 495.181 70.2593C494.869 71.374 494.753 72.8305 494.831 74.6288C494.921 76.6868 495.334 78.1101 496.069 78.8988C496.804 79.6874 497.821 80.0534 499.12 79.9966C499.499 79.98 499.868 79.9438 500.226 79.8882C500.604 79.8316 500.921 79.7577 501.177 79.6664L501.286 82.154C500.952 82.2888 500.576 82.3953 500.159 82.4736C499.742 82.5518 499.244 82.6037 498.664 82.629ZM512.003 81.7455L511.295 65.561L514.263 65.4313L514.52 67.1917C515.231 66.52 516.048 65.9838 516.972 65.5831C517.894 65.1624 518.965 64.9254 520.184 64.8721C521.902 64.797 523.253 65.2484 524.237 66.2264C525.241 67.2034 525.783 68.6111 525.863 70.4494L526.329 81.1192L523.092 81.2607L522.633 70.7407C522.581 69.5619 522.264 68.7249 521.682 68.2299C521.1 67.7348 520.249 67.5118 519.13 67.5607C518.231 67.6 517.4 67.8265 516.638 68.2402C515.874 68.6339 515.245 69.1219 514.75 69.7041L515.27 81.6027L512.003 81.7455ZM513.03 63.0228L513.081 60.7384L522.731 60.3165L522.623 57.8288L525.32 57.7109L525.528 62.4764L513.03 63.0228ZM522.562 56.4502L522.38 52.2841L525.078 52.1662L525.26 56.3322L522.562 56.4502ZM529.55 80.9783L529.439 78.4308L532.196 78.3102L532.308 80.8578L529.55 80.9783ZM534.907 80.7442L534.795 78.1966L537.553 78.076L537.664 80.6236L534.907 80.7442ZM540.263 80.51L540.151 77.9624L542.909 77.8419L543.02 80.3894L540.263 80.51Z" fill="black"/>
</svg>
