<svg width="325" height="131" viewBox="0 0 325 131" fill="none" xmlns="http://www.w3.org/2000/svg">
<rect x="0.5" y="0.5" width="324" height="130" fill="white" stroke="black"/>
<path d="M70.5673 52.2C69.554 52.2 68.754 51.9533 68.1673 51.46C67.594 50.9533 67.3073 50.2467 67.3073 49.34V40.8H70.0073V47.92C70.2073 47.7867 70.494 47.72 70.8673 47.72C71.5607 47.72 72.1207 47.9267 72.5473 48.34C72.9873 48.7533 73.2073 49.2867 73.2073 49.94C73.2073 50.6067 72.9607 51.1533 72.4673 51.58C71.9873 51.9933 71.354 52.2 70.5673 52.2ZM70.7873 51.5C71.2407 51.5 71.6073 51.36 71.8873 51.08C72.1673 50.7867 72.3073 50.4133 72.3073 49.96C72.3073 49.5067 72.1673 49.14 71.8873 48.86C71.6073 48.58 71.2407 48.44 70.7873 48.44C70.334 48.44 69.9607 48.58 69.6673 48.86C69.3873 49.14 69.2473 49.5067 69.2473 49.96C69.2473 50.4133 69.3873 50.7867 69.6673 51.08C69.9607 51.36 70.334 51.5 70.7873 51.5ZM88.6742 40.8V52H85.6342L82.8142 43.26L79.9742 52H76.9342V44.88C76.7076 45.0133 76.4209 45.08 76.0742 45.08C75.3809 45.08 74.8142 44.8733 74.3742 44.46C73.9342 44.0467 73.7142 43.5133 73.7142 42.86C73.7142 42.1933 73.9609 41.6533 74.4542 41.24C74.9476 40.8133 75.5876 40.6 76.3742 40.6C77.3876 40.6 78.1809 40.8533 78.7542 41.36C79.3276 41.8667 79.6142 42.5667 79.6142 43.46V48.88L82.2742 41.12H83.3142L85.9942 48.64V40.8H88.6742ZM76.1542 44.36C76.6076 44.36 76.9742 44.22 77.2542 43.94C77.5476 43.66 77.6942 43.2933 77.6942 42.84C77.6942 42.3867 77.5476 42.02 77.2542 41.74C76.9742 41.4467 76.6076 41.3 76.1542 41.3C75.7009 41.3 75.3276 41.4467 75.0342 41.74C74.7542 42.02 74.6142 42.3867 74.6142 42.84C74.6142 43.2933 74.7542 43.66 75.0342 43.94C75.3276 44.22 75.7009 44.36 76.1542 44.36ZM77.7028 38.76C77.7561 37.9867 78.0228 37.3 78.5028 36.7C78.9695 36.1 79.5961 35.6333 80.3828 35.3C81.1695 34.9667 82.0561 34.8 83.0428 34.8C84.0828 34.8 85.0228 34.9667 85.8628 35.3C86.6895 35.6333 87.3561 36.1 87.8628 36.7C88.3561 37.3 88.6295 37.9867 88.6828 38.76H77.7028ZM86.5228 37.92C86.4295 37.28 86.0628 36.76 85.4228 36.36C84.7695 35.9467 83.9761 35.74 83.0428 35.74C82.0961 35.74 81.3028 35.94 80.6628 36.34C80.0228 36.74 79.6628 37.2667 79.5828 37.92H86.5228ZM86.2228 30.28H88.5628V34H86.2228V30.28ZM103.603 40.8V52H101.243L96.7228 49.26V49.86C96.7228 50.5933 96.4495 51.1667 95.9028 51.58C95.3695 51.9933 94.6095 52.2 93.6228 52.2C92.7961 52.2 92.1428 51.98 91.6628 51.54C91.1961 51.1 90.9628 50.4933 90.9628 49.72C90.9628 48.88 91.2295 48.2267 91.7628 47.76C92.2961 47.28 93.0361 47.04 93.9828 47.04H94.0428V44.88C93.8028 45.0133 93.5161 45.08 93.1828 45.08C92.4895 45.08 91.9228 44.8733 91.4828 44.46C91.0561 44.0467 90.8428 43.5133 90.8428 42.86C90.8428 42.1933 91.0828 41.6533 91.5628 41.24C92.0561 40.8133 92.6961 40.6 93.4828 40.6C94.4828 40.6 95.2761 40.86 95.8628 41.38C96.4495 41.8867 96.7428 42.58 96.7428 43.46V47.78L96.8028 47.82L100.923 50.22V40.8H103.603ZM93.2628 44.36C93.7161 44.36 94.0828 44.22 94.3628 43.94C94.6561 43.66 94.8028 43.2933 94.8028 42.84C94.8028 42.3867 94.6561 42.02 94.3628 41.74C94.0828 41.4467 93.7161 41.3 93.2628 41.3C92.8095 41.3 92.4428 41.4467 92.1628 41.74C91.8828 42.02 91.7428 42.3867 91.7428 42.84C91.7428 43.2933 91.8828 43.66 92.1628 43.94C92.4428 44.22 92.8095 44.36 93.2628 44.36ZM94.0428 48.04C93.8828 48.0133 93.7295 48 93.5828 48C93.1428 48 92.7895 48.16 92.5228 48.48C92.2561 48.8 92.1228 49.22 92.1228 49.74C92.1228 50.2467 92.2095 50.64 92.3828 50.92C92.5695 51.2 92.8295 51.34 93.1628 51.34C93.7495 51.34 94.0428 51 94.0428 50.32V48.04ZM112.265 52.2C111.518 52.2 110.911 51.9933 110.445 51.58C109.978 51.1533 109.745 50.6067 109.745 49.94C109.745 49.2867 109.971 48.7533 110.425 48.34C110.878 47.9267 111.458 47.72 112.165 47.72C112.431 47.72 112.698 47.78 112.965 47.9V45.24H104.965C104.965 43.7467 105.331 42.6 106.065 41.8C106.798 41 107.851 40.6 109.225 40.6C109.705 40.6 110.151 40.6533 110.565 40.76C110.978 40.8533 111.425 41.02 111.905 41.26C112.265 41.4333 112.538 41.5533 112.725 41.62C112.911 41.6867 113.078 41.72 113.225 41.72C113.518 41.72 113.751 41.62 113.925 41.42C114.111 41.2067 114.211 40.9333 114.225 40.6H116.405C116.378 41.28 116.125 41.8267 115.645 42.24C115.165 42.6533 114.525 42.86 113.725 42.86C112.978 42.86 112.218 42.6667 111.445 42.28C111.005 42.0667 110.665 41.9267 110.425 41.86C110.185 41.7933 109.911 41.76 109.605 41.76C108.405 41.76 107.765 42.5933 107.685 44.26H115.665V49.3C115.665 50.22 115.365 50.9333 114.765 51.44C114.165 51.9467 113.331 52.2 112.265 52.2ZM112.185 51.5C112.638 51.5 113.005 51.36 113.285 51.08C113.578 50.7867 113.725 50.4133 113.725 49.96C113.725 49.5067 113.578 49.14 113.285 48.86C113.005 48.58 112.638 48.44 112.185 48.44C111.731 48.44 111.358 48.58 111.065 48.86C110.785 49.14 110.645 49.5067 110.645 49.96C110.645 50.4133 110.785 50.7867 111.065 51.08C111.358 51.36 111.731 51.5 112.185 51.5ZM124.555 44.16C124.555 43.3067 124.335 42.64 123.895 42.16C123.455 41.68 122.835 41.44 122.035 41.44C121.275 41.44 120.662 41.6867 120.195 42.18C119.729 42.66 119.462 43.34 119.395 44.22H117.055C117.109 43.1 117.575 42.22 118.455 41.58C119.335 40.9267 120.529 40.6 122.035 40.6C123.635 40.6 124.902 40.9467 125.835 41.64C126.769 42.3333 127.235 43.2867 127.235 44.5V52H124.555V44.16ZM140.918 40.8V52H130.038V49.36C130.038 48.84 130.231 48.38 130.618 47.98C131.018 47.58 131.544 47.3067 132.198 47.16C131.291 46.9067 130.604 46.5 130.138 45.94C129.671 45.38 129.438 44.6933 129.438 43.88C129.438 43.24 129.604 42.6733 129.938 42.18C130.271 41.6733 130.738 41.2867 131.338 41.02C131.951 40.74 132.644 40.6 133.418 40.6C134.351 40.6 135.111 40.8267 135.698 41.28C136.284 41.7333 136.578 42.3267 136.578 43.06C136.578 43.7267 136.351 44.28 135.898 44.72C135.444 45.1467 134.864 45.36 134.158 45.36C133.584 45.36 133.091 45.22 132.678 44.94C132.264 44.6467 131.984 44.26 131.838 43.78V43.88C131.838 44.7867 132.138 45.4533 132.738 45.88C133.338 46.3067 134.271 46.52 135.538 46.52H135.718V47.54H135.558C134.544 47.54 133.818 47.6933 133.378 48C132.938 48.2933 132.718 48.78 132.718 49.46V51.02H138.238V40.8H140.918ZM134.138 41.54C133.684 41.54 133.311 41.6867 133.018 41.98C132.724 42.26 132.578 42.6267 132.578 43.08C132.578 43.52 132.724 43.8867 133.018 44.18C133.311 44.46 133.684 44.6 134.138 44.6C134.578 44.6 134.944 44.46 135.238 44.18C135.531 43.8867 135.678 43.52 135.678 43.08C135.678 42.6267 135.531 42.26 135.238 41.98C134.944 41.6867 134.578 41.54 134.138 41.54ZM147.689 52.2C146.703 52.2 145.909 51.9467 145.309 51.44C144.723 50.9333 144.429 50.2333 144.429 49.34V36.12L142.769 37.56C142.409 36.7333 141.883 35.9933 141.189 35.34C140.483 34.6733 139.736 34.2333 138.949 34.02L140.589 32.78C141.123 32.98 141.623 33.3 142.089 33.74C142.556 34.1667 142.963 34.6733 143.309 35.26L144.809 33.92H147.129V47.92C147.329 47.7867 147.616 47.72 147.989 47.72C148.683 47.72 149.243 47.9267 149.669 48.34C150.109 48.7533 150.329 49.2867 150.329 49.94C150.329 50.6067 150.083 51.1533 149.589 51.58C149.109 51.9933 148.476 52.2 147.689 52.2ZM147.909 51.54C148.376 51.54 148.756 51.3933 149.049 51.1C149.343 50.8067 149.489 50.4267 149.489 49.96C149.489 49.4933 149.343 49.1133 149.049 48.82C148.756 48.5267 148.376 48.38 147.909 48.38C147.443 48.38 147.063 48.5267 146.769 48.82C146.476 49.1133 146.329 49.4933 146.329 49.96C146.329 50.4267 146.476 50.8067 146.769 51.1C147.063 51.3933 147.443 51.54 147.909 51.54ZM151.865 50.88C151.865 49.5867 151.811 48.3933 151.705 47.3C151.611 46.4467 151.565 45.74 151.565 45.18C151.565 44.2467 151.811 43.4333 152.305 42.74C152.798 42.0467 153.505 41.52 154.425 41.16C155.345 40.7867 156.431 40.6 157.685 40.6C158.885 40.6 159.931 40.76 160.825 41.08C161.718 41.3867 162.405 41.8333 162.885 42.42C163.365 43.0067 163.605 43.7 163.605 44.5V52H160.905V44.32C160.905 43.4267 160.611 42.7267 160.025 42.22C159.451 41.7 158.665 41.44 157.665 41.44C156.571 41.44 155.731 41.7533 155.145 42.38C154.558 43.0067 154.265 43.8933 154.265 45.04C154.265 45.5333 154.298 46.2333 154.365 47.14C154.431 48.62 154.478 49.82 154.505 50.74C155.385 50.3267 156.125 49.9 156.725 49.46C157.325 49.0067 157.845 48.5 158.285 47.94C158.111 48.0333 157.891 48.08 157.625 48.08C156.918 48.08 156.338 47.8733 155.885 47.46C155.431 47.0467 155.205 46.5133 155.205 45.86C155.205 45.1933 155.425 44.6533 155.865 44.24C156.305 43.8267 156.871 43.62 157.565 43.62C158.285 43.62 158.871 43.8467 159.325 44.3C159.778 44.74 160.005 45.32 160.005 46.04C160.005 46.7867 159.751 47.54 159.245 48.3C158.751 49.0467 158.051 49.7467 157.145 50.4C156.251 51.04 155.218 51.5733 154.045 52H151.865V50.88ZM157.565 47.38C158.031 47.38 158.405 47.24 158.685 46.96C158.978 46.68 159.125 46.3133 159.125 45.86C159.125 45.4067 158.978 45.04 158.685 44.76C158.405 44.4667 158.031 44.32 157.565 44.32C157.111 44.32 156.738 44.4667 156.445 44.76C156.165 45.04 156.025 45.4067 156.025 45.86C156.025 46.3133 156.165 46.68 156.445 46.96C156.738 47.24 157.111 47.38 157.565 47.38ZM157.549 38.3C158.189 37.8467 158.756 37.2867 159.249 36.62C159.009 36.7667 158.729 36.84 158.409 36.84C157.876 36.84 157.443 36.68 157.109 36.36C156.776 36.04 156.609 35.6267 156.609 35.12C156.609 34.56 156.789 34.12 157.149 33.8C157.496 33.48 157.969 33.32 158.569 33.32C159.196 33.32 159.689 33.48 160.049 33.8C160.409 34.12 160.589 34.56 160.589 35.12C160.589 36.08 160.176 37.0267 159.349 37.96C160.536 37.56 161.456 37.0133 162.109 36.32C162.749 35.6267 163.189 34.7933 163.429 33.82H165.529C165.369 34.7133 164.909 35.54 164.149 36.3C163.389 37.0467 162.443 37.6533 161.309 38.12C160.176 38.5867 158.989 38.86 157.749 38.94L157.549 38.3ZM158.409 36.16C158.729 36.16 158.989 36.0667 159.189 35.88C159.376 35.68 159.469 35.4267 159.469 35.12C159.469 34.8 159.376 34.54 159.189 34.34C158.989 34.14 158.729 34.04 158.409 34.04C158.103 34.04 157.849 34.14 157.649 34.34C157.449 34.54 157.349 34.8 157.349 35.12C157.349 35.4267 157.449 35.68 157.649 35.88C157.849 36.0667 158.103 36.16 158.409 36.16ZM169.845 52.2C168.831 52.2 168.031 51.9533 167.445 51.46C166.871 50.9533 166.585 50.2467 166.585 49.34V40.8H169.285V47.92C169.485 47.7867 169.771 47.72 170.145 47.72C170.838 47.72 171.398 47.9267 171.825 48.34C172.265 48.7533 172.485 49.2867 172.485 49.94C172.485 50.6067 172.238 51.1533 171.745 51.58C171.265 51.9933 170.631 52.2 169.845 52.2ZM176.705 52.2C175.691 52.2 174.891 51.9533 174.305 51.46C173.731 50.9533 173.445 50.2467 173.445 49.34V40.8H176.145V47.92C176.345 47.7867 176.631 47.72 177.005 47.72C177.698 47.72 178.258 47.9267 178.685 48.34C179.125 48.7533 179.345 49.2867 179.345 49.94C179.345 50.6067 179.098 51.1533 178.605 51.58C178.125 51.9933 177.491 52.2 176.705 52.2ZM170.065 51.5C170.518 51.5 170.885 51.36 171.165 51.08C171.445 50.7867 171.585 50.4133 171.585 49.96C171.585 49.5067 171.445 49.14 171.165 48.86C170.885 48.58 170.518 48.44 170.065 48.44C169.611 48.44 169.238 48.58 168.945 48.86C168.665 49.14 168.525 49.5067 168.525 49.96C168.525 50.4133 168.665 50.7867 168.945 51.08C169.238 51.36 169.611 51.5 170.065 51.5ZM176.905 51.5C177.358 51.5 177.725 51.36 178.005 51.08C178.298 50.7867 178.445 50.4133 178.445 49.96C178.445 49.5067 178.298 49.14 178.005 48.86C177.725 48.58 177.358 48.44 176.905 48.44C176.451 48.44 176.085 48.58 175.805 48.86C175.525 49.14 175.385 49.5067 175.385 49.96C175.385 50.4133 175.525 50.7867 175.805 51.08C176.085 51.36 176.451 51.5 176.905 51.5ZM184.208 52.2C183.181 52.2 182.354 51.8867 181.728 51.26C181.101 50.6333 180.788 49.8 180.788 48.76C180.788 47.8533 181.001 47.06 181.428 46.38C181.854 45.7 182.461 45.18 183.248 44.82C184.034 44.4467 184.954 44.26 186.008 44.26C186.821 44.26 187.561 44.4533 188.228 44.84C188.908 45.2133 189.421 45.7333 189.768 46.4V44.34C189.768 43.46 189.481 42.76 188.908 42.24C188.334 41.72 187.561 41.46 186.588 41.46C185.601 41.46 184.768 41.6867 184.088 42.14C183.421 42.5933 183.001 43.2133 182.828 44H180.488C180.674 42.96 181.314 42.1333 182.408 41.52C183.514 40.9067 184.908 40.6 186.588 40.6C187.788 40.6 188.828 40.76 189.708 41.08C190.601 41.3867 191.281 41.8333 191.748 42.42C192.228 43.0067 192.468 43.7 192.468 44.5V52H189.768V51.7C189.768 49.58 189.454 47.96 188.828 46.84C188.201 45.72 187.301 45.16 186.128 45.16C185.381 45.16 184.748 45.4333 184.228 45.98C183.721 46.5133 183.421 47.2133 183.328 48.08C183.421 47.9867 183.581 47.9067 183.808 47.84C184.034 47.76 184.248 47.72 184.448 47.72C185.168 47.72 185.754 47.9333 186.208 48.36C186.674 48.7733 186.908 49.3067 186.908 49.96C186.908 50.6267 186.654 51.1667 186.148 51.58C185.654 51.9933 185.008 52.2 184.208 52.2ZM184.468 51.5C184.921 51.5 185.288 51.36 185.567 51.08C185.848 50.7867 185.988 50.4133 185.988 49.96C185.988 49.5067 185.848 49.14 185.567 48.86C185.288 48.58 184.921 48.44 184.468 48.44C184.014 48.44 183.641 48.58 183.348 48.86C183.068 49.14 182.928 49.5067 182.928 49.96C182.928 50.4133 183.068 50.7867 183.348 51.08C183.641 51.36 184.014 51.5 184.468 51.5ZM198.572 46.08C197.439 46.08 196.492 45.8267 195.732 45.32C194.985 44.8133 194.612 44.14 194.612 43.3C194.612 42.6733 194.812 42.16 195.212 41.76C195.625 41.36 196.145 41.16 196.772 41.16C197.372 41.16 197.865 41.3533 198.252 41.74C198.639 42.1267 198.832 42.6267 198.832 43.24C198.832 43.6533 198.699 44.0333 198.432 44.38C198.179 44.7133 197.845 44.9467 197.432 45.08C197.832 45.16 198.199 45.2 198.532 45.2C199.572 45.2 200.385 44.84 200.972 44.12C201.559 43.3867 201.852 42.3667 201.852 41.06H203.932V41.52C203.932 42.4133 203.705 43.2067 203.252 43.9C202.812 44.58 202.185 45.1133 201.372 45.5C200.559 45.8867 199.625 46.08 198.572 46.08ZM196.732 44.42C197.105 44.42 197.412 44.3 197.652 44.06C197.905 43.82 198.032 43.5133 198.032 43.14C198.032 42.7667 197.905 42.46 197.652 42.22C197.412 41.98 197.105 41.86 196.732 41.86C196.359 41.86 196.045 41.98 195.792 42.22C195.552 42.46 195.432 42.7667 195.432 43.14C195.432 43.5133 195.552 43.82 195.792 44.06C196.045 44.3 196.359 44.42 196.732 44.42ZM198.572 51.76C197.439 51.76 196.492 51.5067 195.732 51C194.985 50.4933 194.612 49.82 194.612 48.98C194.612 48.3533 194.812 47.84 195.212 47.44C195.625 47.04 196.145 46.84 196.772 46.84C197.372 46.84 197.865 47.0333 198.252 47.42C198.639 47.8067 198.832 48.3067 198.832 48.92C198.832 49.3333 198.699 49.7133 198.432 50.06C198.179 50.3933 197.845 50.6267 197.432 50.76C197.832 50.84 198.199 50.88 198.532 50.88C199.559 50.88 200.365 50.52 200.952 49.8C201.552 49.0667 201.852 48.0467 201.852 46.74H203.932V47.2C203.932 48.0933 203.705 48.8867 203.252 49.58C202.812 50.26 202.185 50.7933 201.372 51.18C200.559 51.5667 199.625 51.76 198.572 51.76ZM196.732 50.1C197.105 50.1 197.412 49.98 197.652 49.74C197.905 49.5 198.032 49.1933 198.032 48.82C198.032 48.4467 197.905 48.14 197.652 47.9C197.412 47.66 197.105 47.54 196.732 47.54C196.359 47.54 196.045 47.66 195.792 47.9C195.552 48.14 195.432 48.4467 195.432 48.82C195.432 49.1933 195.552 49.5 195.792 49.74C196.045 49.98 196.359 50.1 196.732 50.1ZM218.583 40.8V52H216.223L211.703 49.26V49.86C211.703 50.5933 211.43 51.1667 210.883 51.58C210.35 51.9933 209.59 52.2 208.603 52.2C207.777 52.2 207.123 51.98 206.643 51.54C206.177 51.1 205.943 50.4933 205.943 49.72C205.943 48.88 206.21 48.2267 206.743 47.76C207.277 47.28 208.017 47.04 208.963 47.04H209.023V44.88C208.783 45.0133 208.497 45.08 208.163 45.08C207.47 45.08 206.903 44.8733 206.463 44.46C206.037 44.0467 205.823 43.5133 205.823 42.86C205.823 42.1933 206.063 41.6533 206.543 41.24C207.037 40.8133 207.677 40.6 208.463 40.6C209.463 40.6 210.257 40.86 210.843 41.38C211.43 41.8867 211.723 42.58 211.723 43.46V47.78L211.783 47.82L215.903 50.22V40.8H218.583ZM208.243 44.36C208.697 44.36 209.063 44.22 209.343 43.94C209.637 43.66 209.783 43.2933 209.783 42.84C209.783 42.3867 209.637 42.02 209.343 41.74C209.063 41.4467 208.697 41.3 208.243 41.3C207.79 41.3 207.423 41.4467 207.143 41.74C206.863 42.02 206.723 42.3867 206.723 42.84C206.723 43.2933 206.863 43.66 207.143 43.94C207.423 44.22 207.79 44.36 208.243 44.36ZM209.023 48.04C208.863 48.0133 208.71 48 208.563 48C208.123 48 207.77 48.16 207.503 48.48C207.237 48.8 207.103 49.22 207.103 49.74C207.103 50.2467 207.19 50.64 207.363 50.92C207.55 51.2 207.81 51.34 208.143 51.34C208.73 51.34 209.023 51 209.023 50.32V48.04ZM212.365 56.42C212.125 56.54 211.845 56.6 211.525 56.6C210.952 56.6 210.492 56.4333 210.145 56.1C209.785 55.78 209.605 55.36 209.605 54.84C209.605 54.2933 209.825 53.8467 210.265 53.5C210.692 53.1667 211.252 53 211.945 53C212.758 53 213.418 53.18 213.925 53.54C214.418 53.9133 214.665 54.3933 214.665 54.98V57.22H216.265V53H218.585V58H212.365V56.42ZM211.525 55.96C211.858 55.96 212.132 55.8533 212.345 55.64C212.545 55.4267 212.645 55.16 212.645 54.84C212.645 54.5067 212.545 54.2333 212.345 54.02C212.132 53.82 211.858 53.72 211.525 53.72C211.205 53.72 210.938 53.82 210.725 54.02C210.512 54.2333 210.405 54.5067 210.405 54.84C210.405 55.16 210.512 55.4267 210.725 55.64C210.938 55.8533 211.205 55.96 211.525 55.96ZM224.305 52.2C223.278 52.2 222.452 51.8867 221.825 51.26C221.198 50.6333 220.885 49.8 220.885 48.76C220.885 47.8533 221.098 47.06 221.525 46.38C221.952 45.7 222.558 45.18 223.345 44.82C224.132 44.4467 225.052 44.26 226.105 44.26C226.918 44.26 227.658 44.4533 228.325 44.84C229.005 45.2133 229.518 45.7333 229.865 46.4V44.34C229.865 43.46 229.578 42.76 229.005 42.24C228.432 41.72 227.658 41.46 226.685 41.46C225.698 41.46 224.865 41.6867 224.185 42.14C223.518 42.5933 223.098 43.2133 222.925 44H220.585C220.772 42.96 221.412 42.1333 222.505 41.52C223.612 40.9067 225.005 40.6 226.685 40.6C227.885 40.6 228.925 40.76 229.805 41.08C230.698 41.3867 231.378 41.8333 231.845 42.42C232.325 43.0067 232.565 43.7 232.565 44.5V52H229.865V51.7C229.865 49.58 229.552 47.96 228.925 46.84C228.298 45.72 227.398 45.16 226.225 45.16C225.478 45.16 224.845 45.4333 224.325 45.98C223.818 46.5133 223.518 47.2133 223.425 48.08C223.518 47.9867 223.678 47.9067 223.905 47.84C224.132 47.76 224.345 47.72 224.545 47.72C225.265 47.72 225.852 47.9333 226.305 48.36C226.772 48.7733 227.005 49.3067 227.005 49.96C227.005 50.6267 226.752 51.1667 226.245 51.58C225.752 51.9933 225.105 52.2 224.305 52.2ZM224.565 51.5C225.018 51.5 225.385 51.36 225.665 51.08C225.945 50.7867 226.085 50.4133 226.085 49.96C226.085 49.5067 225.945 49.14 225.665 48.86C225.385 48.58 225.018 48.44 224.565 48.44C224.112 48.44 223.738 48.58 223.445 48.86C223.165 49.14 223.025 49.5067 223.025 49.96C223.025 50.4133 223.165 50.7867 223.445 51.08C223.738 51.36 224.112 51.5 224.565 51.5ZM240.71 40.6C241.923 40.6 242.976 40.76 243.87 41.08C244.776 41.3867 245.47 41.8333 245.95 42.42C246.443 43.0067 246.69 43.7 246.69 44.5V52H243.99V44.32C243.99 43.44 243.69 42.74 243.09 42.22C242.503 41.7 241.703 41.44 240.69 41.44C239.623 41.44 238.776 41.7667 238.15 42.42C237.536 43.06 237.23 43.9333 237.23 45.04C237.23 45.52 237.263 46.0933 237.33 46.76C237.356 46.9733 237.383 47.2933 237.41 47.72L237.45 48.26L238.29 45.68C238.476 45.0933 238.783 44.64 239.21 44.32C239.636 44 240.15 43.84 240.75 43.84C241.443 43.84 242.01 44.0533 242.45 44.48C242.89 44.8933 243.11 45.4333 243.11 46.1C243.11 46.7667 242.896 47.3067 242.47 47.72C242.043 48.12 241.483 48.32 240.79 48.32C240.443 48.32 240.103 48.2533 239.77 48.12C239.436 47.9733 239.17 47.7933 238.97 47.58L237.41 52H234.83V50.88C234.83 49.64 234.776 48.4467 234.67 47.3C234.576 46.38 234.53 45.6733 234.53 45.18C234.53 44.2467 234.776 43.4333 235.27 42.74C235.776 42.0467 236.49 41.52 237.41 41.16C238.343 40.7867 239.443 40.6 240.71 40.6ZM240.77 44.56C240.316 44.56 239.95 44.7 239.67 44.98C239.39 45.26 239.25 45.6267 239.25 46.08C239.25 46.5333 239.39 46.9067 239.67 47.2C239.95 47.48 240.316 47.62 240.77 47.62C241.223 47.62 241.59 47.48 241.87 47.2C242.163 46.9067 242.31 46.5333 242.31 46.08C242.31 45.6267 242.163 45.26 241.87 44.98C241.59 44.7 241.223 44.56 240.77 44.56ZM243.955 34.28H246.335V38.76H243.955V34.28ZM255.591 44.16C255.591 43.3067 255.371 42.64 254.931 42.16C254.491 41.68 253.871 41.44 253.071 41.44C252.311 41.44 251.697 41.6867 251.231 42.18C250.764 42.66 250.497 43.34 250.431 44.22H248.091C248.144 43.1 248.611 42.22 249.491 41.58C250.371 40.9267 251.564 40.6 253.071 40.6C254.671 40.6 255.937 40.9467 256.871 41.64C257.804 42.3333 258.271 43.2867 258.271 44.5V52H255.591V44.16ZM34.8387 78.2C33.852 78.2 33.0587 77.9467 32.4587 77.44C31.872 76.9333 31.5787 76.2333 31.5787 75.34V68C31.5787 67.4267 31.7253 66.8533 32.0187 66.28C32.3253 65.7067 32.7987 65.0867 33.4387 64.42C34.012 63.82 34.412 63.3133 34.6387 62.9C34.8787 62.4867 34.9987 62.0667 34.9987 61.64C34.9987 61 34.7453 60.4867 34.2387 60.1C33.732 59.7 33.0653 59.5 32.2387 59.5C31.5853 59.5 31.0253 59.6333 30.5587 59.9C30.092 60.1533 29.7587 60.5133 29.5587 60.98C29.772 60.7533 30.032 60.58 30.3387 60.46C30.6453 60.34 30.972 60.28 31.3187 60.28C31.9987 60.28 32.552 60.4867 32.9787 60.9C33.4187 61.3133 33.6387 61.8467 33.6387 62.5C33.6387 63.1667 33.3987 63.7133 32.9187 64.14C32.452 64.5533 31.852 64.76 31.1187 64.76C30.252 64.76 29.5653 64.5133 29.0587 64.02C28.5387 63.5267 28.2787 62.86 28.2787 62.02C28.2787 61.3667 28.4653 60.7867 28.8387 60.28C29.212 59.76 29.7253 59.36 30.3787 59.08C31.0453 58.7867 31.7987 58.64 32.6387 58.64C33.532 58.64 34.3187 58.7667 34.9987 59.02C35.692 59.26 36.2253 59.6067 36.5987 60.06C36.972 60.5133 37.1587 61.04 37.1587 61.64C37.1587 62.2667 37.0453 62.8267 36.8187 63.32C36.6053 63.8133 36.2253 64.3667 35.6787 64.98C35.1853 65.54 34.8253 66.06 34.5987 66.54C34.3853 67.0067 34.2787 67.5133 34.2787 68.06V73.92C34.4787 73.7867 34.7653 73.72 35.1387 73.72C35.832 73.72 36.392 73.9267 36.8187 74.34C37.2587 74.7533 37.4787 75.2867 37.4787 75.94C37.4787 76.6067 37.232 77.1533 36.7387 77.58C36.2587 77.9933 35.6253 78.2 34.8387 78.2ZM31.2387 64.06C31.7053 64.06 32.0853 63.9133 32.3787 63.62C32.672 63.3133 32.8187 62.9333 32.8187 62.48C32.8187 62.0133 32.672 61.6333 32.3787 61.34C32.0853 61.0467 31.7053 60.9 31.2387 60.9C30.7853 60.9 30.4053 61.0467 30.0987 61.34C29.8053 61.6333 29.6587 62.0133 29.6587 62.48C29.6587 62.9333 29.8053 63.3133 30.0987 63.62C30.4053 63.9133 30.7853 64.06 31.2387 64.06ZM35.0587 77.54C35.5253 77.54 35.9053 77.3933 36.1987 77.1C36.492 76.8067 36.6387 76.4267 36.6387 75.96C36.6387 75.4933 36.492 75.1133 36.1987 74.82C35.9053 74.5267 35.5253 74.38 35.0587 74.38C34.592 74.38 34.212 74.5267 33.9187 74.82C33.6253 75.1133 33.4787 75.4933 33.4787 75.96C33.4787 76.4267 33.6253 76.8067 33.9187 77.1C34.212 77.3933 34.592 77.54 35.0587 77.54ZM50.3623 70.74C50.7623 70.9533 51.0689 71.22 51.2823 71.54C51.5089 71.86 51.6223 72.2133 51.6223 72.6V78H48.9423V72.26C48.9423 71.94 48.7956 71.6667 48.5023 71.44C48.2223 71.2 47.8889 71.08 47.5023 71.08C46.9023 71.08 46.3156 71.2733 45.7423 71.66C45.1823 72.0467 44.7289 72.5533 44.3823 73.18C44.0356 73.8067 43.8623 74.46 43.8623 75.14V78H41.1823V70.88C40.9556 71.0133 40.6689 71.08 40.3223 71.08C39.6289 71.08 39.0623 70.8733 38.6223 70.46C38.1823 70.0467 37.9623 69.5133 37.9623 68.86C37.9623 68.1933 38.2089 67.6533 38.7023 67.24C39.1956 66.8133 39.8356 66.6 40.6223 66.6C41.6356 66.6 42.4289 66.8533 43.0023 67.36C43.5756 67.8667 43.8623 68.5667 43.8623 69.46V72.46C44.2089 71.8867 44.7156 71.4067 45.3823 71.02C46.0489 70.6333 46.7689 70.3933 47.5423 70.3C47.0756 69.9 46.8423 69.38 46.8423 68.74C46.8423 68.1 47.0756 67.58 47.5423 67.18C48.0089 66.78 48.6156 66.58 49.3623 66.58C50.1089 66.58 50.7156 66.78 51.1823 67.18C51.6489 67.58 51.8823 68.1 51.8823 68.74C51.8823 69.22 51.7423 69.64 51.4623 70C51.1956 70.3467 50.8289 70.5933 50.3623 70.74ZM49.3623 67.28C48.9089 67.28 48.5356 67.42 48.2423 67.7C47.9623 67.9667 47.8223 68.3133 47.8223 68.74C47.8223 69.1667 47.9623 69.52 48.2423 69.8C48.5356 70.0667 48.9089 70.2 49.3623 70.2C49.8156 70.2 50.1823 70.0667 50.4623 69.8C50.7556 69.52 50.9023 69.1667 50.9023 68.74C50.9023 68.3133 50.7556 67.9667 50.4623 67.7C50.1823 67.42 49.8156 67.28 49.3623 67.28ZM40.4023 70.36C40.8556 70.36 41.2223 70.22 41.5023 69.94C41.7956 69.66 41.9423 69.2933 41.9423 68.84C41.9423 68.3867 41.7956 68.02 41.5023 67.74C41.2223 67.4467 40.8556 67.3 40.4023 67.3C39.9489 67.3 39.5756 67.4467 39.2823 67.74C39.0023 68.02 38.8623 68.3867 38.8623 68.84C38.8623 69.2933 39.0023 69.66 39.2823 69.94C39.5756 70.22 39.9489 70.36 40.4023 70.36ZM45.7818 64.3C46.4218 63.8467 46.9885 63.2867 47.4818 62.62C47.2418 62.7667 46.9618 62.84 46.6418 62.84C46.1085 62.84 45.6751 62.68 45.3418 62.36C45.0085 62.04 44.8418 61.6267 44.8418 61.12C44.8418 60.56 45.0218 60.12 45.3818 59.8C45.7285 59.48 46.2018 59.32 46.8018 59.32C47.4285 59.32 47.9218 59.48 48.2818 59.8C48.6418 60.12 48.8218 60.56 48.8218 61.12C48.8218 62.08 48.4085 63.0267 47.5818 63.96C48.7685 63.56 49.6885 63.0133 50.3418 62.32C50.9818 61.6267 51.4218 60.7933 51.6618 59.82H53.7618C53.6018 60.7133 53.1418 61.54 52.3818 62.3C51.6218 63.0467 50.6751 63.6533 49.5418 64.12C48.4085 64.5867 47.2218 64.86 45.9818 64.94L45.7818 64.3ZM46.6418 62.16C46.9618 62.16 47.2218 62.0667 47.4218 61.88C47.6085 61.68 47.7018 61.4267 47.7018 61.12C47.7018 60.8 47.6085 60.54 47.4218 60.34C47.2218 60.14 46.9618 60.04 46.6418 60.04C46.3351 60.04 46.0818 60.14 45.8818 60.34C45.6818 60.54 45.5818 60.8 45.5818 61.12C45.5818 61.4267 45.6818 61.68 45.8818 61.88C46.0818 62.0667 46.3351 62.16 46.6418 62.16ZM54.0418 73.66C54.0418 72.54 54.5551 71.7467 55.5818 71.28H53.4418C53.4685 70.32 53.7285 69.4867 54.2218 68.78C54.7151 68.0733 55.4018 67.5333 56.2818 67.16C57.1751 66.7867 58.2218 66.6 59.4218 66.6C60.5685 66.6 61.5618 66.76 62.4018 67.08C63.2418 67.4 63.8885 67.8533 64.3418 68.44C64.7951 69.0267 65.0218 69.72 65.0218 70.52V78H62.3218V70.32C62.3218 69.4 62.0685 68.6933 61.5618 68.2C61.0551 67.6933 60.3351 67.44 59.4018 67.44C58.3751 67.44 57.5618 67.6867 56.9618 68.18C56.3618 68.6733 56.0218 69.3733 55.9418 70.28H58.7218V71.04C58.0285 71.1067 57.5218 71.3067 57.2018 71.64C56.8951 71.9733 56.7418 72.48 56.7418 73.16V78H54.0418V73.66ZM61.4254 65.02C60.0654 65.02 59.0121 64.8067 58.2654 64.38C57.5054 63.94 57.1254 63.32 57.1254 62.52C57.1254 61.92 57.3254 61.4333 57.7254 61.06C58.1121 60.6867 58.6187 60.5 59.2454 60.5C59.8721 60.5 60.3921 60.6867 60.8054 61.06C61.2054 61.4333 61.4054 61.92 61.4054 62.52C61.4054 62.92 61.2854 63.28 61.0454 63.6C60.8054 63.92 60.4921 64.1467 60.1054 64.28C60.3854 64.3333 60.7521 64.36 61.2054 64.36C61.9254 64.36 62.5721 64.2 63.1454 63.88C63.7187 63.56 64.1721 63.12 64.5054 62.56C64.8254 61.9867 64.9854 61.3333 64.9854 60.6H67.4254C67.4254 61.4533 67.1521 62.22 66.6054 62.9C66.0721 63.5667 65.3521 64.0867 64.4454 64.46C63.5254 64.8333 62.5187 65.02 61.4254 65.02ZM59.2454 63.82C59.6454 63.82 59.9721 63.7 60.2254 63.46C60.4654 63.22 60.5854 62.9067 60.5854 62.52C60.5854 62.12 60.4654 61.8 60.2254 61.56C59.9721 61.32 59.6454 61.2 59.2454 61.2C58.8587 61.2 58.5454 61.32 58.3054 61.56C58.0521 61.8 57.9254 62.12 57.9254 62.52C57.9254 62.9067 58.0521 63.22 58.3054 63.46C58.5454 63.7 58.8587 63.82 59.2454 63.82ZM69.5807 70.88C69.354 71.0133 69.0674 71.08 68.7207 71.08C68.0274 71.08 67.4607 70.8733 67.0207 70.46C66.5807 70.0467 66.3607 69.5133 66.3607 68.86C66.3607 68.1933 66.6074 67.6533 67.1007 67.24C67.594 66.8133 68.234 66.6 69.0207 66.6C70.034 66.6 70.8274 66.8533 71.4007 67.36C71.974 67.8667 72.2607 68.5667 72.2607 69.46V77.06H77.0607V66.8H79.7407V78H69.5807V70.88ZM68.8007 70.36C69.254 70.36 69.6207 70.22 69.9007 69.94C70.194 69.66 70.3407 69.2933 70.3407 68.84C70.3407 68.3867 70.194 68.02 69.9007 67.74C69.6207 67.4467 69.254 67.3 68.8007 67.3C68.3474 67.3 67.974 67.4467 67.6807 67.74C67.4007 68.02 67.2607 68.3867 67.2607 68.84C67.2607 69.2933 67.4007 69.66 67.6807 69.94C67.974 70.22 68.3474 70.36 68.8007 70.36ZM82.1473 78C82.1473 76.84 82.0806 75.4467 81.9473 73.82C81.8273 72.26 81.7673 71.0933 81.7673 70.32C81.7673 69.08 82.0539 68.1533 82.6273 67.54C83.2006 66.9133 84.0873 66.6 85.2873 66.6C86.0739 66.6 86.7006 66.8067 87.1673 67.22C87.6473 67.6333 87.8873 68.1733 87.8873 68.84C87.8873 69.52 87.6539 70.0667 87.1873 70.48C86.7339 70.88 86.1139 71.08 85.3273 71.08C85.0473 71.08 84.7673 71.02 84.4873 70.9V71.34C84.5139 72.02 84.5406 72.58 84.5673 73.02C84.5806 73.46 84.6206 74.1267 84.6873 75.02L87.1073 71.84H88.7073L90.9673 74.78V66.8H93.6673V78H91.0673L87.9073 73.86L84.7673 78H82.1473ZM85.4873 70.36C85.9406 70.36 86.3073 70.22 86.5873 69.94C86.8806 69.66 87.0273 69.2933 87.0273 68.84C87.0273 68.3867 86.8806 68.02 86.5873 67.74C86.3073 67.4467 85.9406 67.3 85.4873 67.3C85.0339 67.3 84.6673 67.4467 84.3873 67.74C84.1073 68.02 83.9673 68.3867 83.9673 68.84C83.9673 69.2933 84.1073 69.66 84.3873 69.94C84.6673 70.22 85.0339 70.36 85.4873 70.36ZM99.393 78.2C98.3664 78.2 97.5397 77.8867 96.913 77.26C96.2864 76.6333 95.973 75.8 95.973 74.76C95.973 73.8533 96.1864 73.06 96.613 72.38C97.0397 71.7 97.6464 71.18 98.433 70.82C99.2197 70.4467 100.14 70.26 101.193 70.26C102.006 70.26 102.746 70.4533 103.413 70.84C104.093 71.2133 104.606 71.7333 104.953 72.4V70.34C104.953 69.46 104.666 68.76 104.093 68.24C103.52 67.72 102.746 67.46 101.773 67.46C100.786 67.46 99.953 67.6867 99.273 68.14C98.6064 68.5933 98.1864 69.2133 98.013 70H95.673C95.8597 68.96 96.4997 68.1333 97.593 67.52C98.6997 66.9067 100.093 66.6 101.773 66.6C102.973 66.6 104.013 66.76 104.893 67.08C105.786 67.3867 106.466 67.8333 106.933 68.42C107.413 69.0067 107.653 69.7 107.653 70.5V78H104.953V77.7C104.953 75.58 104.64 73.96 104.013 72.84C103.386 71.72 102.486 71.16 101.313 71.16C100.566 71.16 99.933 71.4333 99.413 71.98C98.9064 72.5133 98.6064 73.2133 98.513 74.08C98.6064 73.9867 98.7664 73.9067 98.993 73.84C99.2197 73.76 99.433 73.72 99.633 73.72C100.353 73.72 100.94 73.9333 101.393 74.36C101.86 74.7733 102.093 75.3067 102.093 75.96C102.093 76.6267 101.84 77.1667 101.333 77.58C100.84 77.9933 100.193 78.2 99.393 78.2ZM99.653 77.5C100.106 77.5 100.473 77.36 100.753 77.08C101.033 76.7867 101.173 76.4133 101.173 75.96C101.173 75.5067 101.033 75.14 100.753 74.86C100.473 74.58 100.106 74.44 99.653 74.44C99.1997 74.44 98.8264 74.58 98.533 74.86C98.253 75.14 98.113 75.5067 98.113 75.96C98.113 76.4133 98.253 76.7867 98.533 77.08C98.8264 77.36 99.1997 77.5 99.653 77.5ZM110.057 78C110.057 76.84 109.991 75.4467 109.857 73.82C109.737 72.26 109.677 71.0933 109.677 70.32C109.677 69.08 109.964 68.1533 110.537 67.54C111.111 66.9133 111.997 66.6 113.197 66.6C113.984 66.6 114.611 66.8067 115.077 67.22C115.557 67.6333 115.797 68.1733 115.797 68.84C115.797 69.52 115.564 70.0667 115.097 70.48C114.644 70.88 114.024 71.08 113.237 71.08C112.957 71.08 112.677 71.02 112.397 70.9V71.34C112.424 72.02 112.451 72.58 112.477 73.02C112.491 73.46 112.531 74.1267 112.597 75.02L115.017 71.84H116.617L118.877 74.78V66.8H121.577V78H118.977L115.817 73.86L112.677 78H110.057ZM113.397 70.36C113.851 70.36 114.217 70.22 114.497 69.94C114.791 69.66 114.937 69.2933 114.937 68.84C114.937 68.3867 114.791 68.02 114.497 67.74C114.217 67.4467 113.851 67.3 113.397 67.3C112.944 67.3 112.577 67.4467 112.297 67.74C112.017 68.02 111.877 68.3867 111.877 68.84C111.877 69.2933 112.017 69.66 112.297 69.94C112.577 70.22 112.944 70.36 113.397 70.36ZM127.303 78.2C126.277 78.2 125.45 77.8867 124.823 77.26C124.197 76.6333 123.883 75.8 123.883 74.76C123.883 73.8533 124.097 73.06 124.523 72.38C124.95 71.7 125.557 71.18 126.343 70.82C127.13 70.4467 128.05 70.26 129.103 70.26C129.917 70.26 130.657 70.4533 131.323 70.84C132.003 71.2133 132.517 71.7333 132.863 72.4V70.34C132.863 69.46 132.577 68.76 132.003 68.24C131.43 67.72 130.657 67.46 129.683 67.46C128.697 67.46 127.863 67.6867 127.183 68.14C126.517 68.5933 126.097 69.2133 125.923 70H123.583C123.77 68.96 124.41 68.1333 125.503 67.52C126.61 66.9067 128.003 66.6 129.683 66.6C130.883 66.6 131.923 66.76 132.803 67.08C133.697 67.3867 134.377 67.8333 134.843 68.42C135.323 69.0067 135.563 69.7 135.563 70.5V78H132.863V77.7C132.863 75.58 132.55 73.96 131.923 72.84C131.297 71.72 130.397 71.16 129.223 71.16C128.477 71.16 127.843 71.4333 127.323 71.98C126.817 72.5133 126.517 73.2133 126.423 74.08C126.517 73.9867 126.677 73.9067 126.903 73.84C127.13 73.76 127.343 73.72 127.543 73.72C128.263 73.72 128.85 73.9333 129.303 74.36C129.77 74.7733 130.003 75.3067 130.003 75.96C130.003 76.6267 129.75 77.1667 129.243 77.58C128.75 77.9933 128.103 78.2 127.303 78.2ZM127.563 77.5C128.017 77.5 128.383 77.36 128.663 77.08C128.943 76.7867 129.083 76.4133 129.083 75.96C129.083 75.5067 128.943 75.14 128.663 74.86C128.383 74.58 128.017 74.44 127.563 74.44C127.11 74.44 126.737 74.58 126.443 74.86C126.163 75.14 126.023 75.5067 126.023 75.96C126.023 76.4133 126.163 76.7867 126.443 77.08C126.737 77.36 127.11 77.5 127.563 77.5ZM124.392 64.76C124.446 63.9867 124.712 63.3 125.192 62.7C125.659 62.1 126.286 61.6333 127.072 61.3C127.859 60.9667 128.746 60.8 129.732 60.8C130.772 60.8 131.712 60.9667 132.552 61.3C133.379 61.6333 134.046 62.1 134.552 62.7C135.046 63.3 135.319 63.9867 135.372 64.76H124.392ZM133.212 63.92C133.119 63.28 132.752 62.76 132.112 62.36C131.459 61.9467 130.666 61.74 129.732 61.74C128.786 61.74 127.992 61.94 127.352 62.34C126.712 62.74 126.352 63.2667 126.272 63.92H133.212ZM137.988 76.88C137.988 75.64 137.934 74.4467 137.828 73.3C137.734 72.38 137.688 71.6533 137.688 71.12C137.688 70.24 137.854 69.46 138.188 68.78C138.534 68.0867 139.008 67.5533 139.608 67.18C140.208 66.7933 140.894 66.6 141.668 66.6C142.201 66.6 142.681 66.7067 143.108 66.92C143.548 67.1333 143.854 67.42 144.028 67.78C144.241 67.4067 144.541 67.12 144.928 66.92C145.328 66.7067 145.794 66.6 146.328 66.6C147.394 66.6 148.234 66.88 148.848 67.44C149.461 67.9867 149.768 68.74 149.768 69.7V78H147.068V69.58C147.068 68.94 146.954 68.4467 146.728 68.1C146.514 67.7533 146.201 67.58 145.788 67.58C145.481 67.58 145.214 67.7 144.988 67.94C144.774 68.1667 144.614 68.4933 144.508 68.92H143.508C143.414 68.4933 143.248 68.1667 143.008 67.94C142.768 67.7 142.474 67.58 142.128 67.58C141.554 67.58 141.121 67.8667 140.828 68.44C140.534 69.0133 140.388 69.8667 140.388 71C140.388 71.3333 140.421 72.0467 140.488 73.14C140.568 74.46 140.614 75.6733 140.628 76.78C142.281 76.0867 143.521 75.3533 144.348 74.58C144.214 74.66 144.041 74.7 143.828 74.7C143.121 74.7 142.541 74.4933 142.088 74.08C141.634 73.6533 141.408 73.1133 141.408 72.46C141.408 71.8067 141.621 71.2733 142.048 70.86C142.488 70.4467 143.061 70.24 143.768 70.24C144.488 70.24 145.074 70.4667 145.528 70.92C145.981 71.36 146.208 71.9333 146.208 72.64C146.208 73.68 145.694 74.6533 144.668 75.56C143.654 76.4667 142.154 77.28 140.168 78H137.988V76.88ZM143.768 74C144.234 74 144.608 73.86 144.888 73.58C145.181 73.2867 145.328 72.9133 145.328 72.46C145.328 72.0067 145.181 71.64 144.888 71.36C144.608 71.08 144.234 70.94 143.768 70.94C143.314 70.94 142.941 71.08 142.648 71.36C142.368 71.64 142.228 72.0067 142.228 72.46C142.228 72.9133 142.368 73.2867 142.648 73.58C142.941 73.86 143.314 74 143.768 74ZM162.487 66.8C163.26 66.8 163.847 66.96 164.247 67.28C164.66 67.6 164.867 68.06 164.867 68.66V77.98H162.167V68.66C162.167 68.5 162.12 68.38 162.027 68.3C161.933 68.2067 161.807 68.16 161.647 68.16H161.107L156.967 77.98H154.327V70.9C154.087 71.02 153.8 71.08 153.467 71.08C152.773 71.08 152.207 70.8733 151.767 70.46C151.327 70.0467 151.107 69.5133 151.107 68.86C151.107 68.1933 151.353 67.6533 151.847 67.24C152.34 66.8133 152.98 66.6 153.767 66.6C154.78 66.6 155.573 66.8533 156.147 67.36C156.72 67.8667 157.007 68.5667 157.007 69.46V74.96L160.367 66.8H162.487ZM153.547 70.36C154 70.36 154.367 70.22 154.647 69.94C154.94 69.66 155.087 69.2933 155.087 68.84C155.087 68.3867 154.94 68.02 154.647 67.74C154.367 67.4467 154 67.3 153.547 67.3C153.093 67.3 152.72 67.4467 152.427 67.74C152.147 68.02 152.007 68.3867 152.007 68.84C152.007 69.2933 152.147 69.66 152.427 69.94C152.72 70.22 153.093 70.36 153.547 70.36ZM173.764 70.16C173.764 69.3067 173.544 68.64 173.104 68.16C172.664 67.68 172.044 67.44 171.244 67.44C170.484 67.44 169.871 67.6867 169.404 68.18C168.938 68.66 168.671 69.34 168.604 70.22H166.264C166.318 69.1 166.784 68.22 167.664 67.58C168.544 66.9267 169.738 66.6 171.244 66.6C172.844 66.6 174.111 66.9467 175.044 67.64C175.978 68.3333 176.444 69.2867 176.444 70.5V78H173.764V70.16ZM181.646 78C181.446 76.7333 181 75.4933 180.306 74.28C179.626 73.0533 178.8 72.0267 177.826 71.2L179.946 69.7C180.893 70.3667 181.706 71.3333 182.386 72.6C183.08 73.8533 183.593 75.3267 183.926 77.02H186.266V70.9C186 71.02 185.706 71.08 185.386 71.08C184.693 71.08 184.126 70.8733 183.686 70.46C183.26 70.0467 183.046 69.5133 183.046 68.86C183.046 68.1933 183.293 67.6533 183.786 67.24C184.28 66.8133 184.92 66.6 185.706 66.6C186.72 66.6 187.513 66.8533 188.086 67.36C188.66 67.8667 188.946 68.5667 188.946 69.46V78H181.646ZM185.486 70.36C185.94 70.36 186.306 70.22 186.586 69.94C186.866 69.66 187.006 69.2933 187.006 68.84C187.006 68.3867 186.866 68.02 186.586 67.74C186.306 67.4467 185.94 67.3 185.486 67.3C185.033 67.3 184.66 67.4467 184.366 67.74C184.086 68.02 183.946 68.3867 183.946 68.84C183.946 69.2933 184.086 69.66 184.366 69.94C184.66 70.22 185.033 70.36 185.486 70.36ZM191.346 73.66C191.346 72.54 191.86 71.7467 192.886 71.28H190.746C190.773 70.32 191.033 69.4867 191.526 68.78C192.02 68.0733 192.706 67.5333 193.586 67.16C194.48 66.7867 195.526 66.6 196.726 66.6C197.873 66.6 198.866 66.76 199.706 67.08C200.546 67.4 201.193 67.8533 201.646 68.44C202.1 69.0267 202.326 69.72 202.326 70.52V78H199.626V70.32C199.626 69.4 199.373 68.6933 198.866 68.2C198.36 67.6933 197.64 67.44 196.706 67.44C195.68 67.44 194.866 67.6867 194.266 68.18C193.666 68.6733 193.326 69.3733 193.246 70.28H196.026V71.04C195.333 71.1067 194.826 71.3067 194.506 71.64C194.2 71.9733 194.046 72.48 194.046 73.16V78H191.346V73.66ZM211.225 70.16C211.225 69.3067 211.005 68.64 210.565 68.16C210.125 67.68 209.505 67.44 208.705 67.44C207.945 67.44 207.332 67.6867 206.865 68.18C206.399 68.66 206.132 69.34 206.065 70.22H203.725C203.779 69.1 204.245 68.22 205.125 67.58C206.005 66.9267 207.199 66.6 208.705 66.6C210.305 66.6 211.572 66.9467 212.505 67.64C213.439 68.3333 213.905 69.2867 213.905 70.5V78H211.225V70.16ZM222.567 78.2C221.821 78.2 221.214 77.9933 220.747 77.58C220.281 77.1533 220.047 76.6067 220.047 75.94C220.047 75.2867 220.274 74.7533 220.727 74.34C221.181 73.9267 221.761 73.72 222.467 73.72C222.734 73.72 223.001 73.78 223.267 73.9V71.24H215.267C215.267 69.7467 215.634 68.6 216.367 67.8C217.101 67 218.154 66.6 219.527 66.6C220.007 66.6 220.454 66.6533 220.867 66.76C221.281 66.8533 221.727 67.02 222.207 67.26C222.567 67.4333 222.841 67.5533 223.027 67.62C223.214 67.6867 223.381 67.72 223.527 67.72C223.821 67.72 224.054 67.62 224.227 67.42C224.414 67.2067 224.514 66.9333 224.527 66.6H226.707C226.681 67.28 226.427 67.8267 225.947 68.24C225.467 68.6533 224.827 68.86 224.027 68.86C223.281 68.86 222.521 68.6667 221.747 68.28C221.307 68.0667 220.967 67.9267 220.727 67.86C220.487 67.7933 220.214 67.76 219.907 67.76C218.707 67.76 218.067 68.5933 217.987 70.26H225.967V75.3C225.967 76.22 225.667 76.9333 225.067 77.44C224.467 77.9467 223.634 78.2 222.567 78.2ZM222.487 77.5C222.941 77.5 223.307 77.36 223.587 77.08C223.881 76.7867 224.027 76.4133 224.027 75.96C224.027 75.5067 223.881 75.14 223.587 74.86C223.307 74.58 222.941 74.44 222.487 74.44C222.034 74.44 221.661 74.58 221.367 74.86C221.087 75.14 220.947 75.5067 220.947 75.96C220.947 76.4133 221.087 76.7867 221.367 77.08C221.661 77.36 222.034 77.5 222.487 77.5ZM232.198 78.2C231.185 78.2 230.385 77.9533 229.798 77.46C229.225 76.9533 228.938 76.2467 228.938 75.34V66.8H231.638V73.92C231.838 73.7867 232.125 73.72 232.498 73.72C233.192 73.72 233.752 73.9267 234.178 74.34C234.618 74.7533 234.838 75.2867 234.838 75.94C234.838 76.6067 234.592 77.1533 234.098 77.58C233.618 77.9933 232.985 78.2 232.198 78.2ZM232.418 77.5C232.872 77.5 233.238 77.36 233.518 77.08C233.798 76.7867 233.938 76.4133 233.938 75.96C233.938 75.5067 233.798 75.14 233.518 74.86C233.238 74.58 232.872 74.44 232.418 74.44C231.965 74.44 231.592 74.58 231.298 74.86C231.018 75.14 230.878 75.5067 230.878 75.96C230.878 76.4133 231.018 76.7867 231.298 77.08C231.592 77.36 231.965 77.5 232.418 77.5ZM236.405 73.66C236.405 72.54 236.918 71.7467 237.945 71.28H235.805C235.832 70.32 236.092 69.4867 236.585 68.78C237.078 68.0733 237.765 67.5333 238.645 67.16C239.538 66.7867 240.585 66.6 241.785 66.6C242.932 66.6 243.925 66.76 244.765 67.08C245.605 67.4 246.252 67.8533 246.705 68.44C247.158 69.0267 247.385 69.72 247.385 70.52V78H244.685V70.32C244.685 69.4 244.432 68.6933 243.925 68.2C243.418 67.6933 242.698 67.44 241.765 67.44C240.738 67.44 239.925 67.6867 239.325 68.18C238.725 68.6733 238.385 69.3733 238.305 70.28H241.085V71.04C240.392 71.1067 239.885 71.3067 239.565 71.64C239.258 71.9733 239.105 72.48 239.105 73.16V78H236.405V73.66ZM265.304 70.14C265.264 70.8867 265.031 71.56 264.604 72.16C264.177 72.76 263.591 73.2467 262.844 73.62V78H251.944V70.88C251.851 70.9333 251.717 70.98 251.544 71.02C251.384 71.06 251.231 71.08 251.084 71.08C250.391 71.08 249.824 70.8733 249.384 70.46C248.944 70.0467 248.724 69.5133 248.724 68.86C248.724 68.1933 248.971 67.6533 249.464 67.24C249.957 66.8133 250.597 66.6 251.384 66.6C252.397 66.6 253.191 66.8533 253.764 67.36C254.351 67.8667 254.644 68.5667 254.644 69.46V77.06H260.164V74.34C260.004 74.3533 259.764 74.36 259.444 74.36C258.244 74.36 257.271 74.14 256.524 73.7C255.791 73.2467 255.424 72.6667 255.424 71.96C255.424 71.3867 255.604 70.92 255.964 70.56C256.337 70.1867 256.817 70 257.404 70C257.991 70 258.471 70.18 258.844 70.54C259.217 70.9 259.404 71.3667 259.404 71.94C259.404 72.22 259.337 72.4867 259.204 72.74C259.084 72.9933 258.911 73.2067 258.684 73.38C259.244 73.38 259.737 73.3333 260.164 73.24V66.8H262.844V71.82C263.217 71.3267 263.404 70.7667 263.404 70.14H265.304ZM251.164 70.36C251.617 70.36 251.984 70.22 252.264 69.94C252.557 69.66 252.704 69.2933 252.704 68.84C252.704 68.3867 252.557 68.02 252.264 67.74C251.984 67.4467 251.617 67.3 251.164 67.3C250.711 67.3 250.337 67.4467 250.044 67.74C249.764 68.02 249.624 68.3867 249.624 68.84C249.624 69.2933 249.764 69.66 250.044 69.94C250.337 70.22 250.711 70.36 251.164 70.36ZM257.404 73.14C257.777 73.14 258.077 73.0267 258.304 72.8C258.531 72.5733 258.644 72.2867 258.644 71.94C258.644 71.58 258.531 71.2867 258.304 71.06C258.077 70.8333 257.777 70.72 257.404 70.72C257.044 70.72 256.751 70.8333 256.524 71.06C256.297 71.2867 256.184 71.58 256.184 71.94C256.184 72.2867 256.297 72.5733 256.524 72.8C256.751 73.0267 257.044 73.14 257.404 73.14ZM266.347 76.88C266.347 75.64 266.294 74.4467 266.187 73.3C266.094 72.38 266.047 71.6533 266.047 71.12C266.047 70.24 266.214 69.46 266.547 68.78C266.894 68.0867 267.367 67.5533 267.967 67.18C268.567 66.7933 269.254 66.6 270.027 66.6C270.56 66.6 271.04 66.7067 271.467 66.92C271.907 67.1333 272.214 67.42 272.387 67.78C272.6 67.4067 272.9 67.12 273.287 66.92C273.687 66.7067 274.154 66.6 274.687 66.6C275.754 66.6 276.594 66.88 277.207 67.44C277.82 67.9867 278.127 68.74 278.127 69.7V78H275.427V69.58C275.427 68.94 275.314 68.4467 275.087 68.1C274.874 67.7533 274.56 67.58 274.147 67.58C273.84 67.58 273.574 67.7 273.347 67.94C273.134 68.1667 272.974 68.4933 272.867 68.92H271.867C271.774 68.4933 271.607 68.1667 271.367 67.94C271.127 67.7 270.834 67.58 270.487 67.58C269.914 67.58 269.48 67.8667 269.187 68.44C268.894 69.0133 268.747 69.8667 268.747 71C268.747 71.3333 268.78 72.0467 268.847 73.14C268.927 74.46 268.974 75.6733 268.987 76.78C270.64 76.0867 271.88 75.3533 272.707 74.58C272.574 74.66 272.4 74.7 272.187 74.7C271.48 74.7 270.9 74.4933 270.447 74.08C269.994 73.6533 269.767 73.1133 269.767 72.46C269.767 71.8067 269.98 71.2733 270.407 70.86C270.847 70.4467 271.42 70.24 272.127 70.24C272.847 70.24 273.434 70.4667 273.887 70.92C274.34 71.36 274.567 71.9333 274.567 72.64C274.567 73.68 274.054 74.6533 273.027 75.56C272.014 76.4667 270.514 77.28 268.527 78H266.347V76.88ZM272.127 74C272.594 74 272.967 73.86 273.247 73.58C273.54 73.2867 273.687 72.9133 273.687 72.46C273.687 72.0067 273.54 71.64 273.247 71.36C272.967 71.08 272.594 70.94 272.127 70.94C271.674 70.94 271.3 71.08 271.007 71.36C270.727 71.64 270.587 72.0067 270.587 72.46C270.587 72.9133 270.727 73.2867 271.007 73.58C271.3 73.86 271.674 74 272.127 74ZM286.786 78.2C286.04 78.2 285.433 77.9933 284.966 77.58C284.5 77.1533 284.266 76.6067 284.266 75.94C284.266 75.2867 284.493 74.7533 284.946 74.34C285.4 73.9267 285.98 73.72 286.686 73.72C286.953 73.72 287.22 73.78 287.486 73.9V71.24H279.486C279.486 69.7467 279.853 68.6 280.586 67.8C281.32 67 282.373 66.6 283.746 66.6C284.226 66.6 284.673 66.6533 285.086 66.76C285.5 66.8533 285.946 67.02 286.426 67.26C286.786 67.4333 287.06 67.5533 287.246 67.62C287.433 67.6867 287.6 67.72 287.746 67.72C288.04 67.72 288.273 67.62 288.446 67.42C288.633 67.2067 288.733 66.9333 288.746 66.6H290.926C290.9 67.28 290.646 67.8267 290.166 68.24C289.686 68.6533 289.046 68.86 288.246 68.86C287.5 68.86 286.74 68.6667 285.966 68.28C285.526 68.0667 285.186 67.9267 284.946 67.86C284.706 67.7933 284.433 67.76 284.126 67.76C282.926 67.76 282.286 68.5933 282.206 70.26H290.186V75.3C290.186 76.22 289.886 76.9333 289.286 77.44C288.686 77.9467 287.853 78.2 286.786 78.2ZM286.706 77.5C287.16 77.5 287.526 77.36 287.806 77.08C288.1 76.7867 288.246 76.4133 288.246 75.96C288.246 75.5067 288.1 75.14 287.806 74.86C287.526 74.58 287.16 74.44 286.706 74.44C286.253 74.44 285.88 74.58 285.586 74.86C285.306 75.14 285.166 75.5067 285.166 75.96C285.166 76.4133 285.306 76.7867 285.586 77.08C285.88 77.36 286.253 77.5 286.706 77.5ZM31.4088 94.88C32.3888 94.59 33.1288 94.175 33.6288 93.635C34.1388 93.085 34.3938 92.435 34.3938 91.685C34.3938 91.175 34.3038 90.77 34.1238 90.47C33.9538 90.17 33.7238 90.02 33.4338 90.02C33.2738 90.02 33.1238 90.08 32.9838 90.2C32.8438 90.31 32.7438 90.46 32.6838 90.65H32.3238C32.2538 90.46 32.1338 90.31 31.9638 90.2C31.8038 90.08 31.6238 90.02 31.4238 90.02C31.1438 90.02 30.8838 90.14 30.6438 90.38C30.4038 90.61 30.2438 90.9 30.1638 91.25C30.2638 91.16 30.4088 91.085 30.5988 91.025C30.7888 90.965 30.9788 90.935 31.1688 90.935C31.6488 90.935 32.0388 91.085 32.3388 91.385C32.6488 91.685 32.8038 92.08 32.8038 92.57C32.8038 93.06 32.6438 93.46 32.3238 93.77C32.0138 94.07 31.6088 94.22 31.1088 94.22C30.5188 94.22 30.0488 94.025 29.6988 93.635C29.3488 93.245 29.1738 92.725 29.1738 92.075C29.1738 91.575 29.2638 91.125 29.4438 90.725C29.6338 90.325 29.8938 90.015 30.2238 89.795C30.5538 89.565 30.9188 89.45 31.3188 89.45C31.5688 89.45 31.7938 89.505 31.9938 89.615C32.2038 89.715 32.3738 89.86 32.5038 90.05C32.6438 89.86 32.8138 89.715 33.0138 89.615C33.2238 89.505 33.4538 89.45 33.7038 89.45C34.2838 89.45 34.7388 89.65 35.0688 90.05C35.4088 90.44 35.5788 90.965 35.5788 91.625C35.5788 92.415 35.3338 93.12 34.8438 93.74C34.3538 94.36 33.6888 94.805 32.8488 95.075V97.37H37.0038V93.2C37.0038 92.9 36.9088 92.64 36.7188 92.42C36.5288 92.2 36.2738 92.045 35.9538 91.955V91.625C36.3138 91.465 36.5838 91.2 36.7638 90.83C36.9538 90.46 37.0488 90 37.0488 89.45H38.7738C38.6838 90.69 38.1438 91.46 37.1538 91.76C37.5638 91.89 37.8788 92.08 38.0988 92.33C38.3288 92.57 38.4438 92.85 38.4438 93.17V98H31.4088V94.88ZM31.1238 93.74C31.4738 93.74 31.7538 93.63 31.9638 93.41C32.1838 93.19 32.2938 92.91 32.2938 92.57C32.2938 92.23 32.1838 91.955 31.9638 91.745C31.7438 91.525 31.4638 91.415 31.1238 91.415C30.7838 91.415 30.5038 91.525 30.2838 91.745C30.0638 91.955 29.9538 92.23 29.9538 92.57C29.9538 92.91 30.0638 93.19 30.2838 93.41C30.5038 93.63 30.7838 93.74 31.1238 93.74ZM39.2264 85.97C39.2264 86.3 39.1364 86.58 38.9564 86.81C38.7764 87.04 38.5364 87.19 38.2364 87.26C38.3664 87.53 38.4364 87.8 38.4464 88.07H30.6764C30.7164 87.54 30.9064 87.07 31.2464 86.66C31.5764 86.24 32.0264 85.915 32.5964 85.685C33.1564 85.455 33.7914 85.34 34.5014 85.34C35.3014 85.34 36.0114 85.48 36.6314 85.76C36.6814 85.43 36.8214 85.165 37.0514 84.965C37.2814 84.765 37.5714 84.665 37.9214 84.665C38.3014 84.665 38.6164 84.79 38.8664 85.04C39.1064 85.28 39.2264 85.59 39.2264 85.97ZM37.9214 86.78C38.1514 86.78 38.3414 86.705 38.4914 86.555C38.6414 86.395 38.7164 86.2 38.7164 85.97C38.7164 85.74 38.6414 85.55 38.4914 85.4C38.3414 85.25 38.1514 85.175 37.9214 85.175C37.6914 85.175 37.5014 85.25 37.3514 85.4C37.1914 85.55 37.1114 85.74 37.1114 85.97C37.1114 86.2 37.1914 86.395 37.3514 86.555C37.5014 86.705 37.6914 86.78 37.9214 86.78ZM37.2014 87.575C37.1314 87.085 36.8464 86.685 36.3464 86.375C35.8464 86.065 35.2314 85.91 34.5014 85.91C33.7614 85.91 33.1464 86.065 32.6564 86.375C32.1664 86.675 31.8864 87.075 31.8164 87.575H37.2014ZM37.1264 81.44H38.4014V84.11H37.1264V81.44ZM42.6464 98C42.4864 97 42.1364 96.035 41.5964 95.105C41.0564 94.175 40.4164 93.43 39.6764 92.87L40.7864 92.075C41.4764 92.525 42.0864 93.22 42.6164 94.16C43.1464 95.09 43.5314 96.16 43.7714 97.37H46.0064V92.42C45.9064 92.52 45.7714 92.6 45.6014 92.66C45.4314 92.71 45.2464 92.735 45.0464 92.735C44.5464 92.735 44.1414 92.585 43.8314 92.285C43.5214 91.985 43.3664 91.59 43.3664 91.1C43.3664 90.61 43.5414 90.215 43.8914 89.915C44.2414 89.605 44.7064 89.45 45.2864 89.45C45.9664 89.45 46.4964 89.635 46.8764 90.005C47.2564 90.375 47.4464 90.895 47.4464 91.565V98H42.6464ZM45.0914 92.255C45.4414 92.255 45.7214 92.145 45.9314 91.925C46.1514 91.705 46.2614 91.425 46.2614 91.085C46.2614 90.745 46.1514 90.47 45.9314 90.26C45.7114 90.04 45.4314 89.93 45.0914 89.93C44.7514 89.93 44.4714 90.04 44.2514 90.26C44.0414 90.47 43.9364 90.745 43.9364 91.085C43.9364 91.425 44.0414 91.705 44.2514 91.925C44.4714 92.145 44.7514 92.255 45.0914 92.255ZM50.4105 94.88C51.3705 94.59 52.0855 94.22 52.5555 93.77C53.0255 93.31 53.2605 92.755 53.2605 92.105C53.2605 91.485 53.0805 90.985 52.7205 90.605C52.3705 90.215 51.9155 90.02 51.3555 90.02C50.9855 90.02 50.6505 90.105 50.3505 90.275C50.0505 90.445 49.8455 90.665 49.7355 90.935C49.8455 90.845 49.9855 90.775 50.1555 90.725C50.3355 90.665 50.5155 90.635 50.6955 90.635C51.1755 90.635 51.5705 90.79 51.8805 91.1C52.1905 91.4 52.3455 91.79 52.3455 92.27C52.3455 92.75 52.1855 93.145 51.8655 93.455C51.5455 93.765 51.1355 93.92 50.6355 93.92C50.0555 93.92 49.5855 93.73 49.2255 93.35C48.8655 92.96 48.6855 92.46 48.6855 91.85C48.6855 91.12 48.9355 90.54 49.4355 90.11C49.9455 89.67 50.6255 89.45 51.4755 89.45C52.3655 89.45 53.0755 89.69 53.6055 90.17C54.1355 90.64 54.4005 91.27 54.4005 92.06C54.4005 93.44 53.5505 94.445 51.8505 95.075V97.37H56.0055V93.2C56.0055 92.9 55.9105 92.64 55.7205 92.42C55.5305 92.2 55.2755 92.045 54.9555 91.955V91.625C55.3155 91.465 55.5855 91.2 55.7655 90.83C55.9555 90.46 56.0505 90 56.0505 89.45H57.7755C57.6855 90.69 57.1455 91.46 56.1555 91.76C56.5655 91.89 56.8805 92.08 57.1005 92.33C57.3305 92.57 57.4455 92.85 57.4455 93.17V98H50.4105V94.88ZM50.6505 93.44C51.0005 93.44 51.2805 93.33 51.4905 93.11C51.7105 92.89 51.8205 92.61 51.8205 92.27C51.8205 91.93 51.7105 91.65 51.4905 91.43C51.2705 91.21 50.9905 91.1 50.6505 91.1C50.3105 91.1 50.0305 91.21 49.8105 91.43C49.5905 91.65 49.4805 91.93 49.4805 92.27C49.4805 92.61 49.5905 92.89 49.8105 93.11C50.0305 93.33 50.3105 93.44 50.6505 93.44ZM56.0654 84.89H57.3854V88.07H56.0654V84.89ZM63.9254 98.15C63.3654 98.15 62.9154 98 62.5754 97.7C62.2354 97.39 62.0654 96.99 62.0654 96.5C62.0654 96.01 62.2254 95.615 62.5454 95.315C62.8654 95.015 63.2754 94.865 63.7754 94.865C63.9554 94.865 64.1304 94.9 64.3004 94.97C64.4704 95.03 64.6054 95.105 64.7054 95.195V92.24C64.7054 91.54 64.4954 90.99 64.0754 90.59C63.6654 90.19 63.1004 89.99 62.3804 89.99C61.6604 89.99 61.0804 90.2 60.6404 90.62C60.2104 91.04 59.9804 91.615 59.9504 92.345H58.5854C58.6354 91.435 59.0004 90.725 59.6804 90.215C60.3704 89.705 61.2954 89.45 62.4554 89.45C63.6354 89.45 64.5454 89.705 65.1854 90.215C65.8254 90.715 66.1454 91.43 66.1454 92.36V96.02C66.1454 96.7 65.9504 97.225 65.5604 97.595C65.1704 97.965 64.6254 98.15 63.9254 98.15ZM63.7904 97.67C64.1304 97.67 64.4104 97.565 64.6304 97.355C64.8504 97.135 64.9604 96.855 64.9604 96.515C64.9604 96.165 64.8504 95.885 64.6304 95.675C64.4204 95.455 64.1404 95.345 63.7904 95.345C63.4504 95.345 63.1704 95.455 62.9504 95.675C62.7404 95.895 62.6354 96.175 62.6354 96.515C62.6354 96.855 62.7404 97.135 62.9504 97.355C63.1704 97.565 63.4504 97.67 63.7904 97.67ZM76.2416 89.6V98H68.5766V96.05C68.5766 95.67 68.7216 95.33 69.0116 95.03C69.3016 94.73 69.6916 94.51 70.1816 94.37C69.5016 94.2 68.9716 93.9 68.5916 93.47C68.2216 93.04 68.0366 92.515 68.0366 91.895C68.0366 91.165 68.2966 90.575 68.8166 90.125C69.3366 89.675 70.0166 89.45 70.8566 89.45C71.5366 89.45 72.0916 89.62 72.5216 89.96C72.9516 90.3 73.1666 90.745 73.1666 91.295C73.1666 91.795 73.0016 92.2 72.6716 92.51C72.3516 92.82 71.9316 92.975 71.4116 92.975C70.8916 92.975 70.4666 92.825 70.1366 92.525C69.8066 92.215 69.6416 91.815 69.6416 91.325C69.6416 91.015 69.7566 90.745 69.9866 90.515C69.5766 90.815 69.3716 91.275 69.3716 91.895C69.3716 93.275 70.3066 93.965 72.1766 93.965H72.3116V94.58H72.1916C71.4916 94.58 70.9516 94.715 70.5716 94.985C70.2016 95.245 70.0166 95.625 70.0166 96.125V97.37H74.8016V89.6H76.2416ZM71.3966 90.155C71.0566 90.155 70.7766 90.265 70.5566 90.485C70.3366 90.705 70.2266 90.985 70.2266 91.325C70.2266 91.665 70.3366 91.945 70.5566 92.165C70.7766 92.385 71.0566 92.495 71.3966 92.495C71.7466 92.495 72.0316 92.385 72.2516 92.165C72.4716 91.945 72.5816 91.665 72.5816 91.325C72.5816 90.985 72.4716 90.705 72.2516 90.485C72.0316 90.265 71.7466 90.155 71.3966 90.155ZM81.1743 98.15C80.5143 98.15 79.9843 97.97 79.5843 97.61C79.1943 97.25 78.9993 96.725 78.9993 96.035V89.915C78.9993 89.555 79.0943 89.205 79.2843 88.865C79.4743 88.515 79.7543 88.14 80.1243 87.74C80.4943 87.32 80.7643 86.96 80.9343 86.66C81.1143 86.35 81.2043 86.015 81.2043 85.655C81.2043 85.155 81.0193 84.75 80.6493 84.44C80.2793 84.13 79.7943 83.975 79.1943 83.975C78.7143 83.975 78.2943 84.09 77.9343 84.32C77.5743 84.54 77.3243 84.84 77.1843 85.22C77.3143 85.06 77.4943 84.935 77.7243 84.845C77.9643 84.745 78.2193 84.695 78.4893 84.695C78.9793 84.695 79.3793 84.85 79.6893 85.16C79.9993 85.46 80.1543 85.845 80.1543 86.315C80.1543 86.805 79.9843 87.205 79.6443 87.515C79.3043 87.815 78.8693 87.965 78.3393 87.965C77.7393 87.965 77.2593 87.78 76.8993 87.41C76.5293 87.04 76.3443 86.55 76.3443 85.94C76.3443 85.46 76.4743 85.03 76.7343 84.65C76.9843 84.27 77.3343 83.975 77.7843 83.765C78.2443 83.545 78.7643 83.435 79.3443 83.435C79.9543 83.435 80.4893 83.53 80.9493 83.72C81.4193 83.9 81.7843 84.16 82.0443 84.5C82.3043 84.83 82.4343 85.215 82.4343 85.655C82.4343 86.075 82.3493 86.46 82.1793 86.81C82.0093 87.15 81.7443 87.53 81.3843 87.95C81.0643 88.31 80.8243 88.65 80.6643 88.97C80.5143 89.28 80.4393 89.6 80.4393 89.93V95.195C80.5293 95.105 80.6593 95.03 80.8293 94.97C81.0093 94.9 81.1993 94.865 81.3993 94.865C81.8993 94.865 82.2993 95.015 82.5993 95.315C82.9093 95.615 83.0643 96.01 83.0643 96.5C83.0643 97 82.8893 97.4 82.5393 97.7C82.1993 98 81.7443 98.15 81.1743 98.15ZM78.4443 87.5C78.7943 87.5 79.0793 87.39 79.2993 87.17C79.5193 86.94 79.6293 86.655 79.6293 86.315C79.6293 85.965 79.5193 85.68 79.2993 85.46C79.0793 85.24 78.7943 85.13 78.4443 85.13C78.1043 85.13 77.8193 85.24 77.5893 85.46C77.3693 85.68 77.2593 85.965 77.2593 86.315C77.2593 86.655 77.3693 86.94 77.5893 87.17C77.8193 87.39 78.1043 87.5 78.4443 87.5ZM81.3543 97.7C81.7043 97.7 81.9893 97.59 82.2093 97.37C82.4293 97.14 82.5393 96.855 82.5393 96.515C82.5393 96.165 82.4293 95.88 82.2093 95.66C81.9893 95.44 81.7043 95.33 81.3543 95.33C81.0043 95.33 80.7193 95.44 80.4993 95.66C80.2793 95.88 80.1693 96.165 80.1693 96.515C80.1693 96.855 80.2793 97.14 80.4993 97.37C80.7293 97.59 81.0143 97.7 81.3543 97.7ZM92.741 92.555C93.001 92.705 93.201 92.9 93.341 93.14C93.491 93.37 93.566 93.635 93.566 93.935V98H92.126V93.68C92.126 93.41 92.016 93.185 91.796 93.005C91.576 92.825 91.306 92.735 90.986 92.735C90.466 92.735 89.951 92.89 89.441 93.2C88.941 93.51 88.526 93.91 88.196 94.4C87.876 94.89 87.716 95.385 87.716 95.885V98H86.276V92.405C86.186 92.495 86.051 92.575 85.871 92.645C85.701 92.705 85.521 92.735 85.331 92.735C84.831 92.735 84.426 92.585 84.116 92.285C83.806 91.985 83.651 91.59 83.651 91.1C83.651 90.61 83.826 90.215 84.176 89.915C84.526 89.605 84.986 89.45 85.556 89.45C86.236 89.45 86.766 89.635 87.146 90.005C87.526 90.375 87.716 90.895 87.716 91.565V94.19C87.966 93.7 88.381 93.275 88.961 92.915C89.541 92.545 90.156 92.32 90.806 92.24C90.456 91.94 90.281 91.545 90.281 91.055C90.281 90.585 90.446 90.2 90.776 89.9C91.106 89.6 91.536 89.45 92.066 89.45C92.596 89.45 93.026 89.6 93.356 89.9C93.686 90.2 93.851 90.585 93.851 91.055C93.851 91.415 93.751 91.73 93.551 92C93.351 92.26 93.081 92.445 92.741 92.555ZM92.066 89.915C91.716 89.915 91.431 90.02 91.211 90.23C91.001 90.44 90.896 90.715 90.896 91.055C90.896 91.395 91.001 91.67 91.211 91.88C91.431 92.09 91.716 92.195 92.066 92.195C92.416 92.195 92.696 92.09 92.906 91.88C93.126 91.67 93.236 91.395 93.236 91.055C93.236 90.715 93.126 90.44 92.906 90.23C92.696 90.02 92.416 89.915 92.066 89.915ZM85.376 92.255C85.726 92.255 86.006 92.145 86.216 91.925C86.436 91.705 86.546 91.425 86.546 91.085C86.546 90.745 86.436 90.47 86.216 90.26C85.996 90.04 85.716 89.93 85.376 89.93C85.036 89.93 84.756 90.04 84.536 90.26C84.316 90.47 84.206 90.745 84.206 91.085C84.206 91.425 84.316 91.705 84.536 91.925C84.756 92.145 85.036 92.255 85.376 92.255ZM89.5924 87.89C90.1624 87.49 90.5724 87.06 90.8224 86.6C90.7424 86.65 90.6424 86.69 90.5224 86.72C90.4024 86.75 90.2874 86.765 90.1774 86.765C89.8074 86.765 89.5074 86.655 89.2774 86.435C89.0374 86.205 88.9174 85.915 88.9174 85.565C88.9174 85.185 89.0424 84.88 89.2924 84.65C89.5324 84.42 89.8524 84.305 90.2524 84.305C90.6924 84.305 91.0374 84.42 91.2874 84.65C91.5374 84.87 91.6624 85.175 91.6624 85.565C91.6624 86.265 91.3824 86.925 90.8224 87.545C91.6824 87.265 92.3724 86.88 92.8924 86.39C93.4024 85.89 93.7324 85.32 93.8824 84.68H95.0974C94.9874 85.29 94.6724 85.855 94.1524 86.375C93.6224 86.895 92.9674 87.32 92.1874 87.65C91.4074 87.97 90.5824 88.16 89.7124 88.22L89.5924 87.89ZM90.1774 86.315C90.4074 86.315 90.5924 86.245 90.7324 86.105C90.8724 85.965 90.9424 85.785 90.9424 85.565C90.9424 85.335 90.8724 85.15 90.7324 85.01C90.5824 84.86 90.3974 84.785 90.1774 84.785C89.9574 84.785 89.7774 84.86 89.6374 85.01C89.4874 85.15 89.4124 85.335 89.4124 85.565C89.4124 85.785 89.4824 85.965 89.6224 86.105C89.7624 86.245 89.9474 86.315 90.1774 86.315ZM98.3824 98.15C97.7224 98.15 97.1974 97.97 96.8074 97.61C96.4174 97.25 96.2224 96.725 96.2224 96.035V89.6H97.6624V95.195C97.7624 95.095 97.8974 95.015 98.0674 94.955C98.2374 94.895 98.4224 94.865 98.6224 94.865C99.1224 94.865 99.5224 95.015 99.8224 95.315C100.132 95.615 100.287 96.01 100.287 96.5C100.287 97 100.112 97.4 99.7624 97.7C99.4124 98 98.9524 98.15 98.3824 98.15ZM98.5624 97.67C98.9024 97.67 99.1824 97.565 99.4024 97.355C99.6224 97.135 99.7324 96.855 99.7324 96.515C99.7324 96.165 99.6224 95.885 99.4024 95.675C99.1924 95.455 98.9124 95.345 98.5624 95.345C98.2224 95.345 97.9424 95.455 97.7224 95.675C97.5124 95.895 97.4074 96.175 97.4074 96.515C97.4074 96.855 97.5124 97.135 97.7224 97.355C97.9424 97.565 98.2224 97.67 98.5624 97.67ZM101.866 94.67C101.866 94.2 101.971 93.805 102.181 93.485C102.401 93.165 102.716 92.935 103.126 92.795H101.401C101.431 92.115 101.626 91.525 101.986 91.025C102.346 90.515 102.841 90.125 103.471 89.855C104.101 89.585 104.826 89.45 105.646 89.45C106.436 89.45 107.131 89.57 107.731 89.81C108.331 90.05 108.791 90.395 109.111 90.845C109.441 91.285 109.606 91.795 109.606 92.375V98H108.166V92.225C108.166 91.525 107.936 90.975 107.476 90.575C107.026 90.175 106.411 89.975 105.631 89.975C104.811 89.975 104.146 90.18 103.636 90.59C103.126 90.99 102.841 91.545 102.781 92.255H104.746V92.735C104.246 92.835 103.881 93.015 103.651 93.275C103.421 93.535 103.306 93.905 103.306 94.385V98H101.866V94.67ZM122.613 92.12C122.593 92.67 122.433 93.17 122.133 93.62C121.833 94.06 121.428 94.415 120.918 94.685V98H113.463V92.405C113.373 92.495 113.238 92.575 113.058 92.645C112.878 92.705 112.698 92.735 112.518 92.735C112.018 92.735 111.613 92.585 111.303 92.285C110.993 91.985 110.838 91.59 110.838 91.1C110.838 90.61 111.013 90.215 111.363 89.915C111.713 89.605 112.173 89.45 112.743 89.45C113.423 89.45 113.953 89.635 114.333 90.005C114.723 90.375 114.918 90.895 114.918 91.565V97.43H119.478V95.165C119.148 95.215 118.828 95.24 118.518 95.24C117.668 95.24 116.988 95.08 116.478 94.76C115.968 94.44 115.713 94.015 115.713 93.485C115.713 93.055 115.853 92.7 116.133 92.42C116.423 92.14 116.788 92 117.228 92C117.668 92 118.033 92.14 118.323 92.42C118.613 92.69 118.758 93.04 118.758 93.47C118.758 93.71 118.698 93.94 118.578 94.16C118.468 94.37 118.313 94.54 118.113 94.67C118.603 94.66 119.058 94.59 119.478 94.46V89.6H120.918V93.59C121.288 93.17 121.473 92.68 121.473 92.12H122.613ZM112.563 92.255C112.913 92.255 113.193 92.145 113.403 91.925C113.623 91.705 113.733 91.425 113.733 91.085C113.733 90.745 113.623 90.47 113.403 90.26C113.183 90.04 112.903 89.93 112.563 89.93C112.223 89.93 111.943 90.04 111.723 90.26C111.503 90.47 111.393 90.745 111.393 91.085C111.393 91.425 111.503 91.705 111.723 91.925C111.943 92.145 112.223 92.255 112.563 92.255ZM117.228 94.46C117.518 94.46 117.758 94.37 117.948 94.19C118.138 94 118.233 93.76 118.233 93.47C118.233 93.18 118.138 92.945 117.948 92.765C117.758 92.575 117.518 92.48 117.228 92.48C116.938 92.48 116.698 92.575 116.508 92.765C116.318 92.945 116.223 93.18 116.223 93.47C116.223 93.76 116.318 94 116.508 94.19C116.698 94.37 116.938 94.46 117.228 94.46ZM123.62 97.205C123.62 96.295 123.575 95.39 123.485 94.49C123.415 93.78 123.38 93.205 123.38 92.765C123.38 92.105 123.495 91.525 123.725 91.025C123.955 90.525 124.275 90.14 124.685 89.87C125.105 89.59 125.59 89.45 126.14 89.45C126.52 89.45 126.865 89.525 127.175 89.675C127.495 89.825 127.73 90.03 127.88 90.29C128.04 90.02 128.265 89.815 128.555 89.675C128.855 89.525 129.205 89.45 129.605 89.45C130.335 89.45 130.9 89.65 131.3 90.05C131.71 90.45 131.915 91.015 131.915 91.745V98H130.475V91.79C130.475 91.24 130.365 90.82 130.145 90.53C129.935 90.23 129.63 90.08 129.23 90.08C128.97 90.08 128.74 90.16 128.54 90.32C128.35 90.48 128.21 90.705 128.12 90.995H127.61C127.53 90.705 127.385 90.48 127.175 90.32C126.975 90.16 126.735 90.08 126.455 90.08C125.945 90.08 125.545 90.31 125.255 90.77C124.965 91.23 124.82 91.87 124.82 92.69C124.82 93.06 124.845 93.62 124.895 94.37C124.955 95.35 124.99 96.325 125 97.295C126.63 96.655 127.73 95.97 128.3 95.24C128.08 95.34 127.88 95.39 127.7 95.39C127.19 95.39 126.77 95.235 126.44 94.925C126.12 94.615 125.96 94.22 125.96 93.74C125.96 93.26 126.12 92.87 126.44 92.57C126.76 92.26 127.175 92.105 127.685 92.105C128.195 92.105 128.615 92.27 128.945 92.6C129.275 92.92 129.44 93.34 129.44 93.86C129.44 94.65 129.045 95.405 128.255 96.125C127.465 96.835 126.335 97.46 124.865 98H123.62V97.205ZM127.685 94.91C128.035 94.91 128.32 94.8 128.54 94.58C128.76 94.36 128.87 94.08 128.87 93.74C128.87 93.4 128.76 93.12 128.54 92.9C128.32 92.68 128.035 92.57 127.685 92.57C127.335 92.57 127.05 92.68 126.83 92.9C126.61 93.12 126.5 93.4 126.5 93.74C126.5 94.08 126.61 94.36 126.83 94.58C127.05 94.8 127.335 94.91 127.685 94.91ZM138.608 98.15C138.048 98.15 137.598 98 137.258 97.7C136.918 97.4 136.748 97 136.748 96.5C136.748 96.01 136.903 95.615 137.213 95.315C137.533 95.015 137.948 94.865 138.458 94.865C138.638 94.865 138.808 94.895 138.968 94.955C139.138 95.015 139.273 95.09 139.373 95.18V92.87H133.283C133.303 91.78 133.563 90.94 134.063 90.35C134.573 89.75 135.298 89.45 136.238 89.45C136.558 89.45 136.863 89.49 137.153 89.57C137.443 89.64 137.768 89.765 138.128 89.945C138.398 90.085 138.613 90.18 138.773 90.23C138.933 90.28 139.088 90.305 139.238 90.305C139.488 90.305 139.688 90.23 139.838 90.08C139.998 89.92 140.083 89.71 140.093 89.45H141.383C141.363 89.94 141.193 90.33 140.873 90.62C140.553 90.9 140.133 91.04 139.613 91.04C139.353 91.04 139.098 91.01 138.848 90.95C138.608 90.88 138.323 90.765 137.993 90.605C137.653 90.435 137.378 90.325 137.168 90.275C136.958 90.215 136.728 90.185 136.478 90.185C135.388 90.185 134.813 90.87 134.753 92.24H140.828V96.02C140.828 96.7 140.633 97.225 140.243 97.595C139.853 97.965 139.308 98.15 138.608 98.15ZM138.473 97.67C138.813 97.67 139.093 97.565 139.313 97.355C139.533 97.135 139.643 96.855 139.643 96.515C139.643 96.165 139.533 95.885 139.313 95.675C139.103 95.455 138.823 95.345 138.473 95.345C138.133 95.345 137.853 95.455 137.633 95.675C137.413 95.885 137.303 96.165 137.303 96.515C137.303 96.855 137.413 97.135 137.633 97.355C137.853 97.565 138.133 97.67 138.473 97.67ZM142.999 94.67C142.999 94.2 143.104 93.805 143.314 93.485C143.534 93.165 143.849 92.935 144.259 92.795H142.534C142.564 92.115 142.759 91.525 143.119 91.025C143.479 90.515 143.974 90.125 144.604 89.855C145.234 89.585 145.959 89.45 146.779 89.45C147.569 89.45 148.264 89.57 148.864 89.81C149.464 90.05 149.924 90.395 150.244 90.845C150.574 91.285 150.739 91.795 150.739 92.375V98H149.299V92.225C149.299 91.525 149.069 90.975 148.609 90.575C148.159 90.175 147.544 89.975 146.764 89.975C145.944 89.975 145.279 90.18 144.769 90.59C144.259 90.99 143.974 91.545 143.914 92.255H145.879V92.735C145.379 92.835 145.014 93.015 144.784 93.275C144.554 93.535 144.439 93.905 144.439 94.385V98H142.999V94.67ZM157.431 98.15C156.871 98.15 156.421 98 156.081 97.7C155.741 97.4 155.571 97 155.571 96.5C155.571 96.01 155.726 95.615 156.036 95.315C156.356 95.015 156.771 94.865 157.281 94.865C157.461 94.865 157.631 94.895 157.791 94.955C157.961 95.015 158.096 95.09 158.196 95.18V92.87H152.106C152.126 91.78 152.386 90.94 152.886 90.35C153.396 89.75 154.121 89.45 155.061 89.45C155.381 89.45 155.686 89.49 155.976 89.57C156.266 89.64 156.591 89.765 156.951 89.945C157.221 90.085 157.436 90.18 157.596 90.23C157.756 90.28 157.911 90.305 158.061 90.305C158.311 90.305 158.511 90.23 158.661 90.08C158.821 89.92 158.906 89.71 158.916 89.45H160.206C160.186 89.94 160.016 90.33 159.696 90.62C159.376 90.9 158.956 91.04 158.436 91.04C158.176 91.04 157.921 91.01 157.671 90.95C157.431 90.88 157.146 90.765 156.816 90.605C156.476 90.435 156.201 90.325 155.991 90.275C155.781 90.215 155.551 90.185 155.301 90.185C154.211 90.185 153.636 90.87 153.576 92.24H159.651V96.02C159.651 96.7 159.456 97.225 159.066 97.595C158.676 97.965 158.131 98.15 157.431 98.15ZM157.296 97.67C157.636 97.67 157.916 97.565 158.136 97.355C158.356 97.135 158.466 96.855 158.466 96.515C158.466 96.165 158.356 95.885 158.136 95.675C157.926 95.455 157.646 95.345 157.296 95.345C156.956 95.345 156.676 95.455 156.456 95.675C156.236 95.885 156.126 96.165 156.126 96.515C156.126 96.855 156.236 97.135 156.456 97.355C156.676 97.565 156.956 97.67 157.296 97.67ZM170.763 89.6V98H169.413L165.543 95.72V96.41C165.543 96.95 165.363 97.375 165.003 97.685C164.643 97.995 164.148 98.15 163.518 98.15C162.928 98.15 162.458 97.99 162.108 97.67C161.758 97.34 161.583 96.895 161.583 96.335C161.583 95.725 161.778 95.245 162.168 94.895C162.558 94.535 163.088 94.355 163.758 94.355C163.908 94.355 164.023 94.36 164.103 94.37V92.405C164.003 92.495 163.863 92.575 163.683 92.645C163.513 92.705 163.338 92.735 163.158 92.735C162.658 92.735 162.248 92.585 161.928 92.285C161.618 91.985 161.463 91.59 161.463 91.1C161.463 90.61 161.638 90.215 161.988 89.915C162.338 89.605 162.798 89.45 163.368 89.45C164.048 89.45 164.578 89.635 164.958 90.005C165.348 90.375 165.543 90.895 165.543 91.565V94.805C165.653 94.855 165.718 94.89 165.738 94.91L169.323 97.01V89.6H170.763ZM163.188 92.255C163.538 92.255 163.818 92.145 164.028 91.925C164.248 91.705 164.358 91.425 164.358 91.085C164.358 90.745 164.248 90.47 164.028 90.26C163.808 90.04 163.528 89.93 163.188 89.93C162.848 89.93 162.568 90.04 162.348 90.26C162.128 90.47 162.018 90.745 162.018 91.085C162.018 91.425 162.128 91.705 162.348 91.925C162.568 92.145 162.848 92.255 163.188 92.255ZM164.103 95.075C163.923 94.995 163.728 94.955 163.518 94.955C163.138 94.955 162.828 95.085 162.588 95.345C162.358 95.605 162.243 95.94 162.243 96.35C162.243 96.74 162.333 97.05 162.513 97.28C162.693 97.5 162.943 97.61 163.263 97.61C163.823 97.61 164.103 97.295 164.103 96.665V95.075ZM170.766 84.785V88.07H162.996C163.036 87.54 163.226 87.07 163.566 86.66C163.896 86.24 164.346 85.915 164.916 85.685C165.486 85.455 166.121 85.34 166.821 85.34C167.791 85.34 168.646 85.565 169.386 86.015V84.785H170.766ZM169.521 87.575C169.451 87.085 169.166 86.685 168.666 86.375C168.166 86.065 167.551 85.91 166.821 85.91C166.081 85.91 165.466 86.065 164.976 86.375C164.486 86.675 164.206 87.075 164.136 87.575H169.521ZM177.456 98.15C176.896 98.15 176.446 98 176.106 97.7C175.766 97.4 175.596 97 175.596 96.5C175.596 96.01 175.751 95.615 176.061 95.315C176.381 95.015 176.796 94.865 177.306 94.865C177.486 94.865 177.656 94.895 177.816 94.955C177.986 95.015 178.121 95.09 178.221 95.18V92.87H172.131C172.151 91.78 172.411 90.94 172.911 90.35C173.421 89.75 174.146 89.45 175.086 89.45C175.406 89.45 175.711 89.49 176.001 89.57C176.291 89.64 176.616 89.765 176.976 89.945C177.246 90.085 177.461 90.18 177.621 90.23C177.781 90.28 177.936 90.305 178.086 90.305C178.336 90.305 178.536 90.23 178.686 90.08C178.846 89.92 178.931 89.71 178.941 89.45H180.231C180.211 89.94 180.041 90.33 179.721 90.62C179.401 90.9 178.981 91.04 178.461 91.04C178.201 91.04 177.946 91.01 177.696 90.95C177.456 90.88 177.171 90.765 176.841 90.605C176.501 90.435 176.226 90.325 176.016 90.275C175.806 90.215 175.576 90.185 175.326 90.185C174.236 90.185 173.661 90.87 173.601 92.24H179.676V96.02C179.676 96.7 179.481 97.225 179.091 97.595C178.701 97.965 178.156 98.15 177.456 98.15ZM177.321 97.67C177.661 97.67 177.941 97.565 178.161 97.355C178.381 97.135 178.491 96.855 178.491 96.515C178.491 96.165 178.381 95.885 178.161 95.675C177.951 95.455 177.671 95.345 177.321 95.345C176.981 95.345 176.701 95.455 176.481 95.675C176.261 95.885 176.151 96.165 176.151 96.515C176.151 96.855 176.261 97.135 176.481 97.355C176.701 97.565 176.981 97.67 177.321 97.67ZM186.692 92.165C186.692 91.505 186.497 90.975 186.107 90.575C185.727 90.175 185.202 89.975 184.532 89.975C183.912 89.975 183.397 90.165 182.987 90.545C182.587 90.915 182.352 91.43 182.282 92.09H180.917C180.987 91.29 181.342 90.65 181.982 90.17C182.632 89.69 183.482 89.45 184.532 89.45C185.622 89.45 186.492 89.71 187.142 90.23C187.802 90.75 188.132 91.46 188.132 92.36V98H186.692V92.165ZM198.234 89.6V98H190.569V96.05C190.569 95.67 190.714 95.33 191.004 95.03C191.294 94.73 191.684 94.51 192.174 94.37C191.494 94.2 190.964 93.9 190.584 93.47C190.214 93.04 190.029 92.515 190.029 91.895C190.029 91.165 190.289 90.575 190.809 90.125C191.329 89.675 192.009 89.45 192.849 89.45C193.529 89.45 194.084 89.62 194.514 89.96C194.944 90.3 195.159 90.745 195.159 91.295C195.159 91.795 194.994 92.2 194.664 92.51C194.344 92.82 193.924 92.975 193.404 92.975C192.884 92.975 192.459 92.825 192.129 92.525C191.799 92.215 191.634 91.815 191.634 91.325C191.634 91.015 191.749 90.745 191.979 90.515C191.569 90.815 191.364 91.275 191.364 91.895C191.364 93.275 192.299 93.965 194.169 93.965H194.304V94.58H194.184C193.484 94.58 192.944 94.715 192.564 94.985C192.194 95.245 192.009 95.625 192.009 96.125V97.37H196.794V89.6H198.234ZM193.389 90.155C193.049 90.155 192.769 90.265 192.549 90.485C192.329 90.705 192.219 90.985 192.219 91.325C192.219 91.665 192.329 91.945 192.549 92.165C192.769 92.385 193.049 92.495 193.389 92.495C193.739 92.495 194.024 92.385 194.244 92.165C194.464 91.945 194.574 91.665 194.574 91.325C194.574 90.985 194.464 90.705 194.244 90.485C194.024 90.265 193.739 90.155 193.389 90.155ZM203.512 98.15C202.862 98.15 202.337 97.97 201.937 97.61C201.547 97.25 201.352 96.725 201.352 96.035V85.58L199.972 86.825C199.702 86.245 199.322 85.725 198.832 85.265C198.332 84.795 197.807 84.48 197.257 84.32L198.187 83.615C198.607 83.785 198.992 84.045 199.342 84.395C199.702 84.745 199.982 85.14 200.182 85.58L201.472 84.41H202.792V95.195C202.892 95.105 203.027 95.03 203.197 94.97C203.367 94.9 203.552 94.865 203.752 94.865C204.252 94.865 204.652 95.015 204.952 95.315C205.262 95.615 205.417 96.01 205.417 96.5C205.417 97 205.242 97.4 204.892 97.7C204.542 98 204.082 98.15 203.512 98.15ZM203.707 97.7C204.057 97.7 204.342 97.59 204.562 97.37C204.782 97.14 204.892 96.855 204.892 96.515C204.892 96.165 204.782 95.88 204.562 95.66C204.342 95.44 204.057 95.33 203.707 95.33C203.357 95.33 203.072 95.44 202.852 95.66C202.632 95.88 202.522 96.165 202.522 96.515C202.522 96.865 202.632 97.15 202.852 97.37C203.072 97.59 203.357 97.7 203.707 97.7ZM206.955 97.205C206.955 96.175 206.91 95.27 206.82 94.49C206.75 93.89 206.715 93.35 206.715 92.87C206.715 92.18 206.89 91.58 207.24 91.07C207.6 90.55 208.105 90.15 208.755 89.87C209.405 89.59 210.17 89.45 211.05 89.45C211.89 89.45 212.625 89.57 213.255 89.81C213.895 90.05 214.385 90.39 214.725 90.83C215.075 91.27 215.25 91.78 215.25 92.36V98H213.81V92.225C213.81 91.545 213.555 91 213.045 90.59C212.545 90.18 211.875 89.975 211.035 89.975C210.125 89.975 209.415 90.22 208.905 90.71C208.405 91.2 208.155 91.885 208.155 92.765C208.155 93.105 208.18 93.64 208.23 94.37C208.3 95.34 208.335 96.31 208.335 97.28C209.085 96.97 209.75 96.6 210.33 96.17C210.91 95.74 211.35 95.29 211.65 94.82C211.45 94.93 211.235 94.985 211.005 94.985C210.495 94.985 210.075 94.835 209.745 94.535C209.425 94.225 209.265 93.83 209.265 93.35C209.265 92.86 209.425 92.465 209.745 92.165C210.075 91.855 210.49 91.7 210.99 91.7C211.5 91.7 211.92 91.87 212.25 92.21C212.58 92.54 212.745 92.965 212.745 93.485C212.745 94.035 212.55 94.6 212.16 95.18C211.77 95.75 211.23 96.285 210.54 96.785C209.85 97.275 209.07 97.68 208.2 98H206.955V97.205ZM210.99 94.52C211.34 94.52 211.625 94.41 211.845 94.19C212.065 93.97 212.175 93.69 212.175 93.35C212.175 93.01 212.065 92.73 211.845 92.51C211.625 92.29 211.34 92.18 210.99 92.18C210.64 92.18 210.355 92.29 210.135 92.51C209.915 92.73 209.805 93.01 209.805 93.35C209.805 93.69 209.915 93.97 210.135 94.19C210.355 94.41 210.64 94.52 210.99 94.52ZM211.087 87.89C211.657 87.49 212.067 87.06 212.317 86.6C212.237 86.65 212.137 86.69 212.017 86.72C211.897 86.75 211.782 86.765 211.672 86.765C211.302 86.765 211.002 86.655 210.772 86.435C210.532 86.205 210.412 85.915 210.412 85.565C210.412 85.185 210.537 84.88 210.787 84.65C211.027 84.42 211.347 84.305 211.747 84.305C212.187 84.305 212.532 84.42 212.782 84.65C213.032 84.87 213.157 85.175 213.157 85.565C213.157 86.265 212.877 86.925 212.317 87.545C213.177 87.265 213.867 86.88 214.387 86.39C214.897 85.89 215.227 85.32 215.377 84.68H216.592C216.482 85.29 216.167 85.855 215.647 86.375C215.117 86.895 214.462 87.32 213.682 87.65C212.902 87.97 212.077 88.16 211.207 88.22L211.087 87.89ZM211.672 86.315C211.902 86.315 212.087 86.245 212.227 86.105C212.367 85.965 212.437 85.785 212.437 85.565C212.437 85.335 212.367 85.15 212.227 85.01C212.077 84.86 211.892 84.785 211.672 84.785C211.452 84.785 211.272 84.86 211.132 85.01C210.982 85.15 210.907 85.335 210.907 85.565C210.907 85.785 210.977 85.965 211.117 86.105C211.257 86.245 211.442 86.315 211.672 86.315ZM220.023 98.15C219.363 98.15 218.838 97.97 218.448 97.61C218.058 97.25 217.863 96.725 217.863 96.035V89.6H219.303V95.195C219.403 95.095 219.538 95.015 219.708 94.955C219.878 94.895 220.063 94.865 220.263 94.865C220.763 94.865 221.163 95.015 221.463 95.315C221.773 95.615 221.928 96.01 221.928 96.5C221.928 97 221.753 97.4 221.403 97.7C221.053 98 220.593 98.15 220.023 98.15ZM220.203 97.67C220.543 97.67 220.823 97.565 221.043 97.355C221.263 97.135 221.373 96.855 221.373 96.515C221.373 96.165 221.263 95.885 221.043 95.675C220.833 95.455 220.553 95.345 220.203 95.345C219.863 95.345 219.583 95.455 219.363 95.675C219.153 95.895 219.048 96.175 219.048 96.515C219.048 96.855 219.153 97.135 219.363 97.355C219.583 97.565 219.863 97.67 220.203 97.67ZM233.392 89.6V98H231.652L229.297 91.28L226.927 98H225.187V92.405C225.097 92.495 224.962 92.575 224.782 92.645C224.612 92.705 224.432 92.735 224.242 92.735C223.742 92.735 223.337 92.585 223.027 92.285C222.717 91.985 222.562 91.59 222.562 91.1C222.562 90.61 222.737 90.215 223.087 89.915C223.437 89.605 223.897 89.45 224.467 89.45C225.147 89.45 225.677 89.635 226.057 90.005C226.437 90.375 226.627 90.895 226.627 91.565V96.455L229.012 89.855H229.582L231.952 96.32V89.6H233.392ZM224.287 92.255C224.637 92.255 224.917 92.145 225.127 91.925C225.347 91.705 225.457 91.425 225.457 91.085C225.457 90.745 225.347 90.47 225.127 90.26C224.907 90.04 224.627 89.93 224.287 89.93C223.947 89.93 223.667 90.04 223.447 90.26C223.227 90.47 223.117 90.745 223.117 91.085C223.117 91.425 223.227 91.705 223.447 91.925C223.667 92.145 223.947 92.255 224.287 92.255ZM225.618 88.07C225.658 87.54 225.848 87.07 226.188 86.66C226.518 86.24 226.968 85.915 227.538 85.685C228.098 85.455 228.733 85.34 229.443 85.34C230.173 85.34 230.833 85.455 231.423 85.685C232.003 85.915 232.468 86.24 232.818 86.66C233.158 87.07 233.348 87.54 233.388 88.07H225.618ZM232.143 87.575C232.073 87.085 231.788 86.685 231.288 86.375C230.788 86.065 230.173 85.91 229.443 85.91C228.703 85.91 228.088 86.065 227.598 86.375C227.108 86.675 226.828 87.075 226.758 87.575H232.143ZM232.068 82.44H233.343V85.11H232.068V82.44ZM244.503 89.6V98H243.153L239.283 95.72V96.41C239.283 96.95 239.103 97.375 238.743 97.685C238.383 97.995 237.888 98.15 237.258 98.15C236.668 98.15 236.198 97.99 235.848 97.67C235.498 97.34 235.323 96.895 235.323 96.335C235.323 95.725 235.518 95.245 235.908 94.895C236.298 94.535 236.828 94.355 237.498 94.355C237.648 94.355 237.763 94.36 237.843 94.37V92.405C237.743 92.495 237.603 92.575 237.423 92.645C237.253 92.705 237.078 92.735 236.898 92.735C236.398 92.735 235.988 92.585 235.668 92.285C235.358 91.985 235.203 91.59 235.203 91.1C235.203 90.61 235.378 90.215 235.728 89.915C236.078 89.605 236.538 89.45 237.108 89.45C237.788 89.45 238.318 89.635 238.698 90.005C239.088 90.375 239.283 90.895 239.283 91.565V94.805C239.393 94.855 239.458 94.89 239.478 94.91L243.063 97.01V89.6H244.503ZM236.928 92.255C237.278 92.255 237.558 92.145 237.768 91.925C237.988 91.705 238.098 91.425 238.098 91.085C238.098 90.745 237.988 90.47 237.768 90.26C237.548 90.04 237.268 89.93 236.928 89.93C236.588 89.93 236.308 90.04 236.088 90.26C235.868 90.47 235.758 90.745 235.758 91.085C235.758 91.425 235.868 91.705 236.088 91.925C236.308 92.145 236.588 92.255 236.928 92.255ZM237.843 95.075C237.663 94.995 237.468 94.955 237.258 94.955C236.878 94.955 236.568 95.085 236.328 95.345C236.098 95.605 235.983 95.94 235.983 96.35C235.983 96.74 236.073 97.05 236.253 97.28C236.433 97.5 236.683 97.61 237.003 97.61C237.563 97.61 237.843 97.295 237.843 96.665V95.075ZM255.621 89.6V98H254.271L250.401 95.72V96.41C250.401 96.95 250.221 97.375 249.861 97.685C249.501 97.995 249.006 98.15 248.376 98.15C247.786 98.15 247.316 97.99 246.966 97.67C246.616 97.34 246.441 96.895 246.441 96.335C246.441 95.725 246.636 95.245 247.026 94.895C247.416 94.535 247.946 94.355 248.616 94.355C248.766 94.355 248.881 94.36 248.961 94.37V92.405C248.861 92.495 248.721 92.575 248.541 92.645C248.371 92.705 248.196 92.735 248.016 92.735C247.516 92.735 247.106 92.585 246.786 92.285C246.476 91.985 246.321 91.59 246.321 91.1C246.321 90.61 246.496 90.215 246.846 89.915C247.196 89.605 247.656 89.45 248.226 89.45C248.906 89.45 249.436 89.635 249.816 90.005C250.206 90.375 250.401 90.895 250.401 91.565V94.805C250.511 94.855 250.576 94.89 250.596 94.91L254.181 97.01V89.6H255.621ZM248.046 92.255C248.396 92.255 248.676 92.145 248.886 91.925C249.106 91.705 249.216 91.425 249.216 91.085C249.216 90.745 249.106 90.47 248.886 90.26C248.666 90.04 248.386 89.93 248.046 89.93C247.706 89.93 247.426 90.04 247.206 90.26C246.986 90.47 246.876 90.745 246.876 91.085C246.876 91.425 246.986 91.705 247.206 91.925C247.426 92.145 247.706 92.255 248.046 92.255ZM248.961 95.075C248.781 94.995 248.586 94.955 248.376 94.955C247.996 94.955 247.686 95.085 247.446 95.345C247.216 95.605 247.101 95.94 247.101 96.35C247.101 96.74 247.191 97.05 247.371 97.28C247.551 97.5 247.801 97.61 248.121 97.61C248.681 97.61 248.961 97.295 248.961 96.665V95.075ZM262.644 92.165C262.644 91.505 262.449 90.975 262.059 90.575C261.679 90.175 261.154 89.975 260.484 89.975C259.864 89.975 259.349 90.165 258.939 90.545C258.539 90.915 258.304 91.43 258.234 92.09H256.869C256.939 91.29 257.294 90.65 257.934 90.17C258.584 89.69 259.434 89.45 260.484 89.45C261.574 89.45 262.444 89.71 263.094 90.23C263.754 90.75 264.084 91.46 264.084 92.36V98H262.644V92.165ZM266.266 94.67C266.266 94.2 266.371 93.805 266.581 93.485C266.801 93.165 267.116 92.935 267.526 92.795H265.801C265.831 92.115 266.026 91.525 266.386 91.025C266.746 90.515 267.241 90.125 267.871 89.855C268.501 89.585 269.226 89.45 270.046 89.45C270.836 89.45 271.531 89.57 272.131 89.81C272.731 90.05 273.191 90.395 273.511 90.845C273.841 91.285 274.006 91.795 274.006 92.375V98H272.566V92.225C272.566 91.525 272.336 90.975 271.876 90.575C271.426 90.175 270.811 89.975 270.031 89.975C269.211 89.975 268.546 90.18 268.036 90.59C267.526 90.99 267.241 91.545 267.181 92.255H269.146V92.735C268.646 92.835 268.281 93.015 268.051 93.275C267.821 93.535 267.706 93.905 267.706 94.385V98H266.266V94.67ZM276.978 94.88C277.938 94.59 278.653 94.22 279.123 93.77C279.593 93.31 279.828 92.755 279.828 92.105C279.828 91.485 279.648 90.985 279.288 90.605C278.938 90.215 278.483 90.02 277.923 90.02C277.553 90.02 277.218 90.105 276.918 90.275C276.618 90.445 276.413 90.665 276.303 90.935C276.413 90.845 276.553 90.775 276.723 90.725C276.903 90.665 277.083 90.635 277.263 90.635C277.743 90.635 278.138 90.79 278.448 91.1C278.758 91.4 278.913 91.79 278.913 92.27C278.913 92.75 278.753 93.145 278.433 93.455C278.113 93.765 277.703 93.92 277.203 93.92C276.623 93.92 276.153 93.73 275.793 93.35C275.433 92.96 275.253 92.46 275.253 91.85C275.253 91.12 275.503 90.54 276.003 90.11C276.513 89.67 277.193 89.45 278.043 89.45C278.933 89.45 279.643 89.69 280.173 90.17C280.703 90.64 280.968 91.27 280.968 92.06C280.968 93.44 280.118 94.445 278.418 95.075V97.37H282.393V89.6H283.833V98H276.978V94.88ZM277.218 93.44C277.568 93.44 277.848 93.33 278.058 93.11C278.278 92.89 278.388 92.61 278.388 92.27C278.388 91.93 278.278 91.65 278.058 91.43C277.838 91.21 277.558 91.1 277.218 91.1C276.878 91.1 276.598 91.21 276.378 91.43C276.158 91.65 276.048 91.93 276.048 92.27C276.048 92.61 276.158 92.89 276.378 93.11C276.598 93.33 276.878 93.44 277.218 93.44ZM284.617 85.97C284.617 86.3 284.527 86.58 284.347 86.81C284.167 87.04 283.927 87.19 283.627 87.26C283.757 87.53 283.827 87.8 283.837 88.07H276.067C276.107 87.54 276.297 87.07 276.637 86.66C276.967 86.24 277.417 85.915 277.987 85.685C278.547 85.455 279.182 85.34 279.892 85.34C280.692 85.34 281.402 85.48 282.022 85.76C282.072 85.43 282.212 85.165 282.442 84.965C282.672 84.765 282.962 84.665 283.312 84.665C283.692 84.665 284.007 84.79 284.257 85.04C284.497 85.28 284.617 85.59 284.617 85.97ZM283.312 86.78C283.542 86.78 283.732 86.705 283.882 86.555C284.032 86.395 284.107 86.2 284.107 85.97C284.107 85.74 284.032 85.55 283.882 85.4C283.732 85.25 283.542 85.175 283.312 85.175C283.082 85.175 282.892 85.25 282.742 85.4C282.582 85.55 282.502 85.74 282.502 85.97C282.502 86.2 282.582 86.395 282.742 86.555C282.892 86.705 283.082 86.78 283.312 86.78ZM282.592 87.575C282.522 87.085 282.237 86.685 281.737 86.375C281.237 86.065 280.622 85.91 279.892 85.91C279.152 85.91 278.537 86.065 278.047 86.375C277.557 86.675 277.277 87.075 277.207 87.575H282.592ZM280.582 84.005C280.802 83.865 281.012 83.69 281.212 83.48C281.412 83.27 281.552 83.07 281.632 82.88C281.512 82.97 281.337 83.015 281.107 83.015C280.767 83.015 280.492 82.91 280.282 82.7C280.062 82.49 279.952 82.22 279.952 81.89C279.952 81.56 280.067 81.29 280.297 81.08C280.517 80.87 280.807 80.765 281.167 80.765C281.557 80.765 281.877 80.875 282.127 81.095C282.367 81.305 282.487 81.58 282.487 81.92C282.487 82.18 282.437 82.46 282.337 82.76C282.227 83.05 282.092 83.29 281.932 83.48C282.582 83.26 283.117 82.94 283.537 82.52C283.957 82.1 284.237 81.63 284.377 81.11H285.502C285.402 81.66 285.132 82.165 284.692 82.625C284.252 83.085 283.687 83.46 282.997 83.75C282.297 84.03 281.532 84.2 280.702 84.26L280.582 84.005ZM281.107 82.565C281.297 82.565 281.457 82.505 281.587 82.385C281.707 82.255 281.767 82.09 281.767 81.89C281.767 81.69 281.707 81.53 281.587 81.41C281.457 81.29 281.297 81.23 281.107 81.23C280.907 81.23 280.747 81.29 280.627 81.41C280.497 81.53 280.432 81.69 280.432 81.89C280.432 82.09 280.497 82.255 280.627 82.385C280.747 82.505 280.907 82.565 281.107 82.565ZM294.127 94.925C294.467 95.035 294.737 95.23 294.937 95.51C295.147 95.79 295.252 96.12 295.252 96.5C295.252 96.99 295.087 97.39 294.757 97.7C294.437 98 294.022 98.15 293.512 98.15C293.012 98.15 292.597 98 292.267 97.7C291.947 97.39 291.787 96.99 291.787 96.5C291.787 96.22 291.837 95.98 291.937 95.78C291.367 96.08 290.842 96.42 290.362 96.8C289.892 97.18 289.497 97.58 289.177 98H287.692V92.42C287.602 92.52 287.472 92.6 287.302 92.66C287.132 92.71 286.947 92.735 286.747 92.735C286.257 92.735 285.852 92.585 285.532 92.285C285.222 91.975 285.067 91.58 285.067 91.1C285.067 90.61 285.237 90.215 285.577 89.915C285.927 89.605 286.387 89.45 286.957 89.45C287.637 89.45 288.167 89.64 288.547 90.02C288.937 90.39 289.132 90.905 289.132 91.565V96.86C289.602 96.37 290.247 95.9 291.067 95.45C291.887 94.99 292.687 94.66 293.467 94.46V89.6H294.907V94.775C294.717 94.795 294.457 94.845 294.127 94.925ZM286.792 92.255C287.142 92.255 287.422 92.145 287.632 91.925C287.852 91.705 287.962 91.425 287.962 91.085C287.962 90.745 287.852 90.47 287.632 90.26C287.412 90.04 287.132 89.93 286.792 89.93C286.452 89.93 286.172 90.04 285.952 90.26C285.732 90.47 285.622 90.745 285.622 91.085C285.622 91.425 285.732 91.705 285.952 91.925C286.172 92.145 286.452 92.255 286.792 92.255ZM293.512 97.655C293.862 97.655 294.147 97.545 294.367 97.325C294.587 97.105 294.697 96.825 294.697 96.485C294.697 96.145 294.587 95.87 294.367 95.66C294.147 95.44 293.862 95.33 293.512 95.33C293.172 95.33 292.892 95.44 292.672 95.66C292.452 95.87 292.342 96.145 292.342 96.485C292.342 96.825 292.452 97.105 292.672 97.325C292.892 97.545 293.172 97.655 293.512 97.655Z" fill="black"/>
</svg>
