<svg width="1024" height="107" viewBox="0 0 1024 107" fill="none" xmlns="http://www.w3.org/2000/svg">
<path d="M139.403 44V30.32C139.403 27.7067 140.189 25.6667 141.763 24.2C143.336 22.7333 145.816 22 149.203 22C152.616 22 155.083 22.7333 156.603 24.2C158.149 25.6667 158.923 27.7067 158.923 30.32V44H154.563V29.92C154.563 28.4 154.096 27.2933 153.163 26.6C152.229 25.88 150.909 25.52 149.203 25.52C147.416 25.52 146.056 25.88 145.123 26.6C144.216 27.2933 143.763 28.4 143.763 29.92V34.36C144.936 33.4 146.336 32.92 147.963 32.92H150.563L150.723 36.4H147.843C146.216 36.4 144.856 36.8533 143.763 37.76V44H139.403ZM171.372 44.4C169.052 44.4 167.239 43.72 165.932 42.36C164.652 41 164.012 39.0667 164.012 36.56V22.4H168.372V36.36C168.372 37.9867 168.732 39.16 169.452 39.88C170.172 40.5733 171.292 40.92 172.812 40.92C173.986 40.92 175.106 40.68 176.172 40.2C177.239 39.6933 178.119 39.0667 178.812 38.32V22.4H183.132V44H179.172L178.972 41.64C177.986 42.4667 176.866 43.1333 175.612 43.64C174.386 44.1467 172.972 44.4 171.372 44.4ZM193.071 44C191.604 44 190.538 43.64 189.871 42.92C189.204 42.2 188.871 41.1733 188.871 39.84V22.04C188.871 20.4667 189.151 19.16 189.711 18.12C190.271 17.08 191.004 16.2667 191.911 15.68H185.231V12.24H197.191V15.52C195.724 16.1067 194.684 16.9733 194.071 18.12C193.484 19.24 193.191 20.76 193.191 22.68V38.76C193.191 39.4533 193.298 39.9333 193.511 40.2C193.751 40.44 194.231 40.56 194.951 40.56H196.791V44H193.071ZM200.262 44V22.4H204.222L204.462 24.76C205.449 23.9067 206.569 23.24 207.822 22.76C209.076 22.2533 210.516 22 212.142 22C214.436 22 216.209 22.68 217.462 24.04C218.742 25.4 219.382 27.3067 219.382 29.76V44H215.062V29.96C215.062 28.3867 214.689 27.2533 213.942 26.56C213.196 25.8667 212.076 25.52 210.582 25.52C209.382 25.52 208.262 25.7733 207.222 26.28C206.182 26.76 205.316 27.3733 204.622 28.12V44H200.262ZM233.521 44.4C231.601 44.4 229.894 44.1733 228.401 43.72C226.908 43.2667 225.721 42.5467 224.841 41.56C223.988 40.5733 223.561 39.2667 223.561 37.64C223.561 36.5467 223.814 35.5867 224.321 34.76C224.828 33.9067 225.574 33.24 226.561 32.76C225.734 32.44 225.041 31.8933 224.481 31.12C223.948 30.3467 223.681 29.3867 223.681 28.24C223.681 26.1867 224.308 24.64 225.561 23.6C226.841 22.5333 228.468 22 230.441 22C231.214 22 231.881 22.0533 232.441 22.16C233.001 22.24 233.508 22.36 233.961 22.52V25.84C233.188 25.6267 232.281 25.52 231.241 25.52C230.174 25.52 229.348 25.7333 228.761 26.16C228.174 26.5867 227.881 27.28 227.881 28.24C227.881 29.2533 228.214 29.9867 228.881 30.44C229.548 30.8667 230.468 31.08 231.641 31.08H233.921L234.121 34.32H231.561C229.028 34.32 227.761 35.4267 227.761 37.64C227.761 38.7333 228.214 39.56 229.121 40.12C230.028 40.6533 231.428 40.92 233.321 40.92C237.081 40.92 238.961 39.3867 238.961 36.32V22.4H243.281V35.8C243.281 38.7067 242.468 40.8667 240.841 42.28C239.214 43.6933 236.774 44.4 233.521 44.4ZM260.108 44.4C258.481 44.4 257.055 44.1467 255.828 43.64C254.628 43.1333 253.535 42.4667 252.548 41.64L252.308 44H248.348V22.4H252.708V38.32C253.401 39.0667 254.268 39.6933 255.308 40.2C256.348 40.68 257.468 40.92 258.668 40.92C260.161 40.92 261.281 40.5733 262.028 39.88C262.775 39.16 263.148 37.9867 263.148 36.36V22.4H267.468V36.56C267.468 39.0667 266.815 41 265.508 42.36C264.201 43.72 262.401 44.4 260.108 44.4ZM250.807 19.12L251.007 16.08H263.887V12.76H267.487V19.12H250.807ZM272.567 44V30.32C272.567 27.7067 273.354 25.6667 274.927 24.2C276.5 22.7333 278.98 22 282.367 22C283.06 22 283.727 22.04 284.367 22.12C285.007 22.1733 285.594 22.2667 286.127 22.4H294.087L293.887 25.8H290.887C291.367 26.44 291.687 27.1333 291.847 27.88C292.007 28.6267 292.087 29.44 292.087 30.32V44H287.727V29.92C287.727 28.4 287.26 27.2933 286.327 26.6C285.394 25.88 284.074 25.52 282.367 25.52C280.58 25.52 279.22 25.88 278.287 26.6C277.38 27.2933 276.927 28.4 276.927 29.92V34.36C278.1 33.4 279.5 32.92 281.127 32.92H283.727L283.887 36.4H281.007C279.38 36.4 278.02 36.8533 276.927 37.76V44H272.567ZM282.577 19.12V13.28H286.177V16.08H296.537L296.337 19.12H282.577ZM298.357 44V36.2C298.357 35.0267 298.583 34 299.037 33.12C299.49 32.2133 300.317 31.5867 301.517 31.24L297.197 30.16V25.68C298.263 24.7467 299.663 23.9067 301.397 23.16C303.157 22.3867 305.21 22 307.557 22C310.73 22 313.17 22.6667 314.877 24C316.583 25.3067 317.437 27.5067 317.437 30.6V44H313.077V30.48C313.077 28.64 312.637 27.36 311.757 26.64C310.903 25.8933 309.45 25.52 307.397 25.52C306.063 25.52 304.823 25.7067 303.677 26.08C302.53 26.4533 301.623 26.9467 300.957 27.56V28.28L305.517 29.44V32.32C304.477 32.5867 303.743 33.0133 303.317 33.6C302.89 34.1867 302.677 35.0667 302.677 36.24V44H298.357ZM331.568 44.4C329.648 44.4 327.941 44.1733 326.448 43.72C324.954 43.2667 323.768 42.5467 322.888 41.56C322.034 40.5733 321.608 39.2667 321.608 37.64C321.608 36.5467 321.861 35.5867 322.368 34.76C322.874 33.9067 323.621 33.24 324.608 32.76C323.781 32.44 323.088 31.8933 322.528 31.12C321.994 30.3467 321.728 29.3867 321.728 28.24C321.728 26.1867 322.354 24.64 323.608 23.6C324.888 22.5333 326.514 22 328.488 22C329.261 22 329.928 22.0533 330.488 22.16C331.048 22.24 331.554 22.36 332.008 22.52V25.84C331.234 25.6267 330.328 25.52 329.288 25.52C328.221 25.52 327.394 25.7333 326.808 26.16C326.221 26.5867 325.928 27.28 325.928 28.24C325.928 29.2533 326.261 29.9867 326.928 30.44C327.594 30.8667 328.514 31.08 329.688 31.08H331.968L332.168 34.32H329.608C327.074 34.32 325.808 35.4267 325.808 37.64C325.808 38.7333 326.261 39.56 327.168 40.12C328.074 40.6533 329.474 40.92 331.368 40.92C335.128 40.92 337.008 39.3867 337.008 36.32V22.4H341.328V35.8C341.328 38.7067 340.514 40.8667 338.888 42.28C337.261 43.6933 334.821 44.4 331.568 44.4ZM345.795 44V40.56H347.275C347.835 40.56 348.222 40.44 348.435 40.2C348.675 39.9333 348.795 39.4933 348.795 38.88V36.2C348.795 35.0267 348.982 34.0133 349.355 33.16C349.728 32.3067 350.488 31.6667 351.635 31.24L347.235 30.16V25.68C348.275 24.7467 349.675 23.9067 351.435 23.16C353.195 22.3867 355.235 22 357.555 22C360.648 22 363.022 22.68 364.675 24.04C366.355 25.3733 367.195 27.56 367.195 30.6V44H362.875V30.48C362.875 28.64 362.462 27.36 361.635 26.64C360.808 25.8933 359.408 25.52 357.435 25.52C356.075 25.52 354.822 25.7067 353.675 26.08C352.528 26.4533 351.635 26.9467 350.995 27.56V28.28L355.675 29.44V32.32C354.662 32.6133 353.995 33.04 353.675 33.6C353.355 34.16 353.195 35.04 353.195 36.24V39.12C353.195 40.8267 352.782 42.0667 351.955 42.84C351.155 43.6133 349.995 44 348.475 44H345.795ZM380.453 44V30.4C380.453 29.3067 380.333 28.4 380.093 27.68C379.853 26.96 379.4 26.4267 378.733 26.08C378.067 25.7067 377.08 25.52 375.773 25.52C374.92 25.52 373.987 25.6133 372.973 25.8C371.987 25.9867 371.093 26.24 370.293 26.56V23.2C371.093 22.8533 372.053 22.5733 373.173 22.36C374.32 22.12 375.467 22 376.613 22C379.493 22 381.573 22.6267 382.853 23.88C384.16 25.1333 384.813 27.12 384.813 29.84V44H380.453ZM393.791 44L388.791 22.4H393.071L396.271 37.84L400.191 25.48V22.4H403.311L407.671 37.84L410.791 22.4H415.031L410.071 44H406.071L402.071 30.24L397.751 44H393.791ZM422.614 44C421.147 44 420.081 43.64 419.414 42.92C418.747 42.2 418.414 41.1733 418.414 39.84V26.6C418.414 25.2667 418.654 24.1467 419.134 23.24C419.614 22.3333 420.161 21.5733 420.774 20.96C421.387 20.32 421.934 19.7467 422.414 19.24C422.894 18.7067 423.134 18.1467 423.134 17.56C423.134 16.7867 422.907 16.2667 422.454 16C422.027 15.7333 421.374 15.6 420.494 15.6C419.054 15.6 417.601 16 416.134 16.8V13.6C416.934 13.12 417.854 12.76 418.894 12.52C419.961 12.2533 420.987 12.12 421.974 12.12C423.867 12.12 425.281 12.52 426.214 13.32C427.147 14.12 427.614 15.2533 427.614 16.72C427.614 17.5733 427.441 18.32 427.094 18.96C426.774 19.5733 426.374 20.1467 425.894 20.68C425.414 21.2133 424.934 21.76 424.454 22.32C423.974 22.88 423.561 23.5067 423.214 24.2C422.894 24.8933 422.734 25.7333 422.734 26.72V38.76C422.734 39.4533 422.841 39.9333 423.054 40.2C423.294 40.44 423.774 40.56 424.494 40.56H426.334V44H422.614ZM438.052 44.4C435.732 44.4 433.919 43.72 432.612 42.36C431.332 41 430.692 39.0667 430.692 36.56V22.4H435.052V36.36C435.052 37.9867 435.412 39.16 436.132 39.88C436.852 40.5733 437.972 40.92 439.492 40.92C440.665 40.92 441.785 40.68 442.852 40.2C443.919 39.6933 444.799 39.0667 445.492 38.32V22.4H449.812V44H445.852L445.652 41.64C444.665 42.4667 443.545 43.1333 442.292 43.64C441.065 44.1467 439.652 44.4 438.052 44.4ZM455.271 44V36.2C455.271 35.0267 455.497 34 455.951 33.12C456.404 32.2133 457.231 31.5867 458.431 31.24L454.111 30.16V25.68C455.177 24.7467 456.577 23.9067 458.311 23.16C460.071 22.3867 462.124 22 464.471 22C467.644 22 470.084 22.6667 471.791 24C473.497 25.3067 474.351 27.5067 474.351 30.6V44H469.991V30.48C469.991 28.64 469.551 27.36 468.671 26.64C467.817 25.8933 466.364 25.52 464.311 25.52C462.977 25.52 461.737 25.7067 460.591 26.08C459.444 26.4533 458.537 26.9467 457.871 27.56V28.28L462.431 29.44V32.32C461.391 32.5867 460.657 33.0133 460.231 33.6C459.804 34.1867 459.591 35.0667 459.591 36.24V44H455.271ZM487.602 44V30.4C487.602 29.3067 487.482 28.4 487.242 27.68C487.002 26.96 486.549 26.4267 485.882 26.08C485.215 25.7067 484.229 25.52 482.922 25.52C482.069 25.52 481.135 25.6133 480.122 25.8C479.135 25.9867 478.242 26.24 477.442 26.56V23.2C478.242 22.8533 479.202 22.5733 480.322 22.36C481.469 22.12 482.615 22 483.762 22C486.642 22 488.722 22.6267 490.002 23.88C491.309 25.1333 491.962 27.12 491.962 29.84V44H487.602ZM504.139 44.4C502.726 44.4 501.352 44.3067 500.019 44.12C498.712 43.9333 497.632 43.6667 496.779 43.32V39.68C497.792 40.08 498.886 40.3867 500.059 40.6C501.259 40.8133 502.352 40.92 503.339 40.92C505.179 40.92 506.539 40.76 507.419 40.44C508.299 40.0933 508.739 39.3867 508.739 38.32C508.739 37.5467 508.512 36.96 508.059 36.56C507.606 36.16 506.939 35.8133 506.059 35.52C505.179 35.2 504.086 34.8267 502.779 34.4C501.552 33.9733 500.446 33.5067 499.459 33C498.472 32.4933 497.686 31.8533 497.099 31.08C496.539 30.3067 496.259 29.3333 496.259 28.16C496.259 26.2667 496.979 24.7733 498.419 23.68C499.859 22.56 502.032 22 504.939 22C506.166 22 507.379 22.0933 508.579 22.28C509.779 22.4667 510.766 22.6933 511.539 22.96V26.56C510.659 26.2133 509.672 25.96 508.579 25.8C507.512 25.6133 506.512 25.52 505.579 25.52C504.032 25.52 502.792 25.6933 501.859 26.04C500.926 26.36 500.459 27.0267 500.459 28.04C500.459 28.7067 500.699 29.24 501.179 29.64C501.659 30.0133 502.339 30.36 503.219 30.68C504.126 30.9733 505.206 31.3333 506.459 31.76C507.872 32.2133 509.059 32.72 510.019 33.28C510.979 33.8133 511.699 34.48 512.179 35.28C512.686 36.0533 512.939 37.0667 512.939 38.32C512.939 40.4267 512.139 41.9733 510.539 42.96C508.966 43.92 506.832 44.4 504.139 44.4ZM523.895 44.4C522.535 44.4 521.295 44.1867 520.175 43.76C519.055 43.3067 518.162 42.6 517.495 41.64C516.855 40.6533 516.535 39.3733 516.535 37.8C516.535 35.6933 517.242 34.0533 518.655 32.88C520.069 31.7067 522.162 31.12 524.935 31.12H531.535V29.76C531.535 28.1867 531.135 27.0933 530.335 26.48C529.535 25.84 528.069 25.52 525.935 25.52C524.709 25.52 523.509 25.6 522.335 25.76C521.162 25.92 520.015 26.1867 518.895 26.56V23.2C519.935 22.8533 521.149 22.5733 522.535 22.36C523.922 22.12 525.309 22 526.695 22C527.389 22 528.042 22.04 528.655 22.12C529.295 22.1733 529.882 22.2667 530.415 22.4H537.655L537.415 25.8H534.895C535.269 26.3867 535.522 27.0533 535.655 27.8C535.789 28.52 535.855 29.3067 535.855 30.16V44H531.535V34.48H525.175C523.709 34.48 522.589 34.7333 521.815 35.24C521.069 35.72 520.695 36.5733 520.695 37.8C520.695 38.9733 521.029 39.7867 521.695 40.24C522.389 40.6933 523.509 40.92 525.055 40.92C525.535 40.92 526.015 40.8933 526.495 40.84C527.002 40.7867 527.429 40.7067 527.775 40.6V43.92C527.295 44.0533 526.722 44.16 526.055 44.24C525.389 44.3467 524.669 44.4 523.895 44.4ZM548.67 44.4C547.257 44.4 545.884 44.3067 544.55 44.12C543.244 43.9333 542.164 43.6667 541.31 43.32V39.68C542.324 40.08 543.417 40.3867 544.59 40.6C545.79 40.8133 546.884 40.92 547.87 40.92C549.71 40.92 551.07 40.76 551.95 40.44C552.83 40.0933 553.27 39.3867 553.27 38.32C553.27 37.5467 553.044 36.96 552.59 36.56C552.137 36.16 551.47 35.8133 550.59 35.52C549.71 35.2 548.617 34.8267 547.31 34.4C546.084 33.9733 544.977 33.5067 543.99 33C543.004 32.4933 542.217 31.8533 541.63 31.08C541.07 30.3067 540.79 29.3333 540.79 28.16C540.79 26.2667 541.51 24.7733 542.95 23.68C544.39 22.56 546.564 22 549.47 22C550.697 22 551.91 22.0933 553.11 22.28C554.31 22.4667 555.297 22.6933 556.07 22.96V26.56C555.19 26.2133 554.204 25.96 553.11 25.8C552.044 25.6133 551.044 25.52 550.11 25.52C548.564 25.52 547.324 25.6933 546.39 26.04C545.457 26.36 544.99 27.0267 544.99 28.04C544.99 28.7067 545.23 29.24 545.71 29.64C546.19 30.0133 546.87 30.36 547.75 30.68C548.657 30.9733 549.737 31.3333 550.99 31.76C552.404 32.2133 553.59 32.72 554.55 33.28C555.51 33.8133 556.23 34.48 556.71 35.28C557.217 36.0533 557.47 37.0667 557.47 38.32C557.47 40.4267 556.67 41.9733 555.07 42.96C553.497 43.92 551.364 44.4 548.67 44.4ZM547.507 19.12V15.44H544.347V12.44H550.507V16.08H559.147L558.987 19.12H547.507ZM569.907 44V30.4C569.907 29.3067 569.787 28.4 569.547 27.68C569.307 26.96 568.853 26.4267 568.187 26.08C567.52 25.7067 566.533 25.52 565.227 25.52C564.373 25.52 563.44 25.6133 562.427 25.8C561.44 25.9867 560.547 26.24 559.747 26.56V23.2C560.547 22.8533 561.507 22.5733 562.627 22.36C563.773 22.12 564.92 22 566.067 22C568.947 22 571.027 22.6267 572.307 23.88C573.613 25.1333 574.267 27.12 574.267 29.84V44H569.907ZM587.844 44.4C587.23 44.4 586.55 44.36 585.804 44.28C585.057 44.2 584.404 44.0667 583.844 43.88L577.764 29.08H582.004L586.924 41.08C589.217 41.1867 590.884 40.5333 591.924 39.12C592.964 37.68 593.484 35.48 593.484 32.52C593.484 30.7867 593.324 29.4267 593.004 28.44C592.684 27.4267 592.137 26.72 591.364 26.32C590.617 25.8933 589.577 25.68 588.244 25.68H586.724V22.4H588.804C591.897 22.4 594.15 23.2267 595.564 24.88C596.977 26.5333 597.684 29.0667 597.684 32.48C597.684 35.3067 597.257 37.6 596.404 39.36C595.55 41.0933 594.377 42.3733 592.884 43.2C591.417 44 589.737 44.4 587.844 44.4ZM608.622 44.4C607.262 44.4 606.022 44.1867 604.902 43.76C603.782 43.3067 602.889 42.6 602.222 41.64C601.582 40.6533 601.262 39.3733 601.262 37.8C601.262 35.6933 601.969 34.0533 603.382 32.88C604.795 31.7067 606.889 31.12 609.662 31.12H616.262V29.76C616.262 28.1867 615.862 27.0933 615.062 26.48C614.262 25.84 612.795 25.52 610.662 25.52C609.435 25.52 608.235 25.6 607.062 25.76C605.889 25.92 604.742 26.1867 603.622 26.56V23.2C604.662 22.8533 605.875 22.5733 607.262 22.36C608.649 22.12 610.035 22 611.422 22C612.115 22 612.769 22.04 613.382 22.12C614.022 22.1733 614.609 22.2667 615.142 22.4H622.382L622.142 25.8H619.622C619.995 26.3867 620.249 27.0533 620.382 27.8C620.515 28.52 620.582 29.3067 620.582 30.16V44H616.262V34.48H609.902C608.435 34.48 607.315 34.7333 606.542 35.24C605.795 35.72 605.422 36.5733 605.422 37.8C605.422 38.9733 605.755 39.7867 606.422 40.24C607.115 40.6933 608.235 40.92 609.782 40.92C610.262 40.92 610.742 40.8933 611.222 40.84C611.729 40.7867 612.155 40.7067 612.502 40.6V43.92C612.022 44.0533 611.449 44.16 610.782 44.24C610.115 44.3467 609.395 44.4 608.622 44.4ZM633.397 44.4C631.984 44.4 630.61 44.3067 629.277 44.12C627.97 43.9333 626.89 43.6667 626.037 43.32V39.68C627.05 40.08 628.144 40.3867 629.317 40.6C630.517 40.8133 631.61 40.92 632.597 40.92C634.437 40.92 635.797 40.76 636.677 40.44C637.557 40.0933 637.997 39.3867 637.997 38.32C637.997 37.5467 637.77 36.96 637.317 36.56C636.864 36.16 636.197 35.8133 635.317 35.52C634.437 35.2 633.344 34.8267 632.037 34.4C630.81 33.9733 629.704 33.5067 628.717 33C627.73 32.4933 626.944 31.8533 626.357 31.08C625.797 30.3067 625.517 29.3333 625.517 28.16C625.517 26.2667 626.237 24.7733 627.677 23.68C629.117 22.56 631.29 22 634.197 22C635.424 22 636.637 22.0933 637.837 22.28C639.037 22.4667 640.024 22.6933 640.797 22.96V26.56C639.917 26.2133 638.93 25.96 637.837 25.8C636.77 25.6133 635.77 25.52 634.837 25.52C633.29 25.52 632.05 25.6933 631.117 26.04C630.184 26.36 629.717 27.0267 629.717 28.04C629.717 28.7067 629.957 29.24 630.437 29.64C630.917 30.0133 631.597 30.36 632.477 30.68C633.384 30.9733 634.464 31.3333 635.717 31.76C637.13 32.2133 638.317 32.72 639.277 33.28C640.237 33.8133 640.957 34.48 641.437 35.28C641.944 36.0533 642.197 37.0667 642.197 38.32C642.197 40.4267 641.397 41.9733 639.797 42.96C638.224 43.92 636.09 44.4 633.397 44.4ZM653.553 44.4C652.14 44.4 650.766 44.3067 649.433 44.12C648.126 43.9333 647.046 43.6667 646.193 43.32V39.68C647.206 40.08 648.3 40.3867 649.473 40.6C650.673 40.8133 651.766 40.92 652.753 40.92C654.593 40.92 655.953 40.76 656.833 40.44C657.713 40.0933 658.153 39.3867 658.153 38.32C658.153 37.5467 657.926 36.96 657.473 36.56C657.02 36.16 656.353 35.8133 655.473 35.52C654.593 35.2 653.5 34.8267 652.193 34.4C650.966 33.9733 649.86 33.5067 648.873 33C647.886 32.4933 647.1 31.8533 646.513 31.08C645.953 30.3067 645.673 29.3333 645.673 28.16C645.673 26.2667 646.393 24.7733 647.833 23.68C649.273 22.56 651.446 22 654.353 22C655.58 22 656.793 22.0933 657.993 22.28C659.193 22.4667 660.18 22.6933 660.953 22.96V26.56C660.073 26.2133 659.086 25.96 657.993 25.8C656.926 25.6133 655.926 25.52 654.993 25.52C653.446 25.52 652.206 25.6933 651.273 26.04C650.34 26.36 649.873 27.0267 649.873 28.04C649.873 28.7067 650.113 29.24 650.593 29.64C651.073 30.0133 651.753 30.36 652.633 30.68C653.54 30.9733 654.62 31.3333 655.873 31.76C657.286 32.2133 658.473 32.72 659.433 33.28C660.393 33.8133 661.113 34.48 661.593 35.28C662.1 36.0533 662.353 37.0667 662.353 38.32C662.353 40.4267 661.553 41.9733 659.953 42.96C658.38 43.92 656.246 44.4 653.553 44.4ZM666.629 44V30.32C666.629 27.7067 667.416 25.6667 668.989 24.2C670.563 22.7333 673.043 22 676.429 22C679.843 22 682.309 22.7333 683.829 24.2C685.376 25.6667 686.149 27.7067 686.149 30.32V44H681.789V29.92C681.789 28.4 681.323 27.2933 680.389 26.6C679.456 25.88 678.136 25.52 676.429 25.52C674.643 25.52 673.283 25.88 672.349 26.6C671.443 27.2933 670.989 28.4 670.989 29.92V34.36C672.163 33.4 673.563 32.92 675.189 32.92H677.789L677.949 36.4H675.069C673.443 36.4 672.083 36.8533 670.989 37.76V44H666.629ZM676.679 19.12V13.28H688.439L688.279 16.32H680.279V19.12H676.679ZM691.239 44V30.32C691.239 27.7067 692.025 25.6667 693.599 24.2C695.172 22.7333 697.652 22 701.039 22C704.452 22 706.919 22.7333 708.439 24.2C709.985 25.6667 710.759 27.7067 710.759 30.32V44H706.399V29.92C706.399 28.4 705.932 27.2933 704.999 26.6C704.065 25.88 702.745 25.52 701.039 25.52C699.252 25.52 697.892 25.88 696.959 26.6C696.052 27.2933 695.599 28.4 695.599 29.92V34.36C696.772 33.4 698.172 32.92 699.799 32.92H702.399L702.559 36.4H699.679C698.052 36.4 696.692 36.8533 695.599 37.76V44H691.239ZM722.928 44.4C721.515 44.4 720.141 44.3067 718.808 44.12C717.501 43.9333 716.421 43.6667 715.568 43.32V39.68C716.581 40.08 717.675 40.3867 718.848 40.6C720.048 40.8133 721.141 40.92 722.128 40.92C723.968 40.92 725.328 40.76 726.208 40.44C727.088 40.0933 727.528 39.3867 727.528 38.32C727.528 37.5467 727.301 36.96 726.848 36.56C726.395 36.16 725.728 35.8133 724.848 35.52C723.968 35.2 722.875 34.8267 721.568 34.4C720.341 33.9733 719.235 33.5067 718.248 33C717.261 32.4933 716.475 31.8533 715.888 31.08C715.328 30.3067 715.048 29.3333 715.048 28.16C715.048 26.2667 715.768 24.7733 717.208 23.68C718.648 22.56 720.821 22 723.728 22C724.955 22 726.168 22.0933 727.368 22.28C728.568 22.4667 729.555 22.6933 730.328 22.96V26.56C729.448 26.2133 728.461 25.96 727.368 25.8C726.301 25.6133 725.301 25.52 724.368 25.52C722.821 25.52 721.581 25.6933 720.648 26.04C719.715 26.36 719.248 27.0267 719.248 28.04C719.248 28.7067 719.488 29.24 719.968 29.64C720.448 30.0133 721.128 30.36 722.008 30.68C722.915 30.9733 723.995 31.3333 725.248 31.76C726.661 32.2133 727.848 32.72 728.808 33.28C729.768 33.8133 730.488 34.48 730.968 35.28C731.475 36.0533 731.728 37.0667 731.728 38.32C731.728 40.4267 730.928 41.9733 729.328 42.96C727.755 43.92 725.621 44.4 722.928 44.4ZM744.164 44V30.4C744.164 29.3067 744.044 28.4 743.804 27.68C743.564 26.96 743.111 26.4267 742.444 26.08C741.778 25.7067 740.791 25.52 739.484 25.52C738.631 25.52 737.698 25.6133 736.684 25.8C735.698 25.9867 734.804 26.24 734.004 26.56V23.2C734.804 22.8533 735.764 22.5733 736.884 22.36C738.031 22.12 739.178 22 740.324 22C743.204 22 745.284 22.6267 746.564 23.88C747.871 25.1333 748.524 27.12 748.524 29.84V44H744.164ZM757.502 44L752.502 22.4H756.782L759.982 37.84L763.902 25.48V22.4H767.022L771.382 37.84L775.742 16H779.982L773.782 44H769.782L765.782 30.24L761.462 44H757.502ZM790.685 44.4C789.005 44.4 787.498 44.0267 786.165 43.28C784.832 42.5333 783.778 41.36 783.005 39.76C782.232 38.1333 781.845 36.0533 781.845 33.52C781.845 29.7867 782.472 26.9333 783.725 24.96C784.978 22.9867 786.725 22 788.965 22C790.058 22 790.925 22.2 791.565 22.6C792.232 22.9733 792.805 23.4667 793.285 24.08C793.845 23.4667 794.578 22.9733 795.485 22.6C796.392 22.2 797.312 22 798.245 22C799.978 22 801.272 22.52 802.125 23.56C802.978 24.5733 803.405 25.9867 803.405 27.8V44H799.045V28.44C799.045 27.4267 798.898 26.6933 798.605 26.24C798.338 25.76 797.778 25.52 796.925 25.52C796.392 25.52 795.898 25.6667 795.445 25.96C794.992 26.2533 794.658 26.72 794.445 27.36H792.045C791.725 26.72 791.392 26.2533 791.045 25.96C790.698 25.6667 790.205 25.52 789.565 25.52C788.178 25.52 787.245 26.2533 786.765 27.72C786.285 29.1867 786.045 31.12 786.045 33.52C786.045 36.2667 786.512 38.1867 787.445 39.28C788.378 40.3733 789.712 40.92 791.445 40.92C791.952 40.92 792.445 40.8933 792.925 40.84C793.432 40.7867 793.858 40.7067 794.205 40.6V43.92C793.752 44.08 793.245 44.2 792.685 44.28C792.125 44.36 791.458 44.4 790.685 44.4ZM793.944 19.12V13.28H805.704L805.544 16.32H797.544V19.12H793.944ZM812.784 44C811.318 44 810.251 43.64 809.584 42.92C808.918 42.2 808.584 41.1733 808.584 39.84V22.4H812.904V38.76C812.904 39.96 813.491 40.56 814.664 40.56H816.504V44H812.784ZM830.65 44.4C827.557 44.4 825.13 43.6667 823.37 42.2C821.637 40.7333 820.77 38.5333 820.77 35.6V22.4H825.13V35.76C825.13 37.5467 825.597 38.8533 826.53 39.68C827.49 40.5067 828.863 40.92 830.65 40.92C832.463 40.92 833.837 40.5067 834.77 39.68C835.73 38.8533 836.21 37.5467 836.21 35.76V22.4H840.53V35.6C840.53 38.5333 839.663 40.7333 837.93 42.2C836.197 43.6667 833.77 44.4 830.65 44.4ZM823.854 19.12L824.054 16.08H836.934V12.76H840.534V19.12H823.854ZM854.654 44.4C852.734 44.4 851.027 44.1733 849.534 43.72C848.04 43.2667 846.854 42.5467 845.974 41.56C845.12 40.5733 844.694 39.2667 844.694 37.64C844.694 36.5467 844.947 35.5867 845.454 34.76C845.96 33.9067 846.707 33.24 847.694 32.76C846.867 32.44 846.174 31.8933 845.614 31.12C845.08 30.3467 844.814 29.3867 844.814 28.24C844.814 26.1867 845.44 24.64 846.694 23.6C847.974 22.5333 849.6 22 851.574 22C852.347 22 853.014 22.0533 853.574 22.16C854.134 22.24 854.64 22.36 855.094 22.52V25.84C854.32 25.6267 853.414 25.52 852.374 25.52C851.307 25.52 850.48 25.7333 849.894 26.16C849.307 26.5867 849.014 27.28 849.014 28.24C849.014 29.2533 849.347 29.9867 850.014 30.44C850.68 30.8667 851.6 31.08 852.774 31.08H855.054L855.254 34.32H852.694C850.16 34.32 848.894 35.4267 848.894 37.64C848.894 38.7333 849.347 39.56 850.254 40.12C851.16 40.6533 852.56 40.92 854.454 40.92C858.214 40.92 860.094 39.3867 860.094 36.32V22.4H864.414V35.8C864.414 38.7067 863.6 40.8667 861.974 42.28C860.347 43.6933 857.907 44.4 854.654 44.4ZM876.561 44.4C875.148 44.4 873.774 44.3067 872.441 44.12C871.134 43.9333 870.054 43.6667 869.201 43.32V39.68C870.214 40.08 871.308 40.3867 872.481 40.6C873.681 40.8133 874.774 40.92 875.761 40.92C877.601 40.92 878.961 40.76 879.841 40.44C880.721 40.0933 881.161 39.3867 881.161 38.32C881.161 37.5467 880.934 36.96 880.481 36.56C880.028 36.16 879.361 35.8133 878.481 35.52C877.601 35.2 876.508 34.8267 875.201 34.4C873.974 33.9733 872.868 33.5067 871.881 33C870.894 32.4933 870.108 31.8533 869.521 31.08C868.961 30.3067 868.681 29.3333 868.681 28.16C868.681 26.2667 869.401 24.7733 870.841 23.68C872.281 22.56 874.454 22 877.361 22C878.588 22 879.801 22.0933 881.001 22.28C882.201 22.4667 883.188 22.6933 883.961 22.96V26.56C883.081 26.2133 882.094 25.96 881.001 25.8C879.934 25.6133 878.934 25.52 878.001 25.52C876.454 25.52 875.214 25.6933 874.281 26.04C873.348 26.36 872.881 27.0267 872.881 28.04C872.881 28.7067 873.121 29.24 873.601 29.64C874.081 30.0133 874.761 30.36 875.641 30.68C876.548 30.9733 877.628 31.3333 878.881 31.76C880.294 32.2133 881.481 32.72 882.441 33.28C883.401 33.8133 884.121 34.48 884.601 35.28C885.108 36.0533 885.361 37.0667 885.361 38.32C885.361 40.4267 884.561 41.9733 882.961 42.96C881.388 43.92 879.254 44.4 876.561 44.4ZM875.077 19.12V13.28H886.837L886.677 16.32H878.677V19.12H875.077ZM79.0845 104C77.6179 104 76.5512 103.64 75.8845 102.92C75.2179 102.2 74.8845 101.173 74.8845 99.84V82.4H79.2045V98.76C79.2045 99.96 79.7912 100.56 80.9645 100.56H82.6045V104H79.0845ZM69.3645 104C67.9245 104 66.8579 103.64 66.1645 102.92C65.4979 102.2 65.1645 101.173 65.1645 99.84V82.4H69.5245V98.76C69.5245 99.96 70.1112 100.56 71.2845 100.56H72.8845V104H69.3645ZM93.5242 104.4C92.1642 104.4 90.9242 104.187 89.8042 103.76C88.7109 103.307 87.8309 102.6 87.1642 101.64C86.4976 100.653 86.1642 99.3733 86.1642 97.8C86.1642 95.6933 86.8709 94.0533 88.2842 92.88C89.7242 91.7067 91.8176 91.12 94.5642 91.12H101.164V89.76C101.164 88.1867 100.764 87.0933 99.9642 86.48C99.1909 85.84 97.7376 85.52 95.6042 85.52C94.3509 85.52 93.1376 85.6 91.9642 85.76C90.8176 85.92 89.6842 86.1867 88.5642 86.56V83.2C89.6042 82.8533 90.8042 82.5733 92.1642 82.36C93.5509 82.12 94.9376 82 96.3242 82C99.4709 82 101.791 82.6667 103.284 84C104.778 85.3067 105.524 87.36 105.524 90.16V104H101.164V94.48H94.8442C93.3509 94.48 92.2176 94.7333 91.4442 95.24C90.6976 95.72 90.3242 96.5733 90.3242 97.8C90.3242 98.9733 90.6576 99.7867 91.3242 100.24C92.0176 100.693 93.1376 100.92 94.6842 100.92C95.7509 100.92 96.6709 100.813 97.4442 100.6V103.92C96.9376 104.053 96.3509 104.16 95.6842 104.24C95.0176 104.347 94.2976 104.4 93.5242 104.4ZM109.794 90.76V85.56H113.514V87.52H119.394L119.234 90.76H109.794ZM109.794 101.64V96.44H113.514V98.44H119.394L119.234 101.64H109.794ZM130.923 104.4C128.603 104.4 126.79 103.72 125.483 102.36C124.203 101 123.563 99.0667 123.563 96.56V82.4H127.923V96.36C127.923 97.9867 128.283 99.16 129.003 99.88C129.723 100.573 130.843 100.92 132.363 100.92C133.536 100.92 134.656 100.68 135.723 100.2C136.79 99.6933 137.67 99.0667 138.363 98.32V82.4H142.683V104H138.723L138.523 101.64C137.536 102.467 136.416 103.133 135.163 103.64C133.936 104.147 132.523 104.4 130.923 104.4ZM140.502 80.08C139.248 80.08 138.182 79.6667 137.302 78.84C136.422 78.0133 135.982 76.9867 135.982 75.76C135.982 74.5067 136.422 73.4667 137.302 72.64C138.182 71.8133 139.248 71.4 140.502 71.4C141.755 71.4 142.822 71.8133 143.702 72.64C144.555 73.4667 144.982 74.5067 144.982 75.76C144.982 76.9867 144.555 78.0133 143.702 78.84C142.822 79.6667 141.755 80.08 140.502 80.08ZM140.502 77.6C141.008 77.6 141.448 77.4133 141.822 77.04C142.168 76.6667 142.342 76.24 142.342 75.76C142.342 75.2267 142.168 74.7733 141.822 74.4C141.448 74.0267 141.008 73.84 140.502 73.84C139.995 73.84 139.555 74.0267 139.182 74.4C138.782 74.7733 138.582 75.2267 138.582 75.76C138.582 76.24 138.782 76.6667 139.182 77.04C139.555 77.4133 139.995 77.6 140.502 77.6ZM155.942 104V90.4C155.942 89.3067 155.822 88.4 155.582 87.68C155.342 86.96 154.888 86.4267 154.222 86.08C153.555 85.7067 152.568 85.52 151.262 85.52C150.408 85.52 149.475 85.6133 148.462 85.8C147.475 85.9867 146.582 86.24 145.782 86.56V83.2C146.582 82.8533 147.542 82.5733 148.662 82.36C149.808 82.12 150.955 82 152.102 82C154.982 82 157.062 82.6267 158.342 83.88C159.648 85.1333 160.302 87.12 160.302 89.84V104H155.942ZM169.679 104C168.212 104 167.146 103.64 166.479 102.92C165.812 102.2 165.479 101.173 165.479 99.84V82.4H169.799V98.76C169.799 99.96 170.386 100.56 171.559 100.56H173.399V104H169.679ZM187.545 104.4C184.451 104.4 182.025 103.667 180.265 102.2C178.531 100.733 177.665 98.5333 177.665 95.6V82.4H182.025V95.76C182.025 97.5467 182.491 98.8533 183.425 99.68C184.385 100.507 185.758 100.92 187.545 100.92C189.358 100.92 190.731 100.507 191.665 99.68C192.625 98.8533 193.105 97.5467 193.105 95.76V82.4H197.425V95.6C197.425 98.5333 196.558 100.733 194.825 102.2C193.091 103.667 190.665 104.4 187.545 104.4ZM180.748 79.12L180.948 76.08H193.828V72.76H197.428V79.12H180.748ZM211.548 104.4C209.628 104.4 207.922 104.173 206.428 103.72C204.935 103.267 203.748 102.547 202.868 101.56C202.015 100.573 201.588 99.2667 201.588 97.64C201.588 96.5467 201.842 95.5867 202.348 94.76C202.855 93.9067 203.602 93.24 204.588 92.76C203.762 92.44 203.068 91.8933 202.508 91.12C201.975 90.3467 201.708 89.3867 201.708 88.24C201.708 86.1867 202.335 84.64 203.588 83.6C204.868 82.5333 206.495 82 208.468 82C209.242 82 209.908 82.0533 210.468 82.16C211.028 82.24 211.535 82.36 211.988 82.52V85.84C211.215 85.6267 210.308 85.52 209.268 85.52C208.202 85.52 207.375 85.7333 206.788 86.16C206.202 86.5867 205.908 87.28 205.908 88.24C205.908 89.2533 206.242 89.9867 206.908 90.44C207.575 90.8667 208.495 91.08 209.668 91.08H211.948L212.148 94.32H209.588C207.055 94.32 205.788 95.4267 205.788 97.64C205.788 98.7333 206.242 99.56 207.148 100.12C208.055 100.653 209.455 100.92 211.348 100.92C215.108 100.92 216.988 99.3867 216.988 96.32V82.4H221.308V95.8C221.308 98.7067 220.495 100.867 218.868 102.28C217.242 103.693 214.802 104.4 211.548 104.4ZM233.455 104.4C232.042 104.4 230.669 104.307 229.335 104.12C228.029 103.933 226.949 103.667 226.095 103.32V99.68C227.109 100.08 228.202 100.387 229.375 100.6C230.575 100.813 231.669 100.92 232.655 100.92C234.495 100.92 235.855 100.76 236.735 100.44C237.615 100.093 238.055 99.3867 238.055 98.32C238.055 97.5467 237.829 96.96 237.375 96.56C236.922 96.16 236.255 95.8133 235.375 95.52C234.495 95.2 233.402 94.8267 232.095 94.4C230.869 93.9733 229.762 93.5067 228.775 93C227.789 92.4933 227.002 91.8533 226.415 91.08C225.855 90.3067 225.575 89.3333 225.575 88.16C225.575 86.2667 226.295 84.7733 227.735 83.68C229.175 82.56 231.349 82 234.255 82C235.482 82 236.695 82.0933 237.895 82.28C239.095 82.4667 240.082 82.6933 240.855 82.96V86.56C239.975 86.2133 238.989 85.96 237.895 85.8C236.829 85.6133 235.829 85.52 234.895 85.52C233.349 85.52 232.109 85.6933 231.175 86.04C230.242 86.36 229.775 87.0267 229.775 88.04C229.775 88.7067 230.015 89.24 230.495 89.64C230.975 90.0133 231.655 90.36 232.535 90.68C233.442 90.9733 234.522 91.3333 235.775 91.76C237.189 92.2133 238.375 92.72 239.335 93.28C240.295 93.8133 241.015 94.48 241.495 95.28C242.002 96.0533 242.255 97.0667 242.255 98.32C242.255 100.427 241.455 101.973 239.855 102.96C238.282 103.92 236.149 104.4 233.455 104.4ZM231.972 79.12V73.28H243.732L243.572 76.32H235.572V79.12H231.972ZM253.212 104.4C251.852 104.4 250.612 104.187 249.492 103.76C248.372 103.307 247.478 102.6 246.812 101.64C246.172 100.653 245.852 99.3733 245.852 97.8C245.852 95.6933 246.558 94.0533 247.972 92.88C249.385 91.7067 251.478 91.12 254.252 91.12H260.852V89.76C260.852 88.1867 260.452 87.0933 259.652 86.48C258.852 85.84 257.385 85.52 255.252 85.52C254.025 85.52 252.825 85.6 251.652 85.76C250.478 85.92 249.332 86.1867 248.212 86.56V83.2C249.252 82.8533 250.465 82.5733 251.852 82.36C253.238 82.12 254.625 82 256.012 82C256.705 82 257.358 82.04 257.972 82.12C258.612 82.1733 259.198 82.2667 259.732 82.4H266.972L266.732 85.8H264.212C264.585 86.3867 264.838 87.0533 264.972 87.8C265.105 88.52 265.172 89.3067 265.172 90.16V104H260.852V94.48H254.492C253.025 94.48 251.905 94.7333 251.132 95.24C250.385 95.72 250.012 96.5733 250.012 97.8C250.012 98.9733 250.345 99.7867 251.012 100.24C251.705 100.693 252.825 100.92 254.372 100.92C254.852 100.92 255.332 100.893 255.812 100.84C256.318 100.787 256.745 100.707 257.092 100.6V103.92C256.612 104.053 256.038 104.16 255.372 104.24C254.705 104.347 253.985 104.4 253.212 104.4ZM255.605 79.12V73.28H259.205V76.08H269.565L269.365 79.12H255.605ZM295.187 106.44C293.88 106.44 292.493 106.307 291.027 106.04C289.56 105.773 288.267 105.333 287.147 104.72V101.24C287.92 101.64 288.773 101.973 289.707 102.24C290.667 102.48 291.613 102.667 292.547 102.8C293.507 102.907 294.36 102.96 295.107 102.96C296.973 102.96 298.4 102.747 299.387 102.32C300.373 101.893 300.867 101.333 300.867 100.64C300.867 100.133 300.68 99.6933 300.307 99.32C299.667 99.6933 298.907 100 298.027 100.24C297.147 100.48 296.147 100.6 295.027 100.6C288.707 100.6 285.547 97.6667 285.547 91.8V90.48C285.547 88.64 285.133 87.36 284.307 86.64C283.507 85.8933 282.133 85.52 280.187 85.52C278.88 85.52 277.667 85.7067 276.547 86.08C275.427 86.4533 274.533 86.9467 273.867 87.56V88.28L278.427 89.44V92.32C277.387 92.5867 276.653 93.0133 276.227 93.6C275.8 94.1867 275.587 95.0667 275.587 96.24V98.84C275.587 99.4533 275.72 99.8933 275.987 100.16C276.253 100.427 276.68 100.56 277.267 100.56H279.467V104H275.147C273.947 104 273 103.627 272.307 102.88C271.613 102.133 271.267 101.16 271.267 99.96V96.2C271.267 95.0267 271.493 94 271.947 93.12C272.4 92.2133 273.227 91.5867 274.427 91.24L270.107 90.16V85.68C271.173 84.7467 272.573 83.9067 274.307 83.16C276.04 82.3867 278.053 82 280.347 82C283.413 82 285.747 82.6667 287.347 84C288.973 85.3067 289.787 87.5067 289.787 90.6V91.96C289.787 93.7467 290.2 95.0533 291.027 95.88C291.88 96.7067 293.213 97.12 295.027 97.12C296.84 97.12 298.16 96.7067 298.987 95.88C299.84 95.0533 300.267 93.7467 300.267 91.96V82.4H304.587V91.8C304.587 94.04 304.093 95.8267 303.107 97.16C303.56 97.5867 303.92 98.12 304.187 98.76C304.48 99.4 304.627 100.107 304.627 100.88C304.627 102.667 303.8 104.04 302.147 105C300.52 105.96 298.2 106.44 295.187 106.44ZM318.576 104.4C315.536 104.4 313.229 103.693 311.656 102.28C310.109 100.867 309.336 98.88 309.336 96.32V94.2C309.336 93.3467 309.509 92.56 309.856 91.84C310.229 91.12 310.642 90.4667 311.096 89.88C311.576 89.2667 311.989 88.7067 312.336 88.2C312.709 87.6667 312.896 87.1733 312.896 86.72C312.896 86.2933 312.802 86.0133 312.616 85.88C312.429 85.7467 312.096 85.68 311.616 85.68H308.856L309.216 82.4H314.256C316.282 82.4 317.296 83.3733 317.296 85.32C317.296 86.2267 317.109 87.04 316.736 87.76C316.389 88.48 315.962 89.1733 315.456 89.84C314.976 90.5067 314.549 91.2 314.176 91.92C313.829 92.6133 313.656 93.3867 313.656 94.24V96.68C313.656 98.1467 314.082 99.2267 314.936 99.92C315.816 100.587 317.029 100.92 318.576 100.92C320.149 100.92 321.362 100.573 322.216 99.88C323.096 99.1867 323.536 98.08 323.536 96.56V93.92C323.536 92.6667 323.336 91.8 322.936 91.32C322.536 90.8133 321.789 90.56 320.696 90.56H319.576L319.776 87.4H320.576C321.696 87.4 322.469 87.1333 322.896 86.6C323.322 86.04 323.536 85.1867 323.536 84.04V82H327.896V83.96C327.896 85.2133 327.709 86.2533 327.336 87.08C326.962 87.88 326.189 88.5067 325.016 88.96C326.242 89.4667 327.029 90.1333 327.376 90.96C327.722 91.7867 327.896 92.8133 327.896 94.04V96.28C327.896 98.84 327.069 100.84 325.416 102.28C323.762 103.693 321.482 104.4 318.576 104.4ZM341.137 104V90.4C341.137 89.3067 341.017 88.4 340.777 87.68C340.537 86.96 340.084 86.4267 339.417 86.08C338.75 85.7067 337.764 85.52 336.457 85.52C335.604 85.52 334.67 85.6133 333.657 85.8C332.67 85.9867 331.777 86.24 330.977 86.56V83.2C331.777 82.8533 332.737 82.5733 333.857 82.36C335.004 82.12 336.15 82 337.297 82C340.177 82 342.257 82.6267 343.537 83.88C344.844 85.1333 345.497 87.12 345.497 89.84V104H341.137ZM358.634 104.4C356.954 104.4 355.448 104.027 354.114 103.28C352.781 102.533 351.728 101.36 350.954 99.76C350.181 98.1333 349.794 96.0533 349.794 93.52C349.794 89.7867 350.421 86.9333 351.674 84.96C352.928 82.9867 354.674 82 356.914 82C358.008 82 358.874 82.2 359.514 82.6C360.181 82.9733 360.754 83.4667 361.234 84.08C361.794 83.4667 362.528 82.9733 363.434 82.6C364.341 82.2 365.261 82 366.194 82C367.928 82 369.221 82.52 370.074 83.56C370.928 84.5733 371.354 85.9867 371.354 87.8V104H366.994V88.44C366.994 87.4267 366.848 86.6933 366.554 86.24C366.288 85.76 365.728 85.52 364.874 85.52C364.341 85.52 363.848 85.6667 363.394 85.96C362.941 86.2533 362.608 86.72 362.394 87.36H359.994C359.674 86.72 359.341 86.2533 358.994 85.96C358.648 85.6667 358.154 85.52 357.514 85.52C356.128 85.52 355.194 86.2533 354.714 87.72C354.234 89.1867 353.994 91.12 353.994 93.52C353.994 96.2667 354.461 98.1867 355.394 99.28C356.328 100.373 357.661 100.92 359.394 100.92C359.901 100.92 360.394 100.893 360.874 100.84C361.381 100.787 361.808 100.707 362.154 100.6V103.92C361.701 104.08 361.194 104.2 360.634 104.28C360.074 104.36 359.408 104.4 358.634 104.4ZM354.694 79.12L354.894 76.08H371.374V79.12H354.694ZM381.294 104C379.827 104 378.76 103.64 378.094 102.92C377.427 102.2 377.094 101.173 377.094 99.84V82.04C377.094 80.4667 377.374 79.16 377.934 78.12C378.494 77.08 379.227 76.2667 380.134 75.68H373.454V72.24H385.414V75.52C383.947 76.1067 382.907 76.9733 382.294 78.12C381.707 79.24 381.414 80.76 381.414 82.68V98.76C381.414 99.4533 381.52 99.9333 381.734 100.2C381.974 100.44 382.454 100.56 383.174 100.56H385.014V104H381.294ZM388.485 104V82.4H392.445L392.685 84.76C393.672 83.9067 394.792 83.24 396.045 82.76C397.298 82.2533 398.738 82 400.365 82C402.658 82 404.432 82.68 405.685 84.04C406.965 85.4 407.605 87.3067 407.605 89.76V104H403.285V89.96C403.285 88.3867 402.912 87.2533 402.165 86.56C401.418 85.8667 400.298 85.52 398.805 85.52C397.605 85.52 396.485 85.7733 395.445 86.28C394.405 86.76 393.538 87.3733 392.845 88.12V104H388.485ZM421.744 104.4C419.824 104.4 418.117 104.173 416.624 103.72C415.13 103.267 413.944 102.547 413.064 101.56C412.21 100.573 411.784 99.2667 411.784 97.64C411.784 96.5467 412.037 95.5867 412.544 94.76C413.05 93.9067 413.797 93.24 414.784 92.76C413.957 92.44 413.264 91.8933 412.704 91.12C412.17 90.3467 411.904 89.3867 411.904 88.24C411.904 86.1867 412.53 84.64 413.784 83.6C415.064 82.5333 416.69 82 418.664 82C419.437 82 420.104 82.0533 420.664 82.16C421.224 82.24 421.73 82.36 422.184 82.52V85.84C421.41 85.6267 420.504 85.52 419.464 85.52C418.397 85.52 417.57 85.7333 416.984 86.16C416.397 86.5867 416.104 87.28 416.104 88.24C416.104 89.2533 416.437 89.9867 417.104 90.44C417.77 90.8667 418.69 91.08 419.864 91.08H422.144L422.344 94.32H419.784C417.25 94.32 415.984 95.4267 415.984 97.64C415.984 98.7333 416.437 99.56 417.344 100.12C418.25 100.653 419.65 100.92 421.544 100.92C425.304 100.92 427.184 99.3867 427.184 96.32V82.4H431.504V95.8C431.504 98.7067 430.69 100.867 429.064 102.28C427.437 103.693 424.997 104.4 421.744 104.4ZM441.411 104C439.944 104 438.877 103.64 438.211 102.92C437.544 102.2 437.211 101.173 437.211 99.84V82.04C437.211 80.4667 437.491 79.16 438.051 78.12C438.611 77.08 439.344 76.2667 440.251 75.68H433.571V72.24H445.531V75.52C444.064 76.1067 443.024 76.9733 442.411 78.12C441.824 79.24 441.531 80.76 441.531 82.68V98.76C441.531 99.4533 441.637 99.9333 441.851 100.2C442.091 100.44 442.571 100.56 443.291 100.56H445.131V104H441.411ZM458.482 104.4C455.389 104.4 452.962 103.667 451.202 102.2C449.469 100.733 448.602 98.5333 448.602 95.6V82.4H452.962V95.76C452.962 97.5467 453.429 98.8533 454.362 99.68C455.322 100.507 456.695 100.92 458.482 100.92C460.295 100.92 461.669 100.507 462.602 99.68C463.562 98.8533 464.042 97.5467 464.042 95.76V76H468.362V95.6C468.362 98.5333 467.495 100.733 465.762 102.2C464.029 103.667 461.602 104.4 458.482 104.4ZM473.446 104V90.32C473.446 87.7067 474.232 85.6667 475.806 84.2C477.379 82.7333 479.859 82 483.246 82C486.659 82 489.126 82.7333 490.646 84.2C492.192 85.6667 492.966 87.7067 492.966 90.32V104H488.606V89.92C488.606 88.4 488.139 87.2933 487.206 86.6C486.272 85.88 484.952 85.52 483.246 85.52C481.459 85.52 480.099 85.88 479.166 86.6C478.259 87.2933 477.806 88.4 477.806 89.92V94.36C478.979 93.4 480.379 92.92 482.006 92.92H484.606L484.766 96.4H481.886C480.259 96.4 478.899 96.8533 477.806 97.76V104H473.446ZM503.415 104.4C500.935 104.4 498.775 104 496.935 103.2V99.76C497.735 100.107 498.602 100.387 499.535 100.6C500.495 100.813 501.442 100.92 502.375 100.92C504.188 100.92 505.628 100.667 506.695 100.16C507.762 99.6533 508.522 98.84 508.975 97.72C509.455 96.5733 509.695 95.0667 509.695 93.2C509.695 90.4267 509.122 88.4533 507.975 87.28C506.855 86.1067 504.975 85.52 502.335 85.52C501.375 85.52 500.442 85.6267 499.535 85.84C498.628 86.0267 497.762 86.3067 496.935 86.68V83.2C497.842 82.8267 498.815 82.5333 499.855 82.32C500.922 82.1067 502.068 82 503.295 82C506.868 82 509.522 82.96 511.255 84.88C513.015 86.7733 513.895 89.5467 513.895 93.2C513.895 96.8267 513.055 99.6 511.375 101.52C509.722 103.44 507.068 104.4 503.415 104.4ZM503.698 79.12V75.44H500.538V72.44H506.698V76.08H515.338L515.178 79.12H503.698ZM526.098 104V90.4C526.098 89.3067 525.978 88.4 525.738 87.68C525.498 86.96 525.045 86.4267 524.378 86.08C523.711 85.7067 522.725 85.52 521.418 85.52C520.565 85.52 519.631 85.6133 518.618 85.8C517.631 85.9867 516.738 86.24 515.938 86.56V83.2C516.738 82.8533 517.698 82.5733 518.818 82.36C519.965 82.12 521.111 82 522.258 82C525.138 82 527.218 82.6267 528.498 83.88C529.805 85.1333 530.458 87.12 530.458 89.84V104H526.098ZM542.635 104.4C541.222 104.4 539.848 104.307 538.515 104.12C537.208 103.933 536.128 103.667 535.275 103.32V99.68C536.288 100.08 537.382 100.387 538.555 100.6C539.755 100.813 540.848 100.92 541.835 100.92C543.675 100.92 545.035 100.76 545.915 100.44C546.795 100.093 547.235 99.3867 547.235 98.32C547.235 97.5467 547.008 96.96 546.555 96.56C546.102 96.16 545.435 95.8133 544.555 95.52C543.675 95.2 542.582 94.8267 541.275 94.4C540.048 93.9733 538.942 93.5067 537.955 93C536.968 92.4933 536.182 91.8533 535.595 91.08C535.035 90.3067 534.755 89.3333 534.755 88.16C534.755 86.2667 535.475 84.7733 536.915 83.68C538.355 82.56 540.528 82 543.435 82C544.662 82 545.875 82.0933 547.075 82.28C548.275 82.4667 549.262 82.6933 550.035 82.96V86.56C549.155 86.2133 548.168 85.96 547.075 85.8C546.008 85.6133 545.008 85.52 544.075 85.52C542.528 85.52 541.288 85.6933 540.355 86.04C539.422 86.36 538.955 87.0267 538.955 88.04C538.955 88.7067 539.195 89.24 539.675 89.64C540.155 90.0133 540.835 90.36 541.715 90.68C542.622 90.9733 543.702 91.3333 544.955 91.76C546.368 92.2133 547.555 92.72 548.515 93.28C549.475 93.8133 550.195 94.48 550.675 95.28C551.182 96.0533 551.435 97.0667 551.435 98.32C551.435 100.427 550.635 101.973 549.035 102.96C547.462 103.92 545.328 104.4 542.635 104.4ZM563.871 104V90.4C563.871 89.3067 563.751 88.4 563.511 87.68C563.271 86.96 562.818 86.4267 562.151 86.08C561.485 85.7067 560.498 85.52 559.191 85.52C558.338 85.52 557.405 85.6133 556.391 85.8C555.405 85.9867 554.511 86.24 553.711 86.56V83.2C554.511 82.8533 555.471 82.5733 556.591 82.36C557.738 82.12 558.885 82 560.031 82C562.911 82 564.991 82.6267 566.271 83.88C567.578 85.1333 568.231 87.12 568.231 89.84V104H563.871ZM581.809 104.4C581.195 104.4 580.515 104.36 579.769 104.28C579.022 104.2 578.369 104.067 577.809 103.88L571.729 89.08H575.969L580.889 101.08C583.182 101.187 584.849 100.533 585.889 99.12C586.929 97.68 587.449 95.48 587.449 92.52C587.449 90.7867 587.289 89.4267 586.969 88.44C586.649 87.4267 586.102 86.72 585.329 86.32C584.582 85.8933 583.542 85.68 582.209 85.68H580.689V82.4H582.769C585.862 82.4 588.115 83.2267 589.529 84.88C590.942 86.5333 591.649 89.0667 591.649 92.48C591.649 95.3067 591.222 97.6 590.369 99.36C589.515 101.093 588.342 102.373 586.849 103.2C585.382 104 583.702 104.4 581.809 104.4ZM601.267 104.4C598.787 104.4 596.627 104 594.787 103.2V99.76C595.587 100.107 596.453 100.387 597.387 100.6C598.347 100.813 599.293 100.92 600.227 100.92C602.04 100.92 603.48 100.667 604.547 100.16C605.613 99.6533 606.373 98.84 606.827 97.72C607.307 96.5733 607.547 95.0667 607.547 93.2C607.547 90.4267 606.973 88.4533 605.827 87.28C604.707 86.1067 602.827 85.52 600.187 85.52C599.227 85.52 598.293 85.6267 597.387 85.84C596.48 86.0267 595.613 86.3067 594.787 86.68V83.2C595.693 82.8267 596.667 82.5333 597.707 82.32C598.773 82.1067 599.92 82 601.147 82C604.72 82 607.373 82.96 609.107 84.88C610.867 86.7733 611.747 89.5467 611.747 93.2C611.747 96.8267 610.907 99.6 609.227 101.52C607.573 103.44 604.92 104.4 601.267 104.4ZM601.23 79.12V73.28H604.83V76.08H615.19L614.99 79.12H601.23ZM622.47 104.4C621.11 104.4 619.87 104.187 618.75 103.76C617.656 103.307 616.776 102.6 616.11 101.64C615.443 100.653 615.11 99.3733 615.11 97.8C615.11 95.6933 615.816 94.0533 617.23 92.88C618.67 91.7067 620.763 91.12 623.51 91.12H630.11V89.76C630.11 88.1867 629.71 87.0933 628.91 86.48C628.136 85.84 626.683 85.52 624.55 85.52C623.296 85.52 622.083 85.6 620.91 85.76C619.763 85.92 618.63 86.1867 617.51 86.56V83.2C618.55 82.8533 619.75 82.5733 621.11 82.36C622.496 82.12 623.883 82 625.27 82C628.416 82 630.736 82.6667 632.23 84C633.723 85.3067 634.47 87.36 634.47 90.16V104H630.11V94.48H623.79C622.296 94.48 621.163 94.7333 620.39 95.24C619.643 95.72 619.27 96.5733 619.27 97.8C619.27 98.9733 619.603 99.7867 620.27 100.24C620.963 100.693 622.083 100.92 623.63 100.92C624.696 100.92 625.616 100.813 626.39 100.6V103.92C625.883 104.053 625.296 104.16 624.63 104.24C623.963 104.347 623.243 104.4 622.47 104.4ZM646.62 104.4C645.206 104.4 643.833 104.307 642.5 104.12C641.193 103.933 640.113 103.667 639.26 103.32V99.68C640.273 100.08 641.366 100.387 642.54 100.6C643.74 100.813 644.833 100.92 645.82 100.92C647.66 100.92 649.02 100.76 649.9 100.44C650.78 100.093 651.22 99.3867 651.22 98.32C651.22 97.5467 650.993 96.96 650.54 96.56C650.086 96.16 649.42 95.8133 648.54 95.52C647.66 95.2 646.566 94.8267 645.26 94.4C644.033 93.9733 642.926 93.5067 641.94 93C640.953 92.4933 640.166 91.8533 639.58 91.08C639.02 90.3067 638.74 89.3333 638.74 88.16C638.74 86.2667 639.46 84.7733 640.9 83.68C642.34 82.56 644.513 82 647.42 82C648.646 82 649.86 82.0933 651.06 82.28C652.26 82.4667 653.246 82.6933 654.02 82.96V86.56C653.14 86.2133 652.153 85.96 651.06 85.8C649.993 85.6133 648.993 85.52 648.06 85.52C646.513 85.52 645.273 85.6933 644.34 86.04C643.406 86.36 642.94 87.0267 642.94 88.04C642.94 88.7067 643.18 89.24 643.66 89.64C644.14 90.0133 644.82 90.36 645.7 90.68C646.606 90.9733 647.686 91.3333 648.94 91.76C650.353 92.2133 651.54 92.72 652.5 93.28C653.46 93.8133 654.18 94.48 654.66 95.28C655.166 96.0533 655.42 97.0667 655.42 98.32C655.42 100.427 654.62 101.973 653.02 102.96C651.446 103.92 649.313 104.4 646.62 104.4ZM658.896 90.76V85.56H662.616V87.52H668.496L668.336 90.76H658.896ZM658.896 101.64V96.44H662.616V98.44H668.496L668.336 101.64H658.896ZM680.705 104.4C679.025 104.4 677.518 104.027 676.185 103.28C674.851 102.533 673.798 101.36 673.025 99.76C672.251 98.1333 671.865 96.0533 671.865 93.52C671.865 89.92 672.785 87.1067 674.625 85.08C676.465 83.0267 679.225 82 682.905 82C685.385 82 687.385 82.4267 688.905 83.28C690.425 84.1067 691.531 85.1867 692.225 86.52C692.945 87.8533 693.305 89.28 693.305 90.8V104H688.945V91C688.945 89.9333 688.758 88.9867 688.385 88.16C688.011 87.3333 687.371 86.6933 686.465 86.24C685.585 85.76 684.371 85.52 682.825 85.52C680.478 85.52 678.758 86.2 677.665 87.56C676.598 88.92 676.065 90.9067 676.065 93.52C676.065 96.2667 676.531 98.1867 677.465 99.28C678.398 100.373 679.731 100.92 681.465 100.92C681.971 100.92 682.465 100.893 682.945 100.84C683.451 100.787 683.878 100.707 684.225 100.6V103.92C683.771 104.08 683.265 104.2 682.705 104.28C682.145 104.36 681.478 104.4 680.705 104.4ZM683.808 79.12V73.28H687.408V76.08H697.768L697.568 79.12H683.808ZM708.248 104.4C705.154 104.4 702.728 103.667 700.968 102.2C699.234 100.733 698.368 98.5333 698.368 95.6V82.4H702.728V95.76C702.728 97.5467 703.194 98.8533 704.128 99.68C705.088 100.507 706.461 100.92 708.248 100.92C710.061 100.92 711.434 100.507 712.368 99.68C713.328 98.8533 713.808 97.5467 713.808 95.76V82.4H718.128V95.6C718.128 98.5333 717.261 100.733 715.528 102.2C713.794 103.667 711.368 104.4 708.248 104.4ZM732.091 104.4C729.051 104.4 726.745 103.693 725.171 102.28C723.625 100.867 722.851 98.88 722.851 96.32V94.2C722.851 93.3467 723.025 92.56 723.371 91.84C723.745 91.12 724.158 90.4667 724.611 89.88C725.091 89.2667 725.505 88.7067 725.851 88.2C726.225 87.6667 726.411 87.1733 726.411 86.72C726.411 86.2933 726.318 86.0133 726.131 85.88C725.945 85.7467 725.611 85.68 725.131 85.68H722.371L722.731 82.4H727.771C729.798 82.4 730.811 83.3733 730.811 85.32C730.811 86.2267 730.625 87.04 730.251 87.76C729.905 88.48 729.478 89.1733 728.971 89.84C728.491 90.5067 728.065 91.2 727.691 91.92C727.345 92.6133 727.171 93.3867 727.171 94.24V96.68C727.171 98.1467 727.598 99.2267 728.451 99.92C729.331 100.587 730.545 100.92 732.091 100.92C733.665 100.92 734.878 100.573 735.731 99.88C736.611 99.1867 737.051 98.08 737.051 96.56V93.92C737.051 92.6667 736.851 91.8 736.451 91.32C736.051 90.8133 735.305 90.56 734.211 90.56H733.091L733.291 87.4H734.091C735.211 87.4 735.985 87.1333 736.411 86.6C736.838 86.04 737.051 85.1867 737.051 84.04V82H741.411V83.96C741.411 85.2133 741.225 86.2533 740.851 87.08C740.478 87.88 739.705 88.5067 738.531 88.96C739.758 89.4667 740.545 90.1333 740.891 90.96C741.238 91.7867 741.411 92.8133 741.411 94.04V96.28C741.411 98.84 740.585 100.84 738.931 102.28C737.278 103.693 734.998 104.4 732.091 104.4ZM754.653 104V90.4C754.653 89.3067 754.533 88.4 754.293 87.68C754.053 86.96 753.599 86.4267 752.933 86.08C752.266 85.7067 751.279 85.52 749.973 85.52C749.119 85.52 748.186 85.6133 747.173 85.8C746.186 85.9867 745.293 86.24 744.493 86.56V83.2C745.293 82.8533 746.253 82.5733 747.373 82.36C748.519 82.12 749.666 82 750.813 82C753.693 82 755.773 82.6267 757.053 83.88C758.359 85.1333 759.013 87.12 759.013 89.84V104H754.653ZM772.15 104.4C770.47 104.4 768.963 104.027 767.63 103.28C766.297 102.533 765.243 101.36 764.47 99.76C763.697 98.1333 763.31 96.0533 763.31 93.52C763.31 89.7867 763.937 86.9333 765.19 84.96C766.443 82.9867 768.19 82 770.43 82C771.523 82 772.39 82.2 773.03 82.6C773.697 82.9733 774.27 83.4667 774.75 84.08C775.31 83.4667 776.043 82.9733 776.95 82.6C777.857 82.2 778.777 82 779.71 82C781.443 82 782.737 82.52 783.59 83.56C784.443 84.5733 784.87 85.9867 784.87 87.8V104H780.51V88.44C780.51 87.4267 780.363 86.6933 780.07 86.24C779.803 85.76 779.243 85.52 778.39 85.52C777.857 85.52 777.363 85.6667 776.91 85.96C776.457 86.2533 776.123 86.72 775.91 87.36H773.51C773.19 86.72 772.857 86.2533 772.51 85.96C772.163 85.6667 771.67 85.52 771.03 85.52C769.643 85.52 768.71 86.2533 768.23 87.72C767.75 89.1867 767.51 91.12 767.51 93.52C767.51 96.2667 767.977 98.1867 768.91 99.28C769.843 100.373 771.177 100.92 772.91 100.92C773.417 100.92 773.91 100.893 774.39 100.84C774.897 100.787 775.323 100.707 775.67 100.6V103.92C775.217 104.08 774.71 104.2 774.15 104.28C773.59 104.36 772.923 104.4 772.15 104.4ZM768.209 79.12L768.409 76.08H784.889V79.12H768.209ZM801.729 104.4C800.103 104.4 798.676 104.147 797.449 103.64C796.249 103.133 795.156 102.467 794.169 101.64L793.929 104H789.969V82.4H794.329V98.32C795.023 99.0667 795.889 99.6933 796.929 100.2C797.969 100.68 799.089 100.92 800.289 100.92C801.783 100.92 802.903 100.573 803.649 99.88C804.396 99.16 804.769 97.9867 804.769 96.36V82.4H809.089V96.56C809.089 99.0667 808.436 101 807.129 102.36C805.823 103.72 804.023 104.4 801.729 104.4ZM822.348 104V90.4C822.348 89.3067 822.228 88.4 821.988 87.68C821.748 86.96 821.295 86.4267 820.628 86.08C819.961 85.7067 818.975 85.52 817.668 85.52C816.815 85.52 815.881 85.6133 814.868 85.8C813.881 85.9867 812.988 86.24 812.188 86.56V83.2C812.988 82.8533 813.948 82.5733 815.068 82.36C816.215 82.12 817.361 82 818.508 82C821.388 82 823.468 82.6267 824.748 83.88C826.055 85.1333 826.708 87.12 826.708 89.84V104H822.348ZM843.565 104.4C841.938 104.4 840.512 104.147 839.285 103.64C838.085 103.133 836.992 102.467 836.005 101.64L835.765 104H831.805V82.4H836.165V98.32C836.858 99.0667 837.725 99.6933 838.765 100.2C839.805 100.68 840.925 100.92 842.125 100.92C843.618 100.92 844.738 100.573 845.485 99.88C846.232 99.16 846.605 97.9867 846.605 96.36V82.4H850.925V96.56C850.925 99.0667 850.272 101 848.965 102.36C847.658 103.72 845.858 104.4 843.565 104.4ZM864.184 104V90.4C864.184 89.3067 864.064 88.4 863.824 87.68C863.584 86.96 863.131 86.4267 862.464 86.08C861.797 85.7067 860.811 85.52 859.504 85.52C858.651 85.52 857.717 85.6133 856.704 85.8C855.717 85.9867 854.824 86.24 854.024 86.56V83.2C854.824 82.8533 855.784 82.5733 856.904 82.36C858.051 82.12 859.197 82 860.344 82C863.224 82 865.304 82.6267 866.584 83.88C867.891 85.1333 868.544 87.12 868.544 89.84V104H864.184ZM874.001 104V96.2C874.001 95.0267 874.228 94 874.681 93.12C875.134 92.2133 875.961 91.5867 877.161 91.24L872.841 90.16V85.68C873.908 84.7467 875.308 83.9067 877.041 83.16C878.801 82.3867 880.854 82 883.201 82C886.374 82 888.814 82.6667 890.521 84C892.228 85.3067 893.081 87.5067 893.081 90.6V104H888.721V90.48C888.721 88.64 888.281 87.36 887.401 86.64C886.548 85.8933 885.094 85.52 883.041 85.52C881.708 85.52 880.468 85.7067 879.321 86.08C878.174 86.4533 877.268 86.9467 876.601 87.56V88.28L881.161 89.44V92.32C880.121 92.5867 879.388 93.0133 878.961 93.6C878.534 94.1867 878.321 95.0667 878.321 96.24V104H874.001ZM909.932 104.4C908.306 104.4 906.879 104.147 905.652 103.64C904.452 103.133 903.359 102.467 902.372 101.64L902.132 104H898.172V82.4H902.532V98.32C903.226 99.0667 904.092 99.6933 905.132 100.2C906.172 100.68 907.292 100.92 908.492 100.92C909.986 100.92 911.106 100.573 911.852 99.88C912.599 99.16 912.972 97.9867 912.972 96.36V82.4H917.292V96.56C917.292 99.0667 916.639 101 915.332 102.36C914.026 103.72 912.226 104.4 909.932 104.4ZM930.551 104V90.4C930.551 89.3067 930.431 88.4 930.191 87.68C929.951 86.96 929.498 86.4267 928.831 86.08C928.164 85.7067 927.178 85.52 925.871 85.52C925.018 85.52 924.084 85.6133 923.071 85.8C922.084 85.9867 921.191 86.24 920.391 86.56V83.2C921.191 82.8533 922.151 82.5733 923.271 82.36C924.418 82.12 925.564 82 926.711 82C929.591 82 931.671 82.6267 932.951 83.88C934.258 85.1333 934.911 87.12 934.911 89.84V104H930.551ZM949.048 104.4C947.128 104.4 945.422 104.173 943.928 103.72C942.435 103.267 941.248 102.547 940.368 101.56C939.515 100.573 939.088 99.2667 939.088 97.64C939.088 96.5467 939.342 95.5867 939.848 94.76C940.355 93.9067 941.102 93.24 942.088 92.76C941.262 92.44 940.568 91.8933 940.008 91.12C939.475 90.3467 939.208 89.3867 939.208 88.24C939.208 86.1867 939.835 84.64 941.088 83.6C942.368 82.5333 943.995 82 945.968 82C946.742 82 947.408 82.0533 947.968 82.16C948.528 82.24 949.035 82.36 949.488 82.52V85.84C948.715 85.6267 947.808 85.52 946.768 85.52C945.702 85.52 944.875 85.7333 944.288 86.16C943.702 86.5867 943.408 87.28 943.408 88.24C943.408 89.2533 943.742 89.9867 944.408 90.44C945.075 90.8667 945.995 91.08 947.168 91.08H949.448L949.648 94.32H947.088C944.555 94.32 943.288 95.4267 943.288 97.64C943.288 98.7333 943.742 99.56 944.648 100.12C945.555 100.653 946.955 100.92 948.848 100.92C952.608 100.92 954.488 99.3867 954.488 96.32V82.4H958.808V95.8C958.808 98.7067 957.995 100.867 956.368 102.28C954.742 103.693 952.302 104.4 949.048 104.4Z" fill="black"/>
<path d="M10 9.2C8.26667 10.6 6.83333 12.5 5.7 14.9C4.63333 17.2333 4.13333 19.6333 4.2 22.1C4.86667 21.7 5.6 21.5 6.4 21.5C7.93333 21.5 9.13333 21.9667 10 22.9C10.9333 23.7667 11.4 24.9667 11.4 26.5C11.4 28.0333 10.9 29.3 9.9 30.3C8.96667 31.2333 7.66667 31.7 6 31.7C4.13333 31.7 2.66667 31.0333 1.6 29.7C0.533333 28.3 0 26.3667 0 23.9C0 20.7667 0.8 17.7 2.4 14.7C4 11.7 6.03333 9.46667 8.5 8L10 9.2ZM26.9 9.2C25.1667 10.6 23.7333 12.5 22.6 14.9C21.5333 17.2333 21.0333 19.6333 21.1 22.1C21.7667 21.7 22.5 21.5 23.3 21.5C24.8333 21.5 26.0333 21.9667 26.9 22.9C27.8333 23.7667 28.3 24.9667 28.3 26.5C28.3 28.0333 27.8 29.3 26.8 30.3C25.8667 31.2333 24.5667 31.7 22.9 31.7C21.0333 31.7 19.5667 31.0333 18.5 29.7C17.4333 28.3 16.9 26.3667 16.9 23.9C16.9 20.7667 17.7 17.7 19.3 14.7C20.9 11.7 22.9333 9.46667 25.4 8L26.9 9.2Z" fill="black"/>
<path d="M996.4 74.5C998.133 73.1 999.533 71.2333 1000.6 68.9C1001.73 66.5 1002.27 64.0667 1002.2 61.6C1001.53 62 1000.8 62.2 1000 62.2C998.533 62.2 997.333 61.7333 996.4 60.8C995.467 59.8667 995 58.6667 995 57.2C995 55.6667 995.467 54.4333 996.4 53.5C997.4 52.5 998.733 52 1000.4 52C1002.27 52 1003.73 52.7 1004.8 54.1C1005.87 55.4333 1006.4 57.3333 1006.4 59.8C1006.4 62.9333 1005.6 66 1004 69C1002.4 72 1000.37 74.2333 997.9 75.7L996.4 74.5ZM1013.3 74.5C1015.03 73.1 1016.43 71.2333 1017.5 68.9C1018.63 66.5 1019.17 64.0667 1019.1 61.6C1018.43 62 1017.7 62.2 1016.9 62.2C1015.43 62.2 1014.23 61.7333 1013.3 60.8C1012.37 59.8667 1011.9 58.6667 1011.9 57.2C1011.9 55.6667 1012.37 54.4333 1013.3 53.5C1014.3 52.5 1015.63 52 1017.3 52C1019.17 52 1020.63 52.7 1021.7 54.1C1022.77 55.4333 1023.3 57.3333 1023.3 59.8C1023.3 62.9333 1022.5 66 1020.9 69C1019.3 72 1017.27 74.2333 1014.8 75.7L1013.3 74.5Z" fill="black"/>
</svg>
