<svg width="258" height="96" viewBox="0 0 258 96" fill="none" xmlns="http://www.w3.org/2000/svg">
<rect x="0.375" y="0.375" width="257.25" height="95.25" fill="white" stroke="black" stroke-width="0.75"/>
<path d="M27.28 29.9C27.7333 30.0467 28.0933 30.3067 28.36 30.68C28.64 31.0533 28.78 31.4933 28.78 32C28.78 32.6533 28.56 33.1867 28.12 33.6C27.6933 34 27.14 34.2 26.46 34.2C25.7933 34.2 25.24 34 24.8 33.6C24.3733 33.1867 24.16 32.6533 24.16 32C24.16 31.6267 24.2267 31.3067 24.36 31.04C23.6 31.44 22.9 31.8933 22.26 32.4C21.6333 32.9067 21.1067 33.44 20.68 34H18.7V26.56C18.58 26.6933 18.4067 26.8 18.18 26.88C17.9533 26.9467 17.7067 26.98 17.44 26.98C16.7867 26.98 16.2467 26.78 15.82 26.38C15.4067 25.9667 15.2 25.44 15.2 24.8C15.2 24.1467 15.4267 23.62 15.88 23.22C16.3467 22.8067 16.96 22.6 17.72 22.6C18.6267 22.6 19.3333 22.8533 19.84 23.36C20.36 23.8533 20.62 24.54 20.62 25.42V32.48C21.2467 31.8267 22.1067 31.2 23.2 30.6C24.2933 29.9867 25.36 29.5467 26.4 29.28V22.8H28.32V29.7C28.0667 29.7267 27.72 29.7933 27.28 29.9ZM17.5 26.34C17.9667 26.34 18.34 26.1933 18.62 25.9C18.9133 25.6067 19.06 25.2333 19.06 24.78C19.06 24.3267 18.9133 23.96 18.62 23.68C18.3267 23.3867 17.9533 23.24 17.5 23.24C17.0467 23.24 16.6733 23.3867 16.38 23.68C16.0867 23.96 15.94 24.3267 15.94 24.78C15.94 25.2333 16.0867 25.6067 16.38 25.9C16.6733 26.1933 17.0467 26.34 17.5 26.34ZM26.46 33.54C26.9267 33.54 27.3067 33.3933 27.6 33.1C27.8933 32.8067 28.04 32.4333 28.04 31.98C28.04 31.5267 27.8933 31.16 27.6 30.88C27.3067 30.5867 26.9267 30.44 26.46 30.44C26.0067 30.44 25.6333 30.5867 25.34 30.88C25.0467 31.16 24.9 31.5267 24.9 31.98C24.9 32.4333 25.0467 32.8067 25.34 33.1C25.6333 33.3933 26.0067 33.54 26.46 33.54ZM27.2656 21.16C26.4923 21.16 25.8656 20.9733 25.3856 20.6C24.9056 20.2267 24.6656 19.7333 24.6656 19.12C24.6656 18.5067 24.9056 18.02 25.3856 17.66C25.8523 17.2867 26.479 17.1 27.2656 17.1C28.039 17.1 28.6656 17.2867 29.1456 17.66C29.6123 18.02 29.8456 18.5067 29.8456 19.12C29.8456 19.7333 29.6123 20.2267 29.1456 20.6C28.6656 20.9733 28.039 21.16 27.2656 21.16ZM27.2656 20.56C27.6923 20.56 28.039 20.4267 28.3056 20.16C28.559 19.8933 28.6856 19.5467 28.6856 19.12C28.6856 18.6933 28.5523 18.3467 28.2856 18.08C28.019 17.8133 27.679 17.68 27.2656 17.68C26.839 17.68 26.4923 17.8133 26.2256 18.08C25.959 18.3467 25.8256 18.6933 25.8256 19.12C25.8256 19.5467 25.959 19.8933 26.2256 20.16C26.4923 20.4267 26.839 20.56 27.2656 20.56ZM23.8456 15.94C24.139 15.7533 24.419 15.52 24.6856 15.24C24.9523 14.96 25.139 14.6933 25.2456 14.44C25.0856 14.56 24.8523 14.62 24.5456 14.62C24.0923 14.62 23.7256 14.48 23.4456 14.2C23.1523 13.92 23.0056 13.56 23.0056 13.12C23.0056 12.68 23.159 12.32 23.4656 12.04C23.759 11.76 24.1456 11.62 24.6256 11.62C25.1456 11.62 25.5723 11.7667 25.9056 12.06C26.2256 12.34 26.3856 12.7067 26.3856 13.16C26.3856 13.5067 26.319 13.88 26.1856 14.28C26.039 14.6667 25.859 14.9867 25.6456 15.24C26.5123 14.9467 27.2256 14.52 27.7856 13.96C28.3456 13.4 28.719 12.7733 28.9056 12.08H30.4056C30.2723 12.8133 29.9123 13.4867 29.3256 14.1C28.739 14.7133 27.9856 15.2133 27.0656 15.6C26.1323 15.9733 25.1123 16.2 24.0056 16.28L23.8456 15.94ZM24.5456 14.02C24.799 14.02 25.0123 13.94 25.1856 13.78C25.3456 13.6067 25.4256 13.3867 25.4256 13.12C25.4256 12.8533 25.3456 12.64 25.1856 12.48C25.0123 12.32 24.799 12.24 24.5456 12.24C24.279 12.24 24.0656 12.32 23.9056 12.48C23.7323 12.64 23.6456 12.8533 23.6456 13.12C23.6456 13.3867 23.7323 13.6067 23.9056 13.78C24.0656 13.94 24.279 14.02 24.5456 14.02ZM37.6856 26.22C37.6856 25.34 37.4256 24.6333 36.9056 24.1C36.399 23.5667 35.699 23.3 34.8056 23.3C33.979 23.3 33.2923 23.5533 32.7456 24.06C32.2123 24.5533 31.899 25.24 31.8056 26.12H29.9856C30.079 25.0533 30.5523 24.2 31.4056 23.56C32.2723 22.92 33.4056 22.6 34.8056 22.6C36.259 22.6 37.419 22.9467 38.2856 23.64C39.1656 24.3333 39.6056 25.28 39.6056 26.48V34H37.6856V26.22ZM52.1547 23.78C52.5814 24.1133 52.908 24.5133 53.1347 24.98C53.3747 25.4333 53.4947 25.9333 53.4947 26.48V34H51.5747V33.8C51.5747 31.64 51.2147 29.96 50.4947 28.76C49.7747 27.5467 48.768 26.94 47.4747 26.94C46.608 26.94 45.8814 27.2467 45.2947 27.86C44.7214 28.4733 44.408 29.2867 44.3547 30.3C44.4614 30.1667 44.648 30.0533 44.9147 29.96C45.1814 29.8667 45.448 29.82 45.7147 29.82C46.3814 29.82 46.928 30.0267 47.3547 30.44C47.7947 30.8533 48.0147 31.38 48.0147 32.02C48.0147 32.66 47.7814 33.1867 47.3147 33.6C46.8614 34 46.2747 34.2 45.5547 34.2C44.6214 34.2 43.8747 33.8867 43.3147 33.26C42.7547 32.6333 42.4747 31.8067 42.4747 30.78C42.4747 29.8867 42.668 29.1 43.0547 28.42C43.4547 27.7267 44.0147 27.1867 44.7347 26.8C45.468 26.4133 46.308 26.2133 47.2547 26.2C48.388 25.5067 49.368 24.7267 50.1947 23.86C49.5947 23.5 48.848 23.32 47.9547 23.32C46.888 23.32 45.9947 23.5667 45.2747 24.06C44.5547 24.54 44.1214 25.1867 43.9747 26H42.1547C42.3414 24.9733 42.9614 24.1533 44.0147 23.54C45.068 22.9133 46.3814 22.6 47.9547 22.6C49.0614 22.6 50.0214 22.7533 50.8347 23.06C51.168 22.6067 51.388 22.1733 51.4947 21.76H53.6547C53.5614 22.2667 53.0614 22.94 52.1547 23.78ZM51.5747 26.32C51.5747 25.68 51.4147 25.1333 51.0947 24.68C50.228 25.36 49.3347 25.9 48.4147 26.3C49.1347 26.46 49.768 26.78 50.3147 27.26C50.8614 27.7267 51.2814 28.3267 51.5747 29.06V26.32ZM45.6947 30.46C45.228 30.46 44.8547 30.6067 44.5747 30.9C44.2947 31.18 44.1547 31.5533 44.1547 32.02C44.1547 32.4733 44.2947 32.8467 44.5747 33.14C44.868 33.42 45.2414 33.56 45.6947 33.56C46.1614 33.56 46.5347 33.42 46.8147 33.14C47.108 32.86 47.2547 32.4867 47.2547 32.02C47.2547 31.5533 47.108 31.18 46.8147 30.9C46.5347 30.6067 46.1614 30.46 45.6947 30.46ZM59.9014 28C58.8214 28 57.9014 27.7667 57.1414 27.3C56.3947 26.8333 56.0214 26.1533 56.0214 25.26C56.0214 24.66 56.2147 24.1667 56.6014 23.78C56.9881 23.3933 57.4881 23.2 58.1014 23.2C58.6881 23.2 59.1681 23.3867 59.5414 23.76C59.9147 24.1333 60.1014 24.6067 60.1014 25.18C60.1014 25.6333 59.9614 26.04 59.6814 26.4C59.4014 26.7467 59.0347 26.9667 58.5814 27.06C58.9414 27.1667 59.3747 27.22 59.8814 27.22C60.9347 27.22 61.7681 26.86 62.3814 26.14C62.9947 25.42 63.3014 24.3933 63.3014 23.06H64.9014V23.46C64.9014 24.3533 64.7014 25.14 64.3014 25.82C63.9014 26.5 63.3214 27.0333 62.5614 27.42C61.8147 27.8067 60.9281 28 59.9014 28ZM58.0614 26.44C58.4481 26.44 58.7681 26.32 59.0214 26.08C59.2747 25.8267 59.4014 25.5133 59.4014 25.14C59.4014 24.7667 59.2747 24.46 59.0214 24.22C58.7681 23.9667 58.4481 23.84 58.0614 23.84C57.6747 23.84 57.3547 23.9667 57.1014 24.22C56.8614 24.46 56.7414 24.7667 56.7414 25.14C56.7414 25.5133 56.8614 25.8267 57.1014 26.08C57.3547 26.32 57.6747 26.44 58.0614 26.44ZM59.9014 33.76C58.8214 33.76 57.9014 33.5267 57.1414 33.06C56.3947 32.5933 56.0214 31.9133 56.0214 31.02C56.0214 30.42 56.2147 29.9267 56.6014 29.54C56.9881 29.1533 57.4881 28.96 58.1014 28.96C58.6881 28.96 59.1681 29.1467 59.5414 29.52C59.9147 29.8933 60.1014 30.3667 60.1014 30.94C60.1014 31.3933 59.9614 31.8 59.6814 32.16C59.4014 32.5067 59.0347 32.7267 58.5814 32.82C58.9414 32.9267 59.3747 32.98 59.8814 32.98C60.9081 32.98 61.7347 32.62 62.3614 31.9C62.9881 31.1667 63.3014 30.14 63.3014 28.82H64.9014V29.22C64.9014 30.1 64.6947 30.8867 64.2814 31.58C63.8681 32.26 63.2814 32.7933 62.5214 33.18C61.7747 33.5667 60.9014 33.76 59.9014 33.76ZM58.0614 32.2C58.4481 32.2 58.7681 32.08 59.0214 31.84C59.2747 31.5867 59.4014 31.2733 59.4014 30.9C59.4014 30.5267 59.2747 30.22 59.0214 29.98C58.7681 29.7267 58.4481 29.6 58.0614 29.6C57.6747 29.6 57.3547 29.7267 57.1014 29.98C56.8614 30.22 56.7414 30.5267 56.7414 30.9C56.7414 31.2733 56.8614 31.5867 57.1014 31.84C57.3547 32.08 57.6747 32.2 58.0614 32.2ZM67.437 29.7C67.437 28.8067 67.6904 28.1133 68.197 27.62C68.7037 27.1267 69.4104 26.88 70.317 26.88C71.077 26.88 71.6904 27.0867 72.157 27.5C72.637 27.9133 72.877 28.4467 72.877 29.1C72.877 29.74 72.6704 30.26 72.257 30.66C71.8437 31.06 71.3037 31.26 70.637 31.26C70.3704 31.26 70.117 31.22 69.877 31.14C69.637 31.0467 69.457 30.9333 69.337 30.8V33.18H76.217V26.74C76.217 25.6867 75.857 24.8533 75.137 24.24C74.4304 23.6133 73.4837 23.3 72.297 23.3C71.1504 23.3 70.217 23.5867 69.497 24.16C68.777 24.7333 68.3837 25.5 68.317 26.46H66.517C66.5704 25.6867 66.837 25.0067 67.317 24.42C67.8104 23.8333 68.477 23.3867 69.317 23.08C70.1704 22.76 71.1504 22.6 72.257 22.6C73.4437 22.6 74.477 22.78 75.357 23.14C76.2504 23.5 76.937 24.0133 77.417 24.68C77.897 25.3333 78.137 26.1 78.137 26.98V34H67.437V29.7ZM70.557 30.62C71.0104 30.62 71.3837 30.48 71.677 30.2C71.9704 29.9067 72.117 29.5333 72.117 29.08C72.117 28.6133 71.9704 28.24 71.677 27.96C71.397 27.6667 71.0237 27.52 70.557 27.52C70.1037 27.52 69.7304 27.6667 69.437 27.96C69.157 28.2533 69.017 28.6267 69.017 29.08C69.017 29.5333 69.157 29.9067 69.437 30.2C69.7304 30.48 70.1037 30.62 70.557 30.62ZM87.4903 26.22C87.4903 25.34 87.2303 24.6333 86.7103 24.1C86.2036 23.5667 85.5036 23.3 84.6103 23.3C83.7836 23.3 83.097 23.5533 82.5503 24.06C82.017 24.5533 81.7036 25.24 81.6103 26.12H79.7903C79.8836 25.0533 80.357 24.2 81.2103 23.56C82.077 22.92 83.2103 22.6 84.6103 22.6C86.0636 22.6 87.2236 22.9467 88.0903 23.64C88.9703 24.3333 89.4103 25.28 89.4103 26.48V34H87.4903V26.22ZM92.3394 32.94C92.3394 31.5667 92.2794 30.36 92.1594 29.32C92.066 28.52 92.0194 27.8 92.0194 27.16C92.0194 26.24 92.2527 25.44 92.7194 24.76C93.1994 24.0667 93.8727 23.5333 94.7394 23.16C95.606 22.7867 96.626 22.6 97.7994 22.6C98.9194 22.6 99.8994 22.76 100.739 23.08C101.593 23.4 102.246 23.8533 102.699 24.44C103.166 25.0267 103.399 25.7067 103.399 26.48V34H101.479V26.3C101.479 25.3933 101.139 24.6667 100.459 24.12C99.7927 23.5733 98.8994 23.3 97.7794 23.3C96.566 23.3 95.6194 23.6267 94.9394 24.28C94.2727 24.9333 93.9394 25.8467 93.9394 27.02C93.9394 27.4733 93.9727 28.1867 94.0394 29.16C94.1327 30.4533 94.1794 31.7467 94.1794 33.04C95.1794 32.6267 96.066 32.1333 96.8394 31.56C97.6127 30.9867 98.1994 30.3867 98.5994 29.76C98.3327 29.9067 98.046 29.98 97.7394 29.98C97.0594 29.98 96.4994 29.78 96.0594 29.38C95.6327 28.9667 95.4194 28.44 95.4194 27.8C95.4194 27.1467 95.6327 26.62 96.0594 26.22C96.4994 25.8067 97.0527 25.6 97.7194 25.6C98.3994 25.6 98.9594 25.8267 99.3994 26.28C99.8394 26.72 100.059 27.2867 100.059 27.98C100.059 28.7133 99.7994 29.4667 99.2794 30.24C98.7594 31 98.0394 31.7133 97.1194 32.38C96.1994 33.0333 95.1594 33.5733 93.9994 34H92.3394V32.94ZM97.7194 29.36C98.186 29.36 98.566 29.2133 98.8594 28.92C99.1527 28.6267 99.2994 28.2533 99.2994 27.8C99.2994 27.3467 99.1527 26.9733 98.8594 26.68C98.566 26.3867 98.186 26.24 97.7194 26.24C97.2527 26.24 96.8727 26.3867 96.5794 26.68C96.286 26.9733 96.1394 27.3467 96.1394 27.8C96.1394 28.2533 96.286 28.6267 96.5794 28.92C96.8727 29.2133 97.2527 29.36 97.7194 29.36Z" fill="black"/>
<path d="M18.69 60.15C18.03 60.15 17.505 59.97 17.115 59.61C16.725 59.25 16.53 58.725 16.53 58.035V51.6H17.97V57.195C18.07 57.095 18.205 57.015 18.375 56.955C18.545 56.895 18.73 56.865 18.93 56.865C19.43 56.865 19.83 57.015 20.13 57.315C20.44 57.615 20.595 58.01 20.595 58.5C20.595 59 20.42 59.4 20.07 59.7C19.72 60 19.26 60.15 18.69 60.15ZM23.61 60.15C22.94 60.15 22.41 59.97 22.02 59.61C21.63 59.25 21.435 58.725 21.435 58.035V51.6H22.89V57.195C22.98 57.105 23.11 57.03 23.28 56.97C23.45 56.9 23.635 56.865 23.835 56.865C24.335 56.865 24.735 57.015 25.035 57.315C25.345 57.615 25.5 58.01 25.5 58.5C25.5 59 25.325 59.4 24.975 59.7C24.635 60 24.18 60.15 23.61 60.15ZM18.87 59.67C19.21 59.67 19.49 59.565 19.71 59.355C19.93 59.135 20.04 58.855 20.04 58.515C20.04 58.165 19.93 57.885 19.71 57.675C19.5 57.455 19.22 57.345 18.87 57.345C18.53 57.345 18.25 57.455 18.03 57.675C17.82 57.895 17.715 58.175 17.715 58.515C17.715 58.855 17.82 59.135 18.03 59.355C18.25 59.565 18.53 59.67 18.87 59.67ZM23.79 59.67C24.13 59.67 24.41 59.565 24.63 59.355C24.85 59.135 24.96 58.855 24.96 58.515C24.96 58.165 24.85 57.885 24.63 57.675C24.42 57.455 24.14 57.345 23.79 57.345C23.45 57.345 23.17 57.455 22.95 57.675C22.73 57.895 22.62 58.175 22.62 58.515C22.62 58.855 22.73 59.135 22.95 59.355C23.17 59.565 23.45 59.67 23.79 59.67ZM31.611 60.15C31.051 60.15 30.601 60 30.261 59.7C29.921 59.4 29.751 59 29.751 58.5C29.751 58.01 29.906 57.615 30.216 57.315C30.536 57.015 30.951 56.865 31.461 56.865C31.641 56.865 31.811 56.895 31.971 56.955C32.141 57.015 32.276 57.09 32.376 57.18V54.87H26.286C26.306 53.78 26.566 52.94 27.066 52.35C27.576 51.75 28.301 51.45 29.241 51.45C29.561 51.45 29.866 51.49 30.156 51.57C30.446 51.64 30.771 51.765 31.131 51.945C31.401 52.085 31.616 52.18 31.776 52.23C31.936 52.28 32.091 52.305 32.241 52.305C32.491 52.305 32.691 52.23 32.841 52.08C33.001 51.92 33.086 51.71 33.096 51.45H34.386C34.366 51.94 34.196 52.33 33.876 52.62C33.556 52.9 33.136 53.04 32.616 53.04C32.356 53.04 32.101 53.01 31.851 52.95C31.611 52.88 31.326 52.765 30.996 52.605C30.656 52.435 30.381 52.325 30.171 52.275C29.961 52.215 29.731 52.185 29.481 52.185C28.391 52.185 27.816 52.87 27.756 54.24H33.831V58.02C33.831 58.7 33.636 59.225 33.246 59.595C32.856 59.965 32.311 60.15 31.611 60.15ZM31.476 59.67C31.816 59.67 32.096 59.565 32.316 59.355C32.536 59.135 32.646 58.855 32.646 58.515C32.646 58.165 32.536 57.885 32.316 57.675C32.106 57.455 31.826 57.345 31.476 57.345C31.136 57.345 30.856 57.455 30.636 57.675C30.416 57.885 30.306 58.165 30.306 58.515C30.306 58.855 30.416 59.135 30.636 59.355C30.856 59.565 31.136 59.67 31.476 59.67ZM32.4472 46.89H33.7672V50.07H32.4472V46.89ZM36.0922 55.905H37.5322V59.37H41.8672V54.87H35.5372C35.5572 53.78 35.8172 52.94 36.3172 52.35C36.8272 51.75 37.5472 51.45 38.4772 51.45C38.8072 51.45 39.1172 51.49 39.4072 51.57C39.7072 51.64 40.0322 51.765 40.3822 51.945C40.6422 52.085 40.8522 52.18 41.0122 52.23C41.1722 52.28 41.3322 52.305 41.4922 52.305C41.7422 52.305 41.9422 52.235 42.0922 52.095C42.2422 51.955 42.3272 51.76 42.3472 51.51H43.6372C43.6172 51.99 43.4472 52.365 43.1272 52.635C42.8172 52.905 42.3972 53.04 41.8672 53.04C41.6172 53.04 41.3672 53.01 41.1172 52.95C40.8672 52.88 40.5722 52.765 40.2322 52.605C39.8922 52.445 39.6172 52.335 39.4072 52.275C39.1972 52.215 38.9722 52.185 38.7322 52.185C38.1922 52.185 37.7722 52.36 37.4722 52.71C37.1822 53.05 37.0272 53.56 37.0072 54.24H43.3072V60H36.0922V55.905ZM50.442 54.165C50.442 53.505 50.247 52.975 49.857 52.575C49.477 52.175 48.952 51.975 48.282 51.975C47.662 51.975 47.147 52.165 46.737 52.545C46.337 52.915 46.102 53.43 46.032 54.09H44.667C44.737 53.29 45.092 52.65 45.732 52.17C46.382 51.69 47.232 51.45 48.282 51.45C49.372 51.45 50.242 51.71 50.892 52.23C51.552 52.75 51.882 53.46 51.882 54.36V60H50.442V54.165ZM54.0788 59.205C54.0788 58.295 54.0338 57.39 53.9438 56.49C53.8738 55.78 53.8388 55.205 53.8388 54.765C53.8388 54.105 53.9538 53.525 54.1838 53.025C54.4138 52.525 54.7338 52.14 55.1438 51.87C55.5638 51.59 56.0488 51.45 56.5988 51.45C56.9788 51.45 57.3238 51.525 57.6338 51.675C57.9538 51.825 58.1888 52.03 58.3388 52.29C58.4988 52.02 58.7238 51.815 59.0138 51.675C59.3138 51.525 59.6638 51.45 60.0638 51.45C60.7938 51.45 61.3588 51.65 61.7588 52.05C62.1688 52.45 62.3738 53.015 62.3738 53.745V60H60.9338V53.79C60.9338 53.24 60.8238 52.82 60.6038 52.53C60.3938 52.23 60.0888 52.08 59.6888 52.08C59.4288 52.08 59.1988 52.16 58.9988 52.32C58.8088 52.48 58.6688 52.705 58.5788 52.995H58.0688C57.9888 52.705 57.8438 52.48 57.6338 52.32C57.4338 52.16 57.1938 52.08 56.9138 52.08C56.4038 52.08 56.0038 52.31 55.7138 52.77C55.4238 53.23 55.2788 53.87 55.2788 54.69C55.2788 55.06 55.3038 55.62 55.3538 56.37C55.4138 57.35 55.4488 58.325 55.4588 59.295C57.0888 58.655 58.1888 57.97 58.7588 57.24C58.5388 57.34 58.3388 57.39 58.1588 57.39C57.6488 57.39 57.2288 57.235 56.8988 56.925C56.5788 56.615 56.4188 56.22 56.4188 55.74C56.4188 55.26 56.5788 54.87 56.8988 54.57C57.2188 54.26 57.6338 54.105 58.1438 54.105C58.6538 54.105 59.0738 54.27 59.4038 54.6C59.7338 54.92 59.8988 55.34 59.8988 55.86C59.8988 56.65 59.5038 57.405 58.7138 58.125C57.9238 58.835 56.7938 59.46 55.3238 60H54.0788V59.205ZM58.1438 56.91C58.4938 56.91 58.7788 56.8 58.9988 56.58C59.2188 56.36 59.3288 56.08 59.3288 55.74C59.3288 55.4 59.2188 55.12 58.9988 54.9C58.7788 54.68 58.4938 54.57 58.1438 54.57C57.7938 54.57 57.5088 54.68 57.2888 54.9C57.0688 55.12 56.9588 55.4 56.9588 55.74C56.9588 56.08 57.0688 56.36 57.2888 56.58C57.5088 56.8 57.7938 56.91 58.1438 56.91ZM61.072 63.18C60.892 63.33 60.642 63.405 60.322 63.405C59.922 63.405 59.597 63.28 59.347 63.03C59.087 62.79 58.957 62.475 58.957 62.085C58.957 61.685 59.107 61.36 59.407 61.11C59.697 60.87 60.077 60.75 60.547 60.75C61.107 60.75 61.552 60.885 61.882 61.155C62.212 61.435 62.377 61.795 62.377 62.235V64.65H61.072V63.18ZM60.337 62.955C60.587 62.955 60.797 62.875 60.967 62.715C61.127 62.555 61.207 62.345 61.207 62.085C61.207 61.835 61.127 61.625 60.967 61.455C60.797 61.295 60.587 61.215 60.337 61.215C60.087 61.215 59.882 61.295 59.722 61.455C59.552 61.625 59.467 61.835 59.467 62.085C59.467 62.335 59.552 62.54 59.722 62.7C59.882 62.87 60.087 62.955 60.337 62.955ZM67.147 60.15C66.487 60.15 65.962 59.97 65.572 59.61C65.182 59.25 64.987 58.725 64.987 58.035V51.6H66.427V57.195C66.527 57.095 66.662 57.015 66.832 56.955C67.002 56.895 67.187 56.865 67.387 56.865C67.887 56.865 68.287 57.015 68.587 57.315C68.897 57.615 69.052 58.01 69.052 58.5C69.052 59 68.877 59.4 68.527 59.7C68.177 60 67.717 60.15 67.147 60.15ZM72.067 60.15C71.397 60.15 70.867 59.97 70.477 59.61C70.087 59.25 69.892 58.725 69.892 58.035V51.6H71.347V57.195C71.437 57.105 71.567 57.03 71.737 56.97C71.907 56.9 72.092 56.865 72.292 56.865C72.792 56.865 73.192 57.015 73.492 57.315C73.802 57.615 73.957 58.01 73.957 58.5C73.957 59 73.782 59.4 73.432 59.7C73.092 60 72.637 60.15 72.067 60.15ZM67.327 59.67C67.667 59.67 67.947 59.565 68.167 59.355C68.387 59.135 68.497 58.855 68.497 58.515C68.497 58.165 68.387 57.885 68.167 57.675C67.957 57.455 67.677 57.345 67.327 57.345C66.987 57.345 66.707 57.455 66.487 57.675C66.277 57.895 66.172 58.175 66.172 58.515C66.172 58.855 66.277 59.135 66.487 59.355C66.707 59.565 66.987 59.67 67.327 59.67ZM72.247 59.67C72.587 59.67 72.867 59.565 73.087 59.355C73.307 59.135 73.417 58.855 73.417 58.515C73.417 58.165 73.307 57.885 73.087 57.675C72.877 57.455 72.597 57.345 72.247 57.345C71.907 57.345 71.627 57.455 71.407 57.675C71.187 57.895 71.077 58.175 71.077 58.515C71.077 58.855 71.187 59.135 71.407 59.355C71.627 59.565 71.907 59.67 72.247 59.67ZM77.833 60.15C77.133 60.15 76.573 59.915 76.153 59.445C75.733 58.975 75.523 58.355 75.523 57.585C75.523 56.905 75.673 56.305 75.973 55.785C76.283 55.265 76.718 54.865 77.278 54.585C77.838 54.295 78.483 54.15 79.213 54.15C79.933 54.15 80.568 54.34 81.118 54.72C81.668 55.09 82.078 55.615 82.348 56.295V54.24C82.348 53.55 82.103 53.005 81.613 52.605C81.123 52.195 80.463 51.99 79.633 51.99C78.833 51.99 78.163 52.175 77.623 52.545C77.083 52.905 76.758 53.39 76.648 54H75.283C75.423 53.23 75.888 52.615 76.678 52.155C77.468 51.685 78.453 51.45 79.633 51.45C80.473 51.45 81.203 51.57 81.823 51.81C82.453 52.05 82.938 52.39 83.278 52.83C83.618 53.26 83.788 53.77 83.788 54.36V60H82.348V59.85C82.348 58.23 82.078 56.97 81.538 56.07C80.998 55.16 80.243 54.705 79.273 54.705C78.623 54.705 78.078 54.935 77.638 55.395C77.208 55.855 76.973 56.465 76.933 57.225C77.013 57.125 77.153 57.04 77.353 56.97C77.553 56.9 77.753 56.865 77.953 56.865C78.453 56.865 78.863 57.02 79.183 57.33C79.513 57.64 79.678 58.035 79.678 58.515C79.678 58.995 79.503 59.39 79.153 59.7C78.813 60 78.373 60.15 77.833 60.15ZM77.938 59.67C78.288 59.67 78.568 59.565 78.778 59.355C78.998 59.145 79.108 58.865 79.108 58.515C79.108 58.165 78.998 57.885 78.778 57.675C78.568 57.455 78.288 57.345 77.938 57.345C77.588 57.345 77.308 57.455 77.098 57.675C76.888 57.885 76.783 58.165 76.783 58.515C76.783 58.855 76.888 59.135 77.098 59.355C77.318 59.565 77.598 59.67 77.938 59.67ZM88.593 55.5C87.783 55.5 87.093 55.325 86.523 54.975C85.963 54.625 85.683 54.115 85.683 53.445C85.683 52.995 85.828 52.625 86.118 52.335C86.408 52.045 86.783 51.9 87.243 51.9C87.683 51.9 88.043 52.04 88.323 52.32C88.603 52.6 88.743 52.955 88.743 53.385C88.743 53.725 88.638 54.03 88.428 54.3C88.218 54.56 87.943 54.725 87.603 54.795C87.873 54.875 88.198 54.915 88.578 54.915C89.368 54.915 89.993 54.645 90.453 54.105C90.913 53.565 91.143 52.795 91.143 51.795H92.343V52.095C92.343 52.765 92.193 53.355 91.893 53.865C91.593 54.375 91.158 54.775 90.588 55.065C90.028 55.355 89.363 55.5 88.593 55.5ZM87.213 54.33C87.503 54.33 87.743 54.24 87.933 54.06C88.123 53.87 88.218 53.635 88.218 53.355C88.218 53.075 88.123 52.845 87.933 52.665C87.743 52.475 87.503 52.38 87.213 52.38C86.923 52.38 86.683 52.475 86.493 52.665C86.313 52.845 86.223 53.075 86.223 53.355C86.223 53.635 86.313 53.87 86.493 54.06C86.683 54.24 86.923 54.33 87.213 54.33ZM88.593 59.82C87.783 59.82 87.093 59.645 86.523 59.295C85.963 58.945 85.683 58.435 85.683 57.765C85.683 57.315 85.828 56.945 86.118 56.655C86.408 56.365 86.783 56.22 87.243 56.22C87.683 56.22 88.043 56.36 88.323 56.64C88.603 56.92 88.743 57.275 88.743 57.705C88.743 58.045 88.638 58.35 88.428 58.62C88.218 58.88 87.943 59.045 87.603 59.115C87.873 59.195 88.198 59.235 88.578 59.235C89.348 59.235 89.968 58.965 90.438 58.425C90.908 57.875 91.143 57.105 91.143 56.115H92.343V56.415C92.343 57.075 92.188 57.665 91.878 58.185C91.568 58.695 91.128 59.095 90.558 59.385C89.998 59.675 89.343 59.82 88.593 59.82ZM87.213 58.65C87.503 58.65 87.743 58.56 87.933 58.38C88.123 58.19 88.218 57.955 88.218 57.675C88.218 57.395 88.123 57.165 87.933 56.985C87.743 56.795 87.503 56.7 87.213 56.7C86.923 56.7 86.683 56.795 86.493 56.985C86.313 57.165 86.223 57.395 86.223 57.675C86.223 57.955 86.313 58.19 86.493 58.38C86.683 58.56 86.923 58.65 87.213 58.65ZM98.3098 51.45C99.1598 51.45 99.8998 51.57 100.53 51.81C101.17 52.05 101.66 52.39 102 52.83C102.35 53.27 102.525 53.78 102.525 54.36V60H101.085V54.225C101.085 53.545 100.83 53 100.32 52.59C99.8098 52.18 99.1348 51.975 98.2948 51.975C97.3948 51.975 96.6848 52.225 96.1648 52.725C95.6448 53.225 95.3848 53.905 95.3848 54.765C95.3848 54.985 95.4098 55.435 95.4598 56.115C95.5098 56.725 95.5448 57.31 95.5648 57.87L96.5098 55.23C96.6698 54.78 96.9048 54.435 97.2148 54.195C97.5248 53.955 97.8948 53.835 98.3248 53.835C98.8348 53.835 99.2448 53.99 99.5548 54.3C99.8748 54.6 100.035 54.995 100.035 55.485C100.035 55.975 99.8798 56.37 99.5698 56.67C99.2598 56.97 98.8548 57.12 98.3548 57.12C98.0448 57.12 97.7548 57.05 97.4848 56.91C97.2148 56.76 97.0148 56.57 96.8848 56.34L95.5798 60H94.1848V59.205C94.1848 58.295 94.1398 57.385 94.0498 56.475C93.9798 55.775 93.9448 55.24 93.9448 54.87C93.9448 54.18 94.1198 53.58 94.4698 53.07C94.8298 52.55 95.3398 52.15 95.9998 51.87C96.6598 51.59 97.4298 51.45 98.3098 51.45ZM98.3398 54.315C97.9998 54.315 97.7198 54.425 97.4998 54.645C97.2798 54.865 97.1698 55.145 97.1698 55.485C97.1698 55.825 97.2798 56.105 97.4998 56.325C97.7198 56.535 97.9998 56.64 98.3398 56.64C98.6898 56.64 98.9748 56.535 99.1948 56.325C99.4148 56.105 99.5248 55.825 99.5248 55.485C99.5248 55.145 99.4148 54.865 99.1948 54.645C98.9748 54.425 98.6898 54.315 98.3398 54.315ZM101.002 46.89H102.322V50.07H101.002V46.89ZM109.548 54.165C109.548 53.505 109.353 52.975 108.963 52.575C108.583 52.175 108.058 51.975 107.388 51.975C106.768 51.975 106.253 52.165 105.843 52.545C105.443 52.915 105.208 53.43 105.138 54.09H103.773C103.843 53.29 104.198 52.65 104.838 52.17C105.488 51.69 106.338 51.45 107.388 51.45C108.478 51.45 109.348 51.71 109.998 52.23C110.658 52.75 110.988 53.46 110.988 54.36V60H109.548V54.165ZM117.25 51.45C118.1 51.45 118.84 51.57 119.47 51.81C120.11 52.05 120.6 52.39 120.94 52.83C121.29 53.27 121.465 53.78 121.465 54.36V60H120.025V54.225C120.025 53.545 119.77 53 119.26 52.59C118.75 52.18 118.075 51.975 117.235 51.975C116.335 51.975 115.625 52.225 115.105 52.725C114.585 53.225 114.325 53.905 114.325 54.765C114.325 54.985 114.35 55.435 114.4 56.115C114.45 56.725 114.485 57.31 114.505 57.87L115.45 55.23C115.61 54.78 115.845 54.435 116.155 54.195C116.465 53.955 116.835 53.835 117.265 53.835C117.775 53.835 118.185 53.99 118.495 54.3C118.815 54.6 118.975 54.995 118.975 55.485C118.975 55.975 118.82 56.37 118.51 56.67C118.2 56.97 117.795 57.12 117.295 57.12C116.985 57.12 116.695 57.05 116.425 56.91C116.155 56.76 115.955 56.57 115.825 56.34L114.52 60H113.125V59.205C113.125 58.295 113.08 57.385 112.99 56.475C112.92 55.775 112.885 55.24 112.885 54.87C112.885 54.18 113.06 53.58 113.41 53.07C113.77 52.55 114.28 52.15 114.94 51.87C115.6 51.59 116.37 51.45 117.25 51.45ZM117.28 54.315C116.94 54.315 116.66 54.425 116.44 54.645C116.22 54.865 116.11 55.145 116.11 55.485C116.11 55.825 116.22 56.105 116.44 56.325C116.66 56.535 116.94 56.64 117.28 56.64C117.63 56.64 117.915 56.535 118.135 56.325C118.355 56.105 118.465 55.825 118.465 55.485C118.465 55.145 118.355 54.865 118.135 54.645C117.915 54.425 117.63 54.315 117.28 54.315ZM127.949 60.15C127.389 60.15 126.939 60 126.599 59.7C126.259 59.39 126.089 58.99 126.089 58.5C126.089 58.01 126.249 57.615 126.569 57.315C126.889 57.015 127.299 56.865 127.799 56.865C127.979 56.865 128.154 56.9 128.324 56.97C128.494 57.03 128.629 57.105 128.729 57.195V54.24C128.729 53.54 128.519 52.99 128.099 52.59C127.689 52.19 127.124 51.99 126.404 51.99C125.684 51.99 125.104 52.2 124.664 52.62C124.234 53.04 124.004 53.615 123.974 54.345H122.609C122.659 53.435 123.024 52.725 123.704 52.215C124.394 51.705 125.319 51.45 126.479 51.45C127.659 51.45 128.569 51.705 129.209 52.215C129.849 52.715 130.169 53.43 130.169 54.36V58.02C130.169 58.7 129.974 59.225 129.584 59.595C129.194 59.965 128.649 60.15 127.949 60.15ZM127.814 59.67C128.154 59.67 128.434 59.565 128.654 59.355C128.874 59.135 128.984 58.855 128.984 58.515C128.984 58.165 128.874 57.885 128.654 57.675C128.444 57.455 128.164 57.345 127.814 57.345C127.474 57.345 127.194 57.455 126.974 57.675C126.764 57.895 126.659 58.175 126.659 58.515C126.659 58.855 126.764 59.135 126.974 59.355C127.194 59.565 127.474 59.67 127.814 59.67ZM137.19 54.165C137.19 53.505 136.995 52.975 136.605 52.575C136.225 52.175 135.7 51.975 135.03 51.975C134.41 51.975 133.895 52.165 133.485 52.545C133.085 52.915 132.85 53.43 132.78 54.09H131.415C131.485 53.29 131.84 52.65 132.48 52.17C133.13 51.69 133.98 51.45 135.03 51.45C136.12 51.45 136.99 51.71 137.64 52.23C138.3 52.75 138.63 53.46 138.63 54.36V60H137.19V54.165ZM149.752 51.6V60H148.402L144.532 57.72V58.41C144.532 58.95 144.352 59.375 143.992 59.685C143.632 59.995 143.137 60.15 142.507 60.15C141.917 60.15 141.447 59.99 141.097 59.67C140.747 59.34 140.572 58.895 140.572 58.335C140.572 57.725 140.767 57.245 141.157 56.895C141.547 56.535 142.077 56.355 142.747 56.355C142.897 56.355 143.012 56.36 143.092 56.37V54.405C142.992 54.495 142.852 54.575 142.672 54.645C142.502 54.705 142.327 54.735 142.147 54.735C141.647 54.735 141.237 54.585 140.917 54.285C140.607 53.985 140.452 53.59 140.452 53.1C140.452 52.61 140.627 52.215 140.977 51.915C141.327 51.605 141.787 51.45 142.357 51.45C143.037 51.45 143.567 51.635 143.947 52.005C144.337 52.375 144.532 52.895 144.532 53.565V56.805C144.642 56.855 144.707 56.89 144.727 56.91L148.312 59.01V51.6H149.752ZM142.177 54.255C142.527 54.255 142.807 54.145 143.017 53.925C143.237 53.705 143.347 53.425 143.347 53.085C143.347 52.745 143.237 52.47 143.017 52.26C142.797 52.04 142.517 51.93 142.177 51.93C141.837 51.93 141.557 52.04 141.337 52.26C141.117 52.47 141.007 52.745 141.007 53.085C141.007 53.425 141.117 53.705 141.337 53.925C141.557 54.145 141.837 54.255 142.177 54.255ZM143.092 57.075C142.912 56.995 142.717 56.955 142.507 56.955C142.127 56.955 141.817 57.085 141.577 57.345C141.347 57.605 141.232 57.94 141.232 58.35C141.232 58.74 141.322 59.05 141.502 59.28C141.682 59.5 141.932 59.61 142.252 59.61C142.812 59.61 143.092 59.295 143.092 58.665V57.075ZM154.525 60.15C153.865 60.15 153.34 59.97 152.95 59.61C152.56 59.25 152.365 58.725 152.365 58.035V51.6H153.805V57.195C153.905 57.095 154.04 57.015 154.21 56.955C154.38 56.895 154.565 56.865 154.765 56.865C155.265 56.865 155.665 57.015 155.965 57.315C156.275 57.615 156.43 58.01 156.43 58.5C156.43 59 156.255 59.4 155.905 59.7C155.555 60 155.095 60.15 154.525 60.15ZM154.705 59.67C155.045 59.67 155.325 59.565 155.545 59.355C155.765 59.135 155.875 58.855 155.875 58.515C155.875 58.165 155.765 57.885 155.545 57.675C155.335 57.455 155.055 57.345 154.705 57.345C154.365 57.345 154.085 57.455 153.865 57.675C153.655 57.895 153.55 58.175 153.55 58.515C153.55 58.855 153.655 59.135 153.865 59.355C154.085 59.565 154.365 59.67 154.705 59.67ZM159.689 54.405C159.599 54.495 159.464 54.575 159.284 54.645C159.114 54.705 158.934 54.735 158.744 54.735C158.244 54.735 157.839 54.585 157.529 54.285C157.219 53.985 157.064 53.59 157.064 53.1C157.064 52.61 157.239 52.215 157.589 51.915C157.939 51.605 158.399 51.45 158.969 51.45C159.649 51.45 160.179 51.635 160.559 52.005C160.939 52.375 161.129 52.895 161.129 53.565V59.43H165.449V48.75H166.889V60H159.689V54.405ZM158.789 54.255C159.139 54.255 159.419 54.145 159.629 53.925C159.849 53.705 159.959 53.425 159.959 53.085C159.959 52.745 159.849 52.47 159.629 52.26C159.409 52.04 159.129 51.93 158.789 51.93C158.449 51.93 158.169 52.04 157.949 52.26C157.729 52.47 157.619 52.745 157.619 53.085C157.619 53.425 157.729 53.705 157.949 53.925C158.169 54.145 158.449 54.255 158.789 54.255ZM163.654 47.505C164.004 47.505 164.289 47.615 164.509 47.835C164.729 48.055 164.839 48.34 164.839 48.69C164.839 49.16 164.679 49.545 164.359 49.845C164.029 50.135 163.584 50.28 163.024 50.28C162.254 50.28 161.714 50.02 161.404 49.5C161.264 49.75 161.074 49.945 160.834 50.085C160.584 50.215 160.299 50.28 159.979 50.28C159.439 50.28 159.024 50.13 158.734 49.83C158.434 49.52 158.284 49.13 158.284 48.66C158.284 48.11 158.434 47.7 158.734 47.43C159.024 47.16 159.394 46.99 159.844 46.92C160.284 46.84 160.834 46.8 161.494 46.8C162.264 46.8 162.844 46.735 163.234 46.605C163.624 46.465 163.819 46.17 163.819 45.72H165.019C165.009 46.16 164.869 46.49 164.599 46.71C164.319 46.93 163.984 47.075 163.594 47.145C163.194 47.205 162.689 47.24 162.079 47.25C161.489 47.26 161.019 47.295 160.669 47.355C160.309 47.415 160.019 47.545 159.799 47.745C159.569 47.935 159.454 48.23 159.454 48.63C159.454 48.94 159.534 49.19 159.694 49.38C159.854 49.56 160.069 49.65 160.339 49.65C160.539 49.65 160.714 49.59 160.864 49.47C161.004 49.34 161.089 49.17 161.119 48.96H161.719C161.769 49.21 161.904 49.415 162.124 49.575C162.344 49.725 162.629 49.8 162.979 49.8C163.419 49.8 163.754 49.7 163.984 49.5C163.874 49.53 163.759 49.545 163.639 49.545C163.319 49.545 163.064 49.45 162.874 49.26C162.674 49.07 162.574 48.82 162.574 48.51C162.574 48.22 162.674 47.98 162.874 47.79C163.074 47.6 163.334 47.505 163.654 47.505ZM162.979 48.51C162.979 48.7 163.039 48.86 163.159 48.99C163.279 49.11 163.439 49.17 163.639 49.17C163.829 49.17 163.984 49.11 164.104 48.99C164.224 48.86 164.284 48.7 164.284 48.51C164.284 48.32 164.224 48.165 164.104 48.045C163.984 47.925 163.829 47.865 163.639 47.865C163.449 47.865 163.294 47.925 163.174 48.045C163.044 48.165 162.979 48.32 162.979 48.51ZM177.184 56.925C177.524 57.035 177.794 57.23 177.994 57.51C178.204 57.79 178.309 58.12 178.309 58.5C178.309 58.99 178.144 59.39 177.814 59.7C177.494 60 177.079 60.15 176.569 60.15C176.069 60.15 175.654 60 175.324 59.7C175.004 59.39 174.844 58.99 174.844 58.5C174.844 58.22 174.894 57.98 174.994 57.78C174.424 58.08 173.899 58.42 173.419 58.8C172.949 59.18 172.554 59.58 172.234 60H170.749V54.42C170.659 54.52 170.529 54.6 170.359 54.66C170.189 54.71 170.004 54.735 169.804 54.735C169.314 54.735 168.909 54.585 168.589 54.285C168.279 53.975 168.124 53.58 168.124 53.1C168.124 52.61 168.294 52.215 168.634 51.915C168.984 51.605 169.444 51.45 170.014 51.45C170.694 51.45 171.224 51.64 171.604 52.02C171.994 52.39 172.189 52.905 172.189 53.565V58.86C172.659 58.37 173.304 57.9 174.124 57.45C174.944 56.99 175.744 56.66 176.524 56.46V51.6H177.964V56.775C177.774 56.795 177.514 56.845 177.184 56.925ZM169.849 54.255C170.199 54.255 170.479 54.145 170.689 53.925C170.909 53.705 171.019 53.425 171.019 53.085C171.019 52.745 170.909 52.47 170.689 52.26C170.469 52.04 170.189 51.93 169.849 51.93C169.509 51.93 169.229 52.04 169.009 52.26C168.789 52.47 168.679 52.745 168.679 53.085C168.679 53.425 168.789 53.705 169.009 53.925C169.229 54.145 169.509 54.255 169.849 54.255ZM176.569 59.655C176.919 59.655 177.204 59.545 177.424 59.325C177.644 59.105 177.754 58.825 177.754 58.485C177.754 58.145 177.644 57.87 177.424 57.66C177.204 57.44 176.919 57.33 176.569 57.33C176.229 57.33 175.949 57.44 175.729 57.66C175.509 57.87 175.399 58.145 175.399 58.485C175.399 58.825 175.509 59.105 175.729 59.325C175.949 59.545 176.229 59.655 176.569 59.655ZM180.143 56.67C180.143 56.2 180.248 55.805 180.458 55.485C180.678 55.165 180.993 54.935 181.403 54.795H179.678C179.708 54.115 179.903 53.525 180.263 53.025C180.623 52.515 181.118 52.125 181.748 51.855C182.378 51.585 183.103 51.45 183.923 51.45C184.713 51.45 185.408 51.57 186.008 51.81C186.608 52.05 187.068 52.395 187.388 52.845C187.718 53.285 187.883 53.795 187.883 54.375V60H186.443V54.225C186.443 53.525 186.213 52.975 185.753 52.575C185.303 52.175 184.688 51.975 183.908 51.975C183.088 51.975 182.423 52.18 181.913 52.59C181.403 52.99 181.118 53.545 181.058 54.255H183.023V54.735C182.523 54.835 182.158 55.015 181.928 55.275C181.698 55.535 181.583 55.905 181.583 56.385V60H180.143V56.67ZM194.575 60.15C194.015 60.15 193.565 60 193.225 59.7C192.885 59.4 192.715 59 192.715 58.5C192.715 58.01 192.87 57.615 193.18 57.315C193.5 57.015 193.915 56.865 194.425 56.865C194.605 56.865 194.775 56.895 194.935 56.955C195.105 57.015 195.24 57.09 195.34 57.18V54.87H189.25C189.27 53.78 189.53 52.94 190.03 52.35C190.54 51.75 191.265 51.45 192.205 51.45C192.525 51.45 192.83 51.49 193.12 51.57C193.41 51.64 193.735 51.765 194.095 51.945C194.365 52.085 194.58 52.18 194.74 52.23C194.9 52.28 195.055 52.305 195.205 52.305C195.455 52.305 195.655 52.23 195.805 52.08C195.965 51.92 196.05 51.71 196.06 51.45H197.35C197.33 51.94 197.16 52.33 196.84 52.62C196.52 52.9 196.1 53.04 195.58 53.04C195.32 53.04 195.065 53.01 194.815 52.95C194.575 52.88 194.29 52.765 193.96 52.605C193.62 52.435 193.345 52.325 193.135 52.275C192.925 52.215 192.695 52.185 192.445 52.185C191.355 52.185 190.78 52.87 190.72 54.24H196.795V58.02C196.795 58.7 196.6 59.225 196.21 59.595C195.82 59.965 195.275 60.15 194.575 60.15ZM194.44 59.67C194.78 59.67 195.06 59.565 195.28 59.355C195.5 59.135 195.61 58.855 195.61 58.515C195.61 58.165 195.5 57.885 195.28 57.675C195.07 57.455 194.79 57.345 194.44 57.345C194.1 57.345 193.82 57.455 193.6 57.675C193.38 57.885 193.27 58.165 193.27 58.515C193.27 58.855 193.38 59.135 193.6 59.355C193.82 59.565 194.1 59.67 194.44 59.67ZM198.981 59.205C198.981 58.175 198.936 57.27 198.846 56.49C198.776 55.89 198.741 55.35 198.741 54.87C198.741 54.18 198.916 53.58 199.266 53.07C199.626 52.55 200.131 52.15 200.781 51.87C201.431 51.59 202.196 51.45 203.076 51.45C203.916 51.45 204.651 51.57 205.281 51.81C205.921 52.05 206.411 52.39 206.751 52.83C207.101 53.27 207.276 53.78 207.276 54.36V60H205.836V54.225C205.836 53.545 205.581 53 205.071 52.59C204.571 52.18 203.901 51.975 203.061 51.975C202.151 51.975 201.441 52.22 200.931 52.71C200.431 53.2 200.181 53.885 200.181 54.765C200.181 55.105 200.206 55.64 200.256 56.37C200.326 57.34 200.361 58.31 200.361 59.28C201.111 58.97 201.776 58.6 202.356 58.17C202.936 57.74 203.376 57.29 203.676 56.82C203.476 56.93 203.261 56.985 203.031 56.985C202.521 56.985 202.101 56.835 201.771 56.535C201.451 56.225 201.291 55.83 201.291 55.35C201.291 54.86 201.451 54.465 201.771 54.165C202.101 53.855 202.516 53.7 203.016 53.7C203.526 53.7 203.946 53.87 204.276 54.21C204.606 54.54 204.771 54.965 204.771 55.485C204.771 56.035 204.576 56.6 204.186 57.18C203.796 57.75 203.256 58.285 202.566 58.785C201.876 59.275 201.096 59.68 200.226 60H198.981V59.205ZM203.016 56.52C203.366 56.52 203.651 56.41 203.871 56.19C204.091 55.97 204.201 55.69 204.201 55.35C204.201 55.01 204.091 54.73 203.871 54.51C203.651 54.29 203.366 54.18 203.016 54.18C202.666 54.18 202.381 54.29 202.161 54.51C201.941 54.73 201.831 55.01 201.831 55.35C201.831 55.69 201.941 55.97 202.161 56.19C202.381 56.41 202.666 56.52 203.016 56.52ZM209.139 55.845H214.494V56.475H209.139V55.845ZM216.383 59.205C216.383 58.175 216.338 57.27 216.248 56.49C216.178 55.89 216.143 55.35 216.143 54.87C216.143 54.18 216.318 53.58 216.668 53.07C217.028 52.55 217.533 52.15 218.183 51.87C218.833 51.59 219.598 51.45 220.478 51.45C221.318 51.45 222.053 51.57 222.683 51.81C223.323 52.05 223.813 52.39 224.153 52.83C224.503 53.27 224.678 53.78 224.678 54.36V60H223.238V54.225C223.238 53.545 222.983 53 222.473 52.59C221.973 52.18 221.303 51.975 220.463 51.975C219.553 51.975 218.843 52.22 218.333 52.71C217.833 53.2 217.583 53.885 217.583 54.765C217.583 55.105 217.608 55.64 217.658 56.37C217.728 57.34 217.763 58.31 217.763 59.28C218.513 58.97 219.178 58.6 219.758 58.17C220.338 57.74 220.778 57.29 221.078 56.82C220.878 56.93 220.663 56.985 220.433 56.985C219.923 56.985 219.503 56.835 219.173 56.535C218.853 56.225 218.693 55.83 218.693 55.35C218.693 54.86 218.853 54.465 219.173 54.165C219.503 53.855 219.918 53.7 220.418 53.7C220.928 53.7 221.348 53.87 221.678 54.21C222.008 54.54 222.173 54.965 222.173 55.485C222.173 56.035 221.978 56.6 221.588 57.18C221.198 57.75 220.658 58.285 219.968 58.785C219.278 59.275 218.498 59.68 217.628 60H216.383V59.205ZM220.418 56.52C220.768 56.52 221.053 56.41 221.273 56.19C221.493 55.97 221.603 55.69 221.603 55.35C221.603 55.01 221.493 54.73 221.273 54.51C221.053 54.29 220.768 54.18 220.418 54.18C220.068 54.18 219.783 54.29 219.563 54.51C219.343 54.73 219.233 55.01 219.233 55.35C219.233 55.69 219.343 55.97 219.563 56.19C219.783 56.41 220.068 56.52 220.418 56.52ZM223.155 46.89H224.475V50.07H223.155V46.89ZM231.702 54.165C231.702 53.505 231.507 52.975 231.117 52.575C230.737 52.175 230.212 51.975 229.542 51.975C228.922 51.975 228.407 52.165 227.997 52.545C227.597 52.915 227.362 53.43 227.292 54.09H225.927C225.997 53.29 226.352 52.65 226.992 52.17C227.642 51.69 228.492 51.45 229.542 51.45C230.632 51.45 231.502 51.71 232.152 52.23C232.812 52.75 233.142 53.46 233.142 54.36V60H231.702V54.165ZM237.349 60C237.189 59 236.839 58.035 236.299 57.105C235.759 56.175 235.119 55.43 234.379 54.87L235.489 54.075C236.179 54.525 236.789 55.22 237.319 56.16C237.849 57.09 238.234 58.16 238.474 59.37H240.709V54.42C240.609 54.52 240.474 54.6 240.304 54.66C240.134 54.71 239.949 54.735 239.749 54.735C239.249 54.735 238.844 54.585 238.534 54.285C238.224 53.985 238.069 53.59 238.069 53.1C238.069 52.61 238.244 52.215 238.594 51.915C238.944 51.605 239.409 51.45 239.989 51.45C240.669 51.45 241.199 51.635 241.579 52.005C241.959 52.375 242.149 52.895 242.149 53.565V60H237.349ZM239.794 54.255C240.144 54.255 240.424 54.145 240.634 53.925C240.854 53.705 240.964 53.425 240.964 53.085C240.964 52.745 240.854 52.47 240.634 52.26C240.414 52.04 240.134 51.93 239.794 51.93C239.454 51.93 239.174 52.04 238.954 52.26C238.744 52.47 238.639 52.745 238.639 53.085C238.639 53.425 238.744 53.705 238.954 53.925C239.174 54.145 239.454 54.255 239.794 54.255ZM25.035 71.6V80H23.685L19.815 77.72V78.41C19.815 78.95 19.635 79.375 19.275 79.685C18.915 79.995 18.42 80.15 17.79 80.15C17.2 80.15 16.73 79.99 16.38 79.67C16.03 79.34 15.855 78.895 15.855 78.335C15.855 77.725 16.05 77.245 16.44 76.895C16.83 76.535 17.36 76.355 18.03 76.355C18.18 76.355 18.295 76.36 18.375 76.37V74.405C18.275 74.495 18.135 74.575 17.955 74.645C17.785 74.705 17.61 74.735 17.43 74.735C16.93 74.735 16.52 74.585 16.2 74.285C15.89 73.985 15.735 73.59 15.735 73.1C15.735 72.61 15.91 72.215 16.26 71.915C16.61 71.605 17.07 71.45 17.64 71.45C18.32 71.45 18.85 71.635 19.23 72.005C19.62 72.375 19.815 72.895 19.815 73.565V76.805C19.925 76.855 19.99 76.89 20.01 76.91L23.595 79.01V71.6H25.035ZM17.46 74.255C17.81 74.255 18.09 74.145 18.3 73.925C18.52 73.705 18.63 73.425 18.63 73.085C18.63 72.745 18.52 72.47 18.3 72.26C18.08 72.04 17.8 71.93 17.46 71.93C17.12 71.93 16.84 72.04 16.62 72.26C16.4 72.47 16.29 72.745 16.29 73.085C16.29 73.425 16.4 73.705 16.62 73.925C16.84 74.145 17.12 74.255 17.46 74.255ZM18.375 77.075C18.195 76.995 18 76.955 17.79 76.955C17.41 76.955 17.1 77.085 16.86 77.345C16.63 77.605 16.515 77.94 16.515 78.35C16.515 78.74 16.605 79.05 16.785 79.28C16.965 79.5 17.215 79.61 17.535 79.61C18.095 79.61 18.375 79.295 18.375 78.665V77.075ZM25.0382 66.785V70.07H17.2682C17.3082 69.54 17.4982 69.07 17.8382 68.66C18.1682 68.24 18.6182 67.915 19.1882 67.685C19.7582 67.455 20.3932 67.34 21.0932 67.34C22.0632 67.34 22.9182 67.565 23.6582 68.015V66.785H25.0382ZM23.7932 69.575C23.7232 69.085 23.4382 68.685 22.9382 68.375C22.4382 68.065 21.8232 67.91 21.0932 67.91C20.3532 67.91 19.7382 68.065 19.2482 68.375C18.7582 68.675 18.4782 69.075 18.4082 69.575H23.7932ZM27.2732 80C27.2732 79.11 27.2232 78.065 27.1232 76.865C27.0332 75.675 26.9882 74.795 26.9882 74.225C26.9882 73.325 27.1732 72.64 27.5432 72.17C27.9132 71.69 28.5182 71.45 29.3582 71.45C29.8882 71.45 30.3182 71.605 30.6482 71.915C30.9882 72.215 31.1582 72.605 31.1582 73.085C31.1582 73.575 30.9932 73.975 30.6632 74.285C30.3332 74.585 29.9082 74.735 29.3882 74.735C29.2282 74.735 29.0582 74.715 28.8782 74.675C28.7082 74.625 28.5582 74.55 28.4282 74.45V74.87C28.4382 75.35 28.4682 75.9 28.5182 76.52C28.5682 77.08 28.5982 77.74 28.6082 78.5L30.9482 75.425H31.7282L33.9632 78.35V71.6H35.4032V80H33.9632L31.3382 76.565L28.7282 80H27.2732ZM29.4482 74.255C29.7882 74.255 30.0632 74.145 30.2732 73.925C30.4932 73.705 30.6032 73.425 30.6032 73.085C30.6032 72.745 30.4932 72.47 30.2732 72.26C30.0632 72.04 29.7882 71.93 29.4482 71.93C29.1082 71.93 28.8282 72.04 28.6082 72.26C28.3882 72.47 28.2782 72.745 28.2782 73.085C28.2782 73.425 28.3882 73.705 28.6082 73.925C28.8282 74.145 29.1082 74.255 29.4482 74.255ZM39.8643 80.15C39.1643 80.15 38.6043 79.915 38.1843 79.445C37.7643 78.975 37.5543 78.355 37.5543 77.585C37.5543 76.905 37.7043 76.305 38.0043 75.785C38.3143 75.265 38.7493 74.865 39.3093 74.585C39.8693 74.295 40.5143 74.15 41.2443 74.15C41.9643 74.15 42.5993 74.34 43.1493 74.72C43.6993 75.09 44.1093 75.615 44.3793 76.295V74.24C44.3793 73.55 44.1343 73.005 43.6443 72.605C43.1543 72.195 42.4943 71.99 41.6643 71.99C40.8643 71.99 40.1943 72.175 39.6543 72.545C39.1143 72.905 38.7893 73.39 38.6793 74H37.3143C37.4543 73.23 37.9193 72.615 38.7093 72.155C39.4993 71.685 40.4843 71.45 41.6643 71.45C42.5043 71.45 43.2343 71.57 43.8543 71.81C44.4843 72.05 44.9693 72.39 45.3093 72.83C45.6493 73.26 45.8193 73.77 45.8193 74.36V80H44.3793V79.85C44.3793 78.23 44.1093 76.97 43.5693 76.07C43.0293 75.16 42.2743 74.705 41.3043 74.705C40.6543 74.705 40.1093 74.935 39.6693 75.395C39.2393 75.855 39.0043 76.465 38.9643 77.225C39.0443 77.125 39.1843 77.04 39.3843 76.97C39.5843 76.9 39.7843 76.865 39.9843 76.865C40.4843 76.865 40.8943 77.02 41.2143 77.33C41.5443 77.64 41.7093 78.035 41.7093 78.515C41.7093 78.995 41.5343 79.39 41.1843 79.7C40.8443 80 40.4043 80.15 39.8643 80.15ZM39.9693 79.67C40.3193 79.67 40.5993 79.565 40.8093 79.355C41.0293 79.145 41.1393 78.865 41.1393 78.515C41.1393 78.165 41.0293 77.885 40.8093 77.675C40.5993 77.455 40.3193 77.345 39.9693 77.345C39.6193 77.345 39.3393 77.455 39.1293 77.675C38.9193 77.885 38.8143 78.165 38.8143 78.515C38.8143 78.855 38.9193 79.135 39.1293 79.355C39.3493 79.565 39.6293 79.67 39.9693 79.67ZM48.0143 79.205C48.0143 78.295 47.9693 77.39 47.8793 76.49C47.8093 75.78 47.7743 75.205 47.7743 74.765C47.7743 74.105 47.8893 73.525 48.1193 73.025C48.3493 72.525 48.6693 72.14 49.0793 71.87C49.4993 71.59 49.9843 71.45 50.5343 71.45C50.9143 71.45 51.2593 71.525 51.5693 71.675C51.8893 71.825 52.1243 72.03 52.2743 72.29C52.4343 72.02 52.6593 71.815 52.9493 71.675C53.2493 71.525 53.5993 71.45 53.9993 71.45C54.7293 71.45 55.2943 71.65 55.6943 72.05C56.1043 72.45 56.3093 73.015 56.3093 73.745V80H54.8693V73.79C54.8693 73.24 54.7593 72.82 54.5393 72.53C54.3293 72.23 54.0243 72.08 53.6243 72.08C53.3643 72.08 53.1343 72.16 52.9343 72.32C52.7443 72.48 52.6043 72.705 52.5143 72.995H52.0043C51.9243 72.705 51.7793 72.48 51.5693 72.32C51.3693 72.16 51.1293 72.08 50.8493 72.08C50.3393 72.08 49.9393 72.31 49.6493 72.77C49.3593 73.23 49.2143 73.87 49.2143 74.69C49.2143 75.06 49.2393 75.62 49.2893 76.37C49.3493 77.35 49.3843 78.325 49.3943 79.295C51.0243 78.655 52.1243 77.97 52.6943 77.24C52.4743 77.34 52.2743 77.39 52.0943 77.39C51.5843 77.39 51.1643 77.235 50.8343 76.925C50.5143 76.615 50.3543 76.22 50.3543 75.74C50.3543 75.26 50.5143 74.87 50.8343 74.57C51.1543 74.26 51.5693 74.105 52.0793 74.105C52.5893 74.105 53.0093 74.27 53.3393 74.6C53.6693 74.92 53.8343 75.34 53.8343 75.86C53.8343 76.65 53.4393 77.405 52.6493 78.125C51.8593 78.835 50.7293 79.46 49.2593 80H48.0143V79.205ZM52.0793 76.91C52.4293 76.91 52.7143 76.8 52.9343 76.58C53.1543 76.36 53.2643 76.08 53.2643 75.74C53.2643 75.4 53.1543 75.12 52.9343 74.9C52.7143 74.68 52.4293 74.57 52.0793 74.57C51.7293 74.57 51.4443 74.68 51.2243 74.9C51.0043 75.12 50.8943 75.4 50.8943 75.74C50.8943 76.08 51.0043 76.36 51.2243 76.58C51.4443 76.8 51.7293 76.91 52.0793 76.91ZM54.7861 66.89H56.1061V70.07H54.7861V66.89ZM58.5026 76.775C58.5026 76.105 58.6926 75.585 59.0726 75.215C59.4526 74.845 59.9826 74.66 60.6626 74.66C61.2326 74.66 61.6926 74.815 62.0426 75.125C62.4026 75.435 62.5826 75.835 62.5826 76.325C62.5826 76.805 62.4276 77.195 62.1176 77.495C61.8076 77.795 61.4026 77.945 60.9026 77.945C60.7026 77.945 60.5126 77.915 60.3326 77.855C60.1526 77.785 60.0176 77.7 59.9276 77.6V79.385H65.0876V74.555C65.0876 73.765 64.8176 73.14 64.2776 72.68C63.7476 72.21 63.0376 71.975 62.1476 71.975C61.2876 71.975 60.5876 72.19 60.0476 72.62C59.5076 73.05 59.2126 73.625 59.1626 74.345H57.8126C57.8526 73.765 58.0526 73.255 58.4126 72.815C58.7826 72.375 59.2826 72.04 59.9126 71.81C60.5526 71.57 61.2876 71.45 62.1176 71.45C63.0076 71.45 63.7826 71.585 64.4426 71.855C65.1126 72.125 65.6276 72.51 65.9876 73.01C66.3476 73.5 66.5276 74.075 66.5276 74.735V80H58.5026V76.775ZM60.8426 77.465C61.1826 77.465 61.4626 77.36 61.6826 77.15C61.9026 76.93 62.0126 76.65 62.0126 76.31C62.0126 75.96 61.9026 75.68 61.6826 75.47C61.4726 75.25 61.1926 75.14 60.8426 75.14C60.5026 75.14 60.2226 75.25 60.0026 75.47C59.7926 75.69 59.6876 75.97 59.6876 76.31C59.6876 76.65 59.7926 76.93 60.0026 77.15C60.2226 77.36 60.5026 77.465 60.8426 77.465ZM73.2125 80.15C72.6525 80.15 72.2025 80 71.8625 79.7C71.5225 79.4 71.3525 79 71.3525 78.5C71.3525 78.01 71.5075 77.615 71.8175 77.315C72.1375 77.015 72.5525 76.865 73.0625 76.865C73.2425 76.865 73.4125 76.895 73.5725 76.955C73.7425 77.015 73.8775 77.09 73.9775 77.18V74.87H67.8875C67.9075 73.78 68.1675 72.94 68.6675 72.35C69.1775 71.75 69.9025 71.45 70.8425 71.45C71.1625 71.45 71.4675 71.49 71.7575 71.57C72.0475 71.64 72.3725 71.765 72.7325 71.945C73.0025 72.085 73.2175 72.18 73.3775 72.23C73.5375 72.28 73.6925 72.305 73.8425 72.305C74.0925 72.305 74.2925 72.23 74.4425 72.08C74.6025 71.92 74.6875 71.71 74.6975 71.45H75.9875C75.9675 71.94 75.7975 72.33 75.4775 72.62C75.1575 72.9 74.7375 73.04 74.2175 73.04C73.9575 73.04 73.7025 73.01 73.4525 72.95C73.2125 72.88 72.9275 72.765 72.5975 72.605C72.2575 72.435 71.9825 72.325 71.7725 72.275C71.5625 72.215 71.3325 72.185 71.0825 72.185C69.9925 72.185 69.4175 72.87 69.3575 74.24H75.4325V78.02C75.4325 78.7 75.2375 79.225 74.8475 79.595C74.4575 79.965 73.9125 80.15 73.2125 80.15ZM73.0775 79.67C73.4175 79.67 73.6975 79.565 73.9175 79.355C74.1375 79.135 74.2475 78.855 74.2475 78.515C74.2475 78.165 74.1375 77.885 73.9175 77.675C73.7075 77.455 73.4275 77.345 73.0775 77.345C72.7375 77.345 72.4575 77.455 72.2375 77.675C72.0175 77.885 71.9075 78.165 71.9075 78.515C71.9075 78.855 72.0175 79.135 72.2375 79.355C72.4575 79.565 72.7375 79.67 73.0775 79.67ZM84.8338 72.335C85.1538 72.585 85.3988 72.885 85.5688 73.235C85.7488 73.575 85.8388 73.95 85.8388 74.36V80H84.3988V79.85C84.3988 78.23 84.1288 76.97 83.5888 76.07C83.0488 75.16 82.2938 74.705 81.3238 74.705C80.6738 74.705 80.1288 74.935 79.6888 75.395C79.2588 75.855 79.0238 76.465 78.9838 77.225C79.0638 77.125 79.2038 77.04 79.4038 76.97C79.6038 76.9 79.8038 76.865 80.0038 76.865C80.5038 76.865 80.9138 77.02 81.2338 77.33C81.5638 77.64 81.7288 78.035 81.7288 78.515C81.7288 78.995 81.5538 79.39 81.2038 79.7C80.8638 80 80.4238 80.15 79.8838 80.15C79.1838 80.15 78.6238 79.915 78.2038 79.445C77.7838 78.975 77.5738 78.355 77.5738 77.585C77.5738 76.915 77.7188 76.325 78.0088 75.815C78.3088 75.295 78.7288 74.89 79.2688 74.6C79.8188 74.31 80.4488 74.16 81.1588 74.15C82.0088 73.63 82.7438 73.045 83.3638 72.395C82.9138 72.125 82.3538 71.99 81.6838 71.99C80.8838 71.99 80.2138 72.175 79.6738 72.545C79.1338 72.905 78.8088 73.39 78.6988 74H77.3338C77.4738 73.23 77.9388 72.615 78.7288 72.155C79.5188 71.685 80.5038 71.45 81.6838 71.45C82.5138 71.45 83.2338 71.565 83.8438 71.795C84.0938 71.455 84.2588 71.13 84.3388 70.82H85.9588C85.8888 71.2 85.5138 71.705 84.8338 72.335ZM84.3988 74.24C84.3988 73.76 84.2788 73.35 84.0388 73.01C83.3888 73.52 82.7188 73.925 82.0288 74.225C82.5688 74.345 83.0438 74.585 83.4538 74.945C83.8638 75.295 84.1788 75.745 84.3988 76.295V74.24ZM79.9888 77.345C79.6388 77.345 79.3588 77.455 79.1488 77.675C78.9388 77.885 78.8338 78.165 78.8338 78.515C78.8338 78.855 78.9388 79.135 79.1488 79.355C79.3688 79.565 79.6488 79.67 79.9888 79.67C80.3388 79.67 80.6188 79.565 80.8288 79.355C81.0488 79.145 81.1588 78.865 81.1588 78.515C81.1588 78.165 81.0488 77.885 80.8288 77.675C80.6188 77.455 80.3388 77.345 79.9888 77.345ZM88.8138 76.88C89.7738 76.59 90.4888 76.22 90.9588 75.77C91.4288 75.31 91.6638 74.755 91.6638 74.105C91.6638 73.485 91.4838 72.985 91.1238 72.605C90.7738 72.215 90.3188 72.02 89.7588 72.02C89.3888 72.02 89.0538 72.105 88.7538 72.275C88.4538 72.445 88.2488 72.665 88.1388 72.935C88.2488 72.845 88.3888 72.775 88.5588 72.725C88.7388 72.665 88.9188 72.635 89.0988 72.635C89.5788 72.635 89.9738 72.79 90.2838 73.1C90.5938 73.4 90.7488 73.79 90.7488 74.27C90.7488 74.75 90.5888 75.145 90.2688 75.455C89.9488 75.765 89.5388 75.92 89.0388 75.92C88.4588 75.92 87.9888 75.73 87.6288 75.35C87.2688 74.96 87.0888 74.46 87.0888 73.85C87.0888 73.12 87.3388 72.54 87.8388 72.11C88.3488 71.67 89.0288 71.45 89.8788 71.45C90.7688 71.45 91.4788 71.69 92.0088 72.17C92.5388 72.64 92.8038 73.27 92.8038 74.06C92.8038 75.44 91.9538 76.445 90.2538 77.075V79.37H94.4088V75.2C94.4088 74.9 94.3138 74.64 94.1238 74.42C93.9338 74.2 93.6788 74.045 93.3588 73.955V73.625C93.7188 73.465 93.9888 73.2 94.1688 72.83C94.3588 72.46 94.4538 72 94.4538 71.45H96.1788C96.0888 72.69 95.5488 73.46 94.5588 73.76C94.9688 73.89 95.2838 74.08 95.5038 74.33C95.7338 74.57 95.8488 74.85 95.8488 75.17V80H88.8138V76.88ZM89.0538 75.44C89.4038 75.44 89.6838 75.33 89.8938 75.11C90.1138 74.89 90.2238 74.61 90.2238 74.27C90.2238 73.93 90.1138 73.65 89.8938 73.43C89.6738 73.21 89.3938 73.1 89.0538 73.1C88.7138 73.1 88.4338 73.21 88.2138 73.43C87.9938 73.65 87.8838 73.93 87.8838 74.27C87.8838 74.61 87.9938 74.89 88.2138 75.11C88.4338 75.33 88.7138 75.44 89.0538 75.44ZM102.869 74.165C102.869 73.505 102.674 72.975 102.284 72.575C101.904 72.175 101.379 71.975 100.709 71.975C100.089 71.975 99.5737 72.165 99.1637 72.545C98.7637 72.915 98.5287 73.43 98.4587 74.09H97.0937C97.1637 73.29 97.5187 72.65 98.1587 72.17C98.8087 71.69 99.6587 71.45 100.709 71.45C101.799 71.45 102.669 71.71 103.319 72.23C103.979 72.75 104.309 73.46 104.309 74.36V80H102.869V74.165ZM106.506 79.205C106.506 78.295 106.461 77.39 106.371 76.49C106.301 75.78 106.266 75.205 106.266 74.765C106.266 74.105 106.381 73.525 106.611 73.025C106.841 72.525 107.161 72.14 107.571 71.87C107.991 71.59 108.476 71.45 109.026 71.45C109.406 71.45 109.751 71.525 110.061 71.675C110.381 71.825 110.616 72.03 110.766 72.29C110.926 72.02 111.151 71.815 111.441 71.675C111.741 71.525 112.091 71.45 112.491 71.45C113.221 71.45 113.786 71.65 114.186 72.05C114.596 72.45 114.801 73.015 114.801 73.745V80H113.361V73.79C113.361 73.24 113.251 72.82 113.031 72.53C112.821 72.23 112.516 72.08 112.116 72.08C111.856 72.08 111.626 72.16 111.426 72.32C111.236 72.48 111.096 72.705 111.006 72.995H110.496C110.416 72.705 110.271 72.48 110.061 72.32C109.861 72.16 109.621 72.08 109.341 72.08C108.831 72.08 108.431 72.31 108.141 72.77C107.851 73.23 107.706 73.87 107.706 74.69C107.706 75.06 107.731 75.62 107.781 76.37C107.841 77.35 107.876 78.325 107.886 79.295C109.516 78.655 110.616 77.97 111.186 77.24C110.966 77.34 110.766 77.39 110.586 77.39C110.076 77.39 109.656 77.235 109.326 76.925C109.006 76.615 108.846 76.22 108.846 75.74C108.846 75.26 109.006 74.87 109.326 74.57C109.646 74.26 110.061 74.105 110.571 74.105C111.081 74.105 111.501 74.27 111.831 74.6C112.161 74.92 112.326 75.34 112.326 75.86C112.326 76.65 111.931 77.405 111.141 78.125C110.351 78.835 109.221 79.46 107.751 80H106.506V79.205ZM110.571 76.91C110.921 76.91 111.206 76.8 111.426 76.58C111.646 76.36 111.756 76.08 111.756 75.74C111.756 75.4 111.646 75.12 111.426 74.9C111.206 74.68 110.921 74.57 110.571 74.57C110.221 74.57 109.936 74.68 109.716 74.9C109.496 75.12 109.386 75.4 109.386 75.74C109.386 76.08 109.496 76.36 109.716 76.58C109.936 76.8 110.221 76.91 110.571 76.91ZM106.887 70.07C106.927 69.54 107.117 69.07 107.457 68.66C107.787 68.24 108.237 67.915 108.807 67.685C109.367 67.455 110.002 67.34 110.712 67.34C111.442 67.34 112.102 67.455 112.692 67.685C113.272 67.915 113.737 68.24 114.087 68.66C114.427 69.07 114.617 69.54 114.657 70.07H106.887ZM113.412 69.575C113.342 69.085 113.057 68.685 112.557 68.375C112.057 68.065 111.442 67.91 110.712 67.91C109.972 67.91 109.357 68.065 108.867 68.375C108.377 68.675 108.097 69.075 108.027 69.575H113.412ZM117.774 76.88C118.734 76.59 119.449 76.22 119.919 75.77C120.389 75.31 120.624 74.755 120.624 74.105C120.624 73.485 120.444 72.985 120.084 72.605C119.734 72.215 119.279 72.02 118.719 72.02C118.349 72.02 118.014 72.105 117.714 72.275C117.414 72.445 117.209 72.665 117.099 72.935C117.209 72.845 117.349 72.775 117.519 72.725C117.699 72.665 117.879 72.635 118.059 72.635C118.539 72.635 118.934 72.79 119.244 73.1C119.554 73.4 119.709 73.79 119.709 74.27C119.709 74.75 119.549 75.145 119.229 75.455C118.909 75.765 118.499 75.92 117.999 75.92C117.419 75.92 116.949 75.73 116.589 75.35C116.229 74.96 116.049 74.46 116.049 73.85C116.049 73.12 116.299 72.54 116.799 72.11C117.309 71.67 117.989 71.45 118.839 71.45C119.729 71.45 120.439 71.69 120.969 72.17C121.499 72.64 121.764 73.27 121.764 74.06C121.764 75.44 120.914 76.445 119.214 77.075V79.37H123.189V71.6H124.629V80H117.774V76.88ZM118.014 75.44C118.364 75.44 118.644 75.33 118.854 75.11C119.074 74.89 119.184 74.61 119.184 74.27C119.184 73.93 119.074 73.65 118.854 73.43C118.634 73.21 118.354 73.1 118.014 73.1C117.674 73.1 117.394 73.21 117.174 73.43C116.954 73.65 116.844 73.93 116.844 74.27C116.844 74.61 116.954 74.89 117.174 75.11C117.394 75.33 117.674 75.44 118.014 75.44ZM126.823 76.775C126.823 76.105 127.013 75.585 127.393 75.215C127.773 74.845 128.303 74.66 128.983 74.66C129.553 74.66 130.013 74.815 130.363 75.125C130.723 75.435 130.903 75.835 130.903 76.325C130.903 76.805 130.748 77.195 130.438 77.495C130.128 77.795 129.723 77.945 129.223 77.945C129.023 77.945 128.833 77.915 128.653 77.855C128.473 77.785 128.338 77.7 128.248 77.6V79.385H133.408V74.555C133.408 73.765 133.138 73.14 132.598 72.68C132.068 72.21 131.358 71.975 130.468 71.975C129.608 71.975 128.908 72.19 128.368 72.62C127.828 73.05 127.533 73.625 127.483 74.345H126.133C126.173 73.765 126.373 73.255 126.733 72.815C127.103 72.375 127.603 72.04 128.233 71.81C128.873 71.57 129.608 71.45 130.438 71.45C131.328 71.45 132.103 71.585 132.763 71.855C133.433 72.125 133.948 72.51 134.308 73.01C134.668 73.5 134.848 74.075 134.848 74.735V80H126.823V76.775ZM129.163 77.465C129.503 77.465 129.783 77.36 130.003 77.15C130.223 76.93 130.333 76.65 130.333 76.31C130.333 75.96 130.223 75.68 130.003 75.47C129.793 75.25 129.513 75.14 129.163 75.14C128.823 75.14 128.543 75.25 128.323 75.47C128.113 75.69 128.008 75.97 128.008 76.31C128.008 76.65 128.113 76.93 128.323 77.15C128.543 77.36 128.823 77.465 129.163 77.465ZM139.043 80C138.883 79 138.533 78.035 137.993 77.105C137.453 76.175 136.813 75.43 136.073 74.87L137.183 74.075C137.873 74.525 138.483 75.22 139.013 76.16C139.543 77.09 139.928 78.16 140.168 79.37H142.403V74.42C142.303 74.52 142.168 74.6 141.998 74.66C141.828 74.71 141.643 74.735 141.443 74.735C140.943 74.735 140.538 74.585 140.228 74.285C139.918 73.985 139.763 73.59 139.763 73.1C139.763 72.61 139.938 72.215 140.288 71.915C140.638 71.605 141.103 71.45 141.683 71.45C142.363 71.45 142.893 71.635 143.273 72.005C143.653 72.375 143.843 72.895 143.843 73.565V80H139.043ZM141.488 74.255C141.838 74.255 142.118 74.145 142.328 73.925C142.548 73.705 142.658 73.425 142.658 73.085C142.658 72.745 142.548 72.47 142.328 72.26C142.108 72.04 141.828 71.93 141.488 71.93C141.148 71.93 140.868 72.04 140.648 72.26C140.438 72.47 140.333 72.745 140.333 73.085C140.333 73.425 140.438 73.705 140.648 73.925C140.868 74.145 141.148 74.255 141.488 74.255ZM148.607 80.15C147.947 80.15 147.422 79.97 147.032 79.61C146.642 79.25 146.447 78.725 146.447 78.035V71.6H147.887V77.195C147.987 77.095 148.122 77.015 148.292 76.955C148.462 76.895 148.647 76.865 148.847 76.865C149.347 76.865 149.747 77.015 150.047 77.315C150.357 77.615 150.512 78.01 150.512 78.5C150.512 79 150.337 79.4 149.987 79.7C149.637 80 149.177 80.15 148.607 80.15ZM148.787 79.67C149.127 79.67 149.407 79.565 149.627 79.355C149.847 79.135 149.957 78.855 149.957 78.515C149.957 78.165 149.847 77.885 149.627 77.675C149.417 77.455 149.137 77.345 148.787 77.345C148.447 77.345 148.167 77.455 147.947 77.675C147.737 77.895 147.632 78.175 147.632 78.515C147.632 78.855 147.737 79.135 147.947 79.355C148.167 79.565 148.447 79.67 148.787 79.67ZM153.771 74.405C153.681 74.495 153.546 74.575 153.366 74.645C153.196 74.705 153.016 74.735 152.826 74.735C152.326 74.735 151.921 74.585 151.611 74.285C151.301 73.985 151.146 73.59 151.146 73.1C151.146 72.61 151.321 72.215 151.671 71.915C152.021 71.605 152.481 71.45 153.051 71.45C153.731 71.45 154.261 71.635 154.641 72.005C155.021 72.375 155.211 72.895 155.211 73.565V79.43H159.471V71.6H160.911V80H153.771V74.405ZM152.871 74.255C153.221 74.255 153.501 74.145 153.711 73.925C153.931 73.705 154.041 73.425 154.041 73.085C154.041 72.745 153.931 72.47 153.711 72.26C153.491 72.04 153.211 71.93 152.871 71.93C152.531 71.93 152.251 72.04 152.031 72.26C151.811 72.47 151.701 72.745 151.701 73.085C151.701 73.425 151.811 73.705 152.031 73.925C152.251 74.145 152.531 74.255 152.871 74.255ZM160.917 66.785V70.07H153.147C153.187 69.54 153.377 69.07 153.717 68.66C154.047 68.24 154.497 67.915 155.067 67.685C155.637 67.455 156.272 67.34 156.972 67.34C157.942 67.34 158.797 67.565 159.537 68.015V66.785H160.917ZM159.672 69.575C159.602 69.085 159.317 68.685 158.817 68.375C158.317 68.065 157.702 67.91 156.972 67.91C156.232 67.91 155.617 68.065 155.127 68.375C154.637 68.675 154.357 69.075 154.287 69.575H159.672ZM171.012 71.6V80H163.347V78.05C163.347 77.67 163.492 77.33 163.782 77.03C164.072 76.73 164.462 76.51 164.952 76.37C164.272 76.2 163.742 75.9 163.362 75.47C162.992 75.04 162.807 74.515 162.807 73.895C162.807 73.165 163.067 72.575 163.587 72.125C164.107 71.675 164.787 71.45 165.627 71.45C166.307 71.45 166.862 71.62 167.292 71.96C167.722 72.3 167.937 72.745 167.937 73.295C167.937 73.795 167.772 74.2 167.442 74.51C167.122 74.82 166.702 74.975 166.182 74.975C165.662 74.975 165.237 74.825 164.907 74.525C164.577 74.215 164.412 73.815 164.412 73.325C164.412 73.015 164.527 72.745 164.757 72.515C164.347 72.815 164.142 73.275 164.142 73.895C164.142 75.275 165.077 75.965 166.947 75.965H167.082V76.58H166.962C166.262 76.58 165.722 76.715 165.342 76.985C164.972 77.245 164.787 77.625 164.787 78.125V79.37H169.572V71.6H171.012ZM166.167 72.155C165.827 72.155 165.547 72.265 165.327 72.485C165.107 72.705 164.997 72.985 164.997 73.325C164.997 73.665 165.107 73.945 165.327 74.165C165.547 74.385 165.827 74.495 166.167 74.495C166.517 74.495 166.802 74.385 167.022 74.165C167.242 73.945 167.352 73.665 167.352 73.325C167.352 72.985 167.242 72.705 167.022 72.485C166.802 72.265 166.517 72.155 166.167 72.155ZM177.7 80.15C177.14 80.15 176.69 80 176.35 79.7C176.01 79.4 175.84 79 175.84 78.5C175.84 78.01 175.995 77.615 176.305 77.315C176.625 77.015 177.04 76.865 177.55 76.865C177.73 76.865 177.9 76.895 178.06 76.955C178.23 77.015 178.365 77.09 178.465 77.18V74.87H172.375C172.395 73.78 172.655 72.94 173.155 72.35C173.665 71.75 174.39 71.45 175.33 71.45C175.65 71.45 175.955 71.49 176.245 71.57C176.535 71.64 176.86 71.765 177.22 71.945C177.49 72.085 177.705 72.18 177.865 72.23C178.025 72.28 178.18 72.305 178.33 72.305C178.58 72.305 178.78 72.23 178.93 72.08C179.09 71.92 179.175 71.71 179.185 71.45H180.475C180.455 71.94 180.285 72.33 179.965 72.62C179.645 72.9 179.225 73.04 178.705 73.04C178.445 73.04 178.19 73.01 177.94 72.95C177.7 72.88 177.415 72.765 177.085 72.605C176.745 72.435 176.47 72.325 176.26 72.275C176.05 72.215 175.82 72.185 175.57 72.185C174.48 72.185 173.905 72.87 173.845 74.24H179.92V78.02C179.92 78.7 179.725 79.225 179.335 79.595C178.945 79.965 178.4 80.15 177.7 80.15ZM177.565 79.67C177.905 79.67 178.185 79.565 178.405 79.355C178.625 79.135 178.735 78.855 178.735 78.515C178.735 78.165 178.625 77.885 178.405 77.675C178.195 77.455 177.915 77.345 177.565 77.345C177.225 77.345 176.945 77.455 176.725 77.675C176.505 77.885 176.395 78.165 176.395 78.515C176.395 78.855 176.505 79.135 176.725 79.355C176.945 79.565 177.225 79.67 177.565 79.67ZM177.891 70.22C177.431 70.22 177.061 70.095 176.781 69.845C176.501 69.585 176.361 69.245 176.361 68.825C176.361 68.445 176.446 68.135 176.616 67.895C176.776 67.655 176.976 67.47 177.216 67.34C177.446 67.21 177.746 67.08 178.116 66.95C178.586 66.77 178.931 66.595 179.151 66.425C179.361 66.255 179.466 66 179.466 65.66H180.861C180.861 66.1 180.666 66.445 180.276 66.695C179.876 66.945 179.371 67.16 178.761 67.34C178.651 67.37 178.481 67.43 178.251 67.52C178.571 67.56 178.831 67.7 179.031 67.94C179.231 68.18 179.331 68.475 179.331 68.825C179.331 69.235 179.201 69.57 178.941 69.83C178.671 70.09 178.321 70.22 177.891 70.22ZM177.921 69.725C178.181 69.725 178.396 69.64 178.566 69.47C178.726 69.3 178.806 69.085 178.806 68.825C178.806 68.565 178.726 68.355 178.566 68.195C178.396 68.025 178.181 67.94 177.921 67.94C177.661 67.94 177.451 68.025 177.291 68.195C177.121 68.355 177.036 68.565 177.036 68.825C177.036 69.085 177.121 69.3 177.291 69.47C177.451 69.64 177.661 69.725 177.921 69.725Z" fill="black"/>
</svg>
