<svg width="277" height="131" viewBox="0 0 277 131" fill="none" xmlns="http://www.w3.org/2000/svg">
<rect x="0.5" y="0.5" width="276" height="130" fill="white" stroke="black"/>
<path d="M36.8408 43.2C35.8274 43.2 35.0274 42.9533 34.4408 42.46C33.8674 41.9533 33.5808 41.2467 33.5808 40.34V31.8H36.2808V38.92C36.4808 38.7867 36.7674 38.72 37.1408 38.72C37.8341 38.72 38.3941 38.9267 38.8208 39.34C39.2608 39.7533 39.4808 40.2867 39.4808 40.94C39.4808 41.6067 39.2341 42.1533 38.7408 42.58C38.2608 42.9933 37.6274 43.2 36.8408 43.2ZM37.0608 42.5C37.5141 42.5 37.8808 42.36 38.1608 42.08C38.4408 41.7867 38.5808 41.4133 38.5808 40.96C38.5808 40.5067 38.4408 40.14 38.1608 39.86C37.8808 39.58 37.5141 39.44 37.0608 39.44C36.6074 39.44 36.2341 39.58 35.9408 39.86C35.6608 40.14 35.5208 40.5067 35.5208 40.96C35.5208 41.4133 35.6608 41.7867 35.9408 42.08C36.2341 42.36 36.6074 42.5 37.0608 42.5ZM54.9477 31.8V43H51.9077L49.0877 34.26L46.2477 43H43.2077V35.88C42.981 36.0133 42.6943 36.08 42.3477 36.08C41.6543 36.08 41.0877 35.8733 40.6477 35.46C40.2077 35.0467 39.9877 34.5133 39.9877 33.86C39.9877 33.1933 40.2343 32.6533 40.7277 32.24C41.221 31.8133 41.861 31.6 42.6477 31.6C43.661 31.6 44.4543 31.8533 45.0277 32.36C45.601 32.8667 45.8877 33.5667 45.8877 34.46V39.88L48.5477 32.12H49.5877L52.2677 39.64V31.8H54.9477ZM42.4277 35.36C42.881 35.36 43.2477 35.22 43.5277 34.94C43.821 34.66 43.9677 34.2933 43.9677 33.84C43.9677 33.3867 43.821 33.02 43.5277 32.74C43.2477 32.4467 42.881 32.3 42.4277 32.3C41.9743 32.3 41.601 32.4467 41.3077 32.74C41.0277 33.02 40.8877 33.3867 40.8877 33.84C40.8877 34.2933 41.0277 34.66 41.3077 34.94C41.601 35.22 41.9743 35.36 42.4277 35.36ZM43.9762 29.76C44.0296 28.9867 44.2962 28.3 44.7762 27.7C45.2429 27.1 45.8696 26.6333 46.6562 26.3C47.4429 25.9667 48.3296 25.8 49.3162 25.8C50.3562 25.8 51.2962 25.9667 52.1362 26.3C52.9629 26.6333 53.6296 27.1 54.1362 27.7C54.6296 28.3 54.9029 28.9867 54.9562 29.76H43.9762ZM52.7962 28.92C52.7029 28.28 52.3362 27.76 51.6962 27.36C51.0429 26.9467 50.2496 26.74 49.3162 26.74C48.3696 26.74 47.5762 26.94 46.9362 27.34C46.2962 27.74 45.9362 28.2667 45.8562 28.92H52.7962ZM52.4962 21.28H54.8363V25H52.4962V21.28ZM69.8763 31.8V43H67.5163L62.9963 40.26V40.86C62.9963 41.5933 62.7229 42.1667 62.1763 42.58C61.6429 42.9933 60.8829 43.2 59.8963 43.2C59.0696 43.2 58.4163 42.98 57.9363 42.54C57.4696 42.1 57.2363 41.4933 57.2363 40.72C57.2363 39.88 57.5029 39.2267 58.0363 38.76C58.5696 38.28 59.3096 38.04 60.2563 38.04H60.3163V35.88C60.0763 36.0133 59.7896 36.08 59.4563 36.08C58.7629 36.08 58.1963 35.8733 57.7563 35.46C57.3296 35.0467 57.1163 34.5133 57.1163 33.86C57.1163 33.1933 57.3563 32.6533 57.8363 32.24C58.3296 31.8133 58.9696 31.6 59.7563 31.6C60.7563 31.6 61.5496 31.86 62.1363 32.38C62.7229 32.8867 63.0163 33.58 63.0163 34.46V38.78L63.0763 38.82L67.1963 41.22V31.8H69.8763ZM59.5363 35.36C59.9896 35.36 60.3563 35.22 60.6363 34.94C60.9296 34.66 61.0763 34.2933 61.0763 33.84C61.0763 33.3867 60.9296 33.02 60.6363 32.74C60.3563 32.4467 59.9896 32.3 59.5363 32.3C59.0829 32.3 58.7163 32.4467 58.4363 32.74C58.1563 33.02 58.0163 33.3867 58.0163 33.84C58.0163 34.2933 58.1563 34.66 58.4363 34.94C58.7163 35.22 59.0829 35.36 59.5363 35.36ZM60.3163 39.04C60.1563 39.0133 60.0029 39 59.8563 39C59.4163 39 59.0629 39.16 58.7962 39.48C58.5296 39.8 58.3963 40.22 58.3963 40.74C58.3963 41.2467 58.4829 41.64 58.6562 41.92C58.8429 42.2 59.1029 42.34 59.4363 42.34C60.0229 42.34 60.3163 42 60.3163 41.32V39.04ZM76.8181 43.2C75.8315 43.2 75.0381 42.9467 74.4381 42.44C73.8515 41.9333 73.5581 41.2333 73.5581 40.34V28.18H69.5181C69.5181 26.9267 69.8448 25.92 70.4981 25.16C71.1515 24.4 72.0315 24.02 73.1381 24.02C73.9115 24.02 74.6315 24.22 75.2981 24.62C75.6581 24.82 75.9448 24.92 76.1581 24.92C76.4115 24.92 76.6248 24.8333 76.7981 24.66C76.9715 24.4867 77.0648 24.2733 77.0781 24.02H78.9181C78.8915 24.6067 78.6515 25.1 78.1981 25.5C77.7581 25.8867 77.2181 26.08 76.5781 26.08C76.2581 26.08 75.9715 26.0467 75.7181 25.98C75.4781 25.9133 75.2115 25.7933 74.9181 25.62C74.6648 25.4733 74.4448 25.3733 74.2581 25.32C74.0848 25.2533 73.8915 25.22 73.6781 25.22C72.6648 25.22 72.0981 25.8733 71.9781 27.18H76.2581V38.92C76.4581 38.7867 76.7448 38.72 77.1181 38.72C77.8115 38.72 78.3715 38.9267 78.7981 39.34C79.2381 39.7533 79.4581 40.2867 79.4581 40.94C79.4581 41.6067 79.2115 42.1533 78.7181 42.58C78.2381 42.9933 77.6048 43.2 76.8181 43.2ZM77.0381 42.54C77.5048 42.54 77.8848 42.3933 78.1781 42.1C78.4715 41.8067 78.6181 41.4267 78.6181 40.96C78.6181 40.4933 78.4715 40.1133 78.1781 39.82C77.8848 39.5267 77.5048 39.38 77.0381 39.38C76.5715 39.38 76.1915 39.5267 75.8981 39.82C75.6048 40.1133 75.4581 40.4933 75.4581 40.96C75.4581 41.4267 75.6048 41.8067 75.8981 42.1C76.1915 42.3933 76.5715 42.54 77.0381 42.54ZM80.9291 38.88C80.9291 37.9867 81.2157 37.2867 81.7891 36.78C82.3757 36.2733 83.1757 36.02 84.1891 36.02C84.9757 36.02 85.6157 36.2333 86.1091 36.66C86.6024 37.0733 86.8491 37.6133 86.8491 38.28C86.8491 38.9333 86.6291 39.4667 86.1891 39.88C85.7624 40.2933 85.1957 40.5 84.4891 40.5C84.1157 40.5 83.8157 40.4333 83.5891 40.3V42.04H89.5891V35.68C89.5891 34.6933 89.2691 33.9067 88.6291 33.32C88.0024 32.7333 87.1424 32.44 86.0491 32.44C84.9824 32.44 84.1157 32.7133 83.4491 33.26C82.7957 33.7933 82.4357 34.5267 82.3691 35.46H80.0491C80.1424 34.2733 80.7291 33.3333 81.8091 32.64C82.9024 31.9467 84.3291 31.6 86.0891 31.6C87.3557 31.6 88.4557 31.78 89.3891 32.14C90.3224 32.5 91.0357 33.0133 91.5291 33.68C92.0357 34.3333 92.2891 35.1067 92.2891 36V43H80.9291V38.88ZM84.4091 39.8C84.8624 39.8 85.2291 39.66 85.5091 39.38C85.7891 39.0867 85.9291 38.7133 85.9291 38.26C85.9291 37.8067 85.7891 37.44 85.5091 37.16C85.2291 36.88 84.8624 36.74 84.4091 36.74C83.9557 36.74 83.5824 36.88 83.2891 37.16C83.0091 37.44 82.8691 37.8067 82.8691 38.26C82.8691 38.7133 83.0091 39.0867 83.2891 39.38C83.5824 39.66 83.9557 39.8 84.4091 39.8ZM94.6805 38.66C94.6805 37.54 95.1938 36.7467 96.2205 36.28H94.0805C94.1071 35.32 94.3671 34.4867 94.8605 33.78C95.3538 33.0733 96.0405 32.5333 96.9205 32.16C97.8138 31.7867 98.8605 31.6 100.06 31.6C101.207 31.6 102.2 31.76 103.04 32.08C103.88 32.4 104.527 32.8533 104.98 33.44C105.434 34.0267 105.66 34.72 105.66 35.52V43H102.96V35.32C102.96 34.4 102.707 33.6933 102.2 33.2C101.694 32.6933 100.974 32.44 100.04 32.44C99.0138 32.44 98.2005 32.6867 97.6005 33.18C97.0005 33.6733 96.6605 34.3733 96.5805 35.28H99.3605V36.04C98.6671 36.1067 98.1605 36.3067 97.8405 36.64C97.5338 36.9733 97.3805 37.48 97.3805 38.16V43H94.6805V38.66ZM114.559 35.16C114.559 34.3067 114.339 33.64 113.899 33.16C113.459 32.68 112.839 32.44 112.039 32.44C111.279 32.44 110.666 32.6867 110.199 33.18C109.733 33.66 109.466 34.34 109.399 35.22H107.059C107.113 34.1 107.579 33.22 108.459 32.58C109.339 31.9267 110.533 31.6 112.039 31.6C113.639 31.6 114.906 31.9467 115.839 32.64C116.773 33.3333 117.239 34.2867 117.239 35.5V43H114.559V35.16ZM129.841 32.8C130.761 33.4933 131.221 34.3933 131.221 35.5V43H128.521V42.7C128.521 40.58 128.208 38.96 127.581 37.84C126.955 36.72 126.055 36.16 124.881 36.16C124.135 36.16 123.501 36.4333 122.981 36.98C122.475 37.5133 122.175 38.2133 122.081 39.08C122.175 38.9867 122.335 38.9067 122.561 38.84C122.788 38.76 123.001 38.72 123.201 38.72C123.921 38.72 124.508 38.9333 124.961 39.36C125.428 39.7733 125.661 40.3067 125.661 40.96C125.661 41.6267 125.408 42.1667 124.901 42.58C124.408 42.9933 123.761 43.2 122.961 43.2C121.935 43.2 121.108 42.8867 120.481 42.26C119.855 41.6333 119.541 40.8 119.541 39.76C119.541 38.4667 119.955 37.4267 120.781 36.64C121.608 35.84 122.741 35.3867 124.181 35.28C125.315 34.5867 126.288 33.7733 127.101 32.84C126.595 32.5867 126.008 32.46 125.341 32.46C124.355 32.46 123.521 32.6867 122.841 33.14C122.175 33.5933 121.755 34.2133 121.581 35H119.241C119.428 33.96 120.068 33.1333 121.161 32.52C122.268 31.9067 123.661 31.6 125.341 31.6C126.248 31.6 127.075 31.6933 127.821 31.88C128.075 31.4533 128.241 31.08 128.321 30.76H131.261C131.181 31.2667 130.708 31.9467 129.841 32.8ZM128.521 35.34C128.521 34.8467 128.435 34.4267 128.261 34.08C127.448 34.64 126.655 35.08 125.881 35.4C126.455 35.5333 126.968 35.7733 127.421 36.12C127.888 36.4667 128.255 36.8933 128.521 37.4V35.34ZM123.221 39.44C122.768 39.44 122.395 39.58 122.101 39.86C121.821 40.14 121.681 40.5067 121.681 40.96C121.681 41.4133 121.821 41.7867 122.101 42.08C122.395 42.36 122.768 42.5 123.221 42.5C123.675 42.5 124.041 42.36 124.321 42.08C124.601 41.7867 124.741 41.4133 124.741 40.96C124.741 40.5067 124.601 40.14 124.321 39.86C124.041 39.58 123.675 39.44 123.221 39.44ZM133.626 38.66C133.626 37.54 134.139 36.7467 135.166 36.28H133.026C133.052 35.32 133.312 34.4867 133.806 33.78C134.299 33.0733 134.986 32.5333 135.866 32.16C136.759 31.7867 137.806 31.6 139.006 31.6C140.152 31.6 141.146 31.76 141.986 32.08C142.826 32.4 143.472 32.8533 143.926 33.44C144.379 34.0267 144.606 34.72 144.606 35.52V43H141.906V35.32C141.906 34.4 141.652 33.6933 141.146 33.2C140.639 32.6933 139.919 32.44 138.986 32.44C137.959 32.44 137.146 32.6867 136.546 33.18C135.946 33.6733 135.606 34.3733 135.526 35.28H138.306V36.04C137.612 36.1067 137.106 36.3067 136.786 36.64C136.479 36.9733 136.326 37.48 136.326 38.16V43H133.626V38.66ZM153.505 35.16C153.505 34.3067 153.285 33.64 152.845 33.16C152.405 32.68 151.785 32.44 150.985 32.44C150.225 32.44 149.611 32.6867 149.145 33.18C148.678 33.66 148.411 34.34 148.345 35.22H146.005C146.058 34.1 146.525 33.22 147.405 32.58C148.285 31.9267 149.478 31.6 150.985 31.6C152.585 31.6 153.851 31.9467 154.785 32.64C155.718 33.3333 156.185 34.2867 156.185 35.5V43H153.505V35.16ZM164.847 43.2C164.1 43.2 163.493 42.9933 163.027 42.58C162.56 42.1533 162.327 41.6067 162.327 40.94C162.327 40.2867 162.553 39.7533 163.007 39.34C163.46 38.9267 164.04 38.72 164.747 38.72C165.013 38.72 165.28 38.78 165.547 38.9V36.24H157.547C157.547 34.7467 157.913 33.6 158.647 32.8C159.38 32 160.433 31.6 161.807 31.6C162.287 31.6 162.733 31.6533 163.147 31.76C163.56 31.8533 164.007 32.02 164.487 32.26C164.847 32.4333 165.12 32.5533 165.307 32.62C165.493 32.6867 165.66 32.72 165.807 32.72C166.1 32.72 166.333 32.62 166.507 32.42C166.693 32.2067 166.793 31.9333 166.807 31.6H168.987C168.96 32.28 168.707 32.8267 168.227 33.24C167.747 33.6533 167.107 33.86 166.307 33.86C165.56 33.86 164.8 33.6667 164.027 33.28C163.587 33.0667 163.247 32.9267 163.007 32.86C162.767 32.7933 162.493 32.76 162.187 32.76C160.987 32.76 160.347 33.5933 160.267 35.26H168.247V40.3C168.247 41.22 167.947 41.9333 167.347 42.44C166.747 42.9467 165.913 43.2 164.847 43.2ZM164.767 42.5C165.22 42.5 165.587 42.36 165.867 42.08C166.16 41.7867 166.307 41.4133 166.307 40.96C166.307 40.5067 166.16 40.14 165.867 39.86C165.587 39.58 165.22 39.44 164.767 39.44C164.313 39.44 163.94 39.58 163.647 39.86C163.367 40.14 163.227 40.5067 163.227 40.96C163.227 41.4133 163.367 41.7867 163.647 42.08C163.94 42.36 164.313 42.5 164.767 42.5ZM175.478 31.6C176.718 31.6 177.791 31.7867 178.698 32.16C179.618 32.52 180.318 33.0467 180.798 33.74C181.291 34.4333 181.538 35.2533 181.538 36.2C181.538 36.6533 181.484 37.34 181.378 38.26C181.218 39.58 181.138 40.7867 181.138 41.88V43H178.198L176.238 39.52C175.998 39.7733 175.724 39.9733 175.418 40.12C175.111 40.2667 174.798 40.34 174.478 40.34C173.758 40.34 173.171 40.1333 172.718 39.72C172.278 39.3067 172.058 38.7733 172.058 38.12C172.058 37.4533 172.291 36.9133 172.758 36.5C173.238 36.0733 173.858 35.86 174.618 35.86C175.218 35.86 175.744 36 176.198 36.28C176.651 36.56 177.018 36.9733 177.298 37.52L178.658 40.08C178.671 39.4533 178.704 38.76 178.758 38C178.824 37.0267 178.858 36.3733 178.858 36.04C178.858 34.9333 178.544 34.06 177.918 33.42C177.304 32.7667 176.458 32.44 175.378 32.44C174.284 32.44 173.418 32.7267 172.778 33.3C172.138 33.8733 171.804 34.66 171.778 35.66H169.438C169.451 34.4067 169.991 33.42 171.058 32.7C172.138 31.9667 173.611 31.6 175.478 31.6ZM174.438 39.64C174.891 39.64 175.258 39.5 175.538 39.22C175.831 38.9267 175.978 38.5533 175.978 38.1C175.978 37.6333 175.838 37.26 175.558 36.98C175.278 36.7 174.904 36.56 174.438 36.56C173.984 36.56 173.618 36.7067 173.338 37C173.058 37.28 172.918 37.6467 172.918 38.1C172.918 38.5533 173.058 38.9267 173.338 39.22C173.618 39.5 173.984 39.64 174.438 39.64ZM175.483 29.3C176.123 28.8467 176.69 28.2867 177.183 27.62C176.943 27.7667 176.663 27.84 176.343 27.84C175.81 27.84 175.376 27.68 175.043 27.36C174.71 27.04 174.543 26.6267 174.543 26.12C174.543 25.56 174.723 25.12 175.083 24.8C175.43 24.48 175.903 24.32 176.503 24.32C177.13 24.32 177.623 24.48 177.983 24.8C178.343 25.12 178.523 25.56 178.523 26.12C178.523 27.08 178.11 28.0267 177.283 28.96C178.47 28.56 179.39 28.0133 180.043 27.32C180.683 26.6267 181.123 25.7933 181.363 24.82H183.463C183.303 25.7133 182.843 26.54 182.083 27.3C181.323 28.0467 180.376 28.6533 179.243 29.12C178.11 29.5867 176.923 29.86 175.683 29.94L175.483 29.3ZM176.343 27.16C176.663 27.16 176.923 27.0667 177.123 26.88C177.31 26.68 177.403 26.4267 177.403 26.12C177.403 25.8 177.31 25.54 177.123 25.34C176.923 25.14 176.663 25.04 176.343 25.04C176.036 25.04 175.783 25.14 175.583 25.34C175.383 25.54 175.283 25.8 175.283 26.12C175.283 26.4267 175.383 26.68 175.583 26.88C175.783 27.0667 176.036 27.16 176.343 27.16ZM189.911 35.16C189.911 34.3067 189.691 33.64 189.251 33.16C188.811 32.68 188.191 32.44 187.391 32.44C186.631 32.44 186.018 32.6867 185.551 33.18C185.084 33.66 184.818 34.34 184.751 35.22H182.411C182.464 34.1 182.931 33.22 183.811 32.58C184.691 31.9267 185.884 31.6 187.391 31.6C188.991 31.6 190.258 31.9467 191.191 32.64C192.124 33.3333 192.591 34.2867 192.591 35.5V43H189.911V35.16ZM197.793 43C197.593 41.7333 197.146 40.4933 196.453 39.28C195.773 38.0533 194.946 37.0267 193.973 36.2L196.093 34.7C197.04 35.3667 197.853 36.3333 198.533 37.6C199.226 38.8533 199.74 40.3267 200.073 42.02H202.413V35.9C202.146 36.02 201.853 36.08 201.533 36.08C200.84 36.08 200.273 35.8733 199.833 35.46C199.406 35.0467 199.193 34.5133 199.193 33.86C199.193 33.1933 199.44 32.6533 199.933 32.24C200.426 31.8133 201.066 31.6 201.853 31.6C202.866 31.6 203.66 31.8533 204.233 32.36C204.806 32.8667 205.093 33.5667 205.093 34.46V43H197.793ZM201.633 35.36C202.086 35.36 202.453 35.22 202.733 34.94C203.013 34.66 203.153 34.2933 203.153 33.84C203.153 33.3867 203.013 33.02 202.733 32.74C202.453 32.4467 202.086 32.3 201.633 32.3C201.18 32.3 200.806 32.4467 200.513 32.74C200.233 33.02 200.093 33.3867 200.093 33.84C200.093 34.2933 200.233 34.66 200.513 34.94C200.806 35.22 201.18 35.36 201.633 35.36ZM210.293 43C210.093 41.7333 209.646 40.4933 208.953 39.28C208.273 38.0533 207.446 37.0267 206.473 36.2L208.593 34.7C209.54 35.3667 210.353 36.3333 211.033 37.6C211.726 38.8533 212.24 40.3267 212.573 42.02H214.913V35.9C214.646 36.02 214.353 36.08 214.033 36.08C213.34 36.08 212.773 35.8733 212.333 35.46C211.906 35.0467 211.693 34.5133 211.693 33.86C211.693 33.1933 211.94 32.6533 212.433 32.24C212.926 31.8133 213.566 31.6 214.353 31.6C215.366 31.6 216.16 31.8533 216.733 32.36C217.306 32.8667 217.593 33.5667 217.593 34.46V43H210.293ZM214.133 35.36C214.586 35.36 214.953 35.22 215.233 34.94C215.513 34.66 215.653 34.2933 215.653 33.84C215.653 33.3867 215.513 33.02 215.233 32.74C214.953 32.4467 214.586 32.3 214.133 32.3C213.68 32.3 213.306 32.4467 213.013 32.74C212.733 33.02 212.593 33.3867 212.593 33.84C212.593 34.2933 212.733 34.66 213.013 34.94C213.306 35.22 213.68 35.36 214.133 35.36ZM226.493 35.16C226.493 34.3067 226.273 33.64 225.833 33.16C225.393 32.68 224.773 32.44 223.973 32.44C223.213 32.44 222.6 32.6867 222.133 33.18C221.666 33.66 221.4 34.34 221.333 35.22H218.993C219.046 34.1 219.513 33.22 220.393 32.58C221.273 31.9267 222.466 31.6 223.973 31.6C225.573 31.6 226.84 31.9467 227.773 32.64C228.706 33.3333 229.173 34.2867 229.173 35.5V43H226.493V35.16ZM243.155 38.84C243.568 39.0267 243.895 39.3067 244.135 39.68C244.375 40.04 244.495 40.46 244.495 40.94C244.495 41.6067 244.268 42.1533 243.815 42.58C243.375 42.9933 242.802 43.2 242.095 43.2C241.388 43.2 240.808 42.9933 240.355 42.58C239.915 42.1533 239.695 41.6067 239.695 40.94C239.695 40.62 239.742 40.34 239.835 40.1C238.382 40.9 237.222 41.8667 236.355 43H233.735V35.9C233.495 36.02 233.208 36.08 232.875 36.08C232.182 36.08 231.615 35.8733 231.175 35.46C230.735 35.0467 230.515 34.5133 230.515 33.86C230.515 33.1933 230.755 32.6533 231.235 32.24C231.728 31.8133 232.368 31.6 233.155 31.6C234.168 31.6 234.962 31.8533 235.535 32.36C236.122 32.8667 236.415 33.5667 236.415 34.46V40.98C237.028 40.4067 237.775 39.88 238.655 39.4C239.548 38.92 240.435 38.5467 241.315 38.28V31.8H243.995V38.72C243.715 38.7333 243.435 38.7733 243.155 38.84ZM232.955 35.36C233.408 35.36 233.775 35.22 234.055 34.94C234.348 34.66 234.495 34.2933 234.495 33.84C234.495 33.3867 234.348 33.02 234.055 32.74C233.775 32.4467 233.408 32.3 232.955 32.3C232.502 32.3 232.128 32.4467 231.835 32.74C231.555 33.02 231.415 33.3867 231.415 33.84C231.415 34.2933 231.555 34.66 231.835 34.94C232.128 35.22 232.502 35.36 232.955 35.36ZM242.095 42.44C242.562 42.44 242.935 42.3 243.215 42.02C243.508 41.74 243.655 41.3733 243.655 40.92C243.655 40.4667 243.508 40.1 243.215 39.82C242.922 39.5267 242.548 39.38 242.095 39.38C241.642 39.38 241.268 39.5267 240.975 39.82C240.682 40.1 240.535 40.4667 240.535 40.92C240.535 41.3733 240.675 41.74 240.955 42.02C241.248 42.3 241.628 42.44 242.095 42.44ZM58.273 63.15C57.613 63.15 57.083 62.97 56.683 62.61C56.293 62.25 56.098 61.725 56.098 61.035V54.915C56.098 54.555 56.193 54.205 56.383 53.865C56.573 53.515 56.853 53.14 57.223 52.74C57.593 52.32 57.863 51.96 58.033 51.66C58.213 51.35 58.303 51.015 58.303 50.655C58.303 50.155 58.118 49.75 57.748 49.44C57.378 49.13 56.893 48.975 56.293 48.975C55.813 48.975 55.393 49.09 55.033 49.32C54.673 49.54 54.423 49.84 54.283 50.22C54.413 50.06 54.593 49.935 54.823 49.845C55.063 49.745 55.318 49.695 55.588 49.695C56.078 49.695 56.478 49.85 56.788 50.16C57.098 50.46 57.253 50.845 57.253 51.315C57.253 51.805 57.083 52.205 56.743 52.515C56.403 52.815 55.968 52.965 55.438 52.965C54.838 52.965 54.358 52.78 53.998 52.41C53.628 52.04 53.443 51.55 53.443 50.94C53.443 50.46 53.573 50.03 53.833 49.65C54.083 49.27 54.433 48.975 54.883 48.765C55.343 48.545 55.863 48.435 56.443 48.435C57.053 48.435 57.588 48.53 58.048 48.72C58.518 48.9 58.883 49.16 59.143 49.5C59.403 49.83 59.533 50.215 59.533 50.655C59.533 51.075 59.448 51.46 59.278 51.81C59.108 52.15 58.843 52.53 58.483 52.95C58.163 53.31 57.923 53.65 57.763 53.97C57.613 54.28 57.538 54.6 57.538 54.93V60.195C57.628 60.105 57.758 60.03 57.928 59.97C58.108 59.9 58.298 59.865 58.498 59.865C58.998 59.865 59.398 60.015 59.698 60.315C60.008 60.615 60.163 61.01 60.163 61.5C60.163 62 59.988 62.4 59.638 62.7C59.298 63 58.843 63.15 58.273 63.15ZM55.543 52.5C55.893 52.5 56.178 52.39 56.398 52.17C56.618 51.94 56.728 51.655 56.728 51.315C56.728 50.965 56.618 50.68 56.398 50.46C56.178 50.24 55.893 50.13 55.543 50.13C55.203 50.13 54.918 50.24 54.688 50.46C54.468 50.68 54.358 50.965 54.358 51.315C54.358 51.655 54.468 51.94 54.688 52.17C54.918 52.39 55.203 52.5 55.543 52.5ZM58.453 62.7C58.803 62.7 59.088 62.59 59.308 62.37C59.528 62.14 59.638 61.855 59.638 61.515C59.638 61.165 59.528 60.88 59.308 60.66C59.088 60.44 58.803 60.33 58.453 60.33C58.103 60.33 57.818 60.44 57.598 60.66C57.378 60.88 57.268 61.165 57.268 61.515C57.268 61.855 57.378 62.14 57.598 62.37C57.828 62.59 58.113 62.7 58.453 62.7ZM69.8096 59.925C70.1496 60.035 70.4196 60.23 70.6196 60.51C70.8296 60.79 70.9346 61.12 70.9346 61.5C70.9346 61.99 70.7696 62.39 70.4396 62.7C70.1196 63 69.7046 63.15 69.1946 63.15C68.6946 63.15 68.2796 63 67.9496 62.7C67.6296 62.39 67.4696 61.99 67.4696 61.5C67.4696 61.22 67.5196 60.98 67.6196 60.78C67.0496 61.08 66.5246 61.42 66.0446 61.8C65.5746 62.18 65.1796 62.58 64.8596 63H63.3746V57.42C63.2846 57.52 63.1546 57.6 62.9846 57.66C62.8146 57.71 62.6296 57.735 62.4296 57.735C61.9396 57.735 61.5346 57.585 61.2146 57.285C60.9046 56.975 60.7496 56.58 60.7496 56.1C60.7496 55.61 60.9196 55.215 61.2596 54.915C61.6096 54.605 62.0696 54.45 62.6396 54.45C63.3196 54.45 63.8496 54.64 64.2296 55.02C64.6196 55.39 64.8146 55.905 64.8146 56.565V61.86C65.2846 61.37 65.9296 60.9 66.7496 60.45C67.5696 59.99 68.3696 59.66 69.1496 59.46V54.6H70.5896V59.775C70.3996 59.795 70.1396 59.845 69.8096 59.925ZM62.4746 57.255C62.8246 57.255 63.1046 57.145 63.3146 56.925C63.5346 56.705 63.6446 56.425 63.6446 56.085C63.6446 55.745 63.5346 55.47 63.3146 55.26C63.0946 55.04 62.8146 54.93 62.4746 54.93C62.1346 54.93 61.8546 55.04 61.6346 55.26C61.4146 55.47 61.3046 55.745 61.3046 56.085C61.3046 56.425 61.4146 56.705 61.6346 56.925C61.8546 57.145 62.1346 57.255 62.4746 57.255ZM69.1946 62.655C69.5446 62.655 69.8296 62.545 70.0496 62.325C70.2696 62.105 70.3796 61.825 70.3796 61.485C70.3796 61.145 70.2696 60.87 70.0496 60.66C69.8296 60.44 69.5446 60.33 69.1946 60.33C68.8546 60.33 68.5746 60.44 68.3546 60.66C68.1346 60.87 68.0246 61.145 68.0246 61.485C68.0246 61.825 68.1346 62.105 68.3546 62.325C68.5746 62.545 68.8546 62.655 69.1946 62.655ZM72.7838 59.775C72.7838 59.105 72.9738 58.585 73.3538 58.215C73.7338 57.845 74.2638 57.66 74.9438 57.66C75.5138 57.66 75.9738 57.815 76.3238 58.125C76.6838 58.435 76.8638 58.835 76.8638 59.325C76.8638 59.805 76.7088 60.195 76.3988 60.495C76.0888 60.795 75.6838 60.945 75.1838 60.945C74.9838 60.945 74.7938 60.915 74.6138 60.855C74.4338 60.785 74.2988 60.7 74.2088 60.6V62.385H79.3688V57.555C79.3688 56.765 79.0988 56.14 78.5588 55.68C78.0288 55.21 77.3188 54.975 76.4288 54.975C75.5688 54.975 74.8688 55.19 74.3288 55.62C73.7888 56.05 73.4938 56.625 73.4438 57.345H72.0938C72.1338 56.765 72.3338 56.255 72.6938 55.815C73.0638 55.375 73.5638 55.04 74.1938 54.81C74.8338 54.57 75.5688 54.45 76.3988 54.45C77.2888 54.45 78.0638 54.585 78.7238 54.855C79.3938 55.125 79.9088 55.51 80.2688 56.01C80.6288 56.5 80.8088 57.075 80.8088 57.735V63H72.7838V59.775ZM75.1238 60.465C75.4638 60.465 75.7438 60.36 75.9638 60.15C76.1838 59.93 76.2938 59.65 76.2938 59.31C76.2938 58.96 76.1838 58.68 75.9638 58.47C75.7538 58.25 75.4738 58.14 75.1238 58.14C74.7838 58.14 74.5038 58.25 74.2838 58.47C74.0738 58.69 73.9688 58.97 73.9688 59.31C73.9688 59.65 74.0738 59.93 74.2838 60.15C74.5038 60.36 74.7838 60.465 75.1238 60.465ZM87.8238 57.165C87.8238 56.505 87.6288 55.975 87.2388 55.575C86.8588 55.175 86.3338 54.975 85.6638 54.975C85.0438 54.975 84.5288 55.165 84.1188 55.545C83.7188 55.915 83.4838 56.43 83.4138 57.09H82.0488C82.1188 56.29 82.4738 55.65 83.1138 55.17C83.7638 54.69 84.6138 54.45 85.6638 54.45C86.7538 54.45 87.6238 54.71 88.2738 55.23C88.9338 55.75 89.2638 56.46 89.2638 57.36V63H87.8238V57.165ZM92.2406 59.88C93.2006 59.59 93.9156 59.22 94.3856 58.77C94.8556 58.31 95.0906 57.755 95.0906 57.105C95.0906 56.485 94.9106 55.985 94.5506 55.605C94.2006 55.215 93.7456 55.02 93.1856 55.02C92.8156 55.02 92.4806 55.105 92.1806 55.275C91.8806 55.445 91.6756 55.665 91.5656 55.935C91.6756 55.845 91.8156 55.775 91.9856 55.725C92.1656 55.665 92.3456 55.635 92.5256 55.635C93.0056 55.635 93.4006 55.79 93.7106 56.1C94.0206 56.4 94.1756 56.79 94.1756 57.27C94.1756 57.75 94.0156 58.145 93.6956 58.455C93.3756 58.765 92.9656 58.92 92.4656 58.92C91.8856 58.92 91.4156 58.73 91.0556 58.35C90.6956 57.96 90.5156 57.46 90.5156 56.85C90.5156 56.12 90.7656 55.54 91.2656 55.11C91.7756 54.67 92.4556 54.45 93.3056 54.45C94.1956 54.45 94.9056 54.69 95.4356 55.17C95.9656 55.64 96.2306 56.27 96.2306 57.06C96.2306 58.44 95.3806 59.445 93.6806 60.075V62.37H97.8356V58.2C97.8356 57.9 97.7406 57.64 97.5506 57.42C97.3606 57.2 97.1056 57.045 96.7856 56.955V56.625C97.1456 56.465 97.4156 56.2 97.5956 55.83C97.7856 55.46 97.8806 55 97.8806 54.45H99.6056C99.5156 55.69 98.9756 56.46 97.9856 56.76C98.3956 56.89 98.7106 57.08 98.9306 57.33C99.1606 57.57 99.2756 57.85 99.2756 58.17V63H92.2406V59.88ZM92.4806 58.44C92.8306 58.44 93.1106 58.33 93.3206 58.11C93.5406 57.89 93.6506 57.61 93.6506 57.27C93.6506 56.93 93.5406 56.65 93.3206 56.43C93.1006 56.21 92.8206 56.1 92.4806 56.1C92.1406 56.1 91.8606 56.21 91.6406 56.43C91.4206 56.65 91.3106 56.93 91.3106 57.27C91.3106 57.61 91.4206 57.89 91.6406 58.11C91.8606 58.33 92.1406 58.44 92.4806 58.44ZM99.2755 49.785V53.07H91.5055C91.5455 52.54 91.7355 52.07 92.0755 51.66C92.4055 51.24 92.8555 50.915 93.4255 50.685C93.9955 50.455 94.6305 50.34 95.3305 50.34C96.3005 50.34 97.1555 50.565 97.8955 51.015V49.785H99.2755ZM98.0305 52.575C97.9605 52.085 97.6755 51.685 97.1755 51.375C96.6755 51.065 96.0605 50.91 95.3305 50.91C94.5905 50.91 93.9755 51.065 93.4855 51.375C92.9955 51.675 92.7155 52.075 92.6455 52.575H98.0305ZM111.335 54.6V63H109.595L107.24 56.28L104.87 63H103.13V57.405C103.04 57.495 102.905 57.575 102.725 57.645C102.555 57.705 102.375 57.735 102.185 57.735C101.685 57.735 101.28 57.585 100.97 57.285C100.66 56.985 100.505 56.59 100.505 56.1C100.505 55.61 100.68 55.215 101.03 54.915C101.38 54.605 101.84 54.45 102.41 54.45C103.09 54.45 103.62 54.635 104 55.005C104.38 55.375 104.57 55.895 104.57 56.565V61.455L106.955 54.855H107.525L109.895 61.32V54.6H111.335ZM102.23 57.255C102.58 57.255 102.86 57.145 103.07 56.925C103.29 56.705 103.4 56.425 103.4 56.085C103.4 55.745 103.29 55.47 103.07 55.26C102.85 55.04 102.57 54.93 102.23 54.93C101.89 54.93 101.61 55.04 101.39 55.26C101.17 55.47 101.06 55.745 101.06 56.085C101.06 56.425 101.17 56.705 101.39 56.925C101.61 57.145 101.89 57.255 102.23 57.255ZM121.051 54.6C121.541 54.6 121.911 54.715 122.161 54.945C122.421 55.175 122.551 55.51 122.551 55.95V63H121.111V55.83C121.111 55.67 121.066 55.545 120.976 55.455C120.886 55.365 120.756 55.32 120.586 55.32H120.001L116.641 63H115.186V57.42C115.096 57.52 114.966 57.6 114.796 57.66C114.626 57.71 114.441 57.735 114.241 57.735C113.741 57.735 113.336 57.585 113.026 57.285C112.716 56.985 112.561 56.59 112.561 56.1C112.561 55.61 112.736 55.215 113.086 54.915C113.436 54.605 113.896 54.45 114.466 54.45C115.146 54.45 115.676 54.635 116.056 55.005C116.436 55.375 116.626 55.895 116.626 56.565V61.35L119.566 54.6H121.051ZM114.286 57.255C114.636 57.255 114.916 57.145 115.126 56.925C115.346 56.705 115.456 56.425 115.456 56.085C115.456 55.745 115.346 55.47 115.126 55.26C114.906 55.04 114.626 54.93 114.286 54.93C113.946 54.93 113.666 55.04 113.446 55.26C113.226 55.47 113.116 55.745 113.116 56.085C113.116 56.425 113.226 56.705 113.446 56.925C113.666 57.145 113.946 57.255 114.286 57.255ZM122.552 49.785V53.07H114.782C114.822 52.54 115.012 52.07 115.352 51.66C115.682 51.24 116.132 50.915 116.702 50.685C117.272 50.455 117.907 50.34 118.607 50.34C119.577 50.34 120.432 50.565 121.172 51.015V49.785H122.552ZM121.307 52.575C121.237 52.085 120.952 51.685 120.452 51.375C119.952 51.065 119.337 50.91 118.607 50.91C117.867 50.91 117.252 51.065 116.762 51.375C116.272 51.675 115.992 52.075 115.922 52.575H121.307ZM121.232 46.44H122.507V49.11H121.232V46.44ZM127.322 63.15C126.662 63.15 126.137 62.97 125.747 62.61C125.357 62.25 125.162 61.725 125.162 61.035V54.6H126.602V60.195C126.702 60.095 126.837 60.015 127.007 59.955C127.177 59.895 127.362 59.865 127.562 59.865C128.062 59.865 128.462 60.015 128.762 60.315C129.072 60.615 129.227 61.01 129.227 61.5C129.227 62 129.052 62.4 128.702 62.7C128.352 63 127.892 63.15 127.322 63.15ZM127.502 62.67C127.842 62.67 128.122 62.565 128.342 62.355C128.562 62.135 128.672 61.855 128.672 61.515C128.672 61.165 128.562 60.885 128.342 60.675C128.132 60.455 127.852 60.345 127.502 60.345C127.162 60.345 126.882 60.455 126.662 60.675C126.452 60.895 126.347 61.175 126.347 61.515C126.347 61.855 126.452 62.135 126.662 62.355C126.882 62.565 127.162 62.67 127.502 62.67ZM130.806 59.67C130.806 59.2 130.911 58.805 131.121 58.485C131.341 58.165 131.656 57.935 132.066 57.795H130.341C130.371 57.115 130.566 56.525 130.926 56.025C131.286 55.515 131.781 55.125 132.411 54.855C133.041 54.585 133.766 54.45 134.586 54.45C135.376 54.45 136.071 54.57 136.671 54.81C137.271 55.05 137.731 55.395 138.051 55.845C138.381 56.285 138.546 56.795 138.546 57.375V63H137.106V57.225C137.106 56.525 136.876 55.975 136.416 55.575C135.966 55.175 135.351 54.975 134.571 54.975C133.751 54.975 133.086 55.18 132.576 55.59C132.066 55.99 131.781 56.545 131.721 57.255H133.686V57.735C133.186 57.835 132.821 58.015 132.591 58.275C132.361 58.535 132.246 58.905 132.246 59.385V63H130.806V59.67ZM138.401 49.785V53.07H130.631C130.671 52.54 130.861 52.07 131.201 51.66C131.531 51.24 131.981 50.915 132.551 50.685C133.121 50.455 133.756 50.34 134.456 50.34C135.426 50.34 136.281 50.565 137.021 51.015V49.785H138.401ZM137.156 52.575C137.086 52.085 136.801 51.685 136.301 51.375C135.801 51.065 135.186 50.91 134.456 50.91C133.716 50.91 133.101 51.065 132.611 51.375C132.121 51.675 131.841 52.075 131.771 52.575H137.156ZM137.081 46.44H138.356V49.11H137.081V46.44ZM148.643 54.6V63H140.978V61.05C140.978 60.67 141.123 60.33 141.413 60.03C141.703 59.73 142.093 59.51 142.583 59.37C141.903 59.2 141.373 58.9 140.993 58.47C140.623 58.04 140.438 57.515 140.438 56.895C140.438 56.165 140.698 55.575 141.218 55.125C141.738 54.675 142.418 54.45 143.258 54.45C143.938 54.45 144.493 54.62 144.923 54.96C145.353 55.3 145.568 55.745 145.568 56.295C145.568 56.795 145.403 57.2 145.073 57.51C144.753 57.82 144.333 57.975 143.813 57.975C143.293 57.975 142.868 57.825 142.538 57.525C142.208 57.215 142.043 56.815 142.043 56.325C142.043 56.015 142.158 55.745 142.388 55.515C141.978 55.815 141.773 56.275 141.773 56.895C141.773 58.275 142.708 58.965 144.578 58.965H144.713V59.58H144.593C143.893 59.58 143.353 59.715 142.973 59.985C142.603 60.245 142.418 60.625 142.418 61.125V62.37H147.203V54.6H148.643ZM143.798 55.155C143.458 55.155 143.178 55.265 142.958 55.485C142.738 55.705 142.628 55.985 142.628 56.325C142.628 56.665 142.738 56.945 142.958 57.165C143.178 57.385 143.458 57.495 143.798 57.495C144.148 57.495 144.433 57.385 144.653 57.165C144.873 56.945 144.983 56.665 144.983 56.325C144.983 55.985 144.873 55.705 144.653 55.485C144.433 55.265 144.148 55.155 143.798 55.155ZM155.121 63.15C154.561 63.15 154.111 63 153.771 62.7C153.431 62.39 153.261 61.99 153.261 61.5C153.261 61.01 153.421 60.615 153.741 60.315C154.061 60.015 154.471 59.865 154.971 59.865C155.151 59.865 155.326 59.9 155.496 59.97C155.666 60.03 155.801 60.105 155.901 60.195V57.24C155.901 56.54 155.691 55.99 155.271 55.59C154.861 55.19 154.296 54.99 153.576 54.99C152.856 54.99 152.276 55.2 151.836 55.62C151.406 56.04 151.176 56.615 151.146 57.345H149.781C149.831 56.435 150.196 55.725 150.876 55.215C151.566 54.705 152.491 54.45 153.651 54.45C154.831 54.45 155.741 54.705 156.381 55.215C157.021 55.715 157.341 56.43 157.341 57.36V61.02C157.341 61.7 157.146 62.225 156.756 62.595C156.366 62.965 155.821 63.15 155.121 63.15ZM154.986 62.67C155.326 62.67 155.606 62.565 155.826 62.355C156.046 62.135 156.156 61.855 156.156 61.515C156.156 61.165 156.046 60.885 155.826 60.675C155.616 60.455 155.336 60.345 154.986 60.345C154.646 60.345 154.366 60.455 154.146 60.675C153.936 60.895 153.831 61.175 153.831 61.515C153.831 61.855 153.936 62.135 154.146 62.355C154.366 62.565 154.646 62.67 154.986 62.67ZM160.312 59.88C161.272 59.59 161.987 59.22 162.457 58.77C162.927 58.31 163.162 57.755 163.162 57.105C163.162 56.485 162.982 55.985 162.622 55.605C162.272 55.215 161.817 55.02 161.257 55.02C160.887 55.02 160.552 55.105 160.252 55.275C159.952 55.445 159.747 55.665 159.637 55.935C159.747 55.845 159.887 55.775 160.057 55.725C160.237 55.665 160.417 55.635 160.597 55.635C161.077 55.635 161.472 55.79 161.782 56.1C162.092 56.4 162.247 56.79 162.247 57.27C162.247 57.75 162.087 58.145 161.767 58.455C161.447 58.765 161.037 58.92 160.537 58.92C159.957 58.92 159.487 58.73 159.127 58.35C158.767 57.96 158.587 57.46 158.587 56.85C158.587 56.12 158.837 55.54 159.337 55.11C159.847 54.67 160.527 54.45 161.377 54.45C162.267 54.45 162.977 54.69 163.507 55.17C164.037 55.64 164.302 56.27 164.302 57.06C164.302 58.44 163.452 59.445 161.752 60.075V62.37H165.727V54.6H167.167V63H160.312V59.88ZM160.552 58.44C160.902 58.44 161.182 58.33 161.392 58.11C161.612 57.89 161.722 57.61 161.722 57.27C161.722 56.93 161.612 56.65 161.392 56.43C161.172 56.21 160.892 56.1 160.552 56.1C160.212 56.1 159.932 56.21 159.712 56.43C159.492 56.65 159.382 56.93 159.382 57.27C159.382 57.61 159.492 57.89 159.712 58.11C159.932 58.33 160.212 58.44 160.552 58.44ZM163.151 52.89C163.721 52.49 164.131 52.06 164.381 51.6C164.301 51.65 164.201 51.69 164.081 51.72C163.961 51.75 163.846 51.765 163.736 51.765C163.366 51.765 163.066 51.655 162.836 51.435C162.596 51.205 162.476 50.915 162.476 50.565C162.476 50.185 162.601 49.88 162.851 49.65C163.091 49.42 163.411 49.305 163.811 49.305C164.251 49.305 164.596 49.42 164.846 49.65C165.096 49.87 165.221 50.175 165.221 50.565C165.221 51.265 164.941 51.925 164.381 52.545C165.241 52.265 165.931 51.88 166.451 51.39C166.961 50.89 167.291 50.32 167.441 49.68H168.656C168.546 50.29 168.231 50.855 167.711 51.375C167.181 51.895 166.526 52.32 165.746 52.65C164.966 52.97 164.141 53.16 163.271 53.22L163.151 52.89ZM163.736 51.315C163.966 51.315 164.151 51.245 164.291 51.105C164.431 50.965 164.501 50.785 164.501 50.565C164.501 50.335 164.431 50.15 164.291 50.01C164.141 49.86 163.956 49.785 163.736 49.785C163.516 49.785 163.336 49.86 163.196 50.01C163.046 50.15 162.971 50.335 162.971 50.565C162.971 50.785 163.041 50.965 163.181 51.105C163.321 51.245 163.506 51.315 163.736 51.315ZM169.361 59.775C169.361 59.105 169.551 58.585 169.931 58.215C170.311 57.845 170.841 57.66 171.521 57.66C172.091 57.66 172.551 57.815 172.901 58.125C173.261 58.435 173.441 58.835 173.441 59.325C173.441 59.805 173.286 60.195 172.976 60.495C172.666 60.795 172.261 60.945 171.761 60.945C171.561 60.945 171.371 60.915 171.191 60.855C171.011 60.785 170.876 60.7 170.786 60.6V62.385H175.946V57.555C175.946 56.765 175.676 56.14 175.136 55.68C174.606 55.21 173.896 54.975 173.006 54.975C172.146 54.975 171.446 55.19 170.906 55.62C170.366 56.05 170.071 56.625 170.021 57.345H168.671C168.711 56.765 168.911 56.255 169.271 55.815C169.641 55.375 170.141 55.04 170.771 54.81C171.411 54.57 172.146 54.45 172.976 54.45C173.866 54.45 174.641 54.585 175.301 54.855C175.971 55.125 176.486 55.51 176.846 56.01C177.206 56.5 177.386 57.075 177.386 57.735V63H169.361V59.775ZM171.701 60.465C172.041 60.465 172.321 60.36 172.541 60.15C172.761 59.93 172.871 59.65 172.871 59.31C172.871 58.96 172.761 58.68 172.541 58.47C172.331 58.25 172.051 58.14 171.701 58.14C171.361 58.14 171.081 58.25 170.861 58.47C170.651 58.69 170.546 58.97 170.546 59.31C170.546 59.65 170.651 59.93 170.861 60.15C171.081 60.36 171.361 60.465 171.701 60.465ZM181.581 63C181.421 62 181.071 61.035 180.531 60.105C179.991 59.175 179.351 58.43 178.611 57.87L179.721 57.075C180.411 57.525 181.021 58.22 181.551 59.16C182.081 60.09 182.466 61.16 182.706 62.37H184.941V57.42C184.841 57.52 184.706 57.6 184.536 57.66C184.366 57.71 184.181 57.735 183.981 57.735C183.481 57.735 183.076 57.585 182.766 57.285C182.456 56.985 182.301 56.59 182.301 56.1C182.301 55.61 182.476 55.215 182.826 54.915C183.176 54.605 183.641 54.45 184.221 54.45C184.901 54.45 185.431 54.635 185.811 55.005C186.191 55.375 186.381 55.895 186.381 56.565V63H181.581ZM184.026 57.255C184.376 57.255 184.656 57.145 184.866 56.925C185.086 56.705 185.196 56.425 185.196 56.085C185.196 55.745 185.086 55.47 184.866 55.26C184.646 55.04 184.366 54.93 184.026 54.93C183.686 54.93 183.406 55.04 183.186 55.26C182.976 55.47 182.871 55.745 182.871 56.085C182.871 56.425 182.976 56.705 183.186 56.925C183.406 57.145 183.686 57.255 184.026 57.255ZM195.129 63.15C194.469 63.15 193.944 62.97 193.554 62.61C193.164 62.25 192.969 61.725 192.969 61.035V54.6H194.409V60.195C194.509 60.095 194.644 60.015 194.814 59.955C194.984 59.895 195.169 59.865 195.369 59.865C195.869 59.865 196.269 60.015 196.569 60.315C196.879 60.615 197.034 61.01 197.034 61.5C197.034 62 196.859 62.4 196.509 62.7C196.159 63 195.699 63.15 195.129 63.15ZM195.309 62.67C195.649 62.67 195.929 62.565 196.149 62.355C196.369 62.135 196.479 61.855 196.479 61.515C196.479 61.165 196.369 60.885 196.149 60.675C195.939 60.455 195.659 60.345 195.309 60.345C194.969 60.345 194.689 60.455 194.469 60.675C194.259 60.895 194.154 61.175 194.154 61.515C194.154 61.855 194.259 62.135 194.469 62.355C194.689 62.565 194.969 62.67 195.309 62.67ZM199.409 59.88C200.369 59.59 201.084 59.22 201.554 58.77C202.024 58.31 202.259 57.755 202.259 57.105C202.259 56.485 202.079 55.985 201.719 55.605C201.369 55.215 200.914 55.02 200.354 55.02C199.984 55.02 199.649 55.105 199.349 55.275C199.049 55.445 198.844 55.665 198.734 55.935C198.844 55.845 198.984 55.775 199.154 55.725C199.334 55.665 199.514 55.635 199.694 55.635C200.174 55.635 200.569 55.79 200.879 56.1C201.189 56.4 201.344 56.79 201.344 57.27C201.344 57.75 201.184 58.145 200.864 58.455C200.544 58.765 200.134 58.92 199.634 58.92C199.054 58.92 198.584 58.73 198.224 58.35C197.864 57.96 197.684 57.46 197.684 56.85C197.684 56.12 197.934 55.54 198.434 55.11C198.944 54.67 199.624 54.45 200.474 54.45C201.364 54.45 202.074 54.69 202.604 55.17C203.134 55.64 203.399 56.27 203.399 57.06C203.399 58.44 202.549 59.445 200.849 60.075V62.37H205.004V58.2C205.004 57.9 204.909 57.64 204.719 57.42C204.529 57.2 204.274 57.045 203.954 56.955V56.625C204.314 56.465 204.584 56.2 204.764 55.83C204.954 55.46 205.049 55 205.049 54.45H206.774C206.684 55.69 206.144 56.46 205.154 56.76C205.564 56.89 205.879 57.08 206.099 57.33C206.329 57.57 206.444 57.85 206.444 58.17V63H199.409V59.88ZM199.649 58.44C199.999 58.44 200.279 58.33 200.489 58.11C200.709 57.89 200.819 57.61 200.819 57.27C200.819 56.93 200.709 56.65 200.489 56.43C200.269 56.21 199.989 56.1 199.649 56.1C199.309 56.1 199.029 56.21 198.809 56.43C198.589 56.65 198.479 56.93 198.479 57.27C198.479 57.61 198.589 57.89 198.809 58.11C199.029 58.33 199.309 58.44 199.649 58.44ZM205.063 49.89H206.383V53.07H205.063V49.89ZM216.733 59.925C217.073 60.035 217.343 60.23 217.543 60.51C217.753 60.79 217.858 61.12 217.858 61.5C217.858 61.99 217.693 62.39 217.363 62.7C217.043 63 216.628 63.15 216.118 63.15C215.618 63.15 215.203 63 214.873 62.7C214.553 62.39 214.393 61.99 214.393 61.5C214.393 61.22 214.443 60.98 214.543 60.78C213.973 61.08 213.448 61.42 212.968 61.8C212.498 62.18 212.103 62.58 211.783 63H210.298V57.42C210.208 57.52 210.078 57.6 209.908 57.66C209.738 57.71 209.553 57.735 209.353 57.735C208.863 57.735 208.458 57.585 208.138 57.285C207.828 56.975 207.673 56.58 207.673 56.1C207.673 55.61 207.843 55.215 208.183 54.915C208.533 54.605 208.993 54.45 209.563 54.45C210.243 54.45 210.773 54.64 211.153 55.02C211.543 55.39 211.738 55.905 211.738 56.565V61.86C212.208 61.37 212.853 60.9 213.673 60.45C214.493 59.99 215.293 59.66 216.073 59.46V54.6H217.513V59.775C217.323 59.795 217.063 59.845 216.733 59.925ZM209.398 57.255C209.748 57.255 210.028 57.145 210.238 56.925C210.458 56.705 210.568 56.425 210.568 56.085C210.568 55.745 210.458 55.47 210.238 55.26C210.018 55.04 209.738 54.93 209.398 54.93C209.058 54.93 208.778 55.04 208.558 55.26C208.338 55.47 208.228 55.745 208.228 56.085C208.228 56.425 208.338 56.705 208.558 56.925C208.778 57.145 209.058 57.255 209.398 57.255ZM216.118 62.655C216.468 62.655 216.753 62.545 216.973 62.325C217.193 62.105 217.303 61.825 217.303 61.485C217.303 61.145 217.193 60.87 216.973 60.66C216.753 60.44 216.468 60.33 216.118 60.33C215.778 60.33 215.498 60.44 215.278 60.66C215.058 60.87 214.948 61.145 214.948 61.485C214.948 61.825 215.058 62.105 215.278 62.325C215.498 62.545 215.778 62.655 216.118 62.655ZM65.5909 79.925C65.9309 80.035 66.2009 80.23 66.4009 80.51C66.6109 80.79 66.7159 81.12 66.7159 81.5C66.7159 81.99 66.5509 82.39 66.2209 82.7C65.9009 83 65.4859 83.15 64.9759 83.15C64.4759 83.15 64.0609 83 63.7309 82.7C63.4109 82.39 63.2509 81.99 63.2509 81.5C63.2509 81.22 63.3009 80.98 63.4009 80.78C62.8309 81.08 62.3059 81.42 61.8259 81.8C61.3559 82.18 60.9609 82.58 60.6409 83H59.1559V77.42C59.0659 77.52 58.9359 77.6 58.7659 77.66C58.5959 77.71 58.4109 77.735 58.2109 77.735C57.7209 77.735 57.3159 77.585 56.9959 77.285C56.6859 76.975 56.5309 76.58 56.5309 76.1C56.5309 75.61 56.7009 75.215 57.0409 74.915C57.3909 74.605 57.8509 74.45 58.4209 74.45C59.1009 74.45 59.6309 74.64 60.0109 75.02C60.4009 75.39 60.5959 75.905 60.5959 76.565V81.86C61.0659 81.37 61.7109 80.9 62.5309 80.45C63.3509 79.99 64.1509 79.66 64.9309 79.46V74.6H66.3709V79.775C66.1809 79.795 65.9209 79.845 65.5909 79.925ZM58.2559 77.255C58.6059 77.255 58.8859 77.145 59.0959 76.925C59.3159 76.705 59.4259 76.425 59.4259 76.085C59.4259 75.745 59.3159 75.47 59.0959 75.26C58.8759 75.04 58.5959 74.93 58.2559 74.93C57.9159 74.93 57.6359 75.04 57.4159 75.26C57.1959 75.47 57.0859 75.745 57.0859 76.085C57.0859 76.425 57.1959 76.705 57.4159 76.925C57.6359 77.145 57.9159 77.255 58.2559 77.255ZM64.9759 82.655C65.3259 82.655 65.6109 82.545 65.8309 82.325C66.0509 82.105 66.1609 81.825 66.1609 81.485C66.1609 81.145 66.0509 80.87 65.8309 80.66C65.6109 80.44 65.3259 80.33 64.9759 80.33C64.6359 80.33 64.3559 80.44 64.1359 80.66C63.9159 80.87 63.8059 81.145 63.8059 81.485C63.8059 81.825 63.9159 82.105 64.1359 82.325C64.3559 82.545 64.6359 82.655 64.9759 82.655ZM64.3801 73.25C63.4501 73.25 62.7151 73.085 62.1751 72.755C61.6251 72.425 61.3501 71.975 61.3501 71.405C61.3501 70.975 61.4951 70.625 61.7851 70.355C62.0651 70.075 62.4251 69.935 62.8651 69.935C63.3251 69.935 63.7001 70.075 63.9901 70.355C64.2801 70.625 64.4251 70.975 64.4251 71.405C64.4251 71.715 64.3351 71.995 64.1551 72.245C63.9651 72.485 63.7251 72.645 63.4351 72.725C63.6651 72.765 63.9251 72.785 64.2151 72.785C64.7751 72.785 65.2801 72.665 65.7301 72.425C66.1801 72.185 66.5351 71.855 66.7951 71.435C67.0451 71.005 67.1701 70.515 67.1701 69.965H68.5201C68.5201 70.605 68.3401 71.175 67.9801 71.675C67.6201 72.175 67.1301 72.565 66.5101 72.845C65.8801 73.115 65.1701 73.25 64.3801 73.25ZM62.8651 72.395C63.1751 72.395 63.4251 72.305 63.6151 72.125C63.8051 71.935 63.9001 71.695 63.9001 71.405C63.9001 71.105 63.8051 70.865 63.6151 70.685C63.4251 70.505 63.1751 70.415 62.8651 70.415C62.5751 70.415 62.3401 70.505 62.1601 70.685C61.9701 70.865 61.8751 71.105 61.8751 71.405C61.8751 71.695 61.9701 71.935 62.1601 72.125C62.3401 72.305 62.5751 72.395 62.8651 72.395ZM68.5501 79.67C68.5501 79.2 68.6551 78.805 68.8651 78.485C69.0851 78.165 69.4001 77.935 69.8101 77.795H68.0851C68.1151 77.115 68.3101 76.525 68.6701 76.025C69.0301 75.515 69.5251 75.125 70.1551 74.855C70.7851 74.585 71.5101 74.45 72.3301 74.45C73.1201 74.45 73.8151 74.57 74.4151 74.81C75.0151 75.05 75.4751 75.395 75.7951 75.845C76.1251 76.285 76.2901 76.795 76.2901 77.375V83H74.8501V77.225C74.8501 76.525 74.6201 75.975 74.1601 75.575C73.7101 75.175 73.0951 74.975 72.3151 74.975C71.4951 74.975 70.8301 75.18 70.3201 75.59C69.8101 75.99 69.5251 76.545 69.4651 77.255H71.4301V77.735C70.9301 77.835 70.5651 78.015 70.3351 78.275C70.1051 78.535 69.9901 78.905 69.9901 79.385V83H68.5501V79.67ZM78.4821 79.775C78.4821 79.105 78.6721 78.585 79.0521 78.215C79.4321 77.845 79.9621 77.66 80.6421 77.66C81.2121 77.66 81.6721 77.815 82.0221 78.125C82.3821 78.435 82.5621 78.835 82.5621 79.325C82.5621 79.805 82.4071 80.195 82.0971 80.495C81.7871 80.795 81.3821 80.945 80.8821 80.945C80.6821 80.945 80.4921 80.915 80.3121 80.855C80.1321 80.785 79.9971 80.7 79.9071 80.6V82.385H85.0671V77.555C85.0671 76.765 84.7971 76.14 84.2571 75.68C83.7271 75.21 83.0171 74.975 82.1271 74.975C81.2671 74.975 80.5671 75.19 80.0271 75.62C79.4871 76.05 79.1921 76.625 79.1421 77.345H77.7921C77.8321 76.765 78.0321 76.255 78.3921 75.815C78.7621 75.375 79.2621 75.04 79.8921 74.81C80.5321 74.57 81.2671 74.45 82.0971 74.45C82.9871 74.45 83.7621 74.585 84.4221 74.855C85.0921 75.125 85.6071 75.51 85.9671 76.01C86.3271 76.5 86.5071 77.075 86.5071 77.735V83H78.4821V79.775ZM80.8221 80.465C81.1621 80.465 81.4421 80.36 81.6621 80.15C81.8821 79.93 81.9921 79.65 81.9921 79.31C81.9921 78.96 81.8821 78.68 81.6621 78.47C81.4521 78.25 81.1721 78.14 80.8221 78.14C80.4821 78.14 80.2021 78.25 79.9821 78.47C79.7721 78.69 79.6671 78.97 79.6671 79.31C79.6671 79.65 79.7721 79.93 79.9821 80.15C80.2021 80.36 80.4821 80.465 80.8221 80.465ZM88.692 79.775C88.692 79.105 88.882 78.585 89.262 78.215C89.642 77.845 90.172 77.66 90.852 77.66C91.422 77.66 91.882 77.815 92.232 78.125C92.592 78.435 92.772 78.835 92.772 79.325C92.772 79.805 92.617 80.195 92.307 80.495C91.997 80.795 91.592 80.945 91.092 80.945C90.892 80.945 90.702 80.915 90.522 80.855C90.342 80.785 90.207 80.7 90.117 80.6V82.385H95.277V77.555C95.277 76.765 95.007 76.14 94.467 75.68C93.937 75.21 93.227 74.975 92.337 74.975C91.477 74.975 90.777 75.19 90.237 75.62C89.697 76.05 89.402 76.625 89.352 77.345H88.002C88.042 76.765 88.242 76.255 88.602 75.815C88.972 75.375 89.472 75.04 90.102 74.81C90.742 74.57 91.477 74.45 92.307 74.45C93.197 74.45 93.972 74.585 94.632 74.855C95.302 75.125 95.817 75.51 96.177 76.01C96.537 76.5 96.717 77.075 96.717 77.735V83H88.692V79.775ZM91.032 80.465C91.372 80.465 91.652 80.36 91.872 80.15C92.092 79.93 92.202 79.65 92.202 79.31C92.202 78.96 92.092 78.68 91.872 78.47C91.662 78.25 91.382 78.14 91.032 78.14C90.692 78.14 90.412 78.25 90.192 78.47C89.982 78.69 89.877 78.97 89.877 79.31C89.877 79.65 89.982 79.93 90.192 80.15C90.412 80.36 90.692 80.465 91.032 80.465ZM98.887 79.67C98.887 79.2 98.992 78.805 99.202 78.485C99.422 78.165 99.737 77.935 100.147 77.795H98.422C98.452 77.115 98.647 76.525 99.007 76.025C99.367 75.515 99.862 75.125 100.492 74.855C101.122 74.585 101.847 74.45 102.667 74.45C103.457 74.45 104.152 74.57 104.752 74.81C105.352 75.05 105.812 75.395 106.132 75.845C106.462 76.285 106.627 76.795 106.627 77.375V83H105.187V77.225C105.187 76.525 104.957 75.975 104.497 75.575C104.047 75.175 103.432 74.975 102.652 74.975C101.832 74.975 101.167 75.18 100.657 75.59C100.147 75.99 99.862 76.545 99.802 77.255H101.767V77.735C101.267 77.835 100.902 78.015 100.672 78.275C100.442 78.535 100.327 78.905 100.327 79.385V83H98.887V79.67ZM111.399 83.15C110.739 83.15 110.214 82.97 109.824 82.61C109.434 82.25 109.239 81.725 109.239 81.035V74.6H110.679V80.195C110.779 80.095 110.914 80.015 111.084 79.955C111.254 79.895 111.439 79.865 111.639 79.865C112.139 79.865 112.539 80.015 112.839 80.315C113.149 80.615 113.304 81.01 113.304 81.5C113.304 82 113.129 82.4 112.779 82.7C112.429 83 111.969 83.15 111.399 83.15ZM116.319 83.15C115.649 83.15 115.119 82.97 114.729 82.61C114.339 82.25 114.144 81.725 114.144 81.035V74.6H115.599V80.195C115.689 80.105 115.819 80.03 115.989 79.97C116.159 79.9 116.344 79.865 116.544 79.865C117.044 79.865 117.444 80.015 117.744 80.315C118.054 80.615 118.209 81.01 118.209 81.5C118.209 82 118.034 82.4 117.684 82.7C117.344 83 116.889 83.15 116.319 83.15ZM111.579 82.67C111.919 82.67 112.199 82.565 112.419 82.355C112.639 82.135 112.749 81.855 112.749 81.515C112.749 81.165 112.639 80.885 112.419 80.675C112.209 80.455 111.929 80.345 111.579 80.345C111.239 80.345 110.959 80.455 110.739 80.675C110.529 80.895 110.424 81.175 110.424 81.515C110.424 81.855 110.529 82.135 110.739 82.355C110.959 82.565 111.239 82.67 111.579 82.67ZM116.499 82.67C116.839 82.67 117.119 82.565 117.339 82.355C117.559 82.135 117.669 81.855 117.669 81.515C117.669 81.165 117.559 80.885 117.339 80.675C117.129 80.455 116.849 80.345 116.499 80.345C116.159 80.345 115.879 80.455 115.659 80.675C115.439 80.895 115.329 81.175 115.329 81.515C115.329 81.855 115.439 82.135 115.659 82.355C115.879 82.565 116.159 82.67 116.499 82.67ZM121.485 77.405C121.395 77.495 121.26 77.575 121.08 77.645C120.91 77.705 120.73 77.735 120.54 77.735C120.04 77.735 119.635 77.585 119.325 77.285C119.015 76.985 118.86 76.59 118.86 76.1C118.86 75.61 119.035 75.215 119.385 74.915C119.735 74.605 120.195 74.45 120.765 74.45C121.445 74.45 121.975 74.635 122.355 75.005C122.735 75.375 122.925 75.895 122.925 76.565V82.43H127.185V74.6H128.625V83H121.485V77.405ZM120.585 77.255C120.935 77.255 121.215 77.145 121.425 76.925C121.645 76.705 121.755 76.425 121.755 76.085C121.755 75.745 121.645 75.47 121.425 75.26C121.205 75.04 120.925 74.93 120.585 74.93C120.245 74.93 119.965 75.04 119.745 75.26C119.525 75.47 119.415 75.745 119.415 76.085C119.415 76.425 119.525 76.705 119.745 76.925C119.965 77.145 120.245 77.255 120.585 77.255ZM132.486 77.405C132.396 77.495 132.261 77.575 132.081 77.645C131.911 77.705 131.731 77.735 131.541 77.735C131.041 77.735 130.636 77.585 130.326 77.285C130.016 76.985 129.861 76.59 129.861 76.1C129.861 75.61 130.036 75.215 130.386 74.915C130.736 74.605 131.196 74.45 131.766 74.45C132.446 74.45 132.976 74.635 133.356 75.005C133.736 75.375 133.926 75.895 133.926 76.565V82.43H138.186V74.6H139.626V83H132.486V77.405ZM131.586 77.255C131.936 77.255 132.216 77.145 132.426 76.925C132.646 76.705 132.756 76.425 132.756 76.085C132.756 75.745 132.646 75.47 132.426 75.26C132.206 75.04 131.926 74.93 131.586 74.93C131.246 74.93 130.966 75.04 130.746 75.26C130.526 75.47 130.416 75.745 130.416 76.085C130.416 76.425 130.526 76.705 130.746 76.925C130.966 77.145 131.246 77.255 131.586 77.255ZM143.487 77.405C143.397 77.495 143.262 77.575 143.082 77.645C142.912 77.705 142.732 77.735 142.542 77.735C142.042 77.735 141.637 77.585 141.327 77.285C141.017 76.985 140.862 76.59 140.862 76.1C140.862 75.61 141.037 75.215 141.387 74.915C141.737 74.605 142.197 74.45 142.767 74.45C143.447 74.45 143.977 74.635 144.357 75.005C144.737 75.375 144.927 75.895 144.927 76.565V82.43H149.187V74.6H150.627V83H143.487V77.405ZM142.587 77.255C142.937 77.255 143.217 77.145 143.427 76.925C143.647 76.705 143.757 76.425 143.757 76.085C143.757 75.745 143.647 75.47 143.427 75.26C143.207 75.04 142.927 74.93 142.587 74.93C142.247 74.93 141.967 75.04 141.747 75.26C141.527 75.47 141.417 75.745 141.417 76.085C141.417 76.425 141.527 76.705 141.747 76.925C141.967 77.145 142.247 77.255 142.587 77.255ZM157.323 83.15C156.763 83.15 156.313 83 155.973 82.7C155.633 82.4 155.463 82 155.463 81.5C155.463 81.01 155.618 80.615 155.928 80.315C156.248 80.015 156.663 79.865 157.173 79.865C157.353 79.865 157.523 79.895 157.683 79.955C157.853 80.015 157.988 80.09 158.088 80.18V77.87H151.998C152.018 76.78 152.278 75.94 152.778 75.35C153.288 74.75 154.013 74.45 154.953 74.45C155.273 74.45 155.578 74.49 155.868 74.57C156.158 74.64 156.483 74.765 156.843 74.945C157.113 75.085 157.328 75.18 157.488 75.23C157.648 75.28 157.803 75.305 157.953 75.305C158.203 75.305 158.403 75.23 158.553 75.08C158.713 74.92 158.798 74.71 158.808 74.45H160.098C160.078 74.94 159.908 75.33 159.588 75.62C159.268 75.9 158.848 76.04 158.328 76.04C158.068 76.04 157.813 76.01 157.563 75.95C157.323 75.88 157.038 75.765 156.708 75.605C156.368 75.435 156.093 75.325 155.883 75.275C155.673 75.215 155.443 75.185 155.193 75.185C154.103 75.185 153.528 75.87 153.468 77.24H159.543V81.02C159.543 81.7 159.348 82.225 158.958 82.595C158.568 82.965 158.023 83.15 157.323 83.15ZM157.188 82.67C157.528 82.67 157.808 82.565 158.028 82.355C158.248 82.135 158.358 81.855 158.358 81.515C158.358 81.165 158.248 80.885 158.028 80.675C157.818 80.455 157.538 80.345 157.188 80.345C156.848 80.345 156.568 80.455 156.348 80.675C156.128 80.885 156.018 81.165 156.018 81.515C156.018 81.855 156.128 82.135 156.348 82.355C156.568 82.565 156.848 82.67 157.188 82.67ZM166.229 83.15C165.669 83.15 165.219 83 164.879 82.7C164.539 82.4 164.369 82 164.369 81.5C164.369 81.01 164.524 80.615 164.834 80.315C165.154 80.015 165.569 79.865 166.079 79.865C166.259 79.865 166.429 79.895 166.589 79.955C166.759 80.015 166.894 80.09 166.994 80.18V77.87H160.904C160.924 76.78 161.184 75.94 161.684 75.35C162.194 74.75 162.919 74.45 163.859 74.45C164.179 74.45 164.484 74.49 164.774 74.57C165.064 74.64 165.389 74.765 165.749 74.945C166.019 75.085 166.234 75.18 166.394 75.23C166.554 75.28 166.709 75.305 166.859 75.305C167.109 75.305 167.309 75.23 167.459 75.08C167.619 74.92 167.704 74.71 167.714 74.45H169.004C168.984 74.94 168.814 75.33 168.494 75.62C168.174 75.9 167.754 76.04 167.234 76.04C166.974 76.04 166.719 76.01 166.469 75.95C166.229 75.88 165.944 75.765 165.614 75.605C165.274 75.435 164.999 75.325 164.789 75.275C164.579 75.215 164.349 75.185 164.099 75.185C163.009 75.185 162.434 75.87 162.374 77.24H168.449V81.02C168.449 81.7 168.254 82.225 167.864 82.595C167.474 82.965 166.929 83.15 166.229 83.15ZM166.094 82.67C166.434 82.67 166.714 82.565 166.934 82.355C167.154 82.135 167.264 81.855 167.264 81.515C167.264 81.165 167.154 80.885 166.934 80.675C166.724 80.455 166.444 80.345 166.094 80.345C165.754 80.345 165.474 80.455 165.254 80.675C165.034 80.885 164.924 81.165 164.924 81.515C164.924 81.855 165.034 82.135 165.254 82.355C165.474 82.565 165.754 82.67 166.094 82.67ZM173.77 74.45C175.12 74.45 176.18 74.755 176.95 75.365C177.72 75.975 178.105 76.815 178.105 77.885C178.105 78.185 178.065 78.71 177.985 79.46C177.885 80.33 177.835 81.245 177.835 82.205V83H176.29L174.61 79.94C174.49 80.23 174.3 80.46 174.04 80.63C173.78 80.79 173.48 80.87 173.14 80.87C172.64 80.87 172.225 80.72 171.895 80.42C171.575 80.11 171.415 79.72 171.415 79.25C171.415 78.76 171.585 78.365 171.925 78.065C172.265 77.755 172.705 77.6 173.245 77.6C174.095 77.6 174.74 78.02 175.18 78.86L176.5 81.32C176.5 80.67 176.53 79.97 176.59 79.22C176.64 78.5 176.665 78.015 176.665 77.765C176.665 76.905 176.405 76.225 175.885 75.725C175.375 75.225 174.675 74.975 173.785 74.975C172.915 74.975 172.22 75.195 171.7 75.635C171.18 76.075 170.905 76.67 170.875 77.42H169.525C169.535 76.82 169.715 76.295 170.065 75.845C170.415 75.395 170.905 75.05 171.535 74.81C172.175 74.57 172.92 74.45 173.77 74.45ZM173.14 80.405C173.49 80.405 173.775 80.295 173.995 80.075C174.215 79.855 174.325 79.575 174.325 79.235C174.325 78.895 174.215 78.615 173.995 78.395C173.775 78.175 173.49 78.065 173.14 78.065C172.8 78.065 172.52 78.175 172.3 78.395C172.08 78.615 171.97 78.895 171.97 79.235C171.97 79.575 172.08 79.855 172.3 80.075C172.52 80.295 172.8 80.405 173.14 80.405ZM176.545 86.18C176.365 86.33 176.115 86.405 175.795 86.405C175.395 86.405 175.07 86.28 174.82 86.03C174.56 85.79 174.43 85.475 174.43 85.085C174.43 84.685 174.58 84.36 174.88 84.11C175.17 83.87 175.55 83.75 176.02 83.75C176.58 83.75 177.025 83.885 177.355 84.155C177.685 84.435 177.85 84.795 177.85 85.235V87.65H176.545V86.18ZM175.81 85.955C176.06 85.955 176.27 85.875 176.44 85.715C176.6 85.555 176.68 85.345 176.68 85.085C176.68 84.835 176.6 84.625 176.44 84.455C176.27 84.295 176.06 84.215 175.81 84.215C175.56 84.215 175.355 84.295 175.195 84.455C175.025 84.625 174.94 84.835 174.94 85.085C174.94 85.335 175.025 85.54 175.195 85.7C175.355 85.87 175.56 85.955 175.81 85.955ZM180.749 83.15C180.179 83.15 179.724 83 179.384 82.7C179.044 82.4 178.874 81.995 178.874 81.485C178.874 81.005 179.034 80.615 179.354 80.315C179.674 80.015 180.089 79.865 180.599 79.865C180.779 79.865 180.949 79.895 181.109 79.955C181.279 80.015 181.414 80.095 181.514 80.195V79.325C181.514 78.575 181.769 78.065 182.279 77.795H180.404C180.444 77.125 180.644 76.54 181.004 76.04C181.374 75.53 181.874 75.14 182.504 74.87C183.134 74.59 183.864 74.45 184.694 74.45C185.494 74.45 186.194 74.575 186.794 74.825C187.404 75.065 187.874 75.405 188.204 75.845C188.534 76.285 188.699 76.795 188.699 77.375V83H187.259V77.225C187.259 76.535 187.024 75.99 186.554 75.59C186.094 75.18 185.469 74.975 184.679 74.975C183.849 74.975 183.174 75.18 182.654 75.59C182.134 76 181.849 76.555 181.799 77.255H183.899V77.735C183.559 77.845 183.314 78.03 183.164 78.29C183.024 78.54 182.954 78.905 182.954 79.385V81.02C182.954 81.69 182.759 82.215 182.369 82.595C181.989 82.965 181.449 83.15 180.749 83.15ZM180.614 82.67C180.954 82.67 181.229 82.565 181.439 82.355C181.659 82.135 181.769 81.855 181.769 81.515C181.769 81.175 181.659 80.895 181.439 80.675C181.229 80.455 180.954 80.345 180.614 80.345C180.274 80.345 179.994 80.455 179.774 80.675C179.554 80.885 179.444 81.165 179.444 81.515C179.444 81.855 179.554 82.135 179.774 82.355C179.994 82.565 180.274 82.67 180.614 82.67ZM186.548 73.25C185.618 73.25 184.883 73.085 184.343 72.755C183.793 72.425 183.518 71.975 183.518 71.405C183.518 70.975 183.663 70.625 183.953 70.355C184.233 70.075 184.593 69.935 185.033 69.935C185.493 69.935 185.868 70.075 186.158 70.355C186.448 70.625 186.593 70.975 186.593 71.405C186.593 71.715 186.503 71.995 186.323 72.245C186.133 72.485 185.893 72.645 185.603 72.725C185.833 72.765 186.093 72.785 186.383 72.785C186.943 72.785 187.448 72.665 187.898 72.425C188.348 72.185 188.703 71.855 188.963 71.435C189.213 71.005 189.338 70.515 189.338 69.965H190.688C190.688 70.605 190.508 71.175 190.148 71.675C189.788 72.175 189.298 72.565 188.678 72.845C188.048 73.115 187.338 73.25 186.548 73.25ZM185.033 72.395C185.343 72.395 185.593 72.305 185.783 72.125C185.973 71.935 186.068 71.695 186.068 71.405C186.068 71.105 185.973 70.865 185.783 70.685C185.593 70.505 185.343 70.415 185.033 70.415C184.743 70.415 184.508 70.505 184.328 70.685C184.138 70.865 184.043 71.105 184.043 71.405C184.043 71.695 184.138 71.935 184.328 72.125C184.508 72.305 184.743 72.395 185.033 72.395ZM202.729 79.925C203.069 80.035 203.339 80.235 203.539 80.525C203.739 80.805 203.839 81.13 203.839 81.5C203.839 81.98 203.679 82.375 203.359 82.685C203.039 82.995 202.629 83.15 202.129 83.15C201.629 83.15 201.219 82.995 200.899 82.685C200.579 82.375 200.419 81.98 200.419 81.5C200.419 81.35 200.434 81.21 200.464 81.08C199.654 81.64 198.964 82.28 198.394 83H196.939V77.225C196.939 76.545 196.719 76 196.279 75.59C195.839 75.18 195.244 74.975 194.494 74.975C193.724 74.975 193.094 75.18 192.604 75.59C192.124 76 191.854 76.555 191.794 77.255H193.759V77.735C193.259 77.835 192.894 78.015 192.664 78.275C192.434 78.535 192.319 78.905 192.319 79.385V80.195C192.409 80.105 192.539 80.03 192.709 79.97C192.889 79.9 193.074 79.865 193.264 79.865C193.764 79.865 194.169 80.02 194.479 80.33C194.799 80.63 194.959 81.02 194.959 81.5C194.959 81.99 194.784 82.39 194.434 82.7C194.084 83 193.629 83.15 193.069 83.15C192.389 83.15 191.854 82.96 191.464 82.58C191.074 82.2 190.879 81.685 190.879 81.035V79.67C190.879 79.2 190.984 78.805 191.194 78.485C191.414 78.165 191.729 77.935 192.139 77.795H190.414C190.444 77.125 190.634 76.54 190.984 76.04C191.334 75.53 191.814 75.14 192.424 74.87C193.034 74.59 193.739 74.45 194.539 74.45C195.319 74.45 195.994 74.57 196.564 74.81C197.144 75.05 197.589 75.39 197.899 75.83C198.219 76.27 198.379 76.785 198.379 77.375V81.8C198.829 81.31 199.389 80.85 200.059 80.42C200.739 79.99 201.409 79.67 202.069 79.46V74.6H203.509V79.73C203.209 79.78 202.949 79.845 202.729 79.925ZM193.219 80.33C192.869 80.33 192.584 80.44 192.364 80.66C192.144 80.88 192.034 81.165 192.034 81.515C192.034 81.865 192.144 82.15 192.364 82.37C192.584 82.59 192.869 82.7 193.219 82.7C193.569 82.7 193.854 82.59 194.074 82.37C194.294 82.15 194.404 81.865 194.404 81.515C194.404 81.165 194.294 80.88 194.074 80.66C193.854 80.44 193.569 80.33 193.219 80.33ZM202.129 82.655C202.479 82.655 202.764 82.545 202.984 82.325C203.204 82.105 203.314 81.825 203.314 81.485C203.314 81.145 203.204 80.87 202.984 80.66C202.764 80.44 202.479 80.33 202.129 80.33C201.779 80.33 201.494 80.44 201.274 80.66C201.054 80.87 200.944 81.145 200.944 81.485C200.944 81.825 201.054 82.105 201.274 82.325C201.494 82.545 201.779 82.655 202.129 82.655ZM214.104 74.6C214.564 74.6 214.919 74.725 215.169 74.975C215.429 75.225 215.559 75.58 215.559 76.04V83H214.119V75.98C214.119 75.66 213.969 75.5 213.669 75.5H213.429L209.379 83H207.954V80.225C207.954 79.885 208.019 79.575 208.149 79.295C208.279 79.015 208.504 78.715 208.824 78.395C209.214 77.995 209.484 77.645 209.634 77.345C209.794 77.035 209.874 76.7 209.874 76.34C209.874 75.89 209.804 75.56 209.664 75.35C209.534 75.13 209.334 75.02 209.064 75.02C208.904 75.02 208.754 75.08 208.614 75.2C208.484 75.32 208.389 75.475 208.329 75.665H207.954C207.894 75.475 207.779 75.32 207.609 75.2C207.439 75.08 207.249 75.02 207.039 75.02C206.739 75.02 206.464 75.14 206.214 75.38C205.974 75.62 205.819 75.915 205.749 76.265C205.849 76.165 205.989 76.085 206.169 76.025C206.359 75.965 206.549 75.935 206.739 75.935C207.219 75.935 207.609 76.085 207.909 76.385C208.209 76.675 208.359 77.06 208.359 77.54C208.359 78.02 208.204 78.41 207.894 78.71C207.584 79 207.179 79.145 206.679 79.145C206.109 79.145 205.654 78.955 205.314 78.575C204.974 78.195 204.804 77.685 204.804 77.045C204.804 76.555 204.894 76.115 205.074 75.725C205.264 75.325 205.524 75.015 205.854 74.795C206.184 74.565 206.549 74.45 206.949 74.45C207.199 74.45 207.424 74.505 207.624 74.615C207.834 74.715 208.004 74.86 208.134 75.05C208.264 74.86 208.439 74.715 208.659 74.615C208.879 74.505 209.119 74.45 209.379 74.45C209.949 74.45 210.384 74.61 210.684 74.93C210.984 75.24 211.134 75.695 211.134 76.295C211.134 76.705 211.054 77.08 210.894 77.42C210.734 77.76 210.459 78.14 210.069 78.56C209.819 78.84 209.639 79.09 209.529 79.31C209.429 79.52 209.379 79.755 209.379 80.015V81.44L213.159 74.6H214.104ZM206.709 76.4C206.369 76.4 206.089 76.505 205.869 76.715C205.659 76.925 205.554 77.2 205.554 77.54C205.554 77.88 205.659 78.155 205.869 78.365C206.089 78.575 206.369 78.68 206.709 78.68C207.049 78.68 207.324 78.575 207.534 78.365C207.744 78.155 207.849 77.88 207.849 77.54C207.849 77.2 207.744 76.925 207.534 76.715C207.324 76.505 207.049 76.4 206.709 76.4ZM213.53 73.22C213.07 73.22 212.7 73.095 212.42 72.845C212.14 72.585 212 72.245 212 71.825C212 71.445 212.085 71.135 212.255 70.895C212.415 70.655 212.615 70.47 212.855 70.34C213.085 70.21 213.385 70.08 213.755 69.95C214.225 69.77 214.57 69.595 214.79 69.425C215 69.255 215.105 69 215.105 68.66H216.5C216.5 69.1 216.305 69.445 215.915 69.695C215.515 69.945 215.01 70.16 214.4 70.34C214.29 70.37 214.12 70.43 213.89 70.52C214.21 70.56 214.47 70.7 214.67 70.94C214.87 71.18 214.97 71.475 214.97 71.825C214.97 72.235 214.84 72.57 214.58 72.83C214.31 73.09 213.96 73.22 213.53 73.22ZM213.56 72.725C213.82 72.725 214.035 72.64 214.205 72.47C214.365 72.3 214.445 72.085 214.445 71.825C214.445 71.565 214.365 71.355 214.205 71.195C214.035 71.025 213.82 70.94 213.56 70.94C213.3 70.94 213.09 71.025 212.93 71.195C212.76 71.355 212.675 71.565 212.675 71.825C212.675 72.085 212.76 72.3 212.93 72.47C213.09 72.64 213.3 72.725 213.56 72.725ZM33.374 98.905H34.814V102.37H39.149V97.87H32.819C32.839 96.78 33.099 95.94 33.599 95.35C34.109 94.75 34.829 94.45 35.759 94.45C36.089 94.45 36.399 94.49 36.689 94.57C36.989 94.64 37.314 94.765 37.664 94.945C37.924 95.085 38.134 95.18 38.294 95.23C38.454 95.28 38.614 95.305 38.774 95.305C39.024 95.305 39.224 95.235 39.374 95.095C39.524 94.955 39.609 94.76 39.629 94.51H40.919C40.899 94.99 40.729 95.365 40.409 95.635C40.099 95.905 39.679 96.04 39.149 96.04C38.899 96.04 38.649 96.01 38.399 95.95C38.149 95.88 37.854 95.765 37.514 95.605C37.174 95.445 36.899 95.335 36.689 95.275C36.479 95.215 36.254 95.185 36.014 95.185C35.474 95.185 35.054 95.36 34.754 95.71C34.464 96.05 34.309 96.56 34.289 97.24H40.589V103H33.374V98.905ZM39.2815 106.18C39.1015 106.33 38.8515 106.405 38.5315 106.405C38.1315 106.405 37.8065 106.28 37.5565 106.03C37.2965 105.79 37.1665 105.475 37.1665 105.085C37.1665 104.685 37.3165 104.36 37.6165 104.11C37.9065 103.87 38.2865 103.75 38.7565 103.75C39.3165 103.75 39.7615 103.885 40.0915 104.155C40.4215 104.435 40.5865 104.795 40.5865 105.235V107.65H39.2815V106.18ZM38.5465 105.955C38.7965 105.955 39.0065 105.875 39.1765 105.715C39.3365 105.555 39.4165 105.345 39.4165 105.085C39.4165 104.835 39.3365 104.625 39.1765 104.455C39.0065 104.295 38.7965 104.215 38.5465 104.215C38.2965 104.215 38.0915 104.295 37.9315 104.455C37.7615 104.625 37.6765 104.835 37.6765 105.085C37.6765 105.335 37.7615 105.54 37.9315 105.7C38.0915 105.87 38.2965 105.955 38.5465 105.955ZM47.3937 103.15C46.8337 103.15 46.3837 103 46.0437 102.7C45.7037 102.4 45.5337 102 45.5337 101.5C45.5337 101.01 45.6887 100.615 45.9987 100.315C46.3187 100.015 46.7337 99.865 47.2437 99.865C47.4237 99.865 47.5937 99.895 47.7537 99.955C47.9237 100.015 48.0587 100.09 48.1587 100.18V97.87H42.0687C42.0887 96.78 42.3487 95.94 42.8487 95.35C43.3587 94.75 44.0837 94.45 45.0237 94.45C45.3437 94.45 45.6487 94.49 45.9387 94.57C46.2287 94.64 46.5537 94.765 46.9137 94.945C47.1837 95.085 47.3987 95.18 47.5587 95.23C47.7187 95.28 47.8737 95.305 48.0237 95.305C48.2737 95.305 48.4737 95.23 48.6237 95.08C48.7837 94.92 48.8687 94.71 48.8787 94.45H50.1687C50.1487 94.94 49.9787 95.33 49.6587 95.62C49.3387 95.9 48.9187 96.04 48.3987 96.04C48.1387 96.04 47.8837 96.01 47.6337 95.95C47.3937 95.88 47.1087 95.765 46.7787 95.605C46.4387 95.435 46.1637 95.325 45.9537 95.275C45.7437 95.215 45.5137 95.185 45.2637 95.185C44.1737 95.185 43.5987 95.87 43.5387 97.24H49.6137V101.02C49.6137 101.7 49.4187 102.225 49.0287 102.595C48.6387 102.965 48.0937 103.15 47.3937 103.15ZM47.2587 102.67C47.5987 102.67 47.8787 102.565 48.0987 102.355C48.3187 102.135 48.4287 101.855 48.4287 101.515C48.4287 101.165 48.3187 100.885 48.0987 100.675C47.8887 100.455 47.6087 100.345 47.2587 100.345C46.9187 100.345 46.6387 100.455 46.4187 100.675C46.1987 100.885 46.0887 101.165 46.0887 101.515C46.0887 101.855 46.1987 102.135 46.4187 102.355C46.6387 102.565 46.9187 102.67 47.2587 102.67ZM51.7849 99.67C51.7849 99.2 51.8899 98.805 52.0999 98.485C52.3199 98.165 52.6349 97.935 53.0449 97.795H51.3199C51.3499 97.115 51.5449 96.525 51.9049 96.025C52.2649 95.515 52.7599 95.125 53.3899 94.855C54.0199 94.585 54.7449 94.45 55.5649 94.45C56.3549 94.45 57.0499 94.57 57.6499 94.81C58.2499 95.05 58.7099 95.395 59.0299 95.845C59.3599 96.285 59.5249 96.795 59.5249 97.375V103H58.0849V97.225C58.0849 96.525 57.8549 95.975 57.3949 95.575C56.9449 95.175 56.3299 94.975 55.5499 94.975C54.7299 94.975 54.0649 95.18 53.5549 95.59C53.0449 95.99 52.7599 96.545 52.6999 97.255H54.6649V97.735C54.1649 97.835 53.7999 98.015 53.5699 98.275C53.3399 98.535 53.2249 98.905 53.2249 99.385V103H51.7849V99.67ZM51.6104 93.07C51.6504 92.54 51.8404 92.07 52.1804 91.66C52.5104 91.24 52.9604 90.915 53.5304 90.685C54.0904 90.455 54.7254 90.34 55.4354 90.34C56.1654 90.34 56.8254 90.455 57.4154 90.685C57.9954 90.915 58.4604 91.24 58.8104 91.66C59.1504 92.07 59.3404 92.54 59.3804 93.07H51.6104ZM58.1354 92.575C58.0654 92.085 57.7804 91.685 57.2804 91.375C56.7804 91.065 56.1654 90.91 55.4354 90.91C54.6954 90.91 54.0804 91.065 53.5904 91.375C53.1004 91.675 52.8204 92.075 52.7504 92.575H58.1354ZM64.8519 94.45C66.2019 94.45 67.2619 94.755 68.0319 95.365C68.8019 95.975 69.1869 96.815 69.1869 97.885C69.1869 98.185 69.1469 98.71 69.0669 99.46C68.9669 100.33 68.9169 101.245 68.9169 102.205V103H67.3719L65.6919 99.94C65.5719 100.23 65.3819 100.46 65.1219 100.63C64.8619 100.79 64.5619 100.87 64.2219 100.87C63.7219 100.87 63.3069 100.72 62.9769 100.42C62.6569 100.11 62.4969 99.72 62.4969 99.25C62.4969 98.76 62.6669 98.365 63.0069 98.065C63.3469 97.755 63.7869 97.6 64.3269 97.6C65.1769 97.6 65.8219 98.02 66.2619 98.86L67.5819 101.32C67.5819 100.67 67.6119 99.97 67.6719 99.22C67.7219 98.5 67.7469 98.015 67.7469 97.765C67.7469 96.905 67.4869 96.225 66.9669 95.725C66.4569 95.225 65.7569 94.975 64.8669 94.975C63.9969 94.975 63.3019 95.195 62.7819 95.635C62.2619 96.075 61.9869 96.67 61.9569 97.42H60.6069C60.6169 96.82 60.7969 96.295 61.1469 95.845C61.4969 95.395 61.9869 95.05 62.6169 94.81C63.2569 94.57 64.0019 94.45 64.8519 94.45ZM64.2219 100.405C64.5719 100.405 64.8569 100.295 65.0769 100.075C65.2969 99.855 65.4069 99.575 65.4069 99.235C65.4069 98.895 65.2969 98.615 65.0769 98.395C64.8569 98.175 64.5719 98.065 64.2219 98.065C63.8819 98.065 63.6019 98.175 63.3819 98.395C63.1619 98.615 63.0519 98.895 63.0519 99.235C63.0519 99.575 63.1619 99.855 63.3819 100.075C63.6019 100.295 63.8819 100.405 64.2219 100.405ZM78.4901 94.6C78.9801 94.6 79.3501 94.715 79.6001 94.945C79.8601 95.175 79.9901 95.51 79.9901 95.95V103H78.5501V95.83C78.5501 95.67 78.5051 95.545 78.4151 95.455C78.3251 95.365 78.1951 95.32 78.0251 95.32H77.4401L74.0801 103H72.6251V97.42C72.5351 97.52 72.4051 97.6 72.2351 97.66C72.0651 97.71 71.8801 97.735 71.6801 97.735C71.1801 97.735 70.7751 97.585 70.4651 97.285C70.1551 96.985 70.0001 96.59 70.0001 96.1C70.0001 95.61 70.1751 95.215 70.5251 94.915C70.8751 94.605 71.3351 94.45 71.9051 94.45C72.5851 94.45 73.1151 94.635 73.4951 95.005C73.8751 95.375 74.0651 95.895 74.0651 96.565V101.35L77.0051 94.6H78.4901ZM71.7251 97.255C72.0751 97.255 72.3551 97.145 72.5651 96.925C72.7851 96.705 72.8951 96.425 72.8951 96.085C72.8951 95.745 72.7851 95.47 72.5651 95.26C72.3451 95.04 72.0651 94.93 71.7251 94.93C71.3851 94.93 71.1051 95.04 70.8851 95.26C70.6651 95.47 70.5551 95.745 70.5551 96.085C70.5551 96.425 70.6651 96.705 70.8851 96.925C71.1051 97.145 71.3851 97.255 71.7251 97.255ZM79.9908 89.785V93.07H72.2208C72.2608 92.54 72.4508 92.07 72.7908 91.66C73.1208 91.24 73.5708 90.915 74.1408 90.685C74.7108 90.455 75.3458 90.34 76.0458 90.34C77.0158 90.34 77.8708 90.565 78.6108 91.015V89.785H79.9908ZM78.7458 92.575C78.6758 92.085 78.3908 91.685 77.8908 91.375C77.3908 91.065 76.7758 90.91 76.0458 90.91C75.3058 90.91 74.6908 91.065 74.2008 91.375C73.7108 91.675 73.4308 92.075 73.3608 92.575H78.7458ZM78.6708 86.44H79.9458V89.11H78.6708V86.44ZM84.7608 103.15C84.1008 103.15 83.5758 102.97 83.1858 102.61C82.7958 102.25 82.6008 101.725 82.6008 101.035V94.6H84.0408V100.195C84.1408 100.095 84.2758 100.015 84.4458 99.955C84.6158 99.895 84.8008 99.865 85.0008 99.865C85.5008 99.865 85.9008 100.015 86.2008 100.315C86.5108 100.615 86.6658 101.01 86.6658 101.5C86.6658 102 86.4908 102.4 86.1408 102.7C85.7908 103 85.3308 103.15 84.7608 103.15ZM84.9408 102.67C85.2808 102.67 85.5608 102.565 85.7808 102.355C86.0008 102.135 86.1108 101.855 86.1108 101.515C86.1108 101.165 86.0008 100.885 85.7808 100.675C85.5708 100.455 85.2908 100.345 84.9408 100.345C84.6008 100.345 84.3208 100.455 84.1008 100.675C83.8908 100.895 83.7858 101.175 83.7858 101.515C83.7858 101.855 83.8908 102.135 84.1008 102.355C84.3208 102.565 84.6008 102.67 84.9408 102.67ZM88.2449 99.67C88.2449 99.2 88.3499 98.805 88.5599 98.485C88.7799 98.165 89.0949 97.935 89.5049 97.795H87.7799C87.8099 97.115 88.0049 96.525 88.3649 96.025C88.7249 95.515 89.2199 95.125 89.8499 94.855C90.4799 94.585 91.2049 94.45 92.0249 94.45C92.8149 94.45 93.5099 94.57 94.1099 94.81C94.7099 95.05 95.1699 95.395 95.4899 95.845C95.8199 96.285 95.9849 96.795 95.9849 97.375V103H94.5449V97.225C94.5449 96.525 94.3149 95.975 93.8549 95.575C93.4049 95.175 92.7899 94.975 92.0099 94.975C91.1899 94.975 90.5249 95.18 90.0149 95.59C89.5049 95.99 89.2199 96.545 89.1599 97.255H91.1249V97.735C90.6249 97.835 90.2599 98.015 90.0299 98.275C89.7999 98.535 89.6849 98.905 89.6849 99.385V103H88.2449V99.67ZM95.8404 89.785V93.07H88.0704C88.1104 92.54 88.3004 92.07 88.6404 91.66C88.9704 91.24 89.4204 90.915 89.9904 90.685C90.5604 90.455 91.1954 90.34 91.8954 90.34C92.8654 90.34 93.7204 90.565 94.4604 91.015V89.785H95.8404ZM94.5954 92.575C94.5254 92.085 94.2404 91.685 93.7404 91.375C93.2404 91.065 92.6254 90.91 91.8954 90.91C91.1554 90.91 90.5404 91.065 90.0504 91.375C89.5604 91.675 89.2804 92.075 89.2104 92.575H94.5954ZM94.5204 86.44H95.7954V89.11H94.5204V86.44ZM106.082 94.6V103H98.4169V101.05C98.4169 100.67 98.5619 100.33 98.8519 100.03C99.1419 99.73 99.5319 99.51 100.022 99.37C99.3419 99.2 98.8119 98.9 98.4319 98.47C98.0619 98.04 97.8769 97.515 97.8769 96.895C97.8769 96.165 98.1369 95.575 98.6569 95.125C99.1769 94.675 99.8569 94.45 100.697 94.45C101.377 94.45 101.932 94.62 102.362 94.96C102.792 95.3 103.007 95.745 103.007 96.295C103.007 96.795 102.842 97.2 102.512 97.51C102.192 97.82 101.772 97.975 101.252 97.975C100.732 97.975 100.307 97.825 99.9769 97.525C99.6469 97.215 99.4819 96.815 99.4819 96.325C99.4819 96.015 99.5969 95.745 99.8269 95.515C99.4169 95.815 99.2119 96.275 99.2119 96.895C99.2119 98.275 100.147 98.965 102.017 98.965H102.152V99.58H102.032C101.332 99.58 100.792 99.715 100.412 99.985C100.042 100.245 99.8569 100.625 99.8569 101.125V102.37H104.642V94.6H106.082ZM101.237 95.155C100.897 95.155 100.617 95.265 100.397 95.485C100.177 95.705 100.067 95.985 100.067 96.325C100.067 96.665 100.177 96.945 100.397 97.165C100.617 97.385 100.897 97.495 101.237 97.495C101.587 97.495 101.872 97.385 102.092 97.165C102.312 96.945 102.422 96.665 102.422 96.325C102.422 95.985 102.312 95.705 102.092 95.485C101.872 95.265 101.587 95.155 101.237 95.155ZM112.56 103.15C112 103.15 111.55 103 111.21 102.7C110.87 102.39 110.7 101.99 110.7 101.5C110.7 101.01 110.86 100.615 111.18 100.315C111.5 100.015 111.91 99.865 112.41 99.865C112.59 99.865 112.765 99.9 112.935 99.97C113.105 100.03 113.24 100.105 113.34 100.195V97.24C113.34 96.54 113.13 95.99 112.71 95.59C112.3 95.19 111.735 94.99 111.015 94.99C110.295 94.99 109.715 95.2 109.275 95.62C108.845 96.04 108.615 96.615 108.585 97.345H107.22C107.27 96.435 107.635 95.725 108.315 95.215C109.005 94.705 109.93 94.45 111.09 94.45C112.27 94.45 113.18 94.705 113.82 95.215C114.46 95.715 114.78 96.43 114.78 97.36V101.02C114.78 101.7 114.585 102.225 114.195 102.595C113.805 102.965 113.26 103.15 112.56 103.15ZM112.425 102.67C112.765 102.67 113.045 102.565 113.265 102.355C113.485 102.135 113.595 101.855 113.595 101.515C113.595 101.165 113.485 100.885 113.265 100.675C113.055 100.455 112.775 100.345 112.425 100.345C112.085 100.345 111.805 100.455 111.585 100.675C111.375 100.895 111.27 101.175 111.27 101.515C111.27 101.855 111.375 102.135 111.585 102.355C111.805 102.565 112.085 102.67 112.425 102.67ZM116.956 99.67C116.956 99.2 117.061 98.805 117.271 98.485C117.491 98.165 117.806 97.935 118.216 97.795H116.491C116.521 97.115 116.716 96.525 117.076 96.025C117.436 95.515 117.931 95.125 118.561 94.855C119.191 94.585 119.916 94.45 120.736 94.45C121.526 94.45 122.221 94.57 122.821 94.81C123.421 95.05 123.881 95.395 124.201 95.845C124.531 96.285 124.696 96.795 124.696 97.375V103H123.256V97.225C123.256 96.525 123.026 95.975 122.566 95.575C122.116 95.175 121.501 94.975 120.721 94.975C119.901 94.975 119.236 95.18 118.726 95.59C118.216 95.99 117.931 96.545 117.871 97.255H119.836V97.735C119.336 97.835 118.971 98.015 118.741 98.275C118.511 98.535 118.396 98.905 118.396 99.385V103H116.956V99.67ZM122.556 93.25C121.626 93.25 120.891 93.085 120.351 92.755C119.801 92.425 119.526 91.975 119.526 91.405C119.526 90.975 119.671 90.625 119.961 90.355C120.241 90.075 120.601 89.935 121.041 89.935C121.501 89.935 121.876 90.075 122.166 90.355C122.456 90.625 122.601 90.975 122.601 91.405C122.601 91.715 122.511 91.995 122.331 92.245C122.141 92.485 121.901 92.645 121.611 92.725C121.841 92.765 122.101 92.785 122.391 92.785C122.951 92.785 123.456 92.665 123.906 92.425C124.356 92.185 124.711 91.855 124.971 91.435C125.221 91.005 125.346 90.515 125.346 89.965H126.696C126.696 90.605 126.516 91.175 126.156 91.675C125.796 92.175 125.306 92.565 124.686 92.845C124.056 93.115 123.346 93.25 122.556 93.25ZM121.041 92.395C121.351 92.395 121.601 92.305 121.791 92.125C121.981 91.935 122.076 91.695 122.076 91.405C122.076 91.105 121.981 90.865 121.791 90.685C121.601 90.505 121.351 90.415 121.041 90.415C120.751 90.415 120.516 90.505 120.336 90.685C120.146 90.865 120.051 91.105 120.051 91.405C120.051 91.695 120.146 91.935 120.336 92.125C120.516 92.305 120.751 92.395 121.041 92.395ZM128.553 97.405C128.463 97.495 128.328 97.575 128.148 97.645C127.978 97.705 127.798 97.735 127.608 97.735C127.108 97.735 126.703 97.585 126.393 97.285C126.083 96.985 125.928 96.59 125.928 96.1C125.928 95.61 126.103 95.215 126.453 94.915C126.803 94.605 127.263 94.45 127.833 94.45C128.513 94.45 129.043 94.635 129.423 95.005C129.803 95.375 129.993 95.895 129.993 96.565V102.43H134.253V94.6H135.693V103H128.553V97.405ZM127.653 97.255C128.003 97.255 128.283 97.145 128.493 96.925C128.713 96.705 128.823 96.425 128.823 96.085C128.823 95.745 128.713 95.47 128.493 95.26C128.273 95.04 127.993 94.93 127.653 94.93C127.313 94.93 127.033 95.04 126.813 95.26C126.593 95.47 126.483 95.745 126.483 96.085C126.483 96.425 126.593 96.705 126.813 96.925C127.033 97.145 127.313 97.255 127.653 97.255ZM137.874 99.67C137.874 99.2 137.979 98.805 138.189 98.485C138.409 98.165 138.724 97.935 139.134 97.795H137.409C137.439 97.115 137.634 96.525 137.994 96.025C138.354 95.515 138.849 95.125 139.479 94.855C140.109 94.585 140.834 94.45 141.654 94.45C142.444 94.45 143.139 94.57 143.739 94.81C144.339 95.05 144.799 95.395 145.119 95.845C145.449 96.285 145.614 96.795 145.614 97.375V103H144.174V97.225C144.174 96.525 143.944 95.975 143.484 95.575C143.034 95.175 142.419 94.975 141.639 94.975C140.819 94.975 140.154 95.18 139.644 95.59C139.134 95.99 138.849 96.545 138.789 97.255H140.754V97.735C140.254 97.835 139.889 98.015 139.659 98.275C139.429 98.535 139.314 98.905 139.314 99.385V103H137.874V99.67ZM152.636 97.165C152.636 96.505 152.441 95.975 152.051 95.575C151.671 95.175 151.146 94.975 150.476 94.975C149.856 94.975 149.341 95.165 148.931 95.545C148.531 95.915 148.296 96.43 148.226 97.09H146.861C146.931 96.29 147.286 95.65 147.926 95.17C148.576 94.69 149.426 94.45 150.476 94.45C151.566 94.45 152.436 94.71 153.086 95.23C153.746 95.75 154.076 96.46 154.076 97.36V103H152.636V97.165ZM160.773 103.15C160.213 103.15 159.763 103 159.423 102.7C159.083 102.4 158.913 102 158.913 101.5C158.913 101.01 159.068 100.615 159.378 100.315C159.698 100.015 160.113 99.865 160.623 99.865C160.803 99.865 160.973 99.895 161.133 99.955C161.303 100.015 161.438 100.09 161.538 100.18V97.87H155.448C155.468 96.78 155.728 95.94 156.228 95.35C156.738 94.75 157.463 94.45 158.403 94.45C158.723 94.45 159.028 94.49 159.318 94.57C159.608 94.64 159.933 94.765 160.293 94.945C160.563 95.085 160.778 95.18 160.938 95.23C161.098 95.28 161.253 95.305 161.403 95.305C161.653 95.305 161.853 95.23 162.003 95.08C162.163 94.92 162.248 94.71 162.258 94.45H163.548C163.528 94.94 163.358 95.33 163.038 95.62C162.718 95.9 162.298 96.04 161.778 96.04C161.518 96.04 161.263 96.01 161.013 95.95C160.773 95.88 160.488 95.765 160.158 95.605C159.818 95.435 159.543 95.325 159.333 95.275C159.123 95.215 158.893 95.185 158.643 95.185C157.553 95.185 156.978 95.87 156.918 97.24H162.993V101.02C162.993 101.7 162.798 102.225 162.408 102.595C162.018 102.965 161.473 103.15 160.773 103.15ZM160.638 102.67C160.978 102.67 161.258 102.565 161.478 102.355C161.698 102.135 161.808 101.855 161.808 101.515C161.808 101.165 161.698 100.885 161.478 100.675C161.268 100.455 160.988 100.345 160.638 100.345C160.298 100.345 160.018 100.455 159.798 100.675C159.578 100.885 159.468 101.165 159.468 101.515C159.468 101.855 159.578 102.135 159.798 102.355C160.018 102.565 160.298 102.67 160.638 102.67ZM165.959 99.88C166.919 99.59 167.634 99.22 168.104 98.77C168.574 98.31 168.809 97.755 168.809 97.105C168.809 96.485 168.629 95.985 168.269 95.605C167.919 95.215 167.464 95.02 166.904 95.02C166.534 95.02 166.199 95.105 165.899 95.275C165.599 95.445 165.394 95.665 165.284 95.935C165.394 95.845 165.534 95.775 165.704 95.725C165.884 95.665 166.064 95.635 166.244 95.635C166.724 95.635 167.119 95.79 167.429 96.1C167.739 96.4 167.894 96.79 167.894 97.27C167.894 97.75 167.734 98.145 167.414 98.455C167.094 98.765 166.684 98.92 166.184 98.92C165.604 98.92 165.134 98.73 164.774 98.35C164.414 97.96 164.234 97.46 164.234 96.85C164.234 96.12 164.484 95.54 164.984 95.11C165.494 94.67 166.174 94.45 167.024 94.45C167.914 94.45 168.624 94.69 169.154 95.17C169.684 95.64 169.949 96.27 169.949 97.06C169.949 98.44 169.099 99.445 167.399 100.075V102.37H171.374V94.6H172.814V103H165.959V99.88ZM166.199 98.44C166.549 98.44 166.829 98.33 167.039 98.11C167.259 97.89 167.369 97.61 167.369 97.27C167.369 96.93 167.259 96.65 167.039 96.43C166.819 96.21 166.539 96.1 166.199 96.1C165.859 96.1 165.579 96.21 165.359 96.43C165.139 96.65 165.029 96.93 165.029 97.27C165.029 97.61 165.139 97.89 165.359 98.11C165.579 98.33 165.859 98.44 166.199 98.44ZM183.108 99.925C183.448 100.035 183.718 100.23 183.918 100.51C184.128 100.79 184.233 101.12 184.233 101.5C184.233 101.99 184.068 102.39 183.738 102.7C183.418 103 183.003 103.15 182.493 103.15C181.993 103.15 181.578 103 181.248 102.7C180.928 102.39 180.768 101.99 180.768 101.5C180.768 101.22 180.818 100.98 180.918 100.78C180.348 101.08 179.823 101.42 179.343 101.8C178.873 102.18 178.478 102.58 178.158 103H176.673V97.42C176.583 97.52 176.453 97.6 176.283 97.66C176.113 97.71 175.928 97.735 175.728 97.735C175.238 97.735 174.833 97.585 174.513 97.285C174.203 96.975 174.048 96.58 174.048 96.1C174.048 95.61 174.218 95.215 174.558 94.915C174.908 94.605 175.368 94.45 175.938 94.45C176.618 94.45 177.148 94.64 177.528 95.02C177.918 95.39 178.113 95.905 178.113 96.565V101.86C178.583 101.37 179.228 100.9 180.048 100.45C180.868 99.99 181.668 99.66 182.448 99.46V94.6H183.888V99.775C183.698 99.795 183.438 99.845 183.108 99.925ZM175.773 97.255C176.123 97.255 176.403 97.145 176.613 96.925C176.833 96.705 176.943 96.425 176.943 96.085C176.943 95.745 176.833 95.47 176.613 95.26C176.393 95.04 176.113 94.93 175.773 94.93C175.433 94.93 175.153 95.04 174.933 95.26C174.713 95.47 174.603 95.745 174.603 96.085C174.603 96.425 174.713 96.705 174.933 96.925C175.153 97.145 175.433 97.255 175.773 97.255ZM182.493 102.655C182.843 102.655 183.128 102.545 183.348 102.325C183.568 102.105 183.678 101.825 183.678 101.485C183.678 101.145 183.568 100.87 183.348 100.66C183.128 100.44 182.843 100.33 182.493 100.33C182.153 100.33 181.873 100.44 181.653 100.66C181.433 100.87 181.323 101.145 181.323 101.485C181.323 101.825 181.433 102.105 181.653 102.325C181.873 102.545 182.153 102.655 182.493 102.655ZM193.297 95.335C193.617 95.585 193.862 95.885 194.032 96.235C194.212 96.575 194.302 96.95 194.302 97.36V103H192.862V102.85C192.862 101.23 192.592 99.97 192.052 99.07C191.512 98.16 190.757 97.705 189.787 97.705C189.137 97.705 188.592 97.935 188.152 98.395C187.722 98.855 187.487 99.465 187.447 100.225C187.527 100.125 187.667 100.04 187.867 99.97C188.067 99.9 188.267 99.865 188.467 99.865C188.967 99.865 189.377 100.02 189.697 100.33C190.027 100.64 190.192 101.035 190.192 101.515C190.192 101.995 190.017 102.39 189.667 102.7C189.327 103 188.887 103.15 188.347 103.15C187.647 103.15 187.087 102.915 186.667 102.445C186.247 101.975 186.037 101.355 186.037 100.585C186.037 99.915 186.182 99.325 186.472 98.815C186.772 98.295 187.192 97.89 187.732 97.6C188.282 97.31 188.912 97.16 189.622 97.15C190.472 96.63 191.207 96.045 191.827 95.395C191.377 95.125 190.817 94.99 190.147 94.99C189.347 94.99 188.677 95.175 188.137 95.545C187.597 95.905 187.272 96.39 187.162 97H185.797C185.937 96.23 186.402 95.615 187.192 95.155C187.982 94.685 188.967 94.45 190.147 94.45C190.977 94.45 191.697 94.565 192.307 94.795C192.557 94.455 192.722 94.13 192.802 93.82H194.422C194.352 94.2 193.977 94.705 193.297 95.335ZM192.862 97.24C192.862 96.76 192.742 96.35 192.502 96.01C191.852 96.52 191.182 96.925 190.492 97.225C191.032 97.345 191.507 97.585 191.917 97.945C192.327 98.295 192.642 98.745 192.862 99.295V97.24ZM188.452 100.345C188.102 100.345 187.822 100.455 187.612 100.675C187.402 100.885 187.297 101.165 187.297 101.515C187.297 101.855 187.402 102.135 187.612 102.355C187.832 102.565 188.112 102.67 188.452 102.67C188.802 102.67 189.082 102.565 189.292 102.355C189.512 102.145 189.622 101.865 189.622 101.515C189.622 101.165 189.512 100.885 189.292 100.675C189.082 100.455 188.802 100.345 188.452 100.345ZM192.927 89.89H194.247V93.07H192.927V89.89ZM198.507 103C198.347 102 197.997 101.035 197.457 100.105C196.917 99.175 196.277 98.43 195.537 97.87L196.647 97.075C197.337 97.525 197.947 98.22 198.477 99.16C199.007 100.09 199.392 101.16 199.632 102.37H201.867V97.42C201.767 97.52 201.632 97.6 201.462 97.66C201.292 97.71 201.107 97.735 200.907 97.735C200.407 97.735 200.002 97.585 199.692 97.285C199.382 96.985 199.227 96.59 199.227 96.1C199.227 95.61 199.402 95.215 199.752 94.915C200.102 94.605 200.567 94.45 201.147 94.45C201.827 94.45 202.357 94.635 202.737 95.005C203.117 95.375 203.307 95.895 203.307 96.565V103H198.507ZM200.952 97.255C201.302 97.255 201.582 97.145 201.792 96.925C202.012 96.705 202.122 96.425 202.122 96.085C202.122 95.745 202.012 95.47 201.792 95.26C201.572 95.04 201.292 94.93 200.952 94.93C200.612 94.93 200.332 95.04 200.112 95.26C199.902 95.47 199.797 95.745 199.797 96.085C199.797 96.425 199.902 96.705 200.112 96.925C200.332 97.145 200.612 97.255 200.952 97.255ZM212.706 95.335C213.026 95.585 213.271 95.885 213.441 96.235C213.621 96.575 213.711 96.95 213.711 97.36V103H212.271V102.85C212.271 101.23 212.001 99.97 211.461 99.07C210.921 98.16 210.166 97.705 209.196 97.705C208.546 97.705 208.001 97.935 207.561 98.395C207.131 98.855 206.896 99.465 206.856 100.225C206.936 100.125 207.076 100.04 207.276 99.97C207.476 99.9 207.676 99.865 207.876 99.865C208.376 99.865 208.786 100.02 209.106 100.33C209.436 100.64 209.601 101.035 209.601 101.515C209.601 101.995 209.426 102.39 209.076 102.7C208.736 103 208.296 103.15 207.756 103.15C207.056 103.15 206.496 102.915 206.076 102.445C205.656 101.975 205.446 101.355 205.446 100.585C205.446 99.915 205.591 99.325 205.881 98.815C206.181 98.295 206.601 97.89 207.141 97.6C207.691 97.31 208.321 97.16 209.031 97.15C209.881 96.63 210.616 96.045 211.236 95.395C210.786 95.125 210.226 94.99 209.556 94.99C208.756 94.99 208.086 95.175 207.546 95.545C207.006 95.905 206.681 96.39 206.571 97H205.206C205.346 96.23 205.811 95.615 206.601 95.155C207.391 94.685 208.376 94.45 209.556 94.45C210.386 94.45 211.106 94.565 211.716 94.795C211.966 94.455 212.131 94.13 212.211 93.82H213.831C213.761 94.2 213.386 94.705 212.706 95.335ZM212.271 97.24C212.271 96.76 212.151 96.35 211.911 96.01C211.261 96.52 210.591 96.925 209.901 97.225C210.441 97.345 210.916 97.585 211.326 97.945C211.736 98.295 212.051 98.745 212.271 99.295V97.24ZM207.861 100.345C207.511 100.345 207.231 100.455 207.021 100.675C206.811 100.885 206.706 101.165 206.706 101.515C206.706 101.855 206.811 102.135 207.021 102.355C207.241 102.565 207.521 102.67 207.861 102.67C208.211 102.67 208.491 102.565 208.701 102.355C208.921 102.145 209.031 101.865 209.031 101.515C209.031 101.165 208.921 100.885 208.701 100.675C208.491 100.455 208.211 100.345 207.861 100.345ZM205.946 93.07C205.986 92.54 206.176 92.07 206.516 91.66C206.846 91.24 207.296 90.915 207.866 90.685C208.426 90.455 209.061 90.34 209.771 90.34C210.501 90.34 211.161 90.455 211.751 90.685C212.331 90.915 212.796 91.24 213.146 91.66C213.486 92.07 213.676 92.54 213.716 93.07H205.946ZM212.471 92.575C212.401 92.085 212.116 91.685 211.616 91.375C211.116 91.065 210.501 90.91 209.771 90.91C209.031 90.91 208.416 91.065 207.926 91.375C207.436 91.675 207.156 92.075 207.086 92.575H212.471ZM224.006 99.925C224.346 100.035 224.616 100.23 224.816 100.51C225.026 100.79 225.131 101.12 225.131 101.5C225.131 101.99 224.966 102.39 224.636 102.7C224.316 103 223.901 103.15 223.391 103.15C222.891 103.15 222.476 103 222.146 102.7C221.826 102.39 221.666 101.99 221.666 101.5C221.666 101.22 221.716 100.98 221.816 100.78C221.246 101.08 220.721 101.42 220.241 101.8C219.771 102.18 219.376 102.58 219.056 103H217.571V97.42C217.481 97.52 217.351 97.6 217.181 97.66C217.011 97.71 216.826 97.735 216.626 97.735C216.136 97.735 215.731 97.585 215.411 97.285C215.101 96.975 214.946 96.58 214.946 96.1C214.946 95.61 215.116 95.215 215.456 94.915C215.806 94.605 216.266 94.45 216.836 94.45C217.516 94.45 218.046 94.64 218.426 95.02C218.816 95.39 219.011 95.905 219.011 96.565V101.86C219.481 101.37 220.126 100.9 220.946 100.45C221.766 99.99 222.566 99.66 223.346 99.46V94.6H224.786V99.775C224.596 99.795 224.336 99.845 224.006 99.925ZM216.671 97.255C217.021 97.255 217.301 97.145 217.511 96.925C217.731 96.705 217.841 96.425 217.841 96.085C217.841 95.745 217.731 95.47 217.511 95.26C217.291 95.04 217.011 94.93 216.671 94.93C216.331 94.93 216.051 95.04 215.831 95.26C215.611 95.47 215.501 95.745 215.501 96.085C215.501 96.425 215.611 96.705 215.831 96.925C216.051 97.145 216.331 97.255 216.671 97.255ZM223.391 102.655C223.741 102.655 224.026 102.545 224.246 102.325C224.466 102.105 224.576 101.825 224.576 101.485C224.576 101.145 224.466 100.87 224.246 100.66C224.026 100.44 223.741 100.33 223.391 100.33C223.051 100.33 222.771 100.44 222.551 100.66C222.331 100.87 222.221 101.145 222.221 101.485C222.221 101.825 222.331 102.105 222.551 102.325C222.771 102.545 223.051 102.655 223.391 102.655ZM231.046 94.45C231.896 94.45 232.636 94.57 233.266 94.81C233.906 95.05 234.396 95.39 234.736 95.83C235.086 96.27 235.261 96.78 235.261 97.36V103H233.821V97.225C233.821 96.545 233.566 96 233.056 95.59C232.546 95.18 231.871 94.975 231.031 94.975C230.131 94.975 229.421 95.225 228.901 95.725C228.381 96.225 228.121 96.905 228.121 97.765C228.121 97.985 228.146 98.435 228.196 99.115C228.246 99.725 228.281 100.31 228.301 100.87L229.246 98.23C229.406 97.78 229.641 97.435 229.951 97.195C230.261 96.955 230.631 96.835 231.061 96.835C231.571 96.835 231.981 96.99 232.291 97.3C232.611 97.6 232.771 97.995 232.771 98.485C232.771 98.975 232.616 99.37 232.306 99.67C231.996 99.97 231.591 100.12 231.091 100.12C230.781 100.12 230.491 100.05 230.221 99.91C229.951 99.76 229.751 99.57 229.621 99.34L228.316 103H226.921V102.205C226.921 101.295 226.876 100.385 226.786 99.475C226.716 98.775 226.681 98.24 226.681 97.87C226.681 97.18 226.856 96.58 227.206 96.07C227.566 95.55 228.076 95.15 228.736 94.87C229.396 94.59 230.166 94.45 231.046 94.45ZM231.076 97.315C230.736 97.315 230.456 97.425 230.236 97.645C230.016 97.865 229.906 98.145 229.906 98.485C229.906 98.825 230.016 99.105 230.236 99.325C230.456 99.535 230.736 99.64 231.076 99.64C231.426 99.64 231.711 99.535 231.931 99.325C232.151 99.105 232.261 98.825 232.261 98.485C232.261 98.145 232.151 97.865 231.931 97.645C231.711 97.425 231.426 97.315 231.076 97.315ZM231.098 92.89C231.668 92.49 232.078 92.06 232.328 91.6C232.248 91.65 232.148 91.69 232.028 91.72C231.908 91.75 231.793 91.765 231.683 91.765C231.313 91.765 231.013 91.655 230.783 91.435C230.543 91.205 230.423 90.915 230.423 90.565C230.423 90.185 230.548 89.88 230.798 89.65C231.038 89.42 231.358 89.305 231.758 89.305C232.198 89.305 232.543 89.42 232.793 89.65C233.043 89.87 233.168 90.175 233.168 90.565C233.168 91.265 232.888 91.925 232.328 92.545C233.188 92.265 233.878 91.88 234.398 91.39C234.908 90.89 235.238 90.32 235.388 89.68H236.603C236.493 90.29 236.178 90.855 235.658 91.375C235.128 91.895 234.473 92.32 233.693 92.65C232.913 92.97 232.088 93.16 231.218 93.22L231.098 92.89ZM231.683 91.315C231.913 91.315 232.098 91.245 232.238 91.105C232.378 90.965 232.448 90.785 232.448 90.565C232.448 90.335 232.378 90.15 232.238 90.01C232.088 89.86 231.903 89.785 231.683 89.785C231.463 89.785 231.283 89.86 231.143 90.01C230.993 90.15 230.918 90.335 230.918 90.565C230.918 90.785 230.988 90.965 231.128 91.105C231.268 91.245 231.453 91.315 231.683 91.315ZM242.284 97.165C242.284 96.505 242.089 95.975 241.699 95.575C241.319 95.175 240.794 94.975 240.124 94.975C239.504 94.975 238.989 95.165 238.579 95.545C238.179 95.915 237.944 96.43 237.874 97.09H236.509C236.579 96.29 236.934 95.65 237.574 95.17C238.224 94.69 239.074 94.45 240.124 94.45C241.214 94.45 242.084 94.71 242.734 95.23C243.394 95.75 243.724 96.46 243.724 97.36V103H242.284V97.165Z" fill="black"/>
</svg>
