<svg width="277" height="131" viewBox="0 0 277 131" fill="none" xmlns="http://www.w3.org/2000/svg">
<rect x="0.5" y="0.5" width="276" height="130" fill="white" stroke="black"/>
<path d="M53.6673 43.88C53.6673 42.5867 53.6139 41.3933 53.5073 40.3C53.4139 39.4467 53.3673 38.74 53.3673 38.18C53.3673 37.2467 53.6139 36.4333 54.1073 35.74C54.6006 35.0467 55.3073 34.52 56.2273 34.16C57.1473 33.7867 58.2339 33.6 59.4873 33.6C60.6873 33.6 61.7339 33.76 62.6273 34.08C63.5206 34.3867 64.2073 34.8333 64.6873 35.42C65.1673 36.0067 65.4073 36.7 65.4073 37.5V45H62.7073V37.32C62.7073 36.4267 62.4139 35.7267 61.8273 35.22C61.2539 34.7 60.4673 34.44 59.4673 34.44C58.3739 34.44 57.5339 34.7533 56.9473 35.38C56.3606 36.0067 56.0673 36.8933 56.0673 38.04C56.0673 38.5333 56.1006 39.2333 56.1673 40.14C56.2339 41.62 56.2806 42.82 56.3073 43.74C57.1873 43.3267 57.9273 42.9 58.5273 42.46C59.1273 42.0067 59.6473 41.5 60.0873 40.94C59.9139 41.0333 59.6939 41.08 59.4273 41.08C58.7206 41.08 58.1406 40.8733 57.6873 40.46C57.2339 40.0467 57.0073 39.5133 57.0073 38.86C57.0073 38.1933 57.2273 37.6533 57.6673 37.24C58.1073 36.8267 58.6739 36.62 59.3673 36.62C60.0873 36.62 60.6739 36.8467 61.1273 37.3C61.5806 37.74 61.8073 38.32 61.8073 39.04C61.8073 39.7867 61.5539 40.54 61.0473 41.3C60.5539 42.0467 59.8539 42.7467 58.9473 43.4C58.0539 44.04 57.0206 44.5733 55.8473 45H53.6673V43.88ZM59.3673 40.38C59.8339 40.38 60.2073 40.24 60.4873 39.96C60.7806 39.68 60.9273 39.3133 60.9273 38.86C60.9273 38.4067 60.7806 38.04 60.4873 37.76C60.2073 37.4667 59.8339 37.32 59.3673 37.32C58.9139 37.32 58.5406 37.4667 58.2473 37.76C57.9673 38.04 57.8273 38.4067 57.8273 38.86C57.8273 39.3133 57.9673 39.68 58.2473 39.96C58.5406 40.24 58.9139 40.38 59.3673 40.38ZM66.2521 28.78C66.2521 29.2333 66.1388 29.6267 65.9121 29.96C65.6721 30.2933 65.3521 30.52 64.9521 30.64C65.1121 31.0133 65.1988 31.3867 65.2121 31.76H54.2321C54.2854 30.9867 54.5521 30.3 55.0321 29.7C55.4988 29.1 56.1254 28.6333 56.9121 28.3C57.6988 27.9667 58.5854 27.8 59.5721 27.8C60.5321 27.8 61.4588 27.9733 62.3521 28.32C62.4454 27.8667 62.6654 27.5 63.0121 27.22C63.3588 26.94 63.7854 26.8 64.2921 26.8C64.8654 26.8 65.3388 26.9867 65.7121 27.36C66.0721 27.7333 66.2521 28.2067 66.2521 28.78ZM64.2921 29.92C64.6254 29.92 64.8988 29.8133 65.1121 29.6C65.3254 29.3867 65.4321 29.1133 65.4321 28.78C65.4321 28.4467 65.3254 28.1733 65.1121 27.96C64.8988 27.7467 64.6254 27.64 64.2921 27.64C63.9588 27.64 63.6854 27.7467 63.4721 27.96C63.2454 28.1733 63.1321 28.4467 63.1321 28.78C63.1321 29.1133 63.2454 29.3867 63.4721 29.6C63.6854 29.8133 63.9588 29.92 64.2921 29.92ZM63.0521 30.92C62.9588 30.28 62.5921 29.76 61.9521 29.36C61.3121 28.9467 60.5188 28.74 59.5721 28.74C58.6121 28.74 57.8188 28.94 57.1921 29.34C56.5521 29.74 56.1921 30.2667 56.1121 30.92H63.0521ZM70.6074 45C70.4074 43.7333 69.9608 42.4933 69.2674 41.28C68.5874 40.0533 67.7608 39.0267 66.7874 38.2L68.9074 36.7C69.8541 37.3667 70.6674 38.3333 71.3474 39.6C72.0408 40.8533 72.5541 42.3267 72.8874 44.02H75.2274V37.9C74.9608 38.02 74.6674 38.08 74.3474 38.08C73.6541 38.08 73.0874 37.8733 72.6474 37.46C72.2208 37.0467 72.0074 36.5133 72.0074 35.86C72.0074 35.1933 72.2541 34.6533 72.7474 34.24C73.2408 33.8133 73.8808 33.6 74.6674 33.6C75.6808 33.6 76.4741 33.8533 77.0474 34.36C77.6208 34.8667 77.9074 35.5667 77.9074 36.46V45H70.6074ZM74.4474 37.36C74.9008 37.36 75.2674 37.22 75.5474 36.94C75.8274 36.66 75.9674 36.2933 75.9674 35.84C75.9674 35.3867 75.8274 35.02 75.5474 34.74C75.2674 34.4467 74.9008 34.3 74.4474 34.3C73.9941 34.3 73.6208 34.4467 73.3274 34.74C73.0474 35.02 72.9074 35.3867 72.9074 35.84C72.9074 36.2933 73.0474 36.66 73.3274 36.94C73.6208 37.22 73.9941 37.36 74.4474 37.36ZM80.3274 43.88C80.3274 42.5867 80.2741 41.3933 80.1674 40.3C80.0741 39.4467 80.0274 38.74 80.0274 38.18C80.0274 37.2467 80.2741 36.4333 80.7674 35.74C81.2608 35.0467 81.9674 34.52 82.8874 34.16C83.8074 33.7867 84.8941 33.6 86.1474 33.6C87.3474 33.6 88.3941 33.76 89.2874 34.08C90.1808 34.3867 90.8674 34.8333 91.3474 35.42C91.8274 36.0067 92.0674 36.7 92.0674 37.5V45H89.3674V37.32C89.3674 36.4267 89.0741 35.7267 88.4874 35.22C87.9141 34.7 87.1274 34.44 86.1274 34.44C85.0341 34.44 84.1941 34.7533 83.6074 35.38C83.0208 36.0067 82.7274 36.8933 82.7274 38.04C82.7274 38.5333 82.7608 39.2333 82.8274 40.14C82.8941 41.62 82.9408 42.82 82.9674 43.74C83.8474 43.3267 84.5874 42.9 85.1874 42.46C85.7874 42.0067 86.3074 41.5 86.7474 40.94C86.5741 41.0333 86.3541 41.08 86.0874 41.08C85.3808 41.08 84.8008 40.8733 84.3474 40.46C83.8941 40.0467 83.6674 39.5133 83.6674 38.86C83.6674 38.1933 83.8874 37.6533 84.3274 37.24C84.7674 36.8267 85.3341 36.62 86.0274 36.62C86.7474 36.62 87.3341 36.8467 87.7874 37.3C88.2408 37.74 88.4674 38.32 88.4674 39.04C88.4674 39.7867 88.2141 40.54 87.7074 41.3C87.2141 42.0467 86.5141 42.7467 85.6074 43.4C84.7141 44.04 83.6808 44.5733 82.5074 45H80.3274V43.88ZM86.0274 40.38C86.4941 40.38 86.8674 40.24 87.1474 39.96C87.4408 39.68 87.5874 39.3133 87.5874 38.86C87.5874 38.4067 87.4408 38.04 87.1474 37.76C86.8674 37.4667 86.4941 37.32 86.0274 37.32C85.5741 37.32 85.2008 37.4667 84.9074 37.76C84.6274 38.04 84.4874 38.4067 84.4874 38.86C84.4874 39.3133 84.6274 39.68 84.9074 39.96C85.2008 40.24 85.5741 40.38 86.0274 40.38ZM85.8476 49.42C85.6076 49.54 85.3276 49.6 85.0076 49.6C84.4342 49.6 83.9742 49.4333 83.6276 49.1C83.2676 48.78 83.0876 48.36 83.0876 47.84C83.0876 47.2933 83.3076 46.8467 83.7476 46.5C84.1742 46.1667 84.7342 46 85.4276 46C86.2409 46 86.9009 46.18 87.4076 46.54C87.9009 46.9133 88.1476 47.3933 88.1476 47.98V50.22H89.7476V46H92.0676V51H85.8476V49.42ZM85.0076 48.96C85.3409 48.96 85.6142 48.8533 85.8276 48.64C86.0276 48.4267 86.1276 48.16 86.1276 47.84C86.1276 47.5067 86.0276 47.2333 85.8276 47.02C85.6142 46.82 85.3409 46.72 85.0076 46.72C84.6876 46.72 84.4209 46.82 84.2076 47.02C83.9942 47.2333 83.8876 47.5067 83.8876 47.84C83.8876 48.16 83.9942 48.4267 84.2076 48.64C84.4209 48.8533 84.6876 48.96 85.0076 48.96ZM94.4876 43.88C94.4876 42.5867 94.4342 41.3933 94.3276 40.3C94.2342 39.4467 94.1876 38.74 94.1876 38.18C94.1876 37.2467 94.4342 36.4333 94.9276 35.74C95.4209 35.0467 96.1276 34.52 97.0476 34.16C97.9676 33.7867 99.0542 33.6 100.308 33.6C101.508 33.6 102.554 33.76 103.448 34.08C104.341 34.3867 105.028 34.8333 105.508 35.42C105.988 36.0067 106.228 36.7 106.228 37.5V45H103.528V37.32C103.528 36.4267 103.234 35.7267 102.648 35.22C102.074 34.7 101.288 34.44 100.288 34.44C99.1942 34.44 98.3542 34.7533 97.7676 35.38C97.1809 36.0067 96.8876 36.8933 96.8876 38.04C96.8876 38.5333 96.9209 39.2333 96.9876 40.14C97.0542 41.62 97.1009 42.82 97.1276 43.74C98.0076 43.3267 98.7476 42.9 99.3476 42.46C99.9476 42.0067 100.468 41.5 100.908 40.94C100.734 41.0333 100.514 41.08 100.248 41.08C99.5409 41.08 98.9609 40.8733 98.5076 40.46C98.0542 40.0467 97.8276 39.5133 97.8276 38.86C97.8276 38.1933 98.0476 37.6533 98.4876 37.24C98.9276 36.8267 99.4942 36.62 100.188 36.62C100.908 36.62 101.494 36.8467 101.948 37.3C102.401 37.74 102.628 38.32 102.628 39.04C102.628 39.7867 102.374 40.54 101.868 41.3C101.374 42.0467 100.674 42.7467 99.7676 43.4C98.8742 44.04 97.8409 44.5733 96.6676 45H94.4876V43.88ZM100.188 40.38C100.654 40.38 101.028 40.24 101.308 39.96C101.601 39.68 101.748 39.3133 101.748 38.86C101.748 38.4067 101.601 38.04 101.308 37.76C101.028 37.4667 100.654 37.32 100.188 37.32C99.7342 37.32 99.3609 37.4667 99.0676 37.76C98.7876 38.04 98.6476 38.4067 98.6476 38.86C98.6476 39.3133 98.7876 39.68 99.0676 39.96C99.3609 40.24 99.7342 40.38 100.188 40.38ZM120.208 40.84C120.621 41.0267 120.948 41.3067 121.188 41.68C121.428 42.04 121.548 42.46 121.548 42.94C121.548 43.6067 121.321 44.1533 120.868 44.58C120.428 44.9933 119.854 45.2 119.148 45.2C118.441 45.2 117.861 44.9933 117.408 44.58C116.968 44.1533 116.748 43.6067 116.748 42.94C116.748 42.62 116.794 42.34 116.888 42.1C115.434 42.9 114.274 43.8667 113.408 45H110.788V37.9C110.548 38.02 110.261 38.08 109.928 38.08C109.234 38.08 108.668 37.8733 108.228 37.46C107.788 37.0467 107.568 36.5133 107.568 35.86C107.568 35.1933 107.808 34.6533 108.288 34.24C108.781 33.8133 109.421 33.6 110.208 33.6C111.221 33.6 112.014 33.8533 112.588 34.36C113.174 34.8667 113.468 35.5667 113.468 36.46V42.98C114.081 42.4067 114.828 41.88 115.708 41.4C116.601 40.92 117.488 40.5467 118.368 40.28V33.8H121.048V40.72C120.768 40.7333 120.488 40.7733 120.208 40.84ZM110.008 37.36C110.461 37.36 110.828 37.22 111.108 36.94C111.401 36.66 111.548 36.2933 111.548 35.84C111.548 35.3867 111.401 35.02 111.108 34.74C110.828 34.4467 110.461 34.3 110.008 34.3C109.554 34.3 109.181 34.4467 108.888 34.74C108.608 35.02 108.468 35.3867 108.468 35.84C108.468 36.2933 108.608 36.66 108.888 36.94C109.181 37.22 109.554 37.36 110.008 37.36ZM119.148 44.44C119.614 44.44 119.988 44.3 120.268 44.02C120.561 43.74 120.708 43.3733 120.708 42.92C120.708 42.4667 120.561 42.1 120.268 41.82C119.974 41.5267 119.601 41.38 119.148 41.38C118.694 41.38 118.321 41.5267 118.028 41.82C117.734 42.1 117.588 42.4667 117.588 42.92C117.588 43.3733 117.728 43.74 118.008 44.02C118.301 44.3 118.681 44.44 119.148 44.44ZM117.652 32.02C116.292 32.02 115.239 31.8067 114.492 31.38C113.732 30.94 113.352 30.32 113.352 29.52C113.352 28.92 113.552 28.4333 113.952 28.06C114.339 27.6867 114.845 27.5 115.472 27.5C116.099 27.5 116.619 27.6867 117.032 28.06C117.432 28.4333 117.632 28.92 117.632 29.52C117.632 29.92 117.512 30.28 117.272 30.6C117.032 30.92 116.719 31.1467 116.332 31.28C116.612 31.3333 116.979 31.36 117.432 31.36C118.152 31.36 118.799 31.2 119.372 30.88C119.945 30.56 120.399 30.12 120.732 29.56C121.052 28.9867 121.212 28.3333 121.212 27.6H123.652C123.652 28.4533 123.379 29.22 122.832 29.9C122.299 30.5667 121.579 31.0867 120.672 31.46C119.752 31.8333 118.745 32.02 117.652 32.02ZM115.472 30.82C115.872 30.82 116.199 30.7 116.452 30.46C116.692 30.22 116.812 29.9067 116.812 29.52C116.812 29.12 116.692 28.8 116.452 28.56C116.199 28.32 115.872 28.2 115.472 28.2C115.085 28.2 114.772 28.32 114.532 28.56C114.279 28.8 114.152 29.12 114.152 29.52C114.152 29.9067 114.279 30.22 114.532 30.46C114.772 30.7 115.085 30.82 115.472 30.82ZM123.452 40.66C123.452 39.54 123.965 38.7467 124.992 38.28H122.852C122.879 37.32 123.139 36.4867 123.632 35.78C124.125 35.0733 124.812 34.5333 125.692 34.16C126.585 33.7867 127.632 33.6 128.832 33.6C129.979 33.6 130.972 33.76 131.812 34.08C132.652 34.4 133.299 34.8533 133.752 35.44C134.205 36.0267 134.432 36.72 134.432 37.52V45H131.732V37.32C131.732 36.4 131.479 35.6933 130.972 35.2C130.465 34.6933 129.745 34.44 128.812 34.44C127.785 34.44 126.972 34.6867 126.372 35.18C125.772 35.6733 125.432 36.3733 125.352 37.28H128.132V38.04C127.439 38.1067 126.932 38.3067 126.612 38.64C126.305 38.9733 126.152 39.48 126.152 40.16V45H123.452V40.66ZM147.151 33.8C147.924 33.8 148.511 33.96 148.911 34.28C149.324 34.6 149.531 35.06 149.531 35.66V44.98H146.831V35.66C146.831 35.5 146.784 35.38 146.691 35.3C146.598 35.2067 146.471 35.16 146.311 35.16H145.771L141.631 44.98H138.991V37.9C138.751 38.02 138.464 38.08 138.131 38.08C137.438 38.08 136.871 37.8733 136.431 37.46C135.991 37.0467 135.771 36.5133 135.771 35.86C135.771 35.1933 136.018 34.6533 136.511 34.24C137.004 33.8133 137.644 33.6 138.431 33.6C139.444 33.6 140.238 33.8533 140.811 34.36C141.384 34.8667 141.671 35.5667 141.671 36.46V41.96L145.031 33.8H147.151ZM138.211 37.36C138.664 37.36 139.031 37.22 139.311 36.94C139.604 36.66 139.751 36.2933 139.751 35.84C139.751 35.3867 139.604 35.02 139.311 34.74C139.031 34.4467 138.664 34.3 138.211 34.3C137.758 34.3 137.384 34.4467 137.091 34.74C136.811 35.02 136.671 35.3867 136.671 35.84C136.671 36.2933 136.811 36.66 137.091 36.94C137.384 37.22 137.758 37.36 138.211 37.36ZM146.989 27.28H149.369V31.76H146.989V27.28ZM151.869 40.88C151.869 39.9867 152.155 39.2867 152.729 38.78C153.315 38.2733 154.115 38.02 155.129 38.02C155.915 38.02 156.555 38.2333 157.049 38.66C157.542 39.0733 157.789 39.6133 157.789 40.28C157.789 40.9333 157.569 41.4667 157.129 41.88C156.702 42.2933 156.135 42.5 155.429 42.5C155.055 42.5 154.755 42.4333 154.529 42.3V44.04H160.529V37.68C160.529 36.6933 160.209 35.9067 159.569 35.32C158.942 34.7333 158.082 34.44 156.989 34.44C155.922 34.44 155.055 34.7133 154.389 35.26C153.735 35.7933 153.375 36.5267 153.309 37.46H150.989C151.082 36.2733 151.669 35.3333 152.749 34.64C153.842 33.9467 155.269 33.6 157.029 33.6C158.295 33.6 159.395 33.78 160.329 34.14C161.262 34.5 161.975 35.0133 162.469 35.68C162.975 36.3333 163.229 37.1067 163.229 38V45H151.869V40.88ZM155.349 41.8C155.802 41.8 156.169 41.66 156.449 41.38C156.729 41.0867 156.869 40.7133 156.869 40.26C156.869 39.8067 156.729 39.44 156.449 39.16C156.169 38.88 155.802 38.74 155.349 38.74C154.895 38.74 154.522 38.88 154.229 39.16C153.949 39.44 153.809 39.8067 153.809 40.26C153.809 40.7133 153.949 41.0867 154.229 41.38C154.522 41.66 154.895 41.8 155.349 41.8ZM168.42 45C168.22 43.7333 167.773 42.4933 167.08 41.28C166.4 40.0533 165.573 39.0267 164.6 38.2L166.72 36.7C167.667 37.3667 168.48 38.3333 169.16 39.6C169.853 40.8533 170.367 42.3267 170.7 44.02H173.04V37.9C172.773 38.02 172.48 38.08 172.16 38.08C171.467 38.08 170.9 37.8733 170.46 37.46C170.033 37.0467 169.82 36.5133 169.82 35.86C169.82 35.1933 170.067 34.6533 170.56 34.24C171.053 33.8133 171.693 33.6 172.48 33.6C173.493 33.6 174.287 33.8533 174.86 34.36C175.433 34.8667 175.72 35.5667 175.72 36.46V45H168.42ZM172.26 37.36C172.713 37.36 173.08 37.22 173.36 36.94C173.64 36.66 173.78 36.2933 173.78 35.84C173.78 35.3867 173.64 35.02 173.36 34.74C173.08 34.4467 172.713 34.3 172.26 34.3C171.807 34.3 171.433 34.4467 171.14 34.74C170.86 35.02 170.72 35.3867 170.72 35.84C170.72 36.2933 170.86 36.66 171.14 36.94C171.433 37.22 171.807 37.36 172.26 37.36ZM181.96 45.2C180.947 45.2 180.147 44.9533 179.56 44.46C178.987 43.9533 178.7 43.2467 178.7 42.34V33.8H181.4V40.92C181.6 40.7867 181.887 40.72 182.26 40.72C182.953 40.72 183.513 40.9267 183.94 41.34C184.38 41.7533 184.6 42.2867 184.6 42.94C184.6 43.6067 184.353 44.1533 183.86 44.58C183.38 44.9933 182.747 45.2 181.96 45.2ZM182.18 44.5C182.633 44.5 183 44.36 183.28 44.08C183.56 43.7867 183.7 43.4133 183.7 42.96C183.7 42.5067 183.56 42.14 183.28 41.86C183 41.58 182.633 41.44 182.18 41.44C181.727 41.44 181.353 41.58 181.06 41.86C180.78 42.14 180.64 42.5067 180.64 42.96C180.64 43.4133 180.78 43.7867 181.06 44.08C181.353 44.36 181.727 44.5 182.18 44.5ZM196.487 33.8C197.26 33.8 197.847 33.96 198.247 34.28C198.66 34.6 198.867 35.06 198.867 35.66V44.98H196.167V35.66C196.167 35.5 196.12 35.38 196.027 35.3C195.933 35.2067 195.807 35.16 195.647 35.16H195.107L190.967 44.98H188.327V37.9C188.087 38.02 187.8 38.08 187.467 38.08C186.773 38.08 186.207 37.8733 185.767 37.46C185.327 37.0467 185.107 36.5133 185.107 35.86C185.107 35.1933 185.353 34.6533 185.847 34.24C186.34 33.8133 186.98 33.6 187.767 33.6C188.78 33.6 189.573 33.8533 190.147 34.36C190.72 34.8667 191.007 35.5667 191.007 36.46V41.96L194.367 33.8H196.487ZM187.547 37.36C188 37.36 188.367 37.22 188.647 36.94C188.94 36.66 189.087 36.2933 189.087 35.84C189.087 35.3867 188.94 35.02 188.647 34.74C188.367 34.4467 188 34.3 187.547 34.3C187.093 34.3 186.72 34.4467 186.427 34.74C186.147 35.02 186.007 35.3867 186.007 35.84C186.007 36.2933 186.147 36.66 186.427 36.94C186.72 37.22 187.093 37.36 187.547 37.36ZM198.864 27V31.76H187.884C187.938 30.9867 188.204 30.3 188.684 29.7C189.151 29.1 189.778 28.6333 190.564 28.3C191.351 27.9667 192.238 27.8 193.224 27.8C194.344 27.8 195.364 28.02 196.284 28.46V27H198.864ZM196.704 30.92C196.611 30.28 196.244 29.76 195.604 29.36C194.964 28.9467 194.171 28.74 193.224 28.74C192.264 28.74 191.471 28.94 190.844 29.34C190.204 29.74 189.844 30.2667 189.764 30.92H196.704ZM196.404 22.28H198.744V26H196.404V22.28ZM212.544 33.8V45H201.664V42.36C201.664 41.84 201.858 41.38 202.244 40.98C202.644 40.58 203.171 40.3067 203.824 40.16C202.918 39.9067 202.231 39.5 201.764 38.94C201.298 38.38 201.064 37.6933 201.064 36.88C201.064 36.24 201.231 35.6733 201.564 35.18C201.898 34.6733 202.364 34.2867 202.964 34.02C203.578 33.74 204.271 33.6 205.044 33.6C205.978 33.6 206.738 33.8267 207.324 34.28C207.911 34.7333 208.204 35.3267 208.204 36.06C208.204 36.7267 207.978 37.28 207.524 37.72C207.071 38.1467 206.491 38.36 205.784 38.36C205.211 38.36 204.718 38.22 204.304 37.94C203.891 37.6467 203.611 37.26 203.464 36.78V36.88C203.464 37.7867 203.764 38.4533 204.364 38.88C204.964 39.3067 205.898 39.52 207.164 39.52H207.344V40.54H207.184C206.171 40.54 205.444 40.6933 205.004 41C204.564 41.2933 204.344 41.78 204.344 42.46V44.02H209.864V33.8H212.544ZM205.764 34.54C205.311 34.54 204.938 34.6867 204.644 34.98C204.351 35.26 204.204 35.6267 204.204 36.08C204.204 36.52 204.351 36.8867 204.644 37.18C204.938 37.46 205.311 37.6 205.764 37.6C206.204 37.6 206.571 37.46 206.864 37.18C207.158 36.8867 207.304 36.52 207.304 36.08C207.304 35.6267 207.158 35.26 206.864 34.98C206.571 34.6867 206.204 34.54 205.764 34.54ZM220.956 45.2C220.21 45.2 219.603 44.9933 219.136 44.58C218.683 44.1533 218.456 43.6067 218.456 42.94C218.456 42.2867 218.683 41.7533 219.136 41.34C219.59 40.9267 220.17 40.72 220.876 40.72C221.17 40.72 221.436 40.7867 221.676 40.92V37.34C221.676 36.4467 221.436 35.7467 220.956 35.24C220.476 34.72 219.816 34.46 218.976 34.46C218.15 34.46 217.476 34.7267 216.956 35.26C216.45 35.7933 216.176 36.5267 216.136 37.46H213.796C213.863 36.2467 214.37 35.3 215.316 34.62C216.263 33.94 217.53 33.6 219.116 33.6C220.756 33.6 222.036 33.9467 222.956 34.64C223.89 35.32 224.356 36.2733 224.356 37.5V42.3C224.356 43.22 224.056 43.9333 223.456 44.44C222.87 44.9467 222.036 45.2 220.956 45.2ZM220.896 44.5C221.35 44.5 221.716 44.36 221.996 44.08C222.276 43.7867 222.416 43.4133 222.416 42.96C222.416 42.5067 222.276 42.14 221.996 41.86C221.716 41.58 221.35 41.44 220.896 41.44C220.443 41.44 220.07 41.58 219.776 41.86C219.496 42.14 219.356 42.5067 219.356 42.96C219.356 43.4133 219.496 43.7867 219.776 44.08C220.07 44.36 220.443 44.5 220.896 44.5ZM95.1507 56.6V65H93.8007L89.9307 62.72V63.41C89.9307 63.95 89.7507 64.375 89.3907 64.685C89.0307 64.995 88.5357 65.15 87.9057 65.15C87.3157 65.15 86.8457 64.99 86.4957 64.67C86.1457 64.34 85.9707 63.895 85.9707 63.335C85.9707 62.725 86.1657 62.245 86.5557 61.895C86.9457 61.535 87.4757 61.355 88.1457 61.355C88.2957 61.355 88.4107 61.36 88.4907 61.37V59.405C88.3907 59.495 88.2507 59.575 88.0707 59.645C87.9007 59.705 87.7257 59.735 87.5457 59.735C87.0457 59.735 86.6357 59.585 86.3157 59.285C86.0057 58.985 85.8507 58.59 85.8507 58.1C85.8507 57.61 86.0257 57.215 86.3757 56.915C86.7257 56.605 87.1857 56.45 87.7557 56.45C88.4357 56.45 88.9657 56.635 89.3457 57.005C89.7357 57.375 89.9307 57.895 89.9307 58.565V61.805C90.0407 61.855 90.1057 61.89 90.1257 61.91L93.7107 64.01V56.6H95.1507ZM87.5757 59.255C87.9257 59.255 88.2057 59.145 88.4157 58.925C88.6357 58.705 88.7457 58.425 88.7457 58.085C88.7457 57.745 88.6357 57.47 88.4157 57.26C88.1957 57.04 87.9157 56.93 87.5757 56.93C87.2357 56.93 86.9557 57.04 86.7357 57.26C86.5157 57.47 86.4057 57.745 86.4057 58.085C86.4057 58.425 86.5157 58.705 86.7357 58.925C86.9557 59.145 87.2357 59.255 87.5757 59.255ZM88.4907 62.075C88.3107 61.995 88.1157 61.955 87.9057 61.955C87.5257 61.955 87.2157 62.085 86.9757 62.345C86.7457 62.605 86.6307 62.94 86.6307 63.35C86.6307 63.74 86.7207 64.05 86.9007 64.28C87.0807 64.5 87.3307 64.61 87.6507 64.61C88.2107 64.61 88.4907 64.295 88.4907 63.665V62.075ZM102.174 59.165C102.174 58.505 101.979 57.975 101.589 57.575C101.209 57.175 100.684 56.975 100.014 56.975C99.3939 56.975 98.8789 57.165 98.4689 57.545C98.0689 57.915 97.8339 58.43 97.7639 59.09H96.3989C96.4689 58.29 96.8239 57.65 97.4639 57.17C98.1139 56.69 98.9639 56.45 100.014 56.45C101.104 56.45 101.974 56.71 102.624 57.23C103.284 57.75 103.614 58.46 103.614 59.36V65H102.174V59.165ZM108.391 65.15C107.731 65.15 107.206 64.97 106.816 64.61C106.426 64.25 106.231 63.725 106.231 63.035V56.6H107.671V62.195C107.771 62.095 107.906 62.015 108.076 61.955C108.246 61.895 108.431 61.865 108.631 61.865C109.131 61.865 109.531 62.015 109.831 62.315C110.141 62.615 110.296 63.01 110.296 63.5C110.296 64 110.121 64.4 109.771 64.7C109.421 65 108.961 65.15 108.391 65.15ZM108.571 64.67C108.911 64.67 109.191 64.565 109.411 64.355C109.631 64.135 109.741 63.855 109.741 63.515C109.741 63.165 109.631 62.885 109.411 62.675C109.201 62.455 108.921 62.345 108.571 62.345C108.231 62.345 107.951 62.455 107.731 62.675C107.521 62.895 107.416 63.175 107.416 63.515C107.416 63.855 107.521 64.135 107.731 64.355C107.951 64.565 108.231 64.67 108.571 64.67ZM119.795 56.6V65H112.13V63.05C112.13 62.67 112.275 62.33 112.565 62.03C112.855 61.73 113.245 61.51 113.735 61.37C113.055 61.2 112.525 60.9 112.145 60.47C111.775 60.04 111.59 59.515 111.59 58.895C111.59 58.165 111.85 57.575 112.37 57.125C112.89 56.675 113.57 56.45 114.41 56.45C115.09 56.45 115.645 56.62 116.075 56.96C116.505 57.3 116.72 57.745 116.72 58.295C116.72 58.795 116.555 59.2 116.225 59.51C115.905 59.82 115.485 59.975 114.965 59.975C114.445 59.975 114.02 59.825 113.69 59.525C113.36 59.215 113.195 58.815 113.195 58.325C113.195 58.015 113.31 57.745 113.54 57.515C113.13 57.815 112.925 58.275 112.925 58.895C112.925 60.275 113.86 60.965 115.73 60.965H115.865V61.58H115.745C115.045 61.58 114.505 61.715 114.125 61.985C113.755 62.245 113.57 62.625 113.57 63.125V64.37H118.355V56.6H119.795ZM114.95 57.155C114.61 57.155 114.33 57.265 114.11 57.485C113.89 57.705 113.78 57.985 113.78 58.325C113.78 58.665 113.89 58.945 114.11 59.165C114.33 59.385 114.61 59.495 114.95 59.495C115.3 59.495 115.585 59.385 115.805 59.165C116.025 58.945 116.135 58.665 116.135 58.325C116.135 57.985 116.025 57.705 115.805 57.485C115.585 57.265 115.3 57.155 114.95 57.155ZM119.793 51.785V55.07H112.023C112.063 54.54 112.253 54.07 112.593 53.66C112.923 53.24 113.373 52.915 113.943 52.685C114.513 52.455 115.148 52.34 115.848 52.34C116.818 52.34 117.673 52.565 118.413 53.015V51.785H119.793ZM118.548 54.575C118.478 54.085 118.193 53.685 117.693 53.375C117.193 53.065 116.578 52.91 115.848 52.91C115.108 52.91 114.493 53.065 114.003 53.375C113.513 53.675 113.233 54.075 113.163 54.575H118.548ZM118.473 48.44H119.748V51.11H118.473V48.44ZM129.888 56.6V65H122.223V63.05C122.223 62.67 122.368 62.33 122.658 62.03C122.948 61.73 123.338 61.51 123.828 61.37C123.148 61.2 122.618 60.9 122.238 60.47C121.868 60.04 121.683 59.515 121.683 58.895C121.683 58.165 121.943 57.575 122.463 57.125C122.983 56.675 123.663 56.45 124.503 56.45C125.183 56.45 125.738 56.62 126.168 56.96C126.598 57.3 126.813 57.745 126.813 58.295C126.813 58.795 126.648 59.2 126.318 59.51C125.998 59.82 125.578 59.975 125.058 59.975C124.538 59.975 124.113 59.825 123.783 59.525C123.453 59.215 123.288 58.815 123.288 58.325C123.288 58.015 123.403 57.745 123.633 57.515C123.223 57.815 123.018 58.275 123.018 58.895C123.018 60.275 123.953 60.965 125.823 60.965H125.958V61.58H125.838C125.138 61.58 124.598 61.715 124.218 61.985C123.848 62.245 123.663 62.625 123.663 63.125V64.37H128.448V56.6H129.888ZM125.043 57.155C124.703 57.155 124.423 57.265 124.203 57.485C123.983 57.705 123.873 57.985 123.873 58.325C123.873 58.665 123.983 58.945 124.203 59.165C124.423 59.385 124.703 59.495 125.043 59.495C125.393 59.495 125.678 59.385 125.898 59.165C126.118 58.945 126.228 58.665 126.228 58.325C126.228 57.985 126.118 57.705 125.898 57.485C125.678 57.265 125.393 57.155 125.043 57.155ZM141 56.6V65H139.65L135.78 62.72V63.41C135.78 63.95 135.6 64.375 135.24 64.685C134.88 64.995 134.385 65.15 133.755 65.15C133.165 65.15 132.695 64.99 132.345 64.67C131.995 64.34 131.82 63.895 131.82 63.335C131.82 62.725 132.015 62.245 132.405 61.895C132.795 61.535 133.325 61.355 133.995 61.355C134.145 61.355 134.26 61.36 134.34 61.37V59.405C134.24 59.495 134.1 59.575 133.92 59.645C133.75 59.705 133.575 59.735 133.395 59.735C132.895 59.735 132.485 59.585 132.165 59.285C131.855 58.985 131.7 58.59 131.7 58.1C131.7 57.61 131.875 57.215 132.225 56.915C132.575 56.605 133.035 56.45 133.605 56.45C134.285 56.45 134.815 56.635 135.195 57.005C135.585 57.375 135.78 57.895 135.78 58.565V61.805C135.89 61.855 135.955 61.89 135.975 61.91L139.56 64.01V56.6H141ZM133.425 59.255C133.775 59.255 134.055 59.145 134.265 58.925C134.485 58.705 134.595 58.425 134.595 58.085C134.595 57.745 134.485 57.47 134.265 57.26C134.045 57.04 133.765 56.93 133.425 56.93C133.085 56.93 132.805 57.04 132.585 57.26C132.365 57.47 132.255 57.745 132.255 58.085C132.255 58.425 132.365 58.705 132.585 58.925C132.805 59.145 133.085 59.255 133.425 59.255ZM134.34 62.075C134.16 61.995 133.965 61.955 133.755 61.955C133.375 61.955 133.065 62.085 132.825 62.345C132.595 62.605 132.48 62.94 132.48 63.35C132.48 63.74 132.57 64.05 132.75 64.28C132.93 64.5 133.18 64.61 133.5 64.61C134.06 64.61 134.34 64.295 134.34 63.665V62.075ZM143.973 61.88C144.933 61.59 145.648 61.22 146.118 60.77C146.588 60.31 146.823 59.755 146.823 59.105C146.823 58.485 146.643 57.985 146.283 57.605C145.933 57.215 145.478 57.02 144.918 57.02C144.548 57.02 144.213 57.105 143.913 57.275C143.613 57.445 143.408 57.665 143.298 57.935C143.408 57.845 143.548 57.775 143.718 57.725C143.898 57.665 144.078 57.635 144.258 57.635C144.738 57.635 145.133 57.79 145.443 58.1C145.753 58.4 145.908 58.79 145.908 59.27C145.908 59.75 145.748 60.145 145.428 60.455C145.108 60.765 144.698 60.92 144.198 60.92C143.618 60.92 143.148 60.73 142.788 60.35C142.428 59.96 142.248 59.46 142.248 58.85C142.248 58.12 142.498 57.54 142.998 57.11C143.508 56.67 144.188 56.45 145.038 56.45C145.928 56.45 146.638 56.69 147.168 57.17C147.698 57.64 147.963 58.27 147.963 59.06C147.963 60.44 147.113 61.445 145.413 62.075V64.37H149.568V60.2C149.568 59.9 149.473 59.64 149.283 59.42C149.093 59.2 148.838 59.045 148.518 58.955V58.625C148.878 58.465 149.148 58.2 149.328 57.83C149.518 57.46 149.613 57 149.613 56.45H151.338C151.248 57.69 150.708 58.46 149.718 58.76C150.128 58.89 150.443 59.08 150.663 59.33C150.893 59.57 151.008 59.85 151.008 60.17V65H143.973V61.88ZM144.213 60.44C144.563 60.44 144.843 60.33 145.053 60.11C145.273 59.89 145.383 59.61 145.383 59.27C145.383 58.93 145.273 58.65 145.053 58.43C144.833 58.21 144.553 58.1 144.213 58.1C143.873 58.1 143.593 58.21 143.373 58.43C143.153 58.65 143.043 58.93 143.043 59.27C143.043 59.61 143.153 59.89 143.373 60.11C143.593 60.33 143.873 60.44 144.213 60.44ZM162.123 56.6V65H160.773L156.903 62.72V63.41C156.903 63.95 156.723 64.375 156.363 64.685C156.003 64.995 155.508 65.15 154.878 65.15C154.288 65.15 153.818 64.99 153.468 64.67C153.118 64.34 152.943 63.895 152.943 63.335C152.943 62.725 153.138 62.245 153.528 61.895C153.918 61.535 154.448 61.355 155.118 61.355C155.268 61.355 155.383 61.36 155.463 61.37V59.405C155.363 59.495 155.223 59.575 155.043 59.645C154.873 59.705 154.698 59.735 154.518 59.735C154.018 59.735 153.608 59.585 153.288 59.285C152.978 58.985 152.823 58.59 152.823 58.1C152.823 57.61 152.998 57.215 153.348 56.915C153.698 56.605 154.158 56.45 154.728 56.45C155.408 56.45 155.938 56.635 156.318 57.005C156.708 57.375 156.903 57.895 156.903 58.565V61.805C157.013 61.855 157.078 61.89 157.098 61.91L160.683 64.01V56.6H162.123ZM154.548 59.255C154.898 59.255 155.178 59.145 155.388 58.925C155.608 58.705 155.718 58.425 155.718 58.085C155.718 57.745 155.608 57.47 155.388 57.26C155.168 57.04 154.888 56.93 154.548 56.93C154.208 56.93 153.928 57.04 153.708 57.26C153.488 57.47 153.378 57.745 153.378 58.085C153.378 58.425 153.488 58.705 153.708 58.925C153.928 59.145 154.208 59.255 154.548 59.255ZM155.463 62.075C155.283 61.995 155.088 61.955 154.878 61.955C154.498 61.955 154.188 62.085 153.948 62.345C153.718 62.605 153.603 62.94 153.603 63.35C153.603 63.74 153.693 64.05 153.873 64.28C154.053 64.5 154.303 64.61 154.623 64.61C155.183 64.61 155.463 64.295 155.463 63.665V62.075ZM166.897 65.15C166.237 65.15 165.712 64.97 165.322 64.61C164.932 64.25 164.737 63.725 164.737 63.035V56.6H166.177V62.195C166.277 62.095 166.412 62.015 166.582 61.955C166.752 61.895 166.937 61.865 167.137 61.865C167.637 61.865 168.037 62.015 168.337 62.315C168.647 62.615 168.802 63.01 168.802 63.5C168.802 64 168.627 64.4 168.277 64.7C167.927 65 167.467 65.15 166.897 65.15ZM171.817 65.15C171.147 65.15 170.617 64.97 170.227 64.61C169.837 64.25 169.642 63.725 169.642 63.035V56.6H171.097V62.195C171.187 62.105 171.317 62.03 171.487 61.97C171.657 61.9 171.842 61.865 172.042 61.865C172.542 61.865 172.942 62.015 173.242 62.315C173.552 62.615 173.707 63.01 173.707 63.5C173.707 64 173.532 64.4 173.182 64.7C172.842 65 172.387 65.15 171.817 65.15ZM167.077 64.67C167.417 64.67 167.697 64.565 167.917 64.355C168.137 64.135 168.247 63.855 168.247 63.515C168.247 63.165 168.137 62.885 167.917 62.675C167.707 62.455 167.427 62.345 167.077 62.345C166.737 62.345 166.457 62.455 166.237 62.675C166.027 62.895 165.922 63.175 165.922 63.515C165.922 63.855 166.027 64.135 166.237 64.355C166.457 64.565 166.737 64.67 167.077 64.67ZM171.997 64.67C172.337 64.67 172.617 64.565 172.837 64.355C173.057 64.135 173.167 63.855 173.167 63.515C173.167 63.165 173.057 62.885 172.837 62.675C172.627 62.455 172.347 62.345 171.997 62.345C171.657 62.345 171.377 62.455 171.157 62.675C170.937 62.895 170.827 63.175 170.827 63.515C170.827 63.855 170.937 64.135 171.157 64.355C171.377 64.565 171.657 64.67 171.997 64.67ZM177.583 65.15C176.883 65.15 176.323 64.915 175.903 64.445C175.483 63.975 175.273 63.355 175.273 62.585C175.273 61.905 175.423 61.305 175.723 60.785C176.033 60.265 176.468 59.865 177.028 59.585C177.588 59.295 178.233 59.15 178.963 59.15C179.683 59.15 180.318 59.34 180.868 59.72C181.418 60.09 181.828 60.615 182.098 61.295V59.24C182.098 58.55 181.853 58.005 181.363 57.605C180.873 57.195 180.213 56.99 179.383 56.99C178.583 56.99 177.913 57.175 177.373 57.545C176.833 57.905 176.508 58.39 176.398 59H175.033C175.173 58.23 175.638 57.615 176.428 57.155C177.218 56.685 178.203 56.45 179.383 56.45C180.223 56.45 180.953 56.57 181.573 56.81C182.203 57.05 182.688 57.39 183.028 57.83C183.368 58.26 183.538 58.77 183.538 59.36V65H182.098V64.85C182.098 63.23 181.828 61.97 181.288 61.07C180.748 60.16 179.993 59.705 179.023 59.705C178.373 59.705 177.828 59.935 177.388 60.395C176.958 60.855 176.723 61.465 176.683 62.225C176.763 62.125 176.903 62.04 177.103 61.97C177.303 61.9 177.503 61.865 177.703 61.865C178.203 61.865 178.613 62.02 178.933 62.33C179.263 62.64 179.428 63.035 179.428 63.515C179.428 63.995 179.253 64.39 178.903 64.7C178.563 65 178.123 65.15 177.583 65.15ZM177.688 64.67C178.038 64.67 178.318 64.565 178.528 64.355C178.748 64.145 178.858 63.865 178.858 63.515C178.858 63.165 178.748 62.885 178.528 62.675C178.318 62.455 178.038 62.345 177.688 62.345C177.338 62.345 177.058 62.455 176.848 62.675C176.638 62.885 176.533 63.165 176.533 63.515C176.533 63.855 176.638 64.135 176.848 64.355C177.068 64.565 177.348 64.67 177.688 64.67ZM188.343 60.5C187.533 60.5 186.843 60.325 186.273 59.975C185.713 59.625 185.433 59.115 185.433 58.445C185.433 57.995 185.578 57.625 185.868 57.335C186.158 57.045 186.533 56.9 186.993 56.9C187.433 56.9 187.793 57.04 188.073 57.32C188.353 57.6 188.493 57.955 188.493 58.385C188.493 58.725 188.388 59.03 188.178 59.3C187.968 59.56 187.693 59.725 187.353 59.795C187.623 59.875 187.948 59.915 188.328 59.915C189.118 59.915 189.743 59.645 190.203 59.105C190.663 58.565 190.893 57.795 190.893 56.795H192.093V57.095C192.093 57.765 191.943 58.355 191.643 58.865C191.343 59.375 190.908 59.775 190.338 60.065C189.778 60.355 189.113 60.5 188.343 60.5ZM186.963 59.33C187.253 59.33 187.493 59.24 187.683 59.06C187.873 58.87 187.968 58.635 187.968 58.355C187.968 58.075 187.873 57.845 187.683 57.665C187.493 57.475 187.253 57.38 186.963 57.38C186.673 57.38 186.433 57.475 186.243 57.665C186.063 57.845 185.973 58.075 185.973 58.355C185.973 58.635 186.063 58.87 186.243 59.06C186.433 59.24 186.673 59.33 186.963 59.33ZM188.343 64.82C187.533 64.82 186.843 64.645 186.273 64.295C185.713 63.945 185.433 63.435 185.433 62.765C185.433 62.315 185.578 61.945 185.868 61.655C186.158 61.365 186.533 61.22 186.993 61.22C187.433 61.22 187.793 61.36 188.073 61.64C188.353 61.92 188.493 62.275 188.493 62.705C188.493 63.045 188.388 63.35 188.178 63.62C187.968 63.88 187.693 64.045 187.353 64.115C187.623 64.195 187.948 64.235 188.328 64.235C189.098 64.235 189.718 63.965 190.188 63.425C190.658 62.875 190.893 62.105 190.893 61.115H192.093V61.415C192.093 62.075 191.938 62.665 191.628 63.185C191.318 63.695 190.878 64.095 190.308 64.385C189.748 64.675 189.093 64.82 188.343 64.82ZM186.963 63.65C187.253 63.65 187.493 63.56 187.683 63.38C187.873 63.19 187.968 62.955 187.968 62.675C187.968 62.395 187.873 62.165 187.683 61.985C187.493 61.795 187.253 61.7 186.963 61.7C186.673 61.7 186.433 61.795 186.243 61.985C186.063 62.165 185.973 62.395 185.973 62.675C185.973 62.955 186.063 63.19 186.243 63.38C186.433 63.56 186.673 63.65 186.963 63.65ZM76.8947 84.205C76.8947 83.175 76.8497 82.27 76.7597 81.49C76.6897 80.89 76.6547 80.35 76.6547 79.87C76.6547 79.18 76.8297 78.58 77.1797 78.07C77.5397 77.55 78.0447 77.15 78.6947 76.87C79.3447 76.59 80.1097 76.45 80.9897 76.45C81.8297 76.45 82.5647 76.57 83.1947 76.81C83.8347 77.05 84.3247 77.39 84.6647 77.83C85.0147 78.27 85.1897 78.78 85.1897 79.36V85H83.7497V79.225C83.7497 78.545 83.4947 78 82.9847 77.59C82.4847 77.18 81.8147 76.975 80.9747 76.975C80.0647 76.975 79.3547 77.22 78.8447 77.71C78.3447 78.2 78.0947 78.885 78.0947 79.765C78.0947 80.105 78.1197 80.64 78.1697 81.37C78.2397 82.34 78.2747 83.31 78.2747 84.28C79.0247 83.97 79.6897 83.6 80.2697 83.17C80.8497 82.74 81.2897 82.29 81.5897 81.82C81.3897 81.93 81.1747 81.985 80.9447 81.985C80.4347 81.985 80.0147 81.835 79.6847 81.535C79.3647 81.225 79.2047 80.83 79.2047 80.35C79.2047 79.86 79.3647 79.465 79.6847 79.165C80.0147 78.855 80.4297 78.7 80.9297 78.7C81.4397 78.7 81.8597 78.87 82.1897 79.21C82.5197 79.54 82.6847 79.965 82.6847 80.485C82.6847 81.035 82.4897 81.6 82.0997 82.18C81.7097 82.75 81.1697 83.285 80.4797 83.785C79.7897 84.275 79.0097 84.68 78.1397 85H76.8947V84.205ZM80.9297 81.52C81.2797 81.52 81.5647 81.41 81.7847 81.19C82.0047 80.97 82.1147 80.69 82.1147 80.35C82.1147 80.01 82.0047 79.73 81.7847 79.51C81.5647 79.29 81.2797 79.18 80.9297 79.18C80.5797 79.18 80.2947 79.29 80.0747 79.51C79.8547 79.73 79.7447 80.01 79.7447 80.35C79.7447 80.69 79.8547 80.97 80.0747 81.19C80.2947 81.41 80.5797 81.52 80.9297 81.52ZM85.0465 71.785V75.07H77.2765C77.3165 74.54 77.5065 74.07 77.8465 73.66C78.1765 73.24 78.6265 72.915 79.1965 72.685C79.7665 72.455 80.4015 72.34 81.1015 72.34C81.4015 72.34 81.6565 72.36 81.8665 72.4V71.785H82.9765V72.685C83.2765 72.805 83.5815 72.975 83.8915 73.195V71.785H85.0465ZM83.8015 74.575C83.7315 74.085 83.4465 73.685 82.9465 73.375C82.4465 73.065 81.8315 72.91 81.1015 72.91C80.3615 72.91 79.7465 73.065 79.2565 73.375C78.7665 73.675 78.4865 74.075 78.4165 74.575H83.8015ZM83.7265 68.44H85.0015V71.11H83.7265V68.44ZM96.3079 76.6V85H94.958L91.0879 82.72V83.41C91.0879 83.95 90.9079 84.375 90.5479 84.685C90.1879 84.995 89.6929 85.15 89.0629 85.15C88.4729 85.15 88.0029 84.99 87.6529 84.67C87.3029 84.34 87.1279 83.895 87.1279 83.335C87.1279 82.725 87.3229 82.245 87.7129 81.895C88.1029 81.535 88.6329 81.355 89.3029 81.355C89.4529 81.355 89.5679 81.36 89.6479 81.37V79.405C89.5479 79.495 89.4079 79.575 89.2279 79.645C89.0579 79.705 88.8829 79.735 88.7029 79.735C88.2029 79.735 87.7929 79.585 87.4729 79.285C87.1629 78.985 87.0079 78.59 87.0079 78.1C87.0079 77.61 87.1829 77.215 87.5329 76.915C87.8829 76.605 88.3429 76.45 88.9129 76.45C89.5929 76.45 90.1229 76.635 90.5029 77.005C90.8929 77.375 91.0879 77.895 91.0879 78.565V81.805C91.1979 81.855 91.2629 81.89 91.2829 81.91L94.8679 84.01V76.6H96.3079ZM88.7329 79.255C89.0829 79.255 89.3629 79.145 89.5729 78.925C89.7929 78.705 89.9029 78.425 89.9029 78.085C89.9029 77.745 89.7929 77.47 89.5729 77.26C89.3529 77.04 89.0729 76.93 88.7329 76.93C88.3929 76.93 88.1129 77.04 87.8929 77.26C87.6729 77.47 87.5629 77.745 87.5629 78.085C87.5629 78.425 87.6729 78.705 87.8929 78.925C88.1129 79.145 88.3929 79.255 88.7329 79.255ZM89.6479 82.075C89.4679 81.995 89.2729 81.955 89.0629 81.955C88.6829 81.955 88.3729 82.085 88.1329 82.345C87.9029 82.605 87.7879 82.94 87.7879 83.35C87.7879 83.74 87.8779 84.05 88.0579 84.28C88.2379 84.5 88.4879 84.61 88.8079 84.61C89.3679 84.61 89.6479 84.295 89.6479 83.665V82.075ZM101.081 85.15C100.421 85.15 99.8961 84.97 99.5061 84.61C99.1161 84.25 98.9211 83.725 98.9211 83.035V76.6H100.361V82.195C100.461 82.095 100.596 82.015 100.766 81.955C100.936 81.895 101.121 81.865 101.321 81.865C101.821 81.865 102.221 82.015 102.521 82.315C102.831 82.615 102.986 83.01 102.986 83.5C102.986 84 102.811 84.4 102.461 84.7C102.111 85 101.651 85.15 101.081 85.15ZM101.261 84.67C101.601 84.67 101.881 84.565 102.101 84.355C102.321 84.135 102.431 83.855 102.431 83.515C102.431 83.165 102.321 82.885 102.101 82.675C101.891 82.455 101.611 82.345 101.261 82.345C100.921 82.345 100.641 82.455 100.421 82.675C100.211 82.895 100.106 83.175 100.106 83.515C100.106 83.855 100.211 84.135 100.421 84.355C100.641 84.565 100.921 84.67 101.261 84.67ZM106.245 79.405C106.155 79.495 106.02 79.575 105.84 79.645C105.67 79.705 105.49 79.735 105.3 79.735C104.8 79.735 104.395 79.585 104.085 79.285C103.775 78.985 103.62 78.59 103.62 78.1C103.62 77.61 103.795 77.215 104.145 76.915C104.495 76.605 104.955 76.45 105.525 76.45C106.205 76.45 106.735 76.635 107.115 77.005C107.495 77.375 107.685 77.895 107.685 78.565V84.43H111.945V76.6H113.385V85H106.245V79.405ZM105.345 79.255C105.695 79.255 105.975 79.145 106.185 78.925C106.405 78.705 106.515 78.425 106.515 78.085C106.515 77.745 106.405 77.47 106.185 77.26C105.965 77.04 105.685 76.93 105.345 76.93C105.005 76.93 104.725 77.04 104.505 77.26C104.285 77.47 104.175 77.745 104.175 78.085C104.175 78.425 104.285 78.705 104.505 78.925C104.725 79.145 105.005 79.255 105.345 79.255ZM113.391 71.785V75.07H105.621C105.661 74.54 105.851 74.07 106.191 73.66C106.521 73.24 106.971 72.915 107.541 72.685C108.111 72.455 108.746 72.34 109.446 72.34C110.416 72.34 111.271 72.565 112.011 73.015V71.785H113.391ZM112.146 74.575C112.076 74.085 111.791 73.685 111.291 73.375C110.791 73.065 110.176 72.91 109.446 72.91C108.706 72.91 108.091 73.065 107.601 73.375C107.111 73.675 106.831 74.075 106.761 74.575H112.146ZM123.486 76.6V85H115.821V83.05C115.821 82.67 115.966 82.33 116.256 82.03C116.546 81.73 116.936 81.51 117.426 81.37C116.746 81.2 116.216 80.9 115.836 80.47C115.466 80.04 115.281 79.515 115.281 78.895C115.281 78.165 115.541 77.575 116.061 77.125C116.581 76.675 117.261 76.45 118.101 76.45C118.781 76.45 119.336 76.62 119.766 76.96C120.196 77.3 120.411 77.745 120.411 78.295C120.411 78.795 120.246 79.2 119.916 79.51C119.596 79.82 119.176 79.975 118.656 79.975C118.136 79.975 117.711 79.825 117.381 79.525C117.051 79.215 116.886 78.815 116.886 78.325C116.886 78.015 117.001 77.745 117.231 77.515C116.821 77.815 116.616 78.275 116.616 78.895C116.616 80.275 117.551 80.965 119.421 80.965H119.556V81.58H119.436C118.736 81.58 118.196 81.715 117.816 81.985C117.446 82.245 117.261 82.625 117.261 83.125V84.37H122.046V76.6H123.486ZM118.641 77.155C118.301 77.155 118.021 77.265 117.801 77.485C117.581 77.705 117.471 77.985 117.471 78.325C117.471 78.665 117.581 78.945 117.801 79.165C118.021 79.385 118.301 79.495 118.641 79.495C118.991 79.495 119.276 79.385 119.496 79.165C119.716 78.945 119.826 78.665 119.826 78.325C119.826 77.985 119.716 77.705 119.496 77.485C119.276 77.265 118.991 77.155 118.641 77.155ZM130.174 85.15C129.614 85.15 129.164 85 128.824 84.7C128.484 84.4 128.314 84 128.314 83.5C128.314 83.01 128.469 82.615 128.779 82.315C129.099 82.015 129.514 81.865 130.024 81.865C130.204 81.865 130.374 81.895 130.534 81.955C130.704 82.015 130.839 82.09 130.939 82.18V79.87H124.849C124.869 78.78 125.129 77.94 125.629 77.35C126.139 76.75 126.864 76.45 127.804 76.45C128.124 76.45 128.429 76.49 128.719 76.57C129.009 76.64 129.334 76.765 129.694 76.945C129.964 77.085 130.179 77.18 130.339 77.23C130.499 77.28 130.654 77.305 130.804 77.305C131.054 77.305 131.254 77.23 131.404 77.08C131.564 76.92 131.649 76.71 131.659 76.45H132.949C132.929 76.94 132.759 77.33 132.439 77.62C132.119 77.9 131.699 78.04 131.179 78.04C130.919 78.04 130.664 78.01 130.414 77.95C130.174 77.88 129.889 77.765 129.559 77.605C129.219 77.435 128.944 77.325 128.734 77.275C128.524 77.215 128.294 77.185 128.044 77.185C126.954 77.185 126.379 77.87 126.319 79.24H132.394V83.02C132.394 83.7 132.199 84.225 131.809 84.595C131.419 84.965 130.874 85.15 130.174 85.15ZM130.039 84.67C130.379 84.67 130.659 84.565 130.879 84.355C131.099 84.135 131.209 83.855 131.209 83.515C131.209 83.165 131.099 82.885 130.879 82.675C130.669 82.455 130.389 82.345 130.039 82.345C129.699 82.345 129.419 82.455 129.199 82.675C128.979 82.885 128.869 83.165 128.869 83.515C128.869 83.855 128.979 84.135 129.199 84.355C129.419 84.565 129.699 84.67 130.039 84.67ZM130.365 75.22C129.905 75.22 129.535 75.095 129.255 74.845C128.975 74.585 128.835 74.245 128.835 73.825C128.835 73.445 128.92 73.135 129.09 72.895C129.25 72.655 129.45 72.47 129.69 72.34C129.92 72.21 130.22 72.08 130.59 71.95C131.06 71.77 131.405 71.595 131.625 71.425C131.835 71.255 131.94 71 131.94 70.66H133.335C133.335 71.1 133.14 71.445 132.75 71.695C132.35 71.945 131.845 72.16 131.235 72.34C131.125 72.37 130.955 72.43 130.725 72.52C131.045 72.56 131.305 72.7 131.505 72.94C131.705 73.18 131.805 73.475 131.805 73.825C131.805 74.235 131.675 74.57 131.415 74.83C131.145 75.09 130.795 75.22 130.365 75.22ZM130.395 74.725C130.655 74.725 130.87 74.64 131.04 74.47C131.2 74.3 131.28 74.085 131.28 73.825C131.28 73.565 131.2 73.355 131.04 73.195C130.87 73.025 130.655 72.94 130.395 72.94C130.135 72.94 129.925 73.025 129.765 73.195C129.595 73.355 129.51 73.565 129.51 73.825C129.51 74.085 129.595 74.3 129.765 74.47C129.925 74.64 130.135 74.725 130.395 74.725ZM142.11 76.6C142.6 76.6 142.97 76.715 143.22 76.945C143.48 77.175 143.61 77.51 143.61 77.95V85H142.17V77.83C142.17 77.67 142.125 77.545 142.035 77.455C141.945 77.365 141.815 77.32 141.645 77.32H141.06L137.7 85H136.245V79.42C136.155 79.52 136.025 79.6 135.855 79.66C135.685 79.71 135.5 79.735 135.3 79.735C134.8 79.735 134.395 79.585 134.085 79.285C133.775 78.985 133.62 78.59 133.62 78.1C133.62 77.61 133.795 77.215 134.145 76.915C134.495 76.605 134.955 76.45 135.525 76.45C136.205 76.45 136.735 76.635 137.115 77.005C137.495 77.375 137.685 77.895 137.685 78.565V83.35L140.625 76.6H142.11ZM135.345 79.255C135.695 79.255 135.975 79.145 136.185 78.925C136.405 78.705 136.515 78.425 136.515 78.085C136.515 77.745 136.405 77.47 136.185 77.26C135.965 77.04 135.685 76.93 135.345 76.93C135.005 76.93 134.725 77.04 134.505 77.26C134.285 77.47 134.175 77.745 134.175 78.085C134.175 78.425 134.285 78.705 134.505 78.925C134.725 79.145 135.005 79.255 135.345 79.255ZM139.591 74.89C140.161 74.49 140.571 74.06 140.821 73.6C140.741 73.65 140.641 73.69 140.521 73.72C140.401 73.75 140.286 73.765 140.176 73.765C139.806 73.765 139.506 73.655 139.276 73.435C139.036 73.205 138.916 72.915 138.916 72.565C138.916 72.185 139.041 71.88 139.291 71.65C139.531 71.42 139.851 71.305 140.251 71.305C140.691 71.305 141.036 71.42 141.286 71.65C141.536 71.87 141.661 72.175 141.661 72.565C141.661 73.265 141.381 73.925 140.821 74.545C141.681 74.265 142.371 73.88 142.891 73.39C143.401 72.89 143.731 72.32 143.881 71.68H145.096C144.986 72.29 144.671 72.855 144.151 73.375C143.621 73.895 142.966 74.32 142.186 74.65C141.406 74.97 140.581 75.16 139.711 75.22L139.591 74.89ZM140.176 73.315C140.406 73.315 140.591 73.245 140.731 73.105C140.871 72.965 140.941 72.785 140.941 72.565C140.941 72.335 140.871 72.15 140.731 72.01C140.581 71.86 140.396 71.785 140.176 71.785C139.956 71.785 139.776 71.86 139.636 72.01C139.486 72.15 139.411 72.335 139.411 72.565C139.411 72.785 139.481 72.965 139.621 73.105C139.761 73.245 139.946 73.315 140.176 73.315ZM145.801 81.775C145.801 81.105 145.991 80.585 146.371 80.215C146.751 79.845 147.281 79.66 147.961 79.66C148.531 79.66 148.991 79.815 149.341 80.125C149.701 80.435 149.881 80.835 149.881 81.325C149.881 81.805 149.726 82.195 149.416 82.495C149.106 82.795 148.701 82.945 148.201 82.945C148.001 82.945 147.811 82.915 147.631 82.855C147.451 82.785 147.316 82.7 147.226 82.6V84.385H152.386V79.555C152.386 78.765 152.116 78.14 151.576 77.68C151.046 77.21 150.336 76.975 149.446 76.975C148.586 76.975 147.886 77.19 147.346 77.62C146.806 78.05 146.511 78.625 146.461 79.345H145.111C145.151 78.765 145.351 78.255 145.711 77.815C146.081 77.375 146.581 77.04 147.211 76.81C147.851 76.57 148.586 76.45 149.416 76.45C150.306 76.45 151.081 76.585 151.741 76.855C152.411 77.125 152.926 77.51 153.286 78.01C153.646 78.5 153.826 79.075 153.826 79.735V85H145.801V81.775ZM148.141 82.465C148.481 82.465 148.761 82.36 148.981 82.15C149.201 81.93 149.311 81.65 149.311 81.31C149.311 80.96 149.201 80.68 148.981 80.47C148.771 80.25 148.491 80.14 148.141 80.14C147.801 80.14 147.521 80.25 147.301 80.47C147.091 80.69 146.986 80.97 146.986 81.31C146.986 81.65 147.091 81.93 147.301 82.15C147.521 82.36 147.801 82.465 148.141 82.465ZM158.021 85C157.861 84 157.511 83.035 156.971 82.105C156.431 81.175 155.791 80.43 155.051 79.87L156.161 79.075C156.851 79.525 157.461 80.22 157.991 81.16C158.521 82.09 158.906 83.16 159.146 84.37H161.381V79.42C161.281 79.52 161.146 79.6 160.976 79.66C160.806 79.71 160.621 79.735 160.421 79.735C159.921 79.735 159.516 79.585 159.206 79.285C158.896 78.985 158.741 78.59 158.741 78.1C158.741 77.61 158.916 77.215 159.266 76.915C159.616 76.605 160.081 76.45 160.661 76.45C161.341 76.45 161.871 76.635 162.251 77.005C162.631 77.375 162.821 77.895 162.821 78.565V85H158.021ZM160.466 79.255C160.816 79.255 161.096 79.145 161.306 78.925C161.526 78.705 161.636 78.425 161.636 78.085C161.636 77.745 161.526 77.47 161.306 77.26C161.086 77.04 160.806 76.93 160.466 76.93C160.126 76.93 159.846 77.04 159.626 77.26C159.416 77.47 159.311 77.745 159.311 78.085C159.311 78.425 159.416 78.705 159.626 78.925C159.846 79.145 160.126 79.255 160.466 79.255ZM167.15 85.15C166.47 85.15 165.94 84.965 165.56 84.595C165.18 84.225 164.99 83.705 164.99 83.035V81.67C164.99 81.2 165.095 80.805 165.305 80.485C165.525 80.165 165.84 79.935 166.25 79.795H164.525C164.555 79.125 164.75 78.54 165.11 78.04C165.48 77.53 165.98 77.14 166.61 76.87C167.25 76.59 167.98 76.45 168.8 76.45C169.6 76.45 170.3 76.575 170.9 76.825C171.51 77.065 171.98 77.405 172.31 77.845C172.64 78.285 172.805 78.795 172.805 79.375V85H171.365V79.225C171.365 78.525 171.135 77.975 170.675 77.575C170.215 77.175 169.585 76.975 168.785 76.975C167.955 76.975 167.28 77.18 166.76 77.59C166.25 78 165.965 78.555 165.905 79.255H167.87V79.735C167.37 79.835 167.005 80.015 166.775 80.275C166.545 80.535 166.43 80.905 166.43 81.385V82.195C166.52 82.105 166.655 82.03 166.835 81.97C167.015 81.9 167.195 81.865 167.375 81.865C167.875 81.865 168.28 82.015 168.59 82.315C168.91 82.615 169.07 83.01 169.07 83.5C169.07 83.99 168.89 84.39 168.53 84.7C168.18 85 167.72 85.15 167.15 85.15ZM167.33 84.7C167.68 84.7 167.965 84.59 168.185 84.37C168.405 84.15 168.515 83.865 168.515 83.515C168.515 83.165 168.405 82.88 168.185 82.66C167.965 82.44 167.68 82.33 167.33 82.33C166.98 82.33 166.695 82.44 166.475 82.66C166.255 82.88 166.145 83.165 166.145 83.515C166.145 83.855 166.255 84.14 166.475 84.37C166.705 84.59 166.99 84.7 167.33 84.7ZM164.889 75.07C164.929 74.54 165.119 74.07 165.459 73.66C165.789 73.24 166.239 72.915 166.809 72.685C167.369 72.455 168.004 72.34 168.714 72.34C169.444 72.34 170.104 72.455 170.694 72.685C171.274 72.915 171.739 73.24 172.089 73.66C172.429 74.07 172.619 74.54 172.659 75.07H164.889ZM171.414 74.575C171.344 74.085 171.059 73.685 170.559 73.375C170.059 73.065 169.444 72.91 168.714 72.91C167.974 72.91 167.359 73.065 166.869 73.375C166.379 73.675 166.099 74.075 166.029 74.575H171.414ZM171.339 69.44H172.614V72.11H171.339V69.44ZM183.095 81.925C183.435 82.035 183.705 82.23 183.905 82.51C184.115 82.79 184.22 83.12 184.22 83.5C184.22 83.99 184.055 84.39 183.725 84.7C183.405 85 182.99 85.15 182.48 85.15C181.98 85.15 181.565 85 181.235 84.7C180.915 84.39 180.755 83.99 180.755 83.5C180.755 83.22 180.805 82.98 180.905 82.78C180.335 83.08 179.81 83.42 179.33 83.8C178.86 84.18 178.465 84.58 178.145 85H176.66V79.42C176.57 79.52 176.44 79.6 176.27 79.66C176.1 79.71 175.915 79.735 175.715 79.735C175.225 79.735 174.82 79.585 174.5 79.285C174.19 78.975 174.035 78.58 174.035 78.1C174.035 77.61 174.205 77.215 174.545 76.915C174.895 76.605 175.355 76.45 175.925 76.45C176.605 76.45 177.135 76.64 177.515 77.02C177.905 77.39 178.1 77.905 178.1 78.565V83.86C178.57 83.37 179.215 82.9 180.035 82.45C180.855 81.99 181.655 81.66 182.435 81.46V76.6H183.875V81.775C183.685 81.795 183.425 81.845 183.095 81.925ZM175.76 79.255C176.11 79.255 176.39 79.145 176.6 78.925C176.82 78.705 176.93 78.425 176.93 78.085C176.93 77.745 176.82 77.47 176.6 77.26C176.38 77.04 176.1 76.93 175.76 76.93C175.42 76.93 175.14 77.04 174.92 77.26C174.7 77.47 174.59 77.745 174.59 78.085C174.59 78.425 174.7 78.705 174.92 78.925C175.14 79.145 175.42 79.255 175.76 79.255ZM182.48 84.655C182.83 84.655 183.115 84.545 183.335 84.325C183.555 84.105 183.665 83.825 183.665 83.485C183.665 83.145 183.555 82.87 183.335 82.66C183.115 82.44 182.83 82.33 182.48 82.33C182.14 82.33 181.86 82.44 181.64 82.66C181.42 82.87 181.31 83.145 181.31 83.485C181.31 83.825 181.42 84.105 181.64 84.325C181.86 84.545 182.14 84.655 182.48 84.655ZM188.814 85.15C188.154 85.15 187.624 84.97 187.224 84.61C186.834 84.25 186.639 83.725 186.639 83.035V76.915C186.639 76.555 186.734 76.205 186.924 75.865C187.114 75.515 187.394 75.14 187.764 74.74C188.134 74.32 188.404 73.96 188.574 73.66C188.754 73.35 188.844 73.015 188.844 72.655C188.844 72.155 188.659 71.75 188.289 71.44C187.919 71.13 187.434 70.975 186.834 70.975C186.354 70.975 185.934 71.09 185.574 71.32C185.214 71.54 184.964 71.84 184.824 72.22C184.954 72.06 185.134 71.935 185.364 71.845C185.604 71.745 185.859 71.695 186.129 71.695C186.619 71.695 187.019 71.85 187.329 72.16C187.639 72.46 187.794 72.845 187.794 73.315C187.794 73.805 187.624 74.205 187.284 74.515C186.944 74.815 186.509 74.965 185.979 74.965C185.379 74.965 184.899 74.78 184.539 74.41C184.169 74.04 183.984 73.55 183.984 72.94C183.984 72.46 184.114 72.03 184.374 71.65C184.624 71.27 184.974 70.975 185.424 70.765C185.884 70.545 186.404 70.435 186.984 70.435C187.594 70.435 188.129 70.53 188.589 70.72C189.059 70.9 189.424 71.16 189.684 71.5C189.944 71.83 190.074 72.215 190.074 72.655C190.074 73.075 189.989 73.46 189.819 73.81C189.649 74.15 189.384 74.53 189.024 74.95C188.704 75.31 188.464 75.65 188.304 75.97C188.154 76.28 188.079 76.6 188.079 76.93V82.195C188.169 82.105 188.299 82.03 188.469 81.97C188.649 81.9 188.839 81.865 189.039 81.865C189.539 81.865 189.939 82.015 190.239 82.315C190.549 82.615 190.704 83.01 190.704 83.5C190.704 84 190.529 84.4 190.179 84.7C189.839 85 189.384 85.15 188.814 85.15ZM186.084 74.5C186.434 74.5 186.719 74.39 186.939 74.17C187.159 73.94 187.269 73.655 187.269 73.315C187.269 72.965 187.159 72.68 186.939 72.46C186.719 72.24 186.434 72.13 186.084 72.13C185.744 72.13 185.459 72.24 185.229 72.46C185.009 72.68 184.899 72.965 184.899 73.315C184.899 73.655 185.009 73.94 185.229 74.17C185.459 74.39 185.744 74.5 186.084 74.5ZM188.994 84.7C189.344 84.7 189.629 84.59 189.849 84.37C190.069 84.14 190.179 83.855 190.179 83.515C190.179 83.165 190.069 82.88 189.849 82.66C189.629 82.44 189.344 82.33 188.994 82.33C188.644 82.33 188.359 82.44 188.139 82.66C187.919 82.88 187.809 83.165 187.809 83.515C187.809 83.855 187.919 84.14 188.139 84.37C188.369 84.59 188.654 84.7 188.994 84.7ZM200.351 81.925C200.691 82.035 200.961 82.23 201.161 82.51C201.371 82.79 201.476 83.12 201.476 83.5C201.476 83.99 201.311 84.39 200.981 84.7C200.661 85 200.246 85.15 199.736 85.15C199.236 85.15 198.821 85 198.491 84.7C198.171 84.39 198.011 83.99 198.011 83.5C198.011 83.22 198.061 82.98 198.161 82.78C197.591 83.08 197.066 83.42 196.586 83.8C196.116 84.18 195.721 84.58 195.401 85H193.916V79.42C193.826 79.52 193.696 79.6 193.526 79.66C193.356 79.71 193.171 79.735 192.971 79.735C192.481 79.735 192.076 79.585 191.756 79.285C191.446 78.975 191.291 78.58 191.291 78.1C191.291 77.61 191.461 77.215 191.801 76.915C192.151 76.605 192.611 76.45 193.181 76.45C193.861 76.45 194.391 76.64 194.771 77.02C195.161 77.39 195.356 77.905 195.356 78.565V83.86C195.826 83.37 196.471 82.9 197.291 82.45C198.111 81.99 198.911 81.66 199.691 81.46V76.6H201.131V81.775C200.941 81.795 200.681 81.845 200.351 81.925ZM193.016 79.255C193.366 79.255 193.646 79.145 193.856 78.925C194.076 78.705 194.186 78.425 194.186 78.085C194.186 77.745 194.076 77.47 193.856 77.26C193.636 77.04 193.356 76.93 193.016 76.93C192.676 76.93 192.396 77.04 192.176 77.26C191.956 77.47 191.846 77.745 191.846 78.085C191.846 78.425 191.956 78.705 192.176 78.925C192.396 79.145 192.676 79.255 193.016 79.255ZM199.736 84.655C200.086 84.655 200.371 84.545 200.591 84.325C200.811 84.105 200.921 83.825 200.921 83.485C200.921 83.145 200.811 82.87 200.591 82.66C200.371 82.44 200.086 82.33 199.736 82.33C199.396 82.33 199.116 82.44 198.896 82.66C198.676 82.87 198.566 83.145 198.566 83.485C198.566 83.825 198.676 84.105 198.896 84.325C199.116 84.545 199.396 84.655 199.736 84.655ZM81.5267 105C81.3667 104 81.0167 103.035 80.4767 102.105C79.9367 101.175 79.2967 100.43 78.5567 99.87L79.6667 99.075C80.3567 99.525 80.9667 100.22 81.4967 101.16C82.0267 102.09 82.4117 103.16 82.6517 104.37H84.8867V99.42C84.7867 99.52 84.6517 99.6 84.4817 99.66C84.3117 99.71 84.1267 99.735 83.9267 99.735C83.4267 99.735 83.0217 99.585 82.7117 99.285C82.4017 98.985 82.2467 98.59 82.2467 98.1C82.2467 97.61 82.4217 97.215 82.7717 96.915C83.1217 96.605 83.5867 96.45 84.1667 96.45C84.8467 96.45 85.3767 96.635 85.7567 97.005C86.1367 97.375 86.3267 97.895 86.3267 98.565V105H81.5267ZM83.9717 99.255C84.3217 99.255 84.6017 99.145 84.8117 98.925C85.0317 98.705 85.1417 98.425 85.1417 98.085C85.1417 97.745 85.0317 97.47 84.8117 97.26C84.5917 97.04 84.3117 96.93 83.9717 96.93C83.6317 96.93 83.3517 97.04 83.1317 97.26C82.9217 97.47 82.8167 97.745 82.8167 98.085C82.8167 98.425 82.9217 98.705 83.1317 98.925C83.3517 99.145 83.6317 99.255 83.9717 99.255ZM93.3409 99.165C93.3409 98.505 93.1459 97.975 92.7559 97.575C92.3759 97.175 91.8509 96.975 91.1809 96.975C90.5609 96.975 90.0459 97.165 89.6359 97.545C89.2359 97.915 89.0009 98.43 88.9309 99.09H87.5659C87.6359 98.29 87.9909 97.65 88.6309 97.17C89.2809 96.69 90.1309 96.45 91.1809 96.45C92.2709 96.45 93.1409 96.71 93.7909 97.23C94.4509 97.75 94.7809 98.46 94.7809 99.36V105H93.3409V99.165ZM105.078 101.925C105.418 102.035 105.688 102.23 105.888 102.51C106.098 102.79 106.203 103.12 106.203 103.5C106.203 103.99 106.038 104.39 105.708 104.7C105.388 105 104.973 105.15 104.463 105.15C103.963 105.15 103.548 105 103.218 104.7C102.898 104.39 102.738 103.99 102.738 103.5C102.738 103.22 102.788 102.98 102.888 102.78C102.318 103.08 101.793 103.42 101.313 103.8C100.843 104.18 100.448 104.58 100.128 105H98.6427V99.42C98.5527 99.52 98.4227 99.6 98.2527 99.66C98.0827 99.71 97.8977 99.735 97.6977 99.735C97.2077 99.735 96.8027 99.585 96.4827 99.285C96.1727 98.975 96.0177 98.58 96.0177 98.1C96.0177 97.61 96.1877 97.215 96.5277 96.915C96.8777 96.605 97.3377 96.45 97.9077 96.45C98.5877 96.45 99.1177 96.64 99.4977 97.02C99.8877 97.39 100.083 97.905 100.083 98.565V103.86C100.553 103.37 101.198 102.9 102.018 102.45C102.838 101.99 103.638 101.66 104.418 101.46V96.6H105.858V101.775C105.668 101.795 105.408 101.845 105.078 101.925ZM97.7427 99.255C98.0927 99.255 98.3727 99.145 98.5827 98.925C98.8027 98.705 98.9127 98.425 98.9127 98.085C98.9127 97.745 98.8027 97.47 98.5827 97.26C98.3627 97.04 98.0827 96.93 97.7427 96.93C97.4027 96.93 97.1227 97.04 96.9027 97.26C96.6827 97.47 96.5727 97.745 96.5727 98.085C96.5727 98.425 96.6827 98.705 96.9027 98.925C97.1227 99.145 97.4027 99.255 97.7427 99.255ZM104.463 104.655C104.813 104.655 105.098 104.545 105.318 104.325C105.538 104.105 105.648 103.825 105.648 103.485C105.648 103.145 105.538 102.87 105.318 102.66C105.098 102.44 104.813 102.33 104.463 102.33C104.123 102.33 103.843 102.44 103.623 102.66C103.403 102.87 103.293 103.145 103.293 103.485C103.293 103.825 103.403 104.105 103.623 104.325C103.843 104.545 104.123 104.655 104.463 104.655ZM110.632 105.15C109.972 105.15 109.447 104.97 109.057 104.61C108.667 104.25 108.472 103.725 108.472 103.035V96.6H109.912V102.195C110.012 102.095 110.147 102.015 110.317 101.955C110.487 101.895 110.672 101.865 110.872 101.865C111.372 101.865 111.772 102.015 112.072 102.315C112.382 102.615 112.537 103.01 112.537 103.5C112.537 104 112.362 104.4 112.012 104.7C111.662 105 111.202 105.15 110.632 105.15ZM110.812 104.67C111.152 104.67 111.432 104.565 111.652 104.355C111.872 104.135 111.982 103.855 111.982 103.515C111.982 103.165 111.872 102.885 111.652 102.675C111.442 102.455 111.162 102.345 110.812 102.345C110.472 102.345 110.192 102.455 109.972 102.675C109.762 102.895 109.657 103.175 109.657 103.515C109.657 103.855 109.762 104.135 109.972 104.355C110.192 104.565 110.472 104.67 110.812 104.67ZM121.661 96.6C122.151 96.6 122.521 96.715 122.771 96.945C123.031 97.175 123.161 97.51 123.161 97.95V105H121.721V97.83C121.721 97.67 121.676 97.545 121.586 97.455C121.496 97.365 121.366 97.32 121.196 97.32H120.611L117.251 105H115.796V99.42C115.706 99.52 115.576 99.6 115.406 99.66C115.236 99.71 115.051 99.735 114.851 99.735C114.351 99.735 113.946 99.585 113.636 99.285C113.326 98.985 113.171 98.59 113.171 98.1C113.171 97.61 113.346 97.215 113.696 96.915C114.046 96.605 114.506 96.45 115.076 96.45C115.756 96.45 116.286 96.635 116.666 97.005C117.046 97.375 117.236 97.895 117.236 98.565V103.35L120.176 96.6H121.661ZM114.896 99.255C115.246 99.255 115.526 99.145 115.736 98.925C115.956 98.705 116.066 98.425 116.066 98.085C116.066 97.745 115.956 97.47 115.736 97.26C115.516 97.04 115.236 96.93 114.896 96.93C114.556 96.93 114.276 97.04 114.056 97.26C113.836 97.47 113.726 97.745 113.726 98.085C113.726 98.425 113.836 98.705 114.056 98.925C114.276 99.145 114.556 99.255 114.896 99.255ZM132.612 97.335C132.942 97.585 133.192 97.885 133.362 98.235C133.542 98.575 133.632 98.95 133.632 99.36V105H132.192V99.225C132.192 98.755 132.062 98.345 131.802 97.995C131.372 98.315 130.837 98.645 130.197 98.985C130.497 99.115 130.727 99.31 130.887 99.57C131.057 99.83 131.142 100.135 131.142 100.485C131.142 100.975 130.987 101.37 130.677 101.67C130.367 101.97 129.962 102.12 129.462 102.12C129.152 102.12 128.862 102.05 128.592 101.91C128.322 101.76 128.122 101.57 127.992 101.34L126.687 105H125.292V104.205C125.292 103.075 125.247 102.165 125.157 101.475C125.087 100.895 125.052 100.36 125.052 99.87C125.052 99.18 125.227 98.58 125.577 98.07C125.937 97.55 126.447 97.15 127.107 96.87C127.767 96.59 128.537 96.45 129.417 96.45C130.207 96.45 130.917 96.56 131.547 96.78C131.767 96.46 131.917 96.14 131.997 95.82H133.677C133.597 96.24 133.242 96.745 132.612 97.335ZM129.387 98.835C130.077 98.385 130.647 97.895 131.097 97.365C130.637 97.105 130.072 96.975 129.402 96.975C128.502 96.975 127.792 97.225 127.272 97.725C126.752 98.225 126.492 98.905 126.492 99.765C126.492 100.155 126.517 100.605 126.567 101.115C126.637 101.895 126.677 102.475 126.687 102.855L127.617 100.23C127.777 99.79 128.007 99.45 128.307 99.21C128.607 98.97 128.967 98.845 129.387 98.835ZM130.632 100.485C130.632 100.145 130.522 99.865 130.302 99.645C130.082 99.425 129.797 99.315 129.447 99.315C129.107 99.315 128.827 99.425 128.607 99.645C128.387 99.865 128.277 100.145 128.277 100.485C128.277 100.825 128.387 101.105 128.607 101.325C128.827 101.535 129.107 101.64 129.447 101.64C129.797 101.64 130.082 101.535 130.302 101.325C130.522 101.105 130.632 100.825 130.632 100.485ZM135.81 101.67C135.81 101.2 135.915 100.805 136.125 100.485C136.345 100.165 136.66 99.935 137.07 99.795H135.345C135.375 99.115 135.57 98.525 135.93 98.025C136.29 97.515 136.785 97.125 137.415 96.855C138.045 96.585 138.77 96.45 139.59 96.45C140.38 96.45 141.075 96.57 141.675 96.81C142.275 97.05 142.735 97.395 143.055 97.845C143.385 98.285 143.55 98.795 143.55 99.375V105H142.11V99.225C142.11 98.525 141.88 97.975 141.42 97.575C140.97 97.175 140.355 96.975 139.575 96.975C138.755 96.975 138.09 97.18 137.58 97.59C137.07 97.99 136.785 98.545 136.725 99.255H138.69V99.735C138.19 99.835 137.825 100.015 137.595 100.275C137.365 100.535 137.25 100.905 137.25 101.385V105H135.81V101.67ZM150.572 99.165C150.572 98.505 150.377 97.975 149.987 97.575C149.607 97.175 149.082 96.975 148.412 96.975C147.792 96.975 147.277 97.165 146.867 97.545C146.467 97.915 146.232 98.43 146.162 99.09H144.797C144.867 98.29 145.222 97.65 145.862 97.17C146.512 96.69 147.362 96.45 148.412 96.45C149.502 96.45 150.372 96.71 151.022 97.23C151.682 97.75 152.012 98.46 152.012 99.36V105H150.572V99.165ZM156.474 105.15C155.774 105.15 155.214 104.915 154.794 104.445C154.374 103.975 154.164 103.355 154.164 102.585C154.164 101.905 154.314 101.305 154.614 100.785C154.924 100.265 155.359 99.865 155.919 99.585C156.479 99.295 157.124 99.15 157.854 99.15C158.574 99.15 159.209 99.34 159.759 99.72C160.309 100.09 160.719 100.615 160.989 101.295V99.24C160.989 98.55 160.744 98.005 160.254 97.605C159.764 97.195 159.104 96.99 158.274 96.99C157.474 96.99 156.804 97.175 156.264 97.545C155.724 97.905 155.399 98.39 155.289 99H153.924C154.064 98.23 154.529 97.615 155.319 97.155C156.109 96.685 157.094 96.45 158.274 96.45C159.114 96.45 159.844 96.57 160.464 96.81C161.094 97.05 161.579 97.39 161.919 97.83C162.259 98.26 162.429 98.77 162.429 99.36V105H160.989V104.85C160.989 103.23 160.719 101.97 160.179 101.07C159.639 100.16 158.884 99.705 157.914 99.705C157.264 99.705 156.719 99.935 156.279 100.395C155.849 100.855 155.614 101.465 155.574 102.225C155.654 102.125 155.794 102.04 155.994 101.97C156.194 101.9 156.394 101.865 156.594 101.865C157.094 101.865 157.504 102.02 157.824 102.33C158.154 102.64 158.319 103.035 158.319 103.515C158.319 103.995 158.144 104.39 157.794 104.7C157.454 105 157.014 105.15 156.474 105.15ZM156.579 104.67C156.929 104.67 157.209 104.565 157.419 104.355C157.639 104.145 157.749 103.865 157.749 103.515C157.749 103.165 157.639 102.885 157.419 102.675C157.209 102.455 156.929 102.345 156.579 102.345C156.229 102.345 155.949 102.455 155.739 102.675C155.529 102.885 155.424 103.165 155.424 103.515C155.424 103.855 155.529 104.135 155.739 104.355C155.959 104.565 156.239 104.67 156.579 104.67ZM167.204 105.15C166.544 105.15 166.019 104.97 165.629 104.61C165.239 104.25 165.044 103.725 165.044 103.035V96.6H166.484V102.195C166.584 102.095 166.719 102.015 166.889 101.955C167.059 101.895 167.244 101.865 167.444 101.865C167.944 101.865 168.344 102.015 168.644 102.315C168.954 102.615 169.109 103.01 169.109 103.5C169.109 104 168.934 104.4 168.584 104.7C168.234 105 167.774 105.15 167.204 105.15ZM167.384 104.67C167.724 104.67 168.004 104.565 168.224 104.355C168.444 104.135 168.554 103.855 168.554 103.515C168.554 103.165 168.444 102.885 168.224 102.675C168.014 102.455 167.734 102.345 167.384 102.345C167.044 102.345 166.764 102.455 166.544 102.675C166.334 102.895 166.229 103.175 166.229 103.515C166.229 103.855 166.334 104.135 166.544 104.355C166.764 104.565 167.044 104.67 167.384 104.67ZM172.368 99.405C172.278 99.495 172.143 99.575 171.963 99.645C171.793 99.705 171.613 99.735 171.423 99.735C170.923 99.735 170.518 99.585 170.208 99.285C169.898 98.985 169.743 98.59 169.743 98.1C169.743 97.61 169.918 97.215 170.268 96.915C170.618 96.605 171.078 96.45 171.648 96.45C172.328 96.45 172.858 96.635 173.238 97.005C173.618 97.375 173.808 97.895 173.808 98.565V104.43H178.068V96.6H179.508V105H172.368V99.405ZM171.468 99.255C171.818 99.255 172.098 99.145 172.308 98.925C172.528 98.705 172.638 98.425 172.638 98.085C172.638 97.745 172.528 97.47 172.308 97.26C172.088 97.04 171.808 96.93 171.468 96.93C171.128 96.93 170.848 97.04 170.628 97.26C170.408 97.47 170.298 97.745 170.298 98.085C170.298 98.425 170.408 98.705 170.628 98.925C170.848 99.145 171.128 99.255 171.468 99.255ZM179.514 91.785V95.07H171.744C171.784 94.54 171.974 94.07 172.314 93.66C172.644 93.24 173.094 92.915 173.664 92.685C174.234 92.455 174.869 92.34 175.569 92.34C176.539 92.34 177.394 92.565 178.134 93.015V91.785H179.514ZM178.269 94.575C178.199 94.085 177.914 93.685 177.414 93.375C176.914 93.065 176.299 92.91 175.569 92.91C174.829 92.91 174.214 93.065 173.724 93.375C173.234 93.675 172.954 94.075 172.884 94.575H178.269ZM189.609 96.6V105H181.944V103.05C181.944 102.67 182.089 102.33 182.379 102.03C182.669 101.73 183.059 101.51 183.549 101.37C182.869 101.2 182.339 100.9 181.959 100.47C181.589 100.04 181.404 99.515 181.404 98.895C181.404 98.165 181.664 97.575 182.184 97.125C182.704 96.675 183.384 96.45 184.224 96.45C184.904 96.45 185.459 96.62 185.889 96.96C186.319 97.3 186.534 97.745 186.534 98.295C186.534 98.795 186.369 99.2 186.039 99.51C185.719 99.82 185.299 99.975 184.779 99.975C184.259 99.975 183.834 99.825 183.504 99.525C183.174 99.215 183.009 98.815 183.009 98.325C183.009 98.015 183.124 97.745 183.354 97.515C182.944 97.815 182.739 98.275 182.739 98.895C182.739 100.275 183.674 100.965 185.544 100.965H185.679V101.58H185.559C184.859 101.58 184.319 101.715 183.939 101.985C183.569 102.245 183.384 102.625 183.384 103.125V104.37H188.169V96.6H189.609ZM184.764 97.155C184.424 97.155 184.144 97.265 183.924 97.485C183.704 97.705 183.594 97.985 183.594 98.325C183.594 98.665 183.704 98.945 183.924 99.165C184.144 99.385 184.424 99.495 184.764 99.495C185.114 99.495 185.399 99.385 185.619 99.165C185.839 98.945 185.949 98.665 185.949 98.325C185.949 97.985 185.839 97.705 185.619 97.485C185.399 97.265 185.114 97.155 184.764 97.155ZM196.297 105.15C195.737 105.15 195.287 105 194.947 104.7C194.607 104.4 194.437 104 194.437 103.5C194.437 103.01 194.592 102.615 194.902 102.315C195.222 102.015 195.637 101.865 196.147 101.865C196.327 101.865 196.497 101.895 196.657 101.955C196.827 102.015 196.962 102.09 197.062 102.18V99.87H190.972C190.992 98.78 191.252 97.94 191.752 97.35C192.262 96.75 192.987 96.45 193.927 96.45C194.247 96.45 194.552 96.49 194.842 96.57C195.132 96.64 195.457 96.765 195.817 96.945C196.087 97.085 196.302 97.18 196.462 97.23C196.622 97.28 196.777 97.305 196.927 97.305C197.177 97.305 197.377 97.23 197.527 97.08C197.687 96.92 197.772 96.71 197.782 96.45H199.072C199.052 96.94 198.882 97.33 198.562 97.62C198.242 97.9 197.822 98.04 197.302 98.04C197.042 98.04 196.787 98.01 196.537 97.95C196.297 97.88 196.012 97.765 195.682 97.605C195.342 97.435 195.067 97.325 194.857 97.275C194.647 97.215 194.417 97.185 194.167 97.185C193.077 97.185 192.502 97.87 192.442 99.24H198.517V103.02C198.517 103.7 198.322 104.225 197.932 104.595C197.542 104.965 196.997 105.15 196.297 105.15ZM196.162 104.67C196.502 104.67 196.782 104.565 197.002 104.355C197.222 104.135 197.332 103.855 197.332 103.515C197.332 103.165 197.222 102.885 197.002 102.675C196.792 102.455 196.512 102.345 196.162 102.345C195.822 102.345 195.542 102.455 195.322 102.675C195.102 102.885 194.992 103.165 194.992 103.515C194.992 103.855 195.102 104.135 195.322 104.355C195.542 104.565 195.822 104.67 196.162 104.67ZM196.488 95.22C196.028 95.22 195.658 95.095 195.378 94.845C195.098 94.585 194.958 94.245 194.958 93.825C194.958 93.445 195.043 93.135 195.213 92.895C195.373 92.655 195.573 92.47 195.813 92.34C196.043 92.21 196.343 92.08 196.713 91.95C197.183 91.77 197.528 91.595 197.748 91.425C197.958 91.255 198.063 91 198.063 90.66H199.458C199.458 91.1 199.263 91.445 198.873 91.695C198.473 91.945 197.968 92.16 197.358 92.34C197.248 92.37 197.078 92.43 196.848 92.52C197.168 92.56 197.428 92.7 197.628 92.94C197.828 93.18 197.928 93.475 197.928 93.825C197.928 94.235 197.798 94.57 197.538 94.83C197.268 95.09 196.918 95.22 196.488 95.22ZM196.518 94.725C196.778 94.725 196.993 94.64 197.163 94.47C197.323 94.3 197.403 94.085 197.403 93.825C197.403 93.565 197.323 93.355 197.163 93.195C196.993 93.025 196.778 92.94 196.518 92.94C196.258 92.94 196.048 93.025 195.888 93.195C195.718 93.355 195.633 93.565 195.633 93.825C195.633 94.085 195.718 94.3 195.888 94.47C196.048 94.64 196.258 94.725 196.518 94.725Z" fill="black"/>
</svg>
