<svg width="43" height="36" viewBox="0 0 43 36" fill="none" xmlns="http://www.w3.org/2000/svg">
<path d="M2.1 33.75C4.7 31.65 6.8 28.85 8.4 25.35C10.1 21.75 10.9 18.1 10.8 14.4C9.8 15 8.7 15.3 7.5 15.3C5.3 15.3 3.5 14.6 2.1 13.2C0.7 11.8 0 10 0 7.8C0 5.5 0.7 3.65 2.1 2.25C3.6 0.749999 5.6 0 8.1 0C10.9 0 13.1 1.05 14.7 3.15C16.3 5.15 17.1 8 17.1 11.7C17.1 16.4 15.9 21 13.5 25.5C11.1 30 8.05 33.35 4.35 35.55L2.1 33.75ZM27.45 33.75C30.05 31.65 32.15 28.85 33.75 25.35C35.45 21.75 36.25 18.1 36.15 14.4C35.15 15 34.05 15.3 32.85 15.3C30.65 15.3 28.85 14.6 27.45 13.2C26.05 11.8 25.35 10 25.35 7.8C25.35 5.5 26.05 3.65 27.45 2.25C28.95 0.749999 30.95 0 33.45 0C36.25 0 38.45 1.05 40.05 3.15C41.65 5.15 42.45 8 42.45 11.7C42.45 16.4 41.25 21 38.85 25.5C36.45 30 33.4 33.35 29.7 35.55L27.45 33.75Z" fill="black"/>
</svg>
