<svg width="399" height="104" viewBox="0 0 399 104" fill="none" xmlns="http://www.w3.org/2000/svg">
<rect x="3.92725" y="0.525483" width="277" height="65" transform="rotate(3 3.92725 0.525483)" fill="white" stroke="black"/>
<path d="M21.9699 48.035L23.318 22.3103L34.7823 22.9111C36.7529 23.0144 38.3578 23.4723 39.597 24.2849C40.8362 25.0976 41.7278 26.1724 42.2719 27.5094C42.8174 28.8197 43.0469 30.3004 42.9604 31.9515C42.8264 34.508 41.92 36.5166 40.2413 37.9774C38.5891 39.4396 36.4183 40.1003 33.7286 39.9593L26.7782 39.595L26.3239 48.2631L21.9699 48.035ZM26.9582 36.1598L33.1098 36.4821C34.8407 36.5729 36.1693 36.1885 37.0956 35.3292C38.0218 34.4698 38.5254 33.2678 38.6063 31.7233C38.6929 30.0722 38.3338 28.7716 37.5291 27.8216C36.751 26.8729 35.5231 26.3546 33.8454 26.2666L27.4941 25.9338L26.9582 36.1598ZM56.4953 50.2449C52.9535 50.0593 50.2419 49.0627 48.3606 47.2551C46.5059 45.4489 45.663 42.9346 45.8319 39.7124L46.6797 23.5346L51.0337 23.7628L50.1943 39.7808C50.0812 41.9378 50.5827 43.5797 51.6986 44.7063C52.8411 45.8343 54.5042 46.4555 56.6879 46.57C58.8449 46.683 60.5372 46.2376 61.7647 45.2338C63.0189 44.2314 63.7025 42.6517 63.8156 40.4947L64.6551 24.4766L68.9691 24.7027L68.1213 40.8805C67.9524 44.1028 66.8513 46.5151 64.818 48.1176C62.7847 49.72 60.0104 50.4291 56.4953 50.2449ZM81.6536 51.1628L83.0018 25.4382L87.3558 25.6663L86.0076 51.391L81.6536 51.1628ZM91.0547 51.6555L92.047 32.7215L96.0415 32.9309L96.1366 34.9386C97.0237 34.3175 98.0649 33.8113 99.2604 33.42C100.484 33.0035 101.815 32.8329 103.253 32.9082C105.703 33.0366 107.457 33.7027 108.515 34.9064C109.574 36.1101 110.039 37.9236 109.912 40.347L109.27 52.6102L104.956 52.3841L105.588 40.3206C105.665 38.856 105.412 37.8146 104.83 37.1967C104.275 36.5801 103.172 36.2286 101.521 36.142C100.536 36.0904 99.5532 36.2392 98.5736 36.5884C97.6206 36.939 96.8078 37.4171 96.1352 38.0228L95.4088 51.8837L91.0547 51.6555ZM121.357 53.6442C119.333 53.5381 117.843 52.926 116.887 51.8077C115.959 50.6642 115.544 49.1605 115.642 47.2963L116.161 37.3899L113.365 37.2434L113.543 33.8481L116.339 33.9946L116.567 29.6406L120.95 28.5485L120.653 34.2207L125.686 34.4845L125.228 37.8651L120.475 37.616L119.968 47.2828C119.911 48.3746 120.124 49.1601 120.606 49.6394C121.089 50.092 121.904 50.3483 123.049 50.4083C123.768 50.446 124.534 50.3526 125.347 50.1282L125.185 53.2039C124.125 53.5756 122.848 53.7223 121.357 53.6442ZM138.069 54.52C134.767 54.347 132.253 53.4008 130.527 51.6814C128.802 49.9621 128.027 47.4247 128.203 44.0693C128.362 41.0335 129.26 38.6772 130.896 37.0006C132.533 35.324 134.922 34.568 138.065 34.7327C140.941 34.8834 143.058 35.7554 144.417 37.3487C145.803 38.9167 146.434 40.8858 146.31 43.2559L146.126 46.771L132.265 46.0446C132.382 47.8933 132.981 49.1931 134.063 49.9441C135.145 50.6951 136.832 51.1306 139.122 51.2506C140.08 51.3009 141.071 51.2593 142.092 51.1259C143.114 50.9925 144.005 50.7989 144.766 50.5451L144.599 53.7407C143.727 54.0689 142.727 54.2968 141.599 54.4246C140.497 54.5538 139.321 54.5856 138.069 54.52ZM132.414 43.2085L142.44 43.734L142.509 42.4158C142.577 41.1109 142.271 40.0801 141.589 39.3234C140.909 38.5401 139.717 38.1038 138.013 38.0145C135.989 37.9084 134.568 38.2745 133.75 39.1128C132.958 39.9526 132.513 41.3178 132.414 43.2085ZM149.958 54.7425L150.951 35.8085L154.945 36.0179L155.07 38.2274C156.006 37.689 157.112 37.2129 158.389 36.7992C159.666 36.3854 160.921 36.1175 162.156 35.9952L161.982 39.3107C161.23 39.4048 160.407 39.5619 159.514 39.7822C158.65 39.9772 157.823 40.2142 157.034 40.4933C156.246 40.7458 155.578 41.0178 155.028 41.3095L154.312 54.9707L149.958 54.7425ZM164.314 55.4949L165.306 36.5609L169.3 36.7702L169.395 38.7779C170.282 38.1568 171.324 37.6506 172.519 37.2593C173.743 36.8428 175.073 36.6722 176.511 36.7476C178.961 36.876 180.716 37.542 181.774 38.7457C182.833 39.9494 183.298 41.763 183.171 44.1863L182.529 56.4495L178.215 56.2234L178.847 44.1599C178.923 42.6953 178.671 41.654 178.089 41.036C177.534 40.4195 176.431 40.0679 174.78 39.9814C173.795 39.9297 172.812 40.0785 171.832 40.4277C170.879 40.7783 170.067 41.2565 169.394 41.8621L168.668 55.7231L164.314 55.4949ZM193.697 57.4354C192.392 57.367 191.146 57.2082 189.957 56.959C188.795 56.7111 187.835 56.4338 187.077 56.1271L187.269 52.4521C188.157 52.8458 189.141 53.1644 190.223 53.408C191.305 53.6517 192.339 53.7993 193.324 53.8509C194.816 53.9291 195.888 53.8518 196.541 53.619C197.194 53.3861 197.541 52.8836 197.581 52.1113C197.611 51.5521 197.434 51.1022 197.051 50.7617C196.695 50.4226 196.138 50.0997 195.38 49.7929C194.648 49.4876 193.706 49.1177 192.554 48.6835C191.455 48.2521 190.504 47.8017 189.701 47.3323C188.899 46.8364 188.29 46.2303 187.873 45.5142C187.457 44.7981 187.278 43.8808 187.337 42.7624C187.427 41.0314 188.123 39.7327 189.423 38.8662C190.725 37.9731 192.761 37.5992 195.53 37.7443C196.622 37.8015 197.657 37.9358 198.634 38.1473C199.61 38.3587 200.439 38.6024 201.119 38.8783L200.928 42.5133C200.198 42.1813 199.384 41.9117 198.487 41.7045C197.617 41.4986 196.795 41.3755 196.023 41.335C194.638 41.2624 193.58 41.3272 192.849 41.5291C192.144 41.7325 191.772 42.1937 191.735 42.9127C191.696 43.6584 192.027 44.2098 192.729 44.5671C193.46 44.8991 194.623 45.374 196.22 45.9917C197.687 46.5226 198.847 47.064 199.699 47.616C200.552 48.1681 201.145 48.8133 201.481 49.5519C201.844 50.2652 201.996 51.1811 201.937 52.2996C201.84 54.1637 201.087 55.5262 199.68 56.3871C198.275 57.2213 196.28 57.5707 193.697 57.4354ZM205.936 57.6762L207.347 30.7532L211.701 30.9814L211.186 40.8079C212.047 40.1854 213.06 39.7044 214.226 39.365C215.393 38.9989 216.696 38.8536 218.134 38.9289C220.531 39.0545 222.272 39.7199 223.357 40.925C224.442 42.1301 224.921 43.9443 224.794 46.3677L224.151 58.6308L219.837 58.4047L220.469 46.3413C220.546 44.8766 220.28 43.8346 219.672 43.2153C219.09 42.5973 218.027 42.2479 216.482 42.1669C215.524 42.1167 214.54 42.2788 213.533 42.6532C212.527 43.001 211.686 43.4911 211.012 44.1233L210.29 57.9044L205.936 57.6762ZM231.827 36.0816L232.015 32.4866L236.769 32.7357L236.58 36.3308L231.827 36.0816ZM230.987 58.9891L231.805 43.3705L228.929 43.2198L229.502 39.9253L236.333 40.2832L235.341 59.2173L230.987 58.9891ZM239.968 68.1116L241.412 40.5494L245.167 40.7462L245.308 42.6362C246.201 41.9086 247.163 41.3849 248.195 41.0651C249.226 40.7453 250.434 40.6217 251.819 40.6943C254.535 40.8366 256.613 41.6932 258.053 43.2641C259.494 44.8083 260.126 47.2847 259.947 50.6934C259.768 54.102 258.849 56.6173 257.188 58.2393C255.529 59.8347 253.341 60.5612 250.625 60.4188C248.335 60.2988 246.406 59.6636 244.837 58.5133L244.322 68.3398L239.968 68.1116ZM249.678 57.0847C253.353 57.2773 255.312 55.0568 255.555 50.4231C255.672 48.1862 255.343 46.5801 254.566 45.6048C253.791 44.6028 252.431 44.0509 250.487 43.949C248.543 43.8471 246.884 44.4278 245.509 45.6909L245.013 55.1579C245.599 55.696 246.256 56.1443 246.985 56.5029C247.742 56.8364 248.64 57.0303 249.678 57.0847Z" fill="black"/>
<rect x="266.525" y="38.2246" width="128" height="65" transform="rotate(-3 266.525 38.2246)" fill="white" stroke="black"/>
<path d="M291.593 83.4748L291.48 81.3178C292.087 79.6571 292.969 78.1422 294.126 76.7731C295.309 75.4026 296.574 74.0679 297.922 72.769C298.938 71.7811 299.775 70.9494 300.434 70.274C301.118 69.5706 301.646 68.9421 302.018 68.3886C302.389 67.835 302.64 67.2745 302.771 66.7069C302.9 66.1126 302.944 65.4294 302.904 64.6571C302.831 63.2723 302.377 62.2414 301.54 61.5642C300.703 60.8871 299.353 60.5974 297.489 60.6951C296.477 60.7481 295.444 60.909 294.39 61.1779C293.363 61.4454 292.379 61.7906 291.44 62.2137L291.239 58.379C292.155 58.0106 293.246 57.6997 294.515 57.4463C295.782 57.1662 296.988 56.9962 298.133 56.9362C301.009 56.7855 303.217 57.3774 304.755 58.7121C306.294 60.0467 307.127 61.939 307.256 64.389C307.32 65.614 307.164 66.717 306.788 67.698C306.411 68.6524 305.872 69.5752 305.171 70.4664C304.469 71.331 303.648 72.2285 302.708 73.159C301.539 74.2884 300.435 75.3877 299.397 76.4568C298.383 77.498 297.574 78.6218 296.97 79.8285L308.314 79.2339L308.49 82.5893L291.593 83.4748ZM323.259 82.5363C320.543 82.6787 318.332 82.2738 316.626 81.3218C314.919 80.3431 313.628 78.8887 312.753 76.9585C311.902 75.0003 311.405 72.6365 311.259 69.8669C311.109 66.9909 311.34 64.5221 311.953 62.4605C312.592 60.3975 313.71 58.7902 315.305 57.6385C316.9 56.4867 319.083 55.8383 321.852 55.6931C324.622 55.548 326.847 55.9655 328.527 56.9455C330.234 57.9242 331.5 59.4066 332.325 61.3929C333.177 63.3777 333.678 65.8081 333.828 68.6841C333.974 71.4537 333.726 73.8566 333.085 75.893C332.442 77.9027 331.324 79.4834 329.728 80.6351C328.132 81.7602 325.975 82.3939 323.259 82.5363ZM323.064 78.8214C325.621 78.6874 327.361 77.7551 328.285 76.0243C329.208 74.267 329.591 71.897 329.435 68.9144C329.268 65.7454 328.648 63.3346 327.573 61.6819C326.499 60.0292 324.657 59.2713 322.047 59.408C319.437 59.5448 317.671 60.4919 316.748 62.2492C315.852 64.0052 315.487 66.4677 315.653 69.6367C315.81 72.6192 316.439 74.9362 317.54 76.5875C318.64 78.2121 320.481 78.9568 323.064 78.8214ZM337.936 81.0461L337.823 78.8891C338.43 77.2284 339.312 75.7135 340.469 74.3444C341.652 72.9739 342.917 71.6392 344.264 70.3403C345.281 69.3524 346.118 68.5207 346.777 67.8453C347.461 67.1419 347.989 66.5134 348.361 65.9599C348.732 65.4063 348.983 64.8458 349.114 64.2782C349.243 63.6839 349.287 63.0007 349.246 62.2284C349.174 60.8436 348.719 59.8127 347.883 59.1355C347.046 58.4584 345.696 58.1686 343.832 58.2663C342.82 58.3194 341.787 58.4803 340.733 58.7492C339.705 59.0167 338.722 59.3619 337.783 59.785L337.582 55.9503C338.497 55.5818 339.589 55.2709 340.858 55.0175C342.125 54.7375 343.331 54.5675 344.476 54.5075C347.352 54.3568 349.559 54.9487 351.098 56.2833C352.636 57.618 353.47 59.5103 353.598 61.9603C353.663 63.1852 353.507 64.2882 353.131 65.2693C352.754 66.2236 352.215 67.1465 351.514 68.0377C350.811 68.9023 349.99 69.7998 349.051 70.7303C347.882 71.8597 346.778 72.9589 345.739 74.0281C344.726 75.0693 343.917 76.1931 343.312 77.3997L354.657 76.8052L354.833 80.1606L337.936 81.0461ZM358.259 79.981L358.146 77.824C358.754 76.1632 359.636 74.6484 360.792 73.2793C361.975 71.9088 363.241 70.5741 364.588 69.2751C365.604 68.2873 366.442 67.4556 367.101 66.7802C367.785 66.0768 368.313 65.4483 368.684 64.8947C369.056 64.3412 369.307 63.7806 369.437 63.213C369.566 62.6188 369.611 61.9355 369.57 61.1633C369.498 59.7785 369.043 58.7475 368.206 58.0704C367.37 57.3933 366.019 57.1035 364.155 57.2012C363.143 57.2543 362.11 57.4152 361.056 57.6841C360.029 57.9515 359.046 58.2968 358.107 58.7199L357.906 54.8851C358.821 54.5167 359.913 54.2058 361.181 53.9524C362.448 53.6724 363.654 53.5024 364.799 53.4424C367.676 53.2916 369.883 53.8836 371.422 55.2182C372.96 56.5529 373.794 58.4452 373.922 60.8951C373.986 62.1201 373.83 63.2231 373.455 64.2041C373.077 65.1585 372.538 66.0813 371.837 66.9726C371.135 67.8372 370.314 68.7347 369.375 69.6651C368.206 70.7945 367.102 71.8938 366.063 72.963C365.049 74.0041 364.24 75.128 363.636 76.3346L374.98 75.7401L375.156 79.0955L358.259 79.981Z" fill="black"/>
</svg>
