<svg width="43" height="36" viewBox="0 0 43 36" fill="none" xmlns="http://www.w3.org/2000/svg">
<path d="M15 1.8C12.4 3.9 10.25 6.75 8.55 10.35C6.95 13.85 6.2 17.45 6.3 21.15C7.3 20.55 8.4 20.25 9.6 20.25C11.9 20.25 13.7 20.95 15 22.35C16.4 23.65 17.1 25.45 17.1 27.75C17.1 30.05 16.35 31.95 14.85 33.45C13.45 34.85 11.5 35.55 9 35.55C6.2 35.55 4 34.55 2.4 32.55C0.8 30.45 0 27.55 0 23.85C0 19.15 1.2 14.55 3.6 10.05C6 5.55 9.05 2.2 12.75 0L15 1.8ZM40.35 1.8C37.75 3.9 35.6 6.75 33.9 10.35C32.3 13.85 31.55 17.45 31.65 21.15C32.65 20.55 33.75 20.25 34.95 20.25C37.25 20.25 39.05 20.95 40.35 22.35C41.75 23.65 42.45 25.45 42.45 27.75C42.45 30.05 41.7 31.95 40.2 33.45C38.8 34.85 36.85 35.55 34.35 35.55C31.55 35.55 29.35 34.55 27.75 32.55C26.15 30.45 25.35 27.55 25.35 23.85C25.35 19.15 26.55 14.55 28.95 10.05C31.35 5.55 34.4 2.2 38.1 0L40.35 1.8Z" fill="black"/>
</svg>
