<svg width="43" height="503" viewBox="0 0 43 503" fill="none" xmlns="http://www.w3.org/2000/svg">
<path d="M15 1.8C12.4 3.9 10.25 6.75 8.55 10.35C6.95 13.85 6.2 17.45 6.3 21.15C7.3 20.55 8.4 20.25 9.6 20.25C11.9 20.25 13.7 20.95 15 22.35C16.4 23.65 17.1 25.45 17.1 27.75C17.1 30.05 16.35 31.95 14.85 33.45C13.45 34.85 11.5 35.55 9 35.55C6.2 35.55 4 34.55 2.4 32.55C0.8 30.45 0 27.55 0 23.85C0 19.15 1.2 14.55 3.6 10.05C6 5.55 9.05 2.2 12.75 0L15 1.8ZM40.35 1.8C37.75 3.9 35.6 6.75 33.9 10.35C32.3 13.85 31.55 17.45 31.65 21.15C32.65 20.55 33.75 20.25 34.95 20.25C37.25 20.25 39.05 20.95 40.35 22.35C41.75 23.65 42.45 25.45 42.45 27.75C42.45 30.05 41.7 31.95 40.2 33.45C38.8 34.85 36.85 35.55 34.35 35.55C31.55 35.55 29.35 34.55 27.75 32.55C26.15 30.45 25.35 27.55 25.35 23.85C25.35 19.15 26.55 14.55 28.95 10.05C31.35 5.55 34.4 2.2 38.1 0L40.35 1.8Z" fill="black"/>
<path d="M2.1 500.75C4.7 498.65 6.8 495.85 8.4 492.35C10.1 488.75 10.9 485.1 10.8 481.4C9.8 482 8.7 482.3 7.5 482.3C5.3 482.3 3.5 481.6 2.1 480.2C0.7 478.8 0 477 0 474.8C0 472.5 0.7 470.65 2.1 469.25C3.6 467.75 5.6 467 8.1 467C10.9 467 13.1 468.05 14.7 470.15C16.3 472.15 17.1 475 17.1 478.7C17.1 483.4 15.9 488 13.5 492.5C11.1 497 8.05 500.35 4.35 502.55L2.1 500.75ZM27.45 500.75C30.05 498.65 32.15 495.85 33.75 492.35C35.45 488.75 36.25 485.1 36.15 481.4C35.15 482 34.05 482.3 32.85 482.3C30.65 482.3 28.85 481.6 27.45 480.2C26.05 478.8 25.35 477 25.35 474.8C25.35 472.5 26.05 470.65 27.45 469.25C28.95 467.75 30.95 467 33.45 467C36.25 467 38.45 468.05 40.05 470.15C41.65 472.15 42.45 475 42.45 478.7C42.45 483.4 41.25 488 38.85 492.5C36.45 497 33.4 500.35 29.7 502.55L27.45 500.75Z" fill="black"/>
</svg>
