<svg width="276" height="114" viewBox="0 0 276 114" fill="none" xmlns="http://www.w3.org/2000/svg">
<rect x="0.375" y="0.375" width="275.25" height="113.25" fill="white" stroke="black" stroke-width="0.75"/>
<path d="M27.02 20.8V32H16.8V29.4C16.8 28.8933 16.9933 28.44 17.38 28.04C17.7667 27.64 18.2867 27.3467 18.94 27.16C18.0333 26.9333 17.3267 26.5333 16.82 25.96C16.3267 25.3867 16.08 24.6867 16.08 23.86C16.08 22.8867 16.4267 22.1 17.12 21.5C17.8133 20.9 18.72 20.6 19.84 20.6C20.7467 20.6 21.4867 20.8267 22.06 21.28C22.6333 21.7333 22.92 22.3267 22.92 23.06C22.92 23.7267 22.7 24.2667 22.26 24.68C21.8333 25.0933 21.2733 25.3 20.58 25.3C19.8867 25.3 19.32 25.1 18.88 24.7C18.44 24.2867 18.22 23.7533 18.22 23.1C18.22 22.6867 18.3733 22.3267 18.68 22.02C18.1333 22.42 17.86 23.0333 17.86 23.86C17.86 25.7 19.1067 26.62 21.6 26.62H21.78V27.44H21.62C20.6867 27.44 19.9667 27.62 19.46 27.98C18.9667 28.3267 18.72 28.8333 18.72 29.5V31.16H25.1V20.8H27.02ZM20.56 21.54C20.1067 21.54 19.7333 21.6867 19.44 21.98C19.1467 22.2733 19 22.6467 19 23.1C19 23.5533 19.1467 23.9267 19.44 24.22C19.7333 24.5133 20.1067 24.66 20.56 24.66C21.0267 24.66 21.4067 24.5133 21.7 24.22C21.9933 23.9267 22.14 23.5533 22.14 23.1C22.14 22.6467 21.9933 22.2733 21.7 21.98C21.4067 21.6867 21.0267 21.54 20.56 21.54ZM27.017 14.38V18.76H16.657C16.7104 18.0533 16.9637 17.4267 17.417 16.88C17.857 16.32 18.457 15.8867 19.217 15.58C19.977 15.2733 20.8237 15.12 21.757 15.12C23.0504 15.12 24.1904 15.42 25.177 16.02V14.38H27.017ZM25.357 18.1C25.2637 17.4467 24.8837 16.9133 24.217 16.5C23.5504 16.0867 22.7304 15.88 21.757 15.88C20.7704 15.88 19.9504 16.0867 19.297 16.5C18.6437 16.9 18.2704 17.4333 18.177 18.1H25.357ZM39.557 21.78C39.9837 22.1133 40.3104 22.5133 40.537 22.98C40.777 23.4333 40.897 23.9333 40.897 24.48V32H38.977V31.8C38.977 29.64 38.617 27.96 37.897 26.76C37.177 25.5467 36.1704 24.94 34.877 24.94C34.0104 24.94 33.2837 25.2467 32.697 25.86C32.1237 26.4733 31.8104 27.2867 31.757 28.3C31.8637 28.1667 32.0504 28.0533 32.317 27.96C32.5837 27.8667 32.8504 27.82 33.117 27.82C33.7837 27.82 34.3304 28.0267 34.757 28.44C35.197 28.8533 35.417 29.38 35.417 30.02C35.417 30.66 35.1837 31.1867 34.717 31.6C34.2637 32 33.677 32.2 32.957 32.2C32.0237 32.2 31.277 31.8867 30.717 31.26C30.157 30.6333 29.877 29.8067 29.877 28.78C29.877 27.8867 30.0704 27.1 30.457 26.42C30.857 25.7267 31.417 25.1867 32.137 24.8C32.8704 24.4133 33.7104 24.2133 34.657 24.2C35.7904 23.5067 36.7704 22.7267 37.597 21.86C36.997 21.5 36.2504 21.32 35.357 21.32C34.2904 21.32 33.397 21.5667 32.677 22.06C31.957 22.54 31.5237 23.1867 31.377 24H29.557C29.7437 22.9733 30.3637 22.1533 31.417 21.54C32.4704 20.9133 33.7837 20.6 35.357 20.6C36.4637 20.6 37.4237 20.7533 38.237 21.06C38.5704 20.6067 38.7904 20.1733 38.897 19.76H41.057C40.9637 20.2667 40.4637 20.94 39.557 21.78ZM38.977 24.32C38.977 23.68 38.817 23.1333 38.497 22.68C37.6304 23.36 36.737 23.9 35.817 24.3C36.537 24.46 37.1704 24.78 37.717 25.26C38.2637 25.7267 38.6837 26.3267 38.977 27.06V24.32ZM33.097 28.46C32.6304 28.46 32.257 28.6067 31.977 28.9C31.697 29.18 31.557 29.5533 31.557 30.02C31.557 30.4733 31.697 30.8467 31.977 31.14C32.2704 31.42 32.6437 31.56 33.097 31.56C33.5637 31.56 33.937 31.42 34.217 31.14C34.5104 30.86 34.657 30.4867 34.657 30.02C34.657 29.5533 34.5104 29.18 34.217 28.9C33.937 28.6067 33.5637 28.46 33.097 28.46ZM43.8238 30.94C43.8238 29.7267 43.7638 28.52 43.6438 27.32C43.5504 26.3733 43.5038 25.6067 43.5038 25.02C43.5038 24.14 43.6571 23.3667 43.9638 22.7C44.2704 22.0333 44.6971 21.52 45.2438 21.16C45.8038 20.7867 46.4504 20.6 47.1838 20.6C47.6904 20.6 48.1504 20.7 48.5638 20.9C48.9904 21.1 49.3038 21.3733 49.5038 21.72C49.7171 21.36 50.0171 21.0867 50.4038 20.9C50.8038 20.7 51.2704 20.6 51.8038 20.6C52.7771 20.6 53.5304 20.8667 54.0638 21.4C54.6104 21.9333 54.8838 22.6867 54.8838 23.66V32H52.9638V23.72C52.9638 22.9867 52.8171 22.4267 52.5238 22.04C52.2438 21.64 51.8371 21.44 51.3038 21.44C50.9571 21.44 50.6504 21.5467 50.3838 21.76C50.1304 21.9733 49.9438 22.2733 49.8238 22.66H49.1438C49.0371 22.2733 48.8438 21.9733 48.5638 21.76C48.2971 21.5467 47.9771 21.44 47.6038 21.44C46.9238 21.44 46.3904 21.7467 46.0038 22.36C45.6171 22.9733 45.4238 23.8267 45.4238 24.92C45.4238 25.4133 45.4571 26.16 45.5238 27.16C45.6038 28.4667 45.6504 29.7667 45.6638 31.06C47.8371 30.2067 49.3038 29.2933 50.0638 28.32C49.7704 28.4533 49.5038 28.52 49.2638 28.52C48.5838 28.52 48.0238 28.3133 47.5838 27.9C47.1571 27.4867 46.9438 26.96 46.9438 26.32C46.9438 25.68 47.1571 25.16 47.5838 24.76C48.0104 24.3467 48.5638 24.14 49.2438 24.14C49.9238 24.14 50.4838 24.36 50.9238 24.8C51.3638 25.2267 51.5838 25.7867 51.5838 26.48C51.5838 27.5333 51.0571 28.54 50.0038 29.5C48.9504 30.4467 47.4438 31.28 45.4838 32H43.8238V30.94ZM49.2438 27.88C49.7104 27.88 50.0904 27.7333 50.3838 27.44C50.6771 27.1467 50.8238 26.7733 50.8238 26.32C50.8238 25.8667 50.6771 25.4933 50.3838 25.2C50.0904 24.9067 49.7104 24.76 49.2438 24.76C48.7771 24.76 48.3971 24.9067 48.1038 25.2C47.8104 25.4933 47.6638 25.8667 47.6638 26.32C47.6638 26.7733 47.8104 27.1467 48.1038 27.44C48.3971 27.7333 48.7771 27.88 49.2438 27.88ZM51.9928 18.96C51.3795 18.96 50.8861 18.7933 50.5128 18.46C50.1395 18.1133 49.9528 17.66 49.9528 17.1C49.9528 16.5933 50.0661 16.18 50.2928 15.86C50.5061 15.54 50.7728 15.2933 51.0928 15.12C51.3995 14.9467 51.7995 14.7733 52.2928 14.6C52.9195 14.36 53.3795 14.1267 53.6728 13.9C53.9528 13.6733 54.0928 13.3333 54.0928 12.88H55.9528C55.9528 13.4667 55.6928 13.9267 55.1728 14.26C54.6395 14.5933 53.9661 14.88 53.1528 15.12C53.0061 15.16 52.7795 15.24 52.4728 15.36C52.8995 15.4133 53.2461 15.6 53.5128 15.92C53.7795 16.24 53.9128 16.6333 53.9128 17.1C53.9128 17.6467 53.7395 18.0933 53.3928 18.44C53.0328 18.7867 52.5661 18.96 51.9928 18.96ZM52.0328 18.3C52.3795 18.3 52.6661 18.1867 52.8928 17.96C53.1061 17.7333 53.2128 17.4467 53.2128 17.1C53.2128 16.7533 53.1061 16.4733 52.8928 16.26C52.6661 16.0333 52.3795 15.92 52.0328 15.92C51.6861 15.92 51.4061 16.0333 51.1928 16.26C50.9661 16.4733 50.8528 16.7533 50.8528 17.1C50.8528 17.4467 50.9661 17.7333 51.1928 17.96C51.4061 18.1867 51.6861 18.3 52.0328 18.3Z" fill="black"/>
<path d="M24.015 49.6V58H16.35V56.05C16.35 55.67 16.495 55.33 16.785 55.03C17.075 54.73 17.465 54.51 17.955 54.37C17.275 54.2 16.745 53.9 16.365 53.47C15.995 53.04 15.81 52.515 15.81 51.895C15.81 51.165 16.07 50.575 16.59 50.125C17.11 49.675 17.79 49.45 18.63 49.45C19.31 49.45 19.865 49.62 20.295 49.96C20.725 50.3 20.94 50.745 20.94 51.295C20.94 51.795 20.775 52.2 20.445 52.51C20.125 52.82 19.705 52.975 19.185 52.975C18.665 52.975 18.24 52.825 17.91 52.525C17.58 52.215 17.415 51.815 17.415 51.325C17.415 51.015 17.53 50.745 17.76 50.515C17.35 50.815 17.145 51.275 17.145 51.895C17.145 53.275 18.08 53.965 19.95 53.965H20.085V54.58H19.965C19.265 54.58 18.725 54.715 18.345 54.985C17.975 55.245 17.79 55.625 17.79 56.125V57.37H22.575V49.6H24.015ZM19.17 50.155C18.83 50.155 18.55 50.265 18.33 50.485C18.11 50.705 18 50.985 18 51.325C18 51.665 18.11 51.945 18.33 52.165C18.55 52.385 18.83 52.495 19.17 52.495C19.52 52.495 19.805 52.385 20.025 52.165C20.245 51.945 20.355 51.665 20.355 51.325C20.355 50.985 20.245 50.705 20.025 50.485C19.805 50.265 19.52 50.155 19.17 50.155ZM24.0128 44.785V48.07H16.2428C16.2828 47.54 16.4728 47.07 16.8128 46.66C17.1428 46.24 17.5928 45.915 18.1628 45.685C18.7328 45.455 19.3678 45.34 20.0678 45.34C21.0378 45.34 21.8928 45.565 22.6328 46.015V44.785H24.0128ZM22.7678 47.575C22.6978 47.085 22.4128 46.685 21.9128 46.375C21.4128 46.065 20.7978 45.91 20.0678 45.91C19.3278 45.91 18.7128 46.065 18.2228 46.375C17.7328 46.675 17.4528 47.075 17.3828 47.575H22.7678ZM33.4178 50.335C33.7378 50.585 33.9828 50.885 34.1528 51.235C34.3328 51.575 34.4228 51.95 34.4228 52.36V58H32.9828V57.85C32.9828 56.23 32.7128 54.97 32.1728 54.07C31.6328 53.16 30.8778 52.705 29.9078 52.705C29.2578 52.705 28.7128 52.935 28.2728 53.395C27.8428 53.855 27.6078 54.465 27.5678 55.225C27.6478 55.125 27.7878 55.04 27.9878 54.97C28.1878 54.9 28.3878 54.865 28.5878 54.865C29.0878 54.865 29.4978 55.02 29.8178 55.33C30.1478 55.64 30.3128 56.035 30.3128 56.515C30.3128 56.995 30.1378 57.39 29.7878 57.7C29.4478 58 29.0078 58.15 28.4678 58.15C27.7678 58.15 27.2078 57.915 26.7878 57.445C26.3678 56.975 26.1578 56.355 26.1578 55.585C26.1578 54.915 26.3028 54.325 26.5928 53.815C26.8928 53.295 27.3128 52.89 27.8528 52.6C28.4028 52.31 29.0328 52.16 29.7428 52.15C30.5928 51.63 31.3278 51.045 31.9478 50.395C31.4978 50.125 30.9378 49.99 30.2678 49.99C29.4678 49.99 28.7978 50.175 28.2578 50.545C27.7178 50.905 27.3928 51.39 27.2828 52H25.9178C26.0578 51.23 26.5228 50.615 27.3128 50.155C28.1028 49.685 29.0878 49.45 30.2678 49.45C31.0978 49.45 31.8178 49.565 32.4278 49.795C32.6778 49.455 32.8428 49.13 32.9228 48.82H34.5428C34.4728 49.2 34.0978 49.705 33.4178 50.335ZM32.9828 52.24C32.9828 51.76 32.8628 51.35 32.6228 51.01C31.9728 51.52 31.3028 51.925 30.6128 52.225C31.1528 52.345 31.6278 52.585 32.0378 52.945C32.4478 53.295 32.7628 53.745 32.9828 54.295V52.24ZM28.5728 55.345C28.2228 55.345 27.9428 55.455 27.7328 55.675C27.5228 55.885 27.4178 56.165 27.4178 56.515C27.4178 56.855 27.5228 57.135 27.7328 57.355C27.9528 57.565 28.2328 57.67 28.5728 57.67C28.9228 57.67 29.2028 57.565 29.4128 57.355C29.6328 57.145 29.7428 56.865 29.7428 56.515C29.7428 56.165 29.6328 55.885 29.4128 55.675C29.2028 55.455 28.9228 55.345 28.5728 55.345ZM36.6178 57.205C36.6178 56.295 36.5728 55.39 36.4828 54.49C36.4128 53.78 36.3778 53.205 36.3778 52.765C36.3778 52.105 36.4928 51.525 36.7228 51.025C36.9528 50.525 37.2728 50.14 37.6828 49.87C38.1028 49.59 38.5878 49.45 39.1378 49.45C39.5178 49.45 39.8628 49.525 40.1728 49.675C40.4928 49.825 40.7278 50.03 40.8778 50.29C41.0378 50.02 41.2628 49.815 41.5528 49.675C41.8528 49.525 42.2028 49.45 42.6028 49.45C43.3328 49.45 43.8978 49.65 44.2978 50.05C44.7078 50.45 44.9128 51.015 44.9128 51.745V58H43.4728V51.79C43.4728 51.24 43.3628 50.82 43.1428 50.53C42.9328 50.23 42.6278 50.08 42.2278 50.08C41.9678 50.08 41.7378 50.16 41.5378 50.32C41.3478 50.48 41.2078 50.705 41.1178 50.995H40.6078C40.5278 50.705 40.3828 50.48 40.1728 50.32C39.9728 50.16 39.7328 50.08 39.4528 50.08C38.9428 50.08 38.5428 50.31 38.2528 50.77C37.9628 51.23 37.8178 51.87 37.8178 52.69C37.8178 53.06 37.8428 53.62 37.8928 54.37C37.9528 55.35 37.9878 56.325 37.9978 57.295C39.6278 56.655 40.7278 55.97 41.2978 55.24C41.0778 55.34 40.8778 55.39 40.6978 55.39C40.1878 55.39 39.7678 55.235 39.4378 54.925C39.1178 54.615 38.9578 54.22 38.9578 53.74C38.9578 53.26 39.1178 52.87 39.4378 52.57C39.7578 52.26 40.1728 52.105 40.6828 52.105C41.1928 52.105 41.6128 52.27 41.9428 52.6C42.2728 52.92 42.4378 53.34 42.4378 53.86C42.4378 54.65 42.0428 55.405 41.2528 56.125C40.4628 56.835 39.3328 57.46 37.8628 58H36.6178V57.205ZM40.6828 54.91C41.0328 54.91 41.3178 54.8 41.5378 54.58C41.7578 54.36 41.8678 54.08 41.8678 53.74C41.8678 53.4 41.7578 53.12 41.5378 52.9C41.3178 52.68 41.0328 52.57 40.6828 52.57C40.3328 52.57 40.0478 52.68 39.8278 52.9C39.6078 53.12 39.4978 53.4 39.4978 53.74C39.4978 54.08 39.6078 54.36 39.8278 54.58C40.0478 54.8 40.3328 54.91 40.6828 54.91ZM42.7446 48.22C42.2846 48.22 41.9146 48.095 41.6346 47.845C41.3546 47.585 41.2146 47.245 41.2146 46.825C41.2146 46.445 41.2996 46.135 41.4696 45.895C41.6296 45.655 41.8296 45.47 42.0696 45.34C42.2996 45.21 42.5996 45.08 42.9696 44.95C43.4396 44.77 43.7846 44.595 44.0046 44.425C44.2146 44.255 44.3196 44 44.3196 43.66H45.7146C45.7146 44.1 45.5196 44.445 45.1296 44.695C44.7296 44.945 44.2246 45.16 43.6146 45.34C43.5046 45.37 43.3346 45.43 43.1046 45.52C43.4246 45.56 43.6846 45.7 43.8846 45.94C44.0846 46.18 44.1846 46.475 44.1846 46.825C44.1846 47.235 44.0546 47.57 43.7946 47.83C43.5246 48.09 43.1746 48.22 42.7446 48.22ZM42.7746 47.725C43.0346 47.725 43.2496 47.64 43.4196 47.47C43.5796 47.3 43.6596 47.085 43.6596 46.825C43.6596 46.565 43.5796 46.355 43.4196 46.195C43.2496 46.025 43.0346 45.94 42.7746 45.94C42.5146 45.94 42.3046 46.025 42.1446 46.195C41.9746 46.355 41.8896 46.565 41.8896 46.825C41.8896 47.085 41.9746 47.3 42.1446 47.47C42.3046 47.64 42.5146 47.725 42.7746 47.725ZM54.6361 49.6C55.1261 49.6 55.4961 49.715 55.7461 49.945C56.0061 50.175 56.1361 50.51 56.1361 50.95V58H54.6961V50.83C54.6961 50.67 54.6511 50.545 54.5611 50.455C54.4711 50.365 54.3411 50.32 54.1711 50.32H53.5861L50.2261 58H48.7711V52.42C48.6811 52.52 48.5511 52.6 48.3811 52.66C48.2111 52.71 48.0261 52.735 47.8261 52.735C47.3261 52.735 46.9211 52.585 46.6111 52.285C46.3011 51.985 46.1461 51.59 46.1461 51.1C46.1461 50.61 46.3211 50.215 46.6711 49.915C47.0211 49.605 47.4811 49.45 48.0511 49.45C48.7311 49.45 49.2611 49.635 49.6411 50.005C50.0211 50.375 50.2111 50.895 50.2111 51.565V56.35L53.1511 49.6H54.6361ZM47.8711 52.255C48.2211 52.255 48.5011 52.145 48.7111 51.925C48.9311 51.705 49.0411 51.425 49.0411 51.085C49.0411 50.745 48.9311 50.47 48.7111 50.26C48.4911 50.04 48.2111 49.93 47.8711 49.93C47.5311 49.93 47.2511 50.04 47.0311 50.26C46.8111 50.47 46.7011 50.745 46.7011 51.085C46.7011 51.425 46.8111 51.705 47.0311 51.925C47.2511 52.145 47.5311 52.255 47.8711 52.255ZM55.3418 48.37C54.7618 48.37 54.2918 48.23 53.9318 47.95C53.5718 47.67 53.3918 47.3 53.3918 46.84C53.3918 46.38 53.5718 46.015 53.9318 45.745C54.2818 45.465 54.7518 45.325 55.3418 45.325C55.9218 45.325 56.3918 45.465 56.7518 45.745C57.1018 46.015 57.2768 46.38 57.2768 46.84C57.2768 47.3 57.1018 47.67 56.7518 47.95C56.3918 48.23 55.9218 48.37 55.3418 48.37ZM55.3418 47.92C55.6618 47.92 55.9218 47.82 56.1218 47.62C56.3118 47.42 56.4068 47.16 56.4068 46.84C56.4068 46.52 56.3068 46.26 56.1068 46.06C55.9068 45.86 55.6518 45.76 55.3418 45.76C55.0218 45.76 54.7618 45.86 54.5618 46.06C54.3618 46.26 54.2618 46.52 54.2618 46.84C54.2618 47.16 54.3618 47.42 54.5618 47.62C54.7618 47.82 55.0218 47.92 55.3418 47.92ZM63.1568 52.165C63.1568 51.505 62.9618 50.975 62.5718 50.575C62.1918 50.175 61.6668 49.975 60.9968 49.975C60.3768 49.975 59.8618 50.165 59.4518 50.545C59.0518 50.915 58.8168 51.43 58.7468 52.09H57.3818C57.4518 51.29 57.8068 50.65 58.4468 50.17C59.0968 49.69 59.9468 49.45 60.9968 49.45C62.0868 49.45 62.9568 49.71 63.6068 50.23C64.2668 50.75 64.5968 51.46 64.5968 52.36V58H63.1568V52.165ZM69.5386 58.15C68.8786 58.15 68.3486 57.97 67.9486 57.61C67.5586 57.25 67.3636 56.725 67.3636 56.035V49.915C67.3636 49.555 67.4586 49.205 67.6486 48.865C67.8386 48.515 68.1186 48.14 68.4886 47.74C68.8586 47.32 69.1286 46.96 69.2986 46.66C69.4786 46.35 69.5686 46.015 69.5686 45.655C69.5686 45.155 69.3836 44.75 69.0136 44.44C68.6436 44.13 68.1586 43.975 67.5586 43.975C67.0786 43.975 66.6586 44.09 66.2986 44.32C65.9386 44.54 65.6886 44.84 65.5486 45.22C65.6786 45.06 65.8586 44.935 66.0886 44.845C66.3286 44.745 66.5836 44.695 66.8536 44.695C67.3436 44.695 67.7436 44.85 68.0536 45.16C68.3636 45.46 68.5186 45.845 68.5186 46.315C68.5186 46.805 68.3486 47.205 68.0086 47.515C67.6686 47.815 67.2336 47.965 66.7036 47.965C66.1036 47.965 65.6236 47.78 65.2636 47.41C64.8936 47.04 64.7086 46.55 64.7086 45.94C64.7086 45.46 64.8386 45.03 65.0986 44.65C65.3486 44.27 65.6986 43.975 66.1486 43.765C66.6086 43.545 67.1286 43.435 67.7086 43.435C68.3186 43.435 68.8536 43.53 69.3136 43.72C69.7836 43.9 70.1486 44.16 70.4086 44.5C70.6686 44.83 70.7986 45.215 70.7986 45.655C70.7986 46.075 70.7136 46.46 70.5436 46.81C70.3736 47.15 70.1086 47.53 69.7486 47.95C69.4286 48.31 69.1886 48.65 69.0286 48.97C68.8786 49.28 68.8036 49.6 68.8036 49.93V55.195C68.8936 55.105 69.0236 55.03 69.1936 54.97C69.3736 54.9 69.5636 54.865 69.7636 54.865C70.2636 54.865 70.6636 55.015 70.9636 55.315C71.2736 55.615 71.4286 56.01 71.4286 56.5C71.4286 57 71.2536 57.4 70.9036 57.7C70.5636 58 70.1086 58.15 69.5386 58.15ZM66.8086 47.5C67.1586 47.5 67.4436 47.39 67.6636 47.17C67.8836 46.94 67.9936 46.655 67.9936 46.315C67.9936 45.965 67.8836 45.68 67.6636 45.46C67.4436 45.24 67.1586 45.13 66.8086 45.13C66.4686 45.13 66.1836 45.24 65.9536 45.46C65.7336 45.68 65.6236 45.965 65.6236 46.315C65.6236 46.655 65.7336 46.94 65.9536 47.17C66.1836 47.39 66.4686 47.5 66.8086 47.5ZM69.7186 57.7C70.0686 57.7 70.3536 57.59 70.5736 57.37C70.7936 57.14 70.9036 56.855 70.9036 56.515C70.9036 56.165 70.7936 55.88 70.5736 55.66C70.3536 55.44 70.0686 55.33 69.7186 55.33C69.3686 55.33 69.0836 55.44 68.8636 55.66C68.6436 55.88 68.5336 56.165 68.5336 56.515C68.5336 56.855 68.6436 57.14 68.8636 57.37C69.0936 57.59 69.3786 57.7 69.7186 57.7ZM81.1052 52.555C81.3652 52.705 81.5652 52.9 81.7052 53.14C81.8552 53.37 81.9302 53.635 81.9302 53.935V58H80.4902V53.68C80.4902 53.41 80.3802 53.185 80.1602 53.005C79.9402 52.825 79.6702 52.735 79.3502 52.735C78.8302 52.735 78.3152 52.89 77.8052 53.2C77.3052 53.51 76.8902 53.91 76.5602 54.4C76.2402 54.89 76.0802 55.385 76.0802 55.885V58H74.6402V52.405C74.5502 52.495 74.4152 52.575 74.2352 52.645C74.0652 52.705 73.8852 52.735 73.6952 52.735C73.1952 52.735 72.7902 52.585 72.4802 52.285C72.1702 51.985 72.0152 51.59 72.0152 51.1C72.0152 50.61 72.1902 50.215 72.5402 49.915C72.8902 49.605 73.3502 49.45 73.9202 49.45C74.6002 49.45 75.1302 49.635 75.5102 50.005C75.8902 50.375 76.0802 50.895 76.0802 51.565V54.19C76.3302 53.7 76.7452 53.275 77.3252 52.915C77.9052 52.545 78.5202 52.32 79.1702 52.24C78.8202 51.94 78.6452 51.545 78.6452 51.055C78.6452 50.585 78.8102 50.2 79.1402 49.9C79.4702 49.6 79.9002 49.45 80.4302 49.45C80.9602 49.45 81.3902 49.6 81.7202 49.9C82.0502 50.2 82.2152 50.585 82.2152 51.055C82.2152 51.415 82.1152 51.73 81.9152 52C81.7152 52.26 81.4452 52.445 81.1052 52.555ZM80.4302 49.915C80.0802 49.915 79.7952 50.02 79.5752 50.23C79.3652 50.44 79.2602 50.715 79.2602 51.055C79.2602 51.395 79.3652 51.67 79.5752 51.88C79.7952 52.09 80.0802 52.195 80.4302 52.195C80.7802 52.195 81.0602 52.09 81.2702 51.88C81.4902 51.67 81.6002 51.395 81.6002 51.055C81.6002 50.715 81.4902 50.44 81.2702 50.23C81.0602 50.02 80.7802 49.915 80.4302 49.915ZM73.7402 52.255C74.0902 52.255 74.3702 52.145 74.5802 51.925C74.8002 51.705 74.9102 51.425 74.9102 51.085C74.9102 50.745 74.8002 50.47 74.5802 50.26C74.3602 50.04 74.0802 49.93 73.7402 49.93C73.4002 49.93 73.1202 50.04 72.9002 50.26C72.6802 50.47 72.5702 50.745 72.5702 51.085C72.5702 51.425 72.6802 51.705 72.9002 51.925C73.1202 52.145 73.4002 52.255 73.7402 52.255ZM77.9566 47.89C78.5266 47.49 78.9366 47.06 79.1866 46.6C79.1066 46.65 79.0066 46.69 78.8866 46.72C78.7666 46.75 78.6516 46.765 78.5416 46.765C78.1716 46.765 77.8716 46.655 77.6416 46.435C77.4016 46.205 77.2816 45.915 77.2816 45.565C77.2816 45.185 77.4066 44.88 77.6566 44.65C77.8966 44.42 78.2166 44.305 78.6166 44.305C79.0566 44.305 79.4016 44.42 79.6516 44.65C79.9016 44.87 80.0266 45.175 80.0266 45.565C80.0266 46.265 79.7466 46.925 79.1866 47.545C80.0466 47.265 80.7366 46.88 81.2566 46.39C81.7666 45.89 82.0966 45.32 82.2466 44.68H83.4616C83.3516 45.29 83.0366 45.855 82.5166 46.375C81.9866 46.895 81.3316 47.32 80.5516 47.65C79.7716 47.97 78.9466 48.16 78.0766 48.22L77.9566 47.89ZM78.5416 46.315C78.7716 46.315 78.9566 46.245 79.0966 46.105C79.2366 45.965 79.3066 45.785 79.3066 45.565C79.3066 45.335 79.2366 45.15 79.0966 45.01C78.9466 44.86 78.7616 44.785 78.5416 44.785C78.3216 44.785 78.1416 44.86 78.0016 45.01C77.8516 45.15 77.7766 45.335 77.7766 45.565C77.7766 45.785 77.8466 45.965 77.9866 46.105C78.1266 46.245 78.3116 46.315 78.5416 46.315ZM92.2666 54.925C92.6066 55.035 92.8766 55.23 93.0766 55.51C93.2866 55.79 93.3916 56.12 93.3916 56.5C93.3916 56.99 93.2266 57.39 92.8966 57.7C92.5766 58 92.1616 58.15 91.6516 58.15C91.1516 58.15 90.7366 58 90.4066 57.7C90.0866 57.39 89.9266 56.99 89.9266 56.5C89.9266 56.22 89.9766 55.98 90.0766 55.78C89.5066 56.08 88.9816 56.42 88.5016 56.8C88.0316 57.18 87.6366 57.58 87.3166 58H85.8316V52.42C85.7416 52.52 85.6116 52.6 85.4416 52.66C85.2716 52.71 85.0866 52.735 84.8866 52.735C84.3966 52.735 83.9916 52.585 83.6716 52.285C83.3616 51.975 83.2066 51.58 83.2066 51.1C83.2066 50.61 83.3766 50.215 83.7166 49.915C84.0666 49.605 84.5266 49.45 85.0966 49.45C85.7766 49.45 86.3066 49.64 86.6866 50.02C87.0766 50.39 87.2716 50.905 87.2716 51.565V56.86C87.7416 56.37 88.3866 55.9 89.2066 55.45C90.0266 54.99 90.8266 54.66 91.6066 54.46V49.6H93.0466V54.775C92.8566 54.795 92.5966 54.845 92.2666 54.925ZM84.9316 52.255C85.2816 52.255 85.5616 52.145 85.7716 51.925C85.9916 51.705 86.1016 51.425 86.1016 51.085C86.1016 50.745 85.9916 50.47 85.7716 50.26C85.5516 50.04 85.2716 49.93 84.9316 49.93C84.5916 49.93 84.3116 50.04 84.0916 50.26C83.8716 50.47 83.7616 50.745 83.7616 51.085C83.7616 51.425 83.8716 51.705 84.0916 51.925C84.3116 52.145 84.5916 52.255 84.9316 52.255ZM91.6516 57.655C92.0016 57.655 92.2866 57.545 92.5066 57.325C92.7266 57.105 92.8366 56.825 92.8366 56.485C92.8366 56.145 92.7266 55.87 92.5066 55.66C92.2866 55.44 92.0016 55.33 91.6516 55.33C91.3116 55.33 91.0316 55.44 90.8116 55.66C90.5916 55.87 90.4816 56.145 90.4816 56.485C90.4816 56.825 90.5916 57.105 90.8116 57.325C91.0316 57.545 91.3116 57.655 91.6516 57.655ZM92.2559 48.37C91.6759 48.37 91.2059 48.23 90.8459 47.95C90.4859 47.67 90.3059 47.3 90.3059 46.84C90.3059 46.38 90.4859 46.015 90.8459 45.745C91.1959 45.465 91.6659 45.325 92.2559 45.325C92.8359 45.325 93.3059 45.465 93.6659 45.745C94.0159 46.015 94.1909 46.38 94.1909 46.84C94.1909 47.3 94.0159 47.67 93.6659 47.95C93.3059 48.23 92.8359 48.37 92.2559 48.37ZM92.2559 47.92C92.5759 47.92 92.8359 47.82 93.0359 47.62C93.2259 47.42 93.3209 47.16 93.3209 46.84C93.3209 46.52 93.2209 46.26 93.0209 46.06C92.8209 45.86 92.5659 45.76 92.2559 45.76C91.9359 45.76 91.6759 45.86 91.4759 46.06C91.2759 46.26 91.1759 46.52 91.1759 46.84C91.1759 47.16 91.2759 47.42 91.4759 47.62C91.6759 47.82 91.9359 47.92 92.2559 47.92ZM89.6909 44.455C89.9109 44.315 90.1209 44.14 90.3209 43.93C90.5209 43.72 90.6609 43.52 90.7409 43.33C90.6209 43.42 90.4459 43.465 90.2159 43.465C89.8759 43.465 89.6009 43.36 89.3909 43.15C89.1709 42.94 89.0609 42.67 89.0609 42.34C89.0609 42.01 89.1759 41.74 89.4059 41.53C89.6259 41.32 89.9159 41.215 90.2759 41.215C90.6659 41.215 90.9859 41.325 91.2359 41.545C91.4759 41.755 91.5959 42.03 91.5959 42.37C91.5959 42.63 91.5459 42.91 91.4459 43.21C91.3359 43.5 91.2009 43.74 91.0409 43.93C91.6909 43.71 92.2259 43.39 92.6459 42.97C93.0659 42.55 93.3459 42.08 93.4859 41.56H94.6109C94.5109 42.11 94.2409 42.615 93.8009 43.075C93.3609 43.535 92.7959 43.91 92.1059 44.2C91.4059 44.48 90.6409 44.65 89.8109 44.71L89.6909 44.455ZM90.2159 43.015C90.4059 43.015 90.5659 42.955 90.6959 42.835C90.8159 42.705 90.8759 42.54 90.8759 42.34C90.8759 42.14 90.8159 41.98 90.6959 41.86C90.5659 41.74 90.4059 41.68 90.2159 41.68C90.0159 41.68 89.8559 41.74 89.7359 41.86C89.6059 41.98 89.5409 42.14 89.5409 42.34C89.5409 42.54 89.6059 42.705 89.7359 42.835C89.8559 42.955 90.0159 43.015 90.2159 43.015ZM100.071 52.165C100.071 51.505 99.8759 50.975 99.4859 50.575C99.1059 50.175 98.5809 49.975 97.9109 49.975C97.2909 49.975 96.7759 50.165 96.3659 50.545C95.9659 50.915 95.7309 51.43 95.6609 52.09H94.2959C94.3659 51.29 94.7209 50.65 95.3609 50.17C96.0109 49.69 96.8609 49.45 97.9109 49.45C99.0009 49.45 99.8709 49.71 100.521 50.23C101.181 50.75 101.511 51.46 101.511 52.36V58H100.071V52.165ZM103.708 57.205C103.708 56.295 103.663 55.39 103.573 54.49C103.503 53.78 103.468 53.205 103.468 52.765C103.468 52.105 103.583 51.525 103.813 51.025C104.043 50.525 104.363 50.14 104.773 49.87C105.193 49.59 105.678 49.45 106.228 49.45C106.608 49.45 106.953 49.525 107.263 49.675C107.583 49.825 107.818 50.03 107.968 50.29C108.128 50.02 108.353 49.815 108.643 49.675C108.943 49.525 109.293 49.45 109.693 49.45C110.423 49.45 110.988 49.65 111.388 50.05C111.798 50.45 112.003 51.015 112.003 51.745V58H110.563V51.79C110.563 51.24 110.453 50.82 110.233 50.53C110.023 50.23 109.718 50.08 109.318 50.08C109.058 50.08 108.828 50.16 108.628 50.32C108.438 50.48 108.298 50.705 108.208 50.995H107.698C107.618 50.705 107.473 50.48 107.263 50.32C107.063 50.16 106.823 50.08 106.543 50.08C106.033 50.08 105.633 50.31 105.343 50.77C105.053 51.23 104.908 51.87 104.908 52.69C104.908 53.06 104.933 53.62 104.983 54.37C105.043 55.35 105.078 56.325 105.088 57.295C106.718 56.655 107.818 55.97 108.388 55.24C108.168 55.34 107.968 55.39 107.788 55.39C107.278 55.39 106.858 55.235 106.528 54.925C106.208 54.615 106.048 54.22 106.048 53.74C106.048 53.26 106.208 52.87 106.528 52.57C106.848 52.26 107.263 52.105 107.773 52.105C108.283 52.105 108.703 52.27 109.033 52.6C109.363 52.92 109.528 53.34 109.528 53.86C109.528 54.65 109.133 55.405 108.343 56.125C107.553 56.835 106.423 57.46 104.953 58H103.708V57.205ZM107.773 54.91C108.123 54.91 108.408 54.8 108.628 54.58C108.848 54.36 108.958 54.08 108.958 53.74C108.958 53.4 108.848 53.12 108.628 52.9C108.408 52.68 108.123 52.57 107.773 52.57C107.423 52.57 107.138 52.68 106.918 52.9C106.698 53.12 106.588 53.4 106.588 53.74C106.588 54.08 106.698 54.36 106.918 54.58C107.138 54.8 107.423 54.91 107.773 54.91ZM119.026 52.165C119.026 51.505 118.831 50.975 118.441 50.575C118.061 50.175 117.536 49.975 116.866 49.975C116.246 49.975 115.731 50.165 115.321 50.545C114.921 50.915 114.686 51.43 114.616 52.09H113.251C113.321 51.29 113.676 50.65 114.316 50.17C114.966 49.69 115.816 49.45 116.866 49.45C117.956 49.45 118.826 49.71 119.476 50.23C120.136 50.75 120.466 51.46 120.466 52.36V58H119.026V52.165ZM124.928 58.15C124.228 58.15 123.668 57.915 123.248 57.445C122.828 56.975 122.618 56.355 122.618 55.585C122.618 54.905 122.768 54.305 123.068 53.785C123.378 53.265 123.813 52.865 124.373 52.585C124.933 52.295 125.578 52.15 126.308 52.15C127.028 52.15 127.663 52.34 128.213 52.72C128.763 53.09 129.173 53.615 129.443 54.295V52.24C129.443 51.55 129.198 51.005 128.708 50.605C128.218 50.195 127.558 49.99 126.728 49.99C125.928 49.99 125.258 50.175 124.718 50.545C124.178 50.905 123.853 51.39 123.743 52H122.378C122.518 51.23 122.983 50.615 123.773 50.155C124.563 49.685 125.548 49.45 126.728 49.45C127.568 49.45 128.298 49.57 128.918 49.81C129.548 50.05 130.033 50.39 130.373 50.83C130.713 51.26 130.883 51.77 130.883 52.36V58H129.443V57.85C129.443 56.23 129.173 54.97 128.633 54.07C128.093 53.16 127.338 52.705 126.368 52.705C125.718 52.705 125.173 52.935 124.733 53.395C124.303 53.855 124.068 54.465 124.028 55.225C124.108 55.125 124.248 55.04 124.448 54.97C124.648 54.9 124.848 54.865 125.048 54.865C125.548 54.865 125.958 55.02 126.278 55.33C126.608 55.64 126.773 56.035 126.773 56.515C126.773 56.995 126.598 57.39 126.248 57.7C125.908 58 125.468 58.15 124.928 58.15ZM125.033 57.67C125.383 57.67 125.663 57.565 125.873 57.355C126.093 57.145 126.203 56.865 126.203 56.515C126.203 56.165 126.093 55.885 125.873 55.675C125.663 55.455 125.383 55.345 125.033 55.345C124.683 55.345 124.403 55.455 124.193 55.675C123.983 55.885 123.878 56.165 123.878 56.515C123.878 56.855 123.983 57.135 124.193 57.355C124.413 57.565 124.693 57.67 125.033 57.67ZM135.823 58.15C135.163 58.15 134.633 57.97 134.233 57.61C133.843 57.25 133.648 56.725 133.648 56.035V49.915C133.648 49.555 133.743 49.205 133.933 48.865C134.123 48.515 134.403 48.14 134.773 47.74C135.143 47.32 135.413 46.96 135.583 46.66C135.763 46.35 135.853 46.015 135.853 45.655C135.853 45.155 135.668 44.75 135.298 44.44C134.928 44.13 134.443 43.975 133.843 43.975C133.363 43.975 132.943 44.09 132.583 44.32C132.223 44.54 131.973 44.84 131.833 45.22C131.963 45.06 132.143 44.935 132.373 44.845C132.613 44.745 132.868 44.695 133.138 44.695C133.628 44.695 134.028 44.85 134.338 45.16C134.648 45.46 134.803 45.845 134.803 46.315C134.803 46.805 134.633 47.205 134.293 47.515C133.953 47.815 133.518 47.965 132.988 47.965C132.388 47.965 131.908 47.78 131.548 47.41C131.178 47.04 130.993 46.55 130.993 45.94C130.993 45.46 131.123 45.03 131.383 44.65C131.633 44.27 131.983 43.975 132.433 43.765C132.893 43.545 133.413 43.435 133.993 43.435C134.603 43.435 135.138 43.53 135.598 43.72C136.068 43.9 136.433 44.16 136.693 44.5C136.953 44.83 137.083 45.215 137.083 45.655C137.083 46.075 136.998 46.46 136.828 46.81C136.658 47.15 136.393 47.53 136.033 47.95C135.713 48.31 135.473 48.65 135.313 48.97C135.163 49.28 135.088 49.6 135.088 49.93V55.195C135.178 55.105 135.308 55.03 135.478 54.97C135.658 54.9 135.848 54.865 136.048 54.865C136.548 54.865 136.948 55.015 137.248 55.315C137.558 55.615 137.713 56.01 137.713 56.5C137.713 57 137.538 57.4 137.188 57.7C136.848 58 136.393 58.15 135.823 58.15ZM133.093 47.5C133.443 47.5 133.728 47.39 133.948 47.17C134.168 46.94 134.278 46.655 134.278 46.315C134.278 45.965 134.168 45.68 133.948 45.46C133.728 45.24 133.443 45.13 133.093 45.13C132.753 45.13 132.468 45.24 132.238 45.46C132.018 45.68 131.908 45.965 131.908 46.315C131.908 46.655 132.018 46.94 132.238 47.17C132.468 47.39 132.753 47.5 133.093 47.5ZM136.003 57.7C136.353 57.7 136.638 57.59 136.858 57.37C137.078 57.14 137.188 56.855 137.188 56.515C137.188 56.165 137.078 55.88 136.858 55.66C136.638 55.44 136.353 55.33 136.003 55.33C135.653 55.33 135.368 55.44 135.148 55.66C134.928 55.88 134.818 56.165 134.818 56.515C134.818 56.855 134.928 57.14 135.148 57.37C135.378 57.59 135.663 57.7 136.003 57.7ZM147.359 54.925C147.699 55.035 147.969 55.23 148.169 55.51C148.379 55.79 148.484 56.12 148.484 56.5C148.484 56.99 148.319 57.39 147.989 57.7C147.669 58 147.254 58.15 146.744 58.15C146.244 58.15 145.829 58 145.499 57.7C145.179 57.39 145.019 56.99 145.019 56.5C145.019 56.22 145.069 55.98 145.169 55.78C144.599 56.08 144.074 56.42 143.594 56.8C143.124 57.18 142.729 57.58 142.409 58H140.924V52.42C140.834 52.52 140.704 52.6 140.534 52.66C140.364 52.71 140.179 52.735 139.979 52.735C139.489 52.735 139.084 52.585 138.764 52.285C138.454 51.975 138.299 51.58 138.299 51.1C138.299 50.61 138.469 50.215 138.809 49.915C139.159 49.605 139.619 49.45 140.189 49.45C140.869 49.45 141.399 49.64 141.779 50.02C142.169 50.39 142.364 50.905 142.364 51.565V56.86C142.834 56.37 143.479 55.9 144.299 55.45C145.119 54.99 145.919 54.66 146.699 54.46V49.6H148.139V54.775C147.949 54.795 147.689 54.845 147.359 54.925ZM140.024 52.255C140.374 52.255 140.654 52.145 140.864 51.925C141.084 51.705 141.194 51.425 141.194 51.085C141.194 50.745 141.084 50.47 140.864 50.26C140.644 50.04 140.364 49.93 140.024 49.93C139.684 49.93 139.404 50.04 139.184 50.26C138.964 50.47 138.854 50.745 138.854 51.085C138.854 51.425 138.964 51.705 139.184 51.925C139.404 52.145 139.684 52.255 140.024 52.255ZM146.744 57.655C147.094 57.655 147.379 57.545 147.599 57.325C147.819 57.105 147.929 56.825 147.929 56.485C147.929 56.145 147.819 55.87 147.599 55.66C147.379 55.44 147.094 55.33 146.744 55.33C146.404 55.33 146.124 55.44 145.904 55.66C145.684 55.87 145.574 56.145 145.574 56.485C145.574 56.825 145.684 57.105 145.904 57.325C146.124 57.545 146.404 57.655 146.744 57.655ZM159.259 49.6V58H157.909L154.039 55.72V56.41C154.039 56.95 153.859 57.375 153.499 57.685C153.139 57.995 152.644 58.15 152.014 58.15C151.424 58.15 150.954 57.99 150.604 57.67C150.254 57.34 150.079 56.895 150.079 56.335C150.079 55.725 150.274 55.245 150.664 54.895C151.054 54.535 151.584 54.355 152.254 54.355C152.404 54.355 152.519 54.36 152.599 54.37V52.405C152.499 52.495 152.359 52.575 152.179 52.645C152.009 52.705 151.834 52.735 151.654 52.735C151.154 52.735 150.744 52.585 150.424 52.285C150.114 51.985 149.959 51.59 149.959 51.1C149.959 50.61 150.134 50.215 150.484 49.915C150.834 49.605 151.294 49.45 151.864 49.45C152.544 49.45 153.074 49.635 153.454 50.005C153.844 50.375 154.039 50.895 154.039 51.565V54.805C154.149 54.855 154.214 54.89 154.234 54.91L157.819 57.01V49.6H159.259ZM151.684 52.255C152.034 52.255 152.314 52.145 152.524 51.925C152.744 51.705 152.854 51.425 152.854 51.085C152.854 50.745 152.744 50.47 152.524 50.26C152.304 50.04 152.024 49.93 151.684 49.93C151.344 49.93 151.064 50.04 150.844 50.26C150.624 50.47 150.514 50.745 150.514 51.085C150.514 51.425 150.624 51.705 150.844 51.925C151.064 52.145 151.344 52.255 151.684 52.255ZM152.599 55.075C152.419 54.995 152.224 54.955 152.014 54.955C151.634 54.955 151.324 55.085 151.084 55.345C150.854 55.605 150.739 55.94 150.739 56.35C150.739 56.74 150.829 57.05 151.009 57.28C151.189 57.5 151.439 57.61 151.759 57.61C152.319 57.61 152.599 57.295 152.599 56.665V55.075ZM161.452 54.775C161.452 54.105 161.642 53.585 162.022 53.215C162.402 52.845 162.932 52.66 163.612 52.66C164.182 52.66 164.642 52.815 164.992 53.125C165.352 53.435 165.532 53.835 165.532 54.325C165.532 54.805 165.377 55.195 165.067 55.495C164.757 55.795 164.352 55.945 163.852 55.945C163.652 55.945 163.462 55.915 163.282 55.855C163.102 55.785 162.967 55.7 162.877 55.6V57.385H168.037V52.555C168.037 51.765 167.767 51.14 167.227 50.68C166.697 50.21 165.987 49.975 165.097 49.975C164.237 49.975 163.537 50.19 162.997 50.62C162.457 51.05 162.162 51.625 162.112 52.345H160.762C160.802 51.765 161.002 51.255 161.362 50.815C161.732 50.375 162.232 50.04 162.862 49.81C163.502 49.57 164.237 49.45 165.067 49.45C165.957 49.45 166.732 49.585 167.392 49.855C168.062 50.125 168.577 50.51 168.937 51.01C169.297 51.5 169.477 52.075 169.477 52.735V58H161.452V54.775ZM163.792 55.465C164.132 55.465 164.412 55.36 164.632 55.15C164.852 54.93 164.962 54.65 164.962 54.31C164.962 53.96 164.852 53.68 164.632 53.47C164.422 53.25 164.142 53.14 163.792 53.14C163.452 53.14 163.172 53.25 162.952 53.47C162.742 53.69 162.637 53.97 162.637 54.31C162.637 54.65 162.742 54.93 162.952 55.15C163.172 55.36 163.452 55.465 163.792 55.465ZM173.927 58.15C173.227 58.15 172.667 57.915 172.247 57.445C171.827 56.975 171.617 56.355 171.617 55.585C171.617 54.905 171.767 54.305 172.067 53.785C172.377 53.265 172.812 52.865 173.372 52.585C173.932 52.295 174.577 52.15 175.307 52.15C176.027 52.15 176.662 52.34 177.212 52.72C177.762 53.09 178.172 53.615 178.442 54.295V52.24C178.442 51.55 178.197 51.005 177.707 50.605C177.217 50.195 176.557 49.99 175.727 49.99C174.927 49.99 174.257 50.175 173.717 50.545C173.177 50.905 172.852 51.39 172.742 52H171.377C171.517 51.23 171.982 50.615 172.772 50.155C173.562 49.685 174.547 49.45 175.727 49.45C176.567 49.45 177.297 49.57 177.917 49.81C178.547 50.05 179.032 50.39 179.372 50.83C179.712 51.26 179.882 51.77 179.882 52.36V58H178.442V57.85C178.442 56.23 178.172 54.97 177.632 54.07C177.092 53.16 176.337 52.705 175.367 52.705C174.717 52.705 174.172 52.935 173.732 53.395C173.302 53.855 173.067 54.465 173.027 55.225C173.107 55.125 173.247 55.04 173.447 54.97C173.647 54.9 173.847 54.865 174.047 54.865C174.547 54.865 174.957 55.02 175.277 55.33C175.607 55.64 175.772 56.035 175.772 56.515C175.772 56.995 175.597 57.39 175.247 57.7C174.907 58 174.467 58.15 173.927 58.15ZM174.032 57.67C174.382 57.67 174.662 57.565 174.872 57.355C175.092 57.145 175.202 56.865 175.202 56.515C175.202 56.165 175.092 55.885 174.872 55.675C174.662 55.455 174.382 55.345 174.032 55.345C173.682 55.345 173.402 55.455 173.192 55.675C172.982 55.885 172.877 56.165 172.877 56.515C172.877 56.855 172.982 57.135 173.192 57.355C173.412 57.565 173.692 57.67 174.032 57.67ZM182.077 57.205C182.077 56.295 182.032 55.39 181.942 54.49C181.872 53.78 181.837 53.205 181.837 52.765C181.837 52.105 181.952 51.525 182.182 51.025C182.412 50.525 182.732 50.14 183.142 49.87C183.562 49.59 184.047 49.45 184.597 49.45C184.977 49.45 185.322 49.525 185.632 49.675C185.952 49.825 186.187 50.03 186.337 50.29C186.497 50.02 186.722 49.815 187.012 49.675C187.312 49.525 187.662 49.45 188.062 49.45C188.792 49.45 189.357 49.65 189.757 50.05C190.167 50.45 190.372 51.015 190.372 51.745V58H188.932V51.79C188.932 51.24 188.822 50.82 188.602 50.53C188.392 50.23 188.087 50.08 187.687 50.08C187.427 50.08 187.197 50.16 186.997 50.32C186.807 50.48 186.667 50.705 186.577 50.995H186.067C185.987 50.705 185.842 50.48 185.632 50.32C185.432 50.16 185.192 50.08 184.912 50.08C184.402 50.08 184.002 50.31 183.712 50.77C183.422 51.23 183.277 51.87 183.277 52.69C183.277 53.06 183.302 53.62 183.352 54.37C183.412 55.35 183.447 56.325 183.457 57.295C185.087 56.655 186.187 55.97 186.757 55.24C186.537 55.34 186.337 55.39 186.157 55.39C185.647 55.39 185.227 55.235 184.897 54.925C184.577 54.615 184.417 54.22 184.417 53.74C184.417 53.26 184.577 52.87 184.897 52.57C185.217 52.26 185.632 52.105 186.142 52.105C186.652 52.105 187.072 52.27 187.402 52.6C187.732 52.92 187.897 53.34 187.897 53.86C187.897 54.65 187.502 55.405 186.712 56.125C185.922 56.835 184.792 57.46 183.322 58H182.077V57.205ZM186.142 54.91C186.492 54.91 186.777 54.8 186.997 54.58C187.217 54.36 187.327 54.08 187.327 53.74C187.327 53.4 187.217 53.12 186.997 52.9C186.777 52.68 186.492 52.57 186.142 52.57C185.792 52.57 185.507 52.68 185.287 52.9C185.067 53.12 184.957 53.4 184.957 53.74C184.957 54.08 185.067 54.36 185.287 54.58C185.507 54.8 185.792 54.91 186.142 54.91ZM188.204 48.22C187.744 48.22 187.374 48.095 187.094 47.845C186.814 47.585 186.674 47.245 186.674 46.825C186.674 46.445 186.759 46.135 186.929 45.895C187.089 45.655 187.289 45.47 187.529 45.34C187.759 45.21 188.059 45.08 188.429 44.95C188.899 44.77 189.244 44.595 189.464 44.425C189.674 44.255 189.779 44 189.779 43.66H191.174C191.174 44.1 190.979 44.445 190.589 44.695C190.189 44.945 189.684 45.16 189.074 45.34C188.964 45.37 188.794 45.43 188.564 45.52C188.884 45.56 189.144 45.7 189.344 45.94C189.544 46.18 189.644 46.475 189.644 46.825C189.644 47.235 189.514 47.57 189.254 47.83C188.984 48.09 188.634 48.22 188.204 48.22ZM188.234 47.725C188.494 47.725 188.709 47.64 188.879 47.47C189.039 47.3 189.119 47.085 189.119 46.825C189.119 46.565 189.039 46.355 188.879 46.195C188.709 46.025 188.494 45.94 188.234 45.94C187.974 45.94 187.764 46.025 187.604 46.195C187.434 46.355 187.349 46.565 187.349 46.825C187.349 47.085 187.434 47.3 187.604 47.47C187.764 47.64 187.974 47.725 188.234 47.725ZM16.095 74.67C16.095 74.2 16.2 73.805 16.41 73.485C16.63 73.165 16.945 72.935 17.355 72.795H15.63C15.66 72.115 15.855 71.525 16.215 71.025C16.575 70.515 17.07 70.125 17.7 69.855C18.33 69.585 19.055 69.45 19.875 69.45C20.665 69.45 21.36 69.57 21.96 69.81C22.56 70.05 23.02 70.395 23.34 70.845C23.67 71.285 23.835 71.795 23.835 72.375V78H22.395V72.225C22.395 71.525 22.165 70.975 21.705 70.575C21.255 70.175 20.64 69.975 19.86 69.975C19.04 69.975 18.375 70.18 17.865 70.59C17.355 70.99 17.07 71.545 17.01 72.255H18.975V72.735C18.475 72.835 18.11 73.015 17.88 73.275C17.65 73.535 17.535 73.905 17.535 74.385V78H16.095V74.67ZM28.292 78.15C27.592 78.15 27.032 77.915 26.612 77.445C26.192 76.975 25.982 76.355 25.982 75.585C25.982 74.905 26.132 74.305 26.432 73.785C26.742 73.265 27.177 72.865 27.737 72.585C28.297 72.295 28.942 72.15 29.672 72.15C30.392 72.15 31.027 72.34 31.577 72.72C32.127 73.09 32.537 73.615 32.807 74.295V72.24C32.807 71.55 32.562 71.005 32.072 70.605C31.582 70.195 30.922 69.99 30.092 69.99C29.292 69.99 28.622 70.175 28.082 70.545C27.542 70.905 27.217 71.39 27.107 72H25.742C25.882 71.23 26.347 70.615 27.137 70.155C27.927 69.685 28.912 69.45 30.092 69.45C30.932 69.45 31.662 69.57 32.282 69.81C32.912 70.05 33.397 70.39 33.737 70.83C34.077 71.26 34.247 71.77 34.247 72.36V78H32.807V77.85C32.807 76.23 32.537 74.97 31.997 74.07C31.457 73.16 30.702 72.705 29.732 72.705C29.082 72.705 28.537 72.935 28.097 73.395C27.667 73.855 27.432 74.465 27.392 75.225C27.472 75.125 27.612 75.04 27.812 74.97C28.012 74.9 28.212 74.865 28.412 74.865C28.912 74.865 29.322 75.02 29.642 75.33C29.972 75.64 30.137 76.035 30.137 76.515C30.137 76.995 29.962 77.39 29.612 77.7C29.272 78 28.832 78.15 28.292 78.15ZM28.397 77.67C28.747 77.67 29.027 77.565 29.237 77.355C29.457 77.145 29.567 76.865 29.567 76.515C29.567 76.165 29.457 75.885 29.237 75.675C29.027 75.455 28.747 75.345 28.397 75.345C28.047 75.345 27.767 75.455 27.557 75.675C27.347 75.885 27.242 76.165 27.242 76.515C27.242 76.855 27.347 77.135 27.557 77.355C27.777 77.565 28.057 77.67 28.397 77.67ZM41.272 72.165C41.272 71.505 41.077 70.975 40.687 70.575C40.307 70.175 39.782 69.975 39.112 69.975C38.492 69.975 37.977 70.165 37.567 70.545C37.167 70.915 36.932 71.43 36.862 72.09H35.497C35.567 71.29 35.922 70.65 36.562 70.17C37.212 69.69 38.062 69.45 39.112 69.45C40.202 69.45 41.072 69.71 41.722 70.23C42.382 70.75 42.712 71.46 42.712 72.36V78H41.272V72.165ZM52.8138 69.6V78H45.1488V76.05C45.1488 75.67 45.2938 75.33 45.5838 75.03C45.8738 74.73 46.2638 74.51 46.7538 74.37C46.0738 74.2 45.5438 73.9 45.1638 73.47C44.7938 73.04 44.6088 72.515 44.6088 71.895C44.6088 71.165 44.8688 70.575 45.3888 70.125C45.9088 69.675 46.5888 69.45 47.4288 69.45C48.1088 69.45 48.6638 69.62 49.0938 69.96C49.5238 70.3 49.7388 70.745 49.7388 71.295C49.7388 71.795 49.5738 72.2 49.2438 72.51C48.9238 72.82 48.5038 72.975 47.9838 72.975C47.4638 72.975 47.0388 72.825 46.7088 72.525C46.3788 72.215 46.2138 71.815 46.2138 71.325C46.2138 71.015 46.3288 70.745 46.5588 70.515C46.1488 70.815 45.9438 71.275 45.9438 71.895C45.9438 73.275 46.8788 73.965 48.7488 73.965H48.8838V74.58H48.7638C48.0638 74.58 47.5238 74.715 47.1438 74.985C46.7738 75.245 46.5888 75.625 46.5888 76.125V77.37H51.3738V69.6H52.8138ZM47.9688 70.155C47.6288 70.155 47.3488 70.265 47.1288 70.485C46.9088 70.705 46.7988 70.985 46.7988 71.325C46.7988 71.665 46.9088 71.945 47.1288 72.165C47.3488 72.385 47.6288 72.495 47.9688 72.495C48.3188 72.495 48.6038 72.385 48.8238 72.165C49.0438 71.945 49.1538 71.665 49.1538 71.325C49.1538 70.985 49.0438 70.705 48.8238 70.485C48.6038 70.265 48.3188 70.155 47.9688 70.155ZM57.5816 78.15C56.9216 78.15 56.3966 77.97 56.0066 77.61C55.6166 77.25 55.4216 76.725 55.4216 76.035V69.6H56.8616V75.195C56.9616 75.095 57.0966 75.015 57.2666 74.955C57.4366 74.895 57.6216 74.865 57.8216 74.865C58.3216 74.865 58.7216 75.015 59.0216 75.315C59.3316 75.615 59.4866 76.01 59.4866 76.5C59.4866 77 59.3116 77.4 58.9616 77.7C58.6116 78 58.1516 78.15 57.5816 78.15ZM57.7616 77.67C58.1016 77.67 58.3816 77.565 58.6016 77.355C58.8216 77.135 58.9316 76.855 58.9316 76.515C58.9316 76.165 58.8216 75.885 58.6016 75.675C58.3916 75.455 58.1116 75.345 57.7616 75.345C57.4216 75.345 57.1416 75.455 56.9216 75.675C56.7116 75.895 56.6066 76.175 56.6066 76.515C56.6066 76.855 56.7116 77.135 56.9216 77.355C57.1416 77.565 57.4216 77.67 57.7616 77.67ZM62.7457 72.405C62.6557 72.495 62.5207 72.575 62.3407 72.645C62.1707 72.705 61.9907 72.735 61.8007 72.735C61.3007 72.735 60.8957 72.585 60.5857 72.285C60.2757 71.985 60.1207 71.59 60.1207 71.1C60.1207 70.61 60.2957 70.215 60.6457 69.915C60.9957 69.605 61.4557 69.45 62.0257 69.45C62.7057 69.45 63.2357 69.635 63.6157 70.005C63.9957 70.375 64.1857 70.895 64.1857 71.565V77.43H68.5057V66.75H69.9457V78H62.7457V72.405ZM61.8457 72.255C62.1957 72.255 62.4757 72.145 62.6857 71.925C62.9057 71.705 63.0157 71.425 63.0157 71.085C63.0157 70.745 62.9057 70.47 62.6857 70.26C62.4657 70.04 62.1857 69.93 61.8457 69.93C61.5057 69.93 61.2257 70.04 61.0057 70.26C60.7857 70.47 60.6757 70.745 60.6757 71.085C60.6757 71.425 60.7857 71.705 61.0057 71.925C61.2257 72.145 61.5057 72.255 61.8457 72.255ZM66.7103 65.505C67.0603 65.505 67.3453 65.615 67.5653 65.835C67.7853 66.055 67.8953 66.34 67.8953 66.69C67.8953 67.16 67.7353 67.545 67.4153 67.845C67.0853 68.135 66.6403 68.28 66.0803 68.28C65.3103 68.28 64.7703 68.02 64.4603 67.5C64.3203 67.75 64.1303 67.945 63.8903 68.085C63.6403 68.215 63.3553 68.28 63.0353 68.28C62.4953 68.28 62.0803 68.13 61.7903 67.83C61.4903 67.52 61.3403 67.13 61.3403 66.66C61.3403 66.11 61.4903 65.7 61.7903 65.43C62.0803 65.16 62.4503 64.99 62.9003 64.92C63.3403 64.84 63.8903 64.8 64.5503 64.8C65.3203 64.8 65.9003 64.735 66.2903 64.605C66.6803 64.465 66.8753 64.17 66.8753 63.72H68.0753C68.0653 64.16 67.9253 64.49 67.6553 64.71C67.3753 64.93 67.0403 65.075 66.6503 65.145C66.2503 65.205 65.7453 65.24 65.1353 65.25C64.5453 65.26 64.0753 65.295 63.7253 65.355C63.3653 65.415 63.0753 65.545 62.8553 65.745C62.6253 65.935 62.5103 66.23 62.5103 66.63C62.5103 66.94 62.5903 67.19 62.7503 67.38C62.9103 67.56 63.1253 67.65 63.3953 67.65C63.5953 67.65 63.7703 67.59 63.9203 67.47C64.0603 67.34 64.1453 67.17 64.1753 66.96H64.7753C64.8253 67.21 64.9603 67.415 65.1803 67.575C65.4003 67.725 65.6853 67.8 66.0353 67.8C66.4753 67.8 66.8103 67.7 67.0403 67.5C66.9303 67.53 66.8153 67.545 66.6953 67.545C66.3753 67.545 66.1203 67.45 65.9303 67.26C65.7303 67.07 65.6303 66.82 65.6303 66.51C65.6303 66.22 65.7303 65.98 65.9303 65.79C66.1303 65.6 66.3903 65.505 66.7103 65.505ZM66.0353 66.51C66.0353 66.7 66.0953 66.86 66.2153 66.99C66.3353 67.11 66.4953 67.17 66.6953 67.17C66.8853 67.17 67.0403 67.11 67.1603 66.99C67.2803 66.86 67.3403 66.7 67.3403 66.51C67.3403 66.32 67.2803 66.165 67.1603 66.045C67.0403 65.925 66.8853 65.865 66.6953 65.865C66.5053 65.865 66.3503 65.925 66.2303 66.045C66.1003 66.165 66.0353 66.32 66.0353 66.51ZM80.2403 74.925C80.5803 75.035 80.8503 75.23 81.0503 75.51C81.2603 75.79 81.3653 76.12 81.3653 76.5C81.3653 76.99 81.2003 77.39 80.8703 77.7C80.5503 78 80.1353 78.15 79.6253 78.15C79.1253 78.15 78.7103 78 78.3803 77.7C78.0603 77.39 77.9003 76.99 77.9003 76.5C77.9003 76.22 77.9503 75.98 78.0503 75.78C77.4803 76.08 76.9553 76.42 76.4753 76.8C76.0053 77.18 75.6103 77.58 75.2903 78H73.8053V72.42C73.7153 72.52 73.5853 72.6 73.4153 72.66C73.2453 72.71 73.0603 72.735 72.8603 72.735C72.3703 72.735 71.9653 72.585 71.6453 72.285C71.3353 71.975 71.1803 71.58 71.1803 71.1C71.1803 70.61 71.3503 70.215 71.6903 69.915C72.0403 69.605 72.5003 69.45 73.0703 69.45C73.7503 69.45 74.2803 69.64 74.6603 70.02C75.0503 70.39 75.2453 70.905 75.2453 71.565V76.86C75.7153 76.37 76.3603 75.9 77.1803 75.45C78.0003 74.99 78.8003 74.66 79.5803 74.46V69.6H81.0203V74.775C80.8303 74.795 80.5703 74.845 80.2403 74.925ZM72.9053 72.255C73.2553 72.255 73.5353 72.145 73.7453 71.925C73.9653 71.705 74.0753 71.425 74.0753 71.085C74.0753 70.745 73.9653 70.47 73.7453 70.26C73.5253 70.04 73.2453 69.93 72.9053 69.93C72.5653 69.93 72.2853 70.04 72.0653 70.26C71.8453 70.47 71.7353 70.745 71.7353 71.085C71.7353 71.425 71.8453 71.705 72.0653 71.925C72.2853 72.145 72.5653 72.255 72.9053 72.255ZM79.6253 77.655C79.9753 77.655 80.2603 77.545 80.4803 77.325C80.7003 77.105 80.8103 76.825 80.8103 76.485C80.8103 76.145 80.7003 75.87 80.4803 75.66C80.2603 75.44 79.9753 75.33 79.6253 75.33C79.2853 75.33 79.0053 75.44 78.7853 75.66C78.5653 75.87 78.4553 76.145 78.4553 76.485C78.4553 76.825 78.5653 77.105 78.7853 77.325C79.0053 77.545 79.2853 77.655 79.6253 77.655ZM85.7945 78.15C85.1345 78.15 84.6095 77.97 84.2195 77.61C83.8295 77.25 83.6345 76.725 83.6345 76.035V69.6H85.0745V75.195C85.1745 75.095 85.3095 75.015 85.4795 74.955C85.6495 74.895 85.8345 74.865 86.0345 74.865C86.5345 74.865 86.9345 75.015 87.2345 75.315C87.5445 75.615 87.6995 76.01 87.6995 76.5C87.6995 77 87.5245 77.4 87.1745 77.7C86.8245 78 86.3645 78.15 85.7945 78.15ZM90.7145 78.15C90.0445 78.15 89.5145 77.97 89.1245 77.61C88.7345 77.25 88.5395 76.725 88.5395 76.035V69.6H89.9945V75.195C90.0845 75.105 90.2145 75.03 90.3845 74.97C90.5545 74.9 90.7395 74.865 90.9395 74.865C91.4395 74.865 91.8395 75.015 92.1395 75.315C92.4495 75.615 92.6045 76.01 92.6045 76.5C92.6045 77 92.4295 77.4 92.0795 77.7C91.7395 78 91.2845 78.15 90.7145 78.15ZM85.9745 77.67C86.3145 77.67 86.5945 77.565 86.8145 77.355C87.0345 77.135 87.1445 76.855 87.1445 76.515C87.1445 76.165 87.0345 75.885 86.8145 75.675C86.6045 75.455 86.3245 75.345 85.9745 75.345C85.6345 75.345 85.3545 75.455 85.1345 75.675C84.9245 75.895 84.8195 76.175 84.8195 76.515C84.8195 76.855 84.9245 77.135 85.1345 77.355C85.3545 77.565 85.6345 77.67 85.9745 77.67ZM90.8945 77.67C91.2345 77.67 91.5145 77.565 91.7345 77.355C91.9545 77.135 92.0645 76.855 92.0645 76.515C92.0645 76.165 91.9545 75.885 91.7345 75.675C91.5245 75.455 91.2445 75.345 90.8945 75.345C90.5545 75.345 90.2745 75.455 90.0545 75.675C89.8345 75.895 89.7245 76.175 89.7245 76.515C89.7245 76.855 89.8345 77.135 90.0545 77.355C90.2745 77.565 90.5545 77.67 90.8945 77.67ZM94.2155 74.775C94.2155 74.105 94.4055 73.585 94.7855 73.215C95.1655 72.845 95.6955 72.66 96.3755 72.66C96.9455 72.66 97.4055 72.815 97.7555 73.125C98.1155 73.435 98.2955 73.835 98.2955 74.325C98.2955 74.805 98.1405 75.195 97.8305 75.495C97.5205 75.795 97.1155 75.945 96.6155 75.945C96.4155 75.945 96.2255 75.915 96.0455 75.855C95.8655 75.785 95.7305 75.7 95.6405 75.6V77.385H100.8V72.555C100.8 71.765 100.53 71.14 99.9905 70.68C99.4605 70.21 98.7505 69.975 97.8605 69.975C97.0005 69.975 96.3005 70.19 95.7605 70.62C95.2205 71.05 94.9255 71.625 94.8755 72.345H93.5255C93.5655 71.765 93.7655 71.255 94.1255 70.815C94.4955 70.375 94.9955 70.04 95.6255 69.81C96.2655 69.57 97.0005 69.45 97.8305 69.45C98.7205 69.45 99.4955 69.585 100.155 69.855C100.825 70.125 101.34 70.51 101.7 71.01C102.06 71.5 102.24 72.075 102.24 72.735V78H94.2155V74.775ZM96.5555 75.465C96.8955 75.465 97.1755 75.36 97.3955 75.15C97.6155 74.93 97.7255 74.65 97.7255 74.31C97.7255 73.96 97.6155 73.68 97.3955 73.47C97.1855 73.25 96.9055 73.14 96.5555 73.14C96.2155 73.14 95.9355 73.25 95.7155 73.47C95.5055 73.69 95.4005 73.97 95.4005 74.31C95.4005 74.65 95.5055 74.93 95.7155 75.15C95.9355 75.36 96.2155 75.465 96.5555 75.465ZM106.69 78.15C105.99 78.15 105.43 77.915 105.01 77.445C104.59 76.975 104.38 76.355 104.38 75.585C104.38 74.905 104.53 74.305 104.83 73.785C105.14 73.265 105.575 72.865 106.135 72.585C106.695 72.295 107.34 72.15 108.07 72.15C108.79 72.15 109.425 72.34 109.975 72.72C110.525 73.09 110.935 73.615 111.205 74.295V72.24C111.205 71.55 110.96 71.005 110.47 70.605C109.98 70.195 109.32 69.99 108.49 69.99C107.69 69.99 107.02 70.175 106.48 70.545C105.94 70.905 105.615 71.39 105.505 72H104.14C104.28 71.23 104.745 70.615 105.535 70.155C106.325 69.685 107.31 69.45 108.49 69.45C109.33 69.45 110.06 69.57 110.68 69.81C111.31 70.05 111.795 70.39 112.135 70.83C112.475 71.26 112.645 71.77 112.645 72.36V78H111.205V77.85C111.205 76.23 110.935 74.97 110.395 74.07C109.855 73.16 109.1 72.705 108.13 72.705C107.48 72.705 106.935 72.935 106.495 73.395C106.065 73.855 105.83 74.465 105.79 75.225C105.87 75.125 106.01 75.04 106.21 74.97C106.41 74.9 106.61 74.865 106.81 74.865C107.31 74.865 107.72 75.02 108.04 75.33C108.37 75.64 108.535 76.035 108.535 76.515C108.535 76.995 108.36 77.39 108.01 77.7C107.67 78 107.23 78.15 106.69 78.15ZM106.795 77.67C107.145 77.67 107.425 77.565 107.635 77.355C107.855 77.145 107.965 76.865 107.965 76.515C107.965 76.165 107.855 75.885 107.635 75.675C107.425 75.455 107.145 75.345 106.795 75.345C106.445 75.345 106.165 75.455 105.955 75.675C105.745 75.885 105.64 76.165 105.64 76.515C105.64 76.855 105.745 77.135 105.955 77.355C106.175 77.565 106.455 77.67 106.795 77.67ZM114.825 74.67C114.825 74.2 114.93 73.805 115.14 73.485C115.36 73.165 115.675 72.935 116.085 72.795H114.36C114.39 72.115 114.585 71.525 114.945 71.025C115.305 70.515 115.8 70.125 116.43 69.855C117.06 69.585 117.785 69.45 118.605 69.45C119.395 69.45 120.09 69.57 120.69 69.81C121.29 70.05 121.75 70.395 122.07 70.845C122.4 71.285 122.565 71.795 122.565 72.375V78H121.125V72.225C121.125 71.525 120.895 70.975 120.435 70.575C119.985 70.175 119.37 69.975 118.59 69.975C117.77 69.975 117.105 70.18 116.595 70.59C116.085 70.99 115.8 71.545 115.74 72.255H117.705V72.735C117.205 72.835 116.84 73.015 116.61 73.275C116.38 73.535 116.265 73.905 116.265 74.385V78H114.825V74.67ZM124.757 74.775C124.757 74.105 124.947 73.585 125.327 73.215C125.707 72.845 126.237 72.66 126.917 72.66C127.487 72.66 127.947 72.815 128.297 73.125C128.657 73.435 128.837 73.835 128.837 74.325C128.837 74.805 128.682 75.195 128.372 75.495C128.062 75.795 127.657 75.945 127.157 75.945C126.957 75.945 126.767 75.915 126.587 75.855C126.407 75.785 126.272 75.7 126.182 75.6V77.385H131.342V72.555C131.342 71.765 131.072 71.14 130.532 70.68C130.002 70.21 129.292 69.975 128.402 69.975C127.542 69.975 126.842 70.19 126.302 70.62C125.762 71.05 125.467 71.625 125.417 72.345H124.067C124.107 71.765 124.307 71.255 124.667 70.815C125.037 70.375 125.537 70.04 126.167 69.81C126.807 69.57 127.542 69.45 128.372 69.45C129.262 69.45 130.037 69.585 130.697 69.855C131.367 70.125 131.882 70.51 132.242 71.01C132.602 71.5 132.782 72.075 132.782 72.735V78H124.757V74.775ZM127.097 75.465C127.437 75.465 127.717 75.36 127.937 75.15C128.157 74.93 128.267 74.65 128.267 74.31C128.267 73.96 128.157 73.68 127.937 73.47C127.727 73.25 127.447 73.14 127.097 73.14C126.757 73.14 126.477 73.25 126.257 73.47C126.047 73.69 125.942 73.97 125.942 74.31C125.942 74.65 126.047 74.93 126.257 75.15C126.477 75.36 126.757 75.465 127.097 75.465ZM143.607 70.215C143.197 70.585 142.827 70.87 142.497 71.07C142.827 71.55 142.992 72.105 142.992 72.735V78H134.967V75.06C134.967 74.39 135.157 73.87 135.537 73.5C135.917 73.13 136.447 72.945 137.127 72.945C137.697 72.945 138.157 73.1 138.507 73.41C138.867 73.71 139.047 74.105 139.047 74.595C139.047 75.085 138.892 75.48 138.582 75.78C138.272 76.08 137.867 76.23 137.367 76.23C137.167 76.23 136.977 76.2 136.797 76.14C136.617 76.07 136.482 75.98 136.392 75.87V77.385H141.552V72.555C141.552 72.215 141.502 71.915 141.402 71.655C140.382 72.095 139.287 72.315 138.117 72.315C137.077 72.315 136.242 72.19 135.612 71.94C134.992 71.69 134.682 71.355 134.682 70.935C134.682 70.645 134.837 70.39 135.147 70.17C135.467 69.94 135.902 69.765 136.452 69.645C137.012 69.515 137.647 69.45 138.357 69.45C139.137 69.45 139.837 69.54 140.457 69.72C141.087 69.9 141.597 70.16 141.987 70.5C142.317 70.27 142.652 69.975 142.992 69.615L143.607 70.215ZM135.912 70.89C135.912 71.14 136.122 71.345 136.542 71.505C136.972 71.665 137.522 71.745 138.192 71.745C139.242 71.745 140.222 71.505 141.132 71.025C140.832 70.685 140.432 70.425 139.932 70.245C139.432 70.065 138.852 69.975 138.192 69.975C137.532 69.975 136.987 70.065 136.557 70.245C136.127 70.415 135.912 70.63 135.912 70.89ZM137.307 73.425C136.967 73.425 136.687 73.535 136.467 73.755C136.257 73.965 136.152 74.24 136.152 74.58C136.152 74.92 136.257 75.2 136.467 75.42C136.687 75.64 136.967 75.75 137.307 75.75C137.657 75.75 137.937 75.64 138.147 75.42C138.367 75.2 138.477 74.92 138.477 74.58C138.477 74.24 138.367 73.965 138.147 73.755C137.927 73.535 137.647 73.425 137.307 73.425ZM145.177 74.775C145.177 74.105 145.367 73.585 145.747 73.215C146.127 72.845 146.657 72.66 147.337 72.66C147.907 72.66 148.367 72.815 148.717 73.125C149.077 73.435 149.257 73.835 149.257 74.325C149.257 74.805 149.102 75.195 148.792 75.495C148.482 75.795 148.077 75.945 147.577 75.945C147.377 75.945 147.187 75.915 147.007 75.855C146.827 75.785 146.692 75.7 146.602 75.6V77.385H151.762V72.555C151.762 71.765 151.492 71.14 150.952 70.68C150.422 70.21 149.712 69.975 148.822 69.975C147.962 69.975 147.262 70.19 146.722 70.62C146.182 71.05 145.887 71.625 145.837 72.345H144.487C144.527 71.765 144.727 71.255 145.087 70.815C145.457 70.375 145.957 70.04 146.587 69.81C147.227 69.57 147.962 69.45 148.792 69.45C149.682 69.45 150.457 69.585 151.117 69.855C151.787 70.125 152.302 70.51 152.662 71.01C153.022 71.5 153.202 72.075 153.202 72.735V78H145.177V74.775ZM147.517 75.465C147.857 75.465 148.137 75.36 148.357 75.15C148.577 74.93 148.687 74.65 148.687 74.31C148.687 73.96 148.577 73.68 148.357 73.47C148.147 73.25 147.867 73.14 147.517 73.14C147.177 73.14 146.897 73.25 146.677 73.47C146.467 73.69 146.362 73.97 146.362 74.31C146.362 74.65 146.467 74.93 146.677 75.15C146.897 75.36 147.177 75.465 147.517 75.465ZM157.652 78.15C156.952 78.15 156.392 77.915 155.972 77.445C155.552 76.975 155.342 76.355 155.342 75.585C155.342 74.905 155.492 74.305 155.792 73.785C156.102 73.265 156.537 72.865 157.097 72.585C157.657 72.295 158.302 72.15 159.032 72.15C159.752 72.15 160.387 72.34 160.937 72.72C161.487 73.09 161.897 73.615 162.167 74.295V72.24C162.167 71.55 161.922 71.005 161.432 70.605C160.942 70.195 160.282 69.99 159.452 69.99C158.652 69.99 157.982 70.175 157.442 70.545C156.902 70.905 156.577 71.39 156.467 72H155.102C155.242 71.23 155.707 70.615 156.497 70.155C157.287 69.685 158.272 69.45 159.452 69.45C160.292 69.45 161.022 69.57 161.642 69.81C162.272 70.05 162.757 70.39 163.097 70.83C163.437 71.26 163.607 71.77 163.607 72.36V78H162.167V77.85C162.167 76.23 161.897 74.97 161.357 74.07C160.817 73.16 160.062 72.705 159.092 72.705C158.442 72.705 157.897 72.935 157.457 73.395C157.027 73.855 156.792 74.465 156.752 75.225C156.832 75.125 156.972 75.04 157.172 74.97C157.372 74.9 157.572 74.865 157.772 74.865C158.272 74.865 158.682 75.02 159.002 75.33C159.332 75.64 159.497 76.035 159.497 76.515C159.497 76.995 159.322 77.39 158.972 77.7C158.632 78 158.192 78.15 157.652 78.15ZM157.757 77.67C158.107 77.67 158.387 77.565 158.597 77.355C158.817 77.145 158.927 76.865 158.927 76.515C158.927 76.165 158.817 75.885 158.597 75.675C158.387 75.455 158.107 75.345 157.757 75.345C157.407 75.345 157.127 75.455 156.917 75.675C156.707 75.885 156.602 76.165 156.602 76.515C156.602 76.855 156.707 77.135 156.917 77.355C157.137 77.565 157.417 77.67 157.757 77.67ZM161.426 68.22C160.966 68.22 160.596 68.095 160.316 67.845C160.036 67.585 159.896 67.245 159.896 66.825C159.896 66.445 159.981 66.135 160.151 65.895C160.311 65.655 160.511 65.47 160.751 65.34C160.981 65.21 161.281 65.08 161.651 64.95C162.121 64.77 162.466 64.595 162.686 64.425C162.896 64.255 163.001 64 163.001 63.66H164.396C164.396 64.1 164.201 64.445 163.811 64.695C163.411 64.945 162.906 65.16 162.296 65.34C162.186 65.37 162.016 65.43 161.786 65.52C162.106 65.56 162.366 65.7 162.566 65.94C162.766 66.18 162.866 66.475 162.866 66.825C162.866 67.235 162.736 67.57 162.476 67.83C162.206 68.09 161.856 68.22 161.426 68.22ZM161.456 67.725C161.716 67.725 161.931 67.64 162.101 67.47C162.261 67.3 162.341 67.085 162.341 66.825C162.341 66.565 162.261 66.355 162.101 66.195C161.931 66.025 161.716 65.94 161.456 65.94C161.196 65.94 160.986 66.025 160.826 66.195C160.656 66.355 160.571 66.565 160.571 66.825C160.571 67.085 160.656 67.3 160.826 67.47C160.986 67.64 161.196 67.725 161.456 67.725ZM168.382 78.15C167.722 78.15 167.197 77.97 166.807 77.61C166.417 77.25 166.222 76.725 166.222 76.035V69.6H167.662V75.195C167.762 75.095 167.897 75.015 168.067 74.955C168.237 74.895 168.422 74.865 168.622 74.865C169.122 74.865 169.522 75.015 169.822 75.315C170.132 75.615 170.287 76.01 170.287 76.5C170.287 77 170.112 77.4 169.762 77.7C169.412 78 168.952 78.15 168.382 78.15ZM173.302 78.15C172.632 78.15 172.102 77.97 171.712 77.61C171.322 77.25 171.127 76.725 171.127 76.035V69.6H172.582V75.195C172.672 75.105 172.802 75.03 172.972 74.97C173.142 74.9 173.327 74.865 173.527 74.865C174.027 74.865 174.427 75.015 174.727 75.315C175.037 75.615 175.192 76.01 175.192 76.5C175.192 77 175.017 77.4 174.667 77.7C174.327 78 173.872 78.15 173.302 78.15ZM168.562 77.67C168.902 77.67 169.182 77.565 169.402 77.355C169.622 77.135 169.732 76.855 169.732 76.515C169.732 76.165 169.622 75.885 169.402 75.675C169.192 75.455 168.912 75.345 168.562 75.345C168.222 75.345 167.942 75.455 167.722 75.675C167.512 75.895 167.407 76.175 167.407 76.515C167.407 76.855 167.512 77.135 167.722 77.355C167.942 77.565 168.222 77.67 168.562 77.67ZM173.482 77.67C173.822 77.67 174.102 77.565 174.322 77.355C174.542 77.135 174.652 76.855 174.652 76.515C174.652 76.165 174.542 75.885 174.322 75.675C174.112 75.455 173.832 75.345 173.482 75.345C173.142 75.345 172.862 75.455 172.642 75.675C172.422 75.895 172.312 76.175 172.312 76.515C172.312 76.855 172.422 77.135 172.642 77.355C172.862 77.565 173.142 77.67 173.482 77.67ZM179.068 78.15C178.368 78.15 177.808 77.915 177.388 77.445C176.968 76.975 176.758 76.355 176.758 75.585C176.758 74.905 176.908 74.305 177.208 73.785C177.518 73.265 177.953 72.865 178.513 72.585C179.073 72.295 179.718 72.15 180.448 72.15C181.168 72.15 181.803 72.34 182.353 72.72C182.903 73.09 183.313 73.615 183.583 74.295V72.24C183.583 71.55 183.338 71.005 182.848 70.605C182.358 70.195 181.698 69.99 180.868 69.99C180.068 69.99 179.398 70.175 178.858 70.545C178.318 70.905 177.993 71.39 177.883 72H176.518C176.658 71.23 177.123 70.615 177.913 70.155C178.703 69.685 179.688 69.45 180.868 69.45C181.708 69.45 182.438 69.57 183.058 69.81C183.688 70.05 184.173 70.39 184.513 70.83C184.853 71.26 185.023 71.77 185.023 72.36V78H183.583V77.85C183.583 76.23 183.313 74.97 182.773 74.07C182.233 73.16 181.478 72.705 180.508 72.705C179.858 72.705 179.313 72.935 178.873 73.395C178.443 73.855 178.208 74.465 178.168 75.225C178.248 75.125 178.388 75.04 178.588 74.97C178.788 74.9 178.988 74.865 179.188 74.865C179.688 74.865 180.098 75.02 180.418 75.33C180.748 75.64 180.913 76.035 180.913 76.515C180.913 76.995 180.738 77.39 180.388 77.7C180.048 78 179.608 78.15 179.068 78.15ZM179.173 77.67C179.523 77.67 179.803 77.565 180.013 77.355C180.233 77.145 180.343 76.865 180.343 76.515C180.343 76.165 180.233 75.885 180.013 75.675C179.803 75.455 179.523 75.345 179.173 75.345C178.823 75.345 178.543 75.455 178.333 75.675C178.123 75.885 178.018 76.165 178.018 76.515C178.018 76.855 178.123 77.135 178.333 77.355C178.553 77.565 178.833 77.67 179.173 77.67ZM189.828 73.5C189.018 73.5 188.328 73.325 187.758 72.975C187.198 72.625 186.918 72.115 186.918 71.445C186.918 70.995 187.063 70.625 187.353 70.335C187.643 70.045 188.018 69.9 188.478 69.9C188.918 69.9 189.278 70.04 189.558 70.32C189.838 70.6 189.978 70.955 189.978 71.385C189.978 71.725 189.873 72.03 189.663 72.3C189.453 72.56 189.178 72.725 188.838 72.795C189.108 72.875 189.433 72.915 189.813 72.915C190.603 72.915 191.228 72.645 191.688 72.105C192.148 71.565 192.378 70.795 192.378 69.795H193.578V70.095C193.578 70.765 193.428 71.355 193.128 71.865C192.828 72.375 192.393 72.775 191.823 73.065C191.263 73.355 190.598 73.5 189.828 73.5ZM188.448 72.33C188.738 72.33 188.978 72.24 189.168 72.06C189.358 71.87 189.453 71.635 189.453 71.355C189.453 71.075 189.358 70.845 189.168 70.665C188.978 70.475 188.738 70.38 188.448 70.38C188.158 70.38 187.918 70.475 187.728 70.665C187.548 70.845 187.458 71.075 187.458 71.355C187.458 71.635 187.548 71.87 187.728 72.06C187.918 72.24 188.158 72.33 188.448 72.33ZM189.828 77.82C189.018 77.82 188.328 77.645 187.758 77.295C187.198 76.945 186.918 76.435 186.918 75.765C186.918 75.315 187.063 74.945 187.353 74.655C187.643 74.365 188.018 74.22 188.478 74.22C188.918 74.22 189.278 74.36 189.558 74.64C189.838 74.92 189.978 75.275 189.978 75.705C189.978 76.045 189.873 76.35 189.663 76.62C189.453 76.88 189.178 77.045 188.838 77.115C189.108 77.195 189.433 77.235 189.813 77.235C190.583 77.235 191.203 76.965 191.673 76.425C192.143 75.875 192.378 75.105 192.378 74.115H193.578V74.415C193.578 75.075 193.423 75.665 193.113 76.185C192.803 76.695 192.363 77.095 191.793 77.385C191.233 77.675 190.578 77.82 189.828 77.82ZM188.448 76.65C188.738 76.65 188.978 76.56 189.168 76.38C189.358 76.19 189.453 75.955 189.453 75.675C189.453 75.395 189.358 75.165 189.168 74.985C188.978 74.795 188.738 74.7 188.448 74.7C188.158 74.7 187.918 74.795 187.728 74.985C187.548 75.165 187.458 75.395 187.458 75.675C187.458 75.955 187.548 76.19 187.728 76.38C187.918 76.56 188.158 76.65 188.448 76.65ZM16.095 94.67C16.095 94.2 16.2 93.805 16.41 93.485C16.63 93.165 16.945 92.935 17.355 92.795H15.63C15.66 92.115 15.855 91.525 16.215 91.025C16.575 90.515 17.07 90.125 17.7 89.855C18.33 89.585 19.055 89.45 19.875 89.45C20.665 89.45 21.36 89.57 21.96 89.81C22.56 90.05 23.02 90.395 23.34 90.845C23.67 91.285 23.835 91.795 23.835 92.375V98H22.395V92.225C22.395 91.525 22.165 90.975 21.705 90.575C21.255 90.175 20.64 89.975 19.86 89.975C19.04 89.975 18.375 90.18 17.865 90.59C17.355 90.99 17.07 91.545 17.01 92.255H18.975V92.735C18.475 92.835 18.11 93.015 17.88 93.275C17.65 93.535 17.535 93.905 17.535 94.385V98H16.095V94.67ZM18.3205 88.19C17.8305 88.19 17.4505 88.025 17.1805 87.695C16.9005 87.355 16.7605 86.91 16.7605 86.36C16.7605 85.82 16.9205 85.395 17.2405 85.085C17.5505 84.765 17.9655 84.605 18.4855 84.605C18.9555 84.605 19.3205 84.78 19.5805 85.13C19.8905 84.78 20.3055 84.605 20.8255 84.605C21.3055 84.605 21.6855 84.755 21.9655 85.055C22.2355 85.345 22.3705 85.75 22.3705 86.27C22.3705 86.52 22.3355 86.775 22.2655 87.035C22.1955 87.295 22.1055 87.51 21.9955 87.68C22.4055 87.58 22.6755 87.335 22.8055 86.945C22.9355 86.545 23.0005 86.045 23.0005 85.445C23.0005 85.215 23.0255 85.05 23.0755 84.95C23.1155 84.84 23.1855 84.745 23.2855 84.665H24.3955C24.2555 84.765 24.1605 84.92 24.1105 85.13C24.0505 85.33 24.0205 85.575 24.0205 85.865C24.0105 86.665 23.7755 87.235 23.3155 87.575C22.8455 87.905 22.1155 88.07 21.1255 88.07L20.9155 87.905C21.0655 87.685 21.1905 87.43 21.2905 87.14C21.3805 86.84 21.4255 86.56 21.4255 86.3C21.4255 85.95 21.3505 85.675 21.2005 85.475C21.0405 85.275 20.8255 85.175 20.5555 85.175C20.3855 85.175 20.2255 85.225 20.0755 85.325C19.9155 85.425 19.8055 85.565 19.7455 85.745H19.4305C19.3605 85.565 19.2455 85.425 19.0855 85.325C18.9155 85.225 18.7255 85.175 18.5155 85.175C18.1955 85.175 17.9355 85.275 17.7355 85.475C17.5255 85.675 17.4205 85.93 17.4205 86.24C17.5105 86.11 17.6455 86 17.8255 85.91C18.0055 85.82 18.1905 85.775 18.3805 85.775C18.7405 85.775 19.0355 85.89 19.2655 86.12C19.4855 86.34 19.5955 86.63 19.5955 86.99C19.5955 87.34 19.4805 87.63 19.2505 87.86C19.0105 88.08 18.7005 88.19 18.3205 88.19ZM18.3505 87.725C18.5705 87.725 18.7505 87.66 18.8905 87.53C19.0205 87.39 19.0855 87.21 19.0855 86.99C19.0855 86.77 19.0205 86.59 18.8905 86.45C18.7505 86.31 18.5705 86.24 18.3505 86.24C18.1305 86.24 17.9505 86.31 17.8105 86.45C17.6705 86.59 17.6005 86.77 17.6005 86.99C17.6005 87.21 17.6705 87.39 17.8105 87.53C17.9505 87.66 18.1305 87.725 18.3505 87.725ZM30.857 92.165C30.857 91.505 30.662 90.975 30.272 90.575C29.892 90.175 29.367 89.975 28.697 89.975C28.077 89.975 27.562 90.165 27.152 90.545C26.752 90.915 26.517 91.43 26.447 92.09H25.082C25.152 91.29 25.507 90.65 26.147 90.17C26.797 89.69 27.647 89.45 28.697 89.45C29.787 89.45 30.657 89.71 31.307 90.23C31.967 90.75 32.297 91.46 32.297 92.36V98H30.857V92.165ZM35.7838 94.88C36.7638 94.59 37.5038 94.175 38.0038 93.635C38.5138 93.085 38.7688 92.435 38.7688 91.685C38.7688 91.175 38.6788 90.77 38.4988 90.47C38.3288 90.17 38.0988 90.02 37.8088 90.02C37.6488 90.02 37.4988 90.08 37.3588 90.2C37.2188 90.31 37.1188 90.46 37.0588 90.65H36.6988C36.6288 90.46 36.5088 90.31 36.3388 90.2C36.1788 90.08 35.9988 90.02 35.7988 90.02C35.5188 90.02 35.2588 90.14 35.0188 90.38C34.7788 90.61 34.6188 90.9 34.5388 91.25C34.6388 91.16 34.7838 91.085 34.9738 91.025C35.1638 90.965 35.3538 90.935 35.5438 90.935C36.0238 90.935 36.4138 91.085 36.7138 91.385C37.0238 91.685 37.1788 92.08 37.1788 92.57C37.1788 93.06 37.0188 93.46 36.6988 93.77C36.3888 94.07 35.9838 94.22 35.4838 94.22C34.8938 94.22 34.4238 94.025 34.0738 93.635C33.7238 93.245 33.5488 92.725 33.5488 92.075C33.5488 91.575 33.6388 91.125 33.8188 90.725C34.0088 90.325 34.2688 90.015 34.5988 89.795C34.9288 89.565 35.2938 89.45 35.6938 89.45C35.9438 89.45 36.1688 89.505 36.3688 89.615C36.5788 89.715 36.7488 89.86 36.8788 90.05C37.0188 89.86 37.1888 89.715 37.3888 89.615C37.5988 89.505 37.8288 89.45 38.0788 89.45C38.6588 89.45 39.1138 89.65 39.4438 90.05C39.7838 90.44 39.9538 90.965 39.9538 91.625C39.9538 92.415 39.7088 93.12 39.2188 93.74C38.7288 94.36 38.0638 94.805 37.2238 95.075V97.37H41.3788V93.2C41.3788 92.9 41.2838 92.64 41.0938 92.42C40.9038 92.2 40.6488 92.045 40.3288 91.955V91.625C40.6888 91.465 40.9588 91.2 41.1388 90.83C41.3288 90.46 41.4238 90 41.4238 89.45H43.1488C43.0588 90.69 42.5188 91.46 41.5288 91.76C41.9388 91.89 42.2538 92.08 42.4738 92.33C42.7038 92.57 42.8188 92.85 42.8188 93.17V98H35.7838V94.88ZM35.4988 93.74C35.8488 93.74 36.1288 93.63 36.3388 93.41C36.5588 93.19 36.6688 92.91 36.6688 92.57C36.6688 92.23 36.5588 91.955 36.3388 91.745C36.1188 91.525 35.8388 91.415 35.4988 91.415C35.1588 91.415 34.8788 91.525 34.6588 91.745C34.4388 91.955 34.3288 92.23 34.3288 92.57C34.3288 92.91 34.4388 93.19 34.6588 93.41C34.8788 93.63 35.1588 93.74 35.4988 93.74ZM49.0764 89.45C49.9264 89.45 50.6664 89.57 51.2964 89.81C51.9364 90.05 52.4264 90.39 52.7664 90.83C53.1164 91.27 53.2914 91.78 53.2914 92.36V98H51.8514V92.225C51.8514 91.545 51.5964 91 51.0864 90.59C50.5764 90.18 49.9014 89.975 49.0614 89.975C48.1614 89.975 47.4514 90.225 46.9314 90.725C46.4114 91.225 46.1514 91.905 46.1514 92.765C46.1514 92.985 46.1764 93.435 46.2264 94.115C46.2764 94.725 46.3114 95.31 46.3314 95.87L47.2764 93.23C47.4364 92.78 47.6714 92.435 47.9814 92.195C48.2914 91.955 48.6614 91.835 49.0914 91.835C49.6014 91.835 50.0114 91.99 50.3214 92.3C50.6414 92.6 50.8014 92.995 50.8014 93.485C50.8014 93.975 50.6464 94.37 50.3364 94.67C50.0264 94.97 49.6214 95.12 49.1214 95.12C48.8114 95.12 48.5214 95.05 48.2514 94.91C47.9814 94.76 47.7814 94.57 47.6514 94.34L46.3464 98H44.9514V97.205C44.9514 96.295 44.9064 95.385 44.8164 94.475C44.7464 93.775 44.7114 93.24 44.7114 92.87C44.7114 92.18 44.8864 91.58 45.2364 91.07C45.5964 90.55 46.1064 90.15 46.7664 89.87C47.4264 89.59 48.1964 89.45 49.0764 89.45ZM49.1064 92.315C48.7664 92.315 48.4864 92.425 48.2664 92.645C48.0464 92.865 47.9364 93.145 47.9364 93.485C47.9364 93.825 48.0464 94.105 48.2664 94.325C48.4864 94.535 48.7664 94.64 49.1064 94.64C49.4564 94.64 49.7414 94.535 49.9614 94.325C50.1814 94.105 50.2914 93.825 50.2914 93.485C50.2914 93.145 50.1814 92.865 49.9614 92.645C49.7414 92.425 49.4564 92.315 49.1064 92.315ZM60.315 92.165C60.315 91.505 60.12 90.975 59.73 90.575C59.35 90.175 58.825 89.975 58.155 89.975C57.535 89.975 57.02 90.165 56.61 90.545C56.21 90.915 55.975 91.43 55.905 92.09H54.54C54.61 91.29 54.965 90.65 55.605 90.17C56.255 89.69 57.105 89.45 58.155 89.45C59.245 89.45 60.115 89.71 60.765 90.23C61.425 90.75 61.755 91.46 61.755 92.36V98H60.315V92.165ZM68.4518 98.15C67.8918 98.15 67.4418 98 67.1018 97.7C66.7618 97.4 66.5918 97 66.5918 96.5C66.5918 96.01 66.7468 95.615 67.0568 95.315C67.3768 95.015 67.7918 94.865 68.3018 94.865C68.4818 94.865 68.6518 94.895 68.8118 94.955C68.9818 95.015 69.1168 95.09 69.2168 95.18V92.87H63.1268C63.1468 91.78 63.4068 90.94 63.9068 90.35C64.4168 89.75 65.1418 89.45 66.0818 89.45C66.4018 89.45 66.7068 89.49 66.9968 89.57C67.2868 89.64 67.6118 89.765 67.9718 89.945C68.2418 90.085 68.4568 90.18 68.6168 90.23C68.7768 90.28 68.9318 90.305 69.0818 90.305C69.3318 90.305 69.5318 90.23 69.6818 90.08C69.8418 89.92 69.9268 89.71 69.9368 89.45H71.2268C71.2068 89.94 71.0368 90.33 70.7168 90.62C70.3968 90.9 69.9768 91.04 69.4568 91.04C69.1968 91.04 68.9418 91.01 68.6918 90.95C68.4518 90.88 68.1668 90.765 67.8368 90.605C67.4968 90.435 67.2218 90.325 67.0118 90.275C66.8018 90.215 66.5718 90.185 66.3218 90.185C65.2318 90.185 64.6568 90.87 64.5968 92.24H70.6718V96.02C70.6718 96.7 70.4768 97.225 70.0868 97.595C69.6968 97.965 69.1518 98.15 68.4518 98.15ZM68.3168 97.67C68.6568 97.67 68.9368 97.565 69.1568 97.355C69.3768 97.135 69.4868 96.855 69.4868 96.515C69.4868 96.165 69.3768 95.885 69.1568 95.675C68.9468 95.455 68.6668 95.345 68.3168 95.345C67.9768 95.345 67.6968 95.455 67.4768 95.675C67.2568 95.885 67.1468 96.165 67.1468 96.515C67.1468 96.855 67.2568 97.135 67.4768 97.355C67.6968 97.565 67.9768 97.67 68.3168 97.67ZM68.643 88.22C68.183 88.22 67.813 88.095 67.533 87.845C67.253 87.585 67.113 87.245 67.113 86.825C67.113 86.445 67.198 86.135 67.368 85.895C67.528 85.655 67.728 85.47 67.968 85.34C68.198 85.21 68.498 85.08 68.868 84.95C69.338 84.77 69.683 84.595 69.903 84.425C70.113 84.255 70.218 84 70.218 83.66H71.613C71.613 84.1 71.418 84.445 71.028 84.695C70.628 84.945 70.123 85.16 69.513 85.34C69.403 85.37 69.233 85.43 69.003 85.52C69.323 85.56 69.583 85.7 69.783 85.94C69.983 86.18 70.083 86.475 70.083 86.825C70.083 87.235 69.953 87.57 69.693 87.83C69.423 88.09 69.073 88.22 68.643 88.22ZM68.673 87.725C68.933 87.725 69.148 87.64 69.318 87.47C69.478 87.3 69.558 87.085 69.558 86.825C69.558 86.565 69.478 86.355 69.318 86.195C69.148 86.025 68.933 85.94 68.673 85.94C68.413 85.94 68.203 86.025 68.043 86.195C67.873 86.355 67.788 86.565 67.788 86.825C67.788 87.085 67.873 87.3 68.043 87.47C68.203 87.64 68.413 87.725 68.673 87.725ZM74.523 92.405C74.433 92.495 74.298 92.575 74.118 92.645C73.948 92.705 73.768 92.735 73.578 92.735C73.078 92.735 72.673 92.585 72.363 92.285C72.053 91.985 71.898 91.59 71.898 91.1C71.898 90.61 72.073 90.215 72.423 89.915C72.773 89.605 73.233 89.45 73.803 89.45C74.483 89.45 75.013 89.635 75.393 90.005C75.773 90.375 75.963 90.895 75.963 91.565V97.43H80.223V89.6H81.663V98H74.523V92.405ZM73.623 92.255C73.973 92.255 74.253 92.145 74.463 91.925C74.683 91.705 74.793 91.425 74.793 91.085C74.793 90.745 74.683 90.47 74.463 90.26C74.243 90.04 73.963 89.93 73.623 89.93C73.283 89.93 73.003 90.04 72.783 90.26C72.563 90.47 72.453 90.745 72.453 91.085C72.453 91.425 72.563 91.705 72.783 91.925C73.003 92.145 73.283 92.255 73.623 92.255ZM83.859 94.775C83.859 94.105 84.049 93.585 84.429 93.215C84.809 92.845 85.339 92.66 86.019 92.66C86.589 92.66 87.049 92.815 87.399 93.125C87.759 93.435 87.939 93.835 87.939 94.325C87.939 94.805 87.784 95.195 87.474 95.495C87.164 95.795 86.759 95.945 86.259 95.945C86.059 95.945 85.869 95.915 85.689 95.855C85.509 95.785 85.374 95.7 85.284 95.6V97.385H90.444V92.555C90.444 91.765 90.174 91.14 89.634 90.68C89.104 90.21 88.394 89.975 87.504 89.975C86.644 89.975 85.944 90.19 85.404 90.62C84.864 91.05 84.569 91.625 84.519 92.345H83.169C83.209 91.765 83.409 91.255 83.769 90.815C84.139 90.375 84.639 90.04 85.269 89.81C85.909 89.57 86.644 89.45 87.474 89.45C88.364 89.45 89.139 89.585 89.799 89.855C90.469 90.125 90.984 90.51 91.344 91.01C91.704 91.5 91.884 92.075 91.884 92.735V98H83.859V94.775ZM86.199 95.465C86.539 95.465 86.819 95.36 87.039 95.15C87.259 94.93 87.369 94.65 87.369 94.31C87.369 93.96 87.259 93.68 87.039 93.47C86.829 93.25 86.549 93.14 86.199 93.14C85.859 93.14 85.579 93.25 85.359 93.47C85.149 93.69 85.044 93.97 85.044 94.31C85.044 94.65 85.149 94.93 85.359 95.15C85.579 95.36 85.859 95.465 86.199 95.465ZM102.169 94.925C102.509 95.035 102.779 95.23 102.979 95.51C103.189 95.79 103.294 96.12 103.294 96.5C103.294 96.99 103.129 97.39 102.799 97.7C102.479 98 102.064 98.15 101.554 98.15C101.054 98.15 100.639 98 100.309 97.7C99.989 97.39 99.829 96.99 99.829 96.5C99.829 96.22 99.879 95.98 99.979 95.78C99.409 96.08 98.884 96.42 98.404 96.8C97.934 97.18 97.539 97.58 97.219 98H95.734V92.42C95.644 92.52 95.514 92.6 95.344 92.66C95.174 92.71 94.989 92.735 94.789 92.735C94.299 92.735 93.894 92.585 93.574 92.285C93.264 91.975 93.109 91.58 93.109 91.1C93.109 90.61 93.279 90.215 93.619 89.915C93.969 89.605 94.429 89.45 94.999 89.45C95.679 89.45 96.209 89.64 96.589 90.02C96.979 90.39 97.174 90.905 97.174 91.565V96.86C97.644 96.37 98.289 95.9 99.109 95.45C99.929 94.99 100.729 94.66 101.509 94.46V89.6H102.949V94.775C102.759 94.795 102.499 94.845 102.169 94.925ZM94.834 92.255C95.184 92.255 95.464 92.145 95.674 91.925C95.894 91.705 96.004 91.425 96.004 91.085C96.004 90.745 95.894 90.47 95.674 90.26C95.454 90.04 95.174 89.93 94.834 89.93C94.494 89.93 94.214 90.04 93.994 90.26C93.774 90.47 93.664 90.745 93.664 91.085C93.664 91.425 93.774 91.705 93.994 91.925C94.214 92.145 94.494 92.255 94.834 92.255ZM101.554 97.655C101.904 97.655 102.189 97.545 102.409 97.325C102.629 97.105 102.739 96.825 102.739 96.485C102.739 96.145 102.629 95.87 102.409 95.66C102.189 95.44 101.904 95.33 101.554 95.33C101.214 95.33 100.934 95.44 100.714 95.66C100.494 95.87 100.384 96.145 100.384 96.485C100.384 96.825 100.494 97.105 100.714 97.325C100.934 97.545 101.214 97.655 101.554 97.655ZM108.233 98.15C107.583 98.15 107.058 97.97 106.658 97.61C106.268 97.25 106.073 96.725 106.073 96.035V85.58L104.693 86.825C104.423 86.245 104.043 85.725 103.553 85.265C103.053 84.795 102.528 84.48 101.978 84.32L102.908 83.615C103.328 83.785 103.713 84.045 104.063 84.395C104.423 84.745 104.703 85.14 104.903 85.58L106.193 84.41H107.513V95.195C107.613 95.105 107.748 95.03 107.918 94.97C108.088 94.9 108.273 94.865 108.473 94.865C108.973 94.865 109.373 95.015 109.673 95.315C109.983 95.615 110.138 96.01 110.138 96.5C110.138 97 109.963 97.4 109.613 97.7C109.263 98 108.803 98.15 108.233 98.15ZM108.428 97.7C108.778 97.7 109.063 97.59 109.283 97.37C109.503 97.14 109.613 96.855 109.613 96.515C109.613 96.165 109.503 95.88 109.283 95.66C109.063 95.44 108.778 95.33 108.428 95.33C108.078 95.33 107.793 95.44 107.573 95.66C107.353 95.88 107.243 96.165 107.243 96.515C107.243 96.865 107.353 97.15 107.573 97.37C107.793 97.59 108.078 97.7 108.428 97.7ZM111.676 97.205C111.676 96.175 111.631 95.27 111.541 94.49C111.471 93.89 111.436 93.35 111.436 92.87C111.436 92.18 111.611 91.58 111.961 91.07C112.321 90.55 112.826 90.15 113.476 89.87C114.126 89.59 114.891 89.45 115.771 89.45C116.611 89.45 117.346 89.57 117.976 89.81C118.616 90.05 119.106 90.39 119.446 90.83C119.796 91.27 119.971 91.78 119.971 92.36V98H118.531V92.225C118.531 91.545 118.276 91 117.766 90.59C117.266 90.18 116.596 89.975 115.756 89.975C114.846 89.975 114.136 90.22 113.626 90.71C113.126 91.2 112.876 91.885 112.876 92.765C112.876 93.105 112.901 93.64 112.951 94.37C113.021 95.34 113.056 96.31 113.056 97.28C113.806 96.97 114.471 96.6 115.051 96.17C115.631 95.74 116.071 95.29 116.371 94.82C116.171 94.93 115.956 94.985 115.726 94.985C115.216 94.985 114.796 94.835 114.466 94.535C114.146 94.225 113.986 93.83 113.986 93.35C113.986 92.86 114.146 92.465 114.466 92.165C114.796 91.855 115.211 91.7 115.711 91.7C116.221 91.7 116.641 91.87 116.971 92.21C117.301 92.54 117.466 92.965 117.466 93.485C117.466 94.035 117.271 94.6 116.881 95.18C116.491 95.75 115.951 96.285 115.261 96.785C114.571 97.275 113.791 97.68 112.921 98H111.676V97.205ZM115.711 94.52C116.061 94.52 116.346 94.41 116.566 94.19C116.786 93.97 116.896 93.69 116.896 93.35C116.896 93.01 116.786 92.73 116.566 92.51C116.346 92.29 116.061 92.18 115.711 92.18C115.361 92.18 115.076 92.29 114.856 92.51C114.636 92.73 114.526 93.01 114.526 93.35C114.526 93.69 114.636 93.97 114.856 94.19C115.076 94.41 115.361 94.52 115.711 94.52ZM122.165 94.775C122.165 94.105 122.355 93.585 122.735 93.215C123.115 92.845 123.645 92.66 124.325 92.66C124.895 92.66 125.355 92.815 125.705 93.125C126.065 93.435 126.245 93.835 126.245 94.325C126.245 94.805 126.09 95.195 125.78 95.495C125.47 95.795 125.065 95.945 124.565 95.945C124.365 95.945 124.175 95.915 123.995 95.855C123.815 95.785 123.68 95.7 123.59 95.6V97.385H128.75V92.555C128.75 91.765 128.48 91.14 127.94 90.68C127.41 90.21 126.7 89.975 125.81 89.975C124.95 89.975 124.25 90.19 123.71 90.62C123.17 91.05 122.875 91.625 122.825 92.345H121.475C121.515 91.765 121.715 91.255 122.075 90.815C122.445 90.375 122.945 90.04 123.575 89.81C124.215 89.57 124.95 89.45 125.78 89.45C126.67 89.45 127.445 89.585 128.105 89.855C128.775 90.125 129.29 90.51 129.65 91.01C130.01 91.5 130.19 92.075 130.19 92.735V98H122.165V94.775ZM124.505 95.465C124.845 95.465 125.125 95.36 125.345 95.15C125.565 94.93 125.675 94.65 125.675 94.31C125.675 93.96 125.565 93.68 125.345 93.47C125.135 93.25 124.855 93.14 124.505 93.14C124.165 93.14 123.885 93.25 123.665 93.47C123.455 93.69 123.35 93.97 123.35 94.31C123.35 94.65 123.455 94.93 123.665 95.15C123.885 95.36 124.165 95.465 124.505 95.465ZM128.508 85.505C128.858 85.505 129.143 85.615 129.363 85.835C129.583 86.055 129.693 86.34 129.693 86.69C129.693 87.16 129.533 87.545 129.213 87.845C128.883 88.135 128.443 88.28 127.893 88.28C127.493 88.28 127.148 88.215 126.858 88.085C126.558 87.945 126.338 87.75 126.198 87.5C126.048 87.75 125.848 87.945 125.598 88.085C125.338 88.215 125.038 88.28 124.698 88.28C124.158 88.28 123.738 88.13 123.438 87.83C123.138 87.52 122.988 87.13 122.988 86.66C122.988 86.11 123.138 85.7 123.438 85.43C123.738 85.16 124.113 84.99 124.563 84.92C125.013 84.84 125.573 84.8 126.243 84.8C127.043 84.8 127.643 84.735 128.043 84.605C128.433 84.465 128.628 84.17 128.628 83.72H129.813C129.803 84.16 129.663 84.49 129.393 84.71C129.113 84.93 128.773 85.075 128.373 85.145C127.973 85.205 127.458 85.24 126.828 85.25C126.238 85.26 125.763 85.295 125.403 85.355C125.033 85.415 124.733 85.545 124.503 85.745C124.273 85.935 124.158 86.23 124.158 86.63C124.158 86.94 124.243 87.19 124.413 87.38C124.583 87.56 124.803 87.65 125.073 87.65C125.293 87.65 125.478 87.59 125.628 87.47C125.778 87.34 125.873 87.17 125.913 86.96H126.498C126.548 87.21 126.698 87.415 126.948 87.575C127.188 87.725 127.488 87.8 127.848 87.8C128.288 87.8 128.623 87.7 128.853 87.5C128.733 87.53 128.613 87.545 128.493 87.545C128.183 87.545 127.933 87.45 127.743 87.26C127.543 87.07 127.443 86.82 127.443 86.51C127.443 86.22 127.543 85.98 127.743 85.79C127.943 85.6 128.198 85.505 128.508 85.505ZM127.848 86.51C127.848 86.7 127.908 86.86 128.028 86.99C128.148 87.11 128.303 87.17 128.493 87.17C128.683 87.17 128.843 87.11 128.973 86.99C129.093 86.86 129.153 86.7 129.153 86.51C129.153 86.32 129.093 86.165 128.973 86.045C128.843 85.925 128.683 85.865 128.493 85.865C128.303 85.865 128.148 85.925 128.028 86.045C127.908 86.165 127.848 86.32 127.848 86.51ZM132.375 94.775C132.375 94.105 132.565 93.585 132.945 93.215C133.325 92.845 133.855 92.66 134.535 92.66C135.105 92.66 135.565 92.815 135.915 93.125C136.275 93.435 136.455 93.835 136.455 94.325C136.455 94.805 136.3 95.195 135.99 95.495C135.68 95.795 135.275 95.945 134.775 95.945C134.575 95.945 134.385 95.915 134.205 95.855C134.025 95.785 133.89 95.7 133.8 95.6V97.385H138.96V92.555C138.96 91.765 138.69 91.14 138.15 90.68C137.62 90.21 136.91 89.975 136.02 89.975C135.16 89.975 134.46 90.19 133.92 90.62C133.38 91.05 133.085 91.625 133.035 92.345H131.685C131.725 91.765 131.925 91.255 132.285 90.815C132.655 90.375 133.155 90.04 133.785 89.81C134.425 89.57 135.16 89.45 135.99 89.45C136.88 89.45 137.655 89.585 138.315 89.855C138.985 90.125 139.5 90.51 139.86 91.01C140.22 91.5 140.4 92.075 140.4 92.735V98H132.375V94.775ZM134.715 95.465C135.055 95.465 135.335 95.36 135.555 95.15C135.775 94.93 135.885 94.65 135.885 94.31C135.885 93.96 135.775 93.68 135.555 93.47C135.345 93.25 135.065 93.14 134.715 93.14C134.375 93.14 134.095 93.25 133.875 93.47C133.665 93.69 133.56 93.97 133.56 94.31C133.56 94.65 133.665 94.93 133.875 95.15C134.095 95.36 134.375 95.465 134.715 95.465ZM142.57 94.67C142.57 94.2 142.675 93.805 142.885 93.485C143.105 93.165 143.42 92.935 143.83 92.795H142.105C142.135 92.115 142.33 91.525 142.69 91.025C143.05 90.515 143.545 90.125 144.175 89.855C144.805 89.585 145.53 89.45 146.35 89.45C147.14 89.45 147.835 89.57 148.435 89.81C149.035 90.05 149.495 90.395 149.815 90.845C150.145 91.285 150.31 91.795 150.31 92.375V98H148.87V92.225C148.87 91.525 148.64 90.975 148.18 90.575C147.73 90.175 147.115 89.975 146.335 89.975C145.515 89.975 144.85 90.18 144.34 90.59C143.83 90.99 143.545 91.545 143.485 92.255H145.45V92.735C144.95 92.835 144.585 93.015 144.355 93.275C144.125 93.535 144.01 93.905 144.01 94.385V98H142.57V94.67ZM155.592 98.15C154.942 98.15 154.417 97.97 154.017 97.61C153.627 97.25 153.432 96.725 153.432 96.035V85.58L152.052 86.825C151.782 86.245 151.402 85.725 150.912 85.265C150.412 84.795 149.887 84.48 149.337 84.32L150.267 83.615C150.687 83.785 151.072 84.045 151.422 84.395C151.782 84.745 152.062 85.14 152.262 85.58L153.552 84.41H154.872V95.195C154.972 95.105 155.107 95.03 155.277 94.97C155.447 94.9 155.632 94.865 155.832 94.865C156.332 94.865 156.732 95.015 157.032 95.315C157.342 95.615 157.497 96.01 157.497 96.5C157.497 97 157.322 97.4 156.972 97.7C156.622 98 156.162 98.15 155.592 98.15ZM155.787 97.7C156.137 97.7 156.422 97.59 156.642 97.37C156.862 97.14 156.972 96.855 156.972 96.515C156.972 96.165 156.862 95.88 156.642 95.66C156.422 95.44 156.137 95.33 155.787 95.33C155.437 95.33 155.152 95.44 154.932 95.66C154.712 95.88 154.602 96.165 154.602 96.515C154.602 96.865 154.712 97.15 154.932 97.37C155.152 97.59 155.437 97.7 155.787 97.7ZM160.325 94.88C161.305 94.59 162.045 94.175 162.545 93.635C163.055 93.085 163.31 92.435 163.31 91.685C163.31 91.175 163.22 90.77 163.04 90.47C162.87 90.17 162.64 90.02 162.35 90.02C162.19 90.02 162.04 90.08 161.9 90.2C161.76 90.31 161.66 90.46 161.6 90.65H161.24C161.17 90.46 161.05 90.31 160.88 90.2C160.72 90.08 160.54 90.02 160.34 90.02C160.06 90.02 159.8 90.14 159.56 90.38C159.32 90.61 159.16 90.9 159.08 91.25C159.18 91.16 159.325 91.085 159.515 91.025C159.705 90.965 159.895 90.935 160.085 90.935C160.565 90.935 160.955 91.085 161.255 91.385C161.565 91.685 161.72 92.08 161.72 92.57C161.72 93.06 161.56 93.46 161.24 93.77C160.93 94.07 160.525 94.22 160.025 94.22C159.435 94.22 158.965 94.025 158.615 93.635C158.265 93.245 158.09 92.725 158.09 92.075C158.09 91.575 158.18 91.125 158.36 90.725C158.55 90.325 158.81 90.015 159.14 89.795C159.47 89.565 159.835 89.45 160.235 89.45C160.485 89.45 160.71 89.505 160.91 89.615C161.12 89.715 161.29 89.86 161.42 90.05C161.56 89.86 161.73 89.715 161.93 89.615C162.14 89.505 162.37 89.45 162.62 89.45C163.2 89.45 163.655 89.65 163.985 90.05C164.325 90.44 164.495 90.965 164.495 91.625C164.495 92.415 164.25 93.12 163.76 93.74C163.27 94.36 162.605 94.805 161.765 95.075V97.37H165.92V93.2C165.92 92.9 165.825 92.64 165.635 92.42C165.445 92.2 165.19 92.045 164.87 91.955V91.625C165.23 91.465 165.5 91.2 165.68 90.83C165.87 90.46 165.965 90 165.965 89.45H167.69C167.6 90.69 167.06 91.46 166.07 91.76C166.48 91.89 166.795 92.08 167.015 92.33C167.245 92.57 167.36 92.85 167.36 93.17V98H160.325V94.88ZM160.04 93.74C160.39 93.74 160.67 93.63 160.88 93.41C161.1 93.19 161.21 92.91 161.21 92.57C161.21 92.23 161.1 91.955 160.88 91.745C160.66 91.525 160.38 91.415 160.04 91.415C159.7 91.415 159.42 91.525 159.2 91.745C158.98 91.955 158.87 92.23 158.87 92.57C158.87 92.91 158.98 93.19 159.2 93.41C159.42 93.63 159.7 93.74 160.04 93.74ZM169.552 97.205C169.552 96.175 169.507 95.27 169.417 94.49C169.347 93.89 169.312 93.35 169.312 92.87C169.312 92.18 169.487 91.58 169.837 91.07C170.197 90.55 170.702 90.15 171.352 89.87C172.002 89.59 172.767 89.45 173.647 89.45C174.487 89.45 175.222 89.57 175.852 89.81C176.492 90.05 176.982 90.39 177.322 90.83C177.672 91.27 177.847 91.78 177.847 92.36V98H176.407V92.225C176.407 91.545 176.152 91 175.642 90.59C175.142 90.18 174.472 89.975 173.632 89.975C172.722 89.975 172.012 90.22 171.502 90.71C171.002 91.2 170.752 91.885 170.752 92.765C170.752 93.105 170.777 93.64 170.827 94.37C170.897 95.34 170.932 96.31 170.932 97.28C171.682 96.97 172.347 96.6 172.927 96.17C173.507 95.74 173.947 95.29 174.247 94.82C174.047 94.93 173.832 94.985 173.602 94.985C173.092 94.985 172.672 94.835 172.342 94.535C172.022 94.225 171.862 93.83 171.862 93.35C171.862 92.86 172.022 92.465 172.342 92.165C172.672 91.855 173.087 91.7 173.587 91.7C174.097 91.7 174.517 91.87 174.847 92.21C175.177 92.54 175.342 92.965 175.342 93.485C175.342 94.035 175.147 94.6 174.757 95.18C174.367 95.75 173.827 96.285 173.137 96.785C172.447 97.275 171.667 97.68 170.797 98H169.552V97.205ZM173.587 94.52C173.937 94.52 174.222 94.41 174.442 94.19C174.662 93.97 174.772 93.69 174.772 93.35C174.772 93.01 174.662 92.73 174.442 92.51C174.222 92.29 173.937 92.18 173.587 92.18C173.237 92.18 172.952 92.29 172.732 92.51C172.512 92.73 172.402 93.01 172.402 93.35C172.402 93.69 172.512 93.97 172.732 94.19C172.952 94.41 173.237 94.52 173.587 94.52ZM175.679 88.22C175.219 88.22 174.849 88.095 174.569 87.845C174.289 87.585 174.149 87.245 174.149 86.825C174.149 86.445 174.234 86.135 174.404 85.895C174.564 85.655 174.764 85.47 175.004 85.34C175.234 85.21 175.534 85.08 175.904 84.95C176.374 84.77 176.719 84.595 176.939 84.425C177.149 84.255 177.254 84 177.254 83.66H178.649C178.649 84.1 178.454 84.445 178.064 84.695C177.664 84.945 177.159 85.16 176.549 85.34C176.439 85.37 176.269 85.43 176.039 85.52C176.359 85.56 176.619 85.7 176.819 85.94C177.019 86.18 177.119 86.475 177.119 86.825C177.119 87.235 176.989 87.57 176.729 87.83C176.459 88.09 176.109 88.22 175.679 88.22ZM175.709 87.725C175.969 87.725 176.184 87.64 176.354 87.47C176.514 87.3 176.594 87.085 176.594 86.825C176.594 86.565 176.514 86.355 176.354 86.195C176.184 86.025 175.969 85.94 175.709 85.94C175.449 85.94 175.239 86.025 175.079 86.195C174.909 86.355 174.824 86.565 174.824 86.825C174.824 87.085 174.909 87.3 175.079 87.47C175.239 87.64 175.449 87.725 175.709 87.725ZM186.215 100.085C185.295 98.925 184.625 97.815 184.205 96.755C183.795 95.695 183.59 94.565 183.59 93.365C183.59 92.175 183.795 91.065 184.205 90.035C184.615 88.995 185.285 87.9 186.215 86.75H186.935C186.285 87.87 185.82 88.94 185.54 89.96C185.26 90.98 185.12 92.115 185.12 93.365C185.12 94.655 185.265 95.835 185.555 96.905C185.845 97.975 186.305 99.035 186.935 100.085H186.215ZM198.407 86.75V98H196.667L194.312 91.28L191.942 98H190.202V92.405C190.112 92.495 189.977 92.575 189.797 92.645C189.627 92.705 189.447 92.735 189.257 92.735C188.757 92.735 188.352 92.585 188.042 92.285C187.732 91.985 187.577 91.59 187.577 91.1C187.577 90.61 187.752 90.215 188.102 89.915C188.452 89.605 188.912 89.45 189.482 89.45C190.162 89.45 190.687 89.635 191.057 90.005C191.437 90.375 191.627 90.895 191.627 91.565V96.485L194.027 89.855H194.597L196.967 96.32V86.75H198.407ZM189.302 92.255C189.652 92.255 189.932 92.145 190.142 91.925C190.362 91.705 190.472 91.425 190.472 91.085C190.472 90.745 190.362 90.47 190.142 90.26C189.922 90.04 189.642 89.93 189.302 89.93C188.962 89.93 188.682 90.04 188.462 90.26C188.242 90.47 188.132 90.745 188.132 91.085C188.132 91.425 188.242 91.705 188.462 91.925C188.682 92.145 188.962 92.255 189.302 92.255ZM200.592 94.775C200.592 94.105 200.782 93.585 201.162 93.215C201.542 92.845 202.072 92.66 202.752 92.66C203.322 92.66 203.782 92.815 204.132 93.125C204.492 93.435 204.672 93.835 204.672 94.325C204.672 94.805 204.517 95.195 204.207 95.495C203.897 95.795 203.492 95.945 202.992 95.945C202.792 95.945 202.602 95.915 202.422 95.855C202.242 95.785 202.107 95.7 202.017 95.6V97.385H207.177V92.555C207.177 91.765 206.907 91.14 206.367 90.68C205.837 90.21 205.127 89.975 204.237 89.975C203.377 89.975 202.677 90.19 202.137 90.62C201.597 91.05 201.302 91.625 201.252 92.345H199.902C199.942 91.765 200.142 91.255 200.502 90.815C200.872 90.375 201.372 90.04 202.002 89.81C202.642 89.57 203.377 89.45 204.207 89.45C205.097 89.45 205.872 89.585 206.532 89.855C207.202 90.125 207.717 90.51 208.077 91.01C208.437 91.5 208.617 92.075 208.617 92.735V98H200.592V94.775ZM202.932 95.465C203.272 95.465 203.552 95.36 203.772 95.15C203.992 94.93 204.102 94.65 204.102 94.31C204.102 93.96 203.992 93.68 203.772 93.47C203.562 93.25 203.282 93.14 202.932 93.14C202.592 93.14 202.312 93.25 202.092 93.47C201.882 93.69 201.777 93.97 201.777 94.31C201.777 94.65 201.882 94.93 202.092 95.15C202.312 95.36 202.592 95.465 202.932 95.465ZM212.812 98C212.652 97 212.302 96.035 211.762 95.105C211.222 94.175 210.582 93.43 209.842 92.87L210.952 92.075C211.642 92.525 212.252 93.22 212.782 94.16C213.312 95.09 213.697 96.16 213.937 97.37H216.172V92.42C216.072 92.52 215.937 92.6 215.767 92.66C215.597 92.71 215.412 92.735 215.212 92.735C214.712 92.735 214.307 92.585 213.997 92.285C213.687 91.985 213.532 91.59 213.532 91.1C213.532 90.61 213.707 90.215 214.057 89.915C214.407 89.605 214.872 89.45 215.452 89.45C216.132 89.45 216.662 89.635 217.042 90.005C217.422 90.375 217.612 90.895 217.612 91.565V98H212.812ZM215.257 92.255C215.607 92.255 215.887 92.145 216.097 91.925C216.317 91.705 216.427 91.425 216.427 91.085C216.427 90.745 216.317 90.47 216.097 90.26C215.877 90.04 215.597 89.93 215.257 89.93C214.917 89.93 214.637 90.04 214.417 90.26C214.207 90.47 214.102 90.745 214.102 91.085C214.102 91.425 214.207 91.705 214.417 91.925C214.637 92.145 214.917 92.255 215.257 92.255ZM222.377 98.15C221.717 98.15 221.192 97.97 220.802 97.61C220.412 97.25 220.217 96.725 220.217 96.035V89.6H221.657V95.195C221.757 95.095 221.892 95.015 222.062 94.955C222.232 94.895 222.417 94.865 222.617 94.865C223.117 94.865 223.517 95.015 223.817 95.315C224.127 95.615 224.282 96.01 224.282 96.5C224.282 97 224.107 97.4 223.757 97.7C223.407 98 222.947 98.15 222.377 98.15ZM222.557 97.67C222.897 97.67 223.177 97.565 223.397 97.355C223.617 97.135 223.727 96.855 223.727 96.515C223.727 96.165 223.617 95.885 223.397 95.675C223.187 95.455 222.907 95.345 222.557 95.345C222.217 95.345 221.937 95.455 221.717 95.675C221.507 95.895 221.402 96.175 221.402 96.515C221.402 96.855 221.507 97.135 221.717 97.355C221.937 97.565 222.217 97.67 222.557 97.67ZM227.541 92.405C227.451 92.495 227.316 92.575 227.136 92.645C226.966 92.705 226.786 92.735 226.596 92.735C226.096 92.735 225.691 92.585 225.381 92.285C225.071 91.985 224.916 91.59 224.916 91.1C224.916 90.61 225.091 90.215 225.441 89.915C225.791 89.605 226.251 89.45 226.821 89.45C227.501 89.45 228.031 89.635 228.411 90.005C228.791 90.375 228.981 90.895 228.981 91.565V97.43H233.241V89.6H234.681V98H227.541V92.405ZM226.641 92.255C226.991 92.255 227.271 92.145 227.481 91.925C227.701 91.705 227.811 91.425 227.811 91.085C227.811 90.745 227.701 90.47 227.481 90.26C227.261 90.04 226.981 89.93 226.641 89.93C226.301 89.93 226.021 90.04 225.801 90.26C225.581 90.47 225.471 90.745 225.471 91.085C225.471 91.425 225.581 91.705 225.801 91.925C226.021 92.145 226.301 92.255 226.641 92.255ZM234.687 84.785V88.07H226.917C226.957 87.54 227.147 87.07 227.487 86.66C227.817 86.24 228.267 85.915 228.837 85.685C229.407 85.455 230.042 85.34 230.742 85.34C231.712 85.34 232.567 85.565 233.307 86.015V84.785H234.687ZM233.442 87.575C233.372 87.085 233.087 86.685 232.587 86.375C232.087 86.065 231.472 85.91 230.742 85.91C230.002 85.91 229.387 86.065 228.897 86.375C228.407 86.675 228.127 87.075 228.057 87.575H233.442ZM244.782 89.6V98H237.117V96.05C237.117 95.67 237.262 95.33 237.552 95.03C237.842 94.73 238.232 94.51 238.722 94.37C238.042 94.2 237.512 93.9 237.132 93.47C236.762 93.04 236.577 92.515 236.577 91.895C236.577 91.165 236.837 90.575 237.357 90.125C237.877 89.675 238.557 89.45 239.397 89.45C240.077 89.45 240.632 89.62 241.062 89.96C241.492 90.3 241.707 90.745 241.707 91.295C241.707 91.795 241.542 92.2 241.212 92.51C240.892 92.82 240.472 92.975 239.952 92.975C239.432 92.975 239.007 92.825 238.677 92.525C238.347 92.215 238.182 91.815 238.182 91.325C238.182 91.015 238.297 90.745 238.527 90.515C238.117 90.815 237.912 91.275 237.912 91.895C237.912 93.275 238.847 93.965 240.717 93.965H240.852V94.58H240.732C240.032 94.58 239.492 94.715 239.112 94.985C238.742 95.245 238.557 95.625 238.557 96.125V97.37H243.342V89.6H244.782ZM239.937 90.155C239.597 90.155 239.317 90.265 239.097 90.485C238.877 90.705 238.767 90.985 238.767 91.325C238.767 91.665 238.877 91.945 239.097 92.165C239.317 92.385 239.597 92.495 239.937 92.495C240.287 92.495 240.572 92.385 240.792 92.165C241.012 91.945 241.122 91.665 241.122 91.325C241.122 90.985 241.012 90.705 240.792 90.485C240.572 90.265 240.287 90.155 239.937 90.155ZM251.469 98.15C250.909 98.15 250.459 98 250.119 97.7C249.779 97.4 249.609 97 249.609 96.5C249.609 96.01 249.764 95.615 250.074 95.315C250.394 95.015 250.809 94.865 251.319 94.865C251.499 94.865 251.669 94.895 251.829 94.955C251.999 95.015 252.134 95.09 252.234 95.18V92.87H246.144C246.164 91.78 246.424 90.94 246.924 90.35C247.434 89.75 248.159 89.45 249.099 89.45C249.419 89.45 249.724 89.49 250.014 89.57C250.304 89.64 250.629 89.765 250.989 89.945C251.259 90.085 251.474 90.18 251.634 90.23C251.794 90.28 251.949 90.305 252.099 90.305C252.349 90.305 252.549 90.23 252.699 90.08C252.859 89.92 252.944 89.71 252.954 89.45H254.244C254.224 89.94 254.054 90.33 253.734 90.62C253.414 90.9 252.994 91.04 252.474 91.04C252.214 91.04 251.959 91.01 251.709 90.95C251.469 90.88 251.184 90.765 250.854 90.605C250.514 90.435 250.239 90.325 250.029 90.275C249.819 90.215 249.589 90.185 249.339 90.185C248.249 90.185 247.674 90.87 247.614 92.24H253.689V96.02C253.689 96.7 253.494 97.225 253.104 97.595C252.714 97.965 252.169 98.15 251.469 98.15ZM251.334 97.67C251.674 97.67 251.954 97.565 252.174 97.355C252.394 97.135 252.504 96.855 252.504 96.515C252.504 96.165 252.394 95.885 252.174 95.675C251.964 95.455 251.684 95.345 251.334 95.345C250.994 95.345 250.714 95.455 250.494 95.675C250.274 95.885 250.164 96.165 250.164 96.515C250.164 96.855 250.274 97.135 250.494 97.355C250.714 97.565 250.994 97.67 251.334 97.67ZM251.661 88.22C251.201 88.22 250.831 88.095 250.551 87.845C250.271 87.585 250.131 87.245 250.131 86.825C250.131 86.445 250.216 86.135 250.386 85.895C250.546 85.655 250.746 85.47 250.986 85.34C251.216 85.21 251.516 85.08 251.886 84.95C252.356 84.77 252.701 84.595 252.921 84.425C253.131 84.255 253.236 84 253.236 83.66H254.631C254.631 84.1 254.436 84.445 254.046 84.695C253.646 84.945 253.141 85.16 252.531 85.34C252.421 85.37 252.251 85.43 252.021 85.52C252.341 85.56 252.601 85.7 252.801 85.94C253.001 86.18 253.101 86.475 253.101 86.825C253.101 87.235 252.971 87.57 252.711 87.83C252.441 88.09 252.091 88.22 251.661 88.22ZM251.691 87.725C251.951 87.725 252.166 87.64 252.336 87.47C252.496 87.3 252.576 87.085 252.576 86.825C252.576 86.565 252.496 86.355 252.336 86.195C252.166 86.025 251.951 85.94 251.691 85.94C251.431 85.94 251.221 86.025 251.061 86.195C250.891 86.355 250.806 86.565 250.806 86.825C250.806 87.085 250.891 87.3 251.061 87.47C251.221 87.64 251.431 87.725 251.691 87.725ZM255.261 100.085C255.891 99.035 256.351 97.975 256.641 96.905C256.931 95.835 257.076 94.655 257.076 93.365C257.076 92.115 256.936 90.98 256.656 89.96C256.376 88.94 255.911 87.87 255.261 86.75H255.981C256.911 87.9 257.581 88.995 257.991 90.035C258.401 91.065 258.606 92.175 258.606 93.365C258.606 94.565 258.396 95.695 257.976 96.755C257.566 97.815 256.901 98.925 255.981 100.085H255.261Z" fill="black"/>
</svg>
