<svg width="139" height="42" viewBox="0 0 139 42" fill="none" xmlns="http://www.w3.org/2000/svg">
<rect x="0.375" y="0.375" width="138.25" height="41.25" fill="white" stroke="black" stroke-width="0.75"/>
<path d="M20.6 28.2C19.7333 28.2 19.0333 27.96 18.5 27.48C17.98 27 17.72 26.3 17.72 25.38V11.44L15.88 13.1C15.52 12.3267 15.0133 11.6333 14.36 11.02C13.6933 10.3933 12.9933 9.97333 12.26 9.76L13.5 8.82C14.06 9.04667 14.5733 9.39333 15.04 9.86C15.52 10.3267 15.8933 10.8533 16.16 11.44L17.88 9.88H19.64V24.26C19.7733 24.14 19.9533 24.04 20.18 23.96C20.4067 23.8667 20.6533 23.82 20.92 23.82C21.5867 23.82 22.12 24.02 22.52 24.42C22.9333 24.82 23.14 25.3467 23.14 26C23.14 26.6667 22.9067 27.2 22.44 27.6C21.9733 28 21.36 28.2 20.6 28.2ZM20.86 27.6C21.3267 27.6 21.7067 27.4533 22 27.16C22.2933 26.8533 22.44 26.4733 22.44 26.02C22.44 25.5533 22.2933 25.1733 22 24.88C21.7067 24.5867 21.3267 24.44 20.86 24.44C20.3933 24.44 20.0133 24.5867 19.72 24.88C19.4267 25.1733 19.28 25.5533 19.28 26.02C19.28 26.4867 19.4267 26.8667 19.72 27.16C20.0133 27.4533 20.3933 27.6 20.86 27.6ZM37.0909 16.8V28H35.2909L30.1309 24.96V25.88C30.1309 26.6 29.8909 27.1667 29.4109 27.58C28.9309 27.9933 28.2709 28.2 27.4309 28.2C26.6443 28.2 26.0176 27.9867 25.5509 27.56C25.0843 27.12 24.8509 26.5267 24.8509 25.78C24.8509 24.9667 25.1109 24.3267 25.6309 23.86C26.1509 23.38 26.8576 23.14 27.7509 23.14C27.9509 23.14 28.1043 23.1467 28.2109 23.16V20.54C28.0776 20.66 27.8909 20.7667 27.6509 20.86C27.4243 20.94 27.1909 20.98 26.9509 20.98C26.2843 20.98 25.7376 20.78 25.3109 20.38C24.8976 19.98 24.6909 19.4533 24.6909 18.8C24.6909 18.1467 24.9243 17.62 25.3909 17.22C25.8576 16.8067 26.4709 16.6 27.2309 16.6C28.1376 16.6 28.8443 16.8467 29.3509 17.34C29.8709 17.8333 30.1309 18.5267 30.1309 19.42V23.74C30.2776 23.8067 30.3643 23.8533 30.3909 23.88L35.1709 26.68V16.8H37.0909ZM26.9909 20.34C27.4576 20.34 27.8309 20.1933 28.1109 19.9C28.4043 19.6067 28.5509 19.2333 28.5509 18.78C28.5509 18.3267 28.4043 17.96 28.1109 17.68C27.8176 17.3867 27.4443 17.24 26.9909 17.24C26.5376 17.24 26.1643 17.3867 25.8709 17.68C25.5776 17.96 25.4309 18.3267 25.4309 18.78C25.4309 19.2333 25.5776 19.6067 25.8709 19.9C26.1643 20.1933 26.5376 20.34 26.9909 20.34ZM28.2109 24.1C27.9709 23.9933 27.7109 23.94 27.4309 23.94C26.9243 23.94 26.5109 24.1133 26.1909 24.46C25.8843 24.8067 25.7309 25.2533 25.7309 25.8C25.7309 26.32 25.8509 26.7333 26.0909 27.04C26.3309 27.3333 26.6643 27.48 27.0909 27.48C27.8376 27.48 28.2109 27.06 28.2109 26.22V24.1ZM35.2552 10.52H37.0152V14.76H35.2552V10.52ZM53.1752 16.8V28H50.8552L47.7152 19.04L44.5552 28H42.2352V20.54C42.1152 20.66 41.9352 20.7667 41.6952 20.86C41.4685 20.94 41.2285 20.98 40.9752 20.98C40.3085 20.98 39.7685 20.78 39.3552 20.38C38.9418 19.98 38.7352 19.4533 38.7352 18.8C38.7352 18.1467 38.9685 17.62 39.4352 17.22C39.9018 16.8067 40.5152 16.6 41.2752 16.6C42.1818 16.6 42.8885 16.8467 43.3952 17.34C43.9018 17.8333 44.1552 18.5267 44.1552 19.42V25.94L47.3352 17.14H48.0952L51.2552 25.76V16.8H53.1752ZM41.0352 20.34C41.5018 20.34 41.8752 20.1933 42.1552 19.9C42.4485 19.6067 42.5952 19.2333 42.5952 18.78C42.5952 18.3267 42.4485 17.96 42.1552 17.68C41.8618 17.3867 41.4885 17.24 41.0352 17.24C40.5818 17.24 40.2085 17.3867 39.9152 17.68C39.6218 17.96 39.4752 18.3267 39.4752 18.78C39.4752 19.2333 39.6218 19.6067 39.9152 19.9C40.2085 20.1933 40.5818 20.34 41.0352 20.34ZM58.3094 20.54C58.1894 20.66 58.0094 20.7667 57.7694 20.86C57.5427 20.94 57.3027 20.98 57.0494 20.98C56.3827 20.98 55.8427 20.78 55.4294 20.38C55.016 19.98 54.8094 19.4533 54.8094 18.8C54.8094 18.1467 55.0427 17.62 55.5094 17.22C55.976 16.8067 56.5894 16.6 57.3494 16.6C58.256 16.6 58.9627 16.8467 59.4694 17.34C59.976 17.8333 60.2294 18.5267 60.2294 19.42V27.24H65.9094V16.8H67.8294V28H58.3094V20.54ZM57.1094 20.34C57.576 20.34 57.9494 20.1933 58.2294 19.9C58.5227 19.6067 58.6694 19.2333 58.6694 18.78C58.6694 18.3267 58.5227 17.96 58.2294 17.68C57.936 17.3867 57.5627 17.24 57.1094 17.24C56.656 17.24 56.2827 17.3867 55.9894 17.68C55.696 17.96 55.5494 18.3267 55.5494 18.78C55.5494 19.2333 55.696 19.6067 55.9894 19.9C56.2827 20.1933 56.656 20.34 57.1094 20.34ZM71.7973 23.84C73.0773 23.4533 74.0307 22.96 74.6573 22.36C75.284 21.7467 75.5973 21.0067 75.5973 20.14C75.5973 19.3133 75.3573 18.6467 74.8773 18.14C74.4107 17.62 73.804 17.36 73.0573 17.36C72.564 17.36 72.1173 17.4733 71.7173 17.7C71.3173 17.9267 71.044 18.22 70.8973 18.58C71.044 18.46 71.2307 18.3667 71.4573 18.3C71.6973 18.22 71.9373 18.18 72.1773 18.18C72.8173 18.18 73.344 18.3867 73.7573 18.8C74.1707 19.2 74.3773 19.72 74.3773 20.36C74.3773 21 74.164 21.5267 73.7373 21.94C73.3107 22.3533 72.764 22.56 72.0973 22.56C71.324 22.56 70.6973 22.3067 70.2173 21.8C69.7373 21.28 69.4973 20.6133 69.4973 19.8C69.4973 18.8267 69.8307 18.0533 70.4973 17.48C71.1773 16.8933 72.084 16.6 73.2173 16.6C74.404 16.6 75.3507 16.92 76.0573 17.56C76.764 18.1867 77.1173 19.0267 77.1173 20.08C77.1173 21.92 75.984 23.26 73.7173 24.1V27.16H79.0173V16.8H80.9373V28H71.7973V23.84ZM72.1173 21.92C72.584 21.92 72.9573 21.7733 73.2373 21.48C73.5307 21.1867 73.6773 20.8133 73.6773 20.36C73.6773 19.9067 73.5307 19.5333 73.2373 19.24C72.944 18.9467 72.5707 18.8 72.1173 18.8C71.664 18.8 71.2907 18.9467 70.9973 19.24C70.704 19.5333 70.5573 19.9067 70.5573 20.36C70.5573 20.8133 70.704 21.1867 70.9973 21.48C71.2907 21.7733 71.664 21.92 72.1173 21.92ZM75.5828 14.52C76.3428 13.9867 76.8895 13.4133 77.2228 12.8C77.1161 12.8667 76.9828 12.92 76.8228 12.96C76.6628 13 76.5095 13.02 76.3628 13.02C75.8695 13.02 75.4695 12.8733 75.1628 12.58C74.8428 12.2733 74.6828 11.8867 74.6828 11.42C74.6828 10.9133 74.8495 10.5067 75.1828 10.2C75.5028 9.89333 75.9295 9.74 76.4628 9.74C77.0495 9.74 77.5095 9.89333 77.8428 10.2C78.1761 10.4933 78.3428 10.9 78.3428 11.42C78.3428 12.3533 77.9695 13.2333 77.2228 14.06C78.3695 13.6867 79.2895 13.1733 79.9828 12.52C80.6628 11.8533 81.1028 11.0933 81.3028 10.24H82.9228C82.7761 11.0533 82.3561 11.8067 81.6628 12.5C80.9561 13.1933 80.0828 13.76 79.0428 14.2C78.0028 14.6267 76.9028 14.88 75.7428 14.96L75.5828 14.52ZM76.3628 12.42C76.6695 12.42 76.9161 12.3267 77.1028 12.14C77.2895 11.9533 77.3828 11.7133 77.3828 11.42C77.3828 11.1133 77.2895 10.8667 77.1028 10.68C76.9028 10.48 76.6561 10.38 76.3628 10.38C76.0695 10.38 75.8295 10.48 75.6428 10.68C75.4428 10.8667 75.3428 11.1133 75.3428 11.42C75.3428 11.7133 75.4361 11.9533 75.6228 12.14C75.8095 12.3267 76.0561 12.42 76.3628 12.42ZM83.8628 23.7C83.8628 22.8067 84.1161 22.1133 84.6228 21.62C85.1295 21.1267 85.8361 20.88 86.7428 20.88C87.5028 20.88 88.1161 21.0867 88.5828 21.5C89.0628 21.9133 89.3028 22.4467 89.3028 23.1C89.3028 23.74 89.0961 24.26 88.6828 24.66C88.2695 25.06 87.7295 25.26 87.0628 25.26C86.7961 25.26 86.5428 25.22 86.3028 25.14C86.0628 25.0467 85.8828 24.9333 85.7628 24.8V27.18H92.6428V20.74C92.6428 19.6867 92.2828 18.8533 91.5628 18.24C90.8561 17.6133 89.9095 17.3 88.7228 17.3C87.5761 17.3 86.6428 17.5867 85.9228 18.16C85.2028 18.7333 84.8095 19.5 84.7428 20.46H82.9428C82.9961 19.6867 83.2628 19.0067 83.7428 18.42C84.2361 17.8333 84.9028 17.3867 85.7428 17.08C86.5961 16.76 87.5761 16.6 88.6828 16.6C89.8695 16.6 90.9028 16.78 91.7828 17.14C92.6761 17.5 93.3628 18.0133 93.8428 18.68C94.3228 19.3333 94.5628 20.1 94.5628 20.98V28H83.8628V23.7ZM86.9828 24.62C87.4361 24.62 87.8095 24.48 88.1028 24.2C88.3961 23.9067 88.5428 23.5333 88.5428 23.08C88.5428 22.6133 88.3961 22.24 88.1028 21.96C87.8228 21.6667 87.4495 21.52 86.9828 21.52C86.5295 21.52 86.1561 21.6667 85.8628 21.96C85.5828 22.2533 85.4428 22.6267 85.4428 23.08C85.4428 23.5333 85.5828 23.9067 85.8628 24.2C86.1561 24.48 86.5295 24.62 86.9828 24.62ZM109.376 16.8V28H107.576L102.416 24.96V25.88C102.416 26.6 102.176 27.1667 101.696 27.58C101.216 27.9933 100.556 28.2 99.7161 28.2C98.9294 28.2 98.3028 27.9867 97.8361 27.56C97.3694 27.12 97.1361 26.5267 97.1361 25.78C97.1361 24.9667 97.3961 24.3267 97.9161 23.86C98.4361 23.38 99.1428 23.14 100.036 23.14C100.236 23.14 100.389 23.1467 100.496 23.16V20.54C100.363 20.66 100.176 20.7667 99.9361 20.86C99.7094 20.94 99.4761 20.98 99.2361 20.98C98.5694 20.98 98.0228 20.78 97.5961 20.38C97.1828 19.98 96.9761 19.4533 96.9761 18.8C96.9761 18.1467 97.2094 17.62 97.6761 17.22C98.1428 16.8067 98.7561 16.6 99.5161 16.6C100.423 16.6 101.129 16.8467 101.636 17.34C102.156 17.8333 102.416 18.5267 102.416 19.42V23.74C102.563 23.8067 102.649 23.8533 102.676 23.88L107.456 26.68V16.8H109.376ZM99.2761 20.34C99.7428 20.34 100.116 20.1933 100.396 19.9C100.689 19.6067 100.836 19.2333 100.836 18.78C100.836 18.3267 100.689 17.96 100.396 17.68C100.103 17.3867 99.7294 17.24 99.2761 17.24C98.8228 17.24 98.4494 17.3867 98.1561 17.68C97.8628 17.96 97.7161 18.3267 97.7161 18.78C97.7161 19.2333 97.8628 19.6067 98.1561 19.9C98.4494 20.1933 98.8228 20.34 99.2761 20.34ZM100.496 24.1C100.256 23.9933 99.9961 23.94 99.7161 23.94C99.2094 23.94 98.7961 24.1133 98.4761 24.46C98.1694 24.8067 98.0161 25.2533 98.0161 25.8C98.0161 26.32 98.1361 26.7333 98.3761 27.04C98.6161 27.3333 98.9494 27.48 99.3761 27.48C100.123 27.48 100.496 27.06 100.496 26.22V24.1ZM103.98 32.24C103.74 32.44 103.407 32.54 102.98 32.54C102.447 32.54 102.014 32.3733 101.68 32.04C101.347 31.72 101.18 31.3 101.18 30.78C101.18 30.2467 101.374 29.8133 101.76 29.48C102.147 29.16 102.654 29 103.28 29C104.027 29 104.62 29.18 105.06 29.54C105.5 29.9133 105.72 30.3933 105.72 30.98V33.32H107.64V29H109.38V34H103.98V32.24ZM103.02 31.94C103.354 31.94 103.634 31.8267 103.86 31.6C104.074 31.3867 104.18 31.1133 104.18 30.78C104.18 30.4467 104.074 30.1667 103.86 29.94C103.634 29.7267 103.354 29.62 103.02 29.62C102.687 29.62 102.414 29.7267 102.2 29.94C101.974 30.1667 101.86 30.4467 101.86 30.78C101.86 31.1267 101.967 31.4067 102.18 31.62C102.394 31.8333 102.674 31.94 103.02 31.94ZM115.32 28.2C114.387 28.2 113.64 27.8867 113.08 27.26C112.52 26.6333 112.24 25.8067 112.24 24.78C112.24 23.8733 112.44 23.0733 112.84 22.38C113.254 21.6867 113.834 21.1533 114.58 20.78C115.327 20.3933 116.187 20.2 117.16 20.2C118.12 20.2 118.967 20.4533 119.7 20.96C120.434 21.4533 120.98 22.1533 121.34 23.06V20.32C121.34 19.4 121.014 18.6733 120.36 18.14C119.707 17.5933 118.827 17.32 117.72 17.32C116.654 17.32 115.76 17.5667 115.04 18.06C114.32 18.54 113.887 19.1867 113.74 20H111.92C112.107 18.9733 112.727 18.1533 113.78 17.54C114.834 16.9133 116.147 16.6 117.72 16.6C118.84 16.6 119.814 16.76 120.64 17.08C121.48 17.4 122.127 17.8533 122.58 18.44C123.034 19.0133 123.26 19.6933 123.26 20.48V28H121.34V27.8C121.34 25.64 120.98 23.96 120.26 22.76C119.54 21.5467 118.534 20.94 117.24 20.94C116.374 20.94 115.647 21.2467 115.06 21.86C114.487 22.4733 114.174 23.2867 114.12 24.3C114.227 24.1667 114.414 24.0533 114.68 23.96C114.947 23.8667 115.214 23.82 115.48 23.82C116.147 23.82 116.694 24.0267 117.12 24.44C117.56 24.8533 117.78 25.38 117.78 26.02C117.78 26.66 117.547 27.1867 117.08 27.6C116.627 28 116.04 28.2 115.32 28.2ZM115.46 27.56C115.927 27.56 116.3 27.42 116.58 27.14C116.874 26.86 117.02 26.4867 117.02 26.02C117.02 25.5533 116.874 25.18 116.58 24.9C116.3 24.6067 115.927 24.46 115.46 24.46C114.994 24.46 114.62 24.6067 114.34 24.9C114.06 25.18 113.92 25.5533 113.92 26.02C113.92 26.4733 114.06 26.8467 114.34 27.14C114.634 27.42 115.007 27.56 115.46 27.56Z" fill="black"/>
</svg>
