<svg width="20" height="17" viewBox="0 0 20 17" fill="none" xmlns="http://www.w3.org/2000/svg">
<path d="M0.98 15.75C2.19333 14.77 3.17333 13.4633 3.92 11.83C4.71333 10.15 5.08667 8.44667 5.04 6.72C4.57333 7 4.06 7.14 3.5 7.14C2.47333 7.14 1.63333 6.81333 0.98 6.16C0.326667 5.50667 0 4.66667 0 3.64C0 2.56667 0.326667 1.70333 0.98 1.05C1.68 0.35 2.61333 0 3.78 0C5.08667 0 6.11333 0.490001 6.86 1.47C7.60667 2.40333 7.98 3.73333 7.98 5.46C7.98 7.65333 7.42 9.8 6.3 11.9C5.18 14 3.75667 15.5633 2.03 16.59L0.98 15.75ZM12.81 15.75C14.0233 14.77 15.0033 13.4633 15.75 11.83C16.5433 10.15 16.9167 8.44667 16.87 6.72C16.4033 7 15.89 7.14 15.33 7.14C14.3033 7.14 13.4633 6.81333 12.81 6.16C12.1567 5.50667 11.83 4.66667 11.83 3.64C11.83 2.56667 12.1567 1.70333 12.81 1.05C13.51 0.35 14.4433 0 15.61 0C16.9167 0 17.9433 0.490001 18.69 1.47C19.4367 2.40333 19.81 3.73333 19.81 5.46C19.81 7.65333 19.25 9.8 18.13 11.9C17.01 14 15.5867 15.5633 13.86 16.59L12.81 15.75Z" fill="#DE5850"/>
</svg>
