<svg id="Layer_1" data-name="Layer 1" xmlns="http://www.w3.org/2000/svg" viewBox="0 0 201 62"><defs><style>.cls-1{fill:#373747;}</style></defs><path class="cls-1" d="M89.1,27.57c0-12,3.76-18.77,13.57-18.77a16.56,16.56,0,0,1,8,1.9l-1,6.73A17.72,17.72,0,0,0,103,16c-3.31,0-5.15,1.18-5.15,8.46v5.83c0,7.9,2,9.42,5.15,9.42,2.41,0,4.26-.84,6.5-1.91l1.63,6.39a17,17,0,0,1-8.69,2.35C92.8,46.57,89.1,39.4,89.1,27.57Z"/><path class="cls-1" d="M159,2.67l1.61,6.4V32.49a8.23,8.23,0,0,1-3.81.78c-2.35,0-3.36-1.34-3.36-4.65V2.67h-10l1.61,6.4V26.66c0,10.09,4.53,13.17,9.58,13.17a11.88,11.88,0,0,0,4.54-.78l2.18-3.65,1.74,3.76H169V2.67Z"/><path class="cls-1" d="M45.27,9.41l1.61,6.4V39.23a8.24,8.24,0,0,1-3.81.79c-2.36,0-3.37-1.35-3.37-4.66V9.41h-10l1.6,6.4V33.4c0,10.09,4.54,13.17,9.59,13.17a11.92,11.92,0,0,0,4.54-.78l2.18-3.64L49.4,45.9h5.83V9.41Z"/><path class="cls-1" d="M71.23,45.89l-1.61-6.4V16.07a8.27,8.27,0,0,1,3.82-.78c2.35,0,3.36,1.34,3.36,4.65v26h10l-1.61-6.4V21.9c0-10.09-4.54-13.17-9.58-13.17A11.83,11.83,0,0,0,71,9.51l-2.19,3.65L67.1,9.4H61.27V45.89Z"/><path class="cls-1" d="M186.05,2.67H173.4L175,9.07V32.76l-1.61,6.4h10V28.51h2.74c7.8,0,12.28-3.93,12.28-12.89S193.9,2.67,186.05,2.67Zm3.64,14.63c0,4-1,5.1-3.87,5.1H183.3V9.34h2.41c2.92,0,4,1,4,4.88Z"/><path class="cls-1" d="M15.27,9.41H2.62l1.61,6.4v23.7L2.62,45.9h10V35.25h2.74c7.8,0,12.28-3.92,12.28-12.89S23.12,9.41,15.27,9.41ZM18.91,24c0,4-1,5.1-3.87,5.1H12.52V16.08h2.41c2.92,0,4,1,4,4.88Z"/><polygon class="cls-1" points="139.04 15.81 140.65 9.41 129.14 9.41 130.75 15.81 130.75 23.93 123.29 23.93 123.29 15.81 124.9 9.41 113.33 9.41 114.94 15.81 114.94 39.5 113.33 45.9 124.9 45.9 123.29 39.5 123.29 30.66 130.75 30.66 130.75 39.5 129.14 45.9 140.65 45.9 139.04 39.5 139.04 15.81"/><rect class="cls-1" x="2.62" y="52.62" width="138.02" height="6.71"/><rect class="cls-1" x="140.65" y="45.89" width="56.74" height="6.73"/></svg>