<svg width="56" height="56" viewBox="0 0 56 56" fill="none" xmlns="http://www.w3.org/2000/svg">
<g clip-path="url(#clip0_879_635)">
<path d="M0 0V56H56V0H0Z" fill="#373747"/>
<path d="M26.5159 43.763H8.83862V48.6563H26.5159V43.763Z" fill="#A6E9D5"/>
<path d="M47.1614 38.8624H26.516V43.7703H47.1614V38.8624Z" fill="#A6E9D5"/>
<path d="M47.1613 33.9472H42.9097L41.6481 31.2124L40.051 33.8669C38.9959 34.2743 37.8709 34.4701 36.7402 34.4431C33.0938 34.4431 29.7538 32.1896 29.7538 24.8314V12.011L28.5797 7.34369H35.8723V26.2534C35.8723 28.66 36.6016 29.6445 38.3226 29.6445C39.2816 29.6779 40.2345 29.4803 41.1011 29.0684V12.011L39.9343 7.34369H47.2269L47.1613 33.9472Z" fill="#A6E9D5"/>
<path d="M18.0638 12.2589H8.83862L10.0127 16.9262V34.2024L8.83862 38.8697H16.1312V31.103H18.1294C23.8177 31.103 27.0847 28.237 27.0847 21.7028C27.0847 15.1687 23.7885 12.2589 18.0638 12.2589ZM20.7183 22.928C20.7183 25.8451 19.989 26.6472 17.8961 26.6472H16.0437V17.1231H17.8012C19.9307 17.1231 20.7183 17.8523 20.7183 20.6819V22.928Z" fill="#A6E9D5"/>
</g>
<defs>
<clipPath id="clip0_879_635">
<rect width="56" height="56" fill="white"/>
</clipPath>
</defs>
</svg>
