<svg width="587" height="367" viewBox="0 0 587 367" fill="none" xmlns="http://www.w3.org/2000/svg">
<rect x="66" y="191" width="156" height="46" fill="#F4CC2D"/>
<path d="M18.1476 168.3C17.7676 168.3 17.3176 168.26 16.7976 168.18C16.2976 168.12 15.8876 168.03 15.5676 167.91L13.1676 161.52H11.0976L11.2476 159.06H15.2376L17.7276 165.72C18.6276 165.76 19.4276 165.59 20.1276 165.21C20.8476 164.83 21.4076 164.2 21.8076 163.32C22.2276 162.42 22.4376 161.23 22.4376 159.75C22.4376 158.35 22.2476 157.24 21.8676 156.42C21.5076 155.6 20.8976 155.02 20.0376 154.68C19.1976 154.32 18.0476 154.14 16.5876 154.14C15.7876 154.14 14.9376 154.2 14.0376 154.32C13.1376 154.44 12.2776 154.64 11.4576 154.92V152.4C12.2576 152.14 13.1676 151.93 14.1876 151.77C15.2276 151.59 16.3176 151.5 17.4576 151.5C20.3176 151.5 22.3876 152.21 23.6676 153.63C24.9476 155.05 25.5876 157.09 25.5876 159.75C25.5876 161.61 25.2376 163.18 24.5376 164.46C23.8576 165.72 22.9576 166.68 21.8376 167.34C20.7176 167.98 19.4876 168.3 18.1476 168.3ZM34.8977 168V157.8C34.8977 156.98 34.8077 156.3 34.6277 155.76C34.4477 155.22 34.1077 154.82 33.6077 154.56C33.1077 154.28 32.3677 154.14 31.3877 154.14C30.7477 154.14 30.0477 154.21 29.2877 154.35C28.5477 154.49 27.8777 154.68 27.2777 154.92V152.4C27.8777 152.14 28.5977 151.93 29.4377 151.77C30.2977 151.59 31.1577 151.5 32.0177 151.5C34.1777 151.5 35.7377 151.97 36.6977 152.91C37.6777 153.85 38.1677 155.34 38.1677 157.38V168H34.8977ZM42.2606 168V162.15C42.2606 161.27 42.4306 160.5 42.7706 159.84C43.1106 159.16 43.7306 158.69 44.6306 158.43L41.3906 157.62V154.26C42.1906 153.56 43.2406 152.93 44.5406 152.37C45.8606 151.79 47.4006 151.5 49.1606 151.5C51.5406 151.5 53.3706 152 54.6506 153C55.9306 153.98 56.5706 155.63 56.5706 157.95V168H53.3006V157.86C53.3006 156.48 52.9706 155.52 52.3106 154.98C51.6706 154.42 50.5806 154.14 49.0406 154.14C48.0406 154.14 47.1106 154.28 46.2506 154.56C45.3906 154.84 44.7106 155.21 44.2106 155.67V156.21L47.6306 157.08V159.24C46.8506 159.44 46.3006 159.76 45.9806 160.2C45.6606 160.64 45.5006 161.3 45.5006 162.18V168H42.2606ZM60.659 168V162.15C60.659 161.27 60.829 160.5 61.169 159.84C61.509 159.16 62.129 158.69 63.029 158.43L59.789 157.62V154.26C60.589 153.56 61.639 152.93 62.939 152.37C64.259 151.79 65.799 151.5 67.559 151.5C69.939 151.5 71.769 152 73.049 153C74.329 153.98 74.969 155.63 74.969 157.95V168H71.699V157.86C71.699 156.48 71.369 155.52 70.709 154.98C70.069 154.42 68.979 154.14 67.439 154.14C66.439 154.14 65.509 154.28 64.649 154.56C63.789 154.84 63.109 155.21 62.609 155.67V156.21L66.029 157.08V159.24C65.249 159.44 64.699 159.76 64.379 160.2C64.059 160.64 63.899 161.3 63.899 162.18V168H60.659ZM84.9075 168V157.8C84.9075 156.98 84.8175 156.3 84.6375 155.76C84.4575 155.22 84.1175 154.82 83.6175 154.56C83.1175 154.28 82.3775 154.14 81.3975 154.14C80.7575 154.14 80.0575 154.21 79.2975 154.35C78.5575 154.49 77.8875 154.68 77.2875 154.92V152.4C77.8875 152.14 78.6075 151.93 79.4475 151.77C80.3075 151.59 81.1675 151.5 82.0275 151.5C84.1875 151.5 85.7475 151.97 86.7075 152.91C87.6875 153.85 88.1775 155.34 88.1775 157.38V168H84.9075ZM97.3104 168.3C96.2504 168.3 95.2204 168.23 94.2204 168.09C93.2404 167.95 92.4304 167.75 91.7904 167.49V164.76C92.5504 165.06 93.3704 165.29 94.2504 165.45C95.1504 165.61 95.9704 165.69 96.7104 165.69C98.0904 165.69 99.1104 165.57 99.7704 165.33C100.43 165.07 100.76 164.54 100.76 163.74C100.76 163.16 100.59 162.72 100.25 162.42C99.9104 162.12 99.4104 161.86 98.7504 161.64C98.0904 161.4 97.2704 161.12 96.2904 160.8C95.3704 160.48 94.5404 160.13 93.8004 159.75C93.0604 159.37 92.4704 158.89 92.0304 158.31C91.6104 157.73 91.4004 157 91.4004 156.12C91.4004 154.7 91.9404 153.58 93.0204 152.76C94.1004 151.92 95.7304 151.5 97.9104 151.5C98.8304 151.5 99.7404 151.57 100.64 151.71C101.54 151.85 102.28 152.02 102.86 152.22V154.92C102.2 154.66 101.46 154.47 100.64 154.35C99.8404 154.21 99.0904 154.14 98.3904 154.14C97.2304 154.14 96.3004 154.27 95.6004 154.53C94.9004 154.77 94.5504 155.27 94.5504 156.03C94.5504 156.53 94.7304 156.93 95.0904 157.23C95.4504 157.51 95.9604 157.77 96.6204 158.01C97.3004 158.23 98.1104 158.5 99.0504 158.82C100.11 159.16 101 159.54 101.72 159.96C102.44 160.36 102.98 160.86 103.34 161.46C103.72 162.04 103.91 162.8 103.91 163.74C103.91 165.32 103.31 166.48 102.11 167.22C100.93 167.94 99.3304 168.3 97.3104 168.3ZM110.328 168C109.228 168 108.428 167.73 107.928 167.19C107.428 166.65 107.178 165.88 107.178 164.88V151.8H110.418V164.07C110.418 164.97 110.858 165.42 111.738 165.42H113.118V168H110.328ZM116.587 168V162.15C116.587 161.27 116.757 160.5 117.097 159.84C117.437 159.16 118.057 158.69 118.957 158.43L115.717 157.62V154.26C116.517 153.56 117.567 152.93 118.867 152.37C120.187 151.79 121.727 151.5 123.487 151.5C125.867 151.5 127.697 152 128.977 153C130.257 153.98 130.897 155.63 130.897 157.95V168H127.627V157.86C127.627 156.48 127.297 155.52 126.637 154.98C125.997 154.42 124.907 154.14 123.367 154.14C122.367 154.14 121.437 154.28 120.577 154.56C119.717 154.84 119.037 155.21 118.537 155.67V156.21L121.957 157.08V159.24C121.177 159.44 120.627 159.76 120.307 160.2C119.987 160.64 119.827 161.3 119.827 162.18V168H116.587ZM122.115 149.37C120.955 149.37 120.035 149.07 119.355 148.47C118.675 147.87 118.335 147.02 118.335 145.92C118.335 144.82 118.685 143.94 119.385 143.28C120.065 142.62 121.045 142.29 122.325 142.29H129.705L129.555 144.21H122.625C121.945 144.21 121.445 144.34 121.125 144.6C120.785 144.86 120.615 145.3 120.615 145.92C120.615 146.98 121.185 147.51 122.325 147.51C122.905 147.51 123.315 147.4 123.555 147.18C123.795 146.94 123.915 146.63 123.915 146.25V145.62H125.925V146.25C125.925 146.69 126.045 147 126.285 147.18C126.505 147.34 126.845 147.42 127.305 147.42H129.195V149.31H127.095C126.615 149.31 126.175 149.24 125.775 149.1C125.355 148.94 125.065 148.7 124.905 148.38C124.705 148.7 124.325 148.95 123.765 149.13C123.185 149.29 122.635 149.37 122.115 149.37ZM142.125 168.3C139.805 168.3 137.985 167.75 136.665 166.65C135.365 165.55 134.715 163.9 134.715 161.7V151.8H137.985V161.82C137.985 163.16 138.335 164.14 139.035 164.76C139.755 165.38 140.785 165.69 142.125 165.69C143.485 165.69 144.515 165.38 145.215 164.76C145.935 164.14 146.295 163.16 146.295 161.82V151.8H149.535V161.7C149.535 163.9 148.885 165.55 147.585 166.65C146.285 167.75 144.465 168.3 142.125 168.3ZM160.008 168.3C157.728 168.3 155.998 167.77 154.818 166.71C153.638 165.65 153.048 164.16 153.048 162.24V160.65C153.048 160.01 153.178 159.42 153.438 158.88C153.718 158.34 154.028 157.85 154.368 157.41C154.728 156.95 155.038 156.53 155.298 156.15C155.578 155.75 155.718 155.38 155.718 155.04C155.718 154.72 155.648 154.51 155.508 154.41C155.368 154.31 155.118 154.26 154.758 154.26H152.688L152.958 151.8H156.738C158.258 151.8 159.018 152.53 159.018 153.99C159.018 154.67 158.878 155.28 158.598 155.82C158.338 156.36 158.018 156.88 157.638 157.38C157.278 157.88 156.958 158.4 156.678 158.94C156.418 159.46 156.288 160.04 156.288 160.68V162.51C156.288 163.61 156.618 164.42 157.278 164.94C157.938 165.44 158.848 165.69 160.008 165.69C161.188 165.69 162.098 165.43 162.738 164.91C163.378 164.39 163.698 163.56 163.698 162.42V151.8H166.968V162.21C166.968 164.13 166.348 165.63 165.108 166.71C163.888 167.77 162.188 168.3 160.008 168.3ZM160.1 149.34V146.58H157.73V144.33H162.35V147.06H168.83L168.71 149.34H160.1ZM176.84 168.3C175.56 168.3 174.35 168.18 173.21 167.94C172.09 167.7 171.15 167.42 170.39 167.1V158.76H176.81L176.96 161.25H173.54V165.18C174 165.34 174.52 165.47 175.1 165.57C175.7 165.65 176.28 165.69 176.84 165.69C178.62 165.69 179.87 165.27 180.59 164.43C181.33 163.57 181.7 162.08 181.7 159.96C181.7 158.48 181.52 157.32 181.16 156.48C180.8 155.62 180.2 155.02 179.36 154.68C178.54 154.32 177.42 154.14 176 154.14C175.14 154.14 174.24 154.2 173.3 154.32C172.36 154.44 171.47 154.64 170.63 154.92V152.4C171.47 152.12 172.43 151.9 173.51 151.74C174.61 151.58 175.71 151.5 176.81 151.5C179.65 151.5 181.7 152.22 182.96 153.66C184.22 155.08 184.85 157.18 184.85 159.96C184.85 162.68 184.22 164.75 182.96 166.17C181.7 167.59 179.66 168.3 176.84 168.3ZM196.856 168.3C195.636 168.3 194.566 168.11 193.646 167.73C192.746 167.35 191.926 166.85 191.186 166.23L191.006 168H188.036V151.8H191.306V163.74C191.826 164.3 192.476 164.77 193.256 165.15C194.036 165.51 194.876 165.69 195.776 165.69C196.896 165.69 197.736 165.43 198.296 164.91C198.856 164.37 199.136 163.49 199.136 162.27V151.8H202.376V162.42C202.376 164.3 201.886 165.75 200.906 166.77C199.926 167.79 198.576 168.3 196.856 168.3ZM198.76 175.83C197.66 175.83 196.8 175.58 196.18 175.08C195.54 174.6 195.22 174 195.22 173.28V171.75H193.6L193.72 169.71H197.56V172.74C197.56 173.4 197.96 173.73 198.76 173.73C199.58 173.73 199.99 173.4 199.99 172.74V169.71H202.36V172.95C202.36 173.73 202.06 174.4 201.46 174.96C200.86 175.54 199.96 175.83 198.76 175.83ZM211.21 168.3C210.19 168.3 209.26 168.14 208.42 167.82C207.6 167.48 206.94 166.95 206.44 166.23C205.94 165.49 205.69 164.53 205.69 163.35C205.69 161.77 206.22 160.54 207.28 159.66C208.36 158.78 209.93 158.34 211.99 158.34H216.94V157.32C216.94 156.14 216.64 155.32 216.04 154.86C215.46 154.38 214.37 154.14 212.77 154.14C211.83 154.14 210.92 154.2 210.04 154.32C209.18 154.44 208.33 154.64 207.49 154.92V152.4C208.27 152.14 209.17 151.93 210.19 151.77C211.23 151.59 212.27 151.5 213.31 151.5C215.67 151.5 217.41 152 218.53 153C219.65 153.98 220.21 155.52 220.21 157.62V168H216.94V160.86H212.2C211.08 160.86 210.23 161.05 209.65 161.43C209.09 161.79 208.81 162.43 208.81 163.35C208.81 164.23 209.06 164.84 209.56 165.18C210.08 165.52 210.92 165.69 212.08 165.69C212.88 165.69 213.57 165.61 214.15 165.45V167.94C213.77 168.04 213.33 168.12 212.83 168.18C212.33 168.26 211.79 168.3 211.21 168.3ZM224.012 168V157.74C224.012 155.78 224.602 154.25 225.782 153.15C226.962 152.05 228.822 151.5 231.362 151.5C233.922 151.5 235.772 152.05 236.912 153.15C238.072 154.25 238.652 155.78 238.652 157.74V168H235.382V157.44C235.382 156.3 235.032 155.47 234.332 154.95C233.632 154.41 232.642 154.14 231.362 154.14C230.022 154.14 229.002 154.41 228.302 154.95C227.622 155.47 227.282 156.3 227.282 157.44V160.77C228.162 160.05 229.212 159.69 230.432 159.69H232.382L232.502 162.3H230.342C229.122 162.3 228.102 162.64 227.282 163.32V168H224.012ZM247.779 168.3C246.719 168.3 245.689 168.23 244.689 168.09C243.709 167.95 242.899 167.75 242.259 167.49V164.76C243.019 165.06 243.839 165.29 244.719 165.45C245.619 165.61 246.439 165.69 247.179 165.69C248.559 165.69 249.579 165.57 250.239 165.33C250.899 165.07 251.229 164.54 251.229 163.74C251.229 163.16 251.059 162.72 250.719 162.42C250.379 162.12 249.879 161.86 249.219 161.64C248.559 161.4 247.739 161.12 246.759 160.8C245.839 160.48 245.009 160.13 244.269 159.75C243.529 159.37 242.939 158.89 242.499 158.31C242.079 157.73 241.869 157 241.869 156.12C241.869 154.7 242.409 153.58 243.489 152.76C244.569 151.92 246.199 151.5 248.379 151.5C249.299 151.5 250.209 151.57 251.109 151.71C252.009 151.85 252.749 152.02 253.329 152.22V154.92C252.669 154.66 251.929 154.47 251.109 154.35C250.309 154.21 249.559 154.14 248.859 154.14C247.699 154.14 246.769 154.27 246.069 154.53C245.369 154.77 245.019 155.27 245.019 156.03C245.019 156.53 245.199 156.93 245.559 157.23C245.919 157.51 246.429 157.77 247.089 158.01C247.769 158.23 248.579 158.5 249.519 158.82C250.579 159.16 251.469 159.54 252.189 159.96C252.909 160.36 253.449 160.86 253.809 161.46C254.189 162.04 254.379 162.8 254.379 163.74C254.379 165.32 253.779 166.48 252.579 167.22C251.399 167.94 249.799 168.3 247.779 168.3ZM263.706 168V157.8C263.706 156.98 263.616 156.3 263.436 155.76C263.256 155.22 262.916 154.82 262.416 154.56C261.916 154.28 261.176 154.14 260.196 154.14C259.556 154.14 258.856 154.21 258.096 154.35C257.356 154.49 256.686 154.68 256.086 154.92V152.4C256.686 152.14 257.406 151.93 258.246 151.77C259.106 151.59 259.966 151.5 260.826 151.5C262.986 151.5 264.546 151.97 265.506 152.91C266.486 153.85 266.976 155.34 266.976 157.38V168H263.706ZM273.709 168L269.959 151.8H273.169L275.569 163.38L278.509 154.11V151.8H280.849L284.119 163.38L287.389 147H290.569L285.919 168H282.919L279.919 157.68L276.679 168H273.709ZM298.597 168.3C297.337 168.3 296.207 168.02 295.207 167.46C294.207 166.9 293.417 166.02 292.837 164.82C292.257 163.6 291.967 162.04 291.967 160.14C291.967 157.34 292.437 155.2 293.377 153.72C294.317 152.24 295.627 151.5 297.307 151.5C298.127 151.5 298.777 151.65 299.257 151.95C299.757 152.23 300.187 152.6 300.547 153.06C300.967 152.6 301.517 152.23 302.197 151.95C302.877 151.65 303.567 151.5 304.267 151.5C305.567 151.5 306.537 151.89 307.177 152.67C307.817 153.43 308.137 154.49 308.137 155.85V168H304.867V156.33C304.867 155.57 304.757 155.02 304.537 154.68C304.337 154.32 303.917 154.14 303.277 154.14C302.877 154.14 302.507 154.25 302.167 154.47C301.827 154.69 301.577 155.04 301.417 155.52H299.617C299.377 155.04 299.127 154.69 298.867 154.47C298.607 154.25 298.237 154.14 297.757 154.14C296.717 154.14 296.017 154.69 295.657 155.79C295.297 156.89 295.117 158.34 295.117 160.14C295.117 162.2 295.467 163.64 296.167 164.46C296.867 165.28 297.867 165.69 299.167 165.69C299.547 165.69 299.917 165.67 300.277 165.63C300.657 165.59 300.977 165.53 301.237 165.45V167.94C300.897 168.06 300.517 168.15 300.097 168.21C299.677 168.27 299.177 168.3 298.597 168.3ZM301.041 149.34V144.96H309.861L309.741 147.24H303.741V149.34H301.041ZM315.171 168C314.071 168 313.271 167.73 312.771 167.19C312.271 166.65 312.021 165.88 312.021 164.88V151.8H315.261V164.07C315.261 164.97 315.701 165.42 316.581 165.42H317.961V168H315.171ZM328.571 168.3C326.251 168.3 324.431 167.75 323.111 166.65C321.811 165.55 321.161 163.9 321.161 161.7V151.8H324.431V161.82C324.431 163.16 324.781 164.14 325.481 164.76C326.201 165.38 327.231 165.69 328.571 165.69C329.931 165.69 330.961 165.38 331.661 164.76C332.381 164.14 332.741 163.16 332.741 161.82V151.8H335.981V161.7C335.981 163.9 335.331 165.55 334.031 166.65C332.731 167.75 330.911 168.3 328.571 168.3ZM323.473 149.34L323.623 147.06H333.283V144.57H335.983V149.34H323.473ZM346.573 168.3C345.133 168.3 343.853 168.13 342.733 167.79C341.613 167.45 340.723 166.91 340.063 166.17C339.423 165.43 339.103 164.45 339.103 163.23C339.103 162.41 339.293 161.69 339.673 161.07C340.053 160.43 340.613 159.93 341.353 159.57C340.733 159.33 340.213 158.92 339.793 158.34C339.393 157.76 339.193 157.04 339.193 156.18C339.193 154.64 339.663 153.48 340.603 152.7C341.563 151.9 342.783 151.5 344.263 151.5C344.843 151.5 345.343 151.54 345.763 151.62C346.183 151.68 346.563 151.77 346.903 151.89V154.38C346.323 154.22 345.643 154.14 344.863 154.14C344.063 154.14 343.443 154.3 343.003 154.62C342.563 154.94 342.343 155.46 342.343 156.18C342.343 156.94 342.593 157.49 343.093 157.83C343.593 158.15 344.283 158.31 345.163 158.31H346.873L347.023 160.74H345.103C343.203 160.74 342.253 161.57 342.253 163.23C342.253 164.05 342.593 164.67 343.273 165.09C343.953 165.49 345.003 165.69 346.423 165.69C349.243 165.69 350.653 164.54 350.653 162.24V151.8H353.893V161.85C353.893 164.03 353.283 165.65 352.063 166.71C350.843 167.77 349.013 168.3 346.573 168.3ZM363.004 168.3C361.944 168.3 360.914 168.23 359.914 168.09C358.934 167.95 358.124 167.75 357.484 167.49V164.76C358.244 165.06 359.064 165.29 359.944 165.45C360.844 165.61 361.664 165.69 362.404 165.69C363.784 165.69 364.804 165.57 365.464 165.33C366.124 165.07 366.454 164.54 366.454 163.74C366.454 163.16 366.284 162.72 365.944 162.42C365.604 162.12 365.104 161.86 364.444 161.64C363.784 161.4 362.964 161.12 361.984 160.8C361.064 160.48 360.234 160.13 359.494 159.75C358.754 159.37 358.164 158.89 357.724 158.31C357.304 157.73 357.094 157 357.094 156.12C357.094 154.7 357.634 153.58 358.714 152.76C359.794 151.92 361.424 151.5 363.604 151.5C364.524 151.5 365.434 151.57 366.334 151.71C367.234 151.85 367.974 152.02 368.554 152.22V154.92C367.894 154.66 367.154 154.47 366.334 154.35C365.534 154.21 364.784 154.14 364.084 154.14C362.924 154.14 361.994 154.27 361.294 154.53C360.594 154.77 360.244 155.27 360.244 156.03C360.244 156.53 360.424 156.93 360.784 157.23C361.144 157.51 361.654 157.77 362.314 158.01C362.994 158.23 363.804 158.5 364.744 158.82C365.804 159.16 366.694 159.54 367.414 159.96C368.134 160.36 368.674 160.86 369.034 161.46C369.414 162.04 369.604 162.8 369.604 163.74C369.604 165.32 369.004 166.48 367.804 167.22C366.624 167.94 365.024 168.3 363.004 168.3ZM361.891 149.34V144.96H370.711L370.591 147.24H364.591V149.34H361.891ZM379.125 168V166.38C379.645 165.16 380.365 164.06 381.285 163.08C382.225 162.1 383.225 161.15 384.285 160.23C385.085 159.53 385.745 158.94 386.265 158.46C386.805 157.96 387.225 157.51 387.525 157.11C387.825 156.71 388.035 156.3 388.155 155.88C388.275 155.44 388.335 154.93 388.335 154.35C388.335 153.31 388.035 152.52 387.435 151.98C386.835 151.44 385.835 151.17 384.435 151.17C383.675 151.17 382.895 151.25 382.095 151.41C381.315 151.57 380.565 151.79 379.845 152.07V149.19C380.545 148.95 381.375 148.76 382.335 148.62C383.295 148.46 384.205 148.38 385.065 148.38C387.225 148.38 388.855 148.91 389.955 149.97C391.055 151.03 391.605 152.48 391.605 154.32C391.605 155.24 391.445 156.06 391.125 156.78C390.805 157.48 390.365 158.15 389.805 158.79C389.245 159.41 388.595 160.05 387.855 160.71C386.935 161.51 386.065 162.29 385.245 163.05C384.445 163.79 383.795 164.6 383.295 165.48H391.815V168H379.125ZM403.449 168V163.77H393.789V161.46L403.839 148.68H406.689V161.13H408.669V163.77H406.689V168H403.449ZM396.969 161.22H403.959V152.4L396.969 161.22ZM428.632 168C427.532 168 426.732 167.73 426.232 167.19C425.732 166.65 425.482 165.88 425.482 164.88V151.8H428.722V164.07C428.722 164.97 429.162 165.42 430.042 165.42H431.272V168H428.632ZM421.342 168C420.262 168 419.462 167.73 418.942 167.19C418.442 166.65 418.192 165.88 418.192 164.88V151.8H421.462V164.07C421.462 164.97 421.902 165.42 422.782 165.42H423.982V168H421.342ZM441.862 168.3C439.542 168.3 437.722 167.75 436.402 166.65C435.102 165.55 434.452 163.9 434.452 161.7V151.8H437.722V161.82C437.722 163.16 438.072 164.14 438.772 164.76C439.492 165.38 440.522 165.69 441.862 165.69C443.222 165.69 444.252 165.38 444.952 164.76C445.672 164.14 446.032 163.16 446.032 161.82V151.8H449.272V161.7C449.272 163.9 448.622 165.55 447.322 166.65C446.022 167.75 444.202 168.3 441.862 168.3ZM458.394 168.3C457.334 168.3 456.304 168.23 455.304 168.09C454.324 167.95 453.514 167.75 452.874 167.49V164.76C453.634 165.06 454.454 165.29 455.334 165.45C456.234 165.61 457.054 165.69 457.794 165.69C459.174 165.69 460.194 165.57 460.854 165.33C461.514 165.07 461.844 164.54 461.844 163.74C461.844 163.16 461.674 162.72 461.334 162.42C460.994 162.12 460.494 161.86 459.834 161.64C459.174 161.4 458.354 161.12 457.374 160.8C456.454 160.48 455.624 160.13 454.884 159.75C454.144 159.37 453.554 158.89 453.114 158.31C452.694 157.73 452.484 157 452.484 156.12C452.484 154.7 453.024 153.58 454.104 152.76C455.184 151.92 456.814 151.5 458.994 151.5C459.914 151.5 460.824 151.57 461.724 151.71C462.624 151.85 463.364 152.02 463.944 152.22V154.92C463.284 154.66 462.544 154.47 461.724 154.35C460.924 154.21 460.174 154.14 459.474 154.14C458.314 154.14 457.384 154.27 456.684 154.53C455.984 154.77 455.634 155.27 455.634 156.03C455.634 156.53 455.814 156.93 456.174 157.23C456.534 157.51 457.044 157.77 457.704 158.01C458.384 158.23 459.194 158.5 460.134 158.82C461.194 159.16 462.084 159.54 462.804 159.96C463.524 160.36 464.064 160.86 464.424 161.46C464.804 162.04 464.994 162.8 464.994 163.74C464.994 165.32 464.394 166.48 463.194 167.22C462.014 167.94 460.414 168.3 458.394 168.3ZM473.722 168.3C471.982 168.3 470.622 167.79 469.642 166.77C468.682 165.75 468.202 164.3 468.202 162.42V151.8H471.472V162.27C471.472 163.49 471.742 164.37 472.282 164.91C472.822 165.43 473.662 165.69 474.802 165.69C475.682 165.69 476.522 165.51 477.322 165.15C478.122 164.77 478.782 164.3 479.302 163.74V151.8H482.542V168H479.572L479.422 166.23C478.682 166.85 477.842 167.35 476.902 167.73C475.982 168.11 474.922 168.3 473.722 168.3ZM492.396 168.3C491.136 168.3 490.006 168.02 489.006 167.46C488.006 166.9 487.216 166.02 486.636 164.82C486.056 163.6 485.766 162.04 485.766 160.14C485.766 157.44 486.456 155.33 487.836 153.81C489.216 152.27 491.286 151.5 494.046 151.5C495.906 151.5 497.406 151.82 498.546 152.46C499.686 153.08 500.516 153.89 501.036 154.89C501.576 155.89 501.846 156.96 501.846 158.1V168H498.576V158.25C498.576 157.45 498.436 156.74 498.156 156.12C497.876 155.5 497.396 155.02 496.716 154.68C496.056 154.32 495.146 154.14 493.986 154.14C492.226 154.14 490.936 154.65 490.116 155.67C489.316 156.69 488.916 158.18 488.916 160.14C488.916 162.2 489.266 163.64 489.966 164.46C490.666 165.28 491.666 165.69 492.966 165.69C493.346 165.69 493.716 165.67 494.076 165.63C494.456 165.59 494.776 165.53 495.036 165.45V167.94C494.696 168.06 494.316 168.15 493.896 168.21C493.476 168.27 492.976 168.3 492.396 168.3ZM494.723 149.34V144.96H503.543L503.423 147.24H497.423V149.34H494.723ZM508.553 168L504.803 151.8H508.013L510.413 163.38L513.353 154.11V151.8H515.693L518.963 163.38L521.303 151.8H524.483L520.763 168H517.763L514.763 157.68L511.523 168H508.553ZM534.821 168.3C532.501 168.3 530.681 167.75 529.361 166.65C528.061 165.55 527.411 163.9 527.411 161.7V151.8H530.681V161.82C530.681 163.16 531.031 164.14 531.731 164.76C532.451 165.38 533.481 165.69 534.821 165.69C536.181 165.69 537.211 165.38 537.911 164.76C538.631 164.14 538.991 163.16 538.991 161.82V151.8H542.231V161.7C542.231 163.9 541.581 165.55 540.281 166.65C538.981 167.75 537.161 168.3 534.821 168.3ZM550.063 168.3C548.203 168.3 546.583 168 545.203 167.4V164.82C545.803 165.08 546.453 165.29 547.153 165.45C547.873 165.61 548.583 165.69 549.283 165.69C550.643 165.69 551.723 165.5 552.523 165.12C553.323 164.74 553.893 164.13 554.233 163.29C554.593 162.43 554.773 161.3 554.773 159.9C554.773 157.82 554.343 156.34 553.483 155.46C552.643 154.58 551.233 154.14 549.253 154.14C548.533 154.14 547.833 154.22 547.153 154.38C546.473 154.52 545.823 154.73 545.203 155.01V152.4C545.883 152.12 546.613 151.9 547.393 151.74C548.193 151.58 549.053 151.5 549.973 151.5C552.653 151.5 554.643 152.22 555.943 153.66C557.263 155.08 557.923 157.16 557.923 159.9C557.923 162.62 557.293 164.7 556.033 166.14C554.793 167.58 552.803 168.3 550.063 168.3ZM553.875 149.31V144.39H557.145V149.31H553.875ZM567.075 168V157.8C567.075 156.98 566.985 156.3 566.805 155.76C566.625 155.22 566.285 154.82 565.785 154.56C565.285 154.28 564.545 154.14 563.565 154.14C562.925 154.14 562.225 154.21 561.465 154.35C560.725 154.49 560.055 154.68 559.455 154.92V152.4C560.055 152.14 560.775 151.93 561.615 151.77C562.475 151.59 563.335 151.5 564.195 151.5C566.355 151.5 567.915 151.97 568.875 152.91C569.855 153.85 570.345 155.34 570.345 157.38V168H567.075ZM1.83313 228V220.2C1.83313 219.027 2.05979 218 2.51313 217.12C2.96646 216.213 3.79313 215.587 4.99313 215.24L0.673125 214.16V209.68C1.73979 208.747 3.13979 207.907 4.87313 207.16C6.63313 206.387 8.68646 206 11.0331 206C14.2065 206 16.6465 206.667 18.3531 208C20.0598 209.307 20.9131 211.507 20.9131 214.6V228H16.5531V214.48C16.5531 212.64 16.1131 211.36 15.2331 210.64C14.3798 209.893 12.9265 209.52 10.8731 209.52C9.53979 209.52 8.29979 209.707 7.15313 210.08C6.00646 210.453 5.09979 210.947 4.43313 211.56V212.28L8.99313 213.44V216.32C7.95313 216.587 7.21979 217.013 6.79313 217.6C6.36646 218.187 6.15313 219.067 6.15313 220.24V228H1.83313ZM31.3644 228.4C28.8844 228.4 26.7244 228 24.8844 227.2V223.76C25.6844 224.107 26.551 224.387 27.4844 224.6C28.4444 224.813 29.391 224.92 30.3244 224.92C32.1377 224.92 33.5777 224.667 34.6444 224.16C35.711 223.653 36.471 222.84 36.9244 221.72C37.4044 220.573 37.6444 219.067 37.6444 217.2C37.6444 214.427 37.071 212.453 35.9244 211.28C34.8044 210.107 32.9244 209.52 30.2844 209.52C29.3244 209.52 28.391 209.627 27.4844 209.84C26.5777 210.027 25.711 210.307 24.8844 210.68V207.2C25.791 206.827 26.7644 206.533 27.8044 206.32C28.871 206.107 30.0177 206 31.2444 206C34.8177 206 37.471 206.96 39.2044 208.88C40.9644 210.773 41.8444 213.547 41.8444 217.2C41.8444 220.827 41.0044 223.6 39.3244 225.52C37.671 227.44 35.0177 228.4 31.3644 228.4ZM36.4472 203.08V196.52H40.8072V203.08H36.4472ZM54.0472 228V214.4C54.0472 213.307 53.9272 212.4 53.6872 211.68C53.4472 210.96 52.9939 210.427 52.3272 210.08C51.6605 209.707 50.6739 209.52 49.3672 209.52C48.5139 209.52 47.5805 209.613 46.5672 209.8C45.5805 209.987 44.6872 210.24 43.8872 210.56V207.2C44.6872 206.853 45.6472 206.573 46.7672 206.36C47.9139 206.12 49.0605 206 50.2072 206C53.0872 206 55.1672 206.627 56.4472 207.88C57.7539 209.133 58.4072 211.12 58.4072 213.84V228H54.0472ZM235.724 228.4C234.044 228.4 232.537 228.027 231.204 227.28C229.871 226.533 228.817 225.36 228.044 223.76C227.271 222.133 226.884 220.053 226.884 217.52C226.884 213.787 227.511 210.933 228.764 208.96C230.017 206.987 231.764 206 234.004 206C235.097 206 235.964 206.2 236.604 206.6C237.271 206.973 237.844 207.467 238.324 208.08C238.884 207.467 239.617 206.973 240.524 206.6C241.431 206.2 242.351 206 243.284 206C245.017 206 246.311 206.52 247.164 207.56C248.017 208.573 248.444 209.987 248.444 211.8V228H244.084V212.44C244.084 211.427 243.937 210.693 243.644 210.24C243.377 209.76 242.817 209.52 241.964 209.52C241.431 209.52 240.937 209.667 240.484 209.96C240.031 210.253 239.697 210.72 239.484 211.36H237.084C236.764 210.72 236.431 210.253 236.084 209.96C235.737 209.667 235.244 209.52 234.604 209.52C233.217 209.52 232.284 210.253 231.804 211.72C231.324 213.187 231.084 215.12 231.084 217.52C231.084 220.267 231.551 222.187 232.484 223.28C233.417 224.373 234.751 224.92 236.484 224.92C236.991 224.92 237.484 224.893 237.964 224.84C238.471 224.787 238.897 224.707 239.244 224.6V227.92C238.791 228.08 238.284 228.2 237.724 228.28C237.164 228.36 236.497 228.4 235.724 228.4ZM239.303 203.12V199.44H236.143V196.44H242.303V200.08H250.943L250.783 203.12H239.303ZM261.623 228.4C259.917 228.4 258.303 228.24 256.783 227.92C255.29 227.6 254.037 227.227 253.023 226.8V215.68H261.583L261.783 219H257.223V224.24C257.837 224.453 258.53 224.627 259.303 224.76C260.103 224.867 260.877 224.92 261.623 224.92C263.997 224.92 265.663 224.36 266.623 223.24C267.61 222.093 268.103 220.107 268.103 217.28C268.103 215.307 267.863 213.76 267.383 212.64C266.903 211.493 266.103 210.693 264.983 210.24C263.89 209.76 262.397 209.52 260.503 209.52C259.357 209.52 258.157 209.6 256.903 209.76C255.65 209.92 254.463 210.187 253.343 210.56V207.2C254.463 206.827 255.743 206.533 257.183 206.32C258.65 206.107 260.117 206 261.583 206C265.37 206 268.103 206.96 269.783 208.88C271.463 210.773 272.303 213.573 272.303 217.28C272.303 220.907 271.463 223.667 269.783 225.56C268.103 227.453 265.383 228.4 261.623 228.4ZM285.031 228.4C284.418 228.4 283.738 228.36 282.991 228.28C282.245 228.2 281.591 228.067 281.031 227.88L274.951 213.08H279.191L284.111 225.08C286.405 225.187 288.071 224.533 289.111 223.12C290.151 221.68 290.671 219.48 290.671 216.52C290.671 214.787 290.511 213.427 290.191 212.44C289.871 211.427 289.325 210.72 288.551 210.32C287.805 209.893 286.765 209.68 285.431 209.68H283.911V206.4H285.991C289.085 206.4 291.338 207.227 292.751 208.88C294.165 210.533 294.871 213.067 294.871 216.48C294.871 219.307 294.445 221.6 293.591 223.36C292.738 225.093 291.565 226.373 290.071 227.2C288.605 228 286.925 228.4 285.031 228.4ZM303.969 228C302.503 228 301.436 227.64 300.769 226.92C300.103 226.2 299.769 225.173 299.769 223.84V206.04C299.769 204.467 300.049 203.16 300.609 202.12C301.169 201.08 301.903 200.267 302.809 199.68H296.129V196.24H308.089V199.52C306.623 200.107 305.583 200.973 304.969 202.12C304.383 203.24 304.089 204.76 304.089 206.68V222.76C304.089 223.453 304.196 223.933 304.409 224.2C304.649 224.44 305.129 224.56 305.849 224.56H307.689V228H303.969ZM321.041 228.4C317.947 228.4 315.521 227.667 313.761 226.2C312.027 224.733 311.161 222.533 311.161 219.6V206.4H315.521V219.76C315.521 221.547 315.987 222.853 316.921 223.68C317.881 224.507 319.254 224.92 321.041 224.92C322.854 224.92 324.227 224.507 325.161 223.68C326.121 222.853 326.601 221.547 326.601 219.76V200H330.921V219.6C330.921 222.533 330.054 224.733 328.321 226.2C326.587 227.667 324.161 228.4 321.041 228.4ZM336.004 228V210.44C336.004 209.267 336.324 208.307 336.964 207.56C337.631 206.787 338.578 206.4 339.804 206.4H343.924L344.124 209.76H342.044C341.378 209.76 340.898 209.92 340.604 210.24C340.338 210.533 340.204 211.027 340.204 211.72V222.16L345.484 213H347.244L352.524 222.16V206.4H356.684V228H352.404L346.364 217.32L340.284 228H336.004ZM368.427 228.4C367.067 228.4 365.827 228.187 364.707 227.76C363.613 227.307 362.733 226.6 362.067 225.64C361.4 224.653 361.067 223.373 361.067 221.8C361.067 219.693 361.773 218.053 363.187 216.88C364.627 215.707 366.72 215.12 369.467 215.12H376.067V213.76C376.067 212.187 375.667 211.093 374.867 210.48C374.093 209.84 372.64 209.52 370.507 209.52C369.253 209.52 368.04 209.6 366.867 209.76C365.72 209.92 364.587 210.187 363.467 210.56V207.2C364.507 206.853 365.707 206.573 367.067 206.36C368.453 206.12 369.84 206 371.227 206C374.373 206 376.693 206.667 378.187 208C379.68 209.307 380.427 211.36 380.427 214.16V228H376.067V218.48H369.747C368.253 218.48 367.12 218.733 366.347 219.24C365.6 219.72 365.227 220.573 365.227 221.8C365.227 222.973 365.56 223.787 366.227 224.24C366.92 224.693 368.04 224.92 369.587 224.92C370.653 224.92 371.573 224.813 372.347 224.6V227.92C371.84 228.053 371.253 228.16 370.587 228.24C369.92 228.347 369.2 228.4 368.427 228.4ZM363.737 203.12L363.937 200.08H380.417V203.12H363.737ZM393.537 228.4C391.857 228.4 390.35 228.027 389.017 227.28C387.683 226.533 386.63 225.36 385.857 223.76C385.083 222.133 384.697 220.053 384.697 217.52C384.697 213.787 385.323 210.933 386.577 208.96C387.83 206.987 389.577 206 391.817 206C392.91 206 393.777 206.2 394.417 206.6C395.083 206.973 395.657 207.467 396.137 208.08C396.697 207.467 397.43 206.973 398.337 206.6C399.243 206.2 400.163 206 401.097 206C402.83 206 404.123 206.52 404.977 207.56C405.83 208.573 406.257 209.987 406.257 211.8V228H401.897V212.44C401.897 211.427 401.75 210.693 401.457 210.24C401.19 209.76 400.63 209.52 399.777 209.52C399.243 209.52 398.75 209.667 398.297 209.96C397.843 210.253 397.51 210.72 397.297 211.36H394.897C394.577 210.72 394.243 210.253 393.897 209.96C393.55 209.667 393.057 209.52 392.417 209.52C391.03 209.52 390.097 210.253 389.617 211.72C389.137 213.187 388.897 215.12 388.897 217.52C388.897 220.267 389.363 222.187 390.297 223.28C391.23 224.373 392.563 224.92 394.297 224.92C394.803 224.92 395.297 224.893 395.777 224.84C396.283 224.787 396.71 224.707 397.057 224.6V227.92C396.603 228.08 396.097 228.2 395.537 228.28C394.977 228.36 394.31 228.4 393.537 228.4ZM411.356 228V206.4H415.316L415.556 208.76C416.543 207.907 417.663 207.24 418.916 206.76C420.169 206.253 421.609 206 423.236 206C425.529 206 427.303 206.68 428.556 208.04C429.836 209.4 430.476 211.307 430.476 213.76V228H426.156V213.96C426.156 212.387 425.783 211.253 425.036 210.56C424.289 209.867 423.169 209.52 421.676 209.52C420.476 209.52 419.356 209.773 418.316 210.28C417.276 210.76 416.409 211.373 415.716 212.12V228H411.356ZM413.815 203.12L414.015 200.08H426.895V196.76H430.495V203.12H413.815ZM426.895 194.92V189.36H430.495V194.92H426.895ZM439.855 228C438.388 228 437.321 227.64 436.655 226.92C435.988 226.2 435.655 225.173 435.655 223.84V206.4H439.975V222.76C439.975 223.96 440.561 224.56 441.735 224.56H443.575V228H439.855ZM453.2 228.4C450.72 228.4 448.56 228 446.72 227.2V223.76C447.52 224.107 448.387 224.387 449.32 224.6C450.28 224.813 451.227 224.92 452.16 224.92C453.974 224.92 455.414 224.667 456.48 224.16C457.547 223.653 458.307 222.84 458.76 221.72C459.24 220.573 459.48 219.067 459.48 217.2C459.48 214.427 458.907 212.453 457.76 211.28C456.64 210.107 454.76 209.52 452.12 209.52C451.16 209.52 450.227 209.627 449.32 209.84C448.414 210.027 447.547 210.307 446.72 210.68V207.2C447.627 206.827 448.6 206.533 449.64 206.32C450.707 206.107 451.854 206 453.08 206C456.654 206 459.307 206.96 461.04 208.88C462.8 210.773 463.68 213.547 463.68 217.2C463.68 220.827 462.84 223.6 461.16 225.52C459.507 227.44 456.854 228.4 453.2 228.4ZM445.963 203.12L446.163 200.08H459.043V196.76H462.643V203.12H445.963ZM476.763 228.4C474.843 228.4 473.136 228.173 471.643 227.72C470.15 227.267 468.963 226.547 468.083 225.56C467.23 224.573 466.803 223.267 466.803 221.64C466.803 220.547 467.056 219.587 467.563 218.76C468.07 217.907 468.816 217.24 469.803 216.76C468.976 216.44 468.283 215.893 467.723 215.12C467.19 214.347 466.923 213.387 466.923 212.24C466.923 210.187 467.55 208.64 468.803 207.6C470.083 206.533 471.71 206 473.683 206C474.456 206 475.123 206.053 475.683 206.16C476.243 206.24 476.75 206.36 477.203 206.52V209.84C476.43 209.627 475.523 209.52 474.483 209.52C473.416 209.52 472.59 209.733 472.003 210.16C471.416 210.587 471.123 211.28 471.123 212.24C471.123 213.253 471.456 213.987 472.123 214.44C472.79 214.867 473.71 215.08 474.883 215.08H477.163L477.363 218.32H474.803C472.27 218.32 471.003 219.427 471.003 221.64C471.003 222.733 471.456 223.56 472.363 224.12C473.27 224.653 474.67 224.92 476.563 224.92C480.323 224.92 482.203 223.387 482.203 220.32V206.4H486.523V219.8C486.523 222.707 485.71 224.867 484.083 226.28C482.456 227.693 480.016 228.4 476.763 228.4ZM499.63 228.4C497.95 228.4 496.444 228.027 495.11 227.28C493.777 226.533 492.724 225.36 491.95 223.76C491.177 222.133 490.79 220.053 490.79 217.52C490.79 213.92 491.71 211.107 493.55 209.08C495.39 207.027 498.15 206 501.83 206C504.31 206 506.31 206.427 507.83 207.28C509.35 208.107 510.457 209.187 511.15 210.52C511.87 211.853 512.23 213.28 512.23 214.8V228H507.87V215C507.87 213.933 507.684 212.987 507.31 212.16C506.937 211.333 506.297 210.693 505.39 210.24C504.51 209.76 503.297 209.52 501.75 209.52C499.404 209.52 497.684 210.2 496.59 211.56C495.524 212.92 494.99 214.907 494.99 217.52C494.99 220.267 495.457 222.187 496.39 223.28C497.324 224.373 498.657 224.92 500.39 224.92C500.897 224.92 501.39 224.893 501.87 224.84C502.377 224.787 502.804 224.707 503.15 224.6V227.92C502.697 228.08 502.19 228.2 501.63 228.28C501.07 228.36 500.404 228.4 499.63 228.4ZM524.653 228.4C522.333 228.4 520.52 227.72 519.213 226.36C517.933 225 517.293 223.067 517.293 220.56V206.4H521.653V220.36C521.653 221.987 522.013 223.16 522.733 223.88C523.453 224.573 524.573 224.92 526.093 224.92C527.267 224.92 528.387 224.68 529.453 224.2C530.52 223.693 531.4 223.067 532.093 222.32V206.4H536.413V228H532.453L532.253 225.64C531.267 226.467 530.147 227.133 528.893 227.64C527.667 228.147 526.253 228.4 524.653 228.4ZM549.672 228V214.4C549.672 213.307 549.552 212.4 549.312 211.68C549.072 210.96 548.619 210.427 547.952 210.08C547.286 209.707 546.299 209.52 544.992 209.52C544.139 209.52 543.206 209.613 542.192 209.8C541.206 209.987 540.312 210.24 539.512 210.56V207.2C540.312 206.853 541.272 206.573 542.392 206.36C543.539 206.12 544.686 206 545.832 206C548.712 206 550.792 206.627 552.072 207.88C553.379 209.133 554.032 211.12 554.032 213.84V228H549.672ZM570.889 228.4C569.263 228.4 567.836 228.147 566.609 227.64C565.409 227.133 564.316 226.467 563.329 225.64L563.089 228H559.129V206.4H563.489V222.32C564.183 223.067 565.049 223.693 566.089 224.2C567.129 224.68 568.249 224.92 569.449 224.92C570.943 224.92 572.063 224.573 572.809 223.88C573.556 223.16 573.929 221.987 573.929 220.36V206.4H578.249V220.56C578.249 223.067 577.596 225 576.289 226.36C574.983 227.72 573.183 228.4 570.889 228.4Z" fill="white"/>
<path d="M74.6031 228L84.0831 205.6H71.5231V202.24H88.7631V205.04L79.0431 228H74.6031ZM115.784 228C114.317 228 113.25 227.64 112.584 226.92C111.917 226.2 111.584 225.173 111.584 223.84V206.4H115.904V222.76C115.904 223.96 116.49 224.56 117.664 224.56H119.304V228H115.784ZM106.064 228C104.624 228 103.557 227.64 102.864 226.92C102.197 226.2 101.864 225.173 101.864 223.84V206.4H106.224V222.76C106.224 223.96 106.81 224.56 107.984 224.56H109.584V228H106.064ZM133.423 228.4C130.33 228.4 127.903 227.667 126.143 226.2C124.41 224.733 123.543 222.533 123.543 219.6V206.4H127.903V219.76C127.903 221.547 128.37 222.853 129.303 223.68C130.263 224.507 131.637 224.92 133.423 224.92C135.237 224.92 136.61 224.507 137.543 223.68C138.503 222.853 138.983 221.547 138.983 219.76V206.4H143.303V219.6C143.303 222.533 142.437 224.733 140.703 226.2C138.97 227.667 136.543 228.4 133.423 228.4ZM155.467 228.4C154.054 228.4 152.681 228.307 151.347 228.12C150.041 227.933 148.961 227.667 148.107 227.32V223.68C149.121 224.08 150.214 224.387 151.387 224.6C152.587 224.813 153.681 224.92 154.667 224.92C156.507 224.92 157.867 224.76 158.747 224.44C159.627 224.093 160.067 223.387 160.067 222.32C160.067 221.547 159.841 220.96 159.387 220.56C158.934 220.16 158.267 219.813 157.387 219.52C156.507 219.2 155.414 218.827 154.107 218.4C152.881 217.973 151.774 217.507 150.787 217C149.801 216.493 149.014 215.853 148.427 215.08C147.867 214.307 147.587 213.333 147.587 212.16C147.587 210.267 148.307 208.773 149.747 207.68C151.187 206.56 153.361 206 156.267 206C157.494 206 158.707 206.093 159.907 206.28C161.107 206.467 162.094 206.693 162.867 206.96V210.56C161.987 210.213 161.001 209.96 159.907 209.8C158.841 209.613 157.841 209.52 156.907 209.52C155.361 209.52 154.121 209.693 153.187 210.04C152.254 210.36 151.787 211.027 151.787 212.04C151.787 212.707 152.027 213.24 152.507 213.64C152.987 214.013 153.667 214.36 154.547 214.68C155.454 214.973 156.534 215.333 157.787 215.76C159.201 216.213 160.387 216.72 161.347 217.28C162.307 217.813 163.027 218.48 163.507 219.28C164.014 220.053 164.267 221.067 164.267 222.32C164.267 224.427 163.467 225.973 161.867 226.96C160.294 227.92 158.161 228.4 155.467 228.4ZM175.903 228.4C173.583 228.4 171.77 227.72 170.463 226.36C169.183 225 168.543 223.067 168.543 220.56V206.4H172.903V220.36C172.903 221.987 173.263 223.16 173.983 223.88C174.703 224.573 175.823 224.92 177.343 224.92C178.517 224.92 179.637 224.68 180.703 224.2C181.77 223.693 182.65 223.067 183.343 222.32V206.4H187.663V228H183.703L183.503 225.64C182.517 226.467 181.397 227.133 180.143 227.64C178.917 228.147 177.503 228.4 175.903 228.4ZM200.802 228.4C199.122 228.4 197.616 228.027 196.282 227.28C194.949 226.533 193.896 225.36 193.122 223.76C192.349 222.133 191.962 220.053 191.962 217.52C191.962 213.92 192.882 211.107 194.722 209.08C196.562 207.027 199.322 206 203.002 206C205.482 206 207.482 206.427 209.002 207.28C210.522 208.107 211.629 209.187 212.322 210.52C213.042 211.853 213.402 213.28 213.402 214.8V228H209.042V215C209.042 213.933 208.856 212.987 208.482 212.16C208.109 211.333 207.469 210.693 206.562 210.24C205.682 209.76 204.469 209.52 202.922 209.52C200.576 209.52 198.856 210.2 197.762 211.56C196.696 212.92 196.162 214.907 196.162 217.52C196.162 220.267 196.629 222.187 197.562 223.28C198.496 224.373 199.829 224.92 201.562 224.92C202.069 224.92 202.562 224.893 203.042 224.84C203.549 224.787 203.976 224.707 204.322 224.6V227.92C203.869 228.08 203.362 228.2 202.802 228.28C202.242 228.36 201.576 228.4 200.802 228.4ZM203.905 203.12V197.28H215.665L215.505 200.32H207.505V203.12H203.905Z" fill="#2C2828"/>
<path d="M288 1.8C285.4 3.9 283.25 6.75 281.55 10.35C279.95 13.85 279.2 17.45 279.3 21.15C280.3 20.55 281.4 20.25 282.6 20.25C284.9 20.25 286.7 20.95 288 22.35C289.4 23.65 290.1 25.45 290.1 27.75C290.1 30.05 289.35 31.95 287.85 33.45C286.45 34.85 284.5 35.55 282 35.55C279.2 35.55 277 34.55 275.4 32.55C273.8 30.45 273 27.55 273 23.85C273 19.15 274.2 14.55 276.6 10.05C279 5.55 282.05 2.2 285.75 0L288 1.8ZM313.35 1.8C310.75 3.9 308.6 6.75 306.9 10.35C305.3 13.85 304.55 17.45 304.65 21.15C305.65 20.55 306.75 20.25 307.95 20.25C310.25 20.25 312.05 20.95 313.35 22.35C314.75 23.65 315.45 25.45 315.45 27.75C315.45 30.05 314.7 31.95 313.2 33.45C311.8 34.85 309.85 35.55 307.35 35.55C304.55 35.55 302.35 34.55 300.75 32.55C299.15 30.45 298.35 27.55 298.35 23.85C298.35 19.15 299.55 14.55 301.95 10.05C304.35 5.55 307.4 2.2 311.1 0L313.35 1.8Z" fill="white"/>
<path d="M276.1 364.75C278.7 362.65 280.8 359.85 282.4 356.35C284.1 352.75 284.9 349.1 284.8 345.4C283.8 346 282.7 346.3 281.5 346.3C279.3 346.3 277.5 345.6 276.1 344.2C274.7 342.8 274 341 274 338.8C274 336.5 274.7 334.65 276.1 333.25C277.6 331.75 279.6 331 282.1 331C284.9 331 287.1 332.05 288.7 334.15C290.3 336.15 291.1 339 291.1 342.7C291.1 347.4 289.9 352 287.5 356.5C285.1 361 282.05 364.35 278.35 366.55L276.1 364.75ZM301.45 364.75C304.05 362.65 306.15 359.85 307.75 356.35C309.45 352.75 310.25 349.1 310.15 345.4C309.15 346 308.05 346.3 306.85 346.3C304.65 346.3 302.85 345.6 301.45 344.2C300.05 342.8 299.35 341 299.35 338.8C299.35 336.5 300.05 334.65 301.45 333.25C302.95 331.75 304.95 331 307.45 331C310.25 331 312.45 332.05 314.05 334.15C315.65 336.15 316.45 339 316.45 342.7C316.45 347.4 315.25 352 312.85 356.5C310.45 361 307.4 364.35 303.7 366.55L301.45 364.75Z" fill="white"/>
</svg>
