<svg width="20" height="17" viewBox="0 0 20 17" fill="none" xmlns="http://www.w3.org/2000/svg">
<path d="M7 0.840002C5.78667 1.82 4.78333 3.15 3.99 4.83C3.24333 6.46333 2.89333 8.14333 2.94 9.87C3.40667 9.59 3.92 9.45 4.48 9.45C5.55333 9.45 6.39333 9.77667 7 10.43C7.65333 11.0367 7.98 11.8767 7.98 12.95C7.98 14.0233 7.63 14.91 6.93 15.61C6.27667 16.2633 5.36667 16.59 4.2 16.59C2.89333 16.59 1.86667 16.1233 1.12 15.19C0.373333 14.21 0 12.8567 0 11.13C0 8.93667 0.56 6.79 1.68 4.69C2.8 2.59 4.22333 1.02667 5.95 0L7 0.840002ZM18.83 0.840002C17.6167 1.82 16.6133 3.15 15.82 4.83C15.0733 6.46333 14.7233 8.14333 14.77 9.87C15.2367 9.59 15.75 9.45 16.31 9.45C17.3833 9.45 18.2233 9.77667 18.83 10.43C19.4833 11.0367 19.81 11.8767 19.81 12.95C19.81 14.0233 19.46 14.91 18.76 15.61C18.1067 16.2633 17.1967 16.59 16.03 16.59C14.7233 16.59 13.6967 16.1233 12.95 15.19C12.2033 14.21 11.83 12.8567 11.83 11.13C11.83 8.93667 12.39 6.79 13.51 4.69C14.63 2.59 16.0533 1.02667 17.78 0L18.83 0.840002Z" fill="#DE5850"/>
</svg>
