<svg width="36" height="50" viewBox="0 0 36 50" fill="none" xmlns="http://www.w3.org/2000/svg">
<path d="M10.0396 35.5298L10.2695 34.0071C10.5483 32.1614 11.181 30.6287 12.1675 29.409C13.1541 28.1893 14.3043 27.1359 15.6182 26.2489C16.9782 25.3688 18.3312 24.5348 19.6773 23.747C21.3351 22.7703 22.7587 21.7818 23.9481 20.7816C25.1444 19.7352 25.8715 18.3583 26.1294 16.651C26.4988 14.2054 26.0449 12.367 24.7678 11.1358C23.4977 9.85846 21.063 8.94799 17.4638 8.40438C15.5258 8.11167 13.5494 8.07274 11.5348 8.28761C9.52704 8.45633 7.73262 8.77526 6.1515 9.24439L7.11326 2.87661C8.80061 2.32913 10.7866 1.99194 13.0711 1.86503C15.4019 1.74509 17.8362 1.87678 20.374 2.2601C25.4498 3.02672 29.109 4.73569 31.3515 7.387C33.601 9.99216 34.4261 13.2789 33.8267 17.2472C33.4364 19.8313 32.4964 21.8367 31.0066 23.2635C29.5699 24.6512 27.7109 26.0223 25.4297 27.3768C24.0236 28.2499 22.7733 29.0286 21.6788 29.7128C20.6305 30.404 19.7563 31.1923 19.0562 32.0777C18.4093 32.9239 17.9778 34.0622 17.7617 35.4927L17.584 36.6693L10.0396 35.5298ZM8.06915 46.7008L8.92638 41.0252L16.9553 42.2379L16.0981 47.9135L8.06915 46.7008Z" fill="white"/>
<path d="M10.0396 35.5298L9.05077 35.3805L8.90143 36.3693L9.89022 36.5186L10.0396 35.5298ZM12.1675 29.409L11.39 28.7801L12.1675 29.409ZM15.6182 26.2489L15.0749 25.4093L15.0667 25.4146L15.0586 25.4201L15.6182 26.2489ZM19.6773 23.747L20.1824 24.6101L20.1849 24.6086L19.6773 23.747ZM23.9481 20.7816L24.5917 21.5469L24.5991 21.5407L24.6064 21.5343L23.9481 20.7816ZM24.7678 11.1358L24.0587 11.8409L24.0661 11.8484L24.0738 11.8557L24.7678 11.1358ZM11.5348 8.28761L11.6185 9.2841L11.6297 9.28316L11.6408 9.28197L11.5348 8.28761ZM6.1515 9.24439L5.16271 9.09504L4.92777 10.6506L6.43595 10.2031L6.1515 9.24439ZM7.11326 2.87661L6.80464 1.92542L6.21678 2.11616L6.12448 2.72727L7.11326 2.87661ZM13.0711 1.86503L13.0198 0.866342L13.0157 0.866568L13.0711 1.86503ZM31.3515 7.38699L30.5879 8.03282L30.5946 8.04055L31.3515 7.38699ZM31.0066 23.2635L30.3149 22.5413L30.3118 22.5443L31.0066 23.2635ZM25.4297 27.3768L24.9192 26.517L24.9107 26.522L24.9022 26.5273L25.4297 27.3768ZM21.6788 29.7128L21.1487 28.8649L21.1385 28.8713L21.1284 28.878L21.6788 29.7128ZM19.0562 32.0777L18.2718 31.4574L18.2668 31.4638L18.2618 31.4703L19.0562 32.0777ZM17.584 36.6693L17.4346 37.6581L18.4234 37.8074L18.5728 36.8187L17.584 36.6693ZM8.06915 46.7008L7.08037 46.5515L6.93102 47.5403L7.91981 47.6896L8.06915 46.7008ZM8.92638 41.0252L9.07572 40.0364L8.08694 39.8871L7.93759 40.8759L8.92638 41.0252ZM16.9553 42.2379L17.9441 42.3872L18.0934 41.3984L17.1047 41.2491L16.9553 42.2379ZM16.0981 47.9135L15.9487 48.9023L16.9375 49.0516L17.0869 48.0628L16.0981 47.9135ZM11.0283 35.6792L11.2583 34.1564L9.28076 33.8577L9.05077 35.3805L11.0283 35.6792ZM11.2583 34.1564C11.5156 32.4529 12.0898 31.0951 12.945 30.0379L11.39 28.7801C10.2721 30.1622 9.58102 31.8698 9.28076 33.8577L11.2583 34.1564ZM12.945 30.0379C13.8686 28.8961 14.9451 27.9098 16.1777 27.0777L15.0586 25.4201C13.6635 26.362 12.4396 27.4825 11.39 28.7801L12.945 30.0379ZM16.1615 27.0884C17.5094 26.2161 18.8497 25.39 20.1824 24.6101L19.1722 22.884C17.8127 23.6796 16.447 24.5214 15.0749 25.4093L16.1615 27.0884ZM20.1849 24.6086C21.8799 23.61 23.3511 22.5902 24.5917 21.5469L23.3044 20.0162C22.1663 20.9734 20.7904 21.9306 19.1697 22.8854L20.1849 24.6086ZM24.6064 21.5343C25.9967 20.3183 26.8283 18.7198 27.1182 16.8003L25.1406 16.5017C24.9148 17.9968 24.2922 19.1521 23.2897 20.0289L24.6064 21.5343ZM27.1182 16.8003C27.5154 14.1705 27.0563 11.953 25.4618 10.4159L24.0738 11.8557C25.0335 12.781 25.4822 14.2404 25.1406 16.5017L27.1182 16.8003ZM25.4769 10.4307C23.9641 8.90929 21.2445 7.96406 17.6131 7.41559L17.3145 9.39316C20.8815 9.93191 23.0312 10.8076 24.0587 11.8409L25.4769 10.4307ZM17.6131 7.41559C15.5878 7.10969 13.5255 7.06962 11.4287 7.29325L11.6408 9.28197C13.5733 9.07586 15.4638 9.11364 17.3145 9.39316L17.6131 7.41559ZM11.451 7.29112C9.38964 7.46435 7.52611 7.79344 5.86705 8.2857L6.43595 10.2031C7.93913 9.75707 9.66444 9.44831 11.6185 9.2841L11.451 7.29112ZM7.14028 9.39373L8.10205 3.02595L6.12448 2.72727L5.16271 9.09504L7.14028 9.39373ZM7.42188 3.82779C9.00755 3.31331 10.9047 2.98692 13.1266 2.86349L13.0157 0.866568C10.6685 0.996955 8.59367 1.34495 6.80464 1.92542L7.42188 3.82779ZM13.1225 2.86371C15.3799 2.74755 17.7467 2.87462 20.2247 3.24888L20.5234 1.27131C17.9256 0.878951 15.4238 0.742642 13.0198 0.86635L13.1225 2.86371ZM20.2247 3.24888C25.1726 3.9962 28.562 5.63749 30.588 8.03279L32.115 6.7412C29.6559 3.83388 25.727 2.05725 20.5234 1.27131L20.2247 3.24888ZM30.5946 8.04055C32.6208 10.3871 33.4017 13.3651 32.8379 17.0979L34.8155 17.3966C35.4504 13.1927 34.5812 9.59719 32.1084 6.73345L30.5946 8.04055ZM32.8379 17.0979C32.4717 19.5225 31.6067 21.3041 30.3149 22.5413L31.6983 23.9857C33.3861 22.3692 34.4011 20.14 34.8155 17.3966L32.8379 17.0979ZM30.3118 22.5443C28.9457 23.8638 27.1541 25.1899 24.9192 26.517L25.9403 28.2366C28.2678 26.8546 30.1941 25.4386 31.7013 23.9828L30.3118 22.5443ZM24.9022 26.5273C23.4954 27.4008 22.2442 28.18 21.1487 28.8649L22.2089 30.5608C23.3023 29.8772 24.5517 29.0991 25.9573 28.2264L24.9022 26.5273ZM21.1284 28.878C20.001 29.6212 19.0449 30.4797 18.2718 31.4574L19.8406 32.6979C20.4677 31.9049 21.26 31.1868 22.2293 30.5477L21.1284 28.878ZM18.2618 31.4703C17.4824 32.4898 17.0055 33.8033 16.7729 35.3433L18.7505 35.642C18.95 34.3211 19.3361 33.358 19.8506 32.6851L18.2618 31.4703ZM16.7729 35.3433L16.5952 36.52L18.5728 36.8187L18.7505 35.642L16.7729 35.3433ZM17.7333 35.6805L10.1889 34.541L9.89022 36.5186L17.4346 37.6581L17.7333 35.6805ZM9.05794 46.8502L9.91516 41.1745L7.93759 40.8759L7.08037 46.5515L9.05794 46.8502ZM8.77704 42.014L16.806 43.2267L17.1047 41.2491L9.07572 40.0364L8.77704 42.014ZM15.9665 42.0885L15.1093 47.7642L17.0869 48.0628L17.9441 42.3872L15.9665 42.0885ZM16.2474 46.9247L8.21849 45.712L7.91981 47.6896L15.9487 48.9023L16.2474 46.9247Z" fill="black"/>
</svg>
